<svg width="254" height="110" fill="none" xmlns="http://www.w3.org/2000/svg"><path opacity=".4" fill-rule="evenodd" clip-rule="evenodd" d="M49 84.05c0 26.725 37.9 24.788 37.9 24.788s101.847 2.614 135.569 0c9.718-.775 31.531-1.049 31.531-21.384 0-35.357-28.518-27.516-39.5-37.876C202.741 38.442 214.5 0 173.684 0s-30.224 37.086-41.983 48.125C116.93 61.875 49 46.092 49 84.049z" fill="url(#paint0_linear)"/><path opacity=".2" fill-rule="evenodd" clip-rule="evenodd" d="M0 52.62c0 10.69 15.53 9.915 15.53 9.915s41.732 1.046 55.55 0c3.982-.31 12.92-.42 12.92-8.553 0-14.143-11.686-11.007-16.185-15.151C62.996 34.377 67.815 19 51.09 19S38.706 33.834 33.887 38.25C27.835 43.75 0 37.437 0 52.62z" fill="url(#paint1_linear)"/><defs><linearGradient id="paint0_linear" x1="151.5" y1="0" x2="152" y2="110" gradientUnits="userSpaceOnUse"><stop stop-color="#2E4BF5"/><stop offset="1" stop-color="#2E4BF5" stop-opacity="0"/></linearGradient><linearGradient id="paint1_linear" x1="42" y1="19" x2="42" y2="63" gradientUnits="userSpaceOnUse"><stop stop-color="#2E4BF5"/><stop offset="1" stop-color="#2E4BF5" stop-opacity="0"/></linearGradient></defs></svg>