<?xml version="1.0" encoding="UTF-8"?>
<!DOCTYPE svg PUBLIC "-//W3C//DTD SVG 1.1//EN" "http://www.w3.org/Graphics/SVG/1.1/DTD/svg11.dtd">
<!-- Creator: CorelDRAW 2020 (64-Bit Evaluation Version) -->
<svg xmlns="http://www.w3.org/2000/svg" xml:space="preserve" width="154.234mm" height="159.369mm" version="1.1" style="shape-rendering:geometricPrecision; text-rendering:geometricPrecision; image-rendering:optimizeQuality; fill-rule:evenodd; clip-rule:evenodd"
viewBox="0 0 5051.58 5219.75"
 xmlns:xlink="http://www.w3.org/1999/xlink"
 xmlns:xodm="http://www.corel.com/coreldraw/odm/2003">
 <defs>
  <style type="text/css">
   <![CDATA[
    .fil2 {fill:#FEFEFE;fill-rule:nonzero}
    .fil7 {fill:#FABBA3;fill-rule:nonzero}
    .fil9 {fill:#F79A73;fill-rule:nonzero}
    .fil5 {fill:#F05B66;fill-rule:nonzero}
    .fil14 {fill:#F9F8F8;fill-rule:nonzero}
    .fil1 {fill:#F3F4F4;fill-rule:nonzero}
    .fil3 {fill:#EDEDEB;fill-rule:nonzero}
    .fil12 {fill:#D84B52;fill-rule:nonzero}
    .fil0 {fill:#E0E1E2;fill-rule:nonzero}
    .fil15 {fill:#C9CACB;fill-rule:nonzero}
    .fil6 {fill:#A43D43;fill-rule:nonzero}
    .fil8 {fill:#9C9D9D;fill-rule:nonzero}
    .fil11 {fill:#44616B;fill-rule:nonzero}
    .fil10 {fill:#2C3134;fill-rule:nonzero}
    .fil4 {fill:#313F44;fill-rule:nonzero}
    .fil13 {fill:#2E373B;fill-rule:nonzero}
   ]]>
  </style>
 </defs>
 <g id="Layer_x0020_1">
  <metadata id="CorelCorpID_0Corel-Layer"/>
  <path class="fil0" d="M3164.54 1241.98c-8.3,0.52 -15.97,5.68 -19.32,13.91l-41.83 103.08c-2.63,6.48 -2.07,13.83 1.5,19.84 3.58,6.01 9.77,9.99 16.73,10.76 18.25,2.02 35.5,12.31 47.33,28.22 10.9,14.63 15.48,32.1 12.58,47.93 -2.88,15.78 -13.38,30.63 -28.81,40.77 -16.51,10.84 -36.66,14.94 -53.97,10.92 -35.35,-8.2 -62.74,-47.28 -59.8,-85.35 0.95,-12.31 -8.25,-23.04 -20.54,-23.99 -12.51,-0.92 -23.04,8.25 -24,20.54 -4.63,59.84 37.66,119.2 94.26,132.32 29.35,6.8 61.68,0.58 88.58,-17.11 25.58,-16.8 43.14,-42.35 48.23,-70.08 5.11,-27.97 -2.42,-58.1 -20.69,-82.64 -13.21,-17.74 -30.8,-31.2 -50.41,-38.97l32.25 -79.45c4.63,-11.43 -0.88,-24.46 -12.31,-29.09 -3.21,-1.29 -6.54,-1.8 -9.79,-1.6z"/>
  <path class="fil0" d="M3210.64 1210.22c4.02,-9.26 -0.21,-20.02 -9.46,-24.06 -9.24,-4.03 -20.01,0.2 -24.04,9.45 -4.04,9.24 0.2,20.01 9.45,24.05 9.25,4.04 20.01,-0.21 24.06,-9.45z"/>
  <path class="fil0" d="M2517.81 431.68c3.33,-7.57 2.28,-16.69 -3.46,-23.4l-71.82 -83.95c-4.51,-5.28 -11.24,-8.15 -18.18,-7.73 -6.94,0.42 -13.27,4.05 -17.13,9.85 -10.11,15.16 -27.05,25.68 -46.49,28.86 -17.89,2.92 -35.39,-0.99 -48.03,-10.79 -12.59,-9.73 -20.91,-25.78 -22.81,-44.01 -2.03,-19.52 3.55,-39.16 15.01,-52.6 23.36,-27.43 70.34,-33.74 102.58,-13.77 10.41,6.46 24.08,3.25 30.54,-7.16 6.53,-10.62 3.25,-24.09 -7.18,-30.55 -50.66,-31.39 -122.31,-21.2 -159.74,22.74 -19.39,22.79 -28.67,54.13 -25.35,85.93 3.14,30.24 17.65,57.4 39.8,74.54 22.33,17.28 52.34,24.38 82.34,19.47 21.68,-3.53 41.57,-12.93 57.39,-26.67l55.36 64.71c7.96,9.31 21.96,10.4 31.28,2.42 2.61,-2.23 4.58,-4.93 5.88,-7.88z"/>
  <path class="fil0" d="M2524.79 486.82c6.32,7.79 17.75,8.96 25.52,2.64 7.79,-6.31 8.96,-17.75 2.65,-25.52 -6.32,-7.78 -17.75,-8.97 -25.52,-2.65 -7.79,6.32 -8.97,17.75 -2.65,25.52z"/>
  <polygon class="fil0" points="4000.43,1980.48 5026.85,1980.48 5026.85,492.73 4000.43,492.73 "/>
  <polygon class="fil1" points="3949.01,1980.48 4975.44,1980.48 4975.44,492.73 3949.01,492.73 "/>
  <polygon class="fil2" points="4076.54,1819.34 4847.91,1819.34 4847.91,653.87 4076.54,653.87 "/>
  <path class="fil0" d="M4847.91 1819.34c0,0 -0.1,-1.97 -0.15,-5.7 -0.04,-3.85 -0.09,-9.34 -0.15,-16.52 -0.07,-14.64 -0.17,-36.08 -0.31,-63.93 -0.16,-55.85 -0.39,-137.25 -0.68,-240.08 -0.32,-205.52 -0.75,-496.54 -1.27,-839.25l2.56 2.56c-235.67,0.07 -496.8,0.15 -771.28,0.23l-0.09 0 2.79 -2.79c-0.21,439.67 -0.41,845.05 -0.57,1165.48l-2.22 -2.22c234.91,0.49 427.47,0.89 561.46,1.17 67.02,0.26 119.36,0.44 155.12,0.57 17.77,0.11 31.38,0.2 40.7,0.26 9.22,0.08 14.09,0.23 14.09,0.23 0,0 -4.54,0.17 -13.61,0.24 -9.24,0.06 -22.72,0.15 -40.3,0.26 -35.63,0.13 -87.81,0.32 -154.62,0.57 -134.32,0.28 -327.35,0.68 -562.84,1.17l-2.22 0 0 -2.23c-0.16,-320.43 -0.36,-725.81 -0.57,-1165.48l-0.01 -2.79 2.89 0c274.47,0.08 535.6,0.16 771.28,0.23l2.56 0 0 2.55c-0.52,343.39 -0.95,635 -1.27,840.93 -0.29,102.58 -0.52,183.78 -0.68,239.51 -0.14,27.61 -0.24,48.89 -0.31,63.41 -0.07,7.06 -0.12,12.46 -0.14,16.24 -0.06,3.63 -0.16,5.39 -0.16,5.39z"/>
  <path class="fil0" d="M4978.31 492.73c0.6,0.47 -6.36,10.64 -18.29,26.59 -11.93,15.94 -28.85,37.63 -48.16,61.09 -19.33,23.45 -37.37,44.22 -50.73,58.97 -13.37,14.76 -22.01,23.56 -22.59,23.05 -0.58,-0.51 7.01,-10.22 19.6,-25.62 13.76,-16.7 30.69,-37.24 49.42,-59.96 18.71,-22.73 35.62,-43.28 49.36,-59.98 12.71,-15.31 20.77,-24.62 21.4,-24.15z"/>
  <path class="fil2" d="M4851.84 1815.6c38.31,60.92 83.54,117.49 134.54,168.26l-134.54 -168.26z"/>
  <path class="fil0" d="M4986.38 1983.86c-0.51,0.52 -9.67,-7.43 -23.46,-21.33 -13.78,-13.9 -32.06,-33.91 -50.76,-57.25 -18.66,-23.36 -34.15,-45.59 -44.67,-62.11 -10.52,-16.51 -16.27,-27.2 -15.66,-27.57 0.69,-0.44 7.61,9.49 18.93,25.36 11.31,15.88 27.21,37.6 45.77,60.83 18.58,23.2 36.27,43.49 49.27,58.01 13,14.54 21.15,23.47 20.58,24.05z"/>
  <path class="fil2" d="M3948.86 1979.3c44.82,-55.29 89.64,-110.59 134.45,-165.88l-134.45 165.88z"/>
  <path class="fil0" d="M4083.31 1813.43c1.2,0.97 -27.93,38.89 -65.05,84.69 -37.13,45.81 -68.19,82.15 -69.4,81.18 -1.19,-0.97 27.93,-38.88 65.06,-84.69 37.13,-45.8 68.19,-82.15 69.39,-81.18z"/>
  <path class="fil0" d="M3949.01 492.73c1.2,-0.95 30.43,33.98 65.25,78.02 34.85,44.06 62.09,80.52 60.89,81.48 -1.2,0.96 -30.42,-33.97 -65.26,-78.02 -34.83,-44.03 -62.08,-80.51 -60.88,-81.48z"/>
  <polygon class="fil0" points="4349.3,1623.86 4607.58,1623.86 4607.58,890.5 4349.3,890.5 "/>
  <polygon class="fil0" points="1072.43,966.74 990.33,967.17 988.13,558.6 1070.25,558.16 "/>
  <polygon class="fil3" points="490.62,784.79 277.98,785.92 276.78,560.37 489.42,559.22 "/>
  <polygon class="fil1" points="702.25,783.65 489.62,784.79 488.4,559.23 701.05,558.09 "/>
  <path class="fil0" d="M277.11 622.66c141.31,1.17 282.98,0.33 424.27,-1.95 2.91,-0.05 2.89,-4.51 -0.02,-4.52 -141.31,-0.79 -282.97,-0.09 -424.26,2.6 -2.5,0.05 -2.48,3.85 0.01,3.87z"/>
  <polygon class="fil3" points="531.52,964.84 145.19,966.91 144.21,783.1 530.53,781.02 "/>
  <polygon class="fil1" points="916.01,962.78 529.69,964.85 528.7,781.03 915.03,778.96 "/>
  <path class="fil0" d="M144.47 834.22c256.65,2.91 514.2,0.3 770.83,-3.81 2.91,-0.05 2.89,-4.5 -0.02,-4.52 -256.66,-1.35 -514.23,-1.2 -770.83,4.46 -2.49,0.06 -2.48,3.85 0.02,3.87z"/>
  <polygon class="fil0" points="-0,1032.77 1496.76,1032.77 1496.76,966.91 -0,966.91 "/>
  <polygon class="fil0" points="245.05,1223.29 305.82,1223.29 305.82,998.57 245.05,998.57 "/>
  <polygon class="fil0" points="1152.09,1223.29 1212.84,1223.29 1212.84,998.57 1152.09,998.57 "/>
  <polygon class="fil3" points="1153.38,967.74 1071.27,968.18 1068.27,406.24 1150.38,405.8 "/>
  <polygon class="fil1" points="1281.12,965.79 1153.53,966.48 1151.08,511.09 1278.68,510.41 "/>
  <path class="fil0" d="M1277.81 598.14c0,1.22 -28.56,2.21 -63.79,2.21 -35.24,0 -63.8,-0.98 -63.8,-2.21 0,-1.22 28.56,-2.21 63.8,-2.21 35.23,0 63.79,0.98 63.79,2.21z"/>
  <path class="fil0" d="M1277.81 579c0,1.22 -28.56,2.21 -63.79,2.21 -35.24,0 -63.8,-0.98 -63.8,-2.21 0,-1.22 28.56,-2.21 63.8,-2.21 35.23,0 63.79,0.98 63.79,2.21z"/>
  <path class="fil0" d="M1277.81 897.28c0,1.22 -28.56,2.21 -63.79,2.21 -35.24,0 -63.8,-0.99 -63.8,-2.21 0,-1.22 28.56,-2.22 63.8,-2.22 35.23,0 63.79,0.99 63.79,2.22z"/>
  <path class="fil0" d="M1277.81 878.15c0,1.22 -28.56,2.21 -63.79,2.21 -35.24,0 -63.8,-0.98 -63.8,-2.21 0,-1.22 28.56,-2.2 63.8,-2.2 35.23,0 63.79,0.98 63.79,2.2z"/>
  <path class="fil0" d="M1216.08 836.4c-1.22,0 -2.22,-45.94 -2.22,-102.6 0,-56.68 0.99,-102.61 2.22,-102.61 1.22,0 2.21,45.93 2.21,102.61 0,56.66 -0.98,102.6 -2.21,102.6z"/>
  <polygon class="fil3" points="1279.2,965.96 1418.08,965.96 1418.08,622.23 1279.2,622.23 "/>
  <path class="fil0" d="M1131.71 501.74c0,13.03 -10.57,23.59 -23.6,23.59 -13.04,0 -23.6,-10.56 -23.6,-23.59 0,-13.03 10.57,-23.6 23.6,-23.6 13.04,0 23.6,10.57 23.6,23.6z"/>
  <polygon class="fil0" points="1100.82,900.95 1115.41,900.95 1115.41,566.65 1100.82,566.65 "/>
  <path class="fil4" d="M5051.58 5212.22c-17.59,1.65 -1117.67,2.98 -2472.1,2.98 -1365.88,0 -2472.76,-1.35 -2472.76,-3.02 0,-1.65 1106.88,-3.02 2472.76,-3.02 1354.42,0 2454.51,1.34 2472.1,2.98l0 0.08z"/>
  <polygon class="fil0" points="664.42,2552.12 4017.57,2552.12 4017.57,2444.75 664.42,2444.75 "/>
  <polygon class="fil0" points="968.71,5217.67 859.85,5217.28 859.85,2537.95 968.71,2537.95 "/>
  <polygon class="fil0" points="3858.24,5217.42 3748.27,5217.42 3749.38,2537.95 3858.24,2537.95 "/>
  <path class="fil5" d="M1963.84 1457.57c0,0 598.56,627.05 587.99,766.22 -10.57,139.16 -144.5,169.34 -188.24,163.95 -43.74,-5.4 -372.77,-371.89 -372.77,-371.89l-26.98 -558.27z"/>
  <path class="fil6" d="M2373.6 2388.32l0.18 0 0.18 0 0.18 0c51.51,0 167.86,-35.22 177.68,-164.53 0.09,-1.11 0.14,-2.24 0.14,-3.42l0 -0.06 0 -0.06 0 -0.06 0 -0.06 0 -0.06 0 -0.06c-0.04,-106.76 -313.01,-463.5 -482.32,-648.69l-0 0c19.63,73.15 28.76,149.72 28.81,219.76l-5.26 336.66c100.51,108.27 242.69,256.58 270.4,260 2.95,0.36 6.3,0.57 10.01,0.59z"/>
  <polygon class="fil7" points="2282.81,4555.46 2445.06,5098.48 2627.47,4999.43 2523.84,4502.31 "/>
  <path class="fil5" d="M2605.08 4760.49l55.88 257c0,0 280.01,29.52 294.96,76.02l-494.44 126.24 -103.5 -396.87 247.1 -62.39z"/>
  <path class="fil0" d="M2502.6 5035.11c-8.9,5.06 -12.77,17.51 -8.07,26.61 4.69,9.1 17.31,13.14 26.31,8.23 8.98,-4.89 14.07,-19.7 8.4,-28.22 -5.69,-8.52 -20.76,-12.45 -28.31,-5.53l1.67 -1.1z"/>
  <path class="fil8" d="M2955.91 5093.51c-2.16,-6.72 -9.86,-13.08 -21.43,-19.05 7.14,2.01 20.36,7.3 21.43,19.05z"/>
  <path class="fil6" d="M2461.48 5219.75l0 0 -8.86 -40.42 477.37 -105.93c0,0 1.81,0.3 4.5,1.05 11.58,5.97 19.27,12.33 21.43,19.05l0 0 -452.99 115.66 -23.58 6.03 -17.86 4.55z"/>
  <path class="fil4" d="M2668.32 5012.94c0.54,2.44 -11.24,6.61 -21.14,17.41 -10.19,10.54 -13.65,22.56 -16.1,22.17 -2.35,0.1 -2.44,-15.26 9.78,-28.11 12.1,-12.96 27.42,-13.81 27.46,-11.46z"/>
  <path class="fil4" d="M2725.67 5021.15c1.16,2.2 -8.26,8.97 -13.85,21.29 -5.96,12.13 -5.2,23.69 -7.64,24.2 -2.17,0.96 -7.45,-12.75 -0.21,-27.92 7.1,-15.23 21.05,-19.86 21.7,-17.58z"/>
  <path class="fil4" d="M2770.96 5075.7c-2.06,1.07 -8.49,-10.13 -5.67,-24.95 2.72,-14.83 12.77,-22.95 14.3,-21.19 1.87,1.64 -3.64,10.59 -5.78,22.8 -2.41,12.13 -0.51,22.48 -2.85,23.34z"/>
  <path class="fil4" d="M2649.1 4955.78c-0.45,2.47 -12.37,1.96 -25.79,6.35 -13.49,4.15 -22.96,11.44 -24.74,9.68 -1.84,-1.39 6.24,-12.96 22.11,-17.93 15.82,-5.1 29.12,-0.31 28.41,1.9z"/>
  <path class="fil4" d="M2636.87 4904.13c0.28,0.99 -8.89,4.93 -24.81,6.19 -7.93,0.64 -17.49,0.43 -27.94,-1.34 -5.21,-0.89 -10.64,-2.17 -16.14,-3.92 -2.66,-0.87 -5.73,-1.67 -8.96,-3.9 -3.32,-1.84 -6.47,-7.86 -4.39,-12.57 1.57,-4.45 5.63,-7.22 9.17,-8.22 3.62,-1.05 6.76,-1.07 9.61,-1.08 5.85,-0.07 11.47,0.44 16.74,1.35 10.55,1.88 19.61,5.36 26.66,9.15 14.19,7.7 20.4,15.71 19.7,16.4 -0.89,1.06 -8.4,-5.07 -22.31,-10.85 -6.93,-2.88 -15.53,-5.48 -25.26,-6.81 -4.88,-0.62 -10.03,-0.93 -15.34,-0.75 -5.58,-0.04 -10.05,1.06 -10.81,3.73 -0.25,1.02 -0.23,1.39 1.26,2.65 1.49,1.11 3.96,1.96 6.59,2.84 5.09,1.73 10.13,3.09 14.98,4.14 9.72,2.08 18.71,2.89 26.27,3.06 15.18,0.34 24.67,-1.39 24.97,-0.07z"/>
  <path class="fil4" d="M2634.6 4908.4c-0.75,0.6 -7.75,-6.84 -12.64,-22.26 -2.39,-7.63 -3.97,-17.25 -3.53,-27.97 0.26,-5.34 1.03,-10.95 2.47,-16.64 1.64,-5.61 3.5,-13.07 12.61,-16.53 4.83,-1.43 9.88,1.35 12.1,4.26 2.49,2.92 3.55,5.72 4.85,8.44 2.39,5.53 3.73,11.23 4.27,16.66 1.14,10.93 -0.94,20.78 -4.03,28.29 -6.4,15.27 -15.74,20.73 -16.15,19.97 -1.1,-1.02 6.12,-7.82 10.37,-22.02 2.09,-7 3.29,-15.83 1.89,-25.27 -0.68,-4.71 -2,-9.53 -4.11,-14.19 -2.1,-5.06 -5.17,-8.79 -6.99,-7.76 -2.47,0.59 -5.64,5.62 -6.59,10.32 -1.41,5.09 -2.28,10.13 -2.72,14.99 -0.81,9.73 0.01,18.64 1.51,25.94 3.03,14.69 7.92,23.07 6.69,23.77z"/>
  <path class="fil4" d="M1842.15 3007.1c6.01,24.03 429.88,1753.39 429.88,1753.39l384.91 -116.19 -363.4 -1751.67 -451.39 114.47z"/>
  <path class="fil7" d="M1785.5 797.66l-67.26 516.7c-11.45,87.87 52.98,167.42 141.3,174.52 82.42,6.61 155.55,-52.72 166.13,-134.73 5.03,-38.89 9.3,-71.34 10.08,-75.29 0,0 133.15,4.75 159.59,-124.2 12.79,-62.32 28.66,-192.82 41.65,-311.04 13.96,-126.96 -72.1,-243.33 -197.53,-267.43l-12.47 -2.4c-136,-18 -227.25,87.44 -241.49,223.88z"/>
  <path class="fil9" d="M2036.31 1277.03c0,0 -82.96,-9.06 -159.3,-80.29 0,0 21.95,100.68 153.16,113.83l6.13 -33.54z"/>
  <path class="fil4" d="M2200.04 916.63c-1.53,9.81 -11.1,16.61 -21.39,15.21 -10.25,-1.42 -17.36,-10.49 -15.82,-20.3 1.52,-9.82 11.09,-16.64 21.35,-15.23 10.28,1.41 17.38,10.5 15.85,20.32z"/>
  <path class="fil4" d="M2201.11 894.39c-2.76,1.97 -14.74,-11.07 -34.63,-14.83 -19.79,-4.04 -36.34,3.36 -38.01,0.52 -0.87,-1.28 2.31,-5.18 9.54,-8.57 7.13,-3.41 18.65,-5.84 31.01,-3.4 12.36,2.45 21.9,9 26.98,14.81 5.2,5.86 6.44,10.61 5.11,11.47z"/>
  <path class="fil4" d="M2000.19 888.3c-1.53,9.81 -11.09,16.61 -21.38,15.19 -10.26,-1.4 -17.35,-10.49 -15.83,-20.3 1.54,-9.81 11.1,-16.62 21.36,-15.22 10.28,1.41 17.38,10.5 15.84,20.32z"/>
  <path class="fil4" d="M2002.47 863.22c-2.75,1.97 -14.77,-11.07 -34.62,-14.83 -19.8,-4.05 -36.35,3.36 -38.04,0.52 -0.85,-1.28 2.3,-5.19 9.55,-8.57 7.13,-3.41 18.65,-5.84 31.01,-3.41 12.36,2.46 21.9,9 26.98,14.82 5.2,5.86 6.44,10.61 5.11,11.47z"/>
  <path class="fil4" d="M2044.83 1029.06c0.12,-1.16 12.88,-0.91 33.38,0.37 5.18,0.46 10.17,0.37 11.68,-2.92 1.91,-3.44 0.83,-9.31 -0.48,-15.68 -2.42,-13.2 -4.94,-27.03 -7.58,-41.51 -10.26,-59 -16.65,-107.11 -14.27,-107.51 2.38,-0.38 12.63,47.12 22.89,106.12 2.4,14.52 4.71,28.36 6.9,41.62 0.81,6.12 2.86,13.3 -1.2,20.4 -2.09,3.52 -6.34,5.56 -9.76,5.82 -3.44,0.36 -6.3,-0.14 -8.84,-0.47 -20.35,-2.78 -32.85,-5.1 -32.71,-6.23z"/>
  <path class="fil4" d="M2016.08 822.78c-2.99,5.01 -22.33,-1.35 -46.18,-3.03 -23.81,-2.15 -43.91,1.06 -46.07,-4.38 -0.94,-2.58 3.31,-7.04 11.91,-10.81 8.54,-3.77 21.51,-6.42 35.8,-5.29 14.29,1.17 26.68,5.85 34.49,10.93 7.89,5.1 11.39,10.17 10.05,12.57z"/>
  <path class="fil4" d="M2210.26 822.12c-4.37,3.84 -17.15,-3.48 -33.56,-6.85 -16.28,-3.96 -30.96,-2.81 -33.26,-8.16 -0.97,-2.55 2.1,-6.66 9.01,-9.75 6.82,-3.11 17.52,-4.64 28.76,-2.14 11.23,2.53 20.24,8.5 25.09,14.22 4.92,5.75 5.94,10.77 3.97,12.68z"/>
  <path class="fil7" d="M1777.67 895.4c-2.02,-1.37 -83.77,-43.34 -97.93,45.57 -14.17,88.91 78.03,84.8 78.58,82.27 0.55,-2.52 19.35,-127.84 19.35,-127.84z"/>
  <path class="fil9" d="M1736.52 985.23c-0.35,-0.36 -1.72,0.83 -4.53,1.62 -2.74,0.76 -7.26,0.86 -11.62,-1.62 -8.84,-4.94 -14.38,-21.11 -12.25,-37.21 1.06,-8.12 3.99,-15.56 7.87,-21.49 3.75,-6.07 8.68,-9.95 13.54,-10.03 4.89,-0.34 7.78,3.03 8.47,5.71 0.79,2.67 -0.06,4.36 0.39,4.59 0.21,0.25 2.15,-1.19 2.01,-4.97 -0.08,-1.82 -0.79,-4.09 -2.61,-6.13 -1.86,-2.07 -4.85,-3.47 -8.2,-3.63 -6.93,-0.61 -14.11,4.71 -18.37,11.21 -4.66,6.47 -8.12,14.8 -9.31,23.93 -2.29,18.01 4.21,36.23 16.46,42 6,2.62 11.52,1.57 14.55,-0.09 3.1,-1.77 3.89,-3.67 3.61,-3.88z"/>
  <path class="fil4" d="M1729.07 882.95c14.11,-0.67 35.04,16.25 38.35,29.97 3.33,13.73 1.84,28.26 5.14,42 3.29,13.73 14.06,27.64 28.17,27.04 9.73,-0.42 18.06,-7.85 22.29,-16.63 4.23,-8.76 5.12,-18.73 5.74,-28.45 2.73,-42.27 1.92,-84.87 8.25,-126.75 6.33,-41.87 20.56,-83.92 49.19,-115.14 28.63,-31.21 73.73,-49.55 114.54,-38.24 27.05,7.5 49.48,26.66 76.03,35.73 31.49,10.76 67.87,5.91 95.45,-12.7 0.94,-0.62 2.72,-1.54 4.82,-2.54 9.78,-4.67 15.8,-15.28 13.81,-25.93 -0.68,-3.63 -1.79,-7.03 -3.59,-9.47 -44.51,-60.46 -139.36,-93.2 -214.31,-88.95 -74.97,4.25 -151.69,41.85 -195.34,102.94 -43.65,61.09 -52.43,156.04 -48.53,227.1z"/>
  <path class="fil4" d="M2084.84 1089.29c-0.58,1.56 -13.2,-1.66 -28.19,-7.19 -15,-5.53 -26.68,-11.27 -26.11,-12.83 0.58,-1.56 13.21,1.66 28.19,7.18 15,5.52 26.68,11.28 26.11,12.84z"/>
  <path class="fil9" d="M2181.41 1188.97c0.59,0.15 -1.72,10.32 -11,24.03 -9.08,13.71 -25.98,29.97 -48.27,41.64 -22.29,11.67 -44.38,17.3 -60.22,20.57 -15.93,3.21 -25.93,4.17 -26.08,3.41 -0.17,-0.88 9.55,-3.31 25.09,-7.54 15.46,-4.3 36.89,-10.48 58.41,-21.76 21.49,-11.25 38.02,-26.25 47.65,-38.82 9.79,-12.53 13.47,-21.94 14.43,-21.53z"/>
  <path class="fil9" d="M2118.82 1254.97c-31.29,15.67 -54.34,58.22 -74.22,85.8 -6.09,8.43 -12.34,17.27 -14.05,27.54 -1.8,10.88 1.76,21.88 5.6,32.23 5.71,15.4 12.14,30.52 18.58,45.61 1.82,4.29 4.26,9.12 8.81,10.16 5.78,1.32 10.71,-4.37 13.08,-9.81 5.89,-13.52 5.32,-28.83 7.33,-43.43 2.01,-14.61 8.04,-30.4 21.46,-36.52l13.41 -111.57z"/>
  <path class="fil7" d="M2168.27 1370.35l-30.46 -22.75c-3.84,-3.13 -9.48,-2.65 -12.71,1.1l-16.17 18.69 -0.02 0.16 8.5 47.29c9.96,60.63 -34.99,51.16 -34.99,51.16l-3.57 -11.6 -19.75 -73.94c-3.99,-35.3 -1.17,-39.47 15.99,-65.03l37.68 -53.86c7.82,-11.65 22.54,-16.42 35.7,-11.57 54.06,19.96 170.68,56.11 183.82,101.9 23.94,83.48 43.24,296.4 43.58,300.19l0 0.08 -164.59 14.76 0.78 -142.08c0,0 -23.9,-13.9 -30.93,-38.97 -7.04,-25.07 -12.86,-115.54 -12.86,-115.54z"/>
  <path class="fil9" d="M2282.31 1398.18c0.25,0.28 -1.75,2.85 -6.26,6.67 -4.52,3.67 -11.72,8.94 -22.42,11.36 -5.33,1.15 -11.47,1.39 -17.85,-0.12 -6.3,-1.48 -13,-5.07 -17.66,-10.94 -9.65,-11.65 -11.03,-28.03 -19.62,-39.95 -4.38,-5.43 -10.95,-9.94 -16.96,-13.9 -6.15,-3.98 -12.37,-7.43 -18.43,-10.29 -5.89,-2.59 -12.44,-5.8 -16.87,-4.77 -5.07,1.22 -9.65,4.71 -13.44,7.95 -14.92,13.83 -23.1,24.15 -23.94,23.3 -0.32,-0.28 1.48,-2.96 4.95,-7.62 3.54,-4.61 8.52,-11.42 16.14,-18.83 3.88,-3.6 8.37,-7.68 15.18,-9.66 1.76,-0.4 3.62,-0.55 5.59,-0.31 1.73,0.3 3.41,0.69 5.02,1.22 3.27,0.99 6.47,2.26 9.67,3.69 6.4,2.86 12.86,6.3 19.29,10.37 6.38,4.21 12.98,8.38 18.62,15.29 9.8,14.16 10.88,30.16 19.1,40.05 7.78,10.12 20.95,11.98 30.4,10.39 9.79,-1.66 17.03,-6.07 21.82,-9.08 4.8,-3.12 7.35,-5.11 7.65,-4.77z"/>
  <path class="fil9" d="M2264.05 1448.28c-0.27,1.58 -21.37,-0.71 -46.44,-7.98 -25.09,-7.21 -44.16,-16.52 -43.54,-18 0.65,-1.6 20.47,5.12 45.21,12.22 24.71,7.17 45.06,12.06 44.76,13.75z"/>
  <path class="fil7" d="M2205.41 1371.03c-43.16,0.09 -48.2,-2 -97.11,0.67 -7.27,0.4 -14.7,0.83 -21.48,3.48 -6.79,2.65 -12.99,7.93 -14.78,14.98 -3.42,13.38 10.1,25.58 23.56,28.65 13.46,3.05 27.72,0.68 41.17,3.8 20.51,4.76 42.03,14.56 54.16,31.78 28.13,39.95 57.71,20.73 76.93,34.99l50.42 -31.83 -17.8 -74.45 -95.06 -12.06z"/>
  <path class="fil9" d="M2272.25 1489.37c-0.35,0.6 -4.47,-3.11 -13.79,-4.25 -8.99,-1.78 -23.56,0.48 -39.93,-7.03 -8.02,-3.74 -15.63,-10.11 -22.02,-18.12 -6.05,-8.27 -12.7,-15.54 -22.23,-21.22 -9.25,-5.71 -20.09,-9.91 -31.71,-12.76 -11.3,-3.15 -23.83,-1.6 -37.25,-3.22 -13.44,-1.38 -27.3,-9.23 -31.59,-22.94 -2.06,-6.88 0.27,-14.58 4.81,-19.4 4.4,-4.96 10.39,-7.87 16.15,-9.29 11.73,-2.62 22.28,-2.01 32.29,-2.64 10,-0.31 19.34,-0.44 27.86,-0.29 17.05,0.33 30.74,1.19 40.22,1.58 9.49,0.44 14.73,0.8 14.75,1.22 0,0.39 -5.26,0.83 -14.77,1.11 -9.5,0.33 -23.28,0.13 -40.19,0.33 -8.46,0.12 -17.71,0.5 -27.66,1.03 -9.85,0.79 -20.9,0.52 -31.11,3 -9.89,2.17 -19.87,11.34 -16.67,21.76 3.12,10.13 14.71,17.49 26.67,18.54 12.26,1.56 25.45,-0.01 37.91,3.47 12.09,3.04 23.44,7.56 33.23,13.78 9.88,5.91 17.71,14.85 23.19,22.82 5.89,7.69 12.74,13.7 20,17.4 14.67,7.42 29.12,6.05 38.48,8.53 4.76,0.99 8.25,2.66 10.4,4.03 2.09,1.51 3.09,2.37 2.96,2.53z"/>
  <path class="fil9" d="M2200.63 1337.31c0.06,-0.74 3.17,-1.35 7.6,0.69 4.32,1.93 9.82,7.15 11,15 1.06,7.85 -2.76,14.4 -6.38,17.46 -3.69,3.21 -6.85,3.49 -7.1,2.8 -0.39,-0.81 1.77,-2.42 3.95,-5.65 2.2,-3.13 4.33,-8.3 3.58,-13.76 -0.8,-5.45 -4.3,-9.82 -7.28,-12.22 -3,-2.49 -5.53,-3.43 -5.37,-4.31z"/>
  <polygon class="fil7" points="2297.35,3274.11 2086.63,3800.22 2291.06,3836.12 2519.15,3382.41 "/>
  <path class="fil5" d="M2422.15 3635.11l-116.1 236c0,0 200.87,197.27 183.67,242.98l-465.68 -208.69 165.83 -375.14 232.28 104.86z"/>
  <path class="fil0" d="M2171.09 3786.4c-10.12,-1.59 -20.89,5.76 -22.88,15.81 -1.99,10.04 5.38,21.05 15.47,22.81 10.08,1.76 23.28,-6.67 24.14,-16.87 0.85,-10.2 -8.52,-22.66 -18.72,-21.94l1.99 0.2z"/>
  <path class="fil10" d="M2489.72 4114.08l-422.55 -189.36 0 0 422.55 189.36c2.48,-6.6 0.43,-16.36 -4.92,-28.24 4.33,6.02 11.38,18.4 4.92,28.24z"/>
  <path class="fil6" d="M2489.72 4114.08l-422.55 -189.36 -43.12 -19.33 16.74 -37.87 441.13 214.69c0,0 1.25,1.38 2.88,3.63 5.35,11.88 7.41,21.64 4.92,28.24z"/>
  <path class="fil4" d="M2314.66 3872.12c-1.1,2.23 -12.93,-1.84 -27.4,0.47 -14.52,1.92 -24.7,9.18 -26.39,7.34 -1.91,-1.39 7.58,-13.46 25.14,-15.93 17.53,-2.62 30.07,6.24 28.65,8.12z"/>
  <path class="fil4" d="M2354.44 3914.2c-0.46,2.44 -12.05,1.9 -24.08,8.04 -12.21,5.8 -18.82,15.34 -21.04,14.22 -2.3,-0.6 2.1,-14.63 17.2,-21.99 15.03,-7.51 28.84,-2.46 27.92,-0.28z"/>
  <path class="fil4" d="M2355.99 3985.09c-2.29,-0.44 -0.36,-13.22 11.06,-23.05 11.36,-9.92 24.27,-10.02 24.39,-7.69 0.45,2.44 -9.45,6.02 -18.71,14.25 -9.44,7.99 -14.38,17.28 -16.74,16.5z"/>
  <path class="fil4" d="M2335.14 3815.39c-1.87,1.65 -10.91,-6.16 -24.15,-11.06 -13.15,-5.16 -25.08,-5.32 -25.38,-7.79 -0.59,-2.24 12.95,-6.28 28.47,-0.31 15.56,5.86 22.98,17.87 21.06,19.16z"/>
  <path class="fil4" d="M2357.69 3767.34c-0.39,0.96 -10.01,-1.66 -23.26,-10.57 -6.6,-4.43 -13.97,-10.55 -21.05,-18.43 -3.52,-3.93 -6.98,-8.31 -10.2,-13.1 -1.53,-2.34 -3.44,-4.86 -4.58,-8.63 -1.47,-3.51 -0.18,-10.18 4.38,-12.57 3.99,-2.51 8.9,-2.17 12.3,-0.74 3.48,1.42 5.95,3.36 8.19,5.13 4.63,3.58 8.71,7.48 12.27,11.47 7.09,8.03 12.03,16.4 15.18,23.75 6.32,14.86 6.2,24.99 5.23,25.09 -1.38,0.3 -3.44,-9.19 -10.73,-22.36 -3.64,-6.57 -8.74,-13.96 -15.54,-21.05 -3.43,-3.51 -7.28,-6.96 -11.55,-10.12 -4.35,-3.5 -8.54,-5.42 -10.78,-3.8 -0.84,0.64 -1.04,0.94 -0.66,2.84 0.46,1.81 1.88,4.01 3.37,6.32 2.92,4.54 6.02,8.74 9.17,12.57 6.32,7.67 12.85,13.9 18.67,18.74 11.67,9.7 20.18,14.27 19.57,15.47z"/>
  <path class="fil4" d="M2353.27 3769.29c-0.96,-0.01 -1.82,-10.19 3.94,-25.28 2.89,-7.49 7.61,-15.99 14.63,-24.11 3.52,-4.04 7.61,-7.95 12.28,-11.5 4.79,-3.38 10.88,-8.05 20.15,-5.11 4.69,1.9 6.9,7.2 6.83,10.87 0.13,3.84 -0.77,6.68 -1.44,9.63 -1.57,5.82 -4.07,11.11 -7.01,15.71 -5.92,9.26 -13.67,15.67 -20.77,19.62 -14.5,8 -25.21,6.46 -25.06,5.6 -0.25,-1.48 9.65,-2.32 21.8,-10.8 6,-4.17 12.43,-10.34 17.2,-18.6 2.39,-4.11 4.38,-8.71 5.62,-13.67 1.49,-5.28 1.42,-10.1 -0.66,-10.42 -2.3,-1.07 -7.9,0.89 -11.59,3.97 -4.25,3.11 -8.08,6.53 -11.44,10.06 -6.68,7.11 -11.56,14.58 -14.94,21.24 -6.77,13.39 -8.16,22.99 -9.54,22.79z"/>
  <path class="fil4" d="M1893.93 2643.22l648.92 -317.75c114.2,-55.91 251.56,-30.21 337.8,63.23 80.31,87.02 99.09,214.37 47.3,320.84l-430.55 885.31 -360.14 -113.52 316.69 -674.83 -356.27 271.51c-96.21,73.33 -213.61,113.52 -334.58,114.56l-93.29 0.8c-156.31,-6.52 -297.91,-94.07 -373.57,-230.99l597.68 -319.14z"/>
  <path class="fil11" d="M2497.4 3594.85c0,0 -2.29,-0.46 -6.61,-1.69 -4.6,-1.36 -10.94,-3.24 -19.09,-5.65 -17.02,-5.2 -41.5,-12.69 -72.68,-22.22 -63.04,-19.61 -153.1,-47.62 -262.49,-81.66l-2.64 -0.82 1.18 -2.53c63.6,-135.89 142.81,-305.16 228.51,-488.28 30.29,-64.46 59.76,-127.21 87.72,-186.76l4.42 3.58c-163.41,121.74 -309.66,222.85 -417.58,289.44 -54,33.17 -98.55,57.56 -130.59,71.36 -16.03,6.84 -28.87,11.13 -37.85,12.88 -4.38,1.28 -7.97,1.02 -10.26,1.34 -2.32,0.16 -3.5,0.2 -3.5,0.11 -0.02,-0.4 4.78,-0.37 13.54,-2.48 8.81,-2.07 21.42,-6.62 37.25,-13.72 31.62,-14.3 75.77,-39.13 129.42,-72.7 107.2,-67.36 252.95,-169.04 416.04,-290.92l9.38 -7.03 -4.97 10.6c-27.93,59.59 -57.36,122.34 -87.59,186.83 -86.08,182.93 -165.67,352.03 -229.55,487.79l-1.47 -3.35c109.13,34.87 198.97,63.56 261.86,83.64 31,10.07 55.36,17.99 72.28,23.49 8.05,2.69 14.33,4.79 18.88,6.32 4.25,1.47 6.39,2.39 6.39,2.39z"/>
  <path class="fil11" d="M2575.96 2659.93c1.18,1.7 -39.7,22.05 -74.7,64.38 -35.54,41.91 -48.39,85.72 -50.25,84.84 -0.65,-0.17 1.63,-11.25 8.58,-28.1 6.9,-16.83 19.15,-39.18 37.04,-60.62 17.95,-21.37 37.8,-37.35 53.15,-47.09 15.37,-9.82 25.88,-14.01 26.17,-13.42z"/>
  <path class="fil0" d="M1200.35 3912.59l933.41 0c12.96,0 23.58,10.32 23.95,23.28 0.37,13.5 -10.46,24.64 -23.95,24.64l-933.41 0c-13.23,0 -23.95,-10.72 -23.95,-23.95 0,-13.24 10.72,-23.97 23.95,-23.97z"/>
  <path class="fil11" d="M2010.97 3318.4l-730.12 0c0,-78.13 63.33,-141.46 141.46,-141.46l447.2 0c78.13,0 141.46,63.33 141.46,141.46z"/>
  <polygon class="fil0" points="1263.65,3361.31 2033.91,3361.31 2033.91,3318.4 1263.65,3318.4 "/>
  <polygon class="fil0" points="1332.21,3361.31 1143.88,5217.67 1188.17,5217.67 1418.03,3361.31 "/>
  <polygon class="fil0" points="1959.6,3361.31 2147.86,5216.76 2103.57,5216.99 1873.88,3362 "/>
  <polygon class="fil0" points="1697.27,3345 1665.58,5217.62 1620.11,5217.62 1600.29,3339.86 "/>
  <polygon class="fil5" points="1682.52,1309.74 1728.24,1170.84 2030.18,1310.57 2016.36,1457.57 1865.89,1500.32 1718.17,1409.8 "/>
  <path class="fil5" d="M1296.25 2962.36c0,0 -42.15,-25.64 -42.31,-84.26 -0.14,-55.66 49.66,-60.25 51.28,-91.06 16.6,-318.35 52.63,-977.76 76.41,-1185.84 29.97,-262.28 337.23,-317.7 337.23,-317.7l253.71 62.32 0 19.17c87.81,112.89 125.8,283.05 125.88,426.07l-11.82 757.79 -790.38 413.5z"/>
  <path class="fil4" d="M1581.38 2537.95c0.32,0.27 -3.04,4.85 -9.4,12.94 -6.33,8.11 -15.84,19.56 -27.87,33.47 -24.03,27.86 -58.62,65.18 -99.23,103.97 -40.65,38.79 -79.54,71.61 -108.47,94.32 -14.46,11.37 -26.34,20.34 -34.73,26.29 -8.38,5.97 -13.11,9.13 -13.37,8.8 -0.24,-0.33 4.01,-4.11 11.94,-10.65 8.81,-7.29 20.04,-16.61 33.49,-27.74 28.18,-23.5 66.48,-56.72 107.01,-95.36 40.46,-38.66 75.41,-75.39 100.2,-102.45 11.75,-12.91 21.57,-23.7 29.25,-32.16 6.91,-7.61 10.88,-11.69 11.19,-11.43z"/>
  <path class="fil12" d="M1335.2 2786.89l-3.21 -0.79c1.44,-1.12 2.91,-2.28 4.41,-3.46 28.93,-22.7 67.82,-55.53 108.47,-94.32 17.39,-16.6 33.67,-32.94 48.49,-48.39 -48.33,53.44 -101.33,102.67 -158.17,146.95zm-3.56 -5.81c3.14,-45.79 37.77,-83.65 72.11,-114.78 41.62,-37.7 85.93,-72.44 132.49,-103.85 1.08,11.32 -2.06,22.06 -7.35,32.12 -23.55,25.28 -53.89,56.65 -88.17,89.42 -40.52,38.64 -78.83,71.86 -107.01,95.36 -0.7,0.59 -1.4,1.15 -2.08,1.73z"/>
  <path class="fil13" d="M1331.99 2786.1l-0.57 -0.13c0.03,-1.65 0.1,-3.28 0.22,-4.9 0.68,-0.58 1.38,-1.15 2.08,-1.73 28.18,-23.5 66.48,-56.72 107.01,-95.36 34.28,-32.77 64.62,-64.14 88.17,-89.42 -5.66,10.77 -13.79,20.77 -21.79,29.94 -4.54,5.19 -9.12,10.33 -13.74,15.44 -14.82,15.45 -31.11,31.79 -48.49,48.39 -40.65,38.79 -79.54,71.61 -108.47,94.32 -1.5,1.18 -2.97,2.34 -4.41,3.46z"/>
  <path class="fil4" d="M1775.49 1286.78c-1.6,-0.5 2.59,-18.53 9.33,-40.29 6.75,-21.75 13.5,-39 15.09,-38.5 1.58,0.48 -2.6,18.52 -9.35,40.28 -6.74,21.75 -13.5,39 -15.08,38.51z"/>
  <path class="fil4" d="M1893.29 1247.38c1.63,0.37 -1.11,18.3 -6.11,40.07 -4.99,21.77 -10.36,39.1 -11.98,38.72 -1.62,-0.37 1.12,-18.3 6.12,-40.07 4.99,-21.76 10.35,-39.1 11.97,-38.72z"/>
  <path class="fil4" d="M1980.99 1291.16c1.66,0.38 -0.84,16.53 -3.12,36.44 -2.34,19.92 -3.59,36.21 -5.3,36.21 -1.61,0.03 -3.05,-16.58 -0.67,-36.89 2.32,-20.32 7.53,-36.17 9.09,-35.76z"/>
  <path class="fil14" d="M1676.2 2032.73c0,0.42 -4.55,0.73 -12.79,0.92 -8.25,0.21 -20.18,0.31 -34.9,0.31 -29.49,-0.01 -70.21,-0.44 -115.17,-1.28 -44.99,-0.85 -85.71,-1.94 -115.17,-3.04 -14.73,-0.54 -26.66,-1.1 -34.88,-1.6 -8.24,-0.51 -12.79,-1 -12.78,-1.41 0.01,-0.42 4.58,-0.73 12.81,-0.93 8.25,-0.21 20.17,-0.31 34.92,-0.3 29.47,0.01 70.18,0.44 115.16,1.27 44.96,0.85 85.65,1.94 115.13,3.04 13.7,0.64 25.34,1.18 34.89,1.62 8.23,0.51 12.79,0.99 12.79,1.41z"/>
  <path class="fil14" d="M1611.75 1935.8c-0.03,1.66 -57.95,1.77 -129.33,0.25 -71.41,-1.54 -129.25,-4.11 -129.2,-5.78 0.04,-1.66 57.92,-1.77 129.34,-0.24 71.37,1.51 129.23,4.1 129.19,5.77z"/>
  <path class="fil12" d="M2014.46 2486.07c-17.57,0 -35.6,-5.66 -56.68,-18.28 -48.93,-29.28 -85.18,-75.35 -119.03,-121.25 -75.4,-102.23 -144.75,-205.29 -207.61,-312.57 13.53,-0.01 24.52,-0.12 32.27,-0.31 8.24,-0.2 12.79,-0.51 12.79,-0.92 0,-0.42 -4.56,-0.9 -12.79,-1.41 -9.52,-0.44 -21.11,-0.97 -34.76,-1.61 -17.79,-30.49 -35.08,-61.34 -51.81,-92.61 21.63,-0.07 34.88,-0.52 34.9,-1.3 81.32,114.34 161.99,229.69 244.2,342.63 33.25,45.69 70.87,91.28 116.62,124.43 46.39,33.63 60.75,39.16 115.35,56.55 -27.78,16.79 -50.24,26.65 -73.45,26.65z"/>
  <path class="fil15" d="M1631.13 2033.97c-0.83,-1.42 -1.65,-2.83 -2.49,-4.25 13.65,0.64 25.24,1.17 34.76,1.61 8.23,0.51 12.79,0.99 12.79,1.41 0,0.42 -4.55,0.73 -12.79,0.92 -7.75,0.2 -18.74,0.3 -32.27,0.31z"/>
  <path class="fil12" d="M1611.67 1935.68c-1.15,-0.8 -15.08,-1.8 -37.09,-2.79 -25.45,-47.74 -49.67,-96.48 -72.61,-146.49l9.92 10.4c33.46,45.97 66.67,92.34 99.77,138.88z"/>
  <path class="fil15" d="M1576.84 1937.11c-0.76,-1.4 -1.51,-2.81 -2.27,-4.22 22.01,0.99 35.95,2 37.09,2.79 0.02,0.04 0.06,0.08 0.08,0.12 -0.02,0.78 -13.27,1.23 -34.9,1.3z"/>
  <path class="fil7" d="M2462.95 2072.58c2.02,-13.25 4.15,-26.82 10.69,-38.52 6.53,-11.71 18.5,-21.33 31.9,-21.18 13.39,0.15 26.37,13.09 23.33,26.15 -1.78,7.69 -8.09,13.36 -12.78,19.72 -14.74,20.06 -13.36,47.22 -13.16,72.12 0.21,24.9 -3.11,53.15 -23.03,68.1l-16.95 -126.4z"/>
  <path class="fil5" d="M1546.19 1492.54c-97.68,68.27 -119,204.04 -46.93,298.95l422.21 556.01c91.71,119.31 254.78,157.48 389.94,91.31 114,-55.83 183.6,-174.39 176.77,-301.15l-92.96 -584.7 -227.19 14.13 21.47 476.17 -351.46 -499.46c-66.55,-94.57 -197.06,-117.5 -291.84,-51.26z"/>
  <path class="fil7" d="M2456.18 2303.4c-55.88,-13.05 -65.36,-22.66 -121.24,-35.7 -16.63,-3.88 -37.98,-14.69 -30.53,-32.27 3.9,-9.21 13.74,-14.67 23.71,-13.86 21.78,1.77 56.81,14.74 77.79,16.74 5.26,0.51 5.1,-4.78 2.78,-8.37 -34.14,-10.23 -69.1,-17.74 -104.43,-22.42 -22.02,-2.92 -30.64,-31.92 -12.85,-45.23 2.24,-1.69 12.21,-4.67 14.95,-4.27 22.38,3.24 22.38,3.24 46.25,7.37 66.98,11.59 58.1,-1.68 58.1,-1.68 0.43,-5.03 -76.22,-12.44 -115.41,-17.14 -8.31,-0.99 -17.46,-2.43 -22.8,-8.86 -6.49,-7.84 -4.2,-20.33 2.66,-27.86 6.85,-7.53 16.71,-13.29 26.89,-13.47 43.55,-0.75 186.57,15.15 186.57,15.15 0,0 18.73,25.47 13.01,77.48 -6.29,57.15 -45.47,114.39 -45.47,114.39z"/>
  <path class="fil4" d="M2253.86 2459.48c0,0 -2.03,0.39 -6.04,0.85 -4.24,0.44 -10.15,1.04 -17.78,1.84 -15.64,1.43 -38.76,3.64 -68.68,3.98 -29.76,0.02 -67.02,-1.49 -107.71,-14.91 -40.7,-13.46 -81.79,-41.9 -118.88,-80.45 -37.3,-38.5 -73.25,-84.77 -111.51,-134.54 -38.01,-49.96 -77.76,-103.99 -119.1,-161.18 -41.33,-57.2 -84.2,-117.61 -128.18,-180.55 -21.87,-31.57 -44.13,-63.69 -66.7,-96.28 -5.6,-8.18 -11.22,-16.4 -16.87,-24.63l-7.98 -12.92c-2.81,-4.25 -5.19,-8.75 -7.28,-13.41 -9.43,-18.11 -15.44,-38 -18.95,-58.3 -3.74,-20.34 -3.83,-41.12 -1.24,-61.32 0.92,-10.18 3.55,-20.02 5.78,-29.9 3.21,-9.6 5.91,-19.38 10.33,-28.43 3.67,-9.4 9.01,-17.92 13.81,-26.67 5.76,-8.13 10.93,-16.69 17.69,-23.97 12.48,-15.41 27.61,-28.26 43.63,-39.25 16.02,-11.15 33.75,-19.12 51.72,-25.56 18.29,-5.35 36.89,-9.78 55.67,-10.12 37.45,-2.15 74.27,6.9 106.17,22.8 31.69,16.57 58.35,40.52 77.56,68.38 19.04,27.48 37.52,54.14 55.39,79.95 35.7,51.58 68.95,99.65 99.34,143.54 60.49,87.7 109.48,158.75 143.51,208.08 16.72,24.47 29.75,43.56 38.77,56.74 4.26,6.37 7.58,11.3 9.95,14.85 2.22,3.38 3.23,5.18 3.23,5.18 0,0 -1.34,-1.57 -3.72,-4.82 -2.5,-3.47 -5.97,-8.29 -10.44,-14.5 -9.23,-13.04 -22.58,-31.91 -39.7,-56.11 -34.4,-49.08 -83.92,-119.76 -145.08,-207.01 -30.56,-43.77 -64.03,-91.7 -99.95,-143.13 -17.96,-25.74 -36.51,-52.35 -55.64,-79.77 -18.83,-27.13 -44.84,-50.37 -75.73,-66.45 -31.09,-15.39 -66.96,-24.15 -103.38,-21.99 -18.27,0.35 -36.34,4.7 -54.11,9.91 -17.46,6.3 -34.7,14.05 -50.26,24.9 -15.55,10.71 -30.27,23.2 -42.37,38.2 -6.58,7.07 -11.57,15.4 -17.17,23.3 -4.64,8.51 -9.83,16.79 -13.39,25.92 -4.31,8.8 -6.91,18.3 -10.04,27.63 -2.14,9.6 -4.7,19.17 -5.6,29.07 -2.5,19.61 -2.41,39.82 1.21,59.55 3.42,19.71 9.23,39.05 18.41,56.64 8.63,17.75 20.51,33.81 31.68,50.24 22.55,32.61 44.76,64.73 66.6,96.3 43.92,62.96 86.67,123.41 127.85,180.69 41.2,57.25 80.78,111.36 118.58,161.4 38.03,49.81 73.76,96.19 110.59,134.58 36.63,38.46 76.93,66.68 116.92,80.25 40.02,13.52 76.98,15.41 106.62,15.73 29.79,0.04 52.91,-1.79 68.57,-2.84 7.65,-0.53 13.58,-0.95 17.83,-1.25 4.02,-0.26 6.1,-0.23 6.1,-0.23z"/>
  <path class="fil4" d="M2213.65 2217.75c-2.05,-0.27 11.99,-42.19 3.33,-94.24 -7.92,-52.2 -34.28,-87.69 -32.41,-88.58 0.51,-0.39 7.76,7.74 16.32,23.04 8.58,15.24 17.77,38.05 22.03,64.59 4.18,26.54 2.53,51.07 -0.9,68.22 -3.4,17.2 -7.75,27.17 -8.37,26.97z"/>
  <path class="fil4" d="M2219.36 1629.16c-1.54,0.46 -6.69,-13.3 -8.16,-31.22 -1.53,-17.91 1.28,-32.34 2.87,-32.14 1.72,0.15 1.64,14.35 3.13,31.65 1.4,17.3 3.83,31.29 2.16,31.72z"/>
  <path class="fil4" d="M2281.91 1623.34c-1.51,0.51 -7.09,-12.8 -9.34,-30.31 -2.32,-17.51 -0.34,-31.8 1.26,-31.71 1.71,0.06 2.45,14.01 4.7,30.92 2.16,16.94 5.02,30.59 3.37,31.09z"/>
  <path class="fil4" d="M2343.95 1609.86c-1.66,0.08 -3.62,-11.31 -4.36,-25.47 -0.74,-14.14 0,-25.68 1.66,-25.77 1.65,-0.09 3.6,11.31 4.34,25.46 0.74,14.14 0,25.68 -1.65,25.78z"/>
  <path class="fil14" d="M1961.42 1738.6c0.95,1.36 -70.7,52.68 -160.02,114.57 -89.34,61.93 -162.5,111.01 -163.45,109.64 -0.95,-1.37 70.69,-52.66 160.02,-114.58 89.32,-61.9 162.49,-110.99 163.45,-109.63z"/>
  <path class="fil14" d="M1905.48 1654.75c0.23,0.36 -4.25,3.78 -12.56,9.68 -9.29,6.52 -21.14,14.82 -35.3,24.75 -29.83,20.85 -70.86,49.89 -115.47,82.93 -44.61,33.06 -84.36,63.84 -112.99,86.3 -13.63,10.65 -25.03,19.56 -33.97,26.55 -8.06,6.23 -12.65,9.51 -12.92,9.2 -0.27,-0.32 3.81,-4.22 11.41,-11 7.61,-6.79 18.8,-16.4 32.79,-28.05 28,-23.33 67.4,-54.71 112.09,-87.84 44.69,-33.09 86.19,-61.63 116.68,-81.6 15.23,-9.99 27.67,-17.91 36.38,-23.19 8.71,-5.3 13.63,-8.06 13.85,-7.73z"/>
  <polygon class="fil4" points="3893.85,4659.68 4680.05,4659.68 4680.05,4551.66 3893.85,4551.66 "/>
  <path class="fil4" d="M3895.19 4658.34l783.49 0 0 -105.35 -783.49 0 0 105.35zm786.18 2.68l-788.88 0 0 -110.71 788.88 0 0 110.71z"/>
  <polygon class="fil4" points="3966.74,4623.72 4079.9,5182 4498.62,5182 4608.02,4659.68 "/>
  <polygon class="fil11" points="3966.74,5129.19 4027.1,5212.18 4536.05,5212.18 4608.02,5129.19 "/>
  <path class="fil4" d="M4257.41 4640.04c-1.54,0 -3.51,-258.63 -4.41,-577.63 -0.91,-319.09 -0.38,-577.67 1.17,-577.68 1.55,0 3.53,258.58 4.42,577.67 0.9,318.98 0.37,577.64 -1.18,577.64z"/>
  <path class="fil4" d="M4432.55 3992.78c0.16,0.09 -0.57,2.16 -2.11,6.02 -1.84,4.39 -4.16,9.94 -7.02,16.74 -1.57,3.69 -3.29,7.71 -5.13,12.05 -1.62,4.55 -3.37,9.45 -5.23,14.67 -1.91,5.29 -3.93,10.92 -6.07,16.85 -2.1,5.97 -3.76,12.48 -5.81,19.2 -8.58,26.8 -15.41,59.68 -22,96.26 -5.72,36.76 -10.01,77.46 -12.15,120.37 -3.82,85.89 1.03,163.78 6.21,219.89 2.53,28.07 5.07,50.74 6.94,66.41 0.81,7.33 1.45,13.32 1.97,18.05 0.39,4.15 0.51,6.33 0.32,6.37 -0.2,0.02 -0.68,-2.12 -1.43,-6.19 -0.8,-4.7 -1.8,-10.64 -3.03,-17.94 -2.53,-15.6 -5.69,-38.23 -8.72,-66.3 -6.21,-56.12 -11.72,-134.24 -7.87,-220.55 2.17,-43.11 6.65,-84.04 12.68,-120.96 6.9,-36.75 14.18,-69.75 23.31,-96.56 2.18,-6.72 3.97,-13.24 6.23,-19.2 2.29,-5.92 4.45,-11.52 6.49,-16.8 2.03,-5.19 3.93,-10.06 5.7,-14.58 1.94,-4.4 3.92,-8.33 5.6,-11.91 3.25,-6.66 5.89,-12.06 7.99,-16.36 1.88,-3.71 2.96,-5.6 3.13,-5.52z"/>
  <path class="fil4" d="M4412.45 3783.6c0.18,0.07 -0.68,3 -2.5,8.53 -2.04,5.99 -4.77,13.99 -8.18,24.06 -1.84,5.26 -3.84,11.03 -6.02,17.32 -1.95,6.45 -4.06,13.43 -6.33,20.89 -4.59,14.96 -9.92,31.97 -14.65,51.1 -2.52,9.53 -5.17,19.53 -7.89,29.9 -2.37,10.5 -4.83,21.42 -7.37,32.7 -5.49,22.51 -9.45,46.98 -14.53,72.53 -8.67,51.36 -16.3,108.15 -21.56,168.06 -4.96,59.94 -7.13,117.22 -7.89,169.35 -0.15,52.11 0.51,99.06 2.65,138.43 0.69,19.7 1.95,37.5 2.97,53.13 0.9,15.65 1.88,29.09 2.89,40.08 0.8,10.6 1.44,19.03 1.92,25.34 0.38,5.8 0.48,8.85 0.29,8.87 -0.18,0.02 -0.66,-2.99 -1.41,-8.76 -0.74,-6.29 -1.72,-14.7 -2.97,-25.26 -1.34,-10.96 -2.63,-24.4 -3.85,-40.05 -1.3,-15.62 -2.85,-33.41 -3.8,-53.15 -2.65,-39.4 -3.72,-86.45 -3.85,-138.69 0.47,-52.23 2.5,-109.66 7.47,-169.78 5.28,-60.07 13.09,-117.01 22.06,-168.5 5.22,-25.58 9.37,-50.08 15.08,-72.62 2.66,-11.3 5.23,-22.22 7.71,-32.73 2.87,-10.38 5.61,-20.35 8.26,-29.9 4.99,-19.11 10.61,-36.1 15.5,-51.01 2.43,-7.42 4.69,-14.36 6.78,-20.77 2.35,-6.25 4.52,-12.01 6.49,-17.22 3.84,-9.91 6.89,-17.81 9.19,-23.71 2.15,-5.41 3.37,-8.2 3.55,-8.13z"/>
  <path class="fil4" d="M4207.69 4685.79c-0.09,0 -0.25,-1.03 -0.44,-3.03 -0.2,-2.33 -0.45,-5.26 -0.75,-8.91 -0.56,-8.24 -1.33,-19.7 -2.31,-34.25 -1.88,-30.17 -4.58,-73.1 -7.89,-125.98 -6.82,-106.36 -16.68,-253.3 -34.58,-414.86 -9.14,-80.79 -19.75,-157.52 -30.77,-227.09 -5.87,-34.71 -11.19,-67.77 -17.2,-98.5 -5.54,-30.83 -11.5,-59.39 -16.99,-85.44 -5.17,-26.14 -10.92,-49.54 -15.56,-70.18 -4.54,-20.67 -8.95,-38.35 -12.63,-52.79 -3.48,-14.16 -6.2,-25.3 -8.17,-33.32 -0.82,-3.57 -1.47,-6.44 -1.99,-8.71 -0.42,-1.98 -0.59,-2.98 -0.49,-3.01 0.1,-0.03 0.45,0.94 1.05,2.86 0.65,2.24 1.49,5.05 2.52,8.57 2.22,7.95 5.28,19.02 9.18,33.07 4.01,14.36 8.73,31.99 13.58,52.61 4.94,20.6 10.97,43.96 16.39,70.06 5.74,26.04 11.94,54.6 17.67,85.42 6.24,30.74 11.74,63.79 17.74,98.54 11.32,69.62 22.1,146.42 31.26,227.29 17.91,161.75 27.15,308.83 32.98,415.27 2.89,53.22 4.9,96.32 6.1,126.1 0.54,14.56 0.96,26.05 1.27,34.29 0.08,3.67 0.14,6.61 0.18,8.93 0,2.02 -0.04,3.05 -0.13,3.06z"/>
  <path class="fil5" d="M4251.01 3609.07c-3.42,-36.65 -40.45,-64.29 -77.25,-64.67 -36.79,-0.38 -71.09,21.69 -93.59,50.8 -22.52,29.12 -34.93,64.66 -45.08,100.04 -24.77,86.32 -38.31,177.01 -27.72,266.2 10.6,89.19 46.77,176.99 110.77,240.01 10.4,10.24 23.88,20.49 38.15,17.43 7.81,-1.66 14.21,-7.08 20.15,-12.44 125.7,-113.56 198.31,-283.66 193.33,-453 -0.99,-33.91 -5.45,-69.21 -24.23,-97.46 -18.79,-28.26 -62.56,-58.26 -94.53,-46.91z"/>
  <path class="fil5" d="M3976.22 3315.59c-17.27,31.29 -34.55,62.58 -51.83,93.86 -1.2,2.18 -2.8,4.65 -5.29,4.85 -2.72,0.22 -4.76,-2.36 -6.25,-4.64 -45.67,-70.1 -91.35,-140.2 -137.02,-210.29l31.58 -17.9 168.82 134.12z"/>
  <path class="fil12" d="M3976.22 3315.6l0 -0.01 -168.82 -134.12 -31.58 17.9c27.47,42.16 54.94,84.31 82.42,126.47 18.2,27.94 36.41,55.88 54.61,83.82 1.43,2.19 3.36,4.66 5.92,4.66 0.11,0 0.22,-0.01 0.33,-0.01 2.5,-0.21 4.09,-2.67 5.29,-4.85 17.28,-31.27 34.55,-62.56 51.83,-93.85z"/>
  <path class="fil5" d="M4254.17 3484.72c-155.8,-91.94 -311.61,-183.88 -467.41,-275.82 -4.77,-2.82 -9.94,-6.13 -11.38,-11.48 -1.86,-6.92 3.33,-13.59 8.31,-18.73 64.3,-66.31 157.67,-104.75 249.81,-98.13 92.11,6.63 180.71,59.84 225.81,140.44 45.12,80.61 46.61,187.2 -5.13,263.72z"/>
  <path class="fil4" d="M3854.12 3120.87c-0.01,-0.2 2.09,-0.45 6.12,-0.76 4.04,-0.21 9.98,-0.92 17.67,-0.85 15.36,-0.37 37.68,0.64 64.86,5.17 27.15,4.45 59.03,13.18 92.35,28.04 33.31,14.8 67.76,36.2 99.15,64.33 31.14,28.44 55.88,60.59 73.91,92.25 18.11,31.68 29.97,62.54 37.13,89.12 7.2,26.59 10.42,48.7 11.58,64.01 0.85,7.63 0.51,9.6 0.72,13.63 0.09,4.04 -3.41,10.19 -3.61,10.2 -0.5,0.02 2.58,-8.44 0.73,-23.59 -1.81,-15.16 -5.61,-37.01 -13.24,-63.17 -14.76,-52.05 -49.08,-122.23 -110.97,-178.31 -61.93,-55.97 -135.18,-83.11 -188.45,-92.63 -26.79,-4.97 -48.91,-6.58 -64.16,-6.87 -15.28,-0.32 -23.76,-0.07 -23.78,-0.56z"/>
  <path class="fil4" d="M4190.9 3294.35c0.27,0.7 -8.74,4.88 -23.63,10.73 -14.89,5.87 -35.7,13.38 -58.98,20.77 -23.28,7.4 -44.61,13.28 -60.16,17.08 -15.55,3.8 -25.29,5.58 -25.49,4.87 -0.21,-0.78 9.19,-3.92 24.43,-8.68 17.24,-5.38 37.33,-11.67 59.54,-18.61 22.12,-7.14 42.16,-13.6 59.33,-19.16 15.2,-4.9 24.69,-7.75 24.97,-7z"/>
  <path class="fil4" d="M4117.29 3096.64c1.51,-0.13 4.82,23.17 5.54,52.15 0.75,28.98 -1.38,52.42 -2.89,52.35 -1.59,-0.06 -1.95,-23.43 -2.71,-52.2 -0.72,-28.78 -1.51,-52.16 0.06,-52.3z"/>
  <path class="fil4" d="M3782.67 3203.67c-0.21,-0.7 12.72,-5.41 33.96,-11.95 21.24,-6.55 50.81,-14.82 83.78,-22.78 32.98,-7.93 63.09,-14.03 84.96,-17.88 21.9,-3.85 35.55,-5.55 35.68,-4.82 0.14,0.8 -13.24,3.87 -34.89,8.71 -21.64,4.82 -51.55,11.51 -84.44,19.44 -32.87,7.93 -62.53,15.57 -84,21.15 -21.48,5.55 -34.82,8.9 -35.05,8.13z"/>
  <path class="fil5" d="M4057.01 3529.57c-40.21,-30.49 -82.73,-36.49 -133.13,-34.49 -50.41,2 -99.48,17.35 -145.69,37.6 -78.81,34.51 -152.91,85.4 -200.01,157.42 -47.09,72.01 -63.48,167.34 -28.22,245.83 3.51,7.82 8.08,16 15.97,19.38 8.29,3.55 17.79,0.77 26.38,-2.02 89.64,-29.24 179.91,-58.76 262.34,-104.57 82.43,-45.79 157.45,-109.44 201.68,-192.72 10.61,-19.99 19.49,-41.4 21.22,-63.97 1.74,-22.56 -4.5,-46.54 -20.56,-62.46z"/>
  <path class="fil4" d="M4057.8 3520.11c0.06,0.17 -2.16,1.09 -6.46,2.61 -4.84,1.67 -11.07,3.8 -18.77,6.46 -4.15,1.39 -8.69,2.9 -13.6,4.53 -4.93,1.78 -10.18,3.99 -15.89,6.2 -11.35,4.58 -24.51,9.17 -38.39,15.9 -7.01,3.19 -14.35,6.53 -21.97,10.01 -7.61,3.52 -15.23,7.86 -23.29,11.95 -16.25,7.99 -32.69,18.19 -50.18,28.53 -34.38,21.72 -70.74,47.87 -106.15,78.71 -35.1,31.19 -65.68,63.94 -91.62,95.27 -12.49,16.05 -24.69,31.06 -34.68,46.16 -5.1,7.48 -10.35,14.47 -14.81,21.58 -4.42,7.12 -8.67,13.97 -12.72,20.52 -8.45,12.89 -14.67,25.37 -20.66,36.04 -2.92,5.37 -5.78,10.3 -8.17,14.97 -2.25,4.65 -4.32,8.96 -6.23,12.9 -3.62,7.3 -6.53,13.21 -8.8,17.81 -2.07,4.04 -3.24,6.14 -3.42,6.07 -0.18,-0.08 0.66,-2.32 2.39,-6.52 2.03,-4.73 4.63,-10.78 7.85,-18.28 1.77,-4.01 3.71,-8.41 5.81,-13.16 2.25,-4.76 4.98,-9.78 7.78,-15.25 5.75,-10.84 11.77,-23.52 20.03,-36.61 3.99,-6.65 8.16,-13.6 12.49,-20.82 4.4,-7.22 9.59,-14.32 14.64,-21.9 9.89,-15.3 22.03,-30.51 34.49,-46.76 25.88,-31.71 56.57,-64.81 91.93,-96.23 35.66,-31.06 72.38,-57.27 107.13,-78.9 17.7,-10.28 34.33,-20.4 50.77,-28.24 8.16,-4.04 15.85,-8.3 23.57,-11.74 7.72,-3.37 15.14,-6.62 22.26,-9.74 14.04,-6.52 27.37,-10.87 38.87,-15.21 5.78,-2.07 11.1,-4.15 16.09,-5.76 4.99,-1.48 9.6,-2.84 13.81,-4.1 7.86,-2.23 14.2,-4.04 19.13,-5.45 4.39,-1.2 6.72,-1.74 6.77,-1.54z"/>
  <path class="fil4" d="M3743.73 3690.16c0.44,1.48 -43.35,15.59 -97.78,31.51 -54.44,15.92 -98.93,27.61 -99.36,26.14 -0.44,-1.49 43.34,-15.6 97.8,-31.52 54.43,-15.91 98.92,-27.6 99.35,-26.12z"/>
  <path class="fil4" d="M3739.72 3905.95c-0.76,0.01 -1.64,-11.63 -2.16,-30.46 -0.51,-18.85 -0.6,-44.88 0.21,-73.62 0.81,-28.76 2.35,-54.76 3.92,-73.53 1.56,-18.79 3.09,-30.35 3.85,-30.29 0.78,0.06 0.65,11.72 0.09,30.53 -0.63,20.64 -1.41,45.72 -2.27,73.45 -0.68,27.74 -1.32,52.82 -1.84,73.47 -0.49,18.81 -1.02,30.45 -1.8,30.46z"/>
  <path class="fil4" d="M3924.57 3811.78c-1.54,0.1 -6.46,-52.8 -10.98,-118.18 -4.52,-65.37 -6.93,-118.46 -5.38,-118.56 1.54,-0.1 6.45,52.79 10.98,118.18 4.52,65.36 6.93,118.44 5.38,118.56z"/>
  <path class="fil4" d="M3694.47 3569.9c0.04,-0.76 12.02,-1.06 31.35,-0.94 19.32,0.13 46,0.7 75.45,1.67 29.46,0.97 56.12,2.16 75.41,3.32 19.3,1.14 31.22,2.23 31.21,3.02 -0.01,0.76 -11.97,1.06 -31.3,0.95 -19.32,-0.14 -46.02,-0.7 -75.51,-1.69 -29.49,-0.97 -56.15,-2.16 -75.45,-3.32 -19.3,-1.14 -31.2,-2.23 -31.16,-3.01z"/>
  <path class="fil4" d="M4138.18 4213.74c-0.2,0.01 -0.42,-2.15 -0.67,-6.25 -0.22,-4.7 -0.49,-10.66 -0.82,-17.98 -0.7,-15.61 -0.87,-38.25 -0.27,-66.2 0.51,-27.95 2.4,-61.21 5.76,-98.05 3.64,-36.8 8.91,-77.15 16.45,-119.19 7.74,-42.02 17.03,-81.68 26.6,-117.45 9.83,-35.71 19.78,-67.57 29.17,-93.97 9.28,-26.43 17.42,-47.61 23.59,-62.03 2.89,-6.76 5.25,-12.24 7.11,-16.58 1.67,-3.78 2.65,-5.73 2.83,-5.65 0.18,0.07 -0.44,2.15 -1.78,6.06 -1.61,4.42 -3.64,10.04 -6.14,16.94 -5.52,14.63 -13.07,35.98 -21.86,62.5 -8.89,26.5 -18.41,58.36 -27.94,94.02 -9.26,35.73 -18.36,75.28 -26.08,117.15 -7.51,41.88 -12.92,82.07 -16.83,118.71 -3.62,36.69 -5.93,69.81 -6.95,97.7 -1.1,27.86 -1.54,50.43 -1.5,66.03 -0.1,7.33 -0.17,13.27 -0.23,17.99 -0.13,4.11 -0.27,6.27 -0.46,6.27z"/>
  <path class="fil4" d="M4162.84 3907.71c0.52,0.54 -6.56,8.4 -18.65,20.46 -12.09,12.05 -29.27,28.25 -48.85,45.43 -19.6,17.17 -37.9,32.07 -51.44,42.5 -13.53,10.41 -22.25,16.38 -22.73,15.79 -0.49,-0.62 7.36,-7.68 20.22,-18.87 14.36,-12.47 31.42,-27.27 50.26,-43.63 18.67,-16.55 35.59,-31.51 49.82,-44.12 12.77,-11.29 20.81,-18.14 21.36,-17.57z"/>
  <path class="fil4" d="M4310.79 4026.88c-0.68,0.43 -8.1,-10.2 -19.86,-27.5 -12.79,-18.65 -28.66,-41.8 -46.18,-67.41 -17.92,-25.36 -34.12,-48.29 -47.17,-66.75 -12.12,-17.05 -19.51,-27.7 -18.88,-28.18 0.59,-0.46 9.09,9.33 22.06,25.81 12.95,16.46 30.29,39.65 48.57,65.92 18.26,26.25 33.99,50.58 44.92,68.46 10.93,17.89 17.16,29.25 16.54,29.65z"/>
  <path class="fil4" d="M4233.29 3652.08c0.83,1.31 -48.31,34.39 -109.77,73.89 -61.47,39.52 -111.95,70.49 -112.79,69.18 -0.83,-1.29 48.3,-34.37 109.77,-73.89 61.45,-39.51 111.95,-70.48 112.79,-69.18z"/>
  <path class="fil4" d="M4371.86 3801.65c-1.07,1.11 -34.36,-29.65 -74.33,-68.69 -39.99,-39.05 -71.51,-71.6 -70.44,-72.7 1.09,-1.11 34.36,29.64 74.35,68.69 39.96,39.04 71.49,71.59 70.41,72.7z"/>
  <path class="fil5" d="M4406.71 3798.65l42.2 -3.5c29.94,-2.46 59.01,-11.34 85.2,-26.07 12.93,-7.29 25.94,-14.42 39.7,-19.95 52.17,-20.93 110.36,-17.18 166.49,-20 91.63,-4.61 182.29,-27.77 264.86,-67.73 4.77,-2.31 9,-5.84 11.55,-10.47 8.66,-15.78 -7.42,-29.84 -21.29,-38.38 -71.07,-43.79 -143.42,-88.15 -224.03,-109.89 -80.61,-21.74 -172.11,-18.06 -240.89,29.27 -80.73,55.56 -110.15,169.69 -123.79,266.73z"/>
  <path class="fil4" d="M5017.64 3645.73c-0.09,0.16 -2.54,-0.98 -7.15,-3.33 -5.05,-2.66 -11.7,-6.13 -19.99,-10.48 -17.34,-9.12 -42.31,-22.58 -73.87,-37.7 -31.55,-14.97 -69.81,-31.87 -114.32,-44.07 -44.32,-12.32 -95.45,-18.76 -148.19,-12.01 -52.51,6.92 -100.86,27.35 -135.08,58.01 -34.46,30.55 -55.48,67.44 -70.34,98.8 -14.82,31.61 -23.95,58.51 -30.59,76.92 -3.12,8.81 -5.62,15.9 -7.52,21.28 -1.75,4.85 -2.76,7.37 -2.95,7.3 -0.18,-0.05 0.46,-2.69 1.87,-7.66 1.65,-5.45 3.83,-12.64 6.53,-21.62 6.01,-18.65 14.59,-45.8 29.07,-77.9 14.51,-31.8 35.45,-69.49 70.52,-101 34.87,-31.62 84.35,-52.68 137.77,-59.69 53.63,-6.89 105.6,-0.14 150.29,12.58 44.89,12.6 83.21,29.99 114.68,45.46 31.45,15.65 56.15,29.66 73.18,39.37 8.1,4.72 14.57,8.52 19.5,11.4 4.42,2.66 6.7,4.13 6.6,4.31z"/>
  <path class="fil4" d="M4916.33 3700.17c-0.86,1.28 -56.05,-34.41 -123.23,-79.71 -67.22,-45.33 -120.99,-83.09 -120.12,-84.36 0.85,-1.29 56.04,34.4 123.24,79.71 67.2,45.31 120.97,83.08 120.11,84.36z"/>
  <path class="fil4" d="M4857.48 3533.18c0.27,1.22 -17.58,5.37 -40.17,7.22 -22.59,1.9 -40.98,0.72 -40.96,-0.53 0,-1.34 18.18,-2.28 40.48,-4.14 22.31,-1.81 40.38,-3.87 40.66,-2.55z"/>
  <path class="fil4" d="M4615.93 3501.7c1.33,0.63 -6.77,13.28 -18.11,28.28 -11.34,15.01 -21.6,26.68 -22.93,26.05 -1.33,-0.61 6.77,-13.26 18.1,-28.28 11.34,-15 21.59,-26.67 22.94,-26.05z"/>
  <path class="fil4" d="M4665.36 3732.67c-0.38,0.64 -10.61,-4.72 -26.55,-14.39 -15.95,-9.67 -37.48,-23.85 -60.5,-40.56 -23.01,-16.73 -43.31,-32.52 -57.9,-44.09 -14.57,-11.59 -23.36,-19.03 -22.9,-19.64 0.45,-0.61 10.11,5.7 25.28,16.48 16.56,12.03 36.62,26.6 58.81,42.73 22.93,16.65 44.02,31.27 59.35,41.76 15.34,10.49 24.83,17.04 24.4,17.72z"/>
  <path class="fil5" d="M4468.82 3977.89c-40.23,-10.63 -88.21,28.52 -96.49,69.3 -8.29,40.79 6.99,82.5 24.9,120.07 39.65,83.17 94.35,160.32 166.41,217.73 72.07,57.42 162.32,94.15 254.45,93.67 -17.01,-79.02 4.5,-161.58 -4.98,-241.85 -8.28,-70.05 -40.95,-137 -91.08,-186.64 -50.13,-49.64 -117.4,-81.63 -187.53,-89.21 -25.7,-2.77 -55.43,-6.81 -65.68,16.91z"/>
  <path class="fil4" d="M4818.09 4478.67c-0.09,0.16 -2.06,-0.75 -5.72,-2.67 -3.64,-1.98 -8.88,-5.17 -15.05,-10.11 -12.64,-9.58 -27.11,-28.06 -39.74,-53.13 -6.41,-12.47 -13.58,-25.99 -20.6,-40.96 -6.8,-15.04 -14.04,-31.05 -21.64,-47.86 -7.68,-16.76 -16.12,-34.17 -26.61,-51.16 -10.43,-17 -22.84,-33.62 -36.6,-49.79 -27.55,-32.37 -57.11,-60.36 -82.74,-87.1 -25.75,-26.64 -47.42,-52.31 -63.08,-75.69 -15.81,-23.29 -25.39,-44.16 -30.83,-58.88 -2.57,-7.41 -4.45,-13.22 -5.36,-17.25 -1.02,-4.01 -1.46,-6.12 -1.28,-6.18 0.53,-0.15 2.81,8.22 8.68,22.65 6.02,14.34 16.02,34.68 32.07,57.43 15.9,22.84 37.66,48 63.52,74.33 25.73,26.46 55.46,54.39 83.31,87.08 13.9,16.32 26.47,33.22 37.02,50.55 10.61,17.32 19.03,35 26.61,51.9 7.45,16.87 14.53,32.94 21.17,48.03 6.76,14.91 13.74,28.56 19.91,41.08 12.12,25.13 25.65,43.33 37.61,53.29 11.76,10.15 19.71,13.9 19.38,14.44z"/>
  <path class="fil4" d="M4609.99 4412.99c-0.71,-0.14 0.54,-10.5 3.7,-27.08 3.15,-16.58 8.32,-39.32 15.3,-64.11 6.99,-24.8 14.45,-46.89 20.42,-62.67 5.96,-15.78 10.29,-25.29 10.98,-25.03 0.76,0.27 -2.25,10.25 -7.23,26.31 -4.98,16.07 -11.82,38.25 -18.78,62.9 -6.93,24.67 -12.69,47.14 -16.82,63.45 -4.13,16.29 -6.77,26.38 -7.56,26.22z"/>
  <path class="fil4" d="M4810.47 4219.04c-0.26,0.76 -11.02,-1.99 -28.35,-6.52 -17.33,-4.53 -41.28,-10.72 -67.92,-16.74 -26.65,-5.98 -50.95,-10.67 -68.55,-13.99 -17.61,-3.34 -28.51,-5.47 -28.4,-6.27 0.1,-0.73 11.21,0.01 29.04,2.35 17.82,2.35 42.36,6.42 69.14,12.45 26.77,6.03 50.69,12.87 67.79,18.38 17.12,5.54 27.46,9.61 27.26,10.33z"/>
  <path class="fil4" d="M4460.66 4275.39c-0.73,-0.14 0.82,-12.13 4.36,-31.35 3.55,-19.2 9.17,-45.62 16.7,-74.47 7.55,-28.86 15.54,-54.67 21.84,-73.14 6.31,-18.5 10.81,-29.72 11.52,-29.48 0.76,0.24 -2.42,11.9 -7.74,30.64 -5.32,18.75 -12.68,44.64 -20.2,73.39 -7.49,28.74 -13.71,54.93 -18.24,73.88 -4.52,18.96 -7.43,30.69 -8.23,30.53z"/>
  <path class="fil4" d="M4718.14 4050.01c-0.16,1.54 -50.4,-2.53 -112.19,-9.08 -61.8,-6.55 -111.77,-13.11 -111.62,-14.65 0.17,-1.53 50.4,2.53 112.21,9.09 61.8,6.54 111.76,13.1 111.6,14.64z"/>
  <path class="fil11" d="M4681.34 4659.23c0,1.54 -176.59,2.8 -394.38,2.8 -217.85,0 -394.42,-1.26 -394.42,-2.8 0,-1.55 176.57,-2.81 394.42,-2.81 217.8,0 394.38,1.26 394.38,2.81z"/>
  <path class="fil11" d="M4558.49 4886.48c0,1.54 -118.99,2.8 -265.73,2.8 -146.79,0 -265.74,-1.26 -265.74,-2.8 0,-1.55 118.95,-2.81 265.74,-2.81 146.74,0 265.73,1.26 265.73,2.81z"/>
  <path class="fil11" d="M4553.87 4918.97c0,1.55 -116.93,2.8 -261.11,2.8 -144.22,0 -261.12,-1.25 -261.12,-2.8 0,-1.55 116.89,-2.81 261.12,-2.81 144.18,0 261.11,1.26 261.11,2.81z"/>
  <path class="fil11" d="M4563.12 4859.69c0,1.56 -123.06,2.81 -274.86,2.81 -151.82,0 -274.88,-1.25 -274.88,-2.81 0,-1.55 123.05,-2.8 274.88,-2.8 151.79,0 274.86,1.25 274.86,2.8z"/>
  <path class="fil14" d="M2983.94 225.13c-103.12,-22.97 -235.39,48.56 -271.02,144.93 -35.65,96.36 3.03,215.6 80.62,282.94 -60.54,77.88 -63.07,193.72 -11.9,278.05 51.16,84.33 150.39,134.98 249.03,134.38 98.65,-0.6 194.34,-49.67 258.51,-124.59 83.55,41.18 189.98,31.03 264.25,-25.21 74.26,-56.24 112.89,-155.9 95.9,-247.51 116.89,-42.66 181.13,-192.05 131.66,-306.22 -49.45,-114.17 -202.37,-169.5 -313.44,-113.4 2.4,-124.46 -106.14,-240.58 -230.46,-246.59 -124.34,-6.01 -243.57,99.13 -253.16,223.23 7.66,-1.25 -7.67,1.23 0,0z"/>
  <path class="fil4" d="M2983.94 225.13c0,0 -0.48,0.16 -1.85,0.43l-0.26 0.05 -0.07 0.01 -0.02 -0.27 0.14 -0.02 0.64 -0.13 1.53 -0.28 1.92 -0.33 -1.99 0.79 -0.36 0.16 0.07 -0.43c1.52,-9.9 1.93,-36.11 17.75,-71.91 7.57,-17.92 19.23,-37.74 35.32,-58.14 16.14,-20.36 37.91,-40.43 65.09,-57.64 27.09,-17.18 60.42,-30.91 98.18,-35.55 4.71,-0.53 9.48,-1.06 14.27,-1.6 4.84,-0.05 9.72,-0.08 14.64,-0.13 9.87,-0.61 19.78,1.38 29.93,2.13 19.95,3.64 40.62,8.56 60.17,18.01 5.03,2.03 9.95,4.38 14.68,7.19 4.78,2.71 9.7,5.25 14.46,8.12 9.17,6.33 18.82,12.27 27.42,19.87 9.16,6.93 17.12,15.41 25.59,23.57 7.6,8.94 15.81,17.64 22.46,27.72 28.48,38.81 46.59,88.78 46.35,141.81l-3.55 -2.23c48.32,-24.17 108.06,-28.8 164.32,-12.89 56,15.63 110.44,51.74 142.27,106.53 32.26,54.62 35.51,125.35 13.01,187.52 -11.12,31.21 -28.4,60.72 -51.34,85.79 -22.88,25.03 -51.67,45.55 -84.36,57.64l1.91 -3.33c8.86,47.81 2.75,99.04 -16.74,145.42 -19.43,46.29 -52.43,88.42 -96.32,116.1 -75.9,48.16 -174.55,52.02 -251.34,14.41l3.58 -0.73c-55.48,64.19 -131.5,108.08 -211.1,121.1 -79.62,13.84 -160.94,-6.49 -222.59,-49.28 -30.9,-21.39 -57.09,-48.34 -76.25,-78.96 -19.05,-30.67 -31.06,-64.72 -35.67,-98.81 -5.07,-34.09 -2.81,-68.19 4.92,-99.92 7.93,-31.71 22.28,-60.81 40.98,-85.32l0.3 3.15c-37.56,-32.95 -63.07,-74.69 -78.26,-116.77 -7.73,-21.08 -12.28,-42.59 -14.53,-63.61 -2.19,-21.02 -2.11,-41.72 1.09,-61.32 5.56,-39.28 22.11,-74.21 44.71,-99.61 22.14,-25.88 47.44,-44.69 71.73,-58.36 24.37,-13.69 47.89,-22.19 68.71,-27.59 20.9,-5.23 39.17,-6.88 53.88,-7.13 14.71,0.07 25.96,0.98 33.36,2.6 7.43,1.33 11.21,2.18 11.21,2.18 0,0 -3.87,-0.41 -11.32,-1.5 -7.38,-1.39 -18.6,-2.09 -33.22,-1.93 -14.62,0.45 -32.72,2.3 -53.42,7.7 -20.6,5.56 -43.87,14.18 -67.93,27.92 -23.97,13.71 -48.9,32.5 -70.6,58.14 -22.16,25.21 -38.15,59.4 -43.48,98.11 -3.07,19.29 -3.06,39.68 -0.81,60.37 2.29,20.69 6.84,41.88 14.54,62.64 15.1,41.42 40.39,82.45 77.36,114.69l1.63 1.42 -1.33 1.73c-18.22,24.03 -32.2,52.55 -39.9,83.67 -7.5,31.13 -9.66,64.6 -4.59,98.02 4.58,33.44 16.43,66.77 35.1,96.72 18.82,29.95 44.53,56.33 74.87,77.28 60.6,41.9 140.41,61.77 218.54,48.09 78.14,-12.84 152.99,-56.11 207.52,-119.29l1.51 -1.75 2.08 1.02c74.8,36.65 171.48,32.86 245.47,-14.16 42.74,-26.96 75,-68.08 94.02,-113.34 19.07,-45.34 25.05,-95.43 16.44,-142.03l-0.47 -2.45 2.37 -0.87c63.86,-23.67 110.76,-79.09 132.28,-139.81 22.04,-60.78 18.89,-129.71 -12.38,-182.79 -30.86,-53.36 -84.06,-88.86 -138.9,-104.25 -55.1,-15.69 -113.51,-11.24 -160.67,12.19l-3.57 1.78 0.02 -4.01c0.33,-51.76 -17.23,-100.87 -45.11,-139.09 -6.53,-9.94 -14.57,-18.5 -22.01,-27.34 -8.32,-8.04 -16.12,-16.43 -25.11,-23.26 -8.43,-7.52 -17.91,-13.38 -26.9,-19.65 -4.69,-2.84 -9.52,-5.36 -14.21,-8.03 -4.63,-2.79 -9.46,-5.12 -14.41,-7.13 -19.19,-9.37 -39.48,-14.27 -59.08,-17.93 -9.97,-0.79 -19.7,-2.79 -29.4,-2.22 -4.84,0.01 -9.64,0.04 -14.38,0.06 -4.74,0.51 -9.42,1.02 -14.06,1.53 -37.17,4.4 -70.12,17.75 -97.04,34.58 -26.96,16.86 -48.64,36.58 -64.78,56.64 -16.09,20.09 -27.85,39.63 -35.53,57.33 -16.09,35.35 -16.95,61.37 -18.92,71.23l-0.28 -0.27 2.14 0.13 -1.93 0.28 -1.54 0.22 -0.64 0.09 -0.15 0.01 -0.06 -0.27 0.07 -0.01 0.27 -0.02c1.36,-0.18 1.88,-0.18 1.88,-0.18z"/>
  <path class="fil5" d="M3177.98 734.94c24.24,13.43 52.06,19.68 79.24,15.91 32.03,-4.42 62.01,-23.09 82.26,-51.2 19.21,-26.64 27.05,-58.9 21.53,-88.47 -5.56,-29.86 -24.62,-57.05 -52.31,-74.63 -22.06,-14.07 -47.59,-20.83 -72.5,-19.68l2.13 -104.31c0.22,-10.19 -7.88,-18.64 -18.08,-18.85 -10.2,-0.2 -18.65,7.89 -18.85,18.09l-2.58 126.12c-0.11,5.79 2.49,11.29 7.03,14.88 4.49,3.58 10.49,4.83 16.09,3.36 21.98,-5.72 46.34,-1.55 66.96,11.57 19.07,12.1 32.11,30.4 35.81,50.2 3.67,19.71 -1.86,41.62 -15.19,60.13 -14.37,19.94 -35.27,33.14 -57.36,36.19 -43.92,6.09 -92.19,-26.46 -105.42,-71.02 -2.89,-9.79 -13.15,-15.35 -22.95,-12.47 -9.78,2.9 -15.36,13.18 -12.46,22.96 10.34,34.93 35.54,63.99 66.64,81.22z"/>
  <path class="fil5" d="M3245.32 336.81c0.52,-11.44 -8.32,-21.12 -19.75,-21.65 -11.44,-0.52 -21.12,8.32 -21.65,19.75 -0.52,11.44 8.31,21.14 19.75,21.65 11.43,0.53 21.12,-8.32 21.65,-19.75z"/>
  <path class="fil14" d="M2559.07 803.15c-52.5,-5.84 -105.6,36.56 -111.51,89.05 -5.91,52.49 36.42,105.64 88.9,111.64 52.49,5.99 105.7,-36.26 111.76,-88.74 6.06,-52.48 -36.11,-105.75 -88.58,-111.89l-0.58 -0.06z"/>
  <path class="fil4" d="M2559.64 803.2c0,0 9.09,-0.38 24.24,5.25 14.94,5.5 35.89,18.61 51.44,43.33 7.59,12.28 13.81,27.39 15.52,44.53 1.58,17.05 -1.44,36.04 -10.76,53.05 -4.44,8.58 -10.28,16.7 -17.33,23.93 -6.91,7.37 -15.02,13.91 -24.12,19.17 -17.91,10.92 -40.12,16.64 -62.51,14.37 -22.33,-2.83 -42.69,-13.42 -57.69,-28.08 -7.67,-7.19 -14.11,-15.39 -19.18,-24.12 -5.23,-8.64 -9.11,-17.86 -11.49,-27.22 -5.26,-18.67 -3.93,-37.85 1.46,-54.11 5.53,-16.31 15.01,-29.64 25.16,-39.89 20.72,-20.58 44.09,-28.64 59.88,-30.63 16.03,-2.07 24.8,0.36 24.8,0.36 -0.02,0.74 -8.91,-0.78 -24.43,1.95 -15.28,2.63 -37.66,11.11 -57.21,31.29 -9.59,10.05 -18.43,22.95 -23.47,38.47 -4.86,15.49 -5.96,33.46 -0.84,51.11 2.32,8.83 6.05,17.55 11.07,25.72 4.86,8.25 11.01,16.01 18.32,22.8 14.27,13.85 33.47,23.71 54.3,26.36 20.88,2.1 41.81,-3.17 58.84,-13.46 8.63,-4.96 16.37,-11.13 22.96,-18.07 6.73,-6.83 12.33,-14.49 16.58,-22.57 8.95,-16.03 11.94,-33.8 10.69,-49.97 -1.41,-16.26 -7.11,-30.81 -14.19,-42.77 -14.5,-24.07 -34.39,-37.37 -48.69,-43.37 -14.49,-6.15 -23.49,-6.69 -23.35,-7.42z"/>
  <path class="fil14" d="M2362.37 1022.91c-22.65,-2.52 -45.55,15.78 -48.09,38.42 -2.55,22.64 15.69,45.56 38.33,48.13 22.65,2.59 45.59,-15.63 48.21,-38.27 2.62,-22.62 -15.56,-45.6 -38.2,-48.25l-0.24 -0.03z"/>
  <path class="fil4" d="M2362.61 1022.95c0,-0.27 3.99,-0.64 10.71,1.64 6.62,2.23 15.96,7.83 22.96,18.67 3.42,5.4 6.25,12.08 7.08,19.71 0.76,7.6 -0.54,16.14 -4.67,23.74 -7.82,15.13 -25.88,27.81 -46.41,25.74 -20.49,-2.61 -35.23,-19.04 -39.43,-35.53 -2.31,-8.35 -1.66,-16.96 0.8,-24.19 2.53,-7.27 6.8,-13.12 11.34,-17.61 9.27,-8.98 19.64,-12.34 26.59,-13.02 7.06,-0.69 10.86,0.55 10.81,0.82 -0.05,0.54 -3.88,0.13 -10.43,1.49 -6.45,1.33 -15.82,5.09 -23.91,13.69 -8.06,8.28 -14.29,22.51 -9.83,37.38 3.92,14.48 17.36,28.86 34.77,31 17.44,1.84 33.76,-9.15 40.85,-22.38 7.68,-13.47 4.83,-28.72 -1.16,-38.62 -5.95,-10.2 -14.23,-15.99 -20.22,-18.73 -6.07,-2.8 -9.9,-3.27 -9.82,-3.82z"/>
 </g>
</svg>
