<svg width="1700" height="432" xmlns="http://www.w3.org/2000/svg">
 <defs>
  <filter color-interpolation-filters="sRGB" filterUnits="userSpaceOnUse" height="284.228" width="280.961" y="0" x="88.952" id="filter0_f">
   <feGaussianBlur stdDeviation="37"/>
  </filter>
 </defs>
 <g>
  <title>background</title>
  <rect fill="none" id="canvas_background" height="402" width="582" y="-1" x="-1"/>
 </g>
 <g>
  <title>Layer 1</title>
  <path id="svg_1" fill="#ffcb4f" d="m1,-1l0,428.552c71.011,8.66 155.241,1.84 254.471,-29.992c444.967,-142.739 870.749,-51.123 874.509,-50.313l0.69,0c24.46,4.25 46.54,7.63 71.65,12.26c78.43,14.461 163.01,22.322 248.62,22.232c94.81,-0.101 201.05,-9.555 250.06,-46.593l0,-336.146l-1700,0z"/>
  <path id="svg_2" fill="#101010" d="m235.301,169.257l-11.377,0l0,238.359l11.377,-3.289l0,-235.07z"/>
  <g id="svg_3" filter="url(#filter0_f)" opacity="0.4">
   <path id="svg_4" fill="#fff2b5" d="m229.433,210.228c36.716,0 66.48,-30.496 66.48,-68.114c0,-37.618 -29.764,-68.114 -66.48,-68.114c-36.717,0 -66.481,30.496 -66.481,68.114c0,37.618 29.764,68.114 66.481,68.114z"/>
  </g>
  <path id="svg_5" fill="#DFE8F4" d="m229.612,183.177c22.036,0 39.899,-18.302 39.899,-40.879c0,-22.576 -17.863,-40.878 -39.899,-40.878c-22.035,0 -39.898,18.302 -39.898,40.878c0,22.577 17.863,40.879 39.898,40.879z"/>
 </g>
</svg>