<svg id="star2" enable-background="new 0 0 300 300" height="512" viewBox="0 0 300 300" width="512" xmlns="http://www.w3.org/2000/svg" xmlns:xlink="http://www.w3.org/1999/xlink"><linearGradient id="SVGID_1_" gradientUnits="userSpaceOnUse" x1="64.831" x2="224.799" y1="229.134" y2="69.167"><stop offset="0" stop-color="#107eff"/><stop offset="1" stop-color="#8f16ff"/></linearGradient><g><path d="m58 78.336c0-8.822-7.176-16-16-16s-16 7.178-16 16 7.176 16 16 16 16-7.177 16-16zm-24 0c0-4.412 3.59-8 8-8s8 3.588 8 8-3.59 8-8 8-8-3.588-8-8zm133.732-36.143c0-2.501 2.028-4.53 4.53-4.53s4.53 2.028 4.53 4.53-2.028 4.53-4.53 4.53-4.53-2.028-4.53-4.53zm84.798 193.614c0 2.501-2.028 4.53-4.53 4.53s-4.53-2.028-4.53-4.53 2.028-4.53 4.53-4.53 4.53 2.028 4.53 4.53zm14.236-86.484s0-.002-.004-.002l-51.961-22.459 6.129-55.203c.52-4.703-1.785-9.287-5.867-11.678-4.094-2.4-9.223-2.158-13.059.605l-46.004 33.018-46.004-33.018c-3.852-2.768-8.98-3-13.055-.607-4.086 2.393-6.391 6.977-5.871 11.682l6.129 55.201-51.965 22.461c-4.394 1.904-7.234 6.226-7.234 11.013s2.84 9.109 7.238 11.016l51.961 22.459-6.129 55.203c-.52 4.703 1.785 9.287 5.871 11.678 4.078 2.391 9.207 2.154 13.055-.605l46.004-33.018 46.004 33.016c2.047 1.473 4.469 2.252 6.996 2.252 2.129 0 4.227-.568 6.059-1.643 4.086-2.393 6.391-6.977 5.871-11.682l-6.129-55.201 51.965-22.461c4.395-1.904 7.234-6.227 7.234-11.014s-2.84-9.109-7.234-11.013zm-3.176 14.685-54.676 23.633c-1.613.697-2.582 2.367-2.391 4.113l6.453 58.139c.176 1.568-.594 3.098-1.961 3.896-1.34.783-3.094.695-4.348-.203l-48.336-34.691c-.695-.5-1.516-.75-2.332-.75s-1.637.25-2.332.75l-48.336 34.691c-1.277.916-2.988 1.002-4.352.201-1.363-.797-2.133-2.326-1.957-3.893l6.453-58.141c.191-1.746-.777-3.416-2.391-4.113l-54.67-23.63c-1.465-.637-2.414-2.078-2.414-3.674s.949-3.037 2.41-3.672l54.676-23.633c1.613-.697 2.582-2.367 2.391-4.113l-6.454-58.138c-.176-1.568.594-3.098 1.961-3.898 1.363-.797 3.062-.715 4.348.205l48.336 34.691c1.391 1 3.273 1 4.664 0l48.34-34.695c1.277-.916 2.98-1.002 4.348-.197 1.363.797 2.133 2.326 1.957 3.893l-6.453 58.141c-.191 1.746.777 3.416 2.391 4.113l54.676 23.633c1.465.637 2.41 2.076 2.41 3.672s-.95 3.035-2.411 3.67zm-20.164-7.344-39.465-17.057c-1.152-.498-2.469-.43-3.559.191l-15.919 9.013-5.871-5.871 17.755-10.052c1.117-.633 1.859-1.764 2.004-3.039l4.672-42.096c.172-1.57-.594-3.096-1.957-3.895-1.363-.797-3.066-.719-4.352.203l-38.402 27.562c-1.391 1-3.273 1-4.664 0l-38.402-27.562c-1.285-.922-2.988-1-4.352-.203-1.363.799-2.129 2.324-1.957 3.895l4.672 42.096c.145 1.277.891 2.408 2.008 3.041l17.756 10.045-5.869 5.869-15.93-9.01c-1.09-.613-2.406-.68-3.555-.189l-39.465 17.059c-1.465.633-2.414 2.076-2.414 3.672s.949 3.039 2.414 3.672l39.465 17.057c.508.219 1.047.328 1.586.328.684 0 1.363-.174 1.969-.52l15.932-9.019 5.874 5.874-17.763 10.056c-1.121.633-1.863 1.764-2.008 3.039l-4.672 42.096c-.172 1.57.594 3.096 1.957 3.895 1.363.797 3.066.717 4.352-.203l38.402-27.562c1.367-.98 3.297-.98 4.664 0l38.402 27.562c.695.498 1.512.75 2.332.75.695 0 1.395-.182 2.02-.547 1.363-.799 2.129-2.324 1.957-3.895l-4.676-42.137c-.145-1.277-.891-2.408-2.008-3.041l-17.737-10.034 5.868-5.868 15.951 9.024c.609.344 1.289.518 1.969.518.539 0 1.078-.109 1.586-.328l39.43-17.043c1.465-.633 2.414-2.076 2.414-3.672s-.949-3.041-2.414-3.674zm-122.071-29.73-3.457-31.133 31.105 22.324c4.188 3 9.805 3 13.992 0l31.105-22.324-3.457 31.135-17.903 10.135-13.913-13.912c-1.562-1.562-4.094-1.562-5.656 0l-13.908 13.907zm-11.968 45.998-29.145-12.596 29.145-12.598 12.265 6.938-2.824 2.824c-.75.75-1.172 1.768-1.172 2.828s.422 2.078 1.172 2.828l2.829 2.829zm81.254 20.766 3.461 31.174-31.105-22.324c-4.109-2.945-9.883-2.945-13.992 0l-31.105 22.324 3.457-31.135 17.912-10.141 13.904 13.904c.781.781 1.805 1.172 2.828 1.172s2.047-.391 2.828-1.172l13.923-13.923zm12.007-20.78-12.287-6.951 2.811-2.811c.75-.75 1.172-1.768 1.172-2.828s-.422-2.078-1.172-2.828l-2.818-2.818 12.259-6.942 29.145 12.596z" fill="url(#SVGID_1_)"/></g></svg>