<svg id="separated" enable-background="new 0 0 300 300" height="512" viewBox="0 0 300 300" width="512" xmlns="http://www.w3.org/2000/svg" xmlns:xlink="http://www.w3.org/1999/xlink"><linearGradient id="SVGID_1_" gradientUnits="userSpaceOnUse" x1="55.178" x2="244.836" y1="244.836" y2="55.178"><stop offset="0" stop-color="#107eff"/><stop offset="1" stop-color="#8f16ff"/></linearGradient><g><path d="m72.43 127.211c3.664 3.178 7.852 5.547 12.445 7.039 2.102.684 3.254 2.939 2.57 5.041-.551 1.689-2.117 2.766-3.805 2.766-.41 0-.824-.064-1.234-.197-5.621-1.826-10.738-4.721-15.219-8.605-1.668-1.447-1.848-3.973-.402-5.643 1.453-1.671 3.977-1.846 5.645-.401zm-15.457-36.887c.445.158.898.234 1.344.234 1.645 0 3.184-1.021 3.766-2.656 1.625-4.549 4.113-8.668 7.395-12.242 1.496-1.627 1.387-4.156-.238-5.65-1.621-1.494-4.152-1.389-5.652.24-4.012 4.365-7.051 9.4-9.035 14.961-.748 2.082.338 4.369 2.42 5.113zm67.468 38.088c.742.609 1.637.904 2.527.904 1.16 0 2.309-.5 3.102-1.467 3.75-4.588 6.496-9.789 8.164-15.457.621-2.119-.594-4.342-2.711-4.965-2.141-.627-4.34.592-4.969 2.711-1.359 4.637-3.605 8.891-6.68 12.645-1.397 1.711-1.144 4.231.567 5.629zm-64.336-6.76c.594 0 1.195-.133 1.766-.412 1.98-.979 2.797-3.377 1.816-5.357-2.133-4.33-3.355-8.98-3.629-13.822-.121-2.203-2.047-3.912-4.215-3.77-2.207.125-3.895 2.014-3.77 4.219.332 5.922 1.824 11.613 4.441 16.912.697 1.412 2.115 2.23 3.591 2.23zm35.333 18.541c.176 2.088 1.926 3.662 3.98 3.662.113 0 .227-.004.344-.014 5.902-.502 11.547-2.158 16.777-4.922 1.953-1.033 2.699-3.453 1.664-5.406-1.031-1.951-3.449-2.701-5.406-1.668-4.27 2.26-8.887 3.613-13.715 4.023-2.199.189-3.832 2.124-3.644 4.325zm-16.055-72.584c.555 0 1.121-.117 1.66-.365 4.387-2.008 9.07-3.094 13.926-3.23 2.207-.061 3.945-1.902 3.887-4.109-.062-2.209-1.984-3.971-4.113-3.887-5.934.166-11.664 1.496-17.027 3.953-2.012.92-2.891 3.293-1.973 5.303.671 1.468 2.12 2.335 3.64 2.335zm29.676-1.168c4.504 1.756 8.551 4.359 12.027 7.74.777.756 1.785 1.133 2.789 1.133 1.043 0 2.082-.404 2.867-1.211 1.539-1.584 1.504-4.117-.078-5.656-4.25-4.133-9.195-7.314-14.699-9.459-2.059-.801-4.375.213-5.18 2.273-.801 2.059.215 4.38 2.274 5.18zm22.238 14.303c-2.035.859-2.984 3.207-2.125 5.24 1.875 4.442 2.828 9.157 2.828 14.016 0 2.209 1.789 4 4 4s4-1.791 4-4c0-5.934-1.164-11.697-3.461-17.129-.859-2.037-3.211-2.988-5.242-2.127zm8.703 79.256v80c0 2.209-1.789 4-4 4h-80c-2.211 0-4-1.791-4-4v-80c0-2.209 1.789-4 4-4h80c2.211 0 4 1.791 4 4zm-8 4h-72v72h72zm116 36c0 24.262-19.738 44-44 44s-44-19.738-44-44 19.738-44 44-44 44 19.738 44 44zm-8 0c0-19.85-16.148-36-36-36s-36 16.15-36 36 16.148 36 36 36 36-16.15 36-36zm8-140v80c0 2.209-1.789 4-4 4h-80c-2.211 0-4-1.791-4-4v-80c0-2.209 1.789-4 4-4h80c2.211 0 4 1.791 4 4zm-8 4h-72v72zm-20 136c0 8.822-7.176 16-16 16s-16-7.178-16-16 7.176-16 16-16 16 7.178 16 16zm-8 0c0-4.412-3.59-8-8-8s-8 3.588-8 8 3.59 8 8 8 8-3.588 8-8z" fill="url(#SVGID_1_)"/></g></svg>