<?xml version="1.0" encoding="UTF-8"?>
<!DOCTYPE svg PUBLIC "-//W3C//DTD SVG 1.1//EN" "http://www.w3.org/Graphics/SVG/1.1/DTD/svg11.dtd">
<!-- Creator: CorelDRAW 2020 (64-Bit Evaluation Version) -->
<svg xmlns="http://www.w3.org/2000/svg" xml:space="preserve" width="110.454mm" height="85.99mm" version="1.1" style="shape-rendering:geometricPrecision; text-rendering:geometricPrecision; image-rendering:optimizeQuality; fill-rule:evenodd; clip-rule:evenodd"
viewBox="0 0 8717.76 6786.88"
 xmlns:xlink="http://www.w3.org/1999/xlink"
 xmlns:xodm="http://www.corel.com/coreldraw/odm/2003">
 <defs>
  <style type="text/css">
   <![CDATA[
    .fil5 {fill:#6A7FF8}
    .fil1 {fill:#6D81F8}
    .fil2 {fill:#8A9BFE}
    .fil3 {fill:#EAEDFE}
    .fil4 {fill:#899AFE;fill-rule:nonzero}
    .fil0 {fill:#2E4BF5;fill-opacity:0.039216}
   ]]>
  </style>
 </defs>
 <g id="Layer_x0020_1">
  <metadata id="CorelCorpID_0Corel-Layer"/>
  <path class="fil0" d="M8717.76 592.89c-2338.48,-193.37 -4274.82,583.04 -5915.51,2210.42 -1517.92,1505.66 -2358.41,2833.38 -2521.06,3983.57l8436.57 0m0 -6193.99l0 0 0 0z"/>
  <path class="fil1" d="M1893.47 3030.7c25.33,47.96 21.47,99.44 24.68,150.9 1.61,25.75 8.33,52.1 25.64,73.07 15.68,18.75 39.41,27.02 60.56,38.76 42.62,23.83 71.46,66.72 76.6,112.79 6.08,56.24 -24.37,105.16 -33.01,159.17 -8.02,49.56 35.9,90.24 71.14,122 34.93,31.14 66.01,60.37 68.26,107.71 2.23,50.18 -5.45,104.51 -33.33,148.03 -46.8,72.44 -140.69,89.59 -225.3,77.83 -76.57,-10.48 -170.17,-37.48 -215.34,-101.66 -26.94,-38.45 -29.49,-84.82 -18.27,-128.03 7.06,-27 18.59,-52.73 31.74,-77.51 9.27,-17.48 20.17,-34.62 26.58,-53.38 16.66,-50.21 -30.76,-69.9 -69.54,-92.45 -49.68,-28.92 -79.48,-70.2 -95.19,-122.31 -14.41,-48.62 -13.78,-99.75 11.22,-144.89 12.83,-23.18 31.4,-42.56 53.84,-57.82 9.94,-6.66 22.76,-11.42 32.05,-18.73 8.64,-6.69 9.61,-17.79 9.29,-27.65 -0.96,-46.38 -26.61,-89.9 -28.84,-136.59 -2.26,-42.9 15.06,-91.19 58.95,-109.3 18.92,-7.62 40.39,-8.25 60.56,-4.45 48.74,10.17 85.91,43.52 107.69,84.51l0.02 -0.01z"/>
  <path class="fil2" d="M2212.87 2908.5c-28.19,53.69 -23.7,111.18 -27.23,168.69 -1.92,28.59 -8.98,58.45 -28.22,81.65 -17.29,20.96 -43.58,29.87 -66.97,43.52 -46.78,26.68 -79.15,74.66 -84.59,126.13 -6.75,62.59 26.91,117.54 36.54,177.9 8.63,55.28 -39.76,100.72 -78.86,136.3 -38.47,34.93 -73.07,67.35 -75.3,120.41 -2.57,56.24 5.76,116.9 36.83,165.52 51.92,81 155.43,100.07 249,87.04 84.93,-11.74 188.13,-41.93 237.79,-113.42 29.8,-42.9 32.7,-94.66 20.2,-143.27 -7.69,-30.17 -20.51,-58.76 -34.93,-86.72 -10.25,-19.72 -22.43,-38.76 -29.49,-59.72 -18.25,-55.93 33.98,-78.16 76.93,-103.58 54.8,-32.1 87.79,-78.48 105.1,-136.61 16.01,-54.32 15.39,-111.52 -12.49,-162.03 -14.12,-25.73 -34.62,-47.66 -59.29,-64.48 -10.9,-7.62 -25.33,-12.72 -35.27,-20.96 -9.61,-7.62 -10.57,-19.69 -10.25,-31.14 0.96,-52.1 29.17,-100.72 31.74,-152.82 2.23,-47.01 -17,-101.03 -65.7,-121.35 -20.84,-8.58 -44.55,-9.54 -66.99,-5.1 -53.19,10.82 -94.54,48.3 -118.57,94.06l0.01 -0.01z"/>
  <path class="fil3" d="M1846.69 3276.28c-6.1,37.48 -17.62,75.93 -14.12,114.37 2.88,32.72 21.15,60.66 40.07,87.69 38.45,54.32 82.36,110.55 81.71,177.9 -0.33,39.72 -15.06,77.83 -11.86,117.54 2.57,36.21 13.47,73.38 29.49,106.76 12.83,26.68 32.37,49.24 47.11,74.66 4.49,7.93 10.9,19.38 6.41,27.96 -5.45,10.48 -21.15,10.8 -31.4,6.99 -23.73,-8.89 -39.74,-34.96 -52.25,-54.03 -18.25,-27.96 -32.68,-57.17 -42.6,-88.63 -10.9,-34.96 -17.96,-70.85 -16.35,-107.38 1.92,-37.82 13.78,-74.99 7.04,-112.79 -11.53,-63.86 -63.77,-110.24 -97.1,-164.89 -40.7,-67.68 -16.33,-137.24 5.14,-206.2 11.86,-38.11 25,-81 11.86,-120.39 -4.81,-14.95 -19.88,-31.14 -19.88,-47.02 0,-14.62 20.51,-25.41 30.13,-10.48 39.74,60.04 37.8,130.89 26.61,197.92l0.01 0zm445.99 -104.1c6.08,42.56 17.62,86.41 14.1,129.93 -2.88,37.17 -21.15,69.27 -40.06,100.07 -38.47,61.96 -82.36,125.82 -81.74,202.38 0.33,45.13 15.07,88.33 11.86,133.76 -2.57,41.3 -13.45,83.55 -29.49,121.37 -12.83,30.49 -32.37,55.9 -47.11,85.14 -4.47,8.89 -10.88,21.93 -6.41,31.76 5.45,11.76 21.15,12.41 31.4,7.96 23.73,-10.17 39.74,-39.72 52.25,-61.65 18.33,-31.64 32.74,-65.51 42.66,-100.7 10.9,-39.7 17.94,-80.69 16.33,-121.97 -1.92,-42.9 -13.76,-85.47 -7.04,-128.37 11.53,-72.42 63.77,-125.48 97.1,-187.44 41.33,-77.21 16.98,-156.31 -4.81,-235.1 -11.86,-43.2 -25,-92.13 -11.86,-136.93 4.81,-17.14 19.86,-35.25 19.86,-53.69 0,-16.52 -20.51,-28.9 -30.11,-11.76 -39.74,68.62 -37.82,149.02 -26.91,225.26l-0.03 -0.02z"/>
  <path class="fil1" d="M1803.11 4293.81l614.02 0 -165.37 -152.82 -141.65 -137.24c-79.48,-21.61 -160.54,-21.61 -242.9,0 -123.71,32.41 -69.54,38.76 -187.48,105.48 -78.52,44.48 -307.64,174.1 -339.68,184.59l463.06 -0.01z"/>
  <path class="fil4" d="M2785.66 4281.47l-934.5 0c-35.25,0 -64.09,-28.59 -64.09,-63.53 0,-34.96 28.84,-63.54 64.11,-63.54l934.47 0c35.25,0 64.09,28.59 64.09,63.54 0,34.93 -28.84,63.53 -64.09,63.53z"/>
  <path class="fil5" d="M797.66 2829.86c-828.62,-228.45 -990.53,-1188.22 -583.67,-1568.91 406.6,-380.69 470.76,-634 528.54,-799.18 171.34,-491.66 699.44,-574.72 1123.18,-324.96 420.47,247.81 -149.38,688.5 49.87,1159.9 115.98,274.61 389.27,797.86 276.57,1092.66 -149.38,390.82 -675.05,638.82 -1394.49,440.46l0.01 0.02z"/>
  <path class="fil3" d="M1154.86 4240.39c-7.81,-34.86 -16.32,-70.53 -23.24,-105.13 -19.11,-89.86 -43.71,-218.14 -69.42,-372.79 -12.94,-77.33 -25.68,-161.03 -38.42,-249.78 -12.32,-88.75 -25.06,-182.53 -36.27,-279.64 -12.2,-98.36 -23.61,-200.99 -31.21,-299.82 -8.56,-102.37 -16.91,-206.28 -22.18,-310.4 -5.25,-102.79 -10.03,-208.09 -10.99,-310.5 -0.88,-102.8 -1.1,-203.86 2.84,-301.61 2.86,-97.77 9.46,-192.23 17.14,-281.64 3.97,-44.59 9.44,-88.08 14.06,-130.04 5.93,-41.74 11.86,-82.15 17.36,-121.03 7.04,-38.67 13.84,-75.6 20.21,-110.72 7.69,-34.93 15.16,-67.87 22.2,-99.07 16.24,-61.73 30.53,-115.34 45.9,-158.63 13.41,-43.71 27.69,-76.87 36.69,-99.72 9,-22.85 13.84,-34.93 13.84,-34.93 1.92,-4.74 6.19,-7.49 10.88,-7.49 6.62,0 11.99,5.37 11.99,11.99 0,1.14 -0.17,2.29 -0.49,3.39l-0.21 0.65c0,0 -4.4,12.09 -12.53,34.93 -8.15,22.85 -21.09,55.8 -32.75,99.3 -13.61,43.06 -25.91,96.43 -39.97,157.5 -5.95,30.97 -12.12,63.69 -18.69,98.42 -5.26,34.92 -10.54,71.63 -16.24,109.84 -4.18,38.42 -8.56,78.41 -13.18,119.93 -3.09,41.77 -7.25,84.58 -9.46,128.95 -4.82,88.54 -8.12,182.11 -7.69,278.99 -0.65,96.87 2.86,196.84 7.04,298.54 5.05,101.49 11.86,204.73 21.09,307.77 8.56,103.04 20.21,205.84 32.08,306.89 12.53,101.05 25.9,200.35 40.41,296.12 14.06,95.78 29.87,188.28 45.04,275.69 13.45,81.23 30.48,166.38 46.2,246.3 30.3,152 58.87,277.65 80.61,364.88 7.92,32.91 17.53,66.52 26.26,99.69l10.11 36.02c1.43,5.83 2.26,11.86 2.26,17.9 0,30.07 -20.18,56.43 -49.22,64.27 -5.86,1.63 -11.96,2.46 -18.04,2.46 -30.02,0 -56.4,-19.94 -64.58,-48.82 -0.21,-0.65 -0.42,-1.52 -0.65,-2.19 0,-0.21 -3.09,-12.94 -8.79,-36.46l0 0.01z"/>
 </g>
</svg>
