<svg width="734" height="280" fill="none" xmlns="http://www.w3.org/2000/svg"><path d="M91.02 20H60c-1.1 0-2-.9-2-2s.9-2 2-2h31.02a2 2 0 1 1 0 4zm473 0H533c-1.1 0-2-.9-2-2s.9-2 2-2h31.02a2 2 0 1 1 0 4zM66.002 4H3.998C1.799 4 0 3.1 0 2s1.799-2 3.998-2h62.004C68.201 0 70 .9 70 2s-1.779 2-3.998 2z" fill="#6072DF"/><g clip-path="url(#clip0)"><path d="M410.22 123.99c-.75-.34-1.64-.02-1.99.74-9.42 20.56-20.17 28.78-26.4 32 .24-4.98.4-9.95.5-14.87.08-7.02.08-13.92-.22-20.6-.22-6.68-.73-13.13-1.34-19.24-.3-3.05-.74-6.01-1.09-8.88-.35-2.13-.68-4.18-1.01-6.19h.03c.43-.05 4.28-.67 7.5-7.17.37-.74.06-1.64-.68-2.01a1.51 1.51 0 0 0-2.01.68c-2.43 4.92-5.07 5.5-5.19 5.53-.06.01-.11.03-.17.04-.48-2.32-.95-4.56-1.39-6.7-.6-2.38-1.18-4.64-1.72-6.77-1.27-4.21-2.38-7.88-3.57-10.83-1.04-2.99-2.15-5.26-2.85-6.82-.7-1.56-1.08-2.39-1.08-2.39-.19-.42-.73-.62-1.2-.46-.47.16-.7.62-.53 1.03l.02.05s.34.83.97 2.38c.63 1.56 1.63 3.81 2.55 6.79 1.06 2.94 2.02 6.58 3.11 10.76.45 2.11.94 4.35 1.44 6.72.4 2.38.82 4.89 1.26 7.5.33 2.63.67 5.36 1.02 8.2.23 2.84.56 5.78.74 8.8.37 6.05.64 12.44.6 19.05.01.95-.01 1.91-.01 2.86-2.05.14-7.2.01-14.52-3.38.3-1.64.27-4.8-2.45-9.31-.43-.71-1.35-.94-2.06-.51-.71.43-.94 1.35-.51 2.06 1.75 2.91 2.13 5.03 2.13 6.3-4.93-2.68-10.67-6.8-16.99-13.12a1.49 1.49 0 0 0-2.12 0c-.58.59-.59 1.54 0 2.12 16.8 16.8 29.91 18.88 35.39 18.88.41 0 .79-.01 1.11-.03-.08 4.76-.28 9.61-.51 14.51-.33 5.8-.76 11.67-1.31 17.55-.25.31-.38.72-.32 1.15.03.17.08.33.16.48-.06.61-.11 1.22-.18 1.84-.67 7.03-1.57 14.05-2.5 20.95-.97 6.9-2.01 13.68-3.15 20.22-1.1 6.55-2.32 12.86-3.5 18.83-1.21 5.97-2.41 11.61-3.6 16.8-2.36 10.38-4.58 18.97-6.26 24.93-.84 3-1.52 5.26-2.01 6.84-.51 1.6-.78 2.46-.78 2.46-.77 2.43.85 4.94 3.63 5.62 2.77.67 5.65-.75 6.42-3.17.01-.04.03-.1.04-.15l.69-2.48c.44-1.64 1.08-4.12 1.82-7.17 1.49-6.14 3.4-14.9 5.39-25.46 1.01-5.27 2-11 2.99-17.06.96-6.06 1.95-12.46 2.81-19.1.9-6.63 1.69-13.5 2.4-20.48.67-6.99 1.31-14.09 1.72-21.2.06-.97.11-1.94.17-2.91 6.49-2.86 18.71-11.08 29.31-34.22.39-.75.06-1.64-.7-1.99z" fill="#6072DF"/><path opacity=".2" d="M483.53 125.75c.59-.59.59-1.54 0-2.12-.59-.58-1.54-.59-2.12 0-6.31 6.31-12.05 10.42-17 13.1.01-1.27.39-3.37 2.14-6.28.43-.71.2-1.63-.51-2.06-.71-.43-1.63-.2-2.06.51-2.7 4.48-2.75 7.63-2.46 9.28-7.29 3.37-12.45 3.52-14.51 3.4-.01-.95-.02-1.91-.01-2.85-.03-6.61.23-13 .6-19.05.19-3.03.51-5.96.74-8.8.35-2.83.69-5.57 1.02-8.2.44-2.61.86-5.12 1.26-7.5.51-2.37.99-4.61 1.44-6.72 1.09-4.18 2.05-7.83 3.11-10.76.91-2.98 1.92-5.23 2.55-6.79.63-1.55.97-2.38.97-2.38l.02-.05c.17-.41-.07-.86-.53-1.03-.48-.16-1.01.04-1.2.46 0 0-.38.83-1.08 2.39-.69 1.56-1.8 3.83-2.85 6.82-1.19 2.95-2.3 6.62-3.57 10.83-.54 2.12-1.11 4.39-1.72 6.77-.44 2.13-.91 4.38-1.39 6.7-.07-.02-.13-.04-.21-.04-.03 0-2.68-.52-5.15-5.52a1.502 1.502 0 0 0-2.01-.68c-.74.37-1.05 1.27-.68 2.01 3.22 6.5 7.07 7.12 7.5 7.17h.03c-.33 2.01-.66 4.07-1.01 6.19-.35 2.87-.78 5.83-1.09 8.88-.6 6.1-1.12 12.56-1.34 19.24-.3 6.68-.3 13.59-.22 20.6.1 4.93.26 9.91.5 14.9-1.49-.76-3.24-1.81-5.17-3.25-5.58-4.18-13.8-12.56-21.23-28.78a1.509 1.509 0 0 0-1.99-.74c-.75.34-1.08 1.24-.74 1.99 10.6 23.14 22.83 31.36 29.31 34.22.06.97.11 1.94.17 2.91.41 7.12 1.05 14.22 1.72 21.2.72 6.98 1.5 13.85 2.4 20.48l7.65-.89c-1.14-6.54-2.18-13.32-3.15-20.22-.93-6.9-1.83-13.92-2.5-20.95l-.18-1.85c.07-.14.13-.29.16-.46.06-.43-.06-.84-.31-1.15-.55-5.88-.98-11.76-1.31-17.56-.24-4.91-.43-9.75-.51-14.51.33.02.7.03 1.11.03 5.5-.01 18.62-2.1 35.41-18.89z" fill="#6072DF"/><path fill-rule="evenodd" clip-rule="evenodd" d="M731.48 211.931c-40.34-39.96-90.77-50.93-156.32-27.26-65.55 23.67-60.51 27.33-136.88-6.73-31.82-14.19-59.55-16.7-83.19-7.58v-.02c-.08.03-.15.07-.23.1a79.157 79.157 0 0 0-11.85 5.8c-68.8 36.29-83.01 106.17-83.01 106.17h516.14c-2.88-20.35-17.77-43.84-44.66-70.48z" fill="#4359DC"/></g><defs><clipPath id="clip0"><path fill="#fff" transform="translate(260 50)" d="M0 0h516.14v229.55H0z"/></clipPath></defs></svg>