<svg width="530" height="410" fill="none" xmlns="http://www.w3.org/2000/svg"><path opacity=".04" fill-rule="evenodd" clip-rule="evenodd" d="M418 28.39c-111.982-9.26-204.707 27.92-283.275 105.85C62.037 206.341 21.789 269.921 14 325h404" fill="#2E4BF5"/><path fill-rule="evenodd" clip-rule="evenodd" d="M91.207 145.129c1.213 2.297 1.028 4.762 1.182 7.226.077 1.233.399 2.495 1.228 3.499.751.898 1.887 1.294 2.9 1.856 2.041 1.141 3.422 3.195 3.668 5.401.291 2.693-1.167 5.036-1.581 7.622-.384 2.373 1.719 4.321 3.407 5.842 1.673 1.491 3.161 2.891 3.269 5.158.107 2.403-.261 5.005-1.596 7.089-2.241 3.469-6.737 4.29-10.789 3.727-3.667-.502-8.149-1.795-10.312-4.868-1.29-1.841-1.412-4.062-.875-6.131.338-1.293.89-2.525 1.52-3.712.444-.837.966-1.658 1.273-2.556.798-2.404-1.473-3.347-3.33-4.427-2.379-1.385-3.806-3.362-4.558-5.857-.69-2.328-.66-4.777.537-6.938.614-1.11 1.504-2.038 2.578-2.769.476-.319 1.09-.547 1.535-.897.414-.32.46-.852.445-1.324-.046-2.221-1.274-4.305-1.381-6.541-.108-2.054.721-4.367 2.823-5.234.906-.365 1.934-.395 2.9-.213 2.334.487 4.114 2.084 5.157 4.047z" fill="#6D81F8"/><path fill-rule="evenodd" clip-rule="evenodd" d="M106.502 139.277c-1.35 2.571-1.135 5.324-1.304 8.078-.092 1.369-.43 2.799-1.351 3.91-.828 1.004-2.087 1.43-3.207 2.084-2.24 1.278-3.79 3.575-4.051 6.04-.323 2.997 1.289 5.629 1.75 8.519.413 2.647-1.904 4.823-3.776 6.527-1.842 1.673-3.499 3.225-3.606 5.766-.123 2.693.276 5.598 1.764 7.926 2.486 3.879 7.443 4.792 11.924 4.168 4.067-.562 9.009-2.008 11.387-5.431 1.427-2.054 1.566-4.533.967-6.861-.368-1.445-.982-2.814-1.673-4.153-.491-.944-1.074-1.856-1.412-2.86-.874-2.678 1.627-3.743 3.684-4.96 2.624-1.537 4.204-3.758 5.033-6.542.767-2.601.737-5.34-.598-7.759-.676-1.232-1.658-2.282-2.839-3.088-.522-.365-1.213-.609-1.689-1.004-.46-.365-.506-.943-.491-1.491.046-2.495 1.397-4.823 1.52-7.318.107-2.251-.814-4.838-3.146-5.811-.998-.411-2.133-.457-3.208-.244-2.547.518-4.527 2.313-5.678 4.504z" fill="#8A9BFE"/><path fill-rule="evenodd" clip-rule="evenodd" d="M88.967 156.889c-.292 1.795-.844 3.636-.676 5.477.138 1.567 1.013 2.905 1.919 4.199 1.841 2.601 3.944 5.294 3.913 8.519-.016 1.902-.721 3.727-.568 5.629.123 1.734.645 3.514 1.412 5.112.614 1.278 1.55 2.358 2.256 3.575.215.38.522.928.307 1.339-.261.502-1.013.517-1.504.335-1.136-.426-1.903-1.674-2.502-2.587-.874-1.339-1.565-2.738-2.04-4.244-.522-1.674-.86-3.393-.783-5.142.092-1.811.66-3.591.337-5.401-.552-3.058-3.054-5.279-4.65-7.896-1.949-3.241-.782-6.572.246-9.874.568-1.825 1.197-3.879.568-5.765-.23-.716-.952-1.491-.952-2.252 0-.7.982-1.217 1.443-.502 1.903 2.875 1.81 6.268 1.274 9.478zm21.357-4.985c.291 2.038.844 4.138.675 6.222-.138 1.78-1.013 3.317-1.918 4.792-1.842 2.967-3.944 6.025-3.914 9.691.016 2.161.722 4.23.568 6.405-.123 1.978-.644 4.001-1.412 5.812-.614 1.46-1.55 2.677-2.256 4.077-.214.426-.521 1.05-.307 1.521.261.563 1.013.594 1.504.381 1.136-.487 1.903-1.902 2.502-2.952a20.918 20.918 0 0 0 2.041-4.823c.522-1.901.859-3.864.782-5.841-.092-2.054-.659-4.093-.337-6.147.552-3.468 3.054-6.009 4.65-8.976 1.979-3.697.813-7.485-.23-11.258-.568-2.069-1.197-4.412-.568-6.557.23-.821.951-1.688.951-2.571 0-.791-.982-1.384-1.442-.563-1.903 3.286-1.811 7.136-1.289 10.787z" fill="#EAEDFE"/><path fill-rule="evenodd" clip-rule="evenodd" d="M86.88 205.615h29.403l-7.919-7.318-6.783-6.572c-3.806-1.035-7.688-1.035-11.632 0-5.924 1.552-3.33 1.856-8.978 5.051-3.76 2.13-14.732 8.337-16.266 8.839H86.88z" fill="#6D81F8"/><path d="M133.931 205.024h-44.75c-1.688 0-3.069-1.369-3.069-3.042 0-1.674 1.381-3.043 3.07-3.043h44.749c1.688 0 3.069 1.369 3.069 3.043 0 1.673-1.381 3.042-3.069 3.042z" fill="#899AFE"/><path fill-rule="evenodd" clip-rule="evenodd" d="M38.732 135.511c-39.68-10.94-47.433-56.9-27.95-75.13 19.471-18.23 22.543-30.36 25.31-38.27C44.297-1.433 69.586-5.41 89.878 6.55c20.135 11.867-7.153 32.97 2.388 55.544 5.554 13.15 18.641 38.207 13.244 52.324-7.153 18.715-32.326 30.591-66.778 21.092z" fill="#6A7FF8"/><path fill-rule="evenodd" clip-rule="evenodd" d="M55.837 203.057a208.802 208.802 0 0 1-1.126-5.028c-.915-4.303-2.093-10.446-3.324-17.852-.62-3.703-1.23-7.711-1.84-11.961-.59-4.25-1.2-8.741-1.737-13.391a496.983 496.983 0 0 1-1.483-14.359c-.41-4.902-.81-9.878-1.062-14.864a375.446 375.446 0 0 1-.526-14.896c-.042-4.923-.053-9.762.136-14.443.137-4.682.453-9.205.821-13.487.19-2.135.452-4.218.673-6.227.284-1.999.568-3.934.831-5.796.337-1.852.663-3.62.968-5.302.368-1.673.726-3.25 1.063-4.744.778-2.956 1.462-5.523 2.198-7.596.642-2.093 1.326-3.681 1.757-4.775.431-1.094.663-1.673.663-1.673a.574.574 0 0 1 1.073.4l-.01.031s-.211.579-.6 1.673c-.39 1.094-1.01 2.672-1.568 4.755-.652 2.062-1.241 4.618-1.914 7.542-.285 1.483-.58 3.05-.895 4.713-.252 1.672-.505 3.43-.778 5.26-.2 1.84-.41 3.755-.631 5.743-.148 2-.347 4.05-.453 6.175-.231 4.24-.389 8.721-.368 13.36-.031 4.639.137 9.426.337 14.296.242 4.86.568 9.804 1.01 14.738.41 4.934.968 9.857 1.536 14.696.6 4.839 1.24 9.594 1.935 14.18.673 4.587 1.43 9.016 2.157 13.202a513.861 513.861 0 0 0 2.22 11.772c1.451 7.279 2.819 13.296 3.86 17.473a171.19 171.19 0 0 0 1.241 4.797l.484 1.725a3.188 3.188 0 0 1-2.24 3.934 3.214 3.214 0 0 1-3.956-2.22c-.01-.031-.02-.073-.031-.105 0-.01-.148-.62-.421-1.746z" fill="#EAEDFE"/></svg>