<svg xmlns="http://www.w3.org/2000/svg" width="251" height="162"  stroke="#000" stroke-linecap="round" stroke-linejoin="round" fill="#fff" fill-rule="evenodd"><style><![CDATA[.B{fill:#ef4e4b}.C{fill:#453541}.D{fill:#faaa3d}.E{fill:#326ab2}.F{fill:#c44041}.G{fill:#fefefe}.H{fill:#f4816b}.I{fill:#f47e3f}.J{fill:#fabfad}.K{fill:#15a163}.L{fill:#3b59a5}.M{fill:#327a50}.N{fill:#735563}.O{fill:#fcd1c1}.P{fill:#f16459}.Q{fill:#eaccb6}]]></style><g stroke="none" fill-rule="nonzero"><path d="M129 42c-10-2-20-6-28-12-13-9-39-25-64-17C2 24 2 55 11 71c9 17 73 66 156 58 74-7 89-87 49-101-34-13-46 19-87 14zm9-9c1 2-1 5-3 6-3 1-5-1-6-3-1-3 0-5 3-6 2-1 5 1 6 3zm25 103c0 2-1 3-3 3-1 0-3-1-3-3 0-1 2-2 3-2 2 0 3 1 3 2z" class="O"/><path d="M146 37c0 1-1 3-2 3-1 1-3 0-4-1 0-2 1-3 2-4 2 0 3 0 4 2zM16 85c0 2-2 3-3 3-2 0-3-1-3-3 0-1 1-2 3-2 1 0 3 1 3 2z" class="J"/><path d="M247 62c0 1-2 3-3 3-2 0-3-2-3-3 0-2 1-3 3-3 1 0 3 1 3 3z" class="O"/><path d="M211 158c0 2-37 3-82 3s-81-1-81-3 36-3 81-3 82 1 82 3z" class="J"/><path d="M111 45h0v1l1 1v3c1 1 1 2 1 3s1 2 1 3l1 2c0 1 1 2 1 3s1 2 1 2c0 1 1 2 1 2 1 1 1 2 1 2 1 1 1 1 2 1v1h5l1 1h3l4 1h2c2 0 4 3 3 5 0 2-2 3-3 3h-2c0 1-1 1-2 1h0-11l-1-1h-3c-1-1-2-1-2-1-1-1-2-1-2-2-1 0-1-1-2-1 0-1-1-1-1-2l-1-1c-1-1-1-2-2-3-1-2-1-3-2-4 0-1 0-2-1-3 0-1-1-2-1-3s-1-2-1-3 0-2-1-3v-3l-1-2v-1c0-4 2-6 5-7 3 0 6 2 6 5h0z" class="H"/><path d="M99 49c1 2 4 11 7 15l12-5s-4-10-7-16c0-1-2-3-4-4-1 0-3 0-4 1-4 1-4 5-4 7v2z" class="F"/><path d="M144 140l3 5 6-3-3-5z" class="H"/><path d="M172 146l-22 10c-1-1-1-1-1-2-1-1-2-5-2-7h-1v-1c-1-2 1-2 1-2 3 1 4-3 6-3 0 0 1 0 4 1 2 1 6 1 9 0 4 0 5 1 6 2v2z" class="B"/><g class="F"><path d="M171 145l-22 10s-1 0-1-1l23-10v1z"/><path d="M152 154l-1 1v-5c-2-2-4-3-5-3v-1c1 1 4 2 5 4s1 3 1 4zm4-11l1-1c0-1 1 0 1 0l-2 1zm-2 0v-1l1-1h1v1l-1 1h-1zm4 0c0 1 0 1 0 0l1-1-1 1zm2 1h-1c0-1 0-1 1-1l1-1v1l-1 1zm2 0h-1v-1l2-1v1l-1 1zm2 0s-1 0-1-1l2-1v1l-1 1z"/></g><path d="M130 91c-2-2-19-7-30-4-1 2-2 9 1 14 15 2 23 7 23 7s5 12 8 16c3 5 10 18 10 18l10-4s-17-42-22-47z" fill="#322b2e"/><g class="C"><path d="M141 140l11-4v-1h-1l-10 4v1z"/><path d="M143 139v-1s-2-5-7-12c-5-8-10-21-10-21h-1c0 1 5 13 10 21 5 7 7 13 7 13h1z"/></g><path d="M118 140l1 6h6v-6z" class="H"/><path d="M141 157h-25v-1c0-2 1-6 1-8v-1c0-2 2-2 2-2 2 3 5-1 6 0l3 3c2 1 5 2 8 4 4 1 5 3 5 4v1z" class="B"/><g class="F"><path d="M141 156h-25v-1h25v1z"/><path d="M119 157h-1c1-1 2-3 2-4-1-3-2-4-3-5v-1c1 1 3 3 3 6 0 1 0 3-1 4zm9-9h-1 1l1-1c1 0 1 0 1 1h-2zm-2-1v-1h2v1h-2zm3 2l2-1v1h-2zm2 1c-1 0 0 0 0 0v-1h2v1h-2zm2 1h-1v-1h3l-1 1h-1zm1 1v-1h2c0-1 0 0 0 0l-2 1z"/></g><path d="M111 43c0 2-2 7-4 16v1l-1 2v9c-1 4-1 14-1 20-7 5-23 5-34-3 0-4 1-17 1-20v-3c1-3 1-7 2-11h0l3-10c2-7 5-11 9-11 2 1 3 0 4 0h1c1-1 2-1 2-1l9 2c0 1 1 2 2 2v1c3 2 7 2 7 6z" class="B"/><g class="F"><path d="M106 61v1l-1 1v7l-2 3-3-8 5-7 1 3zm-14 3l3 7 5-6-3-8zm-8-1l3 7 5-6-3-8z"/><path d="M76 62l3 8 5-7-3-8zm-2 24v-1c-1-21 3-36 3-36 0-1 0-1 1-1v1s-4 15-3 36l-1 1zm24-45h-1v-1s1 0 1 1zm0 3h-2c0-1 1-1 1-1s1 0 1 1zm-1 4c-1 0-2-1-4-2-2-3-4-5-4-5v-1h1s1 3 3 5c3 3 7 4 10 2v1c-2 1-4 1-6 0h0zm1-10c-2 0-4-3-4-3-1 0-1 0 0 0 0 0 3 4 6 2v1h-2zm-4 44h-2c-2-1-4-2-6-4-3-2-5-5-5-6-1 0-1 0 0 0 0 0 2 3 5 6 3 2 8 5 13 4-2 1-3 1-5 0z"/></g><path d="M95 21c0 1-1 0-2 0v-2c0-1 0-1-1-2-1-2 1-4 2-4 0 0-1-3 1-4s3 0 3 0 1-2 3-2 3 2 3 2 1-1 3 0 1 2 1 2 2 0 3 2c0 2-1 3-1 3s1 0 0 2c0 2-1 2-1 3l-1 1c0 1 0 1-1 1v-4c-1-1 0-3-1-3-1-1-6 0-9-2 0 0 0 2-1 2s-1 2-1 3v2z" class="C"/><path d="M102 32v2c0 1-1 1-1 1-4 1-8-2-8-2l1-8 8 7z" class="H"/><path d="M102 32v2l-1 1c-3-2-5-6-5-6l5 2 1 1z" class="C"/><path d="M107 22s1-1 2 1c0 1-1 4-3 4l1-5z" class="P"/><path d="M107 28s-1 4-6 3c-4-1-7-5-7-5h0l1-9s1-5 5-5 7 1 8 3c1 1 1 2 1 3l-2 10z" class="H"/><path d="M100 17h0c0 1 1 1 1 1h1c1 0 1 0 1-1 0 0-2-1-3 0zm9 2h0c-1 1-1 1-2 0h-1s-1-1 0-2c0 0 2 1 3 2zm-1-4h-2c-2 1-4 0-5-1-2-2-3-1-3 0 1 1 1 2 0 3s1 1 0 2c-1 0-1 1-1 1 0 1 0 1-1 1l-1-1v-3s1-5 5-5 7 1 8 3z" class="C"/><path d="M101 22h-2s-1 0-1-1h2c1 0 1 1 1 1zm6 2c-1 0-2-1-1-1 0-1 0-1 1-1 0 1 0 1 1 1l-1 1z" class="P"/><path d="M102 21v1c-1 0-1-1-1-1 0-1 1-1 1-1v1zm5 1l-1 1v-1c0-1 0-1 1-1v1zm-3 4c-2 0-3-2-3-2 1 0 2 3 5 1v1h-2zm-8-1s-1 1-2 1h0v-1h2z" class="C"/><path d="M96 21s-2-3-3-1c-2 1-1 6 2 5l1-4z" class="H"/><g class="C"><path d="M95 24h-1c1-2-1-3-1-3s2 1 2 3c0 0 0 1 0 0h0z"/><path d="M93 23v-1h1l-1 1z"/></g><g class="G"><path d="M111 22h-3l3 1v-1zm-10-5c-2 0-3 1-4 3 0 1 1 3 3 3 1 1 3 0 3-2 1-2 0-3-2-4zm-1 7c-2-1-3-2-3-4s2-3 4-3 3 2 3 4c-1 2-2 3-4 3z"/><path d="M109 19c-2-1-3 0-4 2 0 2 1 3 3 3 1 1 3 0 3-2 1-2-1-3-2-3zm-1 6c-2-1-3-2-3-4s2-3 4-3c2 1 3 2 3 4-1 2-3 3-4 3zm-15-6h0c1-2 5 0 5 0h-1s-3-2-4 0z"/></g><path d="M103 23h1v-4l1 4s-1 1-2 0z" class="C"/><path d="M105 21c-1-1-2-1-2-1 0 1 0 0 0 0 1 0 1 0 2 1z" class="G"/><path d="M93 30s-3 0-4 3l2 4s2-2 6-2c0 0-3-2-4-5zm7 5l2-2s3 1 3 4l-3 1s-1-2-2-3z" class="F"/><path d="M70 87s-5 20 22 20c14 0 20-1 20-1s1 12 1 17l3 19h11s2-45-5-49-16-4-33-6c0 0-15-2-19 0z" class="C"/><path d="M118 138h0c-1-6-2-16-2-23-1-7-1-11-2-12h-7c-5 1-13 2-21 1-4-1-7-2-9-5-4-5-3-12-3-12h-1c0 1-1 7 3 12 2 3 6 5 10 5 8 1 16 0 21 0 3 0 6-1 7 0v3c1 2 1 5 1 8 1 7 1 17 3 23zm10 1l-12-1v1h12z" class="N"/><path d="M89 41v2l1 2v7c0 1 1 2 1 3s0 2 1 3v3c1 1 1 2 1 3 1 1 1 2 2 2 0 1 1 2 1 2h1v1h2s1 0 1 1h4l3 1h3l4 1h3c3 1 4 3 4 5s-2 4-4 4h0-11c-1 0-3-1-4-1h-4c-1 0-3-1-4-1h0-1c0-1 0-1-1-1h0c-1 0-2-1-3-2s-3-2-4-3c0-2-1-3-2-4 0-2-1-3-1-4-1-1-1-2-1-2v-2c-1-1-1-3-1-4-1-1-1-2-1-4v-4c-1-1-1-2-1-3v-4c0-3 2-6 6-6 3 0 5 2 5 5h0z" class="H"/><g class="C"><path d="M116 71s-2 5-1 9h2s-1-4 1-9h-2z"/><path d="M118 78c0 1-1 2-2 2-2 0-3-1-3-2 0-2 1-3 3-3 1 0 2 1 2 3z"/></g><path d="M116 79c-1 0-2-1-2-2s1-2 2-2 2 1 2 2-1 2-2 2z" class="G"/><path d="M91 72v-1c2-2 5-3 5-3l-5 3v1zm0-3v-1h4c-2 0-4 1-4 1h0z" class="P"/><path d="M77 42c0 3 1 12 2 17l13-3s-1-10-2-16c0-2-1-4-3-5-1-1-2-1-4-1-4 1-5 4-6 6v2z" class="B"/><path d="M78 60v-1c-2-7-2-15-2-15h0s0 8 3 15h-1v1zm13-3c-1-4-2-14-2-14h1s1 10 1 14h0z" class="F"/><path d="M72 135h35c1 0 1-1 1-1 0-1 0-2-1-2H72c-1 0-2 1-2 2 0 0 1 1 2 1z" class="I"/><g class="D"><path d="M110 158c1 0 2-1 2-1l-7-49s0-1-1-1H75c-1 0-2 1-2 1l-6 49s0 1 1 1 2 0 2-1l6-47h26l7 47c0 1 0 1 1 1z"/><path d="M95 109H77c-6 0-13-4-14-9-1-8-1-16-1-23 1-8 5-15 11-20 0 0-5 24-1 39 1 8 23 13 23 13z"/></g><path d="M144 81H99c0-2 1-3 3-3h43v3h-1z" fill="#6f3b44"/><path d="M160 56l-5 24c-1 0-1 1-2 1h-35s-1-1-1-2l6-24c0-1 0-1 1-1h35c1 0 1 1 1 2z" fill="#4c2d2e"/><path d="M156 61c0 2-2 4-4 4s-3-2-3-4c0-1 2-3 4-3s3 2 3 3z" class="D"/><path d="M152 61v-1 1zm2 0s-1 0 0 0v-1 1zm-1 2c-2 0-2-1-2-1v-1c0 1 0 2 2 2 1 0 1-1 1-2h1v1s-1 1-2 1z" class="C"/><path d="M152 79h-14l1-4h14l-1 4z" class="B"/><path d="M125 54l-6 27h-1s-1-1-1-2l6-24c0-1 0-1 1-1h1zm18 14c0 2-1 3-3 3-1 0-2-1-2-3 0-1 1-2 3-2 1 0 2 1 2 2z" fill="#6f3b44"/><path d="M194 83v2c0 1-1 2-2 2H53c-1 0-2-1-2-2v-2c0-1 1-2 2-2h139c1 0 2 1 2 2z" class="E"/><path d="M186 92H63c-3 0-5-2-5-5h133c0 3-2 5-5 5zM62 118h126v-3H62z" class="L"/><path d="M57 159l16-67h-6l-16 67zm137 0l-16-67h5l16 67z" class="E"/><path d="M51 85h143v-1H51z" class="L"/><path d="M164 79l-2 1-2-14h2z" class="D"/><path d="M162 66h-2l1-2v1z" class="H"/><path d="M164 79h-2v-1h2z" class="C"/><path d="M164 80h-2v-1h2v1z" class="B"/><path d="M162 65h-1v-1z" class="C"/><path d="M162 77h2v1h-2zm-1-11l2 10-2-10zm1 0l1 10-1-10z" class="I"/><path d="M165 79h-2V66h2z" class="K"/><path d="M165 66h-2l1-2v1z" class="H"/><path d="M165 79h-2v-1h2z" class="C"/><path d="M165 80h-2v-1h2v1z" class="B"/><path d="M165 65h-1v-1z" class="C"/><path d="M163 77h2v1h-2zm0-11v10h1V66h-1zm1 0v10-10z" class="M"/><path d="M167 80l-2-1 2-13h2z" class="E"/><path d="M168 66h-2l1-2v1z" class="H"/><path d="M167 79h-2v-1h2z" class="C"/><path d="M166 80h-2v-1h2v1z" class="B"/><path d="M168 65h-1v-1z" class="C"/><path d="M165 77h2v1h-2zm2-11l-1 10 1-10zm1 0l-2 10h1l1-10z" class="L"/><path d="M169 71v1l-1 1v1l-1 7h-7v-1l-1-9z" class="B"/><path d="M168 72v1h-9v-1zm0 2h0-9zm0 1v1h-8l-1-1zm0 2v1h-8v-1zm0 2h-8zm-1 1v1h-7v-1z" class="F"/><path d="M173 73h15v-2h-15zm15 7c-1 1-6 1-7 1h0-1s-6 1-7-1-1-4 0-5v-1c1 0 1-1 1-1h13s0 1 1 2 1 3 0 5z" class="D"/><path d="M175 78c0 2 2 3 5 3 0 0-6 1-7-2-1-1-1-3 0-4h0v-1l1-1h13s0 1 1 2h-6c-1 0-3 0-4 1-1 0-2 1-3 2z" class="I"/><path d="M185 69v1l-1 1h-8l-1-1v-1c-1-1-2-3-2-5v-1h1c1 0 2 1 2 1 1 0 0-3-1-5-2-2-2-4-1-5 2-1 3 2 4 1 1 0-2-8 2-8s2 8 2 8c1 1 2-2 4-1 1 1 1 3-1 5-1 2-2 5-1 5l2-1h1v1c0 2-1 4-2 5z" class="K"/><g class="M"><path d="M180 47v24-24z"/><path d="M180 61h0-1l-5-7 6 7zm0 10h0-1l-6-8 7 8z"/><path d="M186 54l-6 7v-1l6-6zm1 9l-7 8v-1l6-7h1z"/></g><path d="M78 79c-4 6-23 6-25 2-1-2-1-5 0-7v-1c0-2 1-3 1-3s0 2 7 1h3c8 0 18 3 14 8z" class="C"/><path d="M64 76c-1 1-3 1-6 1h0c-3-1-4-2-5-3v-1c1 1 2 3 6 3 2 1 3 0 4-1s1-2 1-4h1c0 2 0 4-1 5z" class="D"/><path d="M76 75s4 0 5-2c0-2-10 0-11-5-1-4 4-8 5-7 2 2-2 3-2 5s1 4 5 4c3 0 5 1 5 2 0 2-3 4-5 4s-2-1-2-1zm-19-6s-1-2-3-3h-1v4s3 0 4-1z" class="C"/><path d="M54 70v-3s2 1 2 2c0 0-1 1-2 1z" class="N"/><path d="M61 68s2-1 4-1c0 0 1 0 1 1l-2 3s-3-1-3-3z" class="C"/><path d="M64 70s0-1 1-2c0 0-3 0-3 1 0 0 1 1 2 1z" class="N"/><path d="M55 68s-2 1-2 4 3 3 3 3 1 1 3 2c1 0 3 0 3-1 0 0 3-1 3-3 0-3-3-6-10-5zm-2 8s1 4 2 5 2 2 3 2c2 0 2 1 1 2h-4c-2 0-3 0-4-1v-6c1-2 1-2 2-2zm14 0s-2 4-2 5c-1 1-2 2-4 2-1 0-1 2-1 2 1 1 2 0 4 0s4 0 4-1c1-2 0-4 0-6-1-1-1-2-1-2zm9-1s3-1 3 2c2 3 1 5-3 6-4 0-8 1-5-2s5-6 5-6z" class="C"/><path d="M60 73h-1c-1 0 0 1 0 1 1 1 1 0 1 0v-1zm1-1s-1 0 0 0c0 1 0 1 1 1v-1 1c-1 0-1-1-1-1zm-5 0l1 1c1 0 1 0 1-1 0 0-1 1-1 0h-1z" class="N"/><path d="M122 5h0-2 2zm2 0h0-1 1zm2 0h0-1 1zm3 0h0-2 2zm2 0h0-1 1zm2 0h0-1 1zm3 0h0-1 1zm2 0h0-1 1zm3 0h0-2 2zm2 0h0-1 1zm2 0h0-1 1zm3 0h0-1 1zm2 0h0-1 1zm2 0h0-1 1zm3 0h0-1 1zm2 0h0-1 1zm-38 2h0V6v1zm39 0h0V6v1zm-39 2h0V8v1zm39 1h0V9v1zm-39 2h0v-2 2zm39 0h0v-1 1zm-39 2h0v-1 1zm39 1h0v-1 1zm-39 1h0v-1 1zm39 1h0v-1 1zm-39 2h0v-2 2zm39 0h0v-1 1zm-39 2h0v-1 1zm39 1h0v-2 2zm-39 2h0v-1 1zm39 0h0v-1 1zm-39 2h0v-1 1zm39 1h0v-1 1zm-39 1h0v-1 1zm39 1h0v-1 1zm-39 2h0v-2 2zm39 0h0v-1 1zm-39 2h0v-1 1zm39 1h0v-1 1zm-37 0h0-1 1zm2 0h0-1 1zm3 0h0-1 1zm2 0h0-1 1zm3 0h0-2 2zm2 0h0-1 1zm2 0h0-1 1zm3 0h0-2 2zm2 0h0-1 1zm2 0h0-1 1zm3 0h0-1 1zm2 0h0-1 1zm3 0h0-2 2zm2 0h0-1 1zm2 0h0-1 1zm3 0h0-1 1zm-1-2h-35V7h35z" class="D"/><path d="M141 24h0c-4 0-7-3-7-7s3-7 7-7h0c4 0 7 3 7 7s-3 7-7 7z" fill="#fcb755"/><path d="M156 25l-8-12-11 19h19z" class="L"/><path d="M135 32h-14l14-23 14 23z" class="E"/><path d="M130 16l5 4 4-4-4-7zm14 3l4 3 4-3-4-6zm73-5v29c0 1-1 1-2 1h-49c-1 0-1 0-1-1V14c0-1 0-1 1-1h49c1 0 2 0 2 1z" class="G"/><path d="M187 30c0 3-1 5-2 6-2 2-4 3-7 3a8.96 8.96 0 0 1-9-9c0-1 0-2 1-3l8 3v-9a8.96 8.96 0 0 1 9 9z" class="E"/><path d="M176 20c-3 0-5 1-7 3 0 1-1 2-1 3l8 3v-9z" class="D"/><path d="M208 25h1v-1h-1z" class="E"/><path d="M215 24h-5 5z" class="J"/><path d="M208 23h1v-1h-1z" class="B"/><path d="M215 22h-5 5z" class="J"/><path d="M208 27h1v-1h-1z" class="D"/><path d="M215 27h-5 5zm-1 4h-6 6zm0 1h-6 6zm0 2h-6v-1h7c0 1 0 1-1 1zm0 1h-6 6zm0 1h-6 6zm0 2h-6 6zm0 1h-6 6z" class="J"/><path d="M217 13v3h-52v-3l1-1h50c1 0 1 1 1 1z" fill="#4c2d2e"/><path d="M212 15h-1c0-1 0-1 1-1v1z" class="B"/><path d="M214 15h-1c0-1 0-1 1-1v1z" class="D"/><path d="M216 15h-1c0-1 0-1 1-1v1z" class="E"/><path d="M187 30c0 3-1 5-3 6l-7-6v-9c6 0 10 4 10 9z" class="B"/><path d="M196 41h3V28h-3z" class="E"/><path d="M196 38c1-1 2-1 3-2v5h-3v-3z" class="B"/><path d="M191 40h3v-9h-3z" class="E"/><path d="M193 37h1v3h-3v-3h2z" class="B"/><path d="M201 40h3V24h-3z" class="E"/><path d="M204 33v7h-3v-6c1 0 2-1 3-1z" class="B"/><path d="M204 19l-3 1h1l-4 4-2-1-5 5v1h1l4-5 2 2 4-5 1 1 1-3z" class="D"/><path d="M69 3v7c0 1 1 2 2 2h13l4 1h1l-2-4V3c0-1-1-2-2-2H71c-1 0-2 1-2 2z" class="E"/><path d="M81 6c0 1 1 2 1 2 1 0 2-1 2-2 0 0-1-1-2-1l-1 1zm-4 0c0 1 1 2 1 2 1 0 2-1 2-2 0 0-1-1-2-1l-1 1zm-4 0c0 1 1 2 1 2 1 0 2-1 2-2 0 0-1-1-2-1l-1 1z" class="L"/><path d="M60 21v11h16V21z" class="D"/><g class="I"><path d="M60 21v1l8 7 8-7v-1l-8 7z"/><path d="M69 26l6 6h1v-1l-6-5zm-9 5v1l6-6z"/></g><path d="M76 21l-8 7-8-7z" fill="#efbc5a"/><path d="M134 50h-6c-1 0-1-1-1-1v-6c0-1 0-1 1-1h7v8h-1z" class="D"/><path d="M132 44h0v-1h-1v2c0 1-1 1-1 2l-1-1-1 1v1h2l2-2v-2z" class="G"/><path d="M145 50h-6c-1 0-1 0-1-1v-6c0-1 0-1 1-1h6c1 0 1 0 1 1v6c0 1 0 1-1 1z" class="B"/><path d="M143 45h-1c0 1 0 1 1 1v-1zm2 0c0 1 0 2-1 2s-1 0-1-1c0 1 0 1-1 1 0 0-1-1-1-2l1-1h2v1c0-1 0-1-1-1s-2 0-2 1 1 2 2 2h1v1h-1c-2 0-3-1-3-3 0-1 1-2 3-2 1 0 2 1 2 2z" class="G"/><path d="M156 50h-6c-1 0-1 0-1-1v-6c0-1 0-1 1-1h6c1 0 1 0 1 1v6c0 1 0 1-1 1z" class="E"/><path d="M153 47v1h-1v-1h-1v-1h2s-2 0-2-1 0-1 1-1v-1h1v1h1v1c-1 0-1-1-1-1-1 0-1 1-1 1s2 0 2 1 0 1-1 1z" class="G"/><path d="M24 20c0 6 5 12 11 12s12-6 12-12S41 9 35 9s-11 5-11 11z" class="J"/><path d="M24 19c0 6 5 12 11 12s12-6 12-12S41 8 35 8s-11 5-11 11z" class="B"/><path d="M35 28a8.96 8.96 0 0 0 9-9 8.96 8.96 0 0 0-9-9 8.96 8.96 0 0 0-9 9 8.96 8.96 0 0 0 9 9z" class="G"/><path d="M26 19v1a8.96 8.96 0 0 1 9-9 8.96 8.96 0 0 1 9 9v-1a8.96 8.96 0 0 0-9-9 8.96 8.96 0 0 0-9 9z" class="O"/><path d="M35 20l1-1 4-6-5 6-5-2 5 2v1z" class="C"/><path d="M47 159s-9 1-19 1c-11 0-20-1-20-1 0-1 9-2 20-2 10 0 19 1 19 2z" class="J"/><path d="M42 152l3-46H10l3 46z" class="B"/><path d="M45 111l-35 2v-4h35z" class="F"/><path d="M46 109H9c-1 0-1 0-1-1v-2c0-1 0-1 1-1h37c1 0 1 0 1 1v2c0 1 0 1-1 1z" fill="#f05b55"/><path d="M41 116l-1 15H15l-1-15z" class="F"/><path d="M29 124c0 1-1 2-2 2 0 0-1-1-1-2l1-1c1 0 2 1 2 1z" class="B"/><path d="M40 135l-1 14H16l-1-14z" class="F"/><path d="M29 142c0 1-1 2-2 2 0 0-1-1-1-2l1-1c1 0 2 1 2 1z" class="B"/><path d="M24 152h0c-4 0-7 2-8 6v1h-3v-7h11zm7 0h0c4 0 7 2 8 6v1h3v-7H31z" class="F"/><path d="M20 82s-3 1-6-4c-3-3-7-10-13-10 0 0 7-3 13 0 7 4 10 12 6 14z" class="K"/><path d="M22 95h0v-1s0-4-1-9c-1-4-3-10-7-13 2 1 4 3 5 6 1 2 2 4 2 7 1 5 1 9 1 9v1z" class="M"/><path d="M23 72s3 0 4-6c0-4 1-12 6-15 0 0-8 1-12 7-3 5-2 14 2 14z" class="K"/><path d="M27 95s-2-6-3-13c-1-4-2-7-2-11s0-7 1-10h1c-3 6-1 15 0 21 1 7 3 13 3 13h0z" class="M"/><path d="M28 75s3 0 6-5c2-3 5-11 11-11 0 0-7-3-13 1s-8 13-4 15z" class="K"/><path d="M28 95s-1-6-1-12c0-4 0-7 1-10 1-4 2-7 4-9-4 5-5 13-5 19s1 11 1 12h0z" class="M"/><path d="M33 82s3 1 7-3c3-3 7-9 13-9 0 0-6-4-13-1-6 3-10 11-7 13z" class="K"/><path d="M30 95s0-4 1-8c1-3 2-5 3-7 1-3 3-5 5-7h1c-5 4-8 10-9 14s-1 8-1 8h0z" class="M"/><path d="M40 99v1c0 2-2 4-4 4-6 1-11 1-17 0-3 0-5-2-5-5v-1c0-1 1-3 2-4h22c2 2 2 3 2 5z" class="D"/><path d="M28 101c-7 0-11-2-14-3 3 1 7 2 14 2 5 0 9 0 12-1 0-1 0 0 1 0h-1c-3 1-7 2-12 2z" class="I"/><path d="M234 77h3V50h-3z" fill="#faab49"/><path d="M237 51v2l-3 1v-3z" fill="#f58448"/><path d="M249 51c-9 2-19 2-28 0l7-18c5-1 10-1 15 0l6 18z" class="E"/><g class="L"><path d="M235 49h-13v-1c9 1 17 1 26 0h1s0 1-1 1h-13z"/><path d="M225 49h0l4-16v-1h1v1l-4 16h-1zm19 0l-4-16v-1 1l4 16zm-9 1h-1V32h1v18zm6 25v2h-13v-2l7-2z"/></g><path d="M226 74h1v-1h-18s-1 0-1 1c-1 0-1 1-1 1 0 1 1 2 2 2h17v-3z" class="K"/><path d="M227 73v3h-17s-1-1-1-2v-1h18z" class="G"/><path d="M226 74h0-16 16zm0 1v1h-16v-1h16z" class="Q"/><path d="M224 69h1v-1h-18s-1 0-1 1c-1 0-1 1-1 1 0 1 1 2 2 2h17v-3z" class="B"/><path d="M225 69v3h-17s-1-1-1-2v-1h18z" class="G"/><path d="M225 70h0-16 16zm0 1v1h-16v-1h16z" class="Q"/><path d="M227 65h1v-1h-18s-1 0-1 1c-1 0-1 1-1 1 0 1 1 2 2 2h17v-3z" class="E"/><path d="M228 65v3h-17s-1-1-1-2v-1h18z" class="G"/><path d="M228 66h0-16 16zm0 1v1h-16v-1h16z" class="Q"/><path d="M251 158c0 1-11 2-24 2-14 0-25-1-25-2s11-2 25-2c13 0 24 1 24 2z" class="J"/><path d="M248 79l-5 80h-33l-5-80z" class="D"/><path d="M248 84l-43 2v-4h43z" class="I"/><path d="M249 82h-46c-1 0-1-1-1-1v-3c0-1 0-1 1-1h46c1 0 1 0 1 1v3s0 1-1 1z" fill="#efbc5a"/><path d="M243 91l-1 19h-31l-1-19z" class="I"/><path d="M228 101l-1 1c-1 0-2-1-2-1 0-1 1-2 2-2 0 0 1 1 1 2z" class="D"/><path d="M242 114l-1 17h-29l-1-17z" class="I"/><path d="M228 123l-1 1c-1 0-2-1-2-1 0-1 1-2 2-2 0 0 1 1 1 2z" class="D"/><path d="M240 135l-1 16h-26l-1-16z" class="I"/><path d="M228 143l-1 1c-1 0-2-1-2-1 0-1 1-2 2-2 0 0 1 1 1 2z" class="D"/></g></svg>