<?xml version="1.0" encoding="UTF-8"?>
<!DOCTYPE svg PUBLIC "-//W3C//DTD SVG 1.1//EN" "http://www.w3.org/Graphics/SVG/1.1/DTD/svg11.dtd">
<!-- Creator: CorelDRAW 2020 (64-Bit Evaluation Version) -->
<svg xmlns="http://www.w3.org/2000/svg" xml:space="preserve" width="214.077mm" height="153.762mm" version="1.1" style="shape-rendering:geometricPrecision; text-rendering:geometricPrecision; image-rendering:optimizeQuality; fill-rule:evenodd; clip-rule:evenodd"
viewBox="0 0 6700.82 4812.9"
 xmlns:xlink="http://www.w3.org/1999/xlink"
 xmlns:xodm="http://www.corel.com/coreldraw/odm/2003">
 <defs>
  <style type="text/css">
   <![CDATA[
    .fil9 {fill:#FEFEFE;fill-rule:nonzero}
    .fil5 {fill:#FEC240;fill-rule:nonzero}
    .fil12 {fill:#F6A29D;fill-rule:nonzero}
    .fil6 {fill:#F59284;fill-rule:nonzero}
    .fil11 {fill:#F37565;fill-rule:nonzero}
    .fil8 {fill:#ECF4FB;fill-rule:nonzero}
    .fil1 {fill:#E1E0E4;fill-rule:nonzero}
    .fil3 {fill:#CFD0E9;fill-rule:nonzero}
    .fil2 {fill:#9FA1CF;fill-rule:nonzero}
    .fil7 {fill:#2CBCAF;fill-rule:nonzero}
    .fil10 {fill:#4C5AA6;fill-rule:nonzero}
    .fil0 {fill:#2B2C42;fill-rule:nonzero}
    .fil4 {fill:#EF4F4C;fill-rule:nonzero}
   ]]>
  </style>
    <clipPath id="id0" style="clip-rule:nonzero">
     <path d="M304.91 1799.34l0 -503.64 513.51 503.64 -513.51 0z"/>
    </clipPath>
    <clipPath id="id1" style="clip-rule:nonzero">
     <path d="M5910.9 725.43c0,62.06 -50.32,112.37 -112.38,112.37 -62.06,0 -112.36,-50.31 -112.36,-112.37 0,-62.07 50.31,-112.38 112.36,-112.38 62.06,0 112.38,50.31 112.38,112.38z"/>
    </clipPath>
    <clipPath id="id2" style="clip-rule:nonzero">
     <path d="M6464.58 1158.72c0,55.31 -14.32,107.24 -39.39,152.33l-548.87 0c-25.08,-45.09 -39.4,-97.02 -39.4,-152.33 0,-173.4 140.53,-313.93 313.82,-313.93 173.41,0 313.83,140.53 313.83,313.93z"/>
    </clipPath>
 </defs>
 <g id="Layer_x0020_1">
  <metadata id="CorelCorpID_0Corel-Layer"/>
  <path class="fil0" d="M489.91 4118.01l6101.05 0c3.06,0 5.52,-2.47 5.52,-5.52 0,-3.05 -2.46,-5.52 -5.52,-5.52l-6101.05 0c-3.05,0 -5.52,2.47 -5.52,5.52 0,3.05 2.47,5.52 5.52,5.52z"/>
  <path class="fil1" d="M5750.71 4388.88c-211.02,0 -382.21,-36.02 -382.21,-80.6 0,-44.45 171.19,-80.49 382.21,-80.49 211.12,0 382.31,36.04 382.31,80.49 0,44.58 -171.19,80.6 -382.31,80.6z"/>
  <path class="fil2" d="M4333.51 213.08l0 0c10.18,15.26 25.93,26.89 45.07,26.89l0 0c18.66,0 34.65,-11.63 44.82,-26.89l0 0c10.42,-15.51 16.24,-35.86 16.24,-57.91l0 0c0,-22.29 -5.82,-42.4 -16.24,-57.91l0 0c-10.18,-15.51 -26.17,-26.9 -44.82,-26.9l0 0c-19.14,0 -34.89,11.39 -45.07,26.9l0 0c-10.66,15.51 -16.23,35.62 -16.47,57.91l0 0c0.24,22.05 5.81,42.4 16.47,57.91zm67.6 -15.02l0 0c-7.03,10.42 -15.02,15.02 -22.53,15.02l0 0c-7.51,0 -15.75,-4.6 -23.02,-15.02l0 0c-6.79,-10.18 -11.63,-25.68 -11.63,-42.89l0 0c0,-17.45 4.85,-32.71 11.63,-43.13l0 0c7.27,-10.18 15.51,-15.02 23.02,-14.78l0 0c7.51,-0.24 15.51,4.6 22.53,14.78l0 0c6.78,10.42 11.63,25.68 11.63,43.13l0 0c0,17.2 -4.85,32.71 -11.63,42.89zm137.14 -115.09c-0.49,-0.49 -0.49,-0.97 -0.49,-1.7 0,-0.24 -0.24,-0.73 -0.24,-1.21 -0.24,-0.24 -0.24,-0.73 -0.49,-1.21 0,-0.49 -0.24,-0.73 -0.49,-1.21 0,-0.24 -0.24,-0.49 -0.24,-0.73 0,0 -0.24,-0.49 -0.24,-0.49 -0.24,-0.24 -0.73,-0.73 -0.97,-0.97 -0.24,-0.49 -0.49,-0.73 -0.73,-0.97 -0.24,-0.24 -0.49,-0.73 -0.97,-0.97 -0.24,-0.24 -0.73,-0.49 -0.97,-0.73 -0.49,-0.24 -0.73,-0.48 -0.97,-0.73 -0.48,0 -0.73,-0.24 -1.45,-0.73 -0.24,-0.24 -0.73,-0.24 -0.97,-0.24 -0.49,-0.24 -0.73,-0.48 -1.45,-0.48 -0.24,0 -0.73,0 -0.97,-0.24 -0.49,0 -0.97,0 -1.7,0 0,0 -0.24,0 -0.24,0 -0.24,0 -0.49,0 -0.73,0 -0.49,0 -1.21,0 -1.7,0.24 -0.24,0 -0.73,0 -0.97,0.24 -0.49,0 -0.97,0.24 -1.45,0.24 -0.49,0.24 -0.73,0.73 -1.21,0.73 -0.24,0.24 -0.73,0.24 -0.97,0.49l-29.8 17.69c-6.3,3.64 -8.48,12.12 -4.36,18.17 2.42,4.36 6.79,6.79 11.39,6.79 2.18,0 4.6,-0.49 6.78,-1.94l9.69 -5.57 0 119.21c0,7.51 5.82,13.33 13.33,13.33 7.27,0 13.57,-5.82 13.57,-13.33l0 -142.95c0,-0.24 0,-0.49 0,-0.73zm81.17 0c-0.49,-0.49 -0.49,-0.97 -0.49,-1.7 0,-0.24 -0.24,-0.73 -0.24,-1.21 -0.24,-0.24 -0.24,-0.73 -0.49,-1.21 0,-0.49 -0.24,-0.73 -0.49,-1.21 0,-0.24 -0.24,-0.49 -0.24,-0.73 0,0 -0.24,-0.49 -0.24,-0.49 -0.24,-0.24 -0.73,-0.73 -0.97,-0.97 -0.24,-0.49 -0.49,-0.73 -0.73,-0.97 -0.24,-0.24 -0.49,-0.73 -0.97,-0.97 -0.24,-0.24 -0.73,-0.49 -0.97,-0.73 -0.49,-0.24 -0.73,-0.48 -0.97,-0.73 -0.48,0 -0.73,-0.24 -1.45,-0.73 -0.24,-0.24 -0.73,-0.24 -0.97,-0.24 -0.49,-0.24 -0.73,-0.48 -1.45,-0.48 -0.24,0 -0.73,0 -0.97,-0.24 -0.49,0 -0.97,0 -1.7,0 0,0 -0.24,0 -0.24,0 -0.24,0 -0.49,0 -0.73,0 -0.49,0 -1.21,0 -1.7,0.24 -0.24,0 -0.73,0 -0.97,0.24 -0.49,0 -0.97,0.24 -1.45,0.24 -0.49,0.24 -0.73,0.73 -1.21,0.73 -0.24,0.24 -0.73,0.24 -0.97,0.49l-29.8 17.69c-6.3,3.64 -8.48,12.12 -4.36,18.17 2.42,4.36 6.79,6.79 11.39,6.79 2.18,0 4.6,-0.49 6.78,-1.94l9.69 -5.57 0 119.21c0,7.51 5.82,13.33 13.33,13.33 7.27,0 13.57,-5.82 13.57,-13.33l0 -142.95c0,-0.24 0,-0.49 0,-0.73zm81.17 0c-0.49,-0.49 -0.49,-0.97 -0.49,-1.7 0,-0.24 -0.24,-0.73 -0.24,-1.21 -0.24,-0.24 -0.24,-0.73 -0.49,-1.21 0,-0.49 -0.24,-0.73 -0.49,-1.21 0,-0.24 -0.24,-0.49 -0.24,-0.73 0,0 -0.24,-0.49 -0.24,-0.49 -0.24,-0.24 -0.73,-0.73 -0.97,-0.97 -0.24,-0.49 -0.49,-0.73 -0.73,-0.97 -0.24,-0.24 -0.49,-0.73 -0.97,-0.97 -0.24,-0.24 -0.73,-0.49 -0.97,-0.73 -0.49,-0.24 -0.73,-0.48 -0.97,-0.73 -0.48,0 -0.73,-0.24 -1.45,-0.73 -0.24,-0.24 -0.73,-0.24 -0.97,-0.24 -0.49,-0.24 -0.73,-0.48 -1.45,-0.48 -0.24,0 -0.73,0 -0.97,-0.24 -0.49,0 -0.97,0 -1.7,0 0,0 -0.24,0 -0.24,0 -0.24,0 -0.49,0 -0.73,0 -0.49,0 -1.21,0 -1.7,0.24 -0.24,0 -0.73,0 -0.97,0.24 -0.49,0 -0.97,0.24 -1.45,0.24 -0.49,0.24 -0.73,0.73 -1.21,0.73 -0.24,0.24 -0.73,0.24 -0.97,0.49l-29.8 17.69c-6.3,3.64 -8.48,12.12 -4.36,18.17 2.42,4.36 6.79,6.79 11.39,6.79 2.18,0 4.6,-0.49 6.78,-1.94l9.69 -5.57 0 119.21c0,7.51 5.82,13.33 13.33,13.33 7.27,0 13.57,-5.82 13.57,-13.33l0 -142.95c0,-0.24 0,-0.49 0,-0.73zm47.25 130.11l0 0c10.18,15.26 25.93,26.89 45.07,26.89l0 0c18.66,0 34.65,-11.63 44.82,-26.89l0 0c10.42,-15.51 16.24,-35.86 16.24,-57.91l0 0c0,-22.29 -5.82,-42.4 -16.24,-57.91l0 0c-10.18,-15.51 -26.17,-26.9 -44.82,-26.9l0 0c-19.14,0 -34.89,11.39 -45.07,26.9l0 0c-10.66,15.51 -16.23,35.62 -16.47,57.91l0 0c0.24,22.05 5.81,42.4 16.47,57.91zm67.6 -15.02l0 0c-7.03,10.42 -15.02,15.02 -22.53,15.02l0 0c-7.51,0 -15.75,-4.6 -23.02,-15.02l0 0c-6.79,-10.18 -11.63,-25.68 -11.63,-42.89l0 0c0,-17.45 4.85,-32.71 11.63,-43.13l0 0c7.27,-10.18 15.51,-15.02 23.02,-14.78l0 0c7.51,-0.24 15.51,4.6 22.53,14.78l0 0c6.78,10.42 11.63,25.68 11.63,43.13l0 0c0,17.2 -4.85,32.71 -11.63,42.89zm104.43 15.02l0 0c10.18,15.26 25.93,26.89 45.07,26.89l0 0c18.66,0 34.65,-11.63 44.82,-26.89l0 0c10.42,-15.51 16.24,-35.86 16.24,-57.91l0 0c0,-22.29 -5.82,-42.4 -16.24,-57.91l0 0c-10.18,-15.51 -26.17,-26.9 -44.82,-26.9l0 0c-19.14,0 -34.89,11.39 -45.07,26.9l0 0c-10.66,15.51 -16.23,35.62 -16.47,57.91l0 0c0.24,22.05 5.81,42.4 16.47,57.91zm67.6 -15.02l0 0c-7.03,10.42 -15.02,15.02 -22.53,15.02l0 0c-7.51,0 -15.75,-4.6 -23.02,-15.02l0 0c-6.79,-10.18 -11.63,-25.68 -11.63,-42.89l0 0c0,-17.45 4.85,-32.71 11.63,-43.13l0 0c7.27,-10.18 15.51,-15.02 23.02,-14.78l0 0c7.51,-0.24 15.51,4.6 22.53,14.78l0 0c6.78,10.42 11.63,25.68 11.63,43.13l0 0c0,17.2 -4.85,32.71 -11.63,42.89zm104.44 15.02l0 0c10.18,15.26 25.93,26.89 45.07,26.89l0 0c18.66,0 34.65,-11.63 44.82,-26.89l0 0c10.42,-15.51 16.24,-35.86 16.24,-57.91l0 0c0,-22.29 -5.82,-42.4 -16.24,-57.91l0 0c-10.18,-15.51 -26.17,-26.9 -44.82,-26.9l0 0c-19.14,0 -34.89,11.39 -45.07,26.9l0 0c-10.66,15.51 -16.23,35.62 -16.47,57.91l0 0c0.24,22.05 5.81,42.4 16.47,57.91zm67.6 -15.02l0 0c-7.03,10.42 -15.02,15.02 -22.53,15.02l0 0c-7.51,0 -15.75,-4.6 -23.02,-15.02l0 0c-6.79,-10.18 -11.63,-25.68 -11.63,-42.89l0 0c0,-17.45 4.85,-32.71 11.63,-43.13l0 0c7.27,-10.18 15.51,-15.02 23.02,-14.78l0 0c7.51,-0.24 15.51,4.6 22.53,14.78l0 0c6.78,10.42 11.63,25.68 11.63,43.13l0 0c0,17.2 -4.85,32.71 -11.63,42.89zm137.14 -115.09c-0.49,-0.49 -0.49,-0.97 -0.49,-1.7 0,-0.24 -0.24,-0.73 -0.24,-1.21 -0.24,-0.24 -0.24,-0.73 -0.49,-1.21 0,-0.49 -0.24,-0.73 -0.49,-1.21 0,-0.24 -0.24,-0.49 -0.24,-0.73 0,0 -0.24,-0.49 -0.24,-0.49 -0.24,-0.24 -0.73,-0.73 -0.97,-0.97 -0.24,-0.49 -0.49,-0.73 -0.73,-0.97 -0.24,-0.24 -0.49,-0.73 -0.97,-0.97 -0.24,-0.24 -0.73,-0.49 -0.97,-0.73 -0.49,-0.24 -0.73,-0.48 -0.97,-0.73 -0.48,0 -0.73,-0.24 -1.45,-0.73 -0.24,-0.24 -0.73,-0.24 -0.97,-0.24 -0.49,-0.24 -0.73,-0.48 -1.45,-0.48 -0.24,0 -0.73,0 -0.97,-0.24 -0.49,0 -0.97,0 -1.7,0 0,0 -0.24,0 -0.24,0 -0.24,0 -0.49,0 -0.73,0 -0.49,0 -1.21,0 -1.7,0.24 -0.24,0 -0.73,0 -0.97,0.24 -0.49,0 -0.97,0.24 -1.45,0.24 -0.49,0.24 -0.73,0.73 -1.21,0.73 -0.24,0.24 -0.73,0.24 -0.97,0.49l-29.8 17.69c-6.3,3.64 -8.48,12.12 -4.36,18.17 2.42,4.36 6.79,6.79 11.39,6.79 2.18,0 4.6,-0.49 6.78,-1.94l9.69 -5.57 0 119.21c0,7.51 5.82,13.33 13.33,13.33 7.27,0 13.57,-5.82 13.57,-13.33l0 -142.95c0,-0.24 0,-0.49 0,-0.73zm47.25 130.11l0 0c10.18,15.26 25.93,26.89 45.07,26.89l0 0c18.66,0 34.65,-11.63 44.82,-26.89l0 0c10.42,-15.51 16.24,-35.86 16.24,-57.91l0 0c0,-22.29 -5.82,-42.4 -16.24,-57.91l0 0c-10.18,-15.51 -26.17,-26.9 -44.82,-26.9l0 0c-19.14,0 -34.89,11.39 -45.07,26.9l0 0c-10.66,15.51 -16.23,35.62 -16.47,57.91l0 0c0.24,22.05 5.81,42.4 16.47,57.91zm67.6 -15.02l0 0c-7.03,10.42 -15.02,15.02 -22.53,15.02l0 0c-7.51,0 -15.75,-4.6 -23.02,-15.02l0 0c-6.79,-10.18 -11.63,-25.68 -11.63,-42.89l0 0c0,-17.45 4.85,-32.71 11.63,-43.13l0 0c7.27,-10.18 15.51,-15.02 23.02,-14.78l0 0c7.51,-0.24 15.51,4.6 22.53,14.78l0 0c6.78,10.42 11.63,25.68 11.63,43.13l0 0c0,17.2 -4.85,32.71 -11.63,42.89z"/>
  <path class="fil2" d="M4368.05 373.72c-0.49,-0.49 -0.49,-0.97 -0.49,-1.7 0,-0.24 -0.24,-0.73 -0.24,-1.21 -0.24,-0.24 -0.24,-0.73 -0.49,-1.21 0,-0.49 -0.24,-0.73 -0.49,-1.21 0,-0.24 -0.24,-0.49 -0.24,-0.73 0,0 -0.24,-0.49 -0.24,-0.49 -0.24,-0.24 -0.73,-0.73 -0.97,-0.97 -0.24,-0.49 -0.49,-0.73 -0.73,-0.97 -0.24,-0.24 -0.49,-0.73 -0.97,-0.97 -0.24,-0.24 -0.73,-0.49 -0.97,-0.73 -0.49,-0.24 -0.73,-0.48 -0.97,-0.73 -0.48,0 -0.73,-0.24 -1.45,-0.73 -0.24,-0.24 -0.73,-0.24 -0.97,-0.24 -0.49,-0.24 -0.73,-0.48 -1.45,-0.48 -0.24,0 -0.73,0 -0.97,-0.24 -0.49,0 -0.97,0 -1.7,0 0,0 -0.24,0 -0.24,0 -0.24,0 -0.49,0 -0.73,0 -0.49,0 -1.21,0 -1.7,0.24 -0.24,0 -0.73,0 -0.97,0.24 -0.49,0 -0.97,0.24 -1.45,0.24 -0.49,0.24 -0.73,0.73 -1.21,0.73 -0.24,0.24 -0.73,0.24 -0.97,0.49l-29.8 17.69c-6.3,3.64 -8.48,12.12 -4.36,18.17 2.42,4.36 6.79,6.79 11.39,6.79 2.18,0 4.6,-0.49 6.78,-1.94l9.69 -5.57 0 119.21c0,7.51 5.82,13.33 13.33,13.33 7.27,0 13.57,-5.82 13.57,-13.33l0 -142.95c0,-0.24 0,-0.49 0,-0.73zm47.25 130.11l0 0c10.18,15.26 25.93,26.89 45.07,26.89l0 0c18.66,0 34.65,-11.63 44.82,-26.89l0 0c10.42,-15.51 16.24,-35.86 16.24,-57.91l0 0c0,-22.29 -5.82,-42.4 -16.24,-57.91l0 0c-10.18,-15.51 -26.17,-26.9 -44.82,-26.9l0 0c-19.14,0 -34.89,11.39 -45.07,26.9l0 0c-10.66,15.51 -16.23,35.62 -16.47,57.91l0 0c0.24,22.05 5.81,42.4 16.47,57.91zm67.6 -15.02l0 0c-7.03,10.42 -15.02,15.02 -22.53,15.02l0 0c-7.51,0 -15.75,-4.6 -23.02,-15.02l0 0c-6.79,-10.18 -11.63,-25.68 -11.63,-42.89l0 0c0,-17.45 4.85,-32.71 11.63,-43.13l0 0c7.27,-10.18 15.51,-15.02 23.02,-14.78l0 0c7.51,-0.24 15.51,4.6 22.53,14.78l0 0c6.78,10.42 11.63,25.68 11.63,43.13l0 0c0,17.2 -4.85,32.71 -11.63,42.89zm137.14 -115.09c-0.49,-0.49 -0.49,-0.97 -0.49,-1.7 0,-0.24 -0.24,-0.73 -0.24,-1.21 -0.24,-0.24 -0.24,-0.73 -0.49,-1.21 0,-0.49 -0.24,-0.73 -0.49,-1.21 0,-0.24 -0.24,-0.49 -0.24,-0.73 0,0 -0.24,-0.49 -0.24,-0.49 -0.24,-0.24 -0.73,-0.73 -0.97,-0.97 -0.24,-0.49 -0.49,-0.73 -0.73,-0.97 -0.24,-0.24 -0.49,-0.73 -0.97,-0.97 -0.24,-0.24 -0.73,-0.49 -0.97,-0.73 -0.49,-0.24 -0.73,-0.48 -0.97,-0.73 -0.48,0 -0.73,-0.24 -1.45,-0.73 -0.24,-0.24 -0.73,-0.24 -0.97,-0.24 -0.49,-0.24 -0.73,-0.48 -1.45,-0.48 -0.24,0 -0.73,0 -0.97,-0.24 -0.49,0 -0.97,0 -1.7,0 0,0 -0.24,0 -0.24,0 -0.24,0 -0.49,0 -0.73,0 -0.49,0 -1.21,0 -1.7,0.24 -0.24,0 -0.73,0 -0.97,0.24 -0.49,0 -0.97,0.24 -1.45,0.24 -0.49,0.24 -0.73,0.73 -1.21,0.73 -0.24,0.24 -0.73,0.24 -0.97,0.49l-29.8 17.69c-6.3,3.64 -8.48,12.12 -4.36,18.17 2.42,4.36 6.79,6.79 11.39,6.79 2.18,0 4.6,-0.49 6.78,-1.94l9.69 -5.57 0 119.21c0,7.51 5.82,13.33 13.33,13.33 7.27,0 13.57,-5.82 13.57,-13.33l0 -142.95c0,-0.24 0,-0.49 0,-0.73zm47.25 130.11l0 0c10.18,15.26 25.93,26.89 45.07,26.89l0 0c18.66,0 34.65,-11.63 44.82,-26.89l0 0c10.42,-15.51 16.24,-35.86 16.24,-57.91l0 0c0,-22.29 -5.82,-42.4 -16.24,-57.91l0 0c-10.18,-15.51 -26.17,-26.9 -44.82,-26.9l0 0c-19.14,0 -34.89,11.39 -45.07,26.9l0 0c-10.66,15.51 -16.23,35.62 -16.47,57.91l0 0c0.24,22.05 5.81,42.4 16.47,57.91zm67.6 -15.02l0 0c-7.03,10.42 -15.02,15.02 -22.53,15.02l0 0c-7.51,0 -15.75,-4.6 -23.02,-15.02l0 0c-6.79,-10.18 -11.63,-25.68 -11.63,-42.89l0 0c0,-17.45 4.85,-32.71 11.63,-43.13l0 0c7.27,-10.18 15.51,-15.02 23.02,-14.78l0 0c7.51,-0.24 15.51,4.6 22.53,14.78l0 0c6.78,10.42 11.63,25.68 11.63,43.13l0 0c0,17.2 -4.85,32.71 -11.63,42.89zm104.43 15.02l0 0c10.18,15.26 25.93,26.89 45.07,26.89l0 0c18.66,0 34.65,-11.63 44.82,-26.89l0 0c10.42,-15.51 16.24,-35.86 16.24,-57.91l0 0c0,-22.29 -5.82,-42.4 -16.24,-57.91l0 0c-10.18,-15.51 -26.17,-26.9 -44.82,-26.9l0 0c-19.14,0 -34.89,11.39 -45.07,26.9l0 0c-10.66,15.51 -16.23,35.62 -16.47,57.91l0 0c0.24,22.05 5.81,42.4 16.47,57.91zm67.6 -15.02l0 0c-7.03,10.42 -15.02,15.02 -22.53,15.02l0 0c-7.51,0 -15.75,-4.6 -23.02,-15.02l0 0c-6.79,-10.18 -11.63,-25.68 -11.63,-42.89l0 0c0,-17.45 4.85,-32.71 11.63,-43.13l0 0c7.27,-10.18 15.51,-15.02 23.02,-14.78l0 0c7.51,-0.24 15.51,4.6 22.53,14.78l0 0c6.78,10.42 11.63,25.68 11.63,43.13l0 0c0,17.2 -4.85,32.71 -11.63,42.89zm104.43 15.02l0 0c10.18,15.26 25.93,26.89 45.07,26.89l0 0c18.66,0 34.65,-11.63 44.82,-26.89l0 0c10.42,-15.51 16.24,-35.86 16.24,-57.91l0 0c0,-22.29 -5.82,-42.4 -16.24,-57.91l0 0c-10.18,-15.51 -26.17,-26.9 -44.82,-26.9l0 0c-19.14,0 -34.89,11.39 -45.07,26.9l0 0c-10.66,15.51 -16.23,35.62 -16.47,57.91l0 0c0.24,22.05 5.81,42.4 16.47,57.91zm67.6 -15.02l0 0c-7.03,10.42 -15.02,15.02 -22.53,15.02l0 0c-7.51,0 -15.75,-4.6 -23.02,-15.02l0 0c-6.79,-10.18 -11.63,-25.68 -11.63,-42.89l0 0c0,-17.45 4.85,-32.71 11.63,-43.13l0 0c7.27,-10.18 15.51,-15.02 23.02,-14.78l0 0c7.51,-0.24 15.51,4.6 22.53,14.78l0 0c6.78,10.42 11.63,25.68 11.63,43.13l0 0c0,17.2 -4.85,32.71 -11.63,42.89zm138.35 -115.09c-0.49,-0.49 -0.49,-0.97 -0.49,-1.7 0,-0.24 -0.24,-0.73 -0.24,-1.21 -0.24,-0.24 -0.24,-0.73 -0.49,-1.21 0,-0.49 -0.24,-0.73 -0.49,-1.21 0,-0.24 -0.24,-0.49 -0.24,-0.73 0,0 -0.24,-0.49 -0.24,-0.49 -0.24,-0.24 -0.73,-0.73 -0.97,-0.97 -0.24,-0.49 -0.49,-0.73 -0.73,-0.97 -0.24,-0.24 -0.49,-0.73 -0.97,-0.97 -0.24,-0.24 -0.73,-0.49 -0.97,-0.73 -0.49,-0.24 -0.73,-0.48 -0.97,-0.73 -0.48,0 -0.73,-0.24 -1.45,-0.73 -0.24,-0.24 -0.73,-0.24 -0.97,-0.24 -0.49,-0.24 -0.73,-0.48 -1.45,-0.48 -0.24,0 -0.73,0 -0.97,-0.24 -0.49,0 -0.97,0 -1.7,0 0,0 -0.24,0 -0.24,0 -0.24,0 -0.49,0 -0.73,0 -0.49,0 -1.21,0 -1.7,0.24 -0.24,0 -0.73,0 -0.97,0.24 -0.49,0 -0.97,0.24 -1.45,0.24 -0.49,0.24 -0.73,0.73 -1.21,0.73 -0.24,0.24 -0.73,0.24 -0.97,0.49l-29.8 17.69c-6.3,3.64 -8.48,12.12 -4.36,18.17 2.42,4.36 6.79,6.79 11.39,6.79 2.18,0 4.6,-0.49 6.78,-1.94l9.69 -5.57 0 119.21c0,7.51 5.82,13.33 13.33,13.33 7.27,0 13.57,-5.82 13.57,-13.33l0 -142.95c0,-0.24 0,-0.49 0,-0.73zm47.25 130.11l0 0c10.18,15.26 25.93,26.89 45.07,26.89l0 0c18.66,0 34.65,-11.63 44.82,-26.89l0 0c10.42,-15.51 16.24,-35.86 16.24,-57.91l0 0c0,-22.29 -5.82,-42.4 -16.24,-57.91l0 0c-10.18,-15.51 -26.17,-26.9 -44.82,-26.9l0 0c-19.14,0 -34.89,11.39 -45.07,26.9l0 0c-10.66,15.51 -16.23,35.62 -16.47,57.91l0 0c0.24,22.05 5.81,42.4 16.47,57.91zm67.6 -15.02l0 0c-7.03,10.42 -15.02,15.02 -22.53,15.02l0 0c-7.51,0 -15.75,-4.6 -23.02,-15.02l0 0c-6.79,-10.18 -11.63,-25.68 -11.63,-42.89l0 0c0,-17.45 4.85,-32.71 11.63,-43.13l0 0c7.27,-10.18 15.51,-15.02 23.02,-14.78l0 0c7.51,-0.24 15.51,4.6 22.53,14.78l0 0c6.78,10.42 11.63,25.68 11.63,43.13l0 0c0,17.2 -4.85,32.71 -11.63,42.89zm138.35 -115.09c-0.49,-0.49 -0.49,-0.97 -0.49,-1.7 0,-0.24 -0.24,-0.73 -0.24,-1.21 -0.24,-0.24 -0.24,-0.73 -0.49,-1.21 0,-0.49 -0.24,-0.73 -0.49,-1.21 0,-0.24 -0.24,-0.49 -0.24,-0.73 0,0 -0.24,-0.49 -0.24,-0.49 -0.24,-0.24 -0.73,-0.73 -0.97,-0.97 -0.24,-0.49 -0.49,-0.73 -0.73,-0.97 -0.24,-0.24 -0.49,-0.73 -0.97,-0.97 -0.24,-0.24 -0.73,-0.49 -0.97,-0.73 -0.49,-0.24 -0.73,-0.48 -0.97,-0.73 -0.48,0 -0.73,-0.24 -1.45,-0.73 -0.24,-0.24 -0.73,-0.24 -0.97,-0.24 -0.49,-0.24 -0.73,-0.48 -1.45,-0.48 -0.24,0 -0.73,0 -0.97,-0.24 -0.49,0 -0.97,0 -1.7,0 0,0 -0.24,0 -0.24,0 -0.24,0 -0.49,0 -0.73,0 -0.49,0 -1.21,0 -1.7,0.24 -0.24,0 -0.73,0 -0.97,0.24 -0.49,0 -0.97,0.24 -1.45,0.24 -0.49,0.24 -0.73,0.73 -1.21,0.73 -0.24,0.24 -0.73,0.24 -0.97,0.49l-29.8 17.69c-6.3,3.64 -8.48,12.12 -4.36,18.17 2.42,4.36 6.79,6.79 11.39,6.79 2.18,0 4.6,-0.49 6.78,-1.94l9.69 -5.57 0 119.21c0,7.51 5.82,13.33 13.33,13.33 7.27,0 13.57,-5.82 13.57,-13.33l0 -142.95c0,-0.24 0,-0.49 0,-0.73z"/>
  <path class="fil2" d="M4334.12 794.6l0 0c10.18,15.26 25.93,26.89 45.07,26.89l0 0c18.66,0 34.65,-11.63 44.82,-26.89l0 0c10.42,-15.51 16.24,-35.86 16.24,-57.91l0 0c0,-22.29 -5.82,-42.4 -16.24,-57.91l0 0c-10.18,-15.51 -26.17,-26.9 -44.82,-26.9l0 0c-19.14,0 -34.89,11.39 -45.07,26.9l0 0c-10.66,15.51 -16.23,35.62 -16.47,57.91l0 0c0.24,22.05 5.81,42.4 16.47,57.91zm67.6 -15.02l0 0c-7.03,10.42 -15.02,15.02 -22.53,15.02l0 0c-7.51,0 -15.75,-4.6 -23.02,-15.02l0 0c-6.79,-10.18 -11.63,-25.68 -11.63,-42.89l0 0c0,-17.45 4.85,-32.71 11.63,-43.13l0 0c7.27,-10.18 15.51,-15.02 23.02,-14.78l0 0c7.51,-0.24 15.51,4.6 22.53,14.78l0 0c6.78,10.42 11.63,25.68 11.63,43.13l0 0c0,17.2 -4.85,32.71 -11.63,42.89zm104.43 15.02l0 0c10.18,15.26 25.93,26.89 45.07,26.89l0 0c18.66,0 34.65,-11.63 44.82,-26.89l0 0c10.42,-15.51 16.24,-35.86 16.24,-57.91l0 0c0,-22.29 -5.82,-42.4 -16.24,-57.91l0 0c-10.18,-15.51 -26.17,-26.9 -44.82,-26.9l0 0c-19.14,0 -34.89,11.39 -45.07,26.9l0 0c-10.66,15.51 -16.23,35.62 -16.47,57.91l0 0c0.24,22.05 5.81,42.4 16.47,57.91zm67.6 -15.02l0 0c-7.03,10.42 -15.02,15.02 -22.53,15.02l0 0c-7.51,0 -15.75,-4.6 -23.02,-15.02l0 0c-6.79,-10.18 -11.63,-25.68 -11.63,-42.89l0 0c0,-17.45 4.85,-32.71 11.63,-43.13l0 0c7.27,-10.18 15.51,-15.02 23.02,-14.78l0 0c7.51,-0.24 15.51,4.6 22.53,14.78l0 0c6.78,10.42 11.63,25.68 11.63,43.13l0 0c0,17.2 -4.85,32.71 -11.63,42.89zm137.14 -115.09c-0.49,-0.49 -0.49,-0.97 -0.49,-1.7 0,-0.24 -0.24,-0.73 -0.24,-1.21 -0.24,-0.24 -0.24,-0.73 -0.49,-1.21 0,-0.49 -0.24,-0.73 -0.49,-1.21 0,-0.24 -0.24,-0.49 -0.24,-0.73 0,0 -0.24,-0.49 -0.24,-0.49 -0.24,-0.24 -0.73,-0.73 -0.97,-0.97 -0.24,-0.49 -0.49,-0.73 -0.73,-0.97 -0.24,-0.24 -0.49,-0.73 -0.97,-0.97 -0.24,-0.24 -0.73,-0.49 -0.97,-0.73 -0.49,-0.24 -0.73,-0.48 -0.97,-0.73 -0.48,0 -0.73,-0.24 -1.45,-0.73 -0.24,-0.24 -0.73,-0.24 -0.97,-0.24 -0.49,-0.24 -0.73,-0.48 -1.45,-0.48 -0.24,0 -0.73,0 -0.97,-0.24 -0.49,0 -0.97,0 -1.7,0 0,0 -0.24,0 -0.24,0 -0.24,0 -0.49,0 -0.73,0 -0.49,0 -1.21,0 -1.7,0.24 -0.24,0 -0.73,0 -0.97,0.24 -0.49,0 -0.97,0.24 -1.45,0.24 -0.49,0.24 -0.73,0.73 -1.21,0.73 -0.24,0.24 -0.73,0.24 -0.97,0.49l-29.8 17.69c-6.3,3.64 -8.48,12.12 -4.36,18.17 2.42,4.36 6.79,6.79 11.39,6.79 2.18,0 4.6,-0.49 6.78,-1.94l9.69 -5.57 0 119.21c0,7.51 5.82,13.33 13.33,13.33 7.27,0 13.57,-5.82 13.57,-13.33l0 -142.95c0,-0.24 0,-0.49 0,-0.73zm47.25 130.11l0 0c10.18,15.26 25.93,26.89 45.07,26.89l0 0c18.66,0 34.65,-11.63 44.82,-26.89l0 0c10.42,-15.51 16.24,-35.86 16.24,-57.91l0 0c0,-22.29 -5.82,-42.4 -16.24,-57.91l0 0c-10.18,-15.51 -26.17,-26.9 -44.82,-26.9l0 0c-19.14,0 -34.89,11.39 -45.07,26.9l0 0c-10.66,15.51 -16.23,35.62 -16.47,57.91l0 0c0.24,22.05 5.81,42.4 16.47,57.91zm67.6 -15.02l0 0c-7.03,10.42 -15.02,15.02 -22.53,15.02l0 0c-7.51,0 -15.75,-4.6 -23.02,-15.02l0 0c-6.79,-10.18 -11.63,-25.68 -11.63,-42.89l0 0c0,-17.45 4.85,-32.71 11.63,-43.13l0 0c7.27,-10.18 15.51,-15.02 23.02,-14.78l0 0c7.51,-0.24 15.51,4.6 22.53,14.78l0 0c6.78,10.42 11.63,25.68 11.63,43.13l0 0c0,17.2 -4.85,32.71 -11.63,42.89zm104.43 15.02l0 0c10.18,15.26 25.93,26.89 45.07,26.89l0 0c18.66,0 34.65,-11.63 44.82,-26.89l0 0c10.42,-15.51 16.24,-35.86 16.24,-57.91l0 0c0,-22.29 -5.82,-42.4 -16.24,-57.91l0 0c-10.18,-15.51 -26.17,-26.9 -44.82,-26.9l0 0c-19.14,0 -34.89,11.39 -45.07,26.9l0 0c-10.66,15.51 -16.23,35.62 -16.47,57.91l0 0c0.24,22.05 5.81,42.4 16.47,57.91zm67.6 -15.02l0 0c-7.03,10.42 -15.02,15.02 -22.53,15.02l0 0c-7.51,0 -15.75,-4.6 -23.02,-15.02l0 0c-6.79,-10.18 -11.63,-25.68 -11.63,-42.89l0 0c0,-17.45 4.85,-32.71 11.63,-43.13l0 0c7.27,-10.18 15.51,-15.02 23.02,-14.78l0 0c7.51,-0.24 15.51,4.6 22.53,14.78l0 0c6.78,10.42 11.63,25.68 11.63,43.13l0 0c0,17.2 -4.85,32.71 -11.63,42.89zm138.35 -115.09c-0.49,-0.49 -0.49,-0.97 -0.49,-1.7 0,-0.24 -0.24,-0.73 -0.24,-1.21 -0.24,-0.24 -0.24,-0.73 -0.49,-1.21 0,-0.49 -0.24,-0.73 -0.49,-1.21 0,-0.24 -0.24,-0.49 -0.24,-0.73 0,0 -0.24,-0.49 -0.24,-0.49 -0.24,-0.24 -0.73,-0.73 -0.97,-0.97 -0.24,-0.49 -0.49,-0.73 -0.73,-0.97 -0.24,-0.24 -0.49,-0.73 -0.97,-0.97 -0.24,-0.24 -0.73,-0.49 -0.97,-0.73 -0.49,-0.24 -0.73,-0.48 -0.97,-0.73 -0.48,0 -0.73,-0.24 -1.45,-0.73 -0.24,-0.24 -0.73,-0.24 -0.97,-0.24 -0.49,-0.24 -0.73,-0.48 -1.45,-0.48 -0.24,0 -0.73,0 -0.97,-0.24 -0.49,0 -0.97,0 -1.7,0 0,0 -0.24,0 -0.24,0 -0.24,0 -0.49,0 -0.73,0 -0.49,0 -1.21,0 -1.7,0.24 -0.24,0 -0.73,0 -0.97,0.24 -0.49,0 -0.97,0.24 -1.45,0.24 -0.49,0.24 -0.73,0.73 -1.21,0.73 -0.24,0.24 -0.73,0.24 -0.97,0.49l-29.8 17.69c-6.3,3.64 -8.48,12.12 -4.36,18.17 2.42,4.36 6.79,6.79 11.39,6.79 2.18,0 4.6,-0.49 6.78,-1.94l9.69 -5.57 0 119.21c0,7.51 5.82,13.33 13.33,13.33 7.27,0 13.57,-5.82 13.57,-13.33l0 -142.95c0,-0.24 0,-0.49 0,-0.73zm81.17 0c-0.49,-0.49 -0.49,-0.97 -0.49,-1.7 0,-0.24 -0.24,-0.73 -0.24,-1.21 -0.24,-0.24 -0.24,-0.73 -0.49,-1.21 0,-0.49 -0.24,-0.73 -0.49,-1.21 0,-0.24 -0.24,-0.49 -0.24,-0.73 0,0 -0.24,-0.49 -0.24,-0.49 -0.24,-0.24 -0.73,-0.73 -0.97,-0.97 -0.24,-0.49 -0.49,-0.73 -0.73,-0.97 -0.24,-0.24 -0.49,-0.73 -0.97,-0.97 -0.24,-0.24 -0.73,-0.49 -0.97,-0.73 -0.49,-0.24 -0.73,-0.48 -0.97,-0.73 -0.48,0 -0.73,-0.24 -1.45,-0.73 -0.24,-0.24 -0.73,-0.24 -0.97,-0.24 -0.49,-0.24 -0.73,-0.48 -1.45,-0.48 -0.24,0 -0.73,0 -0.97,-0.24 -0.49,0 -0.97,0 -1.7,0 0,0 -0.24,0 -0.24,0 -0.24,0 -0.49,0 -0.73,0 -0.49,0 -1.21,0 -1.7,0.24 -0.24,0 -0.73,0 -0.97,0.24 -0.49,0 -0.97,0.24 -1.45,0.24 -0.49,0.24 -0.73,0.73 -1.21,0.73 -0.24,0.24 -0.73,0.24 -0.97,0.49l-29.8 17.69c-6.3,3.64 -8.48,12.12 -4.36,18.17 2.42,4.36 6.79,6.79 11.39,6.79 2.18,0 4.6,-0.49 6.78,-1.94l9.69 -5.57 0 119.21c0,7.51 5.82,13.33 13.33,13.33 7.27,0 13.57,-5.82 13.57,-13.33l0 -142.95c0,-0.24 0,-0.49 0,-0.73zm47.25 130.11l0 0c10.18,15.26 25.93,26.89 45.07,26.89l0 0c18.66,0 34.65,-11.63 44.82,-26.89l0 0c10.42,-15.51 16.24,-35.86 16.24,-57.91l0 0c0,-22.29 -5.82,-42.4 -16.24,-57.91l0 0c-10.18,-15.51 -26.17,-26.9 -44.82,-26.9l0 0c-19.14,0 -34.89,11.39 -45.07,26.9l0 0c-10.66,15.51 -16.23,35.62 -16.47,57.91l0 0c0.24,22.05 5.81,42.4 16.47,57.91zm67.6 -15.02l0 0c-7.03,10.42 -15.02,15.02 -22.53,15.02l0 0c-7.51,0 -15.75,-4.6 -23.02,-15.02l0 0c-6.79,-10.18 -11.63,-25.68 -11.63,-42.89l0 0c0,-17.45 4.85,-32.71 11.63,-43.13l0 0c7.27,-10.18 15.51,-15.02 23.02,-14.78l0 0c7.51,-0.24 15.51,4.6 22.53,14.78l0 0c6.78,10.42 11.63,25.68 11.63,43.13l0 0c0,17.2 -4.85,32.71 -11.63,42.89zm138.35 -115.09c-0.49,-0.49 -0.49,-0.97 -0.49,-1.7 0,-0.24 -0.24,-0.73 -0.24,-1.21 -0.24,-0.24 -0.24,-0.73 -0.49,-1.21 0,-0.49 -0.24,-0.73 -0.49,-1.21 0,-0.24 -0.24,-0.49 -0.24,-0.73 0,0 -0.24,-0.49 -0.24,-0.49 -0.24,-0.24 -0.73,-0.73 -0.97,-0.97 -0.24,-0.49 -0.49,-0.73 -0.73,-0.97 -0.24,-0.24 -0.49,-0.73 -0.97,-0.97 -0.24,-0.24 -0.73,-0.49 -0.97,-0.73 -0.49,-0.24 -0.73,-0.48 -0.97,-0.73 -0.48,0 -0.73,-0.24 -1.45,-0.73 -0.24,-0.24 -0.73,-0.24 -0.97,-0.24 -0.49,-0.24 -0.73,-0.48 -1.45,-0.48 -0.24,0 -0.73,0 -0.97,-0.24 -0.49,0 -0.97,0 -1.7,0 0,0 -0.24,0 -0.24,0 -0.24,0 -0.49,0 -0.73,0 -0.49,0 -1.21,0 -1.7,0.24 -0.24,0 -0.73,0 -0.97,0.24 -0.49,0 -0.97,0.24 -1.45,0.24 -0.49,0.24 -0.73,0.73 -1.21,0.73 -0.24,0.24 -0.73,0.24 -0.97,0.49l-29.8 17.69c-6.3,3.64 -8.48,12.12 -4.36,18.17 2.42,4.36 6.79,6.79 11.39,6.79 2.18,0 4.6,-0.49 6.78,-1.94l9.69 -5.57 0 119.21c0,7.51 5.82,13.33 13.33,13.33 7.27,0 13.57,-5.82 13.57,-13.33l0 -142.95c0,-0.24 0,-0.49 0,-0.73z"/>
  <polygon class="fil3" points="2189.84,877.7 2189.84,872.18 1106.42,872.18 1106.42,188.55 2184.32,188.55 2184.32,877.7 2189.84,877.7 2189.84,872.18 2189.84,877.7 2195.36,877.7 2195.36,177.5 1095.38,177.5 1095.38,883.22 2195.36,883.22 2195.36,877.7 "/>
  <polygon class="fil3" points="2189.84,314.44 2189.84,308.92 1106.42,308.92 1106.42,188.55 2184.32,188.55 2184.32,314.44 2189.84,314.44 2189.84,308.92 2189.84,314.44 2195.36,314.44 2195.36,177.5 1095.38,177.5 1095.38,319.96 2195.36,319.96 2195.36,314.44 "/>
  <path class="fil3" d="M1478.77 743.94l-159.58 -135c-8.35,-7.08 -8.35,-19.95 0,-27.02l159.58 -135.02c6.61,-5.6 16.51,-4.77 22.1,1.83 5.59,6.63 4.76,16.52 -1.84,22.11l-131.27 111.07c-8.35,7.06 -8.35,19.94 0,27.02l131.27 111.06c6.6,5.6 7.43,15.49 1.84,22.1 -5.6,6.62 -15.49,7.44 -22.1,1.84z"/>
  <path class="fil3" d="M1789.87 742.1l0 0c-5.59,-6.62 -4.77,-16.51 1.84,-22.11l131.28 -111.05c8.35,-7.07 8.35,-19.95 0,-27.02l-131.28 -111.07c-6.61,-5.6 -7.43,-15.49 -1.84,-22.1l0 -0.02c5.6,-6.61 15.5,-7.44 22.12,-1.84l159.58 135.03c8.36,7.06 8.36,19.95 0,27.02l-159.58 135.01c-6.61,5.6 -16.52,4.77 -22.12,-1.85z"/>
  <path class="fil3" d="M1549.73 814.54l0 0c-8.05,-3.21 -11.97,-12.35 -8.75,-20.4l167.17 -418.04c3.21,-8.04 12.35,-11.97 20.38,-8.75 8.05,3.21 11.97,12.35 8.75,20.4l-167.16 418.04c-3.22,8.05 -12.36,11.97 -20.41,8.75z"/>
  <path class="fil4" d="M1224.23 249.69c0,18.25 -14.8,33.06 -33.06,33.06 -18.26,0 -33.06,-14.81 -33.06,-33.06 0,-18.26 14.8,-33.07 33.06,-33.07 18.26,0 33.06,14.81 33.06,33.07z"/>
  <path class="fil3" d="M1359.23 249.69c0,18.25 -14.8,33.06 -33.06,33.06 -18.26,0 -33.06,-14.81 -33.06,-33.06 0,-18.26 14.8,-33.07 33.06,-33.07 18.26,0 33.06,14.81 33.06,33.07z"/>
  <path class="fil5" d="M1494.25 249.69c0,18.25 -14.8,33.06 -33.06,33.06 -18.25,0 -33.06,-14.81 -33.06,-33.06 0,-18.26 14.81,-33.07 33.06,-33.07 18.26,0 33.06,14.81 33.06,33.07z"/>
  <polygon class="fil3" points="1108.55,3021.04 1108.55,3015.52 25.13,3015.52 25.13,2331.9 1103.03,2331.9 1103.03,3021.04 1108.55,3021.04 1108.55,3015.52 1108.55,3021.04 1114.07,3021.04 1114.07,2320.85 14.09,2320.85 14.09,3026.56 1114.07,3026.56 1114.07,3021.04 "/>
  <polygon class="fil3" points="1108.55,2457.79 1108.55,2452.27 25.13,2452.27 25.13,2331.9 1103.03,2331.9 1103.03,2457.79 1108.55,2457.79 1108.55,2452.27 1108.55,2457.79 1114.07,2457.79 1114.07,2320.85 14.09,2320.85 14.09,2463.31 1114.07,2463.31 1114.07,2457.79 "/>
  <path class="fil4" d="M142.93 2393.03c0,18.26 -14.8,33.06 -33.06,33.06 -18.26,0 -33.06,-14.8 -33.06,-33.06 0,-18.25 14.8,-33.06 33.06,-33.06 18.26,0 33.06,14.81 33.06,33.06z"/>
  <path class="fil3" d="M277.95 2393.03c0,18.26 -14.81,33.06 -33.07,33.06 -18.26,0 -33.06,-14.8 -33.06,-33.06 0,-18.25 14.8,-33.06 33.06,-33.06 18.26,0 33.07,14.81 33.07,33.06z"/>
  <path class="fil5" d="M412.95 2393.03c0,18.26 -14.81,33.06 -33.06,33.06 -18.26,0 -33.07,-14.8 -33.07,-33.06 0,-18.25 14.81,-33.06 33.07,-33.06 18.25,0 33.06,14.81 33.06,33.06z"/>
  <path class="fil3" d="M3025.58 2849.25c32.2,0 61.47,-10.61 84.52,-28.54 8.78,-6.95 10.24,-20.12 3.66,-29.27 -7.32,-8.78 -20.86,-10.24 -29.27,-4.03 -16.46,13.17 -36.22,20.12 -58.91,20.12 -25.24,0 -48.66,-10.24 -65.85,-26.34 -16.46,-16.1 -26.71,-38.78 -26.71,-63.66 0,-24.88 10.24,-46.83 26.71,-63.66 17.19,-16.1 40.61,-26.34 65.85,-26.34 22.68,0 42.81,6.95 58.91,20.12 8.41,6.59 21.95,5.12 29.27,-4.02 6.59,-9.15 5.12,-21.95 -3.66,-29.27 -23.05,-17.93 -52.32,-28.54 -84.52,-28.54 -73.17,0.37 -133.91,59.27 -134.27,131.71 0.37,72.81 61.1,131.71 134.27,131.71zm216.59 -57.81c0,11.71 9.15,20.85 20.86,20.85 11.34,0 20.86,-9.15 20.86,-20.85l0 -50.85 51.95 0c10.97,0 20.12,-8.78 20.12,-20.12 0,-10.98 -9.15,-20.12 -20.12,-20.12l-51.95 0 0 -50.85c0,-11.71 -9.51,-20.86 -20.86,-20.86 -11.71,0 -20.86,9.15 -20.86,20.86l0 50.85 -51.95 0c-10.98,0 -20.12,9.15 -20.12,20.12 0,11.34 9.15,20.12 20.12,20.12l51.95 0 0 50.85zm226.84 0c0,11.71 9.15,20.85 20.86,20.85 11.34,0 20.86,-9.15 20.86,-20.85l0 -50.85 51.95 0c10.97,0 20.12,-8.78 20.12,-20.12 0,-10.98 -9.15,-20.12 -20.12,-20.12l-51.95 0 0 -50.85c0,-11.71 -9.51,-20.86 -20.86,-20.86 -11.71,0 -20.86,9.15 -20.86,20.86l0 50.85 -51.95 0c-10.98,0 -20.12,9.15 -20.12,20.12 0,11.34 9.15,20.12 20.12,20.12l51.95 0 0 50.85z"/>
  <polygon class="fil3" points="6695.3,1311.05 6689.78,1311.05 6689.78,2000.19 5611.83,2000.19 5611.83,1316.57 6695.3,1316.57 6695.3,1311.05 6689.78,1311.05 6695.3,1311.05 6695.3,1305.53 5600.8,1305.53 5600.8,2011.23 6700.82,2011.23 6700.82,1305.53 6695.3,1305.53 "/>
  <polygon class="fil3" points="6695.3,1311.05 6689.78,1311.05 6689.78,1436.9 5611.83,1436.9 5611.83,1316.57 6695.3,1316.57 6695.3,1311.05 6689.78,1311.05 6695.3,1311.05 6695.3,1305.53 5600.8,1305.53 5600.8,1447.94 6700.82,1447.94 6700.82,1305.53 6695.3,1305.53 "/>
  <path class="fil4" d="M5729.64 1377.69c0,18.26 -14.8,33.07 -33.07,33.07 -18.25,0 -33.06,-14.81 -33.06,-33.07 0,-18.25 14.81,-33.06 33.06,-33.06 18.28,0 33.07,14.81 33.07,33.06z"/>
  <path class="fil3" d="M5864.64 1377.69c0,18.26 -14.8,33.07 -33.06,33.07 -18.25,0 -33.06,-14.81 -33.06,-33.07 0,-18.25 14.81,-33.06 33.06,-33.06 18.26,0 33.06,14.81 33.06,33.06z"/>
  <path class="fil5" d="M5999.67 1377.69c0,18.26 -14.81,33.07 -33.08,33.07 -18.25,0 -33.06,-14.81 -33.06,-33.07 0,-18.25 14.81,-33.06 33.06,-33.06 18.28,0 33.08,14.81 33.08,33.06z"/>
  <path class="fil3" d="M3010.21 1833.9c32.2,0 61.47,-10.61 84.52,-28.54 8.78,-6.95 10.24,-20.12 3.66,-29.27 -7.32,-8.78 -20.86,-10.24 -29.27,-4.03 -16.46,13.17 -36.22,20.12 -58.91,20.12 -25.24,0 -48.66,-10.24 -65.85,-26.34 -16.46,-16.1 -26.71,-38.78 -26.71,-63.66 0,-24.88 10.24,-46.83 26.71,-63.66 17.19,-16.1 40.61,-26.34 65.85,-26.34 22.68,0 42.81,6.95 58.91,20.12 8.41,6.59 21.95,5.12 29.27,-4.02 6.59,-9.15 5.12,-21.95 -3.66,-29.27 -23.05,-17.93 -52.32,-28.54 -84.52,-28.54 -73.17,0.37 -133.91,59.27 -134.27,131.71 0.37,72.81 61.1,131.71 134.27,131.71zm154.03 -36.95l0 0c20.85,16.46 54.15,36.22 93.66,36.59l0 0c25.98,0 49.76,-7.68 67.69,-20.85l0 0c18.29,-13.17 31.46,-33.29 31.46,-56.71l0 0c0,-11.34 -3.29,-22.32 -8.78,-31.1l0 0c-8.41,-13.54 -21.59,-23.05 -36.59,-30.37l0 0c-14.63,-6.95 -31.83,-11.71 -50.49,-15.37l0 0 -0.73 0 0 0c-19.76,-3.66 -36.22,-9.51 -45.73,-16.1l0 0c-4.75,-3.29 -8.05,-6.59 -9.88,-9.51l0 0c-1.83,-2.93 -2.56,-5.85 -2.56,-10.24l0 0c0,-7.68 4.03,-15.73 13.9,-23.05l0 0c9.88,-7.32 24.51,-12.44 40.98,-12.44l0 0c22.32,0 40.25,10.97 58.91,23.42l0 0c8.78,5.85 20.49,3.29 25.98,-5.49l0 0c5.85,-8.41 3.29,-20.12 -5.12,-25.98l0 0c-18.66,-12.07 -44.64,-29.27 -79.76,-29.27l0 0c-23.78,0 -46.1,6.95 -63.29,19.39l0 0c-16.83,12.44 -29.27,31.47 -29.27,53.42l0 0c0,10.98 2.93,21.22 8.41,30l0 0c8.05,12.81 20.12,21.95 34.03,28.54l0 0c13.9,6.59 30,10.97 47.2,14.27l0 0 0.73 0 0 0c21.59,4.03 39.51,10.24 50.12,17.2l0 0c5.49,3.66 8.78,7.32 10.98,10.98l0 0c2.19,3.66 3.29,6.95 3.29,11.71l0 0c0,9.15 -4.76,18.29 -15.73,26.34l0 0c-10.98,8.05 -27.44,13.54 -45.73,13.54l0 0c-25.98,0.37 -53.78,-15 -69.88,-28.17l0 0c-8.05,-6.58 -20.12,-5.49 -26.71,2.56l0 0c-6.22,8.05 -5.12,20.12 2.93,26.71zm240.38 0l0 0c20.85,16.46 54.15,36.22 93.66,36.59l0 0c25.98,0 49.76,-7.68 67.69,-20.85l0 0c18.29,-13.17 31.46,-33.29 31.46,-56.71l0 0c0,-11.34 -3.29,-22.32 -8.78,-31.1l0 0c-8.41,-13.54 -21.59,-23.05 -36.59,-30.37l0 0c-14.63,-6.95 -31.83,-11.71 -50.49,-15.37l0 0 -0.73 0 0 0c-19.76,-3.66 -36.22,-9.51 -45.73,-16.1l0 0c-4.75,-3.29 -8.05,-6.59 -9.88,-9.51l0 0c-1.83,-2.93 -2.56,-5.85 -2.56,-10.24l0 0c0,-7.68 4.03,-15.73 13.9,-23.05l0 0c9.88,-7.32 24.51,-12.44 40.98,-12.44l0 0c22.32,0 40.25,10.97 58.91,23.42l0 0c8.78,5.85 20.49,3.29 25.98,-5.49l0 0c5.85,-8.41 3.29,-20.12 -5.12,-25.98l0 0c-18.66,-12.07 -44.64,-29.27 -79.76,-29.27l0 0c-23.78,0 -46.1,6.95 -63.29,19.39l0 0c-16.83,12.44 -29.27,31.47 -29.27,53.42l0 0c0,10.98 2.93,21.22 8.41,30l0 0c8.05,12.81 20.12,21.95 34.03,28.54l0 0c13.9,6.59 30,10.97 47.2,14.27l0 0 0.73 0 0 0c21.59,4.03 39.51,10.24 50.12,17.2l0 0c5.49,3.66 8.78,7.32 10.98,10.98l0 0c2.19,3.66 3.29,6.95 3.29,11.71l0 0c0,9.15 -4.76,18.29 -15.73,26.34l0 0c-10.98,8.05 -27.44,13.54 -45.73,13.54l0 0c-25.98,0.37 -53.78,-15 -69.88,-28.17l0 0c-8.05,-6.58 -20.12,-5.49 -26.71,2.56l0 0c-6.22,8.05 -5.12,20.12 2.93,26.71z"/>
  <path class="fil3" d="M826.33 1230.16c-42.4,-22.73 -58.36,-75.62 -35.61,-118.01 22.73,-42.4 75.56,-58.28 117.95,-35.55 42.4,22.74 58.32,75.49 35.58,117.89 -22.74,42.39 -75.52,58.4 -117.92,35.66zm167.85 26.63c-5.05,-8.15 -4.77,-18.33 0.19,-26.53 1.35,-2.23 2.64,-4.49 3.88,-6.8 1.26,-2.34 2.44,-4.69 3.56,-7.05 4.07,-8.65 12.38,-14.49 21.93,-14.78l32.63 -1.02 -3.3 -106.3 -32.62 1c-9.57,0.3 -18.34,-4.95 -22.94,-13.35 -2.52,-4.63 -5.3,-9.12 -8.33,-13.47 -5.43,-7.84 -6.19,-17.99 -1.69,-26.4l15.39 -28.69 -93.75 -50.28 -15.39 28.69c-4.52,8.4 -13.38,13.39 -22.92,13.2 -5.3,-0.11 -10.59,0.07 -15.84,0.52 -9.54,0.84 -18.75,-3.57 -23.81,-11.72l-17.2 -27.72 -90.38 56.05 17.27 27.88c5.02,8.1 4.74,18.24 -0.2,26.4 -1.34,2.22 -2.63,4.49 -3.88,6.8 -1.24,2.31 -2.41,4.65 -3.52,7 -4.09,8.66 -12.42,14.53 -22,14.82l-32.66 0.98 3.3 106.3 32.54 -1.04c9.57,-0.3 18.34,4.92 22.94,13.33 2.54,4.64 5.33,9.15 8.38,13.52 5.46,7.84 6.22,18.01 1.7,26.41l-15.38 28.7 93.75 50.28 15.39 -28.69c4.5,-8.41 13.39,-13.41 22.93,-13.2 5.32,0.11 10.63,-0.05 15.9,-0.51 9.54,-0.82 18.75,3.6 23.79,11.74l17.14 27.68 90.37 -56.06 -17.18 -27.71z"/>
  <path class="fil3" d="M6198.68 2693.54c-59.31,0 -107.45,-48.14 -107.45,-107.45 0,-59.32 48.14,-107.35 107.45,-107.35 59.31,0 107.35,48.03 107.35,107.35 0,59.31 -48.04,107.45 -107.35,107.45zm197.9 -68.86c-10.24,-5.91 -15.87,-17.15 -15.26,-28.94 0.17,-3.21 0.24,-6.43 0.24,-9.65 0,-3.27 -0.08,-6.51 -0.24,-9.73 -0.61,-11.76 5,-22.96 15.21,-28.84l34.86 -20.12 -65.51 -113.56 -34.86 20.1c-10.22,5.9 -22.8,5.31 -32.69,-1.15 -5.45,-3.56 -11.08,-6.82 -16.9,-9.79 -10.48,-5.33 -17.22,-15.92 -17.22,-27.7l0 -40.14 -131.16 0 0 40.14c0,11.77 -6.74,22.36 -17.21,27.7 -5.82,2.97 -11.46,6.24 -16.9,9.79 -9.89,6.46 -22.46,7.05 -32.7,1.15l-34.85 -20.1 -65.53 113.56 35 20.23c10.18,5.88 15.78,17.06 15.17,28.81 -0.17,3.2 -0.24,6.42 -0.24,9.65 0,3.22 0.08,6.45 0.24,9.65 0.61,11.79 -5.04,23.03 -15.27,28.92l-34.9 20.1 65.53 113.57 34.75 -20.09c10.22,-5.9 22.8,-5.35 32.68,1.1 5.47,3.58 11.13,6.85 16.98,9.82 10.49,5.35 17.24,15.94 17.24,27.71l0 40.14 131.16 0 0 -40.14c0,-11.77 6.75,-22.36 17.24,-27.71 5.84,-2.97 11.52,-6.24 16.98,-9.82 9.89,-6.45 22.46,-7 32.68,-1.1l34.76 20.09 65.51 -113.57 -34.81 -20.07z"/>
  <path class="fil3" d="M2644.77 563.34c-42.6,0 -77.18,-34.57 -77.18,-77.18 0,-42.6 34.58,-77.1 77.18,-77.1 42.6,0 77.1,34.5 77.1,77.1 0,42.61 -34.5,77.18 -77.1,77.18zm142.14 -49.47c-7.36,-4.23 -11.4,-12.3 -10.96,-20.78 0.11,-2.3 0.18,-4.6 0.18,-6.93 0,-2.34 -0.07,-4.67 -0.18,-6.98 -0.43,-8.45 3.59,-16.49 10.92,-20.71l25.04 -14.44 -47.06 -81.57 -25.04 14.43c-7.34,4.24 -16.38,3.81 -23.48,-0.83 -3.91,-2.55 -7.96,-4.9 -12.14,-7.03 -7.53,-3.83 -12.37,-11.44 -12.37,-19.89l0 -28.83 -94.2 0 0 28.83c0,8.44 -4.85,16.05 -12.37,19.89 -4.18,2.13 -8.23,4.48 -12.14,7.03 -7.1,4.64 -16.13,5.07 -23.49,0.83l-25.03 -14.43 -47.06 81.57 25.14 14.52c7.31,4.23 11.33,12.26 10.9,20.69 -0.12,2.3 -0.18,4.6 -0.18,6.92 0,2.33 0.05,4.64 0.18,6.93 0.43,8.48 -3.61,16.54 -10.96,20.78l-25.08 14.43 47.06 81.57 24.97 -14.42c7.34,-4.24 16.38,-3.83 23.48,0.8 3.92,2.56 7.99,4.91 12.19,7.04 7.54,3.83 12.39,11.45 12.39,19.9l0 28.83 94.2 0 0 -28.83c0,-8.44 4.85,-16.06 12.39,-19.9 4.19,-2.13 8.27,-4.48 12.19,-7.04 7.1,-4.63 16.14,-5.04 23.48,-0.8l24.97 14.42 47.06 -81.57 -25.01 -14.43z"/>
  <path class="fil3" d="M561.7 850.94c-42.6,0 -77.18,-34.57 -77.18,-77.18 0,-42.6 34.57,-77.11 77.18,-77.11 42.6,0 77.11,34.51 77.11,77.11 0,42.6 -34.51,77.18 -77.11,77.18zm142.15 -49.46c-7.36,-4.24 -11.4,-12.31 -10.96,-20.78 0.12,-2.31 0.18,-4.62 0.18,-6.94 0,-2.35 -0.06,-4.68 -0.18,-6.99 -0.43,-8.45 3.6,-16.49 10.92,-20.71l25.05 -14.44 -47.07 -81.58 -25.03 14.45c-7.34,4.24 -16.39,3.82 -23.49,-0.83 -3.9,-2.55 -7.95,-4.89 -12.14,-7.02 -7.52,-3.84 -12.35,-11.45 -12.35,-19.9l0 -28.83 -94.21 0 0 28.83c0,8.45 -4.84,16.06 -12.36,19.9 -4.18,2.13 -8.24,4.47 -12.15,7.02 -7.1,4.65 -16.13,5.07 -23.48,0.83l-25.04 -14.45 -47.06 81.58 25.15 14.52c7.3,4.23 11.33,12.26 10.89,20.69 -0.11,2.3 -0.18,4.6 -0.18,6.93 0,2.32 0.07,4.63 0.18,6.94 0.44,8.47 -3.61,16.54 -10.96,20.77l-25.08 14.43 47.06 81.57 24.97 -14.42c7.34,-4.24 16.37,-3.83 23.48,0.8 3.93,2.56 7.99,4.91 12.2,7.06 7.53,3.83 12.38,11.44 12.38,19.9l0 28.82 94.21 0 0 -28.82c0,-8.46 4.84,-16.07 12.38,-19.9 4.2,-2.14 8.27,-4.49 12.2,-7.06 7.1,-4.63 16.13,-5.04 23.48,-0.8l24.96 14.42 47.07 -81.57 -25.01 -14.42z"/>
  <path class="fil4" d="M5631.81 2561.01c0,0 -199.15,-132.56 -268.14,-388.77 -68.99,-256.21 -106.64,-802.15 -106.64,-802.15 0,0 384.92,465.16 429.84,746.43 44.93,281.26 -55.07,444.5 -55.07,444.5z"/>
  <path class="fil4" d="M5891.41 2743.48c0,0 -32.39,-287.95 100.99,-523.78 133.39,-235.84 583.16,-393.72 583.16,-393.72 0,0 -269.52,511.49 -393.99,657.59 -124.45,146.11 -290.17,259.91 -290.17,259.91z"/>
  <path class="fil4" d="M5876.87 3430.86c0,0 24.14,-244.03 103.91,-396.72 79.75,-152.69 366.02,-368.32 510.19,-425.96 0,0 -179.71,692.19 -614.09,822.67z"/>
  <path class="fil4" d="M5596.92 3221.23c0,0 -207.21,-127.28 -319.32,-355.31 -112.11,-228.02 -135.48,-550.46 -135.48,-550.46 0,0 503.14,406.8 454.8,905.77z"/>
  <path class="fil0" d="M5796.79 4167.49c-45.41,-184.98 -64.22,-376.08 -66.05,-566.74 -1.35,-95.43 4.46,-190.9 14.18,-285.86 9.95,-94.98 25.3,-189.45 46.82,-282.59 21.99,-92.99 50.01,-184.69 84.2,-273.83l25.67 -66.78c8.82,-22.16 18.44,-44 27.62,-66.01l13.91 -32.97c4.85,-10.89 9.92,-21.7 14.97,-32.5 10.29,-21.54 20.02,-43.32 30.75,-64.63 42.29,-85.54 89.49,-168.72 142.4,-248.12 13.38,-19.73 27.39,-39.07 41.39,-58.37 14.54,-18.91 28.75,-38.05 44.2,-56.23 30.45,-36.6 62.49,-72.27 99.24,-102.59 -17.74,15.87 -34.1,33.15 -49.64,51.1 -7.99,8.78 -15.55,17.94 -23.08,27.12 -7.68,9.05 -15.01,18.39 -22.17,27.85 -14.78,18.59 -28.28,38.13 -42.12,57.39 -13.27,19.66 -26.56,39.33 -39.21,59.37 -50.85,80.1 -96.18,163.65 -136.45,249.52 -10.24,21.39 -19.47,43.25 -29.26,64.84l-14.55 32.46 -13.64 32.85c-8.97,21.95 -18.39,43.71 -27.01,65.81l-25.08 66.59c-33.37,88.74 -60.41,179.6 -81.65,271.9 -44.02,184.33 -63,374.12 -65.35,563.72 -1.21,94.86 2.5,189.84 10.79,284.44 7.82,94.64 20.12,189.05 39.11,282.27z"/>
  <path class="fil0" d="M5438.64 1845c29.72,85.55 56.35,172.15 82.71,258.81 25.57,86.9 50.06,174.14 72.86,261.86 11.31,43.87 22.65,87.77 32.6,132l15.17 66.29 14.14 66.52c18,88.89 35.19,178.05 46.58,268.26 11.06,90.11 19.62,180.32 26.94,270.67 7.01,90.34 13.93,180.68 18.14,271.18 4.54,90.48 8.41,180.96 11.42,271.48 2.26,90.54 4.7,181.07 4.77,271.64 -4.85,-90.43 -9.32,-180.84 -15.08,-271.18 -5.1,-90.36 -10.79,-180.7 -17.28,-270.94 -13.06,-180.44 -26.61,-361.01 -49.79,-540.18 -22.48,-179.04 -61.64,-355.9 -103.27,-531.82 -20.82,-88.02 -43.57,-175.6 -67.07,-262.97 -23,-87.53 -47.65,-174.62 -72.84,-261.6z"/>
  <path class="fil0" d="M6195.93 2922.16c-43.84,68.27 -86.93,136.85 -129.8,205.5 -42.59,68.81 -84.72,137.85 -124.84,207.99 -40.32,70.01 -78.72,141.09 -113.22,213.96 -16.9,36.59 -32.88,73.61 -45.99,111.66 -13.34,37.91 -23.78,77.13 -25.16,117.76 -1.33,-20.19 -0.9,-40.81 2.6,-60.91l2.28 -15.16 3.2 -14.96 3.25 -15 3.95 -14.79c10.93,-39.34 25.07,-77.7 40.83,-115.27 15.77,-37.57 33.57,-74.21 51.78,-110.6 18.55,-36.2 38.22,-71.8 58.2,-107.18 20.46,-35.11 41.32,-69.98 62.83,-104.42 21.76,-34.27 43.67,-68.46 66.54,-102 45.32,-67.33 93.08,-133.04 143.54,-196.59z"/>
  <path class="fil0" d="M5356.2 2694.63c50.95,88.89 97.86,180.11 141.64,272.8 43.95,92.62 84.56,186.88 121.5,282.62 36.55,95.86 69.68,193.27 94.67,293.03 12.45,49.86 22.87,100.29 29.89,151.25 6.45,50.95 10.14,102.66 5.18,153.75 0.18,-51.25 -5.57,-102.08 -15.38,-152.13 -9.39,-50.1 -21.85,-99.56 -35.57,-148.64 -13.9,-49.04 -29.39,-97.65 -46.02,-145.88 -16.34,-48.32 -34.02,-96.21 -52.42,-143.84 -18.01,-47.77 -37.26,-95.08 -56.79,-142.29 -19.32,-47.3 -39.64,-94.18 -59.95,-141.09 -41.15,-93.59 -83.03,-186.94 -126.74,-279.58z"/>
  <polygon class="fil5" points="6000.06,3564.6 5996.49,3621.8 5996.28,3624.02 5995.33,3638.66 5995.33,3639.72 5995.22,3640.87 5994.27,3655.51 5994.17,3657.83 5993.22,3672.37 5993.12,3674.58 5985.32,3797.73 5985.1,3801.22 5984.26,3814.59 5984.05,3818.06 5983.73,3823.01 5983.11,3831.45 5982.9,3834.91 5982.05,3848.3 5981.83,3851.78 5953.71,4296.03 5547.82,4296.03 5520.1,3858.41 5519.68,3852.82 5519.05,3841.66 5518.62,3835.97 5517.99,3824.8 5517.78,3823.01 5517.57,3819.13 5516.83,3807.95 5516.52,3802.26 5507.88,3666.05 5507.67,3662.15 5506.83,3649.2 5506.51,3645.09 5506.2,3639.72 5505.78,3632.43 5505.46,3628.55 5504.72,3615.37 5504.41,3611.48 5501.45,3564.6 "/>
  <polygon class="fil0" points="5995.33,3639.72 5995.22,3640.87 5994.27,3655.51 5994.17,3657.83 5993.22,3672.37 5993.12,3674.58 5985.32,3797.73 5985.1,3801.22 5984.26,3814.59 5984.05,3818.06 5983.73,3823.01 5517.78,3823.01 5517.57,3819.13 5516.83,3807.95 5516.52,3802.26 5507.88,3666.05 5507.67,3662.15 5506.83,3649.2 5506.51,3645.09 5506.2,3639.72 "/>
  <polygon class="fil5" points="5463.29,3680.18 6038.23,3680.18 6038.23,3538.53 5463.29,3538.53 "/>
  <g>
   <g style="clip-path:url(#id0)">
    <image x="304.91" y="1295.7" width="513.51" height="503.64" xlink:href="story-img-3_Images\story-img-3_ImgID1.png"/>
   </g>
  </g>
  <g>
   <g style="clip-path:url(#id1)">
    <image x="5686.16" y="613.06" width="224.74" height="224.74" xlink:href="story-img-3_Images\story-img-3_ImgID2.png"/>
   </g>
  </g>
  <g>
   <g style="clip-path:url(#id2)">
    <image x="5836.93" y="844.79" width="627.65" height="466.26" xlink:href="story-img-3_Images\story-img-3_ImgID3.png"/>
   </g>
  </g>
  <path class="fil1" d="M5274.57 4478.26l0 -0.05c-0.13,-104.77 -793.02,-189.64 -1771.09,-189.64 -978.16,0 -1771.1,84.88 -1771.1,189.66 0,6.23 2.84,12.37 8.31,18.4 -120.41,-4.34 -247.99,-6.69 -380.09,-6.69 -732.8,0 -1326.95,72.31 -1326.95,161.51 0,89.12 594.15,161.44 1326.95,161.44 732.8,0 1326.85,-72.31 1326.85,-161.44 0,-1.6 -0.22,-3.21 -0.64,-4.8 244.3,13.58 522.11,21.33 816.66,21.33 978.07,0 1770.96,-84.95 1771.09,-189.73z"/>
  <path class="fil0" d="M3906.14 803.8c-28.46,23.59 -56.53,41.97 -84.2,55.86 44.21,-79.94 31.9,-257.2 26.98,-231.71 -23.63,121.8 -95.82,256.59 -124.58,263.98l-0.5 0.11c-77.42,12.39 -148.62,-6.5 -208.6,-37.68l0.2 -0.4c57.42,-90.62 49.63,-270.98 45.89,-259.89 -40.57,119 -129.6,190.44 -145.36,190.74l-0.1 0c-60.07,-54.15 -92.67,-109.01 -84.5,-114.91 59.39,-42.95 107.84,-150.67 151.08,-264.27l0 -0.1c42.74,-112.01 80.35,-229.51 118.37,-296.16l0 -0.2 0.4 -0.49c1.08,-1.9 2.17,-3.7 3.25,-5.5 78.01,-129.39 194.31,-106.91 266.89,-70.04 246.62,125.2 71.41,740.2 34.77,770.66z"/>
  <path class="fil0" d="M3700.21 27.7c-48.38,12.91 -87.13,58.78 -111.43,100.79 -32.3,55.86 -52.84,118.65 -79.11,177.5 -51.93,116.25 -118.36,223.65 -203.06,318.36 -1.88,2.1 0.9,4.71 2.99,3.04 92.4,-74 154.19,-178.15 204.18,-284.8 25.55,-54.53 45.2,-111.37 69.27,-166.52 13.16,-30.17 28.67,-59.48 49.42,-85.06 20.19,-24.84 43.7,-39.95 71.13,-55.11 4.45,-2.46 1.4,-9.48 -3.41,-8.2z"/>
  <path class="fil6" d="M3913.93 439.87c-82.71,41.25 -140.47,443.98 -187.35,466.22 -80.21,38.04 -278.32,1.43 -348.16,9.96 -43.12,5.26 -154.56,157.55 -129.01,188.22 25.55,30.66 490.83,87.17 606.5,35.94 65.39,-28.97 123.83,-308.51 132.88,-431.17 9.06,-122.66 -37.28,-287.9 -74.86,-269.17z"/>
  <path class="fil7" d="M3897.17 1143.34c-3.69,4.85 -7.48,8.96 -11.37,12.55 -76.7,70.16 -552.03,51.4 -575.83,30.86 -23.91,-20.65 -9.6,-52.57 -9.6,-52.57l120.32 -207.96c0,0 16.96,-32.33 57.83,-30.33 40.99,2 209.23,22.97 246.2,4.85 37.09,-18.23 77.86,-348.39 175.94,-458.48 13.47,-15.17 26.34,-15.91 38.14,-6.85 34.44,26.55 59.41,137.06 61.94,220.8 3.16,106.72 -34.13,397.9 -103.55,487.13z"/>
  <path class="fil7" d="M3446.32 900.08l-136.64 259.13c0,0 -65.9,-41.63 -66.39,-42.74 -0.47,-1.1 114.76,-218.18 120.27,-220.59 5.52,-2.42 82.75,4.19 82.75,4.19z"/>
  <path class="fil0" d="M3313.58 1154.11c22.17,-38.62 117.26,-202.35 132.93,-248.6 0.56,-1.65 -1.72,-3.11 -2.77,-1.55 -25.72,38.43 -113.58,202.9 -133.09,248.5 -1.46,3.4 1.07,4.89 2.94,1.65z"/>
  <path class="fil0" d="M3897.17 1143.34l-47.2 -478.06 88.81 -229.87c34.44,26.55 59.41,137.06 61.94,220.8 3.16,106.72 -34.13,397.9 -103.55,487.13z"/>
  <path class="fil7" d="M3924.04 413.52c-27.01,56.6 -93.01,302.85 -68.82,368.41 24.51,66.44 97.79,88.93 97.79,88.93 0,0 54.5,269.17 87.73,297.27 33.21,28.11 392.69,37.3 525.56,-201.87 25.54,-45.99 -165.25,-393.52 -305.79,-508.52 -104.43,-85.43 -271.64,-180 -336.46,-44.23z"/>
  <path class="fil0" d="M4191 771.66c-23.87,23.28 -44.98,47.01 -77.87,57.55 -33.15,10.62 -69.29,9.85 -103.63,13.81 -1,0.11 -1.06,1.59 0,1.6 39.38,0.24 80.76,5.46 118.44,-9.19 29.48,-11.47 50.16,-34.71 67.27,-60.55 1.7,-2.58 -2.08,-5.32 -4.21,-3.24z"/>
  <path class="fil0" d="M4049.47 851.86c-25.42,1.08 -51.96,7.66 -76.61,13.66 -1.07,0.26 -0.87,2.06 0.25,1.96 25.31,-2.34 52.48,-4.7 76.87,-11.94 1.97,-0.59 1.68,-3.78 -0.51,-3.69z"/>
  <path class="fil0" d="M3957.89 868.67l-0.19 -0.44c-0.24,-1.21 -0.97,-2.35 -2.42,-2.89 -56.4,-21.51 -99.41,-65.19 -101.62,-127.79 -2.24,-63.73 6.15,-100.29 23.12,-161.47 0.35,-1.26 -1.42,-1.71 -1.92,-0.53 -29.16,69.18 -35.26,157.27 -27.59,192.09 11.42,51.84 55.36,87.82 103.78,104.15 3.63,16 6.13,32.68 11.1,48.29 0.59,1.81 3.38,1.52 3.38,-0.46 -0.02,-16.93 -4.1,-34.46 -7.64,-50.94z"/>
  <polygon class="fil0" points="4163.8,587.8 4416.1,961.64 4494.32,770.92 "/>
  <path class="fil6" d="M3896.16 433.02c0,0 -21.61,44.36 -24.65,54.99 0,0 28.73,50.66 100.63,27.67 71.92,-23 84.35,-167.73 84.35,-167.73 0,0 -51.81,-11.06 -88.94,6.25 -37.11,17.31 -71.39,78.82 -71.39,78.82z"/>
  <path class="fil6" d="M3956.26 498.14c-23.41,9.3 -50.7,-44.76 -60.1,-65.12 -2.04,-4.7 -3.27,-7.56 -3.27,-7.56l-1.44 -1.43 -4.08 -4.39 -68.18 -71.55 60.2 -121.84 9.09 -16.86c0,0 19.33,23.1 42.22,51.11 1.24,1.43 2.45,2.86 3.59,4.29 3.27,3.88 6.53,7.87 9.81,11.96 2.45,2.96 4.91,6.03 7.35,9.3 2.56,3.28 5.01,6.54 7.57,9.82 24.62,32.71 47.11,68.39 48.75,73.19 3.67,11.24 -2.35,109.56 -51.52,129.09z"/>
  <path class="fil0" d="M3896.16 433.02c-2.04,-4.7 -3.27,-7.56 -3.27,-7.56l-1.44 -1.43 -4.08 -4.39 -68.18 -71.55 60.2 -121.84 9.09 -16.86c0,0 19.33,23.1 42.22,51.11 9.52,37.51 25.04,129.3 -34.54,172.53z"/>
  <path class="fil6" d="M3629.73 257.98c42.54,169.85 155.59,156.72 185.71,154.33 34.16,-2.72 145.36,-41.08 120.58,-214.42 -24.78,-173.35 -117.2,-207.27 -194.24,-192.15 -77.04,15.12 -154.61,82.37 -112.04,252.24z"/>
  <path class="fil0" d="M3654.58 224.28c3.75,-1.73 6.93,-3.95 10.48,-6.05 3.98,-2.35 7.42,-3.82 9.51,-8.19 1.13,-2.35 -0.2,-5.93 -2.37,-7.23 -5.07,-3.02 -10.68,-1.36 -15.59,1.29 -5.35,2.87 -8.74,6.46 -11.06,12.06 -2.25,5.41 4.08,10.4 9.03,8.13z"/>
  <path class="fil0" d="M3770.94 190.23c-4.06,0.83 -7.93,0.91 -12.03,1.31 -4.62,0.44 -8.25,1.28 -12.51,-1.02 -2.28,-1.23 -3.35,-4.9 -2.35,-7.23 2.29,-5.44 7.82,-7.39 13.35,-8.16 6.02,-0.83 10.85,0.07 16.03,3.21 5.01,3.05 2.85,10.81 -2.49,11.89z"/>
  <path class="fil0" d="M3762.47 239.46l1.18 0.75c3.07,11.52 8.53,24.2 20,24.89l0.1 0.66c-13.15,2.02 -20.22,-14.89 -21.28,-26.3z"/>
  <path class="fil0" d="M3769.08 224.48c17.94,-6.92 30.46,29.49 13.84,35.89 -16.37,6.3 -28.88,-30.1 -13.84,-35.89z"/>
  <path class="fil0" d="M3776.89 223.94c3.88,0.97 8.25,3.53 12.21,2.59 4.58,-1.08 6.63,-6.05 8.26,-10.71l0.77 0.21c2.49,6.93 2.27,15.02 -4.85,18.63 -6.49,3.29 -13.52,-1.2 -17.67,-7.62 -0.77,-1.18 -0.3,-3.49 1.27,-3.1z"/>
  <path class="fil0" d="M3690.07 258.61l-0.51 1.29c4.31,11.12 7.39,24.58 -1.47,31.9l0.31 0.6c11.79,-6.12 7.54,-23.95 1.67,-33.79z"/>
  <path class="fil0" d="M3675.88 250.41c-18.56,5 -7.19,41.77 10.02,37.14 16.93,-4.56 5.55,-41.33 -10.02,-37.14z"/>
  <path class="fil0" d="M3668.97 255.2c-2.31,2.84 -4.09,7.26 -7.48,8.57 -3.95,1.51 -8.16,-1.55 -11.9,-4.56l-0.45 0.58c1.99,7.09 6.57,13.68 13.75,12.95 6.54,-0.67 9.2,-8.11 8.71,-15.63 -0.09,-1.39 -1.7,-3.06 -2.63,-1.91z"/>
  <path class="fil0" d="M3786.65 327.88c-1.63,3.64 -2.86,8.26 -6.76,10.19 -3.73,1.84 -8.93,1.89 -13.02,1.92l-0.26 0.76c4.56,3.11 11.67,3.38 16.45,0.45 4.67,-2.86 5.43,-8.19 4.85,-13.25l-1.27 -0.08z"/>
  <path class="fil0" d="M3725.8 302.6c0,0 3.26,17.68 5.88,25.65 0.24,0.75 2.3,0.47 5.06,-0.28l0.31 -0.09c14.81,-2.45 27.39,-12 32.13,-26.32l-1.54 -0.72c-7.97,11.2 -18.92,17.02 -31.35,21.37 -1.29,-2.02 -4.56,-30.47 -5.85,-30.15 -4.49,1.07 -12.09,6.87 -16.76,10.08 -7.84,-36.62 -9.75,-74.21 -18.12,-110.57 -0.32,-1.29 -2.25,-1.07 -2.25,0.18 -0.78,39.53 7.32,81.89 14.45,119.92 0.85,4.76 15.28,-6.67 18.03,-9.08z"/>
  <path class="fil0" d="M3735.36 321.64c0,0 10.35,9.23 22.24,10.87 4.39,0.62 8.89,0.28 13.24,-1.9 8.93,-4.45 7.38,-13.17 4.1,-20.24 -2.67,-5.82 -6.6,-10.48 -6.6,-10.48 0,0 -11.12,15.79 -32.97,21.75z"/>
  <path class="fil4" d="M3757.6 332.51c4.39,0.62 8.89,0.28 13.24,-1.9 8.93,-4.45 7.38,-13.17 4.1,-20.24 -9.92,3.15 -18.53,12.11 -17.34,22.14z"/>
  <path class="fil0" d="M3919.5 218.21c-17.49,-0.5 -35.94,-45.82 -35.94,-45.82 0,0 -65.1,0.63 -123.81,-35.96 -41.98,-26.15 -59.1,-56.24 -59.1,-56.24 -9.99,100.58 -83.93,136.7 -83.93,136.7 0,0 -26,-73.64 0.98,-123.36 26.99,-49.72 88.12,-112.15 190.99,-88.27 0,0 74.72,14.76 103.98,68.77 29.25,54 30.57,144.86 6.83,144.18z"/>
  <path class="fil0" d="M3696.36 69.41l0.95 -0.11c10.73,45.27 53.47,72.26 94.62,87.25 38.46,14.02 75.54,15.02 115.8,11.86 1.18,-0.1 1.32,1.55 0.21,1.8 -40.89,9.26 -87.98,1.65 -126.24,-14.24 -38.24,-15.89 -78.23,-42.79 -85.35,-86.55z"/>
  <path class="fil6" d="M3913.61 224.84c0,0 18.32,-64.13 46.2,-59.33 27.89,4.8 26.55,89.08 2.56,108.81 -24,19.73 -42.71,-2.12 -42.71,-2.12l-6.05 -47.36z"/>
  <path class="fil0" d="M3958.82 189.66l0.39 0.69c-16.58,14.48 -20.58,35.88 -21.3,56.89 3.28,-9.13 9.75,-15.73 21.67,-12.2l-0.17 1.21c-8.49,1.04 -13.72,4.37 -16.87,12.54 -2.24,5.79 -2.87,12.36 -3.8,18.46 -0.3,2.03 -3.74,2.18 -3.77,-0.03l0 -0.51c-8.97,-24.44 -1.72,-65.47 23.85,-77.05z"/>
  <path class="fil8" d="M3949.14 266.61c17.29,-5.87 26.46,20.99 9.13,26.88 -17.29,5.88 -26.45,-20.99 -9.13,-26.88z"/>
  <path class="fil5" d="M3556.3 547.21c0,-108 -118.53,-195.57 -264.73,-195.57 -146.22,0 -264.75,87.57 -264.75,195.57 0,108.03 118.53,195.58 264.75,195.58 146.2,0 264.73,-87.55 264.73,-195.58z"/>
  <polygon class="fil5" points="3435.91,415.51 3565.39,382.56 3517.59,489.54 "/>
  <path class="fil0" d="M3196.33 547.21c0,-15.16 -12.3,-27.45 -27.46,-27.45 -15.16,0 -27.45,12.29 -27.45,27.45 0,15.17 12.29,27.46 27.45,27.46 15.16,0 27.46,-12.29 27.46,-27.46z"/>
  <path class="fil0" d="M3319.02 547.21c0,-15.16 -12.29,-27.45 -27.45,-27.45 -15.16,0 -27.46,12.29 -27.46,27.45 0,15.17 12.3,27.46 27.46,27.46 15.16,0 27.45,-12.29 27.45,-27.46z"/>
  <path class="fil0" d="M3441.71 547.21c0,-15.16 -12.28,-27.45 -27.45,-27.45 -15.16,0 -27.44,12.29 -27.44,27.45 0,15.17 12.28,27.46 27.44,27.46 15.17,0 27.45,-12.29 27.45,-27.46z"/>
  <path class="fil0" d="M5459.02 1139.82l0 2502.26c0,98.9 -80.03,178.94 -178.94,178.94l-3485.47 0c-98.91,0 -178.94,-80.04 -178.94,-178.94l0 -2502.26c0,-98.9 80.03,-178.94 178.94,-178.94l3485.47 0c98.9,0 178.94,80.04 178.94,178.94z"/>
  <polygon class="fil9" points="1809.77,3200.72 5264.92,3200.72 5264.92,1146.84 1809.77,1146.84 "/>
  <path class="fil3" d="M5459.02 3399.12l0 242.95c0,98.9 -80.03,178.94 -178.94,178.94l-3485.47 0c-98.91,0 -178.94,-80.04 -178.94,-178.94l0 -242.95 3843.35 0z"/>
  <path class="fil2" d="M4356.98 4473.61l-1639.28 0 0 -27.17c0,-60.64 49.16,-109.81 109.81,-109.81l1419.67 0c60.63,0 109.79,49.16 109.79,109.81l0 27.17z"/>
  <polygon class="fil3" points="4161.77,4336.74 2912.89,4336.74 2944.62,4098.98 2946.19,4087.78 2949.13,4065.46 2950.6,4054.26 2953.64,4031.95 2954.06,4028.5 2955.1,4020.73 2958.14,3998.44 2959.61,3987.22 2981.8,3821.11 4092.86,3821.11 4113.8,3977.8 4114.85,3985.33 4118.31,4011.32 4119.26,4018.86 4120.62,4028.5 4122.81,4044.83 4123.76,4052.38 4127.21,4078.45 4128.26,4085.9 "/>
  <polygon class="fil10" points="1809.77,1257.94 5264.92,1257.94 5264.92,1146.84 1809.77,1146.84 "/>
  <polygon class="fil3" points="2022.04,2258.12 2955.58,2258.12 2955.58,1587.64 2022.04,1587.64 "/>
  <path class="fil9" d="M2874.97 1937.8c0,104.83 -84.95,189.76 -189.77,189.76 -62.22,0 -117.4,-30 -152.09,-76.17l82.6 0 0 -134.33 -119.15 0c10.37,-95.07 90.87,-169.14 188.64,-169.14 104.83,0 189.77,85.06 189.77,189.88z"/>
  <path class="fil9" d="M2533.1 2051.39l-405.09 0 0 -134.33 368.54 0c-0.74,6.79 -1.11,13.7 -1.11,20.74 0,42.47 14.08,81.86 37.66,113.59z"/>
  <polygon class="fil3" points="5040.03,3010.93 5040.03,3005.41 3084.84,3005.41 3084.84,2377.78 5034.51,2377.78 5034.51,3010.93 5040.03,3010.93 5040.03,3005.41 5040.03,3010.93 5045.55,3010.93 5045.55,2366.73 3073.8,2366.73 3073.8,3016.45 5045.55,3016.45 5045.55,3010.93 "/>
  <polygon class="fil3" points="3077.61,2377.5 5038.32,3016.19 5041.74,3005.68 3081.03,2367 "/>
  <polygon class="fil3" points="5038.32,2367 3077.61,3005.68 3081.03,3016.19 5041.74,2377.5 "/>
  <polygon class="fil2" points="3079.32,1620.49 3982.74,1620.49 3982.74,1587.64 3079.32,1587.64 "/>
  <polygon class="fil2" points="3079.32,1698.13 3982.74,1698.13 3982.74,1665.27 3079.32,1665.27 "/>
  <polygon class="fil2" points="3079.32,1775.76 3982.74,1775.76 3982.74,1742.91 3079.32,1742.91 "/>
  <polygon class="fil2" points="3079.32,1853.4 3982.74,1853.4 3982.74,1820.55 3079.32,1820.55 "/>
  <polygon class="fil2" points="3079.32,1931.04 3603.88,1931.04 3603.88,1898.2 3079.32,1898.2 "/>
  <polygon class="fil2" points="3079.32,2008.69 3982.74,2008.69 3982.74,1975.84 3079.32,1975.84 "/>
  <polygon class="fil2" points="3079.32,2086.33 3982.74,2086.33 3982.74,2053.48 3079.32,2053.48 "/>
  <polygon class="fil2" points="3079.32,2163.96 3982.74,2163.96 3982.74,2131.11 3079.32,2131.11 "/>
  <polygon class="fil2" points="3079.32,2241.6 3762.09,2241.6 3762.09,2208.75 3079.32,2208.75 "/>
  <polygon class="fil7" points="2023.1,3010.93 2955.58,3010.93 2955.58,2372.26 2023.1,2372.26 "/>
  <polygon class="fil9" points="2102.76,3010.93 2159.18,3010.93 2159.18,2954.53 2102.76,2954.53 "/>
  <polygon class="fil4" points="2222.22,3010.93 2278.63,3010.93 2278.63,2793.01 2222.22,2793.01 "/>
  <polygon class="fil10" points="2341.67,3010.93 2398.09,3010.93 2398.09,2691.59 2341.67,2691.59 "/>
  <polygon class="fil5" points="2461.13,3010.93 2517.54,3010.93 2517.54,2545.06 2461.13,2545.06 "/>
  <polygon class="fil11" points="2580.58,3010.93 2637,3010.93 2637,2430.24 2580.58,2430.24 "/>
  <polygon class="fil9" points="2700.05,3010.93 2756.46,3010.93 2756.46,2863.26 2700.05,2863.26 "/>
  <polygon class="fil4" points="2819.51,3010.93 2875.91,3010.93 2875.91,2674.2 2819.51,2674.2 "/>
  <polygon class="fil5" points="5029.01,2308.91 4106.56,2183.62 4213.3,1520.33 5135.74,1645.62 "/>
  <polygon class="fil4" points="4956,2221.3 4631.61,2177.24 4862.27,1730.38 "/>
  <polygon class="fil4" points="4581.27,2076.17 4256.88,2032.11 4460.07,1785.92 "/>
  <path class="fil4" d="M1898.06 1202.38c0,15.22 -12.33,27.56 -27.55,27.56 -15.22,0 -27.55,-12.35 -27.55,-27.56 0,-15.2 12.33,-27.55 27.55,-27.55 15.22,0 27.55,12.35 27.55,27.55z"/>
  <path class="fil9" d="M2010.56 1202.38c0,15.22 -12.33,27.56 -27.55,27.56 -15.22,0 -27.55,-12.35 -27.55,-27.56 0,-15.2 12.33,-27.55 27.55,-27.55 15.22,0 27.55,12.35 27.55,27.55z"/>
  <path class="fil5" d="M2123.06 1202.38c0,15.22 -12.33,27.56 -27.55,27.56 -15.22,0 -27.55,-12.35 -27.55,-27.56 0,-15.2 12.33,-27.55 27.55,-27.55 15.22,0 27.55,12.35 27.55,27.55z"/>
  <polygon class="fil3" points="3798.13,1480.9 5040.03,1480.9 5040.03,1370.08 3798.13,1370.08 "/>
  <polygon class="fil7" points="2022.04,1480.9 2132.85,1480.9 2132.85,1370.08 2022.04,1370.08 "/>
  <polygon class="fil5" points="2173.91,1480.9 2284.73,1480.9 2284.73,1370.08 2173.91,1370.08 "/>
  <polygon class="fil4" points="2325.78,1480.9 2436.6,1480.9 2436.6,1370.08 2325.78,1370.08 "/>
  <polygon class="fil3" points="2634.03,1480.9 3175.94,1480.9 3175.94,1370.08 2634.03,1370.08 "/>
  <path class="fil2" d="M3605.78 3581.71c0,38.48 -31.21,69.68 -69.68,69.68 -38.48,0 -69.68,-31.19 -69.68,-69.68 0,-38.48 31.19,-69.69 69.68,-69.69 38.47,0 69.68,31.2 69.68,69.69z"/>
  <polygon class="fil0" points="4120.62,4028.5 2954.06,4028.5 2955.1,4020.73 2958.14,3998.44 2959.61,3987.22 2981.8,3821.11 4092.86,3821.11 4113.8,3977.8 4114.85,3985.33 4118.31,4011.32 4119.26,4018.86 "/>
  <path class="fil6" d="M3427.11 933.73c-38.89,-10.03 -91.34,-44.05 -121.11,-41.92 -26.87,1.91 -31.89,25.52 -31.89,25.52 0,0 -20.1,-26.24 -46.79,-19.85 -13.74,3.29 -20.56,28.11 -20.56,28.11 0,0 -17.02,-20.32 -40.4,-13.17 -18.64,5.69 -22.68,29.71 -22.68,29.71 0,0 -25.41,-11.88 -42.53,0 -34.73,24.1 -3.01,188.33 62.38,202.02 30.49,6.38 20.56,-33.31 20.56,-33.31 0,0 28.06,53.63 62.08,47.96 34.02,-5.67 18.01,-56.47 18.01,-56.47 0,0 27.65,51.74 62.33,42.3 36.11,-9.83 11.4,-57.9 11.4,-57.9 0,0 31.81,31.74 56.7,18.43 41.11,-21.96 -34.73,-101.36 -33.14,-139.1l66.18 0 -0.53 -32.33z"/>
  <path class="fil6" d="M3369 910.8c37.64,6.28 72.61,-45.59 109.47,-44.75 49.87,1.13 12.06,85.3 -56.7,100.01l-52.77 0 0 -55.26z"/>
  <path class="fil0" d="M3142.48 945.84l-0.87 0c-2.74,56.56 11.59,119.54 42.76,167.23 1.01,1.56 4,0.57 3.2,-1.36 -22.72,-55.3 -38.45,-106.18 -45.09,-165.88z"/>
  <path class="fil0" d="M3206.25 924.86l-1.17 0.15c-2.5,58.3 15.6,128.8 57.98,179.54 1.45,1.75 4.5,1.84 2.98,-0.28 -25.63,-35.88 -54.08,-125.64 -59.79,-179.4z"/>
  <path class="fil0" d="M3342.15 1089.46c-38.76,-50.23 -57.51,-107.83 -68.27,-169.76l-1.34 0.19c-2.99,31.73 7.99,70.48 19.07,99.92 10.62,28.2 25.87,51.5 48.78,71 0.9,0.76 2.59,-0.28 1.77,-1.35z"/>
  <path class="fil6" d="M4092.85 370.88c89.47,-4.25 411.99,153.73 573.04,336.46 113.35,128.62 -60.03,694.61 -97.27,704.84 -37.24,10.21 -211.46,-29.39 -239.11,-60.04 -27.66,-30.66 138.84,-497.44 126.06,-525.56 -12.79,-28.11 -194.82,-152.88 -306.49,-273 -64.33,-69.2 -119.26,-179.71 -56.23,-182.7z"/>
  <path class="fil6" d="M4346.02 1234.02c-6.35,25.55 -61.78,197.32 -62.94,243.33 -1.17,45.99 19.8,171.21 54.94,175.68 35.14,4.47 36.41,-34.5 36.41,-34.5 0,0 11.51,55.57 47.27,56.85 35.79,1.28 35.79,-59.41 35.79,-59.41 0,0 15.97,56.22 51.74,54.95 35.76,-1.28 25.55,-62.3 25.55,-62.3 0,0 25.48,49.99 54.5,36.53 34.93,-16.18 -11.06,-138.4 -12.35,-149.91 -1.27,-11.5 53.43,-88.11 31.19,-159.04l26.62 -79.98 -288.72 -22.19z"/>
  <path class="fil0" d="M4534.76 1605.89c-28.94,-67 -30.01,-101.32 -18.89,-172.3 0.21,-1.38 -1.79,-2.02 -2.16,-0.59 -17.21,68.51 -22.07,111.76 17.88,174.47 1.96,3.06 4.56,1.62 3.18,-1.57z"/>
  <path class="fil0" d="M4459.39 1618.53c-23.98,-72.22 -25.46,-109.43 -19.29,-184.63 0.09,-1.07 -1.7,-1.32 -1.89,-0.25 -12.22,73.27 -16.1,116.51 17.35,185.52 1.5,3.11 4.92,2.66 3.83,-0.64z"/>
  <path class="fil0" d="M4374.74 1617.57c-18.16,-71.59 -21.55,-112.32 -6.18,-184.56 0.35,-1.7 -2.1,-2.4 -2.63,-0.72 -22.83,72.14 -18.97,122.99 6.58,185.6 1.73,4.27 3.38,4.18 2.23,-0.32z"/>
  <path class="fil7" d="M4080.92 466.78c83.05,154.52 356.75,334.68 361.85,356.4 5.11,21.72 -109.87,271.9 -113.7,322.3 -3.83,50.4 21.94,69.43 21.94,69.43l285.22 32.74c0,0 42.92,7.62 76.14,-70.95 33.22,-78.55 34.51,-366.31 -21.72,-449.37 -56.22,-83.04 -243.39,-264.54 -549.68,-356.46 -76.66,-23 -111.68,-0.17 -60.05,95.9z"/>
  <path class="fil7" d="M4351.01 1214.91l291.09 32.94 -22.15 77.02c-0.85,0.85 -288.74,-33.21 -293.01,-37.48 -4.26,-4.26 24.07,-72.48 24.07,-72.48z"/>
  <path class="fil0" d="M4635.93 1246.09c-44.04,-6.6 -231.15,-35.55 -279.95,-33.31 -1.72,0.08 -2.26,2.74 -0.42,3.15 45.15,9.97 230.32,31.94 279.9,33.5 3.7,0.12 4.16,-2.78 0.46,-3.34z"/>
  <path class="fil0" d="M4079.75 379.76c-11.9,52.3 -24.2,117.2 -69.04,148.4 -46.52,32.37 -106.14,24.1 -147.36,-14.42l-0.69 0.75c36.72,44.15 93.54,57.52 142.89,29.32 52.98,-30.28 70.1,-103.58 77.43,-163.56 0.25,-2.03 -2.79,-2.41 -3.23,-0.49z"/>
  <path class="fil11" d="M2387.01 4646.47c-25.24,8.36 -746.94,6.27 -774.43,-11.19 -10.46,-6.58 -16.28,-111.7 -19.71,-238.94 -0.74,-27.47 -1.34,-55.85 -1.79,-84.67 -3.14,-187.1 -2.09,-385.72 -2.09,-385.72l482.78 0 -11.2 385.72 -2.39 84.67c0,0 275.96,124.4 304.04,146.8 27.93,22.4 50.02,94.98 24.79,103.33z"/>
  <path class="fil9" d="M2387.01 4646.47c-25.24,8.36 -746.94,6.27 -774.43,-11.19 -12.69,-8.08 -18.66,-161.57 -21.5,-323.61l469.5 0 -2.39 84.67c0,0 275.96,124.4 304.04,146.8 27.93,22.4 50.02,94.98 24.79,103.33z"/>
  <path class="fil4" d="M2387.01 4646.47c-25.24,8.36 -746.94,6.27 -774.43,-11.19 -10.46,-6.58 -16.28,-111.7 -19.71,-238.94l465.31 0c0,0 275.96,124.4 304.04,146.8 27.93,22.4 50.02,94.98 24.79,103.33z"/>
  <path class="fil0" d="M2376.74 4617.57c-120.97,-3.32 -609.2,-5.29 -729.05,0.62l0 0.75c119.83,5.91 608.08,3.94 729.05,0.62 2.55,-0.08 2.55,-1.92 0,-1.99z"/>
  <path class="fil0" d="M2315.88 4517.04c-28.69,-1.26 -56.77,12.29 -72.46,29.33 -15.08,16.37 -28,39.42 -27.23,64.52l1.47 0c7.05,-47.32 50.23,-88.78 98.22,-92.34l0 -1.5z"/>
  <path class="fil0" d="M2105.08 4408.52c-48.42,-0.82 -104.61,16.11 -134.82,55.63 -1.18,1.52 1.02,3.17 2.46,2.43 43.84,-22.43 85.5,-39.13 133.17,-52.1 3.36,-0.92 2.65,-5.92 -0.82,-5.96z"/>
  <path class="fil0" d="M2142.42 4423.19c-48.42,-0.81 -104.6,16.12 -134.82,55.63 -1.17,1.53 1.03,3.17 2.46,2.43 43.84,-22.44 85.5,-39.12 133.17,-52.1 3.37,-0.92 2.65,-5.9 -0.82,-5.97z"/>
  <path class="fil0" d="M2179.76 4437.88c-48.42,-0.82 -104.61,16.11 -134.81,55.63 -1.17,1.54 1.01,3.17 2.46,2.44 43.84,-22.45 85.49,-39.14 133.17,-52.11 3.36,-0.91 2.65,-5.91 -0.82,-5.96z"/>
  <path class="fil0" d="M2217.09 4452.55c-48.42,-0.81 -104.61,16.12 -134.82,55.63 -1.17,1.53 1.03,3.16 2.46,2.44 43.84,-22.45 85.5,-39.13 133.17,-52.11 3.36,-0.92 2.65,-5.89 -0.82,-5.96z"/>
  <path class="fil0" d="M1678.85 4503.36c-54.33,0 -54.42,84.44 0,84.44 54.34,0 54.43,-84.44 0,-84.44z"/>
  <path class="fil0" d="M2098.08 4382.19c-16.72,12.1 -33.91,23.29 -50.17,36.01 8.72,-24.12 16.35,-48.47 27.49,-71.69 5.32,-11.08 10.99,-22.34 17.78,-32.61 10.57,-15.97 58.21,-56.29 62.88,-3.6 2.57,29.06 -38.08,57.48 -57.99,71.89zm59.69 -102.75c-24.45,-20.4 -55.38,-0.62 -70.55,20.45 -24.58,34.11 -41.54,81.97 -44.36,123.69 -0.08,1.03 0.7,1.45 1.5,1.39 1.03,3.47 5.11,6.39 8.69,3.92 34.55,-23.74 74.42,-44.84 100.65,-78.49 15.32,-19.63 27.2,-51.67 4.07,-70.97z"/>
  <path class="fil0" d="M1893.35 4413.55c-32.64,-41.64 29.7,-44.81 48.33,-40.39 11.97,2.84 23.83,7.19 35.28,11.63 24.01,9.31 46.23,21.86 69.08,33.47 -20.55,1.85 -40.76,5.46 -61.21,8.06 -24.39,3.1 -73.49,10.18 -91.49,-12.77zm29.16 27.64c42.14,6.59 85.65,-5.28 127.11,-11.58 4.29,-0.66 5.28,-5.59 3.64,-8.83l0.16 -2.04c-30.6,-28.51 -75.71,-51.82 -116.97,-59.89 -25.48,-4.99 -61.56,1.76 -65.45,33.36 -3.68,29.89 26.91,45.13 51.51,48.98z"/>
  <path class="fil11" d="M448.28 4422.32c-21.65,-15.44 -446.14,-599.11 -448.27,-631.61 -0.87,-12.32 80.53,-79.1 181.19,-156.99 21.73,-16.84 44.28,-34.06 67.27,-51.46 149.15,-113.02 310.06,-229.46 310.06,-229.46l285.09 389.62 -317.91 218.74 -69.74 48.06c0,0 62.58,296.18 61.07,332.06 -1.59,35.76 -47.11,96.44 -68.76,81.03z"/>
  <path class="fil9" d="M448.28 4422.32c-21.65,-15.44 -446.14,-599.11 -448.27,-631.61 -0.98,-15.01 119.38,-110.48 248.46,-208.45l277.24 378.9 -69.74 48.06c0,0 62.58,296.18 61.07,332.06 -1.59,35.76 -47.11,96.44 -68.76,81.03z"/>
  <path class="fil4" d="M448.28 4422.32c-21.65,-15.44 -446.14,-599.11 -448.27,-631.61 -0.87,-12.32 80.53,-79.1 181.19,-156.99l274.77 375.5c0,0 62.58,296.18 61.07,332.06 -1.59,35.76 -47.11,96.44 -68.76,81.03z"/>
  <path class="fil0" d="M465.54 4396.97c-68.75,-99.6 -355.46,-494.78 -430.99,-588l-0.62 0.45c65.99,100.18 355.89,493.04 430.01,588.71 1.56,2.02 3.06,0.94 1.6,-1.16z"/>
  <path class="fil0" d="M510.73 4288.47c-15.93,-23.9 -43.44,-38.56 -66.46,-41.15 -22.12,-2.5 -48.35,0.68 -68.14,16.13l0.86 1.17c42.36,-22.25 101.31,-11.88 132.52,24.76l1.22 -0.9z"/>
  <path class="fil0" d="M473.83 4054.27c-27.93,-39.55 -74.78,-74.92 -124.5,-75.95 -1.92,-0.05 -1.96,2.69 -0.51,3.41 43.99,22.14 82.06,45.89 120.68,76.71 2.73,2.18 6.33,-1.35 4.33,-4.17z"/>
  <path class="fil0" d="M484.03 4093.06c-27.94,-39.55 -74.78,-74.9 -124.5,-75.95 -1.93,-0.04 -1.96,2.69 -0.52,3.43 44,22.13 82.06,45.89 120.69,76.7 2.73,2.17 6.33,-1.35 4.33,-4.18z"/>
  <path class="fil0" d="M494.24 4131.87c-27.94,-39.56 -74.78,-74.91 -124.5,-75.95 -1.93,-0.05 -1.97,2.69 -0.52,3.42 44.01,22.12 82.07,45.89 120.69,76.72 2.72,2.16 6.33,-1.35 4.33,-4.19z"/>
  <path class="fil0" d="M504.44 4170.68c-27.94,-39.55 -74.78,-74.91 -124.52,-75.95 -1.92,-0.04 -1.95,2.7 -0.51,3.42 43.99,22.13 82.06,45.88 120.69,76.7 2.71,2.18 6.33,-1.35 4.33,-4.18z"/>
  <path class="fil0" d="M145.6 3766.3c-32.08,-43.84 -100.27,5.94 -68.14,49.86 32.08,43.85 100.28,-5.94 68.14,-49.86z"/>
  <path class="fil0" d="M490.93 4033.08c-19.62,-6.35 -38.81,-13.62 -58.67,-19.24 24.6,-7.19 48.76,-15.41 74.08,-20.13 12.07,-2.24 24.52,-4.32 36.81,-4.9 19.13,-0.9 79.81,13.73 40.04,48.62 -21.93,19.23 -68.87,3.2 -92.27,-4.35zm118.17 -12.49c2.02,-31.78 -32.2,-45.06 -58.16,-44.89 -42.04,0.32 -90.67,14.89 -126.01,37.25l-0.23 2.04c-2.21,2.88 -2.14,7.91 1.96,9.34 39.56,13.85 80.14,33.58 122.78,34.87 24.89,0.76 57.76,-8.57 59.67,-38.62z"/>
  <path class="fil0" d="M344.75 3886.36c14.32,-50.93 53.7,-2.49 61.13,15.17 4.78,11.33 8.27,23.47 11.45,35.33 6.66,24.88 9.66,50.22 13.77,75.53 -13.63,-15.5 -28.46,-29.68 -42.64,-44.66 -16.9,-17.85 -51.6,-53.3 -43.71,-81.37zm-5.1 39.85c19.57,37.91 54.86,66.02 84.42,95.75 3.06,3.08 7.62,0.97 9.27,-2.26 0.78,0.2 1.62,-0.05 1.74,-1.08 4.94,-41.54 -2.88,-91.71 -20.74,-129.77 -11.02,-23.5 -37.76,-48.64 -65.57,-33.13 -26.29,14.69 -20.53,48.36 -9.12,70.49z"/>
  <path class="fil10" d="M2080.49 4257.93l-508.81 0c0,0 5.16,-372.81 -0.11,-675.25 -0.21,-10.55 -0.31,-20.97 -0.52,-31.4 -0.43,-20.97 -0.74,-41.72 -1.16,-62.05l0 -0.11c-0.21,-10.42 -0.43,-20.64 -0.64,-30.75 -0.42,-21.29 -0.84,-41.93 -1.37,-61.85 0,-2.94 -0.1,-6.01 -0.21,-8.95 -0.1,-7.6 -0.31,-15.07 -0.42,-22.34 -0.53,-21.49 -1.05,-41.94 -1.69,-61.11 -0.21,-10.52 -0.52,-20.64 -0.84,-30.33 -1.37,-45.51 -2.85,-81.44 -4.43,-103.67 -6.53,-94.49 -83.43,-518.21 -147.16,-859.11l-0.32 -1.47c-1.05,-5.17 -2,-10.44 -2.95,-15.59l-0.32 -1.48c-0.95,-5.06 -1.89,-10.11 -2.74,-15.06l-0.1 -0.53 -0.32 -1.47c-0.95,-5.27 -1.9,-10.44 -2.95,-15.49l-0.21 -1.47c-42.14,-224.61 -76.27,-401.06 -76.27,-401.06l536.95 0c0,0 165.92,1121.54 188.46,1307.57 22.55,185.94 28.11,1092.97 28.11,1092.97z"/>
  <path class="fil0" d="M2055.94 4166.43c-79.39,-1.67 -56.58,-2.29 -136,-3.07 -38.86,-0.38 -294.21,-2.59 -330.52,3.41l0 1.62c36.31,6.02 291.66,3.79 330.52,3.42 79.42,-0.76 56.6,-1.41 136,-3.06 1.49,-0.03 1.49,-2.28 0,-2.32z"/>
  <path class="fil0" d="M1771.85 2294.33l-204.17 1093.25c-0.1,-7.6 -0.31,-15.07 -0.42,-22.34 -0.53,-21.49 -1.05,-41.94 -1.69,-61.11 -0.21,-10.52 -0.52,-20.64 -0.84,-30.33 -1.37,-45.51 -2.85,-81.44 -4.43,-103.67 -6.53,-94.49 -83.43,-518.21 -147.16,-859.11l-0.32 -1.47c-1.05,-5.17 -2,-10.44 -2.95,-15.59l-0.32 -1.48c-0.95,-5.06 -1.89,-10.11 -2.74,-15.06l365.03 16.91z"/>
  <path class="fil10" d="M1868.91 1857.44c8.67,265.71 -97.59,359.15 -97.59,359.15 0,0 -223.1,757.89 -347.11,987.09 -123.99,229.2 -843.67,760.15 -843.67,760.15l-326.95 -426.45c0,0 652.19,-396.29 708.56,-492.09 31.34,-53.29 274.67,-674.28 264.92,-732.42 -46.52,-277.28 44.99,-455.43 44.99,-455.43l596.86 0z"/>
  <path class="fil0" d="M1736.7 2294.74c-30.82,123.9 -42.49,171.19 -83.77,291.98 -41.18,120.48 -88.02,239.33 -124.89,361.23 -0.31,1.01 1.32,1.75 1.76,0.74 49.36,-115.81 90.94,-235.46 132.06,-354.41 42.22,-122.15 54.9,-171.04 83.3,-297.2 1.24,-5.49 -7.1,-7.84 -8.47,-2.33z"/>
  <path class="fil0" d="M1828.07 2242.12c-50.46,23.53 -98.32,54.42 -143.81,86.32 -1.79,1.25 -0.23,4.06 1.72,2.97 48.65,-27.23 98.4,-53.62 145.48,-83.49 3.7,-2.34 0.49,-7.6 -3.39,-5.8z"/>
  <path class="fil0" d="M1795.14 1873.24c-0.32,-1.75 -3.46,-1.81 -3.25,0.09 6.76,60.43 8.5,114.05 9.33,171.11 0.4,26.49 -5.48,173.73 -52.09,167.93 -7.81,-0.97 -12.49,-8.06 -14.88,-19.43 -2.88,-13.65 0.53,-31.14 1.37,-45.11 1.86,-30.88 2.72,-61.77 2.1,-92.7 -1.15,-57.76 -6.91,-115.03 -19.88,-171.35 -0.42,-1.86 -3.11,-1.43 -2.91,0.46 8.4,79.24 14.63,158.55 11.03,238.28 -1.73,38.3 -14.76,97.09 25.29,98.75 40.81,1.69 56.8,-96.16 58.98,-122.69 6.06,-74.04 -1.63,-152.48 -15.08,-225.35z"/>
  <path class="fil0" d="M1750.75 2216.14c-3.08,10.17 -5.32,20.65 -7.08,31.13 -1.35,8.15 -3.42,17.01 -1.66,25.15 0.34,1.59 2.49,1.52 3.22,0.34 4.63,-7.33 5.91,-16.82 8.05,-25.16 2.48,-9.65 5.18,-19.27 7.37,-29 1.47,-6.45 -8,-8.75 -9.92,-2.47z"/>
  <path class="fil0" d="M651.96 3893.93c-44.7,-65.64 -30.94,-47.44 -76.37,-112.57 -22.23,-31.88 -168.5,-241.21 -194.44,-267.3l-1.31 0.94c16.15,33.07 166.04,239.82 188.88,271.25 46.68,64.26 33.96,45.31 81.36,109.02 0.89,1.21 2.73,-0.11 1.89,-1.34z"/>
  <path class="fil11" d="M1645.44 1212.67c4.63,89.45 139.46,564.72 293.12,664.49 143.79,93.36 543.41,28.39 627.67,2.77 36.95,-11.24 -30.52,-235.43 -63.77,-259.92 -33.26,-24.48 -383.33,23.41 -412.56,13.48 -29.24,-9.94 -194.23,-217.2 -276.4,-342.29 -51.88,-78.96 -171.32,-141.55 -168.06,-78.53z"/>
  <path class="fil5" d="M1643.53 1195.5c-16.86,72.61 74.52,424.12 83.08,424.51 8.56,0.39 245.68,-120.43 246.2,-131.85 0.52,-11.41 -111.54,-161.96 -164.34,-222.03 -52.81,-60.07 -152.78,-123.04 -164.94,-70.64z"/>
  <path class="fil0" d="M1938.24 1442.79c-38.43,18.23 -187.5,102.29 -223.83,124.58 -2.53,1.56 -0.29,5.18 2.32,3.93 38.39,-18.54 188.6,-100.81 223.99,-124.31 2.64,-1.76 0.33,-5.53 -2.49,-4.2z"/>
  <path class="fil9" d="M1548.41 1195.77c-94.3,60 -155.83,165.9 -183.22,262.43 -27.41,96.52 -99,410.41 -83.37,419.19 15.63,8.79 207.05,146.83 375.58,115.22 168.54,-31.58 236.91,-75.47 258.41,-100.04 21.5,-24.56 -68.34,-463.32 -88.2,-542.3 -19.87,-78.98 -81.39,-166.43 -100.02,-168.84 -18.63,-2.39 -143.24,-8.52 -179.17,14.33z"/>
  <path class="fil3" d="M1763.68 1225.44c-0.26,-2.27 -3.51,-2.39 -3.62,0 -1.29,29.28 1.09,62.16 -21.8,84.46 -25.28,24.62 -65.46,10.64 -92.81,-2.89 -42.64,-21.1 -74.72,-57.27 -100.59,-96.39 -0.96,-1.45 -3.21,-0.17 -2.34,1.37 29.55,52.24 76.82,100.42 136.94,114.94 67.87,16.4 90.89,-43.68 84.23,-101.49z"/>
  <path class="fil5" d="M1606.24 2058.93c-3.48,1.79 -72.69,-7.58 -153.49,-36.98 -1.9,-0.63 -3.59,-1.16 -5.38,-1.9 -2,-0.84 -4.11,-1.58 -6.22,-2.32 -1.47,-0.63 -2.84,-1.16 -4.32,-1.68 -1.69,-0.74 -3.48,-1.37 -5.17,-2.01l-1.68 -0.63c-3.06,-1.26 -6.01,-2.53 -8.96,-3.79 -1.79,-0.74 -3.48,-1.48 -5.26,-2.32 -3.58,-1.37 -7.06,-2.96 -10.64,-4.43 -1.69,-0.84 -3.48,-1.69 -5.17,-2.42 -54.36,-24.87 -108.72,-58.9 -148.54,-104.71 -18.01,-20.66 49.09,-251.68 96.19,-403.9 0.52,-1.48 1.05,-3.16 1.47,-4.64 2,-6.53 4.11,-12.85 6.01,-19.07 0.53,-1.68 1.05,-3.27 1.58,-4.85l0.63 -2.42c1.9,-5.8 3.58,-11.38 5.27,-16.75 0.63,-1.58 1.05,-3.16 1.48,-4.64l0.42 -1.37c2.11,-6.22 3.9,-12.11 5.78,-17.8l0 -0.11c0.43,-1.58 0.95,-3.16 1.48,-4.74 5.69,-17.8 10.32,-32.24 13.59,-42.04 27.29,-82.91 176.35,-196.68 176.35,-196.68 0,0 51.09,878.91 44.57,882.18z"/>
  <path class="fil5" d="M1740.99 1186.87c0,0 119.37,803.83 130.65,810.93 11.3,7.1 66.44,-68.64 70.13,-107.99 3.69,-39.35 -99.94,-542.92 -122.41,-587.67 -22.47,-44.75 -78.37,-115.27 -78.37,-115.27z"/>
  <path class="fil0" d="M1855.79 1435.41c-1.27,-14.33 -2.66,-28.62 -3.2,-43.01l-1.24 -0.01c-0.2,8.23 -0.29,16.47 -0.08,24.71 -5.41,-22.06 -10.78,-44.15 -16.34,-66.15 -0.31,-1.19 -2.07,-0.69 -1.83,0.5 26.94,136.42 57.13,272.48 90.76,407.43 0.61,2.44 4.23,1.41 3.74,-1.01 -21.75,-107.88 -45.82,-215.46 -71.81,-322.45z"/>
  <path class="fil0" d="M1507.6 1344.14l-66.44 673.59c-1.47,-0.63 -2.84,-1.16 -4.32,-1.68 -1.69,-0.74 -3.48,-1.37 -5.17,-2.01l-1.68 -0.63c-3.06,-1.26 -6.01,-2.53 -8.96,-3.79 -1.79,-0.74 -3.48,-1.48 -5.26,-2.32 -3.58,-1.37 -7.06,-2.96 -10.64,-4.43 -1.69,-0.84 -3.48,-1.69 -5.17,-2.42 -54.36,-24.87 -108.72,-58.9 -148.54,-104.71 -18.01,-20.66 49.09,-251.68 96.19,-403.9 0.52,-1.48 1.05,-3.16 1.47,-4.64 2,-6.53 4.11,-12.85 6.01,-19.07 0.53,-1.68 1.05,-3.27 1.58,-4.85l0.63 -2.42c1.9,-5.8 3.58,-11.38 5.27,-16.75 0.63,-1.58 1.05,-3.16 1.48,-4.64l0.42 -1.37 143.13 -93.97z"/>
  <path class="fil11" d="M1713.12 1285.35c-39.45,12.97 -113.87,-42.62 -145.45,-90.15 -2.14,-3.28 0,-39.76 0.51,-84.23 0.21,-26.98 -0.2,-57.03 -2.55,-84.43 -0.52,-5.62 19.52,3.07 19.52,3.07l36.19 5.52 119.69 18.4c0,0 -11.96,58.88 -7.55,106.6 0.4,4 1.12,7.67 2.14,11.15l0.41 1.83c5.31,21.06 15.23,99.66 -22.9,112.23z"/>
  <path class="fil0" d="M1735.61 1171.29l0.41 1.83c-5.31,1.22 -11.14,2.04 -17.58,2.45 -115.91,7.37 -143,-138.49 -143,-138.49l45.89 -1.94 119.69 18.4c0,0 -11.96,58.88 -7.55,106.6 0.4,4 1.12,7.67 2.14,11.15z"/>
  <path class="fil0" d="M1758.81 733.62c0,0 57.06,28.74 63.46,89.32 6.39,60.58 -11.85,122.28 -17.24,124.97 -5.4,2.69 -46.22,-214.29 -46.22,-214.29z"/>
  <path class="fil11" d="M1527.45 810.13c-21.2,60.31 3.67,238.15 45.46,279.31 60.61,59.69 163.52,69.47 215.15,-4.22 50.07,-71.43 13.55,-302.63 -33.48,-340.41 -69.28,-55.66 -195.81,-23.77 -227.13,65.32z"/>
  <path class="fil0" d="M1531.99 988.99c21.59,3.1 35.61,-62.55 38.59,-87.42 2.62,-21.92 -0.98,-89.58 -0.69,-94.27 0.3,-4.7 99.03,44.89 148.6,21.59 49.56,-23.29 76.98,-75.32 74.29,-97.18 -2.69,-21.85 -75.8,-66.99 -132.02,-61.11 -56.24,5.91 -120.68,88.62 -120.68,88.62 0,0 20.87,-34.64 19.6,-37.03 -1.26,-2.38 -35.06,17.67 -37.68,44.38 0,0 2.1,-33.35 -0.73,-33.52 -2.82,-0.18 -26.52,31.81 -16.92,51.74 0,0 -28.03,33.14 -26.21,64.36 1.81,31.24 28.48,136.2 53.84,139.84z"/>
  <path class="fil0" d="M1753.71 812.27c-14.66,9.74 -29.23,20.2 -46.32,25.23 -18.47,5.43 -38.78,3.75 -57.4,-0.22 -19.02,-4.08 -36.9,-11.51 -53.64,-21.4 -14.65,-8.66 -28.19,-19.75 -43.55,-27.12 -3.83,-1.84 -7.08,3.79 -4.45,6.65 26,28.3 67.38,48.86 105.08,54.63 39.64,6.08 73.85,-7.91 100.54,-37.38l-0.25 -0.39z"/>
  <path class="fil11" d="M1557.59 977.57c0,0 -38.69,-57.97 -64.91,-44.3 -26.21,13.67 2.01,97.1 32.18,109.1 30.18,11.99 41.83,-15.73 41.83,-15.73l-9.09 -49.06z"/>
  <path class="fil0" d="M1501.37 956.99l-0.18 0.8c21.14,9.11 31.94,29.13 39.35,49.81 -6.17,-8.04 -14.71,-12.55 -25.45,-5.22l0.55 1.15c8.78,-1.68 15.05,-0.03 20.81,7.1 4.06,5.05 6.79,11.37 9.66,17.16 0.96,1.93 4.43,0.98 3.74,-1.23l-0.17 -0.5c1.14,-27.18 -19.18,-65.71 -48.32,-69.08z"/>
  <polygon class="fil12" points="1568.61,1087.55 1568.61,1087.49 "/>
  <path class="fil0" d="M1680.48 933.14l-0.78 1.19c2,11.93 2.27,25.94 -8.03,31.37l0.19 0.66c12.98,-3.64 12.42,-22.24 8.62,-33.23z"/>
  <path class="fil0" d="M1668.1 922.08c-19.48,1.13 -15.78,39.99 2.26,38.94 17.77,-1.04 14.06,-39.91 -2.26,-38.94z"/>
  <path class="fil0" d="M1754.18 924.49l1.03 0.97c0.77,12.07 3.68,25.77 14.95,28.73l-0.04 0.69c-13.46,-0.6 -17.15,-18.83 -15.94,-30.39z"/>
  <path class="fil0" d="M1763.73 910.89c19.23,-3.31 24.45,35.38 6.64,38.45 -17.53,3.02 -22.75,-35.67 -6.64,-38.45z"/>
  <path class="fil0" d="M1651.05 905.76c5.17,-1.84 9.63,-4.39 14.55,-6.75 5.56,-2.64 10.25,-4.18 13.53,-9.7 1.76,-2.96 0.44,-7.85 -2.28,-9.83 -6.33,-4.6 -13.93,-3.06 -20.74,-0.13 -7.4,3.16 -12.29,7.48 -16.02,14.59 -3.62,6.89 4.14,14.22 10.95,11.81z"/>
  <path class="fil0" d="M1776.89 889.89c-5.47,-0.36 -10.46,-1.61 -15.82,-2.54 -6.06,-1.04 -11.01,-1.24 -15.65,-5.65 -2.51,-2.38 -2.56,-7.43 -0.49,-10.08 4.84,-6.15 12.58,-6.71 19.92,-5.77 7.97,1.04 13.86,3.88 19.38,9.7 5.36,5.65 -0.12,14.83 -7.34,14.34z"/>
  <path class="fil0" d="M1694.42 1038.37c3.16,2.54 6.4,6.15 10.81,6.11 4.22,-0.05 8.96,-2.42 12.65,-4.27l0.57 0.57c-2.68,4.93 -8.98,8.44 -14.65,8 -5.54,-0.43 -8.69,-4.89 -10.49,-9.75l1.1 -0.65z"/>
  <path class="fil0" d="M1689.75 1004.67c7.73,9.8 18.19,14.57 29.09,15.63 4.88,0.51 9.93,0.19 14.82,-0.73l2.78 -0.59 2.59 -0.65c1.39,-0.34 2.05,-1.58 2.16,-2.92l-0.01 -0.09 -0.23 -1.22 -0.01 -0.09 -0.12 -1.05c-0.63,-9.3 -2.87,-23.31 -2.87,-23.31 3.56,1.37 21.55,7.5 20.82,2.69 -6.22,-39.87 -13.13,-84.2 -27.73,-122.56 -0.42,-1.29 -2.41,-0.8 -2.18,0.52 4.46,38.55 15.66,76.06 20.76,114.71 -5.71,-1.57 -15.07,-4.59 -19.91,-4.03 -1.28,0.51 4.81,27.01 4.77,31.19l-0.04 0.45c-15.38,3.48 -27.57,-0.11 -43.7,-9.13l-1.01 1.19z"/>
  <polygon class="fil2" points="2729.39,1872.01 980.38,2786.79 682.41,2217.08 2431.41,1302.28 "/>
  <path class="fil3" d="M1299.03 2213.42c29.69,56.76 30,121.28 6.23,175.76 -17.9,41.2 -49.31,76.85 -92.39,99.39 -43.09,22.54 -90.29,28 -134.34,19.2 -58.3,-11.56 -111.12,-48.62 -140.81,-105.37 -52.22,-99.84 -13.76,-223.09 86.08,-275.31 99.84,-52.22 223.02,-13.52 275.24,86.33z"/>
  <path class="fil9" d="M1159.46 2223.77c19.3,36.9 5.04,82.47 -31.87,101.77 -36.9,19.3 -82.47,5.04 -101.77,-31.87 -19.3,-36.91 -5.04,-82.47 31.87,-101.77 36.91,-19.3 82.47,-5.04 101.77,31.87z"/>
  <path class="fil9" d="M1301.04 2379.98c1.57,2.99 2.97,6.05 4.22,9.21 -17.9,41.2 -49.31,76.85 -92.39,99.39 -43.09,22.54 -90.29,28 -134.34,19.2 -1.88,-2.83 -3.6,-5.74 -5.16,-8.72 -32.89,-62.9 -8.68,-140.63 54.21,-173.54 62.9,-32.88 140.57,-8.44 173.46,54.46z"/>
  <polygon class="fil10" points="2377.82,1612.57 1397.92,2125.11 1389.44,2108.87 2369.33,1596.36 "/>
  <polygon class="fil9" points="1767.83,1998.3 1425.3,2177.45 1416.82,2161.23 1759.35,1982.07 "/>
  <polygon class="fil9" points="2432.58,1717.27 1452.68,2229.8 1444.2,2213.58 2424.09,1701.05 "/>
  <polygon class="fil9" points="2459.97,1769.62 1480.07,2282.15 1471.58,2265.92 2451.48,1753.4 "/>
  <polygon class="fil9" points="2106.48,2021.17 1507.44,2334.49 1498.96,2318.28 2098,2004.96 "/>
  <polygon class="fil5" points="1361.96,1950.23 1389.69,1970.47 1422.08,1959.09 1411.41,1991.73 1432.23,2019.03 1397.9,2018.96 1378.38,2047.19 1367.83,2014.52 1334.94,2004.68 1362.75,1984.55 "/>
  <polygon class="fil5" points="1484.84,1885.96 1512.58,1906.19 1544.97,1894.82 1534.28,1927.46 1555.12,1954.76 1520.78,1954.68 1501.26,1982.93 1490.71,1950.25 1457.82,1940.4 1485.64,1920.28 "/>
  <polygon class="fil5" points="1607.72,1821.68 1635.45,1841.92 1667.85,1830.56 1657.17,1863.18 1678,1890.48 1643.66,1890.42 1624.14,1918.65 1613.6,1885.98 1580.69,1876.14 1608.52,1856.01 "/>
  <polygon class="fil5" points="1730.59,1757.41 1758.33,1777.65 1790.73,1766.28 1780.05,1798.91 1800.88,1826.21 1766.55,1826.14 1747.01,1854.39 1736.48,1821.7 1703.58,1811.86 1731.4,1791.74 "/>
  <polygon class="fil5" points="1853.47,1693.13 1881.21,1713.38 1913.61,1702.01 1902.93,1734.64 1923.75,1761.94 1889.43,1761.86 1869.9,1790.12 1859.36,1757.43 1826.46,1747.59 1854.28,1727.46 "/>
  <path class="fil11" d="M2580.85 1519.62c27.18,29.56 81.92,59.76 94.09,87.01 10.98,24.6 -7.47,40.17 -7.47,40.17 0,0 32.61,5.33 39.58,31.89 3.58,13.66 -15.11,31.38 -15.11,31.38 0,0 25.94,5.42 30.67,29.42 3.78,19.12 -15.5,34.02 -15.5,34.02 0,0 22.46,16.78 20.05,37.5 -4.87,42 -164.64,91.49 -207.55,40.27 -20.01,-23.86 19.68,-33.83 19.68,-33.83 0,0 -60.52,0.55 -71.57,-32.12 -11.05,-32.68 41.29,-42.53 41.29,-42.53 0,0 -58.66,0.02 -66.7,-35.01 -8.36,-36.47 45.68,-37.35 45.68,-37.35 0,0 -42.99,-13.09 -43,-41.32 -0.01,-46.61 105.76,-17.17 138.29,-36.37l-31.2 -58.36 28.75 -14.77z"/>
  <path class="fil11" d="M2628.46 1560.03c-23.29,-30.23 5.95,-85.54 -12.17,-117.64 -24.5,-43.43 -80.89,29.6 -61.44,97.17l24.89 46.53 48.72 -26.06z"/>
  <path class="fil0" d="M2704.41 1776.31l0.41 0.77c-48.59,29.08 -110.87,46.14 -167.62,41.16 -1.87,-0.15 -2.41,-3.25 -0.33,-3.47 59.47,-6.05 111.77,-16.16 167.54,-38.47z"/>
  <path class="fil0" d="M2692.83 1710.17l0.42 1.1c-50.23,29.7 -120.93,46.98 -185.66,33.56 -2.22,-0.47 -3.75,-3.11 -1.15,-2.76 43.72,5.66 136.3,-11.56 186.39,-31.9z"/>
  <path class="fil0" d="M2483.59 1667.98c62.58,10.49 122.21,-0.14 181.89,-19.86l0.48 1.26c-26.57,17.61 -65.92,26.21 -97.12,30.32 -29.87,3.93 -57.61,1.47 -85.61,-9.53 -1.08,-0.42 -0.97,-2.41 0.36,-2.19z"/>
  <path class="fil11" d="M1484.66 1218.91c-75.86,47.62 -436.27,368.15 -448.54,550.95 -11.46,171.06 173.55,399.4 223.94,472.31 21.95,31.77 241.77,-101.72 246.95,-142.69 5.19,-40.97 -178.79,-285.82 -184.35,-316.2 -5.57,-30.37 106.09,-246.66 175.3,-379.36 43.69,-83.78 40.15,-218.57 -13.3,-185.02z"/>
  <path class="fil11" d="M1619.62 2310.01c29.47,38.25 99.91,64.22 79.17,93.54 -18.47,26.14 -65.53,3.4 -65.53,3.4 0,0 44.74,42.74 16.85,65.19 -27.88,22.45 -74.34,-13 -74.34,-13 0,0 38.84,33.91 9.42,54.31 -29.4,20.41 -74.39,-2.51 -74.39,-2.51 0,0 4.44,17.31 -22.8,22.38 -39.01,7.25 -103.41,-49.33 -130.02,-86.86 -26.61,-37.52 -96.32,-194.61 -106.55,-218.87l239.41 -172.9c0,0 78.14,44.89 114.97,72.49 36.83,27.6 132.95,152.24 103.63,178.18 -29.31,25.94 -95.68,-63.23 -116.71,-81.5 -21.02,-18.28 -28.83,-16.53 -25.76,-0.92 2.01,10.24 39.6,70.13 52.65,87.06z"/>
  <path class="fil0" d="M1631.6 2404.79c-63.3,-36.32 -84.72,-63.16 -118.33,-126.67 -0.65,-1.24 -2.65,-0.53 -2.08,0.83 27.25,65.17 49.26,102.7 118.8,129 3.41,1.28 4.62,-1.44 1.6,-3.16z"/>
  <path class="fil0" d="M1578.83 2460.05c-62.45,-43.47 -85.93,-72.37 -126.04,-136.29l-1.66 0.93c34.09,65.99 56.9,102.94 125.01,138.16 3.08,1.6 5.54,-0.82 2.68,-2.8z"/>
  <path class="fil0" d="M1510.48 2509.99c-57.43,-46.44 -84.55,-77.03 -115.5,-144.08 -0.74,-1.58 -3.11,-0.66 -2.53,0.98 24.92,71.46 58.47,109.86 116.43,144.7 3.95,2.36 5.21,1.33 1.6,-1.6z"/>
  <path class="fil5" d="M1498.72 1208.88c-71.62,20.66 -334.06,271.72 -330.23,279.39 3.83,7.66 224.86,155.87 235.09,150.76 10.23,-5.11 87.09,-176.32 113.81,-251.7 26.73,-75.39 33.03,-193.37 -18.67,-178.45z"/>
  <path class="fil0" d="M1426.37 1586.74c-34.65,-24.68 -180.68,-113.92 -217.85,-134.77 -2.59,-1.46 -4.66,2.26 -2.3,3.93 34.89,24.51 179.92,115.59 217.69,135.04 2.83,1.46 4.99,-2.4 2.46,-4.2z"/>
 </g>
</svg>
