<svg xmlns="http://www.w3.org/2000/svg" xmlns:xlink="http://www.w3.org/1999/xlink" width="809.11" height="581.148" viewBox="0 0 6700.82 4812.9" shape-rendering="geometricPrecision" image-rendering="optimizeQuality" fill-rule="evenodd" xmlns:v="https://vecta.io/nano"><style><![CDATA[.N{fill:#2b2c42}.O{fill:#cfd0e9}.P{fill:#fec240}.Q{fill:#ef4f4c}.R{fill:#fefefe}.S{fill:#f37565}.T{fill:#f59284}.U{fill:#9fa1cf}.V{fill:#2cbcaf}.W{fill:#4c5aa6}.X{clip-rule:nonzero}.Y{fill-rule:nonzero}]]></style><defs><clipPath id="A" class="X"><path d="M304.91 1799.34V1295.7l513.51 503.64H304.91z"/></clipPath><clipPath id="B" class="X"><path d="M5910.9 725.43c0 62.06-50.32 112.37-112.38 112.37s-112.36-50.31-112.36-112.37c0-62.07 50.31-112.38 112.36-112.38 62.06 0 112.38 50.31 112.38 112.38z"/></clipPath><clipPath id="C" class="X"><path d="M6464.58 1158.72c0 55.31-14.32 107.24-39.39 152.33h-548.87c-25.08-45.09-39.4-97.02-39.4-152.33 0-173.4 140.53-313.93 313.82-313.93 173.41 0 313.83 140.53 313.83 313.93z"/></clipPath><path id="D" d="M1224.23 249.69c0 18.25-14.8 33.06-33.06 33.06s-33.06-14.81-33.06-33.06c0-18.26 14.8-33.07 33.06-33.07s33.06 14.81 33.06 33.07z"/><path id="E" d="M3079.32 1620.49h903.42v-32.85h-903.42z"/><path id="F" d="M1898.06 1202.38c0 15.22-12.33 27.56-27.55 27.56s-27.55-12.35-27.55-27.56c0-15.2 12.33-27.55 27.55-27.55s27.55 12.35 27.55 27.55z"/></defs><g class="Y"><path d="M489.91 4118.01h6101.05c3.06 0 5.52-2.47 5.52-5.52s-2.46-5.52-5.52-5.52H489.91a5.52 5.52 0 1 0 0 11.04z" class="N"/><path d="M5750.71 4388.88c-211.02 0-382.21-36.02-382.21-80.6 0-44.45 171.19-80.49 382.21-80.49 211.12 0 382.31 36.04 382.31 80.49 0 44.58-171.19 80.6-382.31 80.6z" fill="#e1e0e4"/><g class="U"><path d="M4333.51 213.08h0c10.18 15.26 25.93 26.89 45.07 26.89h0c18.66 0 34.65-11.63 44.82-26.89h0c10.42-15.51 16.24-35.86 16.24-57.91h0c0-22.29-5.82-42.4-16.24-57.91h0c-10.18-15.51-26.17-26.9-44.82-26.9h0c-19.14 0-34.89 11.39-45.07 26.9h0c-10.66 15.51-16.23 35.62-16.47 57.91h0c.24 22.05 5.81 42.4 16.47 57.91zm67.6-15.02h0c-7.03 10.42-15.02 15.02-22.53 15.02h0c-7.51 0-15.75-4.6-23.02-15.02h0c-6.79-10.18-11.63-25.68-11.63-42.89h0c0-17.45 4.85-32.71 11.63-43.13h0c7.27-10.18 15.51-15.02 23.02-14.78h0c7.51-.24 15.51 4.6 22.53 14.78h0c6.78 10.42 11.63 25.68 11.63 43.13h0c0 17.2-4.85 32.71-11.63 42.89zm137.14-115.09c-.49-.49-.49-.97-.49-1.7 0-.24-.24-.73-.24-1.21-.24-.24-.24-.73-.49-1.21 0-.49-.24-.73-.49-1.21 0-.24-.24-.49-.24-.73l-.24-.49-.97-.97c-.24-.49-.49-.73-.73-.97s-.49-.73-.97-.97c-.24-.24-.73-.49-.97-.73-.49-.24-.73-.48-.97-.73-.48 0-.73-.24-1.45-.73-.24-.24-.73-.24-.97-.24-.49-.24-.73-.48-1.45-.48-.24 0-.73 0-.97-.24h-2.67c-.49 0-1.21 0-1.7.24-.24 0-.73 0-.97.24-.49 0-.97.24-1.45.24-.49.24-.73.73-1.21.73-.24.24-.73.24-.97.49l-29.8 17.69c-6.3 3.64-8.48 12.12-4.36 18.17 2.42 4.36 6.79 6.79 11.39 6.79 2.18 0 4.6-.49 6.78-1.94l9.69-5.57v119.21c0 7.51 5.82 13.33 13.33 13.33 7.27 0 13.57-5.82 13.57-13.33V82.97zm81.17 0c-.49-.49-.49-.97-.49-1.7 0-.24-.24-.73-.24-1.21-.24-.24-.24-.73-.49-1.21 0-.49-.24-.73-.49-1.21 0-.24-.24-.49-.24-.73l-.24-.49-.97-.97c-.24-.49-.49-.73-.73-.97s-.49-.73-.97-.97c-.24-.24-.73-.49-.97-.73-.49-.24-.73-.48-.97-.73-.48 0-.73-.24-1.45-.73-.24-.24-.73-.24-.97-.24-.49-.24-.73-.48-1.45-.48-.24 0-.73 0-.97-.24h-2.67c-.49 0-1.21 0-1.7.24-.24 0-.73 0-.97.24-.49 0-.97.24-1.45.24-.49.24-.73.73-1.21.73-.24.24-.73.24-.97.49l-29.8 17.69c-6.3 3.64-8.48 12.12-4.36 18.17 2.42 4.36 6.79 6.79 11.39 6.79 2.18 0 4.6-.49 6.78-1.94l9.69-5.57v119.21c0 7.51 5.82 13.33 13.33 13.33 7.27 0 13.57-5.82 13.57-13.33V82.97zm81.17 0c-.49-.49-.49-.97-.49-1.7 0-.24-.24-.73-.24-1.21-.24-.24-.24-.73-.49-1.21 0-.49-.24-.73-.49-1.21 0-.24-.24-.49-.24-.73l-.24-.49-.97-.97c-.24-.49-.49-.73-.73-.97s-.49-.73-.97-.97c-.24-.24-.73-.49-.97-.73-.49-.24-.73-.48-.97-.73-.48 0-.73-.24-1.45-.73-.24-.24-.73-.24-.97-.24-.49-.24-.73-.48-1.45-.48-.24 0-.73 0-.97-.24h-2.67c-.49 0-1.21 0-1.7.24-.24 0-.73 0-.97.24-.49 0-.97.24-1.45.24-.49.24-.73.73-1.21.73-.24.24-.73.24-.97.49l-29.8 17.69c-6.3 3.64-8.48 12.12-4.36 18.17 2.42 4.36 6.79 6.79 11.39 6.79 2.18 0 4.6-.49 6.78-1.94l9.69-5.57v119.21c0 7.51 5.82 13.33 13.33 13.33 7.27 0 13.57-5.82 13.57-13.33V82.97zm47.25 130.11h0c10.18 15.26 25.93 26.89 45.07 26.89h0c18.66 0 34.65-11.63 44.82-26.89h0c10.42-15.51 16.24-35.86 16.24-57.91h0c0-22.29-5.82-42.4-16.24-57.91h0c-10.18-15.51-26.17-26.9-44.82-26.9h0c-19.14 0-34.89 11.39-45.07 26.9h0c-10.66 15.51-16.23 35.62-16.47 57.91h0c.24 22.05 5.81 42.4 16.47 57.91zm67.6-15.02h0c-7.03 10.42-15.02 15.02-22.53 15.02h0c-7.51 0-15.75-4.6-23.02-15.02h0c-6.79-10.18-11.63-25.68-11.63-42.89h0c0-17.45 4.85-32.71 11.63-43.13h0c7.27-10.18 15.51-15.02 23.02-14.78h0c7.51-.24 15.51 4.6 22.53 14.78h0c6.78 10.42 11.63 25.68 11.63 43.13h0c0 17.2-4.85 32.71-11.63 42.89zm104.43 15.02h0c10.18 15.26 25.93 26.89 45.07 26.89h0c18.66 0 34.65-11.63 44.82-26.89h0c10.42-15.51 16.24-35.86 16.24-57.91h0c0-22.29-5.82-42.4-16.24-57.91h0c-10.18-15.51-26.17-26.9-44.82-26.9h0c-19.14 0-34.89 11.39-45.07 26.9h0c-10.66 15.51-16.23 35.62-16.47 57.91h0c.24 22.05 5.81 42.4 16.47 57.91zm67.6-15.02h0c-7.03 10.42-15.02 15.02-22.53 15.02h0c-7.51 0-15.75-4.6-23.02-15.02h0c-6.79-10.18-11.63-25.68-11.63-42.89h0c0-17.45 4.85-32.71 11.63-43.13h0c7.27-10.18 15.51-15.02 23.02-14.78h0c7.51-.24 15.51 4.6 22.53 14.78h0c6.78 10.42 11.63 25.68 11.63 43.13h0c0 17.2-4.85 32.71-11.63 42.89zm104.44 15.02h0c10.18 15.26 25.93 26.89 45.07 26.89h0c18.66 0 34.65-11.63 44.82-26.89h0c10.42-15.51 16.24-35.86 16.24-57.91h0c0-22.29-5.82-42.4-16.24-57.91h0c-10.18-15.51-26.17-26.9-44.82-26.9h0c-19.14 0-34.89 11.39-45.07 26.9h0c-10.66 15.51-16.23 35.62-16.47 57.91h0c.24 22.05 5.81 42.4 16.47 57.91zm67.6-15.02h0c-7.03 10.42-15.02 15.02-22.53 15.02h0c-7.51 0-15.75-4.6-23.02-15.02h0c-6.79-10.18-11.63-25.68-11.63-42.89h0c0-17.45 4.85-32.71 11.63-43.13h0c7.27-10.18 15.51-15.02 23.02-14.78h0c7.51-.24 15.51 4.6 22.53 14.78h0c6.78 10.42 11.63 25.68 11.63 43.13h0c0 17.2-4.85 32.71-11.63 42.89zm137.14-115.09c-.49-.49-.49-.97-.49-1.7 0-.24-.24-.73-.24-1.21-.24-.24-.24-.73-.49-1.21 0-.49-.24-.73-.49-1.21 0-.24-.24-.49-.24-.73l-.24-.49-.97-.97c-.24-.49-.49-.73-.73-.97s-.49-.73-.97-.97c-.24-.24-.73-.49-.97-.73-.49-.24-.73-.48-.97-.73-.48 0-.73-.24-1.45-.73-.24-.24-.73-.24-.97-.24-.49-.24-.73-.48-1.45-.48-.24 0-.73 0-.97-.24h-2.67c-.49 0-1.21 0-1.7.24-.24 0-.73 0-.97.24-.49 0-.97.24-1.45.24-.49.24-.73.73-1.21.73-.24.24-.73.24-.97.49l-29.8 17.69c-6.3 3.64-8.48 12.12-4.36 18.17 2.42 4.36 6.79 6.79 11.39 6.79 2.18 0 4.6-.49 6.78-1.94l9.69-5.57v119.21c0 7.51 5.82 13.33 13.33 13.33 7.27 0 13.57-5.82 13.57-13.33V82.97zm47.25 130.11h0c10.18 15.26 25.93 26.89 45.07 26.89h0c18.66 0 34.65-11.63 44.82-26.89h0c10.42-15.51 16.24-35.86 16.24-57.91h0c0-22.29-5.82-42.4-16.24-57.91h0c-10.18-15.51-26.17-26.9-44.82-26.9h0c-19.14 0-34.89 11.39-45.07 26.9h0c-10.66 15.51-16.23 35.62-16.47 57.91h0c.24 22.05 5.81 42.4 16.47 57.91zm67.6-15.02h0c-7.03 10.42-15.02 15.02-22.53 15.02h0c-7.51 0-15.75-4.6-23.02-15.02h0c-6.79-10.18-11.63-25.68-11.63-42.89h0c0-17.45 4.85-32.71 11.63-43.13h0c7.27-10.18 15.51-15.02 23.02-14.78h0c7.51-.24 15.51 4.6 22.53 14.78h0c6.78 10.42 11.63 25.68 11.63 43.13h0c0 17.2-4.85 32.71-11.63 42.89zM4368.05 373.72c-.49-.49-.49-.97-.49-1.7 0-.24-.24-.73-.24-1.21-.24-.24-.24-.73-.49-1.21 0-.49-.24-.73-.49-1.21 0-.24-.24-.49-.24-.73l-.24-.49-.97-.97c-.24-.49-.49-.73-.73-.97s-.49-.73-.97-.97c-.24-.24-.73-.49-.97-.73-.49-.24-.73-.48-.97-.73-.48 0-.73-.24-1.45-.73-.24-.24-.73-.24-.97-.24-.49-.24-.73-.48-1.45-.48-.24 0-.73 0-.97-.24h-2.67c-.49 0-1.21 0-1.7.24-.24 0-.73 0-.97.24-.49 0-.97.24-1.45.24-.49.24-.73.73-1.21.73-.24.24-.73.24-.97.49l-29.8 17.69c-6.3 3.64-8.48 12.12-4.36 18.17 2.42 4.36 6.79 6.79 11.39 6.79 2.18 0 4.6-.49 6.78-1.94l9.69-5.57V517.4c0 7.51 5.82 13.33 13.33 13.33 7.27 0 13.57-5.82 13.57-13.33V373.72zm47.25 130.11h0c10.18 15.26 25.93 26.89 45.07 26.89h0c18.66 0 34.65-11.63 44.82-26.89h0c10.42-15.51 16.24-35.86 16.24-57.91h0c0-22.29-5.82-42.4-16.24-57.91h0c-10.18-15.51-26.17-26.9-44.82-26.9h0c-19.14 0-34.89 11.39-45.07 26.9h0c-10.66 15.51-16.23 35.62-16.47 57.91h0c.24 22.05 5.81 42.4 16.47 57.91zm67.6-15.02h0c-7.03 10.42-15.02 15.02-22.53 15.02h0c-7.51 0-15.75-4.6-23.02-15.02h0c-6.79-10.18-11.63-25.68-11.63-42.89h0c0-17.45 4.85-32.71 11.63-43.13h0c7.27-10.18 15.51-15.02 23.02-14.78h0c7.51-.24 15.51 4.6 22.53 14.78h0c6.78 10.42 11.63 25.68 11.63 43.13h0c0 17.2-4.85 32.71-11.63 42.89zm137.14-115.09c-.49-.49-.49-.97-.49-1.7 0-.24-.24-.73-.24-1.21-.24-.24-.24-.73-.49-1.21 0-.49-.24-.73-.49-1.21 0-.24-.24-.49-.24-.73l-.24-.49-.97-.97c-.24-.49-.49-.73-.73-.97s-.49-.73-.97-.97c-.24-.24-.73-.49-.97-.73-.49-.24-.73-.48-.97-.73-.48 0-.73-.24-1.45-.73-.24-.24-.73-.24-.97-.24-.49-.24-.73-.48-1.45-.48-.24 0-.73 0-.97-.24h-2.67c-.49 0-1.21 0-1.7.24-.24 0-.73 0-.97.24-.49 0-.97.24-1.45.24-.49.24-.73.73-1.21.73-.24.24-.73.24-.97.49l-29.8 17.69c-6.3 3.64-8.48 12.12-4.36 18.17 2.42 4.36 6.79 6.79 11.39 6.79 2.18 0 4.6-.49 6.78-1.94l9.69-5.57V517.4c0 7.51 5.82 13.33 13.33 13.33 7.27 0 13.57-5.82 13.57-13.33V373.72zm47.25 130.11h0c10.18 15.26 25.93 26.89 45.07 26.89h0c18.66 0 34.65-11.63 44.82-26.89h0c10.42-15.51 16.24-35.86 16.24-57.91h0c0-22.29-5.82-42.4-16.24-57.91h0c-10.18-15.51-26.17-26.9-44.82-26.9h0c-19.14 0-34.89 11.39-45.07 26.9h0c-10.66 15.51-16.23 35.62-16.47 57.91h0c.24 22.05 5.81 42.4 16.47 57.91zm67.6-15.02h0c-7.03 10.42-15.02 15.02-22.53 15.02h0c-7.51 0-15.75-4.6-23.02-15.02h0c-6.79-10.18-11.63-25.68-11.63-42.89h0c0-17.45 4.85-32.71 11.63-43.13h0c7.27-10.18 15.51-15.02 23.02-14.78h0c7.51-.24 15.51 4.6 22.53 14.78h0c6.78 10.42 11.63 25.68 11.63 43.13h0c0 17.2-4.85 32.71-11.63 42.89zm104.43 15.02h0c10.18 15.26 25.93 26.89 45.07 26.89h0c18.66 0 34.65-11.63 44.82-26.89h0c10.42-15.51 16.24-35.86 16.24-57.91h0c0-22.29-5.82-42.4-16.24-57.91h0c-10.18-15.51-26.17-26.9-44.82-26.9h0c-19.14 0-34.89 11.39-45.07 26.9h0c-10.66 15.51-16.23 35.62-16.47 57.91h0c.24 22.05 5.81 42.4 16.47 57.91zm67.6-15.02h0c-7.03 10.42-15.02 15.02-22.53 15.02h0c-7.51 0-15.75-4.6-23.02-15.02h0c-6.79-10.18-11.63-25.68-11.63-42.89h0c0-17.45 4.85-32.71 11.63-43.13h0c7.27-10.18 15.51-15.02 23.02-14.78h0c7.51-.24 15.51 4.6 22.53 14.78h0c6.78 10.42 11.63 25.68 11.63 43.13h0c0 17.2-4.85 32.71-11.63 42.89zm104.43 15.02h0c10.18 15.26 25.93 26.89 45.07 26.89h0c18.66 0 34.65-11.63 44.82-26.89h0c10.42-15.51 16.24-35.86 16.24-57.91h0c0-22.29-5.82-42.4-16.24-57.91h0c-10.18-15.51-26.17-26.9-44.82-26.9h0c-19.14 0-34.89 11.39-45.07 26.9h0c-10.66 15.51-16.23 35.62-16.47 57.91h0c.24 22.05 5.81 42.4 16.47 57.91zm67.6-15.02h0c-7.03 10.42-15.02 15.02-22.53 15.02h0c-7.51 0-15.75-4.6-23.02-15.02h0c-6.79-10.18-11.63-25.68-11.63-42.89h0c0-17.45 4.85-32.71 11.63-43.13h0c7.27-10.18 15.51-15.02 23.02-14.78h0c7.51-.24 15.51 4.6 22.53 14.78h0c6.78 10.42 11.63 25.68 11.63 43.13h0c0 17.2-4.85 32.71-11.63 42.89zm138.35-115.09c-.49-.49-.49-.97-.49-1.7 0-.24-.24-.73-.24-1.21-.24-.24-.24-.73-.49-1.21 0-.49-.24-.73-.49-1.21 0-.24-.24-.49-.24-.73l-.24-.49-.97-.97c-.24-.49-.49-.73-.73-.97s-.49-.73-.97-.97c-.24-.24-.73-.49-.97-.73-.49-.24-.73-.48-.97-.73-.48 0-.73-.24-1.45-.73-.24-.24-.73-.24-.97-.24-.49-.24-.73-.48-1.45-.48-.24 0-.73 0-.97-.24h-2.67c-.49 0-1.21 0-1.7.24-.24 0-.73 0-.97.24-.49 0-.97.24-1.45.24-.49.24-.73.73-1.21.73-.24.24-.73.24-.97.49l-29.8 17.69c-6.3 3.64-8.48 12.12-4.36 18.17 2.42 4.36 6.79 6.79 11.39 6.79 2.18 0 4.6-.49 6.78-1.94l9.69-5.57V517.4c0 7.51 5.82 13.33 13.33 13.33 7.27 0 13.57-5.82 13.57-13.33V373.72zm47.25 130.11h0c10.18 15.26 25.93 26.89 45.07 26.89h0c18.66 0 34.65-11.63 44.82-26.89h0c10.42-15.51 16.24-35.86 16.24-57.91h0c0-22.29-5.82-42.4-16.24-57.91h0c-10.18-15.51-26.17-26.9-44.82-26.9h0c-19.14 0-34.89 11.39-45.07 26.9h0c-10.66 15.51-16.23 35.62-16.47 57.91h0c.24 22.05 5.81 42.4 16.47 57.91zm67.6-15.02h0c-7.03 10.42-15.02 15.02-22.53 15.02h0c-7.51 0-15.75-4.6-23.02-15.02h0c-6.79-10.18-11.63-25.68-11.63-42.89h0c0-17.45 4.85-32.71 11.63-43.13h0c7.27-10.18 15.51-15.02 23.02-14.78h0c7.51-.24 15.51 4.6 22.53 14.78h0c6.78 10.42 11.63 25.68 11.63 43.13h0c0 17.2-4.85 32.71-11.63 42.89zm138.35-115.09c-.49-.49-.49-.97-.49-1.7 0-.24-.24-.73-.24-1.21-.24-.24-.24-.73-.49-1.21 0-.49-.24-.73-.49-1.21 0-.24-.24-.49-.24-.73l-.24-.49-.97-.97c-.24-.49-.49-.73-.73-.97s-.49-.73-.97-.97c-.24-.24-.73-.49-.97-.73-.49-.24-.73-.48-.97-.73-.48 0-.73-.24-1.45-.73-.24-.24-.73-.24-.97-.24-.49-.24-.73-.48-1.45-.48-.24 0-.73 0-.97-.24h-2.67c-.49 0-1.21 0-1.7.24-.24 0-.73 0-.97.24-.49 0-.97.24-1.45.24-.49.24-.73.73-1.21.73-.24.24-.73.24-.97.49l-29.8 17.69c-6.3 3.64-8.48 12.12-4.36 18.17 2.42 4.36 6.79 6.79 11.39 6.79 2.18 0 4.6-.49 6.78-1.94l9.69-5.57V517.4c0 7.51 5.82 13.33 13.33 13.33 7.27 0 13.57-5.82 13.57-13.33V373.72z"/><path d="M4334.12 794.6h0c10.18 15.26 25.93 26.89 45.07 26.89h0c18.66 0 34.65-11.63 44.82-26.89h0c10.42-15.51 16.24-35.86 16.24-57.91h0c0-22.29-5.82-42.4-16.24-57.91h0c-10.18-15.51-26.17-26.9-44.82-26.9h0c-19.14 0-34.89 11.39-45.07 26.9h0c-10.66 15.51-16.23 35.62-16.47 57.91h0c.24 22.05 5.81 42.4 16.47 57.91zm67.6-15.02h0c-7.03 10.42-15.02 15.02-22.53 15.02h0c-7.51 0-15.75-4.6-23.02-15.02h0c-6.79-10.18-11.63-25.68-11.63-42.89h0c0-17.45 4.85-32.71 11.63-43.13h0c7.27-10.18 15.51-15.02 23.02-14.78h0c7.51-.24 15.51 4.6 22.53 14.78h0c6.78 10.42 11.63 25.68 11.63 43.13h0c0 17.2-4.85 32.71-11.63 42.89zm104.43 15.02h0c10.18 15.26 25.93 26.89 45.07 26.89h0c18.66 0 34.65-11.63 44.82-26.89h0c10.42-15.51 16.24-35.86 16.24-57.91h0c0-22.29-5.82-42.4-16.24-57.91h0c-10.18-15.51-26.17-26.9-44.82-26.9h0c-19.14 0-34.89 11.39-45.07 26.9h0c-10.66 15.51-16.23 35.62-16.47 57.91h0c.24 22.05 5.81 42.4 16.47 57.91zm67.6-15.02h0c-7.03 10.42-15.02 15.02-22.53 15.02h0c-7.51 0-15.75-4.6-23.02-15.02h0c-6.79-10.18-11.63-25.68-11.63-42.89h0c0-17.45 4.85-32.71 11.63-43.13h0c7.27-10.18 15.51-15.02 23.02-14.78h0c7.51-.24 15.51 4.6 22.53 14.78h0c6.78 10.42 11.63 25.68 11.63 43.13h0c0 17.2-4.85 32.71-11.63 42.89zm137.14-115.09c-.49-.49-.49-.97-.49-1.7 0-.24-.24-.73-.24-1.21-.24-.24-.24-.73-.49-1.21 0-.49-.24-.73-.49-1.21 0-.24-.24-.49-.24-.73l-.24-.49-.97-.97c-.24-.49-.49-.73-.73-.97s-.49-.73-.97-.97c-.24-.24-.73-.49-.97-.73-.49-.24-.73-.48-.97-.73-.48 0-.73-.24-1.45-.73-.24-.24-.73-.24-.97-.24-.49-.24-.73-.48-1.45-.48-.24 0-.73 0-.97-.24h-2.67c-.49 0-1.21 0-1.7.24-.24 0-.73 0-.97.24-.49 0-.97.24-1.45.24-.49.24-.73.73-1.21.73-.24.24-.73.24-.97.49l-29.8 17.69c-6.3 3.64-8.48 12.12-4.36 18.17 2.42 4.36 6.79 6.79 11.39 6.79 2.18 0 4.6-.49 6.78-1.94l9.69-5.57v119.21c0 7.51 5.82 13.33 13.33 13.33 7.27 0 13.57-5.82 13.57-13.33V664.49zm47.25 130.11h0c10.18 15.26 25.93 26.89 45.07 26.89h0c18.66 0 34.65-11.63 44.82-26.89h0c10.42-15.51 16.24-35.86 16.24-57.91h0c0-22.29-5.82-42.4-16.24-57.91h0c-10.18-15.51-26.17-26.9-44.82-26.9h0c-19.14 0-34.89 11.39-45.07 26.9h0c-10.66 15.51-16.23 35.62-16.47 57.91h0c.24 22.05 5.81 42.4 16.47 57.91zm67.6-15.02h0c-7.03 10.42-15.02 15.02-22.53 15.02h0c-7.51 0-15.75-4.6-23.02-15.02h0c-6.79-10.18-11.63-25.68-11.63-42.89h0c0-17.45 4.85-32.71 11.63-43.13h0c7.27-10.18 15.51-15.02 23.02-14.78h0c7.51-.24 15.51 4.6 22.53 14.78h0c6.78 10.42 11.63 25.68 11.63 43.13h0c0 17.2-4.85 32.71-11.63 42.89zm104.43 15.02h0c10.18 15.26 25.93 26.89 45.07 26.89h0c18.66 0 34.65-11.63 44.82-26.89h0c10.42-15.51 16.24-35.86 16.24-57.91h0c0-22.29-5.82-42.4-16.24-57.91h0c-10.18-15.51-26.17-26.9-44.82-26.9h0c-19.14 0-34.89 11.39-45.07 26.9h0c-10.66 15.51-16.23 35.62-16.47 57.91h0c.24 22.05 5.81 42.4 16.47 57.91zm67.6-15.02h0c-7.03 10.42-15.02 15.02-22.53 15.02h0c-7.51 0-15.75-4.6-23.02-15.02h0c-6.79-10.18-11.63-25.68-11.63-42.89h0c0-17.45 4.85-32.71 11.63-43.13h0c7.27-10.18 15.51-15.02 23.02-14.78h0c7.51-.24 15.51 4.6 22.53 14.78h0c6.78 10.42 11.63 25.68 11.63 43.13h0c0 17.2-4.85 32.71-11.63 42.89zm138.35-115.09c-.49-.49-.49-.97-.49-1.7 0-.24-.24-.73-.24-1.21-.24-.24-.24-.73-.49-1.21 0-.49-.24-.73-.49-1.21 0-.24-.24-.49-.24-.73l-.24-.49-.97-.97c-.24-.49-.49-.73-.73-.97s-.49-.73-.97-.97c-.24-.24-.73-.49-.97-.73-.49-.24-.73-.48-.97-.73-.48 0-.73-.24-1.45-.73-.24-.24-.73-.24-.97-.24-.49-.24-.73-.48-1.45-.48-.24 0-.73 0-.97-.24h-2.67c-.49 0-1.21 0-1.7.24-.24 0-.73 0-.97.24-.49 0-.97.24-1.45.24-.49.24-.73.73-1.21.73-.24.24-.73.24-.97.49l-29.8 17.69c-6.3 3.64-8.48 12.12-4.36 18.17 2.42 4.36 6.79 6.79 11.39 6.79 2.18 0 4.6-.49 6.78-1.94l9.69-5.57v119.21c0 7.51 5.82 13.33 13.33 13.33 7.27 0 13.57-5.82 13.57-13.33V664.49zm81.17 0c-.49-.49-.49-.97-.49-1.7 0-.24-.24-.73-.24-1.21-.24-.24-.24-.73-.49-1.21 0-.49-.24-.73-.49-1.21 0-.24-.24-.49-.24-.73l-.24-.49-.97-.97c-.24-.49-.49-.73-.73-.97s-.49-.73-.97-.97c-.24-.24-.73-.49-.97-.73-.49-.24-.73-.48-.97-.73-.48 0-.73-.24-1.45-.73-.24-.24-.73-.24-.97-.24-.49-.24-.73-.48-1.45-.48-.24 0-.73 0-.97-.24h-2.67c-.49 0-1.21 0-1.7.24-.24 0-.73 0-.97.24-.49 0-.97.24-1.45.24-.49.24-.73.73-1.21.73-.24.24-.73.24-.97.49l-29.8 17.69c-6.3 3.64-8.48 12.12-4.36 18.17 2.42 4.36 6.79 6.79 11.39 6.79 2.18 0 4.6-.49 6.78-1.94l9.69-5.57v119.21c0 7.51 5.82 13.33 13.33 13.33 7.27 0 13.57-5.82 13.57-13.33V664.49zm47.25 130.11h0c10.18 15.26 25.93 26.89 45.07 26.89h0c18.66 0 34.65-11.63 44.82-26.89h0c10.42-15.51 16.24-35.86 16.24-57.91h0c0-22.29-5.82-42.4-16.24-57.91h0c-10.18-15.51-26.17-26.9-44.82-26.9h0c-19.14 0-34.89 11.39-45.07 26.9h0c-10.66 15.51-16.23 35.62-16.47 57.91h0c.24 22.05 5.81 42.4 16.47 57.91zm67.6-15.02h0c-7.03 10.42-15.02 15.02-22.53 15.02h0c-7.51 0-15.75-4.6-23.02-15.02h0c-6.79-10.18-11.63-25.68-11.63-42.89h0c0-17.45 4.85-32.71 11.63-43.13h0c7.27-10.18 15.51-15.02 23.02-14.78h0c7.51-.24 15.51 4.6 22.53 14.78h0c6.78 10.42 11.63 25.68 11.63 43.13h0c0 17.2-4.85 32.71-11.63 42.89zm138.35-115.09c-.49-.49-.49-.97-.49-1.7 0-.24-.24-.73-.24-1.21-.24-.24-.24-.73-.49-1.21 0-.49-.24-.73-.49-1.21 0-.24-.24-.49-.24-.73l-.24-.49-.97-.97c-.24-.49-.49-.73-.73-.97s-.49-.73-.97-.97c-.24-.24-.73-.49-.97-.73-.49-.24-.73-.48-.97-.73-.48 0-.73-.24-1.45-.73-.24-.24-.73-.24-.97-.24-.49-.24-.73-.48-1.45-.48-.24 0-.73 0-.97-.24h-2.67c-.49 0-1.21 0-1.7.24-.24 0-.73 0-.97.24-.49 0-.97.24-1.45.24-.49.24-.73.73-1.21.73-.24.24-.73.24-.97.49l-29.8 17.69c-6.3 3.64-8.48 12.12-4.36 18.17 2.42 4.36 6.79 6.79 11.39 6.79 2.18 0 4.6-.49 6.78-1.94l9.69-5.57v119.21c0 7.51 5.82 13.33 13.33 13.33 7.27 0 13.57-5.82 13.57-13.33V664.49z"/></g><g class="O"><path d="M2189.84 877.7v-5.52H1106.42V188.55h1077.9V877.7h5.52v-5.52 5.52h5.52V177.5H1095.38v705.72h1099.98v-5.52z"/><path d="M2189.84 314.44v-5.52H1106.42V188.55h1077.9v125.89h5.52v-5.52 5.52h5.52V177.5H1095.38v142.46h1099.98v-5.52zm-711.07 429.5l-159.58-135c-8.35-7.08-8.35-19.95 0-27.02l159.58-135.02c6.61-5.6 16.51-4.77 22.1 1.83a15.71 15.71 0 0 1-1.84 22.11l-131.27 111.07c-8.35 7.06-8.35 19.94 0 27.02l131.27 111.06a15.7 15.7 0 0 1 1.84 22.1 15.67 15.67 0 0 1-22.1 1.84zm311.1-1.84h0c-5.59-6.62-4.77-16.51 1.84-22.11l131.28-111.05c8.35-7.07 8.35-19.95 0-27.02l-131.28-111.07a15.69 15.69 0 0 1-1.84-22.1v-.02c5.6-6.61 15.5-7.44 22.12-1.84l159.58 135.03c8.36 7.06 8.36 19.95 0 27.02l-159.58 135.01c-6.61 5.6-16.52 4.77-22.12-1.85zm-240.14 72.44h0c-8.05-3.21-11.97-12.35-8.75-20.4l167.17-418.04c3.21-8.04 12.35-11.97 20.38-8.75 8.05 3.21 11.97 12.35 8.75 20.4l-167.16 418.04a15.71 15.71 0 0 1-20.41 8.75z"/></g><use xlink:href="#D" class="Q"/><use xlink:href="#D" x="135" class="O"/><path d="M1494.25 249.69c0 18.25-14.8 33.06-33.06 33.06-18.25 0-33.06-14.81-33.06-33.06 0-18.26 14.81-33.07 33.06-33.07 18.26 0 33.06 14.81 33.06 33.07z" class="P"/><g class="O"><path d="M1108.55 3021.04v-5.52H25.13V2331.9h1077.9v689.14h5.52v-5.52 5.52h5.52v-700.19H14.09v705.71h1099.98v-5.52z"/><path d="M1108.55 2457.79v-5.52H25.13V2331.9h1077.9v125.89h5.52v-5.52 5.52h5.52v-136.94H14.09v142.46h1099.98v-5.52z"/></g><path d="M142.93 2393.03c0 18.26-14.8 33.06-33.06 33.06s-33.06-14.8-33.06-33.06c0-18.25 14.8-33.06 33.06-33.06s33.06 14.81 33.06 33.06z" class="Q"/><path d="M277.95 2393.03c0 18.26-14.81 33.06-33.07 33.06s-33.06-14.8-33.06-33.06c0-18.25 14.8-33.06 33.06-33.06s33.07 14.81 33.07 33.06z" class="O"/><path d="M412.95 2393.03c0 18.26-14.81 33.06-33.06 33.06-18.26 0-33.07-14.8-33.07-33.06 0-18.25 14.81-33.06 33.07-33.06 18.25 0 33.06 14.81 33.06 33.06z" class="P"/><g class="O"><path d="M3025.58 2849.25c32.2 0 61.47-10.61 84.52-28.54 8.78-6.95 10.24-20.12 3.66-29.27-7.32-8.78-20.86-10.24-29.27-4.03-16.46 13.17-36.22 20.12-58.91 20.12-25.24 0-48.66-10.24-65.85-26.34-16.46-16.1-26.71-38.78-26.71-63.66s10.24-46.83 26.71-63.66c17.19-16.1 40.61-26.34 65.85-26.34 22.68 0 42.81 6.95 58.91 20.12 8.41 6.59 21.95 5.12 29.27-4.02 6.59-9.15 5.12-21.95-3.66-29.27-23.05-17.93-52.32-28.54-84.52-28.54-73.17.37-133.91 59.27-134.27 131.71.37 72.81 61.1 131.71 134.27 131.71zm216.59-57.81c0 11.71 9.15 20.85 20.86 20.85 11.34 0 20.86-9.15 20.86-20.85v-50.85h51.95c10.97 0 20.12-8.78 20.12-20.12 0-10.98-9.15-20.12-20.12-20.12h-51.95v-50.85c0-11.71-9.51-20.86-20.86-20.86-11.71 0-20.86 9.15-20.86 20.86v50.85h-51.95c-10.98 0-20.12 9.15-20.12 20.12 0 11.34 9.15 20.12 20.12 20.12h51.95v50.85zm226.84 0c0 11.71 9.15 20.85 20.86 20.85 11.34 0 20.86-9.15 20.86-20.85v-50.85h51.95c10.97 0 20.12-8.78 20.12-20.12 0-10.98-9.15-20.12-20.12-20.12h-51.95v-50.85c0-11.71-9.51-20.86-20.86-20.86-11.71 0-20.86 9.15-20.86 20.86v50.85h-51.95c-10.98 0-20.12 9.15-20.12 20.12 0 11.34 9.15 20.12 20.12 20.12h51.95v50.85zM6695.3 1311.05h-5.52v689.14H5611.83v-683.62H6695.3v-5.52h-5.52 5.52v-5.52H5600.8v705.7h1100.02v-705.7h-5.52z"/><path d="M6695.3 1311.05h-5.52v125.85H5611.83v-120.33H6695.3v-5.52h-5.52 5.52v-5.52H5600.8v142.41h1100.02v-142.41h-5.52z"/></g><path d="M5729.64 1377.69c0 18.26-14.8 33.07-33.07 33.07-18.25 0-33.06-14.81-33.06-33.07 0-18.25 14.81-33.06 33.06-33.06 18.28 0 33.07 14.81 33.07 33.06z" class="Q"/><path d="M5864.64 1377.69c0 18.26-14.8 33.07-33.06 33.07-18.25 0-33.06-14.81-33.06-33.07 0-18.25 14.81-33.06 33.06-33.06 18.26 0 33.06 14.81 33.06 33.06z" class="O"/><path d="M5999.67 1377.69c0 18.26-14.81 33.07-33.08 33.07-18.25 0-33.06-14.81-33.06-33.07 0-18.25 14.81-33.06 33.06-33.06 18.28 0 33.08 14.81 33.08 33.06z" class="P"/><path d="M3010.21 1833.9c32.2 0 61.47-10.61 84.52-28.54 8.78-6.95 10.24-20.12 3.66-29.27-7.32-8.78-20.86-10.24-29.27-4.03-16.46 13.17-36.22 20.12-58.91 20.12-25.24 0-48.66-10.24-65.85-26.34-16.46-16.1-26.71-38.78-26.71-63.66s10.24-46.83 26.71-63.66c17.19-16.1 40.61-26.34 65.85-26.34 22.68 0 42.81 6.95 58.91 20.12 8.41 6.59 21.95 5.12 29.27-4.02 6.59-9.15 5.12-21.95-3.66-29.27-23.05-17.93-52.32-28.54-84.52-28.54-73.17.37-133.91 59.27-134.27 131.71.37 72.81 61.1 131.71 134.27 131.71zm154.03-36.95h0c20.85 16.46 54.15 36.22 93.66 36.59h0c25.98 0 49.76-7.68 67.69-20.85h0c18.29-13.17 31.46-33.29 31.46-56.71h0c0-11.34-3.29-22.32-8.78-31.1h0c-8.41-13.54-21.59-23.05-36.59-30.37h0c-14.63-6.95-31.83-11.71-50.49-15.37h0-.73c-19.76-3.66-36.22-9.51-45.73-16.1h0c-4.75-3.29-8.05-6.59-9.88-9.51h0c-1.83-2.93-2.56-5.85-2.56-10.24h0c0-7.68 4.03-15.73 13.9-23.05h0c9.88-7.32 24.51-12.44 40.98-12.44h0c22.32 0 40.25 10.97 58.91 23.42h0c8.78 5.85 20.49 3.29 25.98-5.49h0c5.85-8.41 3.29-20.12-5.12-25.98h0c-18.66-12.07-44.64-29.27-79.76-29.27h0c-23.78 0-46.1 6.95-63.29 19.39h0c-16.83 12.44-29.27 31.47-29.27 53.42h0c0 10.98 2.93 21.22 8.41 30h0c8.05 12.81 20.12 21.95 34.03 28.54h0c13.9 6.59 30 10.97 47.2 14.27h.73c21.59 4.03 39.51 10.24 50.12 17.2h0c5.49 3.66 8.78 7.32 10.98 10.98h0c2.19 3.66 3.29 6.95 3.29 11.71h0c0 9.15-4.76 18.29-15.73 26.34h0c-10.98 8.05-27.44 13.54-45.73 13.54h0c-25.98.37-53.78-15-69.88-28.17h0c-8.05-6.58-20.12-5.49-26.71 2.56h0c-6.22 8.05-5.12 20.12 2.93 26.71zm240.38 0h0c20.85 16.46 54.15 36.22 93.66 36.59h0c25.98 0 49.76-7.68 67.69-20.85h0c18.29-13.17 31.46-33.29 31.46-56.71h0c0-11.34-3.29-22.32-8.78-31.1h0c-8.41-13.54-21.59-23.05-36.59-30.37h0c-14.63-6.95-31.83-11.71-50.49-15.37h0-.73c-19.76-3.66-36.22-9.51-45.73-16.1h0c-4.75-3.29-8.05-6.59-9.88-9.51h0c-1.83-2.93-2.56-5.85-2.56-10.24h0c0-7.68 4.03-15.73 13.9-23.05h0c9.88-7.32 24.51-12.44 40.98-12.44h0c22.32 0 40.25 10.97 58.91 23.42h0c8.78 5.85 20.49 3.29 25.98-5.49h0c5.85-8.41 3.29-20.12-5.12-25.98h0c-18.66-12.07-44.64-29.27-79.76-29.27h0c-23.78 0-46.1 6.95-63.29 19.39h0c-16.83 12.44-29.27 31.47-29.27 53.42h0c0 10.98 2.93 21.22 8.41 30h0c8.05 12.81 20.12 21.95 34.03 28.54h0c13.9 6.59 30 10.97 47.2 14.27h.73c21.59 4.03 39.51 10.24 50.12 17.2h0c5.49 3.66 8.78 7.32 10.98 10.98h0c2.19 3.66 3.29 6.95 3.29 11.71h0c0 9.15-4.76 18.29-15.73 26.34h0c-10.98 8.05-27.44 13.54-45.73 13.54h0c-25.98.37-53.78-15-69.88-28.17h0c-8.05-6.58-20.12-5.49-26.71 2.56h0c-6.22 8.05-5.12 20.12 2.93 26.71zM826.33 1230.16c-42.4-22.73-58.36-75.62-35.61-118.01 22.73-42.4 75.56-58.28 117.95-35.55 42.4 22.74 58.32 75.49 35.58 117.89-22.74 42.39-75.52 58.4-117.92 35.66zm167.85 26.63c-5.05-8.15-4.77-18.33.19-26.53a151.16 151.16 0 0 0 3.88-6.8c1.26-2.34 2.44-4.69 3.56-7.05 4.07-8.65 12.38-14.49 21.93-14.78l32.63-1.02-3.3-106.3-32.62 1c-9.57.3-18.34-4.95-22.94-13.35a144.01 144.01 0 0 0-8.33-13.47c-5.43-7.84-6.19-17.99-1.69-26.4l15.39-28.69-93.75-50.28-15.39 28.69c-4.52 8.4-13.38 13.39-22.92 13.2-5.3-.11-10.59.07-15.84.52-9.54.84-18.75-3.57-23.81-11.72l-17.2-27.72-90.38 56.05 17.27 27.88c5.02 8.1 4.74 18.24-.2 26.4-1.34 2.22-2.63 4.49-3.88 6.8a152.61 152.61 0 0 0-3.52 7c-4.09 8.66-12.42 14.53-22 14.82l-32.66.98 3.3 106.3 32.54-1.04c9.57-.3 18.34 4.92 22.94 13.33 2.54 4.64 5.33 9.15 8.38 13.52 5.46 7.84 6.22 18.01 1.7 26.41l-15.38 28.7 93.75 50.28 15.39-28.69c4.5-8.41 13.39-13.41 22.93-13.2 5.32.11 10.63-.05 15.9-.51 9.54-.82 18.75 3.6 23.79 11.74l17.14 27.68 90.37-56.06-17.18-27.71zm5204.5 1436.75c-59.31 0-107.45-48.14-107.45-107.45 0-59.32 48.14-107.35 107.45-107.35s107.35 48.03 107.35 107.35c0 59.31-48.04 107.45-107.35 107.45zm197.9-68.86c-10.24-5.91-15.87-17.15-15.26-28.94.17-3.21.24-6.43.24-9.65 0-3.27-.08-6.51-.24-9.73-.61-11.76 5-22.96 15.21-28.84l34.86-20.12-65.51-113.56-34.86 20.1c-10.22 5.9-22.8 5.31-32.69-1.15a182.82 182.82 0 0 0-16.9-9.79c-10.48-5.33-17.22-15.92-17.22-27.7v-40.14h-131.16v40.14c0 11.77-6.74 22.36-17.21 27.7a183.78 183.78 0 0 0-16.9 9.79c-9.89 6.46-22.46 7.05-32.7 1.15l-34.85-20.1-65.53 113.56 35 20.23c10.18 5.88 15.78 17.06 15.17 28.81-.17 3.2-.24 6.42-.24 9.65 0 3.22.08 6.45.24 9.65.61 11.79-5.04 23.03-15.27 28.92l-34.9 20.1 65.53 113.57 34.75-20.09c10.22-5.9 22.8-5.35 32.68 1.1 5.47 3.58 11.13 6.85 16.98 9.82 10.49 5.35 17.24 15.94 17.24 27.71v40.14h131.16v-40.14c0-11.77 6.75-22.36 17.24-27.71 5.84-2.97 11.52-6.24 16.98-9.82 9.89-6.45 22.46-7 32.68-1.1l34.76 20.09 65.51-113.57-34.81-20.07zM2644.77 563.34c-42.6 0-77.18-34.57-77.18-77.18 0-42.6 34.58-77.1 77.18-77.1s77.1 34.5 77.1 77.1c0 42.61-34.5 77.18-77.1 77.18zm142.14-49.47c-7.36-4.23-11.4-12.3-10.96-20.78.11-2.3.18-4.6.18-6.93 0-2.34-.07-4.67-.18-6.98-.43-8.45 3.59-16.49 10.92-20.71l25.04-14.44-47.06-81.57-25.04 14.43c-7.34 4.24-16.38 3.81-23.48-.83a131.62 131.62 0 0 0-12.14-7.03c-7.53-3.83-12.37-11.44-12.37-19.89v-28.83h-94.2v28.83c0 8.44-4.85 16.05-12.37 19.89a131.62 131.62 0 0 0-12.14 7.03c-7.1 4.64-16.13 5.07-23.49.83l-25.03-14.43-47.06 81.57 25.14 14.52c7.31 4.23 11.33 12.26 10.9 20.69a132.6 132.6 0 0 0-.18 6.92 122.31 122.31 0 0 0 .18 6.93c.43 8.48-3.61 16.54-10.96 20.78l-25.08 14.43 47.06 81.57 24.97-14.42c7.34-4.24 16.38-3.83 23.48.8 3.92 2.56 7.99 4.91 12.19 7.04 7.54 3.83 12.39 11.45 12.39 19.9v28.83h94.2v-28.83c0-8.44 4.85-16.06 12.39-19.9 4.19-2.13 8.27-4.48 12.19-7.04 7.1-4.63 16.14-5.04 23.48-.8l24.97 14.42 47.06-81.57-25.01-14.43zM561.7 850.94c-42.6 0-77.18-34.57-77.18-77.18 0-42.6 34.57-77.11 77.18-77.11 42.6 0 77.11 34.51 77.11 77.11s-34.51 77.18-77.11 77.18zm142.15-49.46c-7.36-4.24-11.4-12.31-10.96-20.78.12-2.31.18-4.62.18-6.94a134.72 134.72 0 0 0-.18-6.99c-.43-8.45 3.6-16.49 10.92-20.71l25.05-14.44-47.07-81.58-25.03 14.45c-7.34 4.24-16.39 3.82-23.49-.83-3.9-2.55-7.95-4.89-12.14-7.02-7.52-3.84-12.35-11.45-12.35-19.9v-28.83h-94.21v28.83c0 8.45-4.84 16.06-12.36 19.9-4.18 2.13-8.24 4.47-12.15 7.02-7.1 4.65-16.13 5.07-23.48.83l-25.04-14.45-47.06 81.58 25.15 14.52c7.3 4.23 11.33 12.26 10.89 20.69-.11 2.3-.18 4.6-.18 6.93 0 2.32.07 4.63.18 6.94.44 8.47-3.61 16.54-10.96 20.77l-25.08 14.43 47.06 81.57 24.97-14.42c7.34-4.24 16.37-3.83 23.48.8 3.93 2.56 7.99 4.91 12.2 7.06 7.53 3.83 12.38 11.44 12.38 19.9v28.82h94.21v-28.82c0-8.46 4.84-16.07 12.38-19.9 4.2-2.14 8.27-4.49 12.2-7.06 7.1-4.63 16.13-5.04 23.48-.8l24.96 14.42 47.07-81.57-25.01-14.42z" class="O"/><path d="M5631.81 2561.01s-199.15-132.56-268.14-388.77-106.64-802.15-106.64-802.15 384.92 465.16 429.84 746.43c44.93 281.26-55.07 444.5-55.07 444.5zm259.6 182.47s-32.39-287.95 100.99-523.78c133.39-235.84 583.16-393.72 583.16-393.72s-269.52 511.49-393.99 657.59c-124.45 146.11-290.17 259.91-290.17 259.91zm-14.54 687.38s24.14-244.03 103.91-396.72c79.75-152.69 366.02-368.32 510.19-425.96 0 0-179.71 692.19-614.09 822.67zm-279.95-209.63s-207.21-127.28-319.32-355.31c-112.11-228.02-135.48-550.46-135.48-550.46s503.14 406.8 454.8 905.77z" class="Q"/><g class="N"><path d="M5796.79 4167.49c-45.41-184.98-64.22-376.08-66.05-566.74-1.35-95.43 4.46-190.9 14.18-285.86 9.95-94.98 25.3-189.45 46.82-282.59 21.99-92.99 50.01-184.69 84.2-273.83l25.67-66.78c8.82-22.16 18.44-44 27.62-66.01l13.91-32.97 14.97-32.5 30.75-64.63c42.29-85.54 89.49-168.72 142.4-248.12 13.38-19.73 27.39-39.07 41.39-58.37 14.54-18.91 28.75-38.05 44.2-56.23 30.45-36.6 62.49-72.27 99.24-102.59-17.74 15.87-34.1 33.15-49.64 51.1-7.99 8.78-15.55 17.94-23.08 27.12-7.68 9.05-15.01 18.39-22.17 27.85-14.78 18.59-28.28 38.13-42.12 57.39l-39.21 59.37c-50.85 80.1-96.18 163.65-136.45 249.52-10.24 21.39-19.47 43.25-29.26 64.84l-14.55 32.46-13.64 32.85-27.01 65.81-25.08 66.59c-33.37 88.74-60.41 179.6-81.65 271.9-44.02 184.33-63 374.12-65.35 563.72-1.21 94.86 2.5 189.84 10.79 284.44 7.82 94.64 20.12 189.05 39.11 282.27z"/><path d="M5438.64 1845c29.72 85.55 56.35 172.15 82.71 258.81l72.86 261.86 32.6 132 15.17 66.29 14.14 66.52c18 88.89 35.19 178.05 46.58 268.26 11.06 90.11 19.62 180.32 26.94 270.67l18.14 271.18 11.42 271.48 4.77 271.64-15.08-271.18-17.28-270.94c-13.06-180.44-26.61-361.01-49.79-540.18-22.48-179.04-61.64-355.9-103.27-531.82-20.82-88.02-43.57-175.6-67.07-262.97l-72.84-261.6z"/><path d="M6195.93 2922.16l-129.8 205.5-124.84 207.99c-40.32 70.01-78.72 141.09-113.22 213.96-16.9 36.59-32.88 73.61-45.99 111.66-13.34 37.91-23.78 77.13-25.16 117.76-1.33-20.19-.9-40.81 2.6-60.91l2.28-15.16 3.2-14.96 3.25-15 3.95-14.79c10.93-39.34 25.07-77.7 40.83-115.27 15.77-37.57 33.57-74.21 51.78-110.6 18.55-36.2 38.22-71.8 58.2-107.18l62.83-104.42 66.54-102c45.32-67.33 93.08-133.04 143.54-196.59zm-839.73-227.53c50.95 88.89 97.86 180.11 141.64 272.8 43.95 92.62 84.56 186.88 121.5 282.62 36.55 95.86 69.68 193.27 94.67 293.03 12.45 49.86 22.87 100.29 29.89 151.25 6.45 50.95 10.14 102.66 5.18 153.75.18-51.25-5.57-102.08-15.38-152.13-9.39-50.1-21.85-99.56-35.57-148.64-13.9-49.04-29.39-97.65-46.02-145.88-16.34-48.32-34.02-96.21-52.42-143.84-18.01-47.77-37.26-95.08-56.79-142.29l-59.95-141.09-126.74-279.58z"/></g><path d="M6000.06 3564.6l-3.57 57.2-.21 2.22-.95 14.64v1.06l-.11 1.15-.95 14.64-.1 2.32-.95 14.54-.1 2.21-9.39 148.43-.62 8.44-.21 3.46-29.19 461.12h-405.89l-46.37-731.43z" class="P"/><path d="M5995.33 3639.72l-.11 1.15-.95 14.64-.1 2.32-.95 14.54-.1 2.21-9.39 148.43h-465.95l-.21-3.88-.74-11.18-.31-5.69-10.32-162.54z" class="N"/><path d="M5463.29 3680.18h574.94v-141.65h-574.94z" class="P"/></g><g clip-path="url(#A)"><image x="304.91" y="1295.7" width="513.51" height="503.64" xlink:href="story-img-3_Images\story-img-3_ImgID1.png"/></g><g clip-path="url(#B)"><image x="5686.16" y="613.06" width="224.74" height="224.74" xlink:href="story-img-3_Images\story-img-3_ImgID2.png"/></g><g clip-path="url(#C)"><image x="5836.93" y="844.79" width="627.65" height="466.26" xlink:href="story-img-3_Images\story-img-3_ImgID3.png"/></g><g class="Y"><path d="M5274.57 4478.26v-.05c-.13-104.77-793.02-189.64-1771.09-189.64-978.16 0-1771.1 84.88-1771.1 189.66 0 6.23 2.84 12.37 8.31 18.4-120.41-4.34-247.99-6.69-380.09-6.69-732.8 0-1326.95 72.31-1326.95 161.51 0 89.12 594.15 161.44 1326.95 161.44s1326.85-72.31 1326.85-161.44c0-1.6-.22-3.21-.64-4.8 244.3 13.58 522.11 21.33 816.66 21.33 978.07 0 1770.96-84.95 1771.09-189.73z" fill="#e1e0e4"/><g class="N"><path d="M3906.14 803.8c-28.46 23.59-56.53 41.97-84.2 55.86 44.21-79.94 31.9-257.2 26.98-231.71-23.63 121.8-95.82 256.59-124.58 263.98l-.5.11c-77.42 12.39-148.62-6.5-208.6-37.68l.2-.4c57.42-90.62 49.63-270.98 45.89-259.89-40.57 119-129.6 190.44-145.36 190.74h-.1c-60.07-54.15-92.67-109.01-84.5-114.91 59.39-42.95 107.84-150.67 151.08-264.27v-.1c42.74-112.01 80.35-229.51 118.37-296.16v-.2l.4-.49c1.08-1.9 2.17-3.7 3.25-5.5 78.01-129.39 194.31-106.91 266.89-70.04 246.62 125.2 71.41 740.2 34.77 770.66z"/><path d="M3700.21 27.7c-48.38 12.91-87.13 58.78-111.43 100.79-32.3 55.86-52.84 118.65-79.11 177.5-51.93 116.25-118.36 223.65-203.06 318.36-1.88 2.1.9 4.71 2.99 3.04 92.4-74 154.19-178.15 204.18-284.8 25.55-54.53 45.2-111.37 69.27-166.52 13.16-30.17 28.67-59.48 49.42-85.06 20.19-24.84 43.7-39.95 71.13-55.11 4.45-2.46 1.4-9.48-3.41-8.2z"/></g><path d="M3913.93 439.87c-82.71 41.25-140.47 443.98-187.35 466.22-80.21 38.04-278.32 1.43-348.16 9.96-43.12 5.26-154.56 157.55-129.01 188.22 25.55 30.66 490.83 87.17 606.5 35.94 65.39-28.97 123.83-308.51 132.88-431.17 9.06-122.66-37.28-287.9-74.86-269.17z" class="T"/><g class="V"><path d="M3897.17 1143.34c-3.69 4.85-7.48 8.96-11.37 12.55-76.7 70.16-552.03 51.4-575.83 30.86-23.91-20.65-9.6-52.57-9.6-52.57l120.32-207.96s16.96-32.33 57.83-30.33c40.99 2 209.23 22.97 246.2 4.85 37.09-18.23 77.86-348.39 175.94-458.48 13.47-15.17 26.34-15.91 38.14-6.85 34.44 26.55 59.41 137.06 61.94 220.8 3.16 106.72-34.13 397.9-103.55 487.13z"/><path d="M3446.32 900.08l-136.64 259.13-66.39-42.74c-.47-1.1 114.76-218.18 120.27-220.59 5.52-2.42 82.75 4.19 82.75 4.19z"/></g><path d="M3313.58 1154.11c22.17-38.62 117.26-202.35 132.93-248.6.56-1.65-1.72-3.11-2.77-1.55-25.72 38.43-113.58 202.9-133.09 248.5-1.46 3.4 1.07 4.89 2.94 1.65zm583.59-10.77l-47.2-478.06 88.81-229.87c34.44 26.55 59.41 137.06 61.94 220.8 3.16 106.72-34.13 397.9-103.55 487.13z" class="N"/><path d="M3924.04 413.52c-27.01 56.6-93.01 302.85-68.82 368.41 24.51 66.44 97.79 88.93 97.79 88.93s54.5 269.17 87.73 297.27c33.21 28.11 392.69 37.3 525.56-201.87 25.54-45.99-165.25-393.52-305.79-508.52-104.43-85.43-271.64-180-336.46-44.23z" class="V"/><path d="M4191 771.66c-23.87 23.28-44.98 47.01-77.87 57.55-33.15 10.62-69.29 9.85-103.63 13.81-1 .11-1.06 1.59 0 1.6 39.38.24 80.76 5.46 118.44-9.19 29.48-11.47 50.16-34.71 67.27-60.55 1.7-2.58-2.08-5.32-4.21-3.24zm-141.53 80.2c-25.42 1.08-51.96 7.66-76.61 13.66-1.07.26-.87 2.06.25 1.96 25.31-2.34 52.48-4.7 76.87-11.94 1.97-.59 1.68-3.78-.51-3.69zm-91.58 16.81l-.19-.44c-.24-1.21-.97-2.35-2.42-2.89-56.4-21.51-99.41-65.19-101.62-127.79-2.24-63.73 6.15-100.29 23.12-161.47.35-1.26-1.42-1.71-1.92-.53-29.16 69.18-35.26 157.27-27.59 192.09 11.42 51.84 55.36 87.82 103.78 104.15 3.63 16 6.13 32.68 11.1 48.29.59 1.81 3.38 1.52 3.38-.46-.02-16.93-4.1-34.46-7.64-50.94zM4163.8 587.8l252.3 373.84 78.22-190.72z" class="N"/><g class="T"><path d="M3896.16 433.02s-21.61 44.36-24.65 54.99c0 0 28.73 50.66 100.63 27.67 71.92-23 84.35-167.73 84.35-167.73s-51.81-11.06-88.94 6.25c-37.11 17.31-71.39 78.82-71.39 78.82z"/><path d="M3956.26 498.14c-23.41 9.3-50.7-44.76-60.1-65.12l-3.27-7.56-1.44-1.43-4.08-4.39-68.18-71.55 60.2-121.84 9.09-16.86 42.22 51.11c1.24 1.43 2.45 2.86 3.59 4.29l9.81 11.96c2.45 2.96 4.91 6.03 7.35 9.3l7.57 9.82c24.62 32.71 47.11 68.39 48.75 73.19 3.67 11.24-2.35 109.56-51.52 129.09z"/></g><path d="M3896.16 433.02l-3.27-7.56-1.44-1.43-4.08-4.39-68.18-71.55 60.2-121.84 9.09-16.86 42.22 51.11c9.52 37.51 25.04 129.3-34.54 172.53z" class="N"/><path d="M3629.73 257.98c42.54 169.85 155.59 156.72 185.71 154.33 34.16-2.72 145.36-41.08 120.58-214.42-24.78-173.35-117.2-207.27-194.24-192.15s-154.61 82.37-112.04 252.24z" class="T"/><g class="N"><path d="M3654.58 224.28c3.75-1.73 6.93-3.95 10.48-6.05 3.98-2.35 7.42-3.82 9.51-8.19 1.13-2.35-.2-5.93-2.37-7.23-5.07-3.02-10.68-1.36-15.59 1.29-5.35 2.87-8.74 6.46-11.06 12.06-2.25 5.41 4.08 10.4 9.03 8.13zm116.36-34.05c-4.06.83-7.93.91-12.03 1.31-4.62.44-8.25 1.28-12.51-1.02-2.28-1.23-3.35-4.9-2.35-7.23 2.29-5.44 7.82-7.39 13.35-8.16 6.02-.83 10.85.07 16.03 3.21 5.01 3.05 2.85 10.81-2.49 11.89zm-8.47 49.23l1.18.75c3.07 11.52 8.53 24.2 20 24.89l.1.66c-13.15 2.02-20.22-14.89-21.28-26.3z"/><path d="M3769.08 224.48c17.94-6.92 30.46 29.49 13.84 35.89-16.37 6.3-28.88-30.1-13.84-35.89z"/><path d="M3776.89 223.94c3.88.97 8.25 3.53 12.21 2.59 4.58-1.08 6.63-6.05 8.26-10.71l.77.21c2.49 6.93 2.27 15.02-4.85 18.63-6.49 3.29-13.52-1.2-17.67-7.62-.77-1.18-.3-3.49 1.27-3.1zm-86.82 34.67l-.51 1.29c4.31 11.12 7.39 24.58-1.47 31.9l.31.6c11.79-6.12 7.54-23.95 1.67-33.79z"/><path d="M3675.88 250.41c-18.56 5-7.19 41.77 10.02 37.14 16.93-4.56 5.55-41.33-10.02-37.14z"/><path d="M3668.97 255.2c-2.31 2.84-4.09 7.26-7.48 8.57-3.95 1.51-8.16-1.55-11.9-4.56l-.45.58c1.99 7.09 6.57 13.68 13.75 12.95 6.54-.67 9.2-8.11 8.71-15.63-.09-1.39-1.7-3.06-2.63-1.91zm117.68 72.68c-1.63 3.64-2.86 8.26-6.76 10.19-3.73 1.84-8.93 1.89-13.02 1.92l-.26.76c4.56 3.11 11.67 3.38 16.45.45 4.67-2.86 5.43-8.19 4.85-13.25l-1.27-.08zm-60.85-25.28s3.26 17.68 5.88 25.65c.24.75 2.3.47 5.06-.28l.31-.09c14.81-2.45 27.39-12 32.13-26.32l-1.54-.72c-7.97 11.2-18.92 17.02-31.35 21.37-1.29-2.02-4.56-30.47-5.85-30.15-4.49 1.07-12.09 6.87-16.76 10.08-7.84-36.62-9.75-74.21-18.12-110.57-.32-1.29-2.25-1.07-2.25.18-.78 39.53 7.32 81.89 14.45 119.92.85 4.76 15.28-6.67 18.03-9.08z"/><path d="M3735.36 321.64s10.35 9.23 22.24 10.87c4.39.62 8.89.28 13.24-1.9 8.93-4.45 7.38-13.17 4.1-20.24-2.67-5.82-6.6-10.48-6.6-10.48s-11.12 15.79-32.97 21.75z"/></g><path d="M3757.6 332.51c4.39.62 8.89.28 13.24-1.9 8.93-4.45 7.38-13.17 4.1-20.24-9.92 3.15-18.53 12.11-17.34 22.14z" class="Q"/><g class="N"><path d="M3919.5 218.21c-17.49-.5-35.94-45.82-35.94-45.82s-65.1.63-123.81-35.96c-41.98-26.15-59.1-56.24-59.1-56.24-9.99 100.58-83.93 136.7-83.93 136.7s-26-73.64.98-123.36c26.99-49.72 88.12-112.15 190.99-88.27 0 0 74.72 14.76 103.98 68.77 29.25 54 30.57 144.86 6.83 144.18z"/><path d="M3696.36 69.41l.95-.11c10.73 45.27 53.47 72.26 94.62 87.25 38.46 14.02 75.54 15.02 115.8 11.86 1.18-.1 1.32 1.55.21 1.8-40.89 9.26-87.98 1.65-126.24-14.24-38.24-15.89-78.23-42.79-85.35-86.55z"/></g><path d="M3913.61 224.84s18.32-64.13 46.2-59.33c27.89 4.8 26.55 89.08 2.56 108.81-24 19.73-42.71-2.12-42.71-2.12l-6.05-47.36z" class="T"/><path d="M3958.82 189.66l.39.69c-16.58 14.48-20.58 35.88-21.3 56.89 3.28-9.13 9.75-15.73 21.67-12.2l-.17 1.21c-8.49 1.04-13.72 4.37-16.87 12.54-2.24 5.79-2.87 12.36-3.8 18.46-.3 2.03-3.74 2.18-3.77-.03v-.51c-8.97-24.44-1.72-65.47 23.85-77.05z" class="N"/><path d="M3949.14 266.61c17.29-5.87 26.46 20.99 9.13 26.88-17.29 5.88-26.45-20.99-9.13-26.88z" fill="#ecf4fb"/><g class="P"><path d="M3556.3 547.21c0-108-118.53-195.57-264.73-195.57-146.22 0-264.75 87.57-264.75 195.57 0 108.03 118.53 195.58 264.75 195.58 146.2 0 264.73-87.55 264.73-195.58z"/><path d="M3435.91 415.51l129.48-32.95-47.8 106.98z"/></g><path d="M3196.33 547.21c0-15.16-12.3-27.45-27.46-27.45s-27.45 12.29-27.45 27.45c0 15.17 12.29 27.46 27.45 27.46s27.46-12.29 27.46-27.46zm122.69 0c0-15.16-12.29-27.45-27.45-27.45s-27.46 12.29-27.46 27.45c0 15.17 12.3 27.46 27.46 27.46s27.45-12.29 27.45-27.46zm122.69 0c0-15.16-12.28-27.45-27.45-27.45-15.16 0-27.44 12.29-27.44 27.45 0 15.17 12.28 27.46 27.44 27.46 15.17 0 27.45-12.29 27.45-27.46zm2017.31 592.61v2502.26c0 98.9-80.03 178.94-178.94 178.94H1794.61c-98.91 0-178.94-80.04-178.94-178.94V1139.82c0-98.9 80.03-178.94 178.94-178.94h3485.47c98.9 0 178.94 80.04 178.94 178.94z" class="N"/><path d="M1809.77 3200.72h3455.15V1146.84H1809.77z" class="R"/><path d="M5459.02 3399.12v242.95c0 98.9-80.03 178.94-178.94 178.94H1794.61c-98.91 0-178.94-80.04-178.94-178.94v-242.95h3843.35z" class="O"/><path d="M4356.98 4473.61H2717.7v-27.17c0-60.64 49.16-109.81 109.81-109.81h1419.67c60.63 0 109.79 49.16 109.79 109.81v27.17z" class="U"/><path d="M4161.77 4336.74H2912.89l68.91-515.63h1111.06l35.4 264.79z" class="O"/><path d="M1809.77 1257.94h3455.15v-111.1H1809.77z" class="W"/><path d="M2022.04 2258.12h933.54v-670.48h-933.54z" class="O"/><g class="R"><path d="M2874.97 1937.8c0 104.83-84.95 189.76-189.77 189.76-62.22 0-117.4-30-152.09-76.17h82.6v-134.33h-119.15c10.37-95.07 90.87-169.14 188.64-169.14 104.83 0 189.77 85.06 189.77 189.88z"/><path d="M2533.1 2051.39h-405.09v-134.33h368.54c-.74 6.79-1.11 13.7-1.11 20.74 0 42.47 14.08 81.86 37.66 113.59z"/></g><g class="O"><path d="M5040.03 3010.93v-5.52H3084.84v-627.63h1949.67v633.15h5.52v-5.52 5.52h5.52v-644.2H3073.8v649.72h1971.75v-5.52z"/><path d="M3077.61 2377.5l1960.71 638.69 3.42-10.51L3081.03 2367z"/><path d="M5038.32 2367l-1960.71 638.68 3.42 10.51 1960.71-638.69z"/></g><g class="U"><use xlink:href="#E"/><path d="M3079.32 1698.13h903.42v-32.86h-903.42z"/><use xlink:href="#E" y="155.27"/><use xlink:href="#E" y="232.91"/><path d="M3079.32 1931.04h524.56v-32.84h-524.56z"/><use xlink:href="#E" y="388.2"/><use xlink:href="#E" y="465.84"/><use xlink:href="#E" y="543.47"/><path d="M3079.32 2241.6h682.77v-32.85h-682.77z"/></g><path d="M2023.1 3010.93h932.48v-638.67H2023.1z" class="V"/><path d="M2102.76 3010.93h56.42v-56.4h-56.42z" class="R"/><path d="M2222.22 3010.93h56.41v-217.92h-56.41z" class="Q"/><path d="M2341.67 3010.93h56.42v-319.34h-56.42z" class="W"/><path d="M2461.13 3010.93h56.41v-465.87h-56.41z" class="P"/><path d="M2580.58 3010.93H2637v-580.69h-56.42z" class="S"/><path d="M2700.05 3010.93h56.41v-147.67h-56.41z" class="R"/><path d="M2819.51 3010.93h56.4V2674.2h-56.4z" class="Q"/><path d="M5029.01 2308.91l-922.45-125.29 106.74-663.29 922.44 125.29z" class="P"/><g class="Q"><path d="M4956 2221.3l-324.39-44.06 230.66-446.86zm-374.73-145.13l-324.39-44.06 203.19-246.19z"/><use xlink:href="#F"/></g><use xlink:href="#F" x="112.5" class="R"/><use xlink:href="#F" x="225" class="P"/><path d="M3798.13 1480.9h1241.9v-110.82h-1241.9z" class="O"/><path d="M2022.04 1480.9h110.81v-110.82h-110.81z" class="V"/><path d="M2173.91 1480.9h110.82v-110.82h-110.82z" class="P"/><path d="M2325.78 1480.9h110.82v-110.82h-110.82z" class="Q"/><path d="M2634.03 1480.9h541.91v-110.82h-541.91z" class="O"/><path d="M3605.78 3581.71c0 38.48-31.21 69.68-69.68 69.68-38.48 0-69.68-31.19-69.68-69.68 0-38.48 31.19-69.69 69.68-69.69 38.47 0 69.68 31.2 69.68 69.69z" class="U"/><path d="M4120.62 4028.5H2954.06l1.04-7.77 3.04-22.29 1.47-11.22 22.19-166.11h1111.06l26.4 197.75z" class="N"/><g class="T"><path d="M3427.11 933.73c-38.89-10.03-91.34-44.05-121.11-41.92-26.87 1.91-31.89 25.52-31.89 25.52s-20.1-26.24-46.79-19.85c-13.74 3.29-20.56 28.11-20.56 28.11s-17.02-20.32-40.4-13.17c-18.64 5.69-22.68 29.71-22.68 29.71s-25.41-11.88-42.53 0c-34.73 24.1-3.01 188.33 62.38 202.02 30.49 6.38 20.56-33.31 20.56-33.31s28.06 53.63 62.08 47.96 18.01-56.47 18.01-56.47 27.65 51.74 62.33 42.3c36.11-9.83 11.4-57.9 11.4-57.9s31.81 31.74 56.7 18.43c41.11-21.96-34.73-101.36-33.14-139.1h66.18l-.53-32.33z"/><path d="M3369 910.8c37.64 6.28 72.61-45.59 109.47-44.75 49.87 1.13 12.06 85.3-56.7 100.01H3369V910.8z"/></g><path d="M3142.48 945.84h-.87c-2.74 56.56 11.59 119.54 42.76 167.23 1.01 1.56 4 .57 3.2-1.36-22.72-55.3-38.45-106.18-45.09-165.88zm63.77-20.98l-1.17.15c-2.5 58.3 15.6 128.8 57.98 179.54 1.45 1.75 4.5 1.84 2.98-.28-25.63-35.88-54.08-125.64-59.79-179.4zm135.9 164.6c-38.76-50.23-57.51-107.83-68.27-169.76l-1.34.19c-2.99 31.73 7.99 70.48 19.07 99.92 10.62 28.2 25.87 51.5 48.78 71 .9.76 2.59-.28 1.77-1.35z" class="N"/><g class="T"><path d="M4092.85 370.88c89.47-4.25 411.99 153.73 573.04 336.46 113.35 128.62-60.03 694.61-97.27 704.84-37.24 10.21-211.46-29.39-239.11-60.04-27.66-30.66 138.84-497.44 126.06-525.56-12.79-28.11-194.82-152.88-306.49-273-64.33-69.2-119.26-179.71-56.23-182.7z"/><path d="M4346.02 1234.02c-6.35 25.55-61.78 197.32-62.94 243.33-1.17 45.99 19.8 171.21 54.94 175.68s36.41-34.5 36.41-34.5 11.51 55.57 47.27 56.85c35.79 1.28 35.79-59.41 35.79-59.41s15.97 56.22 51.74 54.95c35.76-1.28 25.55-62.3 25.55-62.3s25.48 49.99 54.5 36.53c34.93-16.18-11.06-138.4-12.35-149.91-1.27-11.5 53.43-88.11 31.19-159.04l26.62-79.98-288.72-22.19z"/></g><path d="M4534.76 1605.89c-28.94-67-30.01-101.32-18.89-172.3.21-1.38-1.79-2.02-2.16-.59-17.21 68.51-22.07 111.76 17.88 174.47 1.96 3.06 4.56 1.62 3.18-1.57zm-75.37 12.64c-23.98-72.22-25.46-109.43-19.29-184.63.09-1.07-1.7-1.32-1.89-.25-12.22 73.27-16.1 116.51 17.35 185.52 1.5 3.11 4.92 2.66 3.83-.64zm-84.65-.96c-18.16-71.59-21.55-112.32-6.18-184.56.35-1.7-2.1-2.4-2.63-.72-22.83 72.14-18.97 122.99 6.58 185.6 1.73 4.27 3.38 4.18 2.23-.32z" class="N"/><g class="V"><path d="M4080.92 466.78c83.05 154.52 356.75 334.68 361.85 356.4 5.11 21.72-109.87 271.9-113.7 322.3s21.94 69.43 21.94 69.43l285.22 32.74s42.92 7.62 76.14-70.95c33.22-78.55 34.51-366.31-21.72-449.37-56.22-83.04-243.39-264.54-549.68-356.46-76.66-23-111.68-.17-60.05 95.9z"/><path d="M4351.01 1214.91l291.09 32.94-22.15 77.02c-.85.85-288.74-33.21-293.01-37.48-4.26-4.26 24.07-72.48 24.07-72.48z"/></g><path d="M4635.93 1246.09c-44.04-6.6-231.15-35.55-279.95-33.31-1.72.08-2.26 2.74-.42 3.15 45.15 9.97 230.32 31.94 279.9 33.5 3.7.12 4.16-2.78.46-3.34zm-556.18-866.33c-11.9 52.3-24.2 117.2-69.04 148.4-46.52 32.37-106.14 24.1-147.36-14.42l-.69.75c36.72 44.15 93.54 57.52 142.89 29.32 52.98-30.28 70.1-103.58 77.43-163.56.25-2.03-2.79-2.41-3.23-.49z" class="N"/><path d="M2387.01 4646.47c-25.24 8.36-746.94 6.27-774.43-11.19-10.46-6.58-16.28-111.7-19.71-238.94l-1.79-84.67-2.09-385.72h482.78l-13.59 470.39s275.96 124.4 304.04 146.8c27.93 22.4 50.02 94.98 24.79 103.33z" class="S"/><path d="M2387.01 4646.47c-25.24 8.36-746.94 6.27-774.43-11.19-12.69-8.08-18.66-161.57-21.5-323.61h469.5l-2.39 84.67s275.96 124.4 304.04 146.8c27.93 22.4 50.02 94.98 24.79 103.33z" class="R"/><path d="M2387.01 4646.47c-25.24 8.36-746.94 6.27-774.43-11.19-10.46-6.58-16.28-111.7-19.71-238.94h465.31s275.96 124.4 304.04 146.8c27.93 22.4 50.02 94.98 24.79 103.33z" class="Q"/><g class="N"><path d="M2376.74 4617.57c-120.97-3.32-609.2-5.29-729.05.62v.75c119.83 5.91 608.08 3.94 729.05.62 2.55-.08 2.55-1.92 0-1.99zm-60.86-100.53c-28.69-1.26-56.77 12.29-72.46 29.33-15.08 16.37-28 39.42-27.23 64.52h1.47c7.05-47.32 50.23-88.78 98.22-92.34v-1.5zm-210.8-108.52c-48.42-.82-104.61 16.11-134.82 55.63-1.18 1.52 1.02 3.17 2.46 2.43 43.84-22.43 85.5-39.13 133.17-52.1 3.36-.92 2.65-5.92-.82-5.96zm37.34 14.67c-48.42-.81-104.6 16.12-134.82 55.63-1.17 1.53 1.03 3.17 2.46 2.43 43.84-22.44 85.5-39.12 133.17-52.1 3.37-.92 2.65-5.9-.82-5.97z"/><path d="M2179.76 4437.88c-48.42-.82-104.61 16.11-134.81 55.63-1.17 1.54 1.01 3.17 2.46 2.44 43.84-22.45 85.49-39.14 133.17-52.11 3.36-.91 2.65-5.91-.82-5.96zm37.33 14.67c-48.42-.81-104.61 16.12-134.82 55.63-1.17 1.53 1.03 3.16 2.46 2.44 43.84-22.45 85.5-39.13 133.17-52.11 3.36-.92 2.65-5.89-.82-5.96zm-538.24 50.81c-54.33 0-54.42 84.44 0 84.44 54.34 0 54.43-84.44 0-84.44zm419.23-121.17c-16.72 12.1-33.91 23.29-50.17 36.01 8.72-24.12 16.35-48.47 27.49-71.69 5.32-11.08 10.99-22.34 17.78-32.61 10.57-15.97 58.21-56.29 62.88-3.6 2.57 29.06-38.08 57.48-57.99 71.89zm59.69-102.75c-24.45-20.4-55.38-.62-70.55 20.45-24.58 34.11-41.54 81.97-44.36 123.69-.08 1.03.7 1.45 1.5 1.39 1.03 3.47 5.11 6.39 8.69 3.92 34.55-23.74 74.42-44.84 100.65-78.49 15.32-19.63 27.2-51.67 4.07-70.97z"/><path d="M1893.35 4413.55c-32.64-41.64 29.7-44.81 48.33-40.39 11.97 2.84 23.83 7.19 35.28 11.63 24.01 9.31 46.23 21.86 69.08 33.47-20.55 1.85-40.76 5.46-61.21 8.06-24.39 3.1-73.49 10.18-91.49-12.77zm29.16 27.64c42.14 6.59 85.65-5.28 127.11-11.58 4.29-.66 5.28-5.59 3.64-8.83l.16-2.04c-30.6-28.51-75.71-51.82-116.97-59.89-25.48-4.99-61.56 1.76-65.45 33.36-3.68 29.89 26.91 45.13 51.51 48.98z"/></g><path d="M448.28 4422.32C426.63 4406.88 2.14 3823.21.01 3790.71c-.87-12.32 80.53-79.1 181.19-156.99l67.27-51.46 310.06-229.46 285.09 389.62-387.65 266.8s62.58 296.18 61.07 332.06c-1.59 35.76-47.11 96.44-68.76 81.03z" class="S"/><path d="M448.28 4422.32C426.63 4406.88 2.14 3823.21.01 3790.71c-.98-15.01 119.38-110.48 248.46-208.45l277.24 378.9-69.74 48.06s62.58 296.18 61.07 332.06c-1.59 35.76-47.11 96.44-68.76 81.03z" class="R"/><path d="M448.28 4422.32C426.63 4406.88 2.14 3823.21.01 3790.71c-.87-12.32 80.53-79.1 181.19-156.99l274.77 375.5s62.58 296.18 61.07 332.06c-1.59 35.76-47.11 96.44-68.76 81.03z" class="Q"/><g class="N"><path d="M465.54 4396.97c-68.75-99.6-355.46-494.78-430.99-588l-.62.45c65.99 100.18 355.89 493.04 430.01 588.71 1.56 2.02 3.06.94 1.6-1.16zm45.19-108.5c-15.93-23.9-43.44-38.56-66.46-41.15-22.12-2.5-48.35.68-68.14 16.13l.86 1.17c42.36-22.25 101.31-11.88 132.52 24.76l1.22-.9zm-36.9-234.2c-27.93-39.55-74.78-74.92-124.5-75.95-1.92-.05-1.96 2.69-.51 3.41 43.99 22.14 82.06 45.89 120.68 76.71 2.73 2.18 6.33-1.35 4.33-4.17zm10.2 38.79c-27.94-39.55-74.78-74.9-124.5-75.95-1.93-.04-1.96 2.69-.52 3.43 44 22.13 82.06 45.89 120.69 76.7 2.73 2.17 6.33-1.35 4.33-4.18z"/><path d="M494.24 4131.87c-27.94-39.56-74.78-74.91-124.5-75.95-1.93-.05-1.97 2.69-.52 3.42 44.01 22.12 82.07 45.89 120.69 76.72 2.72 2.16 6.33-1.35 4.33-4.19zm10.2 38.81c-27.94-39.55-74.78-74.91-124.52-75.95-1.92-.04-1.95 2.7-.51 3.42 43.99 22.13 82.06 45.88 120.69 76.7 2.71 2.18 6.33-1.35 4.33-4.18zM145.6 3766.3c-32.08-43.84-100.27 5.94-68.14 49.86 32.08 43.85 100.28-5.94 68.14-49.86zm345.33 266.78c-19.62-6.35-38.81-13.62-58.67-19.24 24.6-7.19 48.76-15.41 74.08-20.13 12.07-2.24 24.52-4.32 36.81-4.9 19.13-.9 79.81 13.73 40.04 48.62-21.93 19.23-68.87 3.2-92.27-4.35zm118.17-12.49c2.02-31.78-32.2-45.06-58.16-44.89-42.04.32-90.67 14.89-126.01 37.25l-.23 2.04c-2.21 2.88-2.14 7.91 1.96 9.34 39.56 13.85 80.14 33.58 122.78 34.87 24.89.76 57.76-8.57 59.67-38.62z"/><path d="M344.75 3886.36c14.32-50.93 53.7-2.49 61.13 15.17 4.78 11.33 8.27 23.47 11.45 35.33 6.66 24.88 9.66 50.22 13.77 75.53-13.63-15.5-28.46-29.68-42.64-44.66-16.9-17.85-51.6-53.3-43.71-81.37zm-5.1 39.85c19.57 37.91 54.86 66.02 84.42 95.75 3.06 3.08 7.62.97 9.27-2.26.78.2 1.62-.05 1.74-1.08 4.94-41.54-2.88-91.71-20.74-129.77-11.02-23.5-37.76-48.64-65.57-33.13-26.29 14.69-20.53 48.36-9.12 70.49z"/></g><path d="M2080.49 4257.93h-508.81l-.11-675.25-.52-31.4-1.16-62.16-2.01-92.6-.21-8.95-.42-22.34-2.53-91.44-4.43-103.67c-6.53-94.49-83.43-518.21-147.16-859.11l-.32-1.47-2.95-15.59-.32-1.48-2.84-15.59-.32-1.47-2.95-15.49-.21-1.47-76.27-401.06h536.95l188.46 1307.57c22.55 185.94 28.11 1092.97 28.11 1092.97z" class="W"/><path d="M2055.94 4166.43c-79.39-1.67-56.58-2.29-136-3.07-38.86-.38-294.21-2.59-330.52 3.41v1.62c36.31 6.02 291.66 3.79 330.52 3.42l136-3.06c1.49-.03 1.49-2.28 0-2.32zm-284.09-1872.1l-204.17 1093.25-.42-22.34-2.53-91.44-4.43-103.67c-6.53-94.49-83.43-518.21-147.16-859.11l-.32-1.47-2.95-15.59-.32-1.48-2.74-15.06 365.03 16.91z" class="N"/><path d="M1868.91 1857.44c8.67 265.71-97.59 359.15-97.59 359.15s-223.1 757.89-347.11 987.09c-123.99 229.2-843.67 760.15-843.67 760.15l-326.95-426.45s652.19-396.29 708.56-492.09c31.34-53.29 274.67-674.28 264.92-732.42-46.52-277.28 44.99-455.43 44.99-455.43h596.86z" class="W"/><g class="N"><path d="M1736.7 2294.74c-30.82 123.9-42.49 171.19-83.77 291.98-41.18 120.48-88.02 239.33-124.89 361.23-.31 1.01 1.32 1.75 1.76.74 49.36-115.81 90.94-235.46 132.06-354.41 42.22-122.15 54.9-171.04 83.3-297.2 1.24-5.49-7.1-7.84-8.47-2.33z"/><path d="M1828.07 2242.12c-50.46 23.53-98.32 54.42-143.81 86.32-1.79 1.25-.23 4.06 1.72 2.97 48.65-27.23 98.4-53.62 145.48-83.49 3.7-2.34.49-7.6-3.39-5.8zm-32.93-368.88c-.32-1.75-3.46-1.81-3.25.09 6.76 60.43 8.5 114.05 9.33 171.11.4 26.49-5.48 173.73-52.09 167.93-7.81-.97-12.49-8.06-14.88-19.43-2.88-13.65.53-31.14 1.37-45.11 1.86-30.88 2.72-61.77 2.1-92.7-1.15-57.76-6.91-115.03-19.88-171.35-.42-1.86-3.11-1.43-2.91.46 8.4 79.24 14.63 158.55 11.03 238.28-1.73 38.3-14.76 97.09 25.29 98.75 40.81 1.69 56.8-96.16 58.98-122.69 6.06-74.04-1.63-152.48-15.08-225.35z"/><path d="M1750.75 2216.14c-3.08 10.17-5.32 20.65-7.08 31.13-1.35 8.15-3.42 17.01-1.66 25.15.34 1.59 2.49 1.52 3.22.34 4.63-7.33 5.91-16.82 8.05-25.16l7.37-29c1.47-6.45-8-8.75-9.92-2.47zM651.96 3893.93c-44.7-65.64-30.94-47.44-76.37-112.57-22.23-31.88-168.5-241.21-194.44-267.3l-1.31.94c16.15 33.07 166.04 239.82 188.88 271.25l81.36 109.02c.89 1.21 2.73-.11 1.89-1.34z"/></g><path d="M1645.44 1212.67c4.63 89.45 139.46 564.72 293.12 664.49 143.79 93.36 543.41 28.39 627.67 2.77 36.95-11.24-30.52-235.43-63.77-259.92-33.26-24.48-383.33 23.41-412.56 13.48-29.24-9.94-194.23-217.2-276.4-342.29-51.88-78.96-171.32-141.55-168.06-78.53z" class="S"/><path d="M1643.53 1195.5c-16.86 72.61 74.52 424.12 83.08 424.51s245.68-120.43 246.2-131.85c.52-11.41-111.54-161.96-164.34-222.03-52.81-60.07-152.78-123.04-164.94-70.64z" class="P"/><path d="M1938.24 1442.79c-38.43 18.23-187.5 102.29-223.83 124.58-2.53 1.56-.29 5.18 2.32 3.93 38.39-18.54 188.6-100.81 223.99-124.31 2.64-1.76.33-5.53-2.49-4.2z" class="N"/><path d="M1548.41 1195.77c-94.3 60-155.83 165.9-183.22 262.43-27.41 96.52-99 410.41-83.37 419.19 15.63 8.79 207.05 146.83 375.58 115.22 168.54-31.58 236.91-75.47 258.41-100.04 21.5-24.56-68.34-463.32-88.2-542.3-19.87-78.98-81.39-166.43-100.02-168.84-18.63-2.39-143.24-8.52-179.17 14.33z" class="R"/><path d="M1763.68 1225.44c-.26-2.27-3.51-2.39-3.62 0-1.29 29.28 1.09 62.16-21.8 84.46-25.28 24.62-65.46 10.64-92.81-2.89-42.64-21.1-74.72-57.27-100.59-96.39-.96-1.45-3.21-.17-2.34 1.37 29.55 52.24 76.82 100.42 136.94 114.94 67.87 16.4 90.89-43.68 84.23-101.49z" class="O"/><path d="M1606.24 2058.93c-3.48 1.79-72.69-7.58-153.49-36.98-1.9-.63-3.59-1.16-5.38-1.9-2-.84-4.11-1.58-6.22-2.32a67.49 67.49 0 0 0-4.32-1.68c-1.69-.74-3.48-1.37-5.17-2.01l-1.68-.63-8.96-3.79c-1.79-.74-3.48-1.48-5.26-2.32-3.58-1.37-7.06-2.96-10.64-4.43a109.04 109.04 0 0 0-5.17-2.42c-54.36-24.87-108.72-58.9-148.54-104.71-18.01-20.66 49.09-251.68 96.19-403.9.52-1.48 1.05-3.16 1.47-4.64l6.01-19.07 1.58-4.85.63-2.42 5.27-16.75c.63-1.58 1.05-3.16 1.48-4.64l.42-1.37 5.78-17.8v-.11c.43-1.58.95-3.16 1.48-4.74l13.59-42.04c27.29-82.91 176.35-196.68 176.35-196.68l44.57 882.18zm134.75-872.06l130.65 810.93c11.3 7.1 66.44-68.64 70.13-107.99s-99.94-542.92-122.41-587.67-78.37-115.27-78.37-115.27z" class="P"/><path d="M1855.79 1435.41c-1.27-14.33-2.66-28.62-3.2-43.01l-1.24-.01c-.2 8.23-.29 16.47-.08 24.71l-16.34-66.15c-.31-1.19-2.07-.69-1.83.5 26.94 136.42 57.13 272.48 90.76 407.43.61 2.44 4.23 1.41 3.74-1.01-21.75-107.88-45.82-215.46-71.81-322.45zm-348.19-91.27l-66.44 673.59-9.49-3.69-1.68-.63-8.96-3.79-5.26-2.32c-3.58-1.37-7.06-2.96-10.64-4.43a109.04 109.04 0 0 0-5.17-2.42c-54.36-24.87-108.72-58.9-148.54-104.71-18.01-20.66 49.09-251.68 96.19-403.9.52-1.48 1.05-3.16 1.47-4.64l6.01-19.07 1.58-4.85.63-2.42 5.27-16.75c.63-1.58 1.05-3.16 1.48-4.64l.42-1.37 143.13-93.97z" class="N"/><path d="M1713.12 1285.35c-39.45 12.97-113.87-42.62-145.45-90.15-2.14-3.28 0-39.76.51-84.23.21-26.98-.2-57.03-2.55-84.43-.52-5.62 19.52 3.07 19.52 3.07l36.19 5.52 119.69 18.4s-11.96 58.88-7.55 106.6c.4 4 1.12 7.67 2.14 11.15l.41 1.83c5.31 21.06 15.23 99.66-22.9 112.23z" class="S"/><path d="M1735.61 1171.29l.41 1.83c-5.31 1.22-11.14 2.04-17.58 2.45-115.91 7.37-143-138.49-143-138.49l45.89-1.94 119.69 18.4s-11.96 58.88-7.55 106.6c.4 4 1.12 7.67 2.14 11.15zm23.2-437.67s57.06 28.74 63.46 89.32c6.39 60.58-11.85 122.28-17.24 124.97-5.4 2.69-46.22-214.29-46.22-214.29z" class="N"/><path d="M1527.45 810.13c-21.2 60.31 3.67 238.15 45.46 279.31 60.61 59.69 163.52 69.47 215.15-4.22 50.07-71.43 13.55-302.63-33.48-340.41-69.28-55.66-195.81-23.77-227.13 65.32z" class="S"/><g class="N"><path d="M1531.99 988.99c21.59 3.1 35.61-62.55 38.59-87.42 2.62-21.92-.98-89.58-.69-94.27.3-4.7 99.03 44.89 148.6 21.59 49.56-23.29 76.98-75.32 74.29-97.18-2.69-21.85-75.8-66.99-132.02-61.11-56.24 5.91-120.68 88.62-120.68 88.62s20.87-34.64 19.6-37.03c-1.26-2.38-35.06 17.67-37.68 44.38 0 0 2.1-33.35-.73-33.52-2.82-.18-26.52 31.81-16.92 51.74 0 0-28.03 33.14-26.21 64.36 1.81 31.24 28.48 136.2 53.84 139.84z"/><path d="M1753.71 812.27c-14.66 9.74-29.23 20.2-46.32 25.23-18.47 5.43-38.78 3.75-57.4-.22-19.02-4.08-36.9-11.51-53.64-21.4-14.65-8.66-28.19-19.75-43.55-27.12-3.83-1.84-7.08 3.79-4.45 6.65 26 28.3 67.38 48.86 105.08 54.63 39.64 6.08 73.85-7.91 100.54-37.38l-.25-.39z"/></g><path d="M1557.59 977.57s-38.69-57.97-64.91-44.3c-26.21 13.67 2.01 97.1 32.18 109.1 30.18 11.99 41.83-15.73 41.83-15.73l-9.09-49.06z" class="S"/><path d="M1501.37 956.99l-.18.8c21.14 9.11 31.94 29.13 39.35 49.81-6.17-8.04-14.71-12.55-25.45-5.22l.55 1.15c8.78-1.68 15.05-.03 20.81 7.1 4.06 5.05 6.79 11.37 9.66 17.16.96 1.93 4.43.98 3.74-1.23l-.17-.5c1.14-27.18-19.18-65.71-48.32-69.08z" class="N"/><path d="M1568.61 1087.55v-.06z" fill="#f6a29d"/><g class="N"><path d="M1680.48 933.14l-.78 1.19c2 11.93 2.27 25.94-8.03 31.37l.19.66c12.98-3.64 12.42-22.24 8.62-33.23z"/><path d="M1668.1 922.08c-19.48 1.13-15.78 39.99 2.26 38.94 17.77-1.04 14.06-39.91-2.26-38.94zm86.08 2.41l1.03.97c.77 12.07 3.68 25.77 14.95 28.73l-.04.69c-13.46-.6-17.15-18.83-15.94-30.39z"/><path d="M1763.73 910.89c19.23-3.31 24.45 35.38 6.64 38.45-17.53 3.02-22.75-35.67-6.64-38.45zm-112.68-5.13c5.17-1.84 9.63-4.39 14.55-6.75 5.56-2.64 10.25-4.18 13.53-9.7 1.76-2.96.44-7.85-2.28-9.83-6.33-4.6-13.93-3.06-20.74-.13-7.4 3.16-12.29 7.48-16.02 14.59-3.62 6.89 4.14 14.22 10.95 11.81zm125.84-15.87c-5.47-.36-10.46-1.61-15.82-2.54-6.06-1.04-11.01-1.24-15.65-5.65-2.51-2.38-2.56-7.43-.49-10.08 4.84-6.15 12.58-6.71 19.92-5.77 7.97 1.04 13.86 3.88 19.38 9.7 5.36 5.65-.12 14.83-7.34 14.34zm-82.47 148.48c3.16 2.54 6.4 6.15 10.81 6.11 4.22-.05 8.96-2.42 12.65-4.27l.57.57c-2.68 4.93-8.98 8.44-14.65 8-5.54-.43-8.69-4.89-10.49-9.75l1.1-.65zm-4.67-33.7c7.73 9.8 18.19 14.57 29.09 15.63 4.88.51 9.93.19 14.82-.73l2.78-.59 2.59-.65c1.39-.34 2.05-1.58 2.16-2.92l-.01-.09-.23-1.22-.01-.09-.12-1.05c-.63-9.3-2.87-23.31-2.87-23.31 3.56 1.37 21.55 7.5 20.82 2.69-6.22-39.87-13.13-84.2-27.73-122.56-.42-1.29-2.41-.8-2.18.52 4.46 38.55 15.66 76.06 20.76 114.71-5.71-1.57-15.07-4.59-19.91-4.03-1.28.51 4.81 27.01 4.77 31.19l-.04.45c-15.38 3.48-27.57-.11-43.7-9.13l-1.01 1.19z"/></g><path d="M2729.39 1872.01L980.38 2786.79l-297.97-569.71 1749-914.8z" class="U"/><path d="M1299.03 2213.42c29.69 56.76 30 121.28 6.23 175.76-17.9 41.2-49.31 76.85-92.39 99.39-43.09 22.54-90.29 28-134.34 19.2-58.3-11.56-111.12-48.62-140.81-105.37-52.22-99.84-13.76-223.09 86.08-275.31s223.02-13.52 275.24 86.33z" class="O"/><g class="R"><path d="M1159.46 2223.77c19.3 36.9 5.04 82.47-31.87 101.77-36.9 19.3-82.47 5.04-101.77-31.87s-5.04-82.47 31.87-101.77 82.47-5.04 101.77 31.87z"/><path d="M1301.04 2379.98c1.57 2.99 2.97 6.05 4.22 9.21-17.9 41.2-49.31 76.85-92.39 99.39-43.09 22.54-90.29 28-134.34 19.2-1.88-2.83-3.6-5.74-5.16-8.72-32.89-62.9-8.68-140.63 54.21-173.54 62.9-32.88 140.57-8.44 173.46 54.46z"/></g><path d="M2377.82 1612.57l-979.9 512.54-8.48-16.24 979.89-512.51z" class="W"/><path d="M1767.83 1998.3l-342.53 179.15-8.48-16.22 342.53-179.16zm664.75-281.03l-979.9 512.53-8.48-16.22 979.89-512.53zm27.39 52.35l-979.9 512.53-8.49-16.23 979.9-512.52zm-353.49 251.55l-599.04 313.32-8.48-16.21L2098 2004.96z" class="R"/><path d="M1361.96 1950.23l27.73 20.24 32.39-11.38-10.67 32.64 20.82 27.3-34.33-.07-19.52 28.23-10.55-32.67-32.89-9.84 27.81-20.13zm122.88-64.27l27.74 20.23 32.39-11.37-10.69 32.64 20.84 27.3-34.34-.08-19.52 28.25-10.55-32.68-32.89-9.85 27.82-20.12zm122.88-64.28l27.73 20.24 32.4-11.36-10.68 32.62 20.83 27.3-34.34-.06-19.52 28.23-10.54-32.67-32.91-9.84 27.83-20.13zm122.87-64.27l27.74 20.24 32.4-11.37-10.68 32.63 20.83 27.3-34.33-.07-19.54 28.25-10.53-32.69-32.9-9.84 27.82-20.12zm122.88-64.28l27.74 20.25 32.4-11.37-10.68 32.63 20.82 27.3-34.32-.08-19.53 28.26-10.54-32.69-32.9-9.84 27.82-20.13z" class="P"/><g class="S"><path d="M2580.85 1519.62c27.18 29.56 81.92 59.76 94.09 87.01 10.98 24.6-7.47 40.17-7.47 40.17s32.61 5.33 39.58 31.89c3.58 13.66-15.11 31.38-15.11 31.38s25.94 5.42 30.67 29.42c3.78 19.12-15.5 34.02-15.5 34.02s22.46 16.78 20.05 37.5c-4.87 42-164.64 91.49-207.55 40.27-20.01-23.86 19.68-33.83 19.68-33.83s-60.52.55-71.57-32.12c-11.05-32.68 41.29-42.53 41.29-42.53s-58.66.02-66.7-35.01c-8.36-36.47 45.68-37.35 45.68-37.35s-42.99-13.09-43-41.32c-.01-46.61 105.76-17.17 138.29-36.37l-31.2-58.36 28.75-14.77z"/><path d="M2628.46 1560.03c-23.29-30.23 5.95-85.54-12.17-117.64-24.5-43.43-80.89 29.6-61.44 97.17l24.89 46.53 48.72-26.06z"/></g><path d="M2704.41 1776.31l.41.77c-48.59 29.08-110.87 46.14-167.62 41.16-1.87-.15-2.41-3.25-.33-3.47 59.47-6.05 111.77-16.16 167.54-38.47zm-11.58-66.14l.42 1.1c-50.23 29.7-120.93 46.98-185.66 33.56-2.22-.47-3.75-3.11-1.15-2.76 43.72 5.66 136.3-11.56 186.39-31.9zm-209.24-42.19c62.58 10.49 122.21-.14 181.89-19.86l.48 1.26c-26.57 17.61-65.92 26.21-97.12 30.32-29.87 3.93-57.61 1.47-85.61-9.53-1.08-.42-.97-2.41.36-2.19z" class="N"/><g class="S"><path d="M1484.66 1218.91c-75.86 47.62-436.27 368.15-448.54 550.95-11.46 171.06 173.55 399.4 223.94 472.31 21.95 31.77 241.77-101.72 246.95-142.69 5.19-40.97-178.79-285.82-184.35-316.2-5.57-30.37 106.09-246.66 175.3-379.36 43.69-83.78 40.15-218.57-13.3-185.02z"/><path d="M1619.62 2310.01c29.47 38.25 99.91 64.22 79.17 93.54-18.47 26.14-65.53 3.4-65.53 3.4s44.74 42.74 16.85 65.19c-27.88 22.45-74.34-13-74.34-13s38.84 33.91 9.42 54.31c-29.4 20.41-74.39-2.51-74.39-2.51s4.44 17.31-22.8 22.38c-39.01 7.25-103.41-49.33-130.02-86.86-26.61-37.52-96.32-194.61-106.55-218.87l239.41-172.9s78.14 44.89 114.97 72.49 132.95 152.24 103.63 178.18c-29.31 25.94-95.68-63.23-116.71-81.5-21.02-18.28-28.83-16.53-25.76-.92 2.01 10.24 39.6 70.13 52.65 87.06z"/></g><path d="M1631.6 2404.79c-63.3-36.32-84.72-63.16-118.33-126.67-.65-1.24-2.65-.53-2.08.83 27.25 65.17 49.26 102.7 118.8 129 3.41 1.28 4.62-1.44 1.6-3.16zm-52.77 55.26c-62.45-43.47-85.93-72.37-126.04-136.29l-1.66.93c34.09 65.99 56.9 102.94 125.01 138.16 3.08 1.6 5.54-.82 2.68-2.8zm-68.35 49.94c-57.43-46.44-84.55-77.03-115.5-144.08-.74-1.58-3.11-.66-2.53.98 24.92 71.46 58.47 109.86 116.43 144.7 3.95 2.36 5.21 1.33 1.6-1.6z" class="N"/><path d="M1498.72 1208.88c-71.62 20.66-334.06 271.72-330.23 279.39 3.83 7.66 224.86 155.87 235.09 150.76s87.09-176.32 113.81-251.7c26.73-75.39 33.03-193.37-18.67-178.45z" class="P"/><path d="M1426.37 1586.74c-34.65-24.68-180.68-113.92-217.85-134.77-2.59-1.46-4.66 2.26-2.3 3.93 34.89 24.51 179.92 115.59 217.69 135.04 2.83 1.46 4.99-2.4 2.46-4.2z" class="N"/></g></svg>