<?xml version="1.0" encoding="UTF-8"?>
<!DOCTYPE svg PUBLIC "-//W3C//DTD SVG 1.1//EN" "http://www.w3.org/Graphics/SVG/1.1/DTD/svg11.dtd">
<!-- Creator: CorelDRAW 2020 (64-Bit Evaluation Version) -->
<svg xmlns="http://www.w3.org/2000/svg" xml:space="preserve" width="226.495mm" height="143.894mm" version="1.1" style="shape-rendering:geometricPrecision; text-rendering:geometricPrecision; image-rendering:optimizeQuality; fill-rule:evenodd; clip-rule:evenodd"
viewBox="0 0 6968.72 4427.28"
 xmlns:xlink="http://www.w3.org/1999/xlink"
 xmlns:xodm="http://www.corel.com/coreldraw/odm/2003">
 <defs>
  <style type="text/css">
   <![CDATA[
    .fil12 {fill:#FEFEFE;fill-rule:nonzero}
    .fil5 {fill:#F9A253;fill-rule:nonzero}
    .fil7 {fill:#F59284;fill-rule:nonzero}
    .fil14 {fill:#F4867D;fill-rule:nonzero}
    .fil15 {fill:#F37870;fill-rule:nonzero}
    .fil13 {fill:#F2726C;fill-rule:nonzero}
    .fil10 {fill:#F05252;fill-rule:nonzero}
    .fil20 {fill:#F3DFD0;fill-rule:nonzero}
    .fil6 {fill:#E77245;fill-rule:nonzero}
    .fil17 {fill:#EACCB6;fill-rule:nonzero}
    .fil1 {fill:#DDB59A;fill-rule:nonzero}
    .fil8 {fill:#CA3A3F;fill-rule:nonzero}
    .fil9 {fill:#9B383C;fill-rule:nonzero}
    .fil19 {fill:#8C605F;fill-rule:nonzero}
    .fil18 {fill:#724F52;fill-rule:nonzero}
    .fil11 {fill:#61545F;fill-rule:nonzero}
    .fil16 {fill:#48353D;fill-rule:nonzero}
    .fil4 {fill:#392C2E;fill-rule:nonzero}
    .fil3 {fill:#317468;fill-rule:nonzero}
    .fil2 {fill:#2E504C;fill-rule:nonzero}
    .fil0 {fill:#FFFBEC;fill-rule:nonzero}
   ]]>
  </style>
 </defs>
 <g id="Layer_x0020_1">
  <metadata id="CorelCorpID_0Corel-Layer"/>
  <path class="fil0" d="M3782.1 1450.54c-266.51,-37.79 -519.11,-141.96 -737.07,-299.91 -325.55,-235.93 -1006.84,-637.39 -1656.75,-437.41 -896.42,275.83 -900.43,1073.74 -666.93,1507.17 233.5,433.44 1889.31,1702.71 4035.92,1500.75 1920.92,-180.74 2295.26,-2249.41 1270.77,-2623.74 -480.86,-175.7 -790.28,-14.05 -1140.05,147.6 -296.58,137.05 -622.16,274.11 -1105.88,205.55z"/>
  <path class="fil0" d="M1559.77 3039.14c0,0 -134.08,-61.34 -186.42,45.24 -52.34,106.57 139.09,215.76 243.25,184.36 104.17,-31.4 85.9,-188.32 -56.83,-229.6z"/>
  <path class="fil0" d="M3330.82 958.32c0,0 -145.91,-45.74 -185.98,70.68 -40.05,116.43 171.05,204 274.16,158.21 103.11,-45.78 64.02,-204.88 -88.19,-228.89z"/>
  <path class="fil1" d="M1231.6 4277.57c0,82.69 893.71,149.71 1996.14,149.71 1102.44,0 1996.14,-67.02 1996.14,-149.71 0,-82.68 -893.7,-149.71 -1996.14,-149.71 -1102.44,0 -1996.14,67.02 -1996.14,149.71z"/>
  <path class="fil2" d="M4765.23 4315.17c2.7,0 5.45,-0.5 8.11,-1.54 11.4,-4.5 16.99,-17.35 12.5,-28.74l-443.26 -1126.22c-4.48,-11.4 -17.34,-17 -28.74,-12.5 -11.39,4.48 -17,17.36 -12.5,28.73l443.26 1126.21c3.44,8.73 11.79,14.06 20.63,14.06z"/>
  <path class="fil2" d="M3590.73 4315.17c8.84,0 17.19,-5.33 20.62,-14.06l443.26 -1126.21c4.48,-11.37 -1.11,-24.25 -12.5,-28.73 -11.38,-4.47 -24.26,1.11 -28.74,12.5l-443.26 1126.22c-4.48,11.39 1.12,24.24 12.52,28.74 2.66,1.04 5.41,1.54 8.11,1.54z"/>
  <path class="fil2" d="M3795.82 3794.09c2.43,0 4.91,-0.4 7.33,-1.25l671.65 -235.39c11.55,-4.05 17.64,-16.7 13.59,-28.25 -4.05,-11.54 -16.69,-17.63 -28.25,-13.58l-671.65 235.4c-11.55,4.05 -17.63,16.69 -13.58,28.24 3.19,9.13 11.76,14.83 20.9,14.83z"/>
  <path class="fil2" d="M4560.16 3794.09c9.16,0 17.73,-5.7 20.93,-14.83 4.05,-11.55 -2.04,-24.2 -13.59,-28.24l-671.65 -235.4c-11.55,-4.05 -24.19,2.04 -28.24,13.58 -4.05,11.55 2.03,24.2 13.59,28.25l671.65 235.39c2.42,0.85 4.9,1.25 7.33,1.25z"/>
  <path class="fil2" d="M3936.8 4315.17c2.7,0 5.45,-0.5 8.11,-1.54 11.39,-4.5 16.99,-17.35 12.5,-28.74l-443.26 -1126.22c-4.48,-11.4 -17.34,-17 -28.74,-12.5 -11.39,4.48 -16.99,17.36 -12.5,28.73l443.26 1126.21c3.44,8.73 11.79,14.06 20.63,14.06z"/>
  <path class="fil2" d="M2762.3 4315.17c8.85,0 17.19,-5.33 20.62,-14.06l443.26 -1126.21c4.48,-11.37 -1.11,-24.25 -12.5,-28.73 -11.38,-4.48 -24.25,1.11 -28.73,12.5l-443.27 1126.22c-4.48,11.39 1.12,24.24 12.52,28.74 2.66,1.04 5.41,1.54 8.11,1.54z"/>
  <path class="fil2" d="M2967.4 3794.09c2.43,0 4.9,-0.4 7.33,-1.25l671.65 -235.39c11.54,-4.05 17.63,-16.7 13.58,-28.25 -4.05,-11.54 -16.69,-17.63 -28.24,-13.58l-671.65 235.4c-11.55,4.05 -17.64,16.69 -13.59,28.24 3.2,9.13 11.77,14.83 20.93,14.83z"/>
  <path class="fil2" d="M3731.74 3794.09c9.15,0 17.72,-5.7 20.92,-14.83 4.05,-11.55 -2.04,-24.2 -13.59,-28.24l-671.65 -235.4c-11.56,-4.05 -24.2,2.04 -28.24,13.58 -4.05,11.55 2.03,24.2 13.58,28.25l671.65 235.39c2.43,0.85 4.9,1.25 7.34,1.25z"/>
  <path class="fil3" d="M2827.85 3194.19c0,0 934.6,534.83 1527.74,102.23 23.6,-17.21 46.67,-35.93 69.12,-56.36 7.73,-6.97 15.38,-14.17 22.93,-21.58 505.68,-494.21 -139.13,-1286.9 -139.13,-1286.9 -16.85,7.06 -33.52,14.26 -50.09,21.63 -5.87,2.58 -11.74,5.18 -17.59,7.81 -923.45,416.42 -1412.98,1233.16 -1412.98,1233.16z"/>
  <path class="fil2" d="M4420.79 2250.06c77.14,154.54 161.84,385.75 127.31,609.55 -30.07,194.97 -100.4,335.85 -192.51,436.81 23.6,-17.21 46.67,-35.93 69.12,-56.36 71.89,-102.47 119.62,-228.63 142.57,-377.52 15.62,-101.26 8.98,-212.19 -19.71,-329.73 -22.87,-93.78 -59.75,-191.93 -109.63,-291.78 -80.92,-162.04 -170.62,-276.59 -179.52,-287.82 -5.87,2.58 -11.74,5.18 -17.59,7.81 0.35,1.22 0.94,2.41 1.8,3.46 0.91,1.16 94.28,117.52 178.16,285.57z"/>
  <path class="fil2" d="M4128.58 2408.84c0,0 180.39,491 8.68,712.63 -171.71,221.63 -568.69,326.89 -1143.8,-8.72l1135.12 -703.91z"/>
  <path class="fil4" d="M3808.47 820.86c6.82,107.83 44.2,261.69 99.41,408.08 73.77,195.59 179.34,377.8 286.29,418.83 186.94,71.72 282.55,-61.12 282.55,-61.12 -276.19,55.22 -288.93,-244.35 -269.82,-468.47 19.13,-224.12 -42.49,-400.49 -206.5,-415.36 -113.2,-10.29 -161.57,49.87 -180.69,88.09 -8.56,17.17 -11.25,29.95 -11.25,29.95z"/>
  <path class="fil5" d="M3808.47 820.86c6.82,107.83 44.2,261.69 99.41,408.08l173.9 25.86c0,0 78.16,-181.81 -3.56,-325.96 -61.12,-107.79 -192.09,-136.58 -258.51,-137.93 -8.56,17.17 -11.25,29.95 -11.25,29.95z"/>
  <path class="fil5" d="M3535.03 1628.21l-1.12 8.13 -1.58 10.52c-1.16,7.23 -2.42,14.59 -3.77,22.03 -2.58,14.89 -5.59,30.05 -8.79,45.21 -6.45,30.34 -13.93,60.81 -22.2,91.11 -16.26,60.74 -36.12,120.78 -58.9,179.58 -11.6,29.32 -23.63,58.45 -36.46,87.23 -13.06,28.63 -26.63,57.05 -41.13,84.92 -3.49,7.07 -7.3,13.92 -10.98,20.85 -3.74,6.89 -7.32,13.9 -11.2,20.71 -7.76,13.63 -15.3,27.43 -23.48,40.79 -4.05,6.72 -7.96,13.53 -12.1,20.18l-12.51 19.89 -3.13 4.98 -1.55 2.49 -0.39 0.63 -0.15 0.24 0.66 -0.92c1.03,-1.3 1.63,-2.1 2.44,-2.93l1.52 -1.57c1.72,-1.47 0.99,-0.42 -0.78,1.08 -3.9,3.3 -12.6,8.91 -22.92,14.23 -10.4,5.43 -22.61,10.91 -35.56,16.16 -26.05,10.49 -55.07,20.16 -84.96,29.1 -29.96,8.93 -60.97,17.09 -92.43,24.68 -31.5,7.54 -63.44,14.78 -95.69,21.45 -64.51,13.32 -130.03,25.25 -195.92,36.08 -32.93,5.49 -65.98,10.69 -99.07,15.58l-49.59 7.11 -24.72 3.49 -24.14 3.24 19.43 224.65 26.85 -1.54 26.22 -1.66c17.44,-1.2 34.83,-2.56 52.22,-3.96 34.76,-2.8 69.5,-5.93 104.25,-9.4 69.49,-7.12 139.03,-15.6 208.93,-26.43 69.99,-10.78 140.12,-23.65 211.97,-41.44 35.99,-8.95 72.37,-19.21 110.23,-32.76 18.98,-6.82 38.35,-14.44 58.68,-23.91 20.35,-9.61 41.61,-20.67 65.33,-37.46 11.95,-8.64 24.43,-18.52 37.86,-32.42 3.28,-3.33 6.75,-7.25 10.07,-11.09 3.46,-4.18 6.79,-8.27 10.25,-13.09l3.76 -5.32 1.96 -2.84 3.93 -5.72 15.7 -22.84c5.21,-7.64 10.15,-15.43 15.23,-23.15 10.25,-15.38 19.8,-31.15 29.56,-46.83 4.89,-7.84 9.43,-15.85 14.15,-23.77 4.67,-7.96 9.45,-15.86 13.87,-23.92l13.49 -24.14c4.45,-8.06 8.66,-16.25 12.99,-24.38 8.77,-16.22 16.79,-32.75 25.1,-49.18 16.1,-33.08 31.47,-66.51 45.64,-100.42 28.21,-67.89 52.94,-137.12 73.72,-207.84 10.25,-35.42 19.37,-71.21 27.55,-107.56 4.06,-18.21 7.89,-36.5 11.35,-55.21 1.71,-9.36 3.32,-18.82 4.87,-28.45l2.22 -14.81 1.07 -7.77 1.19 -9.47 -289.09 -32.12z"/>
  <path class="fil6" d="M3367.78 2365.07c2.52,0.49 5.22,-0.18 7.25,-2.04 3.41,-3.13 3.63,-8.41 0.52,-11.81 -38.52,-42.03 -75.84,-71.27 -77.41,-72.48 -3.64,-2.83 -8.89,-2.18 -11.72,1.45 -2.84,3.64 -2.19,8.89 1.44,11.73 0.38,0.28 37.83,29.63 75.36,70.6 1.26,1.37 2.87,2.22 4.56,2.55z"/>
  <path class="fil6" d="M3354.28 2305.34c4.26,0.82 8.49,-1.75 9.65,-6 1.22,-4.45 -1.4,-9.05 -5.85,-10.27 -0.33,-0.09 -32.01,-8.74 -59.1,-14.01 -4.54,-0.88 -8.91,2.07 -9.8,6.6 -0.88,4.54 2.07,8.93 6.61,9.81 26.48,5.14 57.56,13.64 57.87,13.72l0.62 0.15z"/>
  <path class="fil6" d="M2717.66 2693.33l2.4 0.12c4.6,-0.44 7.97,-4.54 7.52,-9.13l-25.66 -264.05c-0.45,-4.6 -4.53,-7.94 -9.13,-7.51 -4.59,0.45 -7.96,4.54 -7.51,9.12l25.66 264.07c0.36,3.75 3.18,6.71 6.72,7.38z"/>
  <path class="fil6" d="M2585.36 2632.61l2.55 0.1 121.11 -13.85c4.58,-0.52 7.88,-4.67 7.36,-9.26 -0.53,-4.58 -4.68,-7.88 -9.26,-7.35l-121.11 13.86c-4.58,0.52 -7.88,4.67 -7.36,9.26 0.42,3.7 3.22,6.57 6.71,7.24z"/>
  <path class="fil6" d="M2622.02 2547.36c-4.1,9.85 0.55,21.14 10.39,25.26 9.85,4.1 21.16,-0.55 25.26,-10.4 4.1,-9.84 -0.54,-21.14 -10.39,-25.25 -9.85,-4.11 -21.16,0.54 -25.26,10.39z"/>
  <path class="fil7" d="M2462.36 3815.91l-41.23 209.3c0,0 -98.22,33.85 -190.83,65.82 -80.18,27.68 -270.95,26.26 -292.03,80.05 -13.3,33.93 148.24,74.65 219.44,77.72 71.19,3.08 243.88,48.01 344,45.87 100.12,-2.14 79.7,-161.13 96.17,-208.47 16.48,-47.31 54.4,-249.64 54.4,-249.64l-189.92 -20.65z"/>
  <path class="fil3" d="M2344.48 4016.72c0,0 -25.15,145.11 43.26,268.27 0,0 -393.91,-13.95 -467.77,-99.9 -27.25,-31.69 -9.59,-60.43 35.71,-84.99 5.75,-3.12 11.93,-6.18 18.55,-9.19 16.03,-7.19 34.44,-14.01 54.77,-20.37 5.46,-1.73 11.03,-3.39 16.75,-5.02 16.89,-4.87 34.88,-9.43 53.73,-13.69 5.6,-1.29 11.24,-2.52 17,-3.76 16.77,-3.52 34.13,-6.82 51.88,-9.88 5.66,-0.98 11.33,-1.94 17.04,-2.87 16.73,-2.71 33.76,-5.19 50.98,-7.46 5.5,-0.73 11.06,-1.41 16.61,-2.1 16.9,-2.09 33.95,-3.94 51.02,-5.56 5.43,-0.53 10.83,-1.03 16.24,-1.51 8.08,-0.73 16.16,-1.37 24.24,-2z"/>
  <path class="fil2" d="M1974.24 4090.91c-16.34,49.81 -0.57,93.3 -0.39,93.72 0.66,1.76 0.62,3.61 0.04,5.23 -0.73,2.1 -2.31,3.86 -4.56,4.68 -3.97,1.5 -8.4,-0.5 -9.92,-4.49 -0.7,-1.83 -15.08,-41.14 -3.72,-89.96 5.75,-3.12 11.93,-6.18 18.55,-9.19z"/>
  <path class="fil2" d="M2045.76 4065.53c0.32,1.35 0.25,2.76 -0.24,4.16l-0.12 0.34c-22.01,63.46 0.77,122.63 1.03,123.21 0.68,1.77 0.68,3.67 0.1,5.35 -0.71,2.03 -2.29,3.77 -4.45,4.66 -3.96,1.55 -8.44,-0.39 -10.01,-4.35 -0.97,-2.55 -23.79,-61.8 -3.06,-128.35 5.46,-1.73 11.03,-3.39 16.75,-5.02z"/>
  <path class="fil2" d="M2116.48 4048.08l-0.41 2.69 -0.24 0.68c-26.27,75.74 2.89,149.71 3.18,150.47 0.72,1.78 0.7,3.69 0.12,5.38 -0.7,2.04 -2.25,3.74 -4.38,4.63 -3.93,1.59 -8.43,-0.3 -10.03,-4.25 -1.25,-3.17 -30.44,-76.5 -5.23,-155.84 5.6,-1.29 11.24,-2.52 17,-3.76z"/>
  <path class="fil2" d="M2185.41 4035.34c-29.11,87.41 5.85,174.34 6.2,175.24 0.74,1.8 0.76,3.74 0.16,5.45 -0.7,2.01 -2.24,3.72 -4.34,4.62 -3.95,1.61 -8.45,-0.28 -10.06,-4.21 -1.52,-3.68 -35.58,-88.17 -9,-178.24 5.66,-0.98 11.33,-1.94 17.04,-2.87z"/>
  <path class="fil2" d="M2252.99 4025.78c-28.13,96.99 10.81,192.51 11.21,193.49 0.74,1.82 0.76,3.76 0.16,5.47 -0.7,2.01 -2.21,3.74 -4.3,4.61 -3.93,1.63 -8.44,-0.22 -10.08,-4.15 -1.75,-4.17 -39.92,-97.56 -13.6,-197.33 5.5,-0.73 11.06,-1.41 16.61,-2.1z"/>
  <path class="fil2" d="M2320.25 4018.71c-26.18,105.85 16.11,208.14 16.57,209.25 0.77,1.83 0.78,3.8 0.18,5.54 -0.69,1.96 -2.19,3.68 -4.29,4.55 -3.91,1.67 -8.42,-0.15 -10.09,-4.1 -1.95,-4.62 -43.51,-105.27 -18.6,-213.74 5.43,-0.53 10.83,-1.03 16.24,-1.51z"/>
  <path class="fil3" d="M2362.13 4226.42c0,0 133.58,23.73 222.03,-4.93 0,0 13.53,49.91 -24.06,82.51 0,0 -313.01,-0.27 -436.79,-25.64 -123.77,-25.36 -209.92,-51.43 -208.29,-99.77l447.12 47.82z"/>
  <path class="fil2" d="M2359.61 4235.89c-1.05,3.04 -3.94,5.21 -7.33,5.19 -213.14,-1.08 -423.79,-53.07 -425.89,-53.61 -4.12,-1.02 -6.63,-5.2 -5.6,-9.34 1,-4.1 5.21,-6.63 9.33,-5.6 2.1,0.52 210.99,52.07 422.24,53.14 4.26,0.03 7.69,3.49 7.67,7.75l-0.42 2.47z"/>
  <path class="fil7" d="M1842.81 3720.43l-86.57 119.29c0,0 -120.74,25.7 -215.76,1.84 -82.26,-20.66 -241.23,-126.15 -288.3,-92.62 -29.69,21.13 83.33,143.54 141.25,185.04 57.93,41.49 177.98,173.5 262.99,226.46 85,52.95 162.32,-83.54 194.49,-121.98 56.14,-67.12 133.36,-173.33 133.36,-173.33l-141.46 -144.7z"/>
  <path class="fil3" d="M1676.7 3841.75c0,0 -100.38,107.75 -110.42,248.29 0,0 -322.21,-227.03 -337.07,-339.38 -5.49,-41.44 25.01,-55.84 76.37,-51.63 6.53,0.51 13.35,1.35 20.55,2.43 17.35,2.74 36.5,7.1 57,12.9 5.5,1.53 11.07,3.19 16.76,4.95 16.8,5.14 34.36,11.16 52.47,17.91 5.39,1.98 10.8,4.04 16.28,6.13 15.97,6.24 32.3,12.96 48.86,20.1 5.26,2.27 10.55,4.57 15.84,6.92 15.48,6.88 31.1,14.12 46.76,21.62 5.02,2.4 10.03,4.86 15.06,7.33 15.3,7.49 30.59,15.26 45.75,23.23 4.84,2.53 9.64,5.05 14.43,7.62 7.16,3.81 14.28,7.7 21.38,11.58z"/>
  <path class="fil2" d="M1326.13 3701.46c-40.9,32.79 -51.48,77.82 -51.56,78.27 -0.41,1.85 -1.47,3.35 -2.82,4.41 -1.76,1.36 -4.05,1.97 -6.37,1.43 -4.15,-0.92 -6.78,-5.01 -5.86,-9.19 0.42,-1.91 9.85,-42.68 46.06,-77.35 6.53,0.51 13.35,1.35 20.55,2.43z"/>
  <path class="fil2" d="M1399.89 3719.31c-0.48,1.3 -1.3,2.44 -2.46,3.34l-0.3 0.23c-53.12,41.11 -66.4,103.11 -66.49,103.72 -0.38,1.87 -1.42,3.45 -2.85,4.54 -1.7,1.32 -3.97,1.91 -6.26,1.46 -4.17,-0.86 -6.86,-4.94 -5.99,-9.1 0.58,-2.67 13.85,-64.77 67.6,-109.14 5.5,1.53 11.07,3.19 16.76,4.95z"/>
  <path class="fil2" d="M1468.64 3743.35l-1.81 2.04 -0.56 0.43c-63.41,49.06 -79.43,126.94 -79.6,127.73 -0.37,1.88 -1.43,3.49 -2.84,4.57 -1.71,1.34 -3.94,1.92 -6.21,1.5 -4.16,-0.83 -6.89,-4.87 -6.07,-9.05 0.69,-3.34 16.33,-80.69 80.81,-133.35 5.39,1.98 10.8,4.04 16.28,6.13z"/>
  <path class="fil2" d="M1533.33 3770.37c-72.17,57.28 -90.42,149.19 -90.63,150.13 -0.35,1.91 -1.39,3.54 -2.82,4.65 -1.68,1.3 -3.92,1.89 -6.17,1.5 -4.18,-0.81 -6.91,-4.85 -6.12,-9.02 0.74,-3.92 18.4,-93.28 89.91,-154.17 5.26,2.27 10.55,4.57 15.84,6.92z"/>
  <path class="fil2" d="M1595.15 3799.32c-76.57,65.83 -96.18,167.1 -96.39,168.15 -0.38,1.93 -1.42,3.55 -2.86,4.67 -1.68,1.3 -3.9,1.92 -6.12,1.5 -4.19,-0.77 -6.94,-4.79 -6.18,-8.98 0.82,-4.44 19.91,-103.51 96.48,-172.66 5.02,2.4 10.03,4.86 15.06,7.33z"/>
  <path class="fil2" d="M1655.32 3830.16c-79.78,74.31 -100.28,183.1 -100.5,184.28 -0.37,1.96 -1.43,3.59 -2.9,4.73 -1.65,1.28 -3.84,1.88 -6.07,1.46 -4.19,-0.73 -6.98,-4.73 -6.22,-8.94 0.9,-4.94 21.11,-111.93 101.26,-189.15 4.84,2.53 9.64,5.05 14.43,7.62z"/>
  <path class="fil3" d="M1576.85 4026.97c0,0 98.89,92.9 188.62,117.26 0,0 -15.95,49.19 -65.26,55.94 0,0 -261.96,-171.34 -351.74,-260.24 -89.77,-88.91 -147.66,-157.83 -119.87,-197.43l348.25 284.46z"/>
  <path class="fil2" d="M1569.55 4033.55c-2.53,1.95 -6.13,2.19 -8.95,0.32 -177.9,-117.41 -325.85,-276.11 -327.33,-277.7 -2.89,-3.11 -2.7,-7.99 0.41,-10.89 3.08,-2.88 7.99,-2.7 10.89,0.41 1.46,1.58 148.21,158.96 324.51,275.32 3.56,2.34 4.54,7.12 2.19,10.67l-1.71 1.86z"/>
  <path class="fil8" d="M2520.68 2636.69c67.75,-44.88 1017.78,-97.56 1299.46,43.6 21.33,72.32 -444.73,262.07 -581.4,395.22 -403.99,-12.22 -648.13,76.95 -648.13,76.95 0,0 -201.27,293.79 -306.68,395.49 -105.42,101.69 -326.23,397.89 -326.23,397.89l-196.31 -144.88c0,0 574.85,-1042.02 759.3,-1164.27z"/>
  <path class="fil9" d="M2039.62 3832.29c3.17,0.61 6.56,-0.65 8.5,-3.49 2.61,-3.81 1.64,-9.01 -2.17,-11.62l-203.18 -139.18c-3.81,-2.62 -9.01,-1.63 -11.62,2.17 -2.61,3.81 -1.63,9.01 2.18,11.61l203.17 139.19c0.98,0.66 2.03,1.1 3.13,1.31z"/>
  <path class="fil9" d="M1986.91 3795.71c3.15,0.6 6.5,-0.63 8.45,-3.43 0.97,-1.36 25.73,-35.83 193.71,-219.66 182.99,-200.27 385.93,-500.66 387.96,-503.66 2.58,-3.83 1.56,-9.02 -2.26,-11.61 -3.82,-2.57 -9.02,-1.56 -11.61,2.27 -2.03,3.01 -204.28,302.38 -386.44,501.73 -169.83,185.86 -194.13,220 -195.07,221.36 -2.65,3.79 -1.73,9.01 2.06,11.65 0.99,0.68 2.07,1.13 3.18,1.36z"/>
  <path class="fil10" d="M4151.74 2668.34c0,0 176.43,738.17 -680.38,622.76 -386.71,-52.08 -557.85,-146.96 -557.85,-146.96 0,0 -75.03,336.41 -120.62,475.61 -45.58,139.19 -148.12,383.28 -148.12,383.28l-229.21 -44.61c0,0 111.1,-1060.44 318.17,-1138.47 207.08,-78.02 544.29,-101.23 1009.22,-56.18 0,0 335.23,-75.91 408.8,-95.43z"/>
  <path class="fil8" d="M2640.19 3874.91c3.83,0.74 7.77,-1.3 9.31,-5.03 64.91,-157.23 115.67,-358.76 156.45,-520.7 33.81,-134.28 65.75,-261.11 86.18,-273.11 16.55,-9.73 73.29,11.42 145.12,38.19 142.88,53.25 358.82,133.73 616.03,124.37 140.12,-5.09 251.33,-51.03 330.55,-136.51 136.63,-147.42 129.69,-364.52 129.6,-366.69 -0.19,-4.61 -4.08,-8.22 -8.68,-8.02 -4.61,0.17 -8.21,4.07 -8.02,8.68 0.08,2.1 6.68,212.52 -125.25,354.77 -76.1,82.04 -183.36,126.14 -318.8,131.06 -253.9,9.24 -467.95,-70.55 -609.59,-123.34 -84.83,-31.61 -136.03,-50.7 -159.43,-36.94 -25.28,14.86 -49.6,107.41 -93.93,283.45 -40.65,161.41 -91.24,362.3 -155.68,518.4 -1.77,4.26 0.27,9.16 4.54,10.92l1.59 0.49z"/>
  <path class="fil8" d="M2435.04 3834.96l0.18 0.03 255.94 44.14c4.55,0.78 8.87,-2.27 9.66,-6.82 0.78,-4.56 -2.22,-8.96 -6.82,-9.65l-255.95 -44.15c-4.55,-0.78 -8.87,2.27 -9.66,6.82 -0.77,4.5 2.19,8.76 6.64,9.63z"/>
  <path class="fil4" d="M3538.64 2800.49l-902.41 -37.19c-6.88,-0.28 -12.24,-6.09 -11.95,-12.98l3.95 -95.91c0.28,-6.88 6.1,-12.25 12.98,-11.96l902.41 37.19c6.89,0.28 12.24,6.1 11.96,12.99l-3.96 95.9c-0.28,6.89 -6.09,12.25 -12.98,11.96z"/>
  <path class="fil4" d="M2526.96 2758.8c-34.91,-1.43 -64.47,-26.15 -72.09,-60.24l-146.67 -656.62c-8.95,-40.13 22.56,-77.85 63.64,-76.15l415.2 17.11c28.01,1.16 51.85,20.81 58.31,48.08l177.3 748.25 -495.69 -20.43z"/>
  <path class="fil5" d="M2569.97 2371.31c9.61,43.04 48.68,80.67 87.27,84.02 38.6,3.38 62.1,-28.78 52.49,-71.82 -9.61,-43.03 -48.68,-80.65 -87.27,-84.02 -38.59,-3.37 -62.09,28.77 -52.49,71.82z"/>
  <path class="fil4" d="M2648.06 2363.51c1.92,8.61 6.2,15.82 9.56,16.13 3.35,0.28 4.52,-6.46 2.59,-15.07 -1.92,-8.61 -6.2,-15.81 -9.55,-16.11 -3.37,-0.3 -4.53,6.45 -2.61,15.05z"/>
  <path class="fil4" d="M2611.6 2360.34c1.93,8.6 6.21,15.83 9.56,16.11 3.35,0.29 4.52,-6.45 2.59,-15.05 -1.92,-8.61 -6.2,-15.83 -9.55,-16.12 -3.37,-0.29 -4.52,6.46 -2.61,15.06z"/>
  <path class="fil4" d="M2647.71 2415.32c30.05,2.62 29.46,-30.28 29.45,-30.61 -0.06,-1.8 -1.5,-3.69 -3.22,-4.24 -1.73,-0.54 -3.08,0.49 -3.04,2.28 0.03,1.18 0.38,27.98 -24.69,25.79 -25.1,-2.18 -36.94,-30.04 -37.42,-31.22 -0.77,-1.86 -2.65,-3.16 -4.19,-2.9 -1.55,0.26 -2.18,1.97 -1.42,3.82 0.14,0.35 14.5,34.45 44.55,37.08z"/>
  <path class="fil4" d="M2845.38 2030.99l175.82 742.08 47.44 1.97 -175.82 -742.09c-6.51,-27.3 -30.31,-46.98 -58.33,-48.13l-47.44 -1.95c28.03,1.15 51.82,20.83 58.33,48.13z"/>
  <path class="fil11" d="M3008.63 2726.86c-3.07,0 -5.85,-2.09 -6.59,-5.22l-163.26 -689.09c-0.87,-3.65 1.39,-7.3 5.04,-8.16 3.65,-0.88 7.3,1.39 8.16,5.04l163.26 689.09c0.87,3.63 -1.39,7.29 -5.04,8.16l-1.58 0.18z"/>
  <path class="fil5" d="M3379.93 2144.22l0.66 2.28c2.53,8.74 5.59,17.21 9.18,25.56 21.05,49.9 57.57,92.22 72.16,107.98 4.02,4.45 6.42,6.74 6.42,6.74l-0.13 0.94c-0.28,2.54 -0.55,5.1 -0.83,7.92 -1.12,10.73 -2.77,23.62 -5.78,37.86 -35.49,163.34 -44.24,190.69 -58.59,260.09 214.24,308.73 721.91,113.02 748.73,74.74 23.22,-165.51 23.22,-165.51 47.82,-325.66 11.82,-77.34 43.39,-193.29 85.44,-308.79 1.63,-4.57 3.25,-9.12 5.02,-13.69 12.6,-33.94 26.02,-67.74 40.11,-100.19 61.62,-142.18 47.19,-269.99 -35.87,-328.19 -28.21,-19.77 -114.88,-45.64 -153.27,-53.7 -10.33,-2.19 -20.53,-4.25 -30.2,-6.15 -54.11,-10.4 -96.4,-16.33 -96.4,-16.33l-259.52 2.31c-25.54,2.87 -48.52,6.02 -69.21,9.83 -18.15,3.16 -34.56,6.86 -49.35,10.97 -132.3,36.34 -137.38,105.9 -161.61,231.28 -6.97,35.71 -16.77,70.87 -27.49,104.68 -3.53,10.6 -7.06,21.07 -10.58,31.53 -33.93,99.55 -71.18,185.12 -56.72,237.97z"/>
  <path class="fil12" d="M4028.63 1517.96c0,0 135.16,21.59 134.42,99.01 -0.73,77.42 -276.4,71.2 -276.4,71.2 0,0 127.87,-84.78 141.98,-170.22z"/>
  <path class="fil12" d="M3760.91 1517.96c0,0 -135.17,21.59 -134.43,99.01 0.73,77.42 190.76,78.61 190.76,78.61 0,0 -42.22,-92.19 -56.33,-177.62z"/>
  <path class="fil7" d="M3761.98 1507.35l-9.37 91.85c-7.65,74.92 73.78,125.91 138.08,86.67 74.88,-45.72 142.11,-108.19 142.97,-167.35l-271.68 -11.17z"/>
  <path class="fil6" d="M3468.34 2286.78l-0.13 0.94c-0.28,2.54 -0.55,5.1 -0.83,7.92 47.38,10.9 108.36,12.46 180.13,-1.26 141.55,-27.18 256.97,38.51 258.05,39.19 1.06,0.67 2.41,0.95 3.63,0.95 2.41,0.01 4.84,-1.34 6.05,-3.6 2.03,-3.35 0.83,-7.66 -2.51,-9.68 -4.83,-2.84 -121.06,-68.93 -267.98,-40.84 -74.47,14.25 -136.52,11.74 -182.82,-0.37 4.02,4.45 6.42,6.74 6.42,6.74z"/>
  <path class="fil6" d="M3702.5 1934.32c86.6,0.3 263.74,-123.11 271.24,-128.36 3.22,-2.26 4.01,-6.69 1.75,-9.91 -2.26,-3.21 -6.69,-3.99 -9.9,-1.74 -1.8,1.26 -180.94,126.07 -263.04,125.79 -78.57,-0.27 -95.68,-86.16 -95.85,-87.03 -0.73,-3.85 -4.43,-6.42 -8.3,-5.66 -3.86,0.73 -6.39,4.45 -5.67,8.31 0.18,0.98 19.59,98.28 109.77,98.6z"/>
  <path class="fil6" d="M3421.89 2475.23c4.11,0.82 8.26,-1.58 9.56,-5.68 20.37,-64.46 44.7,-178.95 44.95,-180.1 0.67,-3.22 -0.58,-6.51 -3.22,-8.46 -0.7,-0.52 -69.93,-52.6 -85.01,-138.23 -0.8,-4.55 -5.13,-7.59 -9.68,-6.78 -4.55,0.8 -7.59,5.14 -6.78,9.68 14.18,80.57 70.93,132.04 87.24,145.4 -4.94,22.86 -25.75,117.47 -43.44,173.45 -1.39,4.4 1.04,9.09 5.45,10.49l0.93 0.23z"/>
  <path class="fil4" d="M3543.58 1017.87c0,0 -42.85,125.9 24.67,174.69l5.92 -172.9 -30.59 -1.79z"/>
  <path class="fil4" d="M3616.58 883.29c0,0 160.29,-158.01 350.67,-27.59 193.67,132.68 172.01,471.47 -1.82,512.66 0,0 -289.35,-252.02 -348.85,-485.07z"/>
  <path class="fil13" d="M3617.76 1215.29c0,0 -46.87,-38.86 -60.61,10.8 -13.74,49.65 19.59,139.26 75.82,113.61l-15.21 -124.41z"/>
  <path class="fil7" d="M3749.21 1434.15l17.05 125.52c0,0 92.36,126.22 267.4,-41.15 -33.95,-50.07 -61.75,-143.38 -55.18,-194.49 0,0 -13.68,7.79 -34.88,26.09 -4.14,3.58 -9.41,6.32 -14.6,9.68 -45.92,29.68 -116.1,68.02 -179.8,74.34z"/>
  <path class="fil4" d="M3749.21 1434.15l8.09 59.5c51.83,-21.63 143.67,-68.36 186.31,-143.52 -4.54,3.08 -9.41,6.32 -14.6,9.68 -45.92,29.68 -116.1,68.02 -179.8,74.34z"/>
  <path class="fil7" d="M3632.96 1406.29c111.81,107.24 338.54,-76.22 345.36,-81.81l0.15 -0.15c0.45,-10.2 0.65,-20.29 0.71,-30.23 0.46,-84.24 -12.11,-160.17 -33.23,-230.68 -9.55,-76.61 -67.33,-139.26 -143.37,-152.56 -78.8,-13.77 -139.36,30.58 -177.05,49.97 -56.86,29.27 -80.88,113.81 -61.48,224.69 23.8,136.09 38,191.12 68.91,220.77z"/>
  <path class="fil4" d="M3715.76 1054.5c0,0 -21.61,6.1 -10.29,24.89 11.32,18.79 51.49,-11.3 89.7,20.23 0,0 4.81,-50.78 -79.41,-45.12z"/>
  <path class="fil4" d="M3616.08 1072.27c0,0 22.38,-1.75 18.25,19.79 -4.14,21.54 -52.23,7.18 -77.2,49.96 0,0 -22.05,-45.98 58.95,-69.75z"/>
  <path class="fil13" d="M3750.86 1210.52c1.82,10.27 24.45,14.81 50.53,10.17 26.07,-4.63 45.73,-16.73 43.91,-26.98 -1.84,-10.27 -24.46,-14.83 -50.53,-10.18 -26.08,4.65 -45.74,16.74 -43.91,27z"/>
  <path class="fil14" d="M3556.62 1228.15l-0.25 -1.69c0.24,-0.07 0.49,-0.14 0.74,-0.21 -0.17,0.63 -0.34,1.26 -0.49,1.9z"/>
  <path class="fil13" d="M3561.7 1262.82l-5.08 -34.68c0.15,-0.64 0.32,-1.27 0.49,-1.9 3.02,-0.8 6.19,-1.5 9.44,-2.09 1.44,-0.26 2.87,-0.49 4.28,-0.68 2.43,13.19 4.77,25.48 7.06,36.93 -1.54,0.34 -3.11,0.65 -4.71,0.93 -3.92,0.7 -7.77,1.21 -11.47,1.49z"/>
  <path class="fil15" d="M3577.88 1260.41c-2.29,-11.45 -4.62,-23.74 -7.06,-36.93 5.38,-0.77 10.58,-1.13 15.42,-1.13 16.9,0 29.46,4.46 30.8,12.01 1.71,9.63 -15.5,20.87 -39.17,26.05z"/>
  <path class="fil4" d="M3922.26 1275.47c0.95,1.46 27.15,41.14 56.05,49.02l0.04 0.01 0.11 -0.16c0.43,-10.2 0.65,-20.29 0.71,-30.23 -1.03,0.01 -28.77,0.12 -56.91,-18.64z"/>
  <path class="fil7" d="M3930.64 1172.97c0,0 42.87,-85.75 94.78,-33.61 42.75,42.97 1.17,182.19 -73.97,150.42l-20.81 -116.8z"/>
  <path class="fil12" d="M3991.57 1255.18c0,0 -33.82,94.18 -4.94,101.23 53.11,12.98 4.94,-101.23 4.94,-101.23z"/>
  <path class="fil4" d="M3955.1 1265.6c2.92,-0.52 5.04,-3.17 4.83,-6.2 -3.94,-58.42 40.51,-86.93 42.39,-88.12 2.76,-1.73 3.61,-5.35 1.89,-8.11 -1.73,-2.76 -5.35,-3.61 -8.12,-1.9 -2.14,1.34 -52.35,33.29 -47.92,98.93 0.23,3.24 3.04,5.7 6.29,5.48l0.64 -0.08z"/>
  <path class="fil4" d="M4002.94 1220.8c1.7,-0.3 3.23,-1.33 4.14,-2.94 1.57,-2.85 0.54,-6.43 -2.3,-8 -2.65,-1.48 -26.36,-14.14 -42.98,-6.59 -2.96,1.35 -4.27,4.84 -2.92,7.81 1.34,2.96 4.84,4.26 7.8,2.92 9.55,-4.35 26.63,2.97 32.39,6.17 1.23,0.68 2.59,0.88 3.88,0.64z"/>
  <path class="fil4" d="M3732.19 1158.6c2.51,14.09 10.94,24.38 18.82,22.98 7.89,-1.4 12.25,-13.98 9.75,-28.07 -2.52,-14.1 -10.94,-24.39 -18.83,-22.98 -7.89,1.4 -12.25,13.97 -9.74,28.07z"/>
  <path class="fil4" d="M3592.72 1180.4c2.52,14.1 10.94,24.39 18.83,22.98 7.88,-1.4 12.25,-13.97 9.73,-28.07 -2.51,-14.09 -10.94,-24.38 -18.82,-22.97 -7.89,1.39 -12.24,13.97 -9.73,28.06z"/>
  <path class="fil4" d="M3684.62 1302.79c35.84,-6.38 62.78,-37.45 63.17,-37.9 2.1,-2.48 1.81,-6.2 -0.66,-8.3 -2.49,-2.11 -6.2,-1.81 -8.31,0.67 -2.09,2.44 -50.46,57.93 -100.22,24.05 -2.69,-1.83 -6.35,-1.14 -8.18,1.55 -1.84,2.69 -1.13,6.35 1.55,8.18 18.28,12.45 36.38,14.64 52.65,11.75z"/>
  <path class="fil4" d="M3876.19 1016.77c0,0 -9.85,166.77 39.78,176.7 58.72,11.73 63.22,-120.11 23.8,-224.79l-63.58 48.1z"/>
  <path class="fil4" d="M3900.87 1050.64c0,0 -235.9,33.46 -282.87,-57.96 0,0 -21.26,81.3 -73.1,86.5 0,0 -33.3,-89.33 71.68,-195.89 0,0 251.39,-68.38 312.58,37.35 61.18,105.74 -28.29,130 -28.29,130z"/>
  <path class="fil12" d="M3832.21 1120.16l-1.65 0.11 -126.31 18.26c-6.3,0.91 -10.68,6.76 -9.77,13.06l4.49 31.09c1.3,9 6.02,16.95 13.31,22.39 7.28,5.44 16.24,7.72 25.24,6.43l81.77 -11.82c9.01,-1.29 16.95,-6.02 22.4,-13.29 5.44,-7.29 7.73,-16.25 6.43,-25.25l-4.5 -31.09c-0.83,-5.73 -5.78,-9.88 -11.41,-9.88zm-99.58 102.53c-21.93,0 -41.17,-16.14 -44.4,-38.47l-4.48 -31.08c-1.77,-12.21 6.73,-23.6 18.95,-25.36l126.31 -18.25c12.22,-1.76 23.59,6.74 25.36,18.95l4.48 31.08c1.71,11.86 -1.29,23.7 -8.47,33.29 -7.18,9.61 -17.67,15.84 -29.53,17.55l-81.77 11.82c-2.17,0.3 -4.33,0.46 -6.45,0.46z"/>
  <path class="fil12" d="M3626.82 1149.82l-1.64 0.12 -85.16 12.31c-6.3,0.9 -10.67,6.76 -9.76,13.06l4.48 31.08c1.3,8.99 6.02,16.94 13.31,22.39 7.27,5.44 16.23,7.72 25.24,6.42l40.63 -5.86c18.56,-2.68 31.49,-19.98 28.81,-38.54l-4.48 -31.1c-0.83,-5.73 -5.78,-9.88 -11.42,-9.88zm-58.49 96.59c-9.62,0 -18.94,-3.08 -26.78,-8.94 -9.61,-7.18 -15.84,-17.66 -17.55,-29.52l-4.49 -31.09c-1.76,-12.22 6.74,-23.59 18.95,-25.36l85.16 -12.3c12.25,-1.78 23.59,6.73 25.36,18.95l4.5 31.08c3.53,24.5 -13.51,47.3 -38.01,50.85l-40.62 5.86c-2.17,0.31 -4.35,0.46 -6.51,0.46z"/>
  <path class="fil4" d="M3665.12 1222.98c7.24,-1.29 16.77,-4.34 25.64,-11.35 2.55,-2.02 2.97,-5.72 0.97,-8.27 -2.03,-2.55 -5.73,-2.99 -8.28,-0.97 -8.04,6.37 -16.97,8.6 -22.85,9.34l9.37 -58.14c0.51,-3.22 -1.68,-6.23 -4.9,-6.74 -3.2,-0.52 -6.23,1.66 -6.75,4.87l-10.49 65.3c-0.27,1.63 0.16,3.29 1.18,4.59 1.03,1.29 2.54,2.1 4.19,2.22 0.4,0.03 5.17,0.36 11.93,-0.85z"/>
  <path class="fil12" d="M3643.81 1156.86l-5.6 -9.29c17.25,-10.4 34.82,-12.16 52.18,-5.23l-4.02 10.09c-14.25,-5.69 -28.18,-4.23 -42.57,4.44z"/>
  <path class="fil12" d="M3848.99 1134.69c-2.26,0 -4.38,-1.42 -5.15,-3.69 -0.95,-2.83 0.57,-5.91 3.4,-6.88 2.74,-0.92 67.62,-22.53 119.22,-3 2.8,1.05 4.22,4.19 3.16,7 -1.07,2.8 -4.2,4.21 -7,3.15 -47.92,-18.15 -111.26,2.92 -111.9,3.13l-1.74 0.29z"/>
  <path class="fil7" d="M3258.1 2609.82c0,0 -162.67,-73.28 -237.06,-35.71l29.46 124.34c0,0 65.28,30.59 93.83,43.94 28.56,13.34 31.48,67.81 140.39,68.33l-26.62 -200.9z"/>
  <path class="fil5" d="M3974.78 2414.86l0.38 -0.46c1.25,-1.5 1.95,-2.12 2.31,-2.31 0.35,-0.16 -0.61,1.01 -2.69,2.77zm404.1 -507.92c-0.78,-39 -3.13,-77.88 -7.25,-116.9 -2.05,-19.5 -4.56,-39.05 -7.59,-58.8 -1.58,-9.89 -3.29,-19.82 -5.19,-29.97 -0.95,-5.07 -1.95,-10.2 -3.07,-15.49l-1.74 -8.14 -0.98 -4.34 -1.38 -5.81 -282.26 70.17 1.58 7.27 2.01 10.2c1.33,7.03 2.58,14.31 3.74,21.69 2.42,14.73 4.53,29.81 6.26,45.01 3.56,30.41 5.76,61.3 6.71,92.15 2.3,61.73 -0.54,123.54 -8.95,183.89 -2.06,15.09 -4.59,30.1 -7.35,44.99 -2.69,14.93 -5.78,29.72 -9.26,44.39 -3.4,14.69 -7.25,29.23 -11.43,43.64 -4.12,14.44 -8.76,28.64 -13.64,42.75 -4.81,14.14 -10.2,28.04 -15.72,41.85 -5.69,13.72 -11.6,27.34 -18.02,40.73 -6.43,13.35 -13.1,26.59 -20.29,39.53 -3.5,6.52 -7.25,12.89 -10.99,19.3l-0.38 0.65c-2.57,2.06 -6.19,4.65 -10.45,7.36 -8.87,5.63 -20.3,11.77 -32.69,17.69 -24.99,11.91 -53.89,23.01 -83.76,33.45 -60.06,20.82 -124.56,38.4 -189.76,54.68 -65.36,16.09 -131.88,30.72 -198.81,44.17 -33.5,6.85 -67.08,13.36 -100.71,19.55l-50.47 9.06 -25.15 4.44 -24.58 4.19 27.3 223.83 27.37 -2.55 26.76 -2.64c17.78,-1.86 35.52,-3.87 53.24,-5.94 35.44,-4.13 70.82,-8.61 106.23,-13.41 70.8,-9.85 141.59,-21.13 212.69,-34.93 71.24,-13.75 142.49,-29.76 215.6,-51.31 36.64,-10.88 73.59,-23.32 112.45,-39.78 4.13,-1.76 8.27,-3.58 12.45,-5.48 15.56,-6.98 31.49,-14.78 48.2,-24.34 10.61,-6.11 21.6,-12.93 33.1,-21.12 11.45,-8.14 23.66,-17.84 36.43,-30.36 6.46,-6.42 13.01,-13.54 19.67,-21.93 3.4,-4.36 6.66,-8.68 9.99,-13.73l2.47 -3.69 1.13 -1.82 2.04 -3.17c5.43,-8.5 10.83,-16.99 15.96,-25.65 9.37,-15.38 18.18,-31.06 26.65,-46.91 1,-1.88 2.01,-3.74 3.01,-5.64 9.39,-17.77 18.16,-35.84 26.54,-54.09 8.2,-18.29 16.18,-36.69 23.35,-55.36 28.76,-74.64 49.52,-151.76 62.08,-229.51 12.68,-77.77 18,-155.97 16.91,-233.87z"/>
  <path class="fil6" d="M4247 2485.41c-8.47,15.85 -17.28,31.53 -26.65,46.91 -5.12,8.66 -10.53,17.15 -15.96,25.65l-2.04 3.17 -1.13 1.82 -2.47 3.69c-3.33,5.05 -6.59,9.37 -9.99,13.73 -6.65,8.38 -13.21,15.5 -19.67,21.93 -12.77,12.52 -24.98,22.22 -36.43,30.36 -11.49,8.2 -22.49,15.01 -33.1,21.12 -16.71,9.55 -32.65,17.36 -48.2,24.34 7.9,-186.75 130.36,-199.41 195.63,-192.72z"/>
  <path class="fil6" d="M4056.73 2492.8c2.62,0.5 5.42,-0.24 7.47,-2.23 3.29,-3.24 3.34,-8.54 0.11,-11.82 -40.02,-40.7 -97.19,-81.15 -99.61,-82.84 -3.78,-2.65 -8.99,-1.75 -11.65,2.02 -2.65,3.78 -1.75,8.99 2.02,11.65 0.59,0.41 58.38,41.27 97.31,80.89 1.23,1.25 2.76,2.03 4.35,2.34z"/>
  <path class="fil6" d="M4041.14 2433.58c4.18,0.82 8.35,-1.66 9.61,-5.82 1.31,-4.42 -1.19,-9.07 -5.62,-10.4 -1.83,-0.54 -45.4,-13.53 -79.73,-19.96 -4.54,-0.86 -8.9,2.15 -9.75,6.69 -0.83,4.54 2.23,8.8 6.69,9.73 33.41,6.25 77.56,19.42 78.01,19.55l0.8 0.21z"/>
  <path class="fil6" d="M3426.68 2583.28c1.15,0.22 2.38,0.19 3.6,-0.1 310.1,-77.1 518.35,-165.63 528.82,-175.7 0.83,-0.82 1.51,-1.79 1.95,-2.88 7.11,-17.54 173.93,-431.43 149.94,-598.21 -0.64,-4.57 -4.87,-7.74 -9.45,-7.08 -4.57,0.65 -7.74,4.89 -7.09,9.45 22.45,156.06 -134.3,553.04 -147.96,587.23 -21.67,12.57 -224.25,97.36 -520.24,170.94 -4.49,1.11 -7.22,5.64 -6.11,10.13 0.82,3.26 3.43,5.59 6.54,6.2z"/>
  <path class="fil6" d="M4097.6 1886.98c2.07,0.41 4.31,0.03 6.2,-1.23 3.86,-2.54 4.92,-7.73 2.38,-11.58l-28.42 -43.05c-2.54,-3.86 -7.74,-4.92 -11.58,-2.38 -3.85,2.55 -4.92,7.73 -2.37,11.58l28.42 43.06c1.28,1.94 3.26,3.18 5.37,3.59z"/>
  <path class="fil6" d="M3415.76 2822.98l2.7 0.06c4.58,-0.6 7.79,-4.8 7.19,-9.38l-28.98 -218.53c-0.61,-4.57 -4.81,-7.78 -9.39,-7.18 -4.57,0.62 -7.79,4.82 -7.18,9.39l28.98 218.51c0.49,3.66 3.26,6.45 6.69,7.12z"/>
  <path class="fil6" d="M3284.16 2787.58l2.83 0.06 120.56 -18.09c4.56,-0.7 7.71,-4.94 7.02,-9.51 -0.68,-4.57 -4.95,-7.72 -9.51,-7.03l-120.55 18.09c-4.57,0.68 -7.72,4.93 -7.03,9.5 0.54,3.59 3.3,6.32 6.68,6.98z"/>
  <path class="fil6" d="M3318.1 2701.14c-3.75,9.98 1.29,21.12 11.27,24.88 9.99,3.76 21.12,-1.28 24.88,-11.27 3.75,-9.98 -1.28,-21.12 -11.27,-24.88 -9.97,-3.77 -21.12,1.28 -24.88,11.27z"/>
  <path class="fil1" d="M6216.54 4296.01c0,28.88 156.05,52.29 348.52,52.29 192.5,0 348.54,-23.41 348.54,-52.29 0,-28.88 -156.04,-52.28 -348.54,-52.28 -192.48,0 -348.52,23.41 -348.52,52.28z"/>
  <polygon class="fil10" points="6944.49,3506.07 6925.32,3611.59 6923.33,3622.48 6919.56,3643.22 6919.49,3643.72 6910.56,3692.74 6908.68,3703.13 6906.82,3713.49 6902.84,3735.27 6840.14,4080.39 6837.64,4094.09 6834.29,4112.52 6833.87,4114.84 6824.88,4164.36 6823.49,4171.94 6821.09,4185.11 6817.65,4204.08 6799.86,4302.03 6340.02,4302.03 6322.23,4204.08 6318.79,4185.11 6316.39,4171.94 6315.01,4164.36 6306.01,4114.84 6305.59,4112.52 6302.22,4094.09 6299.73,4080.39 6237.04,3735.27 6233.07,3713.49 6231.19,3703.13 6229.32,3692.74 6220.39,3643.72 6220.31,3643.22 6216.54,3622.48 6214.56,3611.59 6195.38,3506.07 "/>
  <polygon class="fil8" points="6910.56,3692.74 6908.68,3703.13 6906.82,3713.49 6233.07,3713.49 6231.19,3703.13 6229.32,3692.74 "/>
  <polygon class="fil8" points="6923.33,3622.48 6919.56,3643.22 6220.31,3643.22 6216.54,3622.48 "/>
  <polygon class="fil8" points="6824.88,4164.36 6823.49,4171.94 6821.09,4185.11 6318.79,4185.11 6316.39,4171.94 6315.01,4164.36 "/>
  <polygon class="fil8" points="6837.64,4094.09 6834.29,4112.52 6833.87,4114.84 6306.01,4114.84 6305.59,4112.52 6302.22,4094.09 "/>
  <path class="fil2" d="M6352.77 3506.08c0,0 -307.98,-394.33 -220.49,-738.67 0,0 349.97,78.8 321.98,738.67l-101.48 0z"/>
  <path class="fil3" d="M6554.54 3506.08l-143.35 0c0,0 -200.64,-335.38 128.34,-955.82 0,0 41.48,136.12 71.55,309.43 39.04,225.02 58.82,512.7 -56.54,646.39z"/>
  <path class="fil2" d="M6554.54 3506.08l-98.95 0c-44.61,-280.95 106.72,-564.16 155.49,-646.39 39.04,225.02 58.82,512.7 -56.54,646.39z"/>
  <path class="fil2" d="M6478.43 3497.96l-0.47 -0.01c-4.26,-0.25 -7.5,-3.91 -7.24,-8.16l39.19 -661.4c0.26,-4.26 3.87,-7.45 8.15,-7.25 4.26,0.25 7.5,3.91 7.25,8.16l-39.19 661.4c-0.25,4.1 -3.65,7.26 -7.69,7.26z"/>
  <path class="fil3" d="M6671.23 3506.08c0,0 297.49,-140.37 297.49,-1183.02 0,0 -572.92,772.94 -427.45,1183.02l129.96 0z"/>
  <path class="fil2" d="M6600.92 3505.77l-2.35 -0.36c-4.06,-1.31 -6.3,-5.65 -5.01,-9.7l283.82 -888c1.29,-4.06 5.63,-6.31 9.68,-5.01 4.06,1.29 6.3,5.63 5,9.69l-283.8 888.01c-1.04,3.26 -4.07,5.36 -7.34,5.36z"/>
  <path class="fil1" d="M6432.64 734.97c0,171.97 -139.41,311.38 -311.37,311.38 -171.98,0 -311.39,-139.41 -311.39,-311.38 0,-171.97 139.41,-311.38 311.39,-311.38 171.96,0 311.37,139.41 311.37,311.38z"/>
  <path class="fil10" d="M6432.64 694.44c0,171.96 -139.41,311.37 -311.37,311.37 -171.98,0 -311.39,-139.41 -311.39,-311.37 0,-171.97 139.41,-311.38 311.39,-311.38 171.96,0 311.37,139.41 311.37,311.38z"/>
  <path class="fil12" d="M6121.27 947.58c-139.6,0 -253.15,-113.57 -253.15,-253.14 0,-139.59 113.55,-253.15 253.15,-253.15 139.57,0 253.13,113.57 253.13,253.15 0,139.57 -113.56,253.14 -253.13,253.14z"/>
  <path class="fil0" d="M6374.41 694.44c0,6.74 -0.28,13.41 -0.78,20 -10.25,-130.28 -119.54,-233.17 -252.36,-233.17 -132.86,0 -242.12,102.88 -252.36,233.17 -0.52,-6.59 -0.79,-13.26 -0.79,-20 0,-139.6 113.54,-253.14 253.15,-253.14 139.56,0 253.14,113.54 253.14,253.14z"/>
  <path class="fil4" d="M6121.27 720.77c-1.95,0 -3.86,-0.9 -5.09,-2.56l-124.18 -167.17c-2.08,-2.81 -1.5,-6.78 1.3,-8.87 2.8,-2.08 6.77,-1.5 8.87,1.31l121.18 163.14 137.69 -60.45c3.2,-1.41 6.95,0.04 8.36,3.26 1.4,3.2 -0.06,6.94 -3.26,8.35l-142.33 62.46 -2.54 0.53z"/>
  <polygon class="fil1" points="1385.77,1871.37 2141.32,1871.37 2141.32,37.87 1385.77,37.87 "/>
  <polygon class="fil16" points="1385.77,1833.5 2141.32,1833.5 2141.32,0 1385.77,0 "/>
  <polygon class="fil17" points="1442.52,1776.76 2084.58,1776.76 2084.58,56.74 1442.52,56.74 "/>
  <polygon class="fil12" points="1470.89,1748.4 2056.21,1748.4 2056.21,85.11 1470.89,85.11 "/>
  <polygon class="fil5" points="1556.62,1644.91 1973.17,1644.91 1973.17,188.58 1556.62,188.58 "/>
  <path class="fil12" d="M1884.64 888.8c0,86.24 -69.91,156.15 -156.15,156.15 -86.24,0 -156.14,-69.91 -156.14,-156.15 0,-86.24 69.9,-156.14 156.14,-156.14 86.24,0 156.15,69.9 156.15,156.14z"/>
  <path class="fil2" d="M1672.59 916.75c0,0 132.44,-196.44 300.58,-209.92l0 738.73c0,0 -347.72,-376.18 -300.58,-528.81z"/>
  <path class="fil3" d="M1556.62 871.71c0,0 80.9,-22.71 235.8,161.76 145.26,173 180.75,395.43 180.75,395.43l0 216.02 -416.55 0 0 -773.21z"/>
  <path class="fil1" d="M1357.63 4112.54c0,34.42 -303.9,62.3 -678.82,62.3 -374.89,0 -678.81,-27.88 -678.81,-62.3 0,-34.41 303.91,-62.3 678.81,-62.3 374.91,0 678.82,27.9 678.82,62.3z"/>
  <path class="fil3" d="M470.5 1753.21c0,0 -349.63,-69.11 -447.2,-313.03 -97.58,-243.94 259.17,-426.88 447.2,-295.9 201.16,140.13 0,608.93 0,608.93z"/>
  <path class="fil2" d="M678.4 2394.05c-3.08,0 -5.78,-2.27 -6.25,-5.41 -33.48,-226.56 -168.5,-552.54 -275.85,-786.1 -116.42,-253.28 -226.29,-455.41 -227.39,-457.41 -1.67,-3.07 -0.54,-6.92 2.54,-8.59 3.07,-1.67 6.91,-0.53 8.57,2.53 1.1,2.02 111.18,204.52 227.77,458.19 107.7,234.32 243.17,561.5 276.88,789.54 0.5,3.45 -1.88,6.66 -5.34,7.18l-0.94 0.08z"/>
  <path class="fil2" d="M457.38 1729.61c-2.25,0 -4.44,-1.2 -5.58,-3.33 -152.07,-283.25 -399.02,-488.74 -401.49,-490.78 -2.7,-2.21 -3.08,-6.21 -0.86,-8.91 2.22,-2.69 6.21,-3.07 8.91,-0.85 2.5,2.05 251.31,209.05 404.59,494.56 1.66,3.07 0.5,6.92 -2.58,8.57 -0.94,0.51 -1.98,0.75 -2.98,0.75z"/>
  <path class="fil2" d="M464.3 1749.89c-1.8,0 -3.58,-0.76 -4.83,-2.24 -110.9,-130.54 -224.48,-211.7 -300.23,-256.79 -82.11,-48.88 -138.72,-67.1 -139.28,-67.29 -3.33,-1.05 -5.18,-4.61 -4.12,-7.94 1.05,-3.32 4.61,-5.17 7.94,-4.11 2.34,0.74 58.24,18.71 141.51,68.22 76.69,45.6 191.64,127.68 303.83,259.73 2.26,2.66 1.93,6.66 -0.73,8.91 -1.19,1.01 -2.65,1.51 -4.09,1.51z"/>
  <path class="fil2" d="M433.52 1675.64c-2.63,0 -5.09,-1.66 -5.98,-4.29 -85.25,-250.19 -53.89,-554.25 -53.56,-557.29 0.38,-3.47 3.48,-5.99 6.97,-5.61 3.48,0.37 5.99,3.49 5.62,6.96 -0.33,3.02 -31.38,304.37 52.96,551.86 1.12,3.31 -0.65,6.9 -3.95,8.03l-2.04 0.34z"/>
  <path class="fil2" d="M454.96 1725.16c-3.04,0 -5.72,-2.19 -6.23,-5.3 -26.09,-158.37 -6.04,-287.55 15.37,-368.04 23.25,-87.41 52.3,-136.62 53.53,-138.67 1.78,-3.01 5.66,-3.98 8.67,-2.19 2.99,1.79 3.97,5.66 2.19,8.67 -0.29,0.49 -29.53,50.1 -52.3,135.96 -21,79.19 -40.66,206.32 -14.98,362.22 0.56,3.45 -1.76,6.7 -5.21,7.27l-1.04 0.08z"/>
  <path class="fil3" d="M839.33 1816.95c0,0 353.11,-48.31 464.94,-286.03 111.84,-237.73 -233.45,-441.47 -428.9,-321.84 -209.09,127.98 -36.04,607.87 -36.04,607.87z"/>
  <path class="fil2" d="M705.39 2373.32l-0.07 0c-3.5,-0.04 -6.3,-2.91 -6.25,-6.41 1.39,-116.67 26.83,-249.59 75.63,-395.05 38.98,-116.17 92.87,-240.6 160.16,-369.82 114.54,-219.94 229.88,-379.75 231.03,-381.34 2.05,-2.83 6.01,-3.45 8.84,-1.41 2.83,2.05 3.46,6.01 1.41,8.83 -1.15,1.59 -116.03,160.77 -230.14,379.93 -105.15,201.95 -231.17,497.57 -234.29,759.01 -0.04,3.47 -2.87,6.25 -6.32,6.25z"/>
  <path class="fil2" d="M854.2 1794.17c-1.13,0 -2.28,-0.3 -3.31,-0.94 -2.97,-1.82 -3.91,-5.72 -2.07,-8.69 169.91,-275.95 430.55,-467.85 433.16,-469.76 2.82,-2.06 6.78,-1.43 8.83,1.39 2.06,2.82 1.46,6.78 -1.38,8.83 -2.58,1.9 -261.27,192.41 -429.83,466.16 -1.21,1.93 -3.28,3.01 -5.4,3.01z"/>
  <path class="fil2" d="M846.11 1814.01c-1.57,0 -3.15,-0.58 -4.38,-1.76 -2.52,-2.42 -2.61,-6.43 -0.2,-8.94 119.8,-125.18 239.42,-200.3 318.67,-241.29 86.05,-44.5 142.93,-59.12 145.29,-59.73 3.38,-0.86 6.83,1.21 7.69,4.59 0.86,3.39 -1.19,6.83 -4.58,7.69 -0.58,0.14 -58.16,14.99 -143.01,58.9 -78.29,40.54 -196.47,114.83 -314.91,238.58 -1.24,1.3 -2.9,1.96 -4.56,1.96z"/>
  <path class="fil2" d="M881.2 1741.7l-2.39 -0.46c-3.23,-1.33 -4.78,-5.02 -3.46,-8.25 98.83,-242.07 85.67,-544.71 85.53,-547.75 -0.16,-3.48 2.53,-6.45 6.01,-6.62 3.44,-0.18 6.46,2.53 6.62,6.02 0.15,3.05 13.46,308.43 -86.45,553.14 -1,2.45 -3.36,3.93 -5.86,3.93z"/>
  <path class="fil2" d="M856.87 1789.87l-1.4 -0.15c-3.41,-0.78 -5.54,-4.17 -4.78,-7.57 34.86,-154.11 22.78,-282.18 6.5,-362.47 -17.66,-87.05 -43.91,-138.3 -44.17,-138.81 -1.62,-3.1 -0.4,-6.91 2.69,-8.53 3.1,-1.6 6.92,-0.39 8.53,2.7 1.1,2.12 27.19,52.97 45.23,141.6 16.61,81.61 28.97,211.75 -6.45,368.31 -0.66,2.93 -3.27,4.93 -6.17,4.93z"/>
  <path class="fil3" d="M703.37 1356.94c0,0 -299.19,-193.67 -299.5,-456.39 -0.31,-262.71 398.81,-300.56 524.98,-109.27 134.97,204.67 -225.48,565.65 -225.48,565.65z"/>
  <path class="fil2" d="M661.55 2029.66l-1.46 -0.17c-3.41,-0.8 -5.5,-4.21 -4.7,-7.61 52.78,-222.86 48.07,-575.66 34.84,-832.37 -14.36,-278.39 -41.57,-506.82 -41.84,-509.1 -0.42,-3.47 2.06,-6.62 5.54,-7.03 3.43,-0.4 6.61,2.06 7.02,5.53 0.27,2.28 27.55,231.15 41.92,509.96 13.28,257.54 17.97,611.62 -35.16,835.93 -0.7,2.92 -3.29,4.87 -6.15,4.87z"/>
  <path class="fil2" d="M702.24 1330.6c-3.17,0 -5.9,-2.38 -6.27,-5.61 -36.38,-319.42 -189.68,-601.75 -191.23,-604.55 -1.67,-3.07 -0.55,-6.92 2.51,-8.6 3.06,-1.68 6.91,-0.57 8.58,2.51 1.56,2.83 156.04,287.24 192.7,609.21 0.4,3.47 -2.09,6.61 -5.57,7l-0.73 0.04z"/>
  <path class="fil2" d="M701.17 1352c-2.65,0 -5.11,-1.67 -6,-4.31 -54.67,-162.34 -130.13,-279.78 -183.8,-349.72 -58.17,-75.81 -104.01,-113.69 -104.46,-114.06 -2.7,-2.22 -3.1,-6.2 -0.88,-8.9 2.21,-2.7 6.19,-3.1 8.89,-0.89 1.9,1.55 47.18,38.95 106.19,115.77 54.34,70.76 130.75,189.57 186.05,353.77 1.12,3.31 -0.66,6.9 -3.97,8.01l-2.02 0.34z"/>
  <path class="fil2" d="M700.08 1271.63l-0.32 0c-3.5,-0.18 -6.18,-3.16 -6,-6.64 13.46,-263.96 155.18,-534.79 156.61,-537.51 1.64,-3.08 5.47,-4.26 8.55,-2.63 3.08,1.63 4.26,5.46 2.63,8.54 -1.41,2.68 -141.84,271.12 -155.15,532.23 -0.18,3.39 -2.97,6 -6.32,6z"/>
  <path class="fil2" d="M701.67 1325.58l-1.36 -0.15c-3.42,-0.75 -5.58,-4.12 -4.82,-7.53 34.41,-156.77 101.07,-270.22 150.94,-337.81 54.15,-73.37 99.55,-109.12 101.46,-110.6 2.74,-2.15 6.72,-1.66 8.87,1.1 2.15,2.75 1.66,6.73 -1.09,8.88 -0.47,0.36 -46.21,36.43 -99.36,108.56 -49.03,66.54 -114.58,178.24 -148.46,332.59 -0.65,2.95 -3.27,4.97 -6.18,4.97z"/>
  <path class="fil10" d="M1013.2 1964.62l-13.2 112.48 -2.18 18.67 -6.29 53.47 -2.17 18.67 -6.44 54.9 -2.19 18.63 -47.4 404.4c-181.04,22.93 -349.99,21.5 -509.04,0l-47.41 -404.4 -2.18 -18.63 -6.44 -54.9 -2.18 -18.67 -6.27 -53.47 -2.18 -18.67 -13.2 -112.48 668.78 0z"/>
  <polygon class="fil8" points="1000,2077.1 997.82,2095.77 359.81,2095.77 357.62,2077.1 "/>
  <polygon class="fil8" points="991.54,2149.24 989.37,2167.91 368.27,2167.91 366.08,2149.24 "/>
  <polygon class="fil8" points="982.93,2222.81 980.74,2241.43 376.88,2241.43 374.71,2222.81 "/>
  <polygon class="fil16" points="976.44,2418.29 381.18,2418.29 374.71,2369.82 982.93,2369.82 "/>
  <polygon class="fil16" points="1046.65,3243.4 315.57,3243.4 307.61,3194.91 1054.61,3194.91 "/>
  <polygon class="fil16" points="420.91,2418.29 146.17,4116.56 183.88,4116.56 466.25,2418.29 "/>
  <polygon class="fil16" points="937.28,2418.29 1212.02,4116.56 1174.3,4116.56 891.93,2418.29 "/>
  <path class="fil1" d="M4886.87 4011.21c0,38.04 265.54,68.89 593.09,68.89 327.57,0 593.1,-30.85 593.1,-68.89 0,-38.05 -265.53,-68.89 -593.1,-68.89 -327.56,0 -593.09,30.84 -593.09,68.89z"/>
  <polygon class="fil18" points="5929.55,3829.74 6014.45,2563.28 5037.15,2563.28 5122.05,3829.74 "/>
  <polygon class="fil16" points="6006.31,2682.42 5049.07,2737.57 5042.19,2637.22 6009.39,2637.22 "/>
  <path class="fil19" d="M6032.08 2637.22l-1012.55 0c-22.64,0 -41.01,-18.36 -41.01,-40.99l0 -28.96c0,-22.64 18.37,-41 41.01,-41l1012.55 0c22.64,0 40.99,18.36 40.99,41l0 28.96c0,22.63 -18.34,40.99 -40.99,40.99z"/>
  <polygon class="fil16" points="5904.98,2840.97 5880.96,3264.36 5170.64,3264.36 5146.63,2840.97 "/>
  <path class="fil18" d="M5561.25 3070.14c0,19.58 -15.87,35.46 -35.45,35.46 -19.58,0 -35.46,-15.88 -35.46,-35.46 0,-19.58 15.88,-35.46 35.46,-35.46 19.58,0 35.45,15.88 35.45,35.46z"/>
  <polygon class="fil16" points="5871.55,3363.52 5849.63,3749.58 5201.97,3749.58 5180.06,3363.52 "/>
  <path class="fil18" d="M5561.25 3570.58c0,19.58 -15.87,35.45 -35.45,35.45 -19.58,0 -35.46,-15.87 -35.46,-35.45 0,-19.57 15.88,-35.45 35.46,-35.45 19.58,0 35.45,15.88 35.45,35.45z"/>
  <path class="fil16" d="M5421.66 3829.75c-1.92,0 -3.84,0.01 -5.75,0.03 -98.01,1.29 -182.08,68.83 -203.92,162.23l-6.07 25.91 -75.92 0 -7.3 -188.17 298.96 0z"/>
  <path class="fil16" d="M5630.18 3829.75c1.93,0 3.86,0.01 5.77,0.03 98.01,1.29 182.08,68.83 203.92,162.23l6.06 25.91 75.59 0 7.63 -188.17 -298.96 0z"/>
  <path class="fil8" d="M5641.44 2264.53c-18.43,0 -33.42,15 -33.42,33.43l0 103.34c0,18.42 14.99,33.42 33.42,33.42l87.51 0c18.43,0 33.42,-15 33.42,-33.42l0 -103.34c0,-18.43 -14.99,-33.43 -33.42,-33.43l-87.51 0zm-68.7 136.77l0 -103.34c0,-37.88 30.83,-68.69 68.7,-68.69l87.51 0c37.87,0 68.68,30.81 68.68,68.69l0 103.34c0,37.87 -30.81,68.69 -68.68,68.69l-87.51 0c-37.87,0 -68.7,-30.81 -68.7,-68.69z"/>
  <path class="fil10" d="M5651.72 2528.5c85.52,4.87 171.05,4.87 256.56,0l0 -351.21c-85.51,-5.95 -171.04,-5.95 -256.56,0l0 351.21z"/>
  <path class="fil20" d="M5771.46 2141.03c24.47,-53.34 -78.69,-110.44 -74.44,-193.4 4.25,-82.95 57.59,-99.1 57.59,-99.1 -44.49,58.3 3.02,116.26 44.23,190.56 41.23,74.29 -27.39,101.94 -27.39,101.94z"/>
 </g>
</svg>
