<svg xmlns="http://www.w3.org/2000/svg" xmlns:xlink="http://www.w3.org/1999/xlink" width="251" height="154" stroke="#000" stroke-linecap="round" stroke-linejoin="round" fill="#fff" fill-rule="evenodd"><style><![CDATA[.B{fill:#392c2e}.C{fill:#f05252}.D{fill:#86549c}.E{fill:#317468}.F{fill:#fefefe}.G{fill:#fffbec}.H{fill:#ca3a3f}.I{fill:#2e504c}.J{fill:#5a3e6c}.K{fill:#48353d}.L{fill:#f59284}.M{fill:#ddc1dd}.N{fill:#724f52}.O{fill:#a780b9}.P{fill:#f9a253}.Q{fill:#61545f}.R{fill:#8c605f}.S{fill:#f2726c}.T{fill:#f8afab}.U{fill:#958b8b}]]></style><g stroke="none" fill-rule="nonzero"><path d="M115 48c10-2 19-5 27-11 12-9 37-23 60-16 33 10 33 39 24 55-8 15-68 61-146 54-69-7-83-82-46-95 32-12 43 18 81 13zm81 57s5-2 7 2c1 4-5 8-9 6-4-1-3-6 2-8zm-77-69s6-2 7 2-6 8-10 6-2-8 3-8zM55 147c0 4 32 7 71 7 40 0 72-3 72-7s-32-7-72-7c-39 0-71 3-71 7z" class="G"/><path d="M87 136c1 1 2 1 3 2 5 4 12 7 21 8 47 4 62-18 66-51 1-15-2-25-7-32-1 0-1-1-2-2 0 0-1 0-1-1-6-6-15-9-24-8-7 2-14 5-19 13-8 12 0 22-24 23-18 0-30 31-13 48z" class="P"/><g fill="#e77245"><path d="M158 63s5 12-1 34-15 20-20 20c-10 0-29-9-33-16s3-8 17-9c13-1 23-33 37-29z"/><path d="M146 125c-5-5-9-7-12-9-3-1-5-2-6-2v1s9 2 18 10z"/><path d="M145 121v-1s-4-3-11-4c0 0-1 0-1 1h1c6 1 11 4 11 4zm14-33h1c0-5 2-9 4-11l3-3v-1s-2 1-4 4c-1 2-3 6-4 10v1zm-72 48l3 3c6 3 13 5 20 6 3 1 5 1 8 1 6 0 13-1 19-3 17-6 28-17 34-32 2-9 4-17 4-25 0-6-1-12-3-17-1-2-2-4-2-5l-3-3c1 2 3 5 4 8 3 9 5 23-1 41-5 15-17 27-33 32-17 5-37 3-49-6h-1z"/></g><path d="M155 50s7-7-3-11c-9-5-20 2-22 7s25 4 25 4z" class="C"/><path d="M144 45v-1c3-2 7-1 7-1h0l1-1h-1s-4 0-7 2v1zm6 1h1c0-1 0-1-1-1 0 0-3-1-5-1v1c2-1 5 1 5 1z" class="H"/><path d="M85 132l-3 6s-4 1-9 1c-7 1-9 0-10 1 0 2 5 5 8 5 2 1 8 3 12 3 3 1 5-4 6-6 1-1 3-7 3-7l-7-3z" class="L"/><path d="M66 142v2c2 1 7 2 7 2s-1-1-1-2 1-3 1-4v-1h-6v1c-1 1-1 2-1 2z" class="C"/><path d="M68 141l2 1v-2l1-1h-2l-1 1v1z" class="H"/><path d="M63 142s17 5 19 6h4s0 1-1 1c0 2-1 2-2 2-4-2-19-6-20-7s-1-2 0-2z" class="C"/><path d="M101 130v6s-3 3-7 5c-6 5-8 5-8 7 0 1 7 0 9 0 3-1 9-2 12-4 3-1 2-6 2-8v-6h-8z" class="L"/><path d="M89 148c0 1 0 1 1 1 2 1 6-1 6-1l-1-1c-1-1-1-4-1-5-1 0-2 1-3 1s-1 1-2 1l-1 1v1c0 1 0 2 1 2z" class="C"/><path d="M91 145h1v-3c-1 0-2 1-2 1v1s0 1 1 1z" class="H"/><path d="M87 149s17-4 19-5 3-2 3-2 0 1 1 2c0 1-1 2-2 2-4 1-19 5-21 5-1-1-1-2 0-2z" class="C"/><path d="M95 87c4-3 20-2 32 0 1 5-1 1 0 6-15 1-20 2-20 2s3 13 2 18c0 5 2 20 2 20l-11 2s-11-43-5-48z" class="I"/><g class="E"><path d="M99 133l11-2 1-1h-1l-11 2v1z"/><path d="M108 131h1v-1s-1-5-2-14c0-9-2-23-2-23h-1s3 14 3 23 1 14 1 14v1z"/></g><path d="M101 54v-6c-1-2-3-6-4-6-1-1 0 3 0 4 1 0 1 1 1 1s-4-8-5-9c-1 0 0 5 1 6 0 0-3-6-4-6s2 7 2 7-3-5-4-5c-1 1 2 6 2 6s-2-3-3-2c-1 0 4 6 4 7 1 1 3 4 5 5 0 1 4 0 5-2z" class="L"/><path d="M91 49c2-3 5-3 5-3v1s-3 0-5 2h0zm5 5v-1c1-3-1-4-1-4v-1h1s2 2 0 5v1z" class="S"/><path d="M125 49h0v1l-1 1c0 1-1 2-1 3l-2 2c0 1 0 1-1 1v2c-3 2-6 5-9 7h0s-1 0-1 1h0c0-1 0-1 1-1h0c0-1 0-1-1-1 0-1-1-2-1-2-1-2-3-4-4-5l-1-3-2-3-9 4v1l1 1v2c1 1 1 2 2 3l3 6 3 3c0 1 1 1 1 2 1 0 1 1 2 1 0 1 1 1 2 2 1 0 1 0 2 1h5l1-1h1l1-1c1 0 2-1 2-1 1-1 1-1 2-1 0-1 1-1 1-1l7-7c0-1 1-2 2-3 0-1 1-3 2-4l1-1v-2c1-1 1-1 1-2v-1l1-1-11-3z" class="C"/><g class="H"><path d="M109 70h1c1-2 1-5 1-5h-1s0 3-1 5h0z"/><path d="M112 69h1s-1-2-1-3h-1c0 1 1 3 1 3zm-17-8c3-2 9-4 10-4v-1h-1s-6 3-9 5z"/></g><path d="M125 49c-1 2 0 8-1 18 0 1 0 2-1 2v5l-1 2-2 8-2 6v2l-1 1v1l-1 4c3 3 7 5 13 7l3-2 2 3c5 1 11 1 16-1 2-4 5-16 5-20l1-3c0-3 1-7 1-11v-1c0-3 5-13 4-16-1-7-5-5-9-7-1 0-3 0-3-1h-1c-1 0-1 0-1-1-1 0-2-1-2-1l-9-1c-1 1-2 2-3 2h0-1c-3 1-6 1-7 4z" class="C"/><path d="M147 98h1c5-14 7-37 7-37s-3 23-8 36v1zm-8-49v1c1 0 1 0 2-1 0 0-1 0-1-1-1 0-1 0-1 1zm-4-1c1 1 1 1 2 0 0 0-1 0-1-1-1 0-1 0-1 1zm-2 2h1v-1c-4-1-4-3-4-3h-1s1 3 4 4h0zm-5 22c5 0 9-1 12-3 3-1 5-2 5-2v-1s-2 2-6 3c-3 1-8 3-13 2v1h2zm14 9s-11-3-18-3l-2 9 18 3 2-9zm6-29c3 0 4-1 5-1 2-1 3-2 3-2v-1s-1 1-3 2c-1 1-4 2-8 1v1h3z" class="H"/><path d="M120 86v-2 2zm1-3v-1 1z" class="B"/><path d="M123 71h1c0-4 1-9 1-11h-1c0 2 0 7-1 11z" class="H"/><g class="B"><path d="M135 24s-3 2-1 6c0 0 1-4 1-6z"/><path d="M146 40s2 2 2 0c1-1 0-2 0-2s2 2 2 1c0-2-1-3-1-3s2-1 2-4c-1-2-1-3-1-5 1-2 1-4 0-5s-3-1-3-1-1-3-5-3c-2 0-3 0-4-1-2-1-3-1-4-1-2 1-4 7 1 9 0 0 10 7 11 15z"/></g><path d="M136 42v2l1 1c4 3 8 0 8 0l1-8-10 5z" class="L"/><path d="M136 41v3h1c3-1 6-4 6-4l-6 1h-1z" class="B"/><path d="M135 31s-2-2-2 0c-1 1-1 4 1 4l1-4z" class="S"/><path d="M132 36s-1 5 5 6c5 0 9-3 9-4h0l1-9s1-5-3-6-7-1-9 1c-1 0-1 1-2 2l-1 10z" class="L"/><path d="M147 32s-1 0-1 2c-1-1-1-1-1-2v-2c0-1 1-2 0-3s0-2-1-3c-1 0-4 1-6 1-2-1-2-2-3 0 0 0 0-3 3-4 2 0 9 0 10 4 1 3-1 7-1 7zm-4-4h0c0 1-1 1-1 1l-1-1c-1 0-1-1-1-1s2 0 3 1zm-9-1h0c0 1 1 1 1 1h2c0-1 1-1 1-2 0 0-3 0-4 1z" class="B"/><path d="M140 32c0 1 0 1 1 1h2c0-1-1-1-2-1h-1zm-7 0h2c0-1-1-1-1-1h-1v1z" class="S"/><path d="M139 30c0 1 0 1 1 1v-1c-1-1-1 0-1 0zm-5 0s0 1 1 1v-2s-1 0-1 1zm2 5c2 0 3-1 3-1v-1s-3 3-5 1c1 1 1 1 2 1zm8 1s1 2 2 2h0v-1s-1 0-2-1z" class="B"/><path d="M146 33s3-2 4 0-2 6-4 4v-4z" class="L"/><g class="B"><path d="M146 36c1-2 3-3 3-3-1 0-3 1-3 3h0z"/><path d="M148 35s0-1-1-1l1 1zm-10-2v-1c-1 0-1 0-2-1l2-3-2 3v1l2 1z"/></g><path d="M139 30h0c0 1 0 1 1 1v-1c1 0 2 1 2 1v1h-3c-1 0-2 0-2-1s1-1 2-1z" fill="#fac2b8"/><path d="M140 33c1 0 2-1 2-1h-2v1z" class="T"/><path d="M140 31h1v-1h-1v1z" class="U"/><path d="M132 32s0-1 1-1v-1c-1 0-2 0-2 1s0 1 1 1z" fill="#feebdd"/><path d="M133 30h0z" class="U"/><path d="M133 32v-2l-1 1v1h1z" class="T"/><path d="M135 32s1 0 1-1h-1v-1h-2v1c1 0 2 1 2 1z" fill="#fac2b8"/><path d="M134 32h1c0-1-1-1-1-1h-1v1h1z" class="T"/><path d="M135 31h1c0-1-1-1-1-1v1z" class="U"/><path d="M136 32h0c1-1 1-1 2 0v-1h-2v1zm12 0c-2-2-5-1-5 0 0 0-1 0 0 0 0 0 3-1 5 0h0z" class="B"/><path d="M152 101s-1 21-25 12c-14-4-19-7-19-7l-7 16c-2 5-8 16-8 16l-11-2s12-44 20-45c8-2 17 1 33 4 0 0 14 3 17 6z" class="E"/><g fill="#028e8b"><path d="M92 134c0 1 0 0 1 0 3-5 6-14 9-20l3-8c1-2 2-3 2-3 1 0 3 1 6 3 5 2 12 5 20 6 4 1 8 1 11-1 5-4 6-10 6-11 0 0-2 7-7 10-2 2-6 3-10 2-8-2-15-5-19-7s-6-3-7-2c-1 0-3 4-5 10-3 7-7 16-10 21h0z"/><path d="M83 132h0l11 2-11-3v1z"/></g><g class="B"><path d="M128 96l-33-3v-4h1l32 3v4z"/><path d="M91 93c-1-1-2-2-2-3l-4-23c0-2 1-3 2-3l15 1c1 0 2 1 2 2l5 27-18-1z"/></g><path d="M103 88h0l1 1h-1v-1zm-2-1l1 2-1-1v2h1v1h2l-1-1h1v1h2l-1-1h1v-1h-1v-1h1v-1l-2-1v-1h-1v1h-1v-1h-1v1h-1v1h1z" class="C"/><path d="M87 71c0 1 2 2 3 3 2 0 2-1 2-3s-2-3-3-3-2 1-2 3z" class="P"/><path d="M90 70v-1 1zm-2 0h1c0-1 0-1-1-1v1zm2 2c1 0 1-1 1-1v-1c-1 0-1 0-1 1 0 0 0 1 0 0-1 0-2-1-2-1s1 2 2 2zm14-5l5 27h2l-5-27c0-1-1-2-2-2h-2c1 0 2 1 2 2z" class="B"/><path d="M108 94h1l-5-27h-1l5 27zM98 80c0 1-1 2-2 2s-3-1-3-3c0-1 1-2 2-2 2 0 3 1 3 3z" class="Q"/><path d="M119 86s-7-2-10-1l1 5s4 0 5 1c1 0 1 2 5 2l-1-7z" class="L"/><path d="M144 79h0zm-24 6l3-1h3c3-1 5-1 7-2h4c1-1 2-1 3-1 1-1 2-1 3-2h1v-1c1 0 1-1 1-1 1-1 1-2 1-3 1-2 2-4 2-6 0-1 0-2 1-4v-9l12-2v9c0 3 0 5-1 8v2c-1 1-1 2-1 2 0 2-1 3-1 4-1 2-2 3-2 4h0c-1 1-1 2-1 2l-1 2c-1 0-1 0-1 1h-1c0 1-1 1-1 1l-1 1c-1 0-1 0-2 1h0c-1 0-2 1-3 1h-2c-1 1-2 1-4 1-1 1-2 1-4 1s-5 1-7 1l-7 1h-1l-1-10h1z" class="C"/><g class="H"><path d="M148 90c1-1 1-1 2-1l1-1s1 0 1-1h1v-1l1-1v-1c1 0 1-1 1-2h1s-8 0-8 8z"/><path d="M132 94s10-1 16-3c6-3 8-8 9-8 0-1 0-1-1-1 0 0-3 5-8 8-6 3-16 4-16 4zm16-11h1v-1c-2-1-4-3-4-3v1s2 1 3 3z"/><path d="M144 80h0c1 0 3 1 3 1v-1s-1-1-3-1v1zm3-7h0v-1s3-9 3-14h-1c0 5-2 14-2 14v1z"/><path d="M150 61h1l-1-2h-1l1 2zm-25 34c1 0 1 0 1-1l-1-9h-1l1 9v1z"/></g><path d="M132 80c1 0 1 0 1-1 3-8 7-30 7-30h-1s-4 22-7 30v1zm-6-1c2-13 10-30 10-31h-1s-7 18-9 31h0zm18 33h2c2-2 4-6 5-12-1 6-4 10-6 11 0 1-1 1-2 1 0 0 0-1-1-1-1-4 2-14 2-14h-1c0 1-3 10-1 14 0 1 1 1 1 1h1z" class="F"/><path d="M158 144v1c1 2 2 3 4 4 5 2 10 1 21 1 10 0 18-3 17-12v-2s-1-1-1-2h0c0-1-1-1-2-2-3-3-7-4-11-2-4 1-11 2-18 2-8 0-11 7-10 12z" class="P"/><path d="M158 143v1c2 2 6 3 11 3h5c4 0 10 0 15-1 5 0 8-2 10-5 1-2 1-4 1-5-1-1-1-2-1-3 0 2 1 5-1 8-1 3-4 4-9 5-17 2-28 1-31-3zm32-10c3 0 5 3 5 6-1 4-6 4-19 4-10 0-15-4-13-8 3-4 20-3 27-2z" fill="#e77245"/><path d="M165 136c5 6 24 6 27 1 1-2 1-4 0-7s-2-4-2-4 0 2-7 1h-3c-8 0-19 3-15 9z" class="B"/><path d="M180 132c1 1 3 2 6 1h0c3 0 5-2 5-3v-1c0 1-2 3-5 4-3 0-5 0-6-2 0-1-1-2 0-4h-1c0 2 0 4 1 5z" class="P"/><path d="M167 131s-4 0-5-3c0-2 10 0 11-5 1-4-3-8-5-7-2 2 2 3 3 5 0 2-1 4-5 4-4 1-6 1-6 3s3 4 5 4 2-1 2-1zm20-7s2-2 4-3c0 0 1 0 0 1v4s-3 0-4-2z" class="B"/><path d="M191 125c0-1 0-2 1-3 0 0-3 1-3 2 0 0 1 1 2 1z" class="Q"/><path d="M184 124s-2-1-4-1c-1 0-1 0-1 1l2 3s3-1 3-3z" class="B"/><path d="M181 127c0-1 0-2-1-3 0 0 3 0 3 1 0 0-1 2-2 2z" class="Q"/><path d="M189 124s3 1 3 4c-1 3-4 4-4 4s0 1-2 1-4 0-4-1c0 0-3-1-3-3 0-3 4-6 10-5zm3 8s-1 5-2 6-2 1-4 1c-2 1-1 2-1 3h4c2 0 4 0 4-2 1-1 1-4 0-6 0-1-1-2-1-2zm-15 0s1 5 2 6 2 2 4 2c1 0 1 2 1 2-1 1-2 0-4 0s-4 0-5-2c0-1 0-4 1-6 0-1 1-1 1-2zm-9 0s-3-1-4 1c-2 4-1 6 3 6 5 1 9 2 6-1-4-3-5-6-5-6z" class="B"/><path d="M185 130h1c1 0 0 1-1 2l-1-1c0-1 1-1 1-1zm-1-1c0 1-1 1-1 1-1 0-1-1-1-1s0 1 1 1l1-1zm5 0l-1 1c-1 0-1 0-1-1 0 0 0 1 1 1 0-1 1-1 1-1z" class="Q"/><path d="M61 2v29c0 1 1 1 1 1h49s1 0 1-1V2l-1-1H62l-1 1z" class="F"/><path d="M90 19c0 2 1 4 2 6 2 2 4 3 7 3a8.96 8.96 0 0 0 9-9c0-1 0-2-1-3l-8 3v-9a8.96 8.96 0 0 0-9 9z" class="D"/><path d="M100 8c3 0 5 1 7 3 1 1 1 2 1 3l-8 3V8z" class="O"/><path d="M70 13h-1v-1h1z" class="D"/><path d="M63 13h0z" class="M"/><path d="M70 11h-1v-1h1z" class="J"/><path d="M63 11h0z" class="M"/><path d="M70 16h-1v-1h1z" class="D"/><path d="M63 15h0zm0 4h0zm0 2h0zm0 2h6c1-1 1-1 0-1h-6v1zm0 1h0zm0 1h0zm0 1h0zm0 1h0z" class="M"/><path d="M61 2v3h51V2l-1-1H62l-1 1z" class="B"/><path d="M66 3h1V2c-1 0-1 0-1 1z" class="M"/><path d="M64 3h1V2c-1 0-1 0-1 1z" class="O"/><path d="M62 3h1V2c-1 0-1 0-1 1z" class="D"/><path d="M90 19c0 2 1 4 2 6l7-6v-9a8.96 8.96 0 0 0-9 9z" class="J"/><path d="M82 28h-3V16h3z" class="D"/><path d="M82 25c-1 0-2 0-3-1v5h3v-4z" class="J"/><path d="M86 29h-3v-9h3z" class="D"/><path d="M84 25h-1v3h3v-3h-2z" class="J"/><path d="M77 29h-3V13h3z" class="D"/><path d="M74 21v7h3v-6c-1 0-2-1-3-1z" class="J"/><path d="M74 8l3 1h-1l4 4 1-1 5 5v1h-1l-4-5-1 2-5-5v1l-1-3zm109 25v14h-20V33z" class="D"/><g class="J"><path d="M183 33v1l-10 9-10-9v-1l10 9z"/><path d="M171 40l-7 7h-1l8-7zm12 7h0-1l-7-7z"/></g><path d="M163 33l10 9 10-9z" class="D"/><path d="M160 34c0 3 2 5 4 5 3 0 5-2 5-5 0-2-2-4-5-4-2 0-4 2-4 4z" class="O"/><path d="M165 36h0l1-1c1 0 1-1 0-1l-1 1-3-3c-1 0-1 1 0 1l3 3zM51 88V39l1-1h25c1 0 1 1 1 1v49c0 1-1 2-3 2H54c-2 0-3-1-3-2z" class="F"/><path d="M56 75h18v-1H56c-1 0-1 0-1 1h1zm0 3h18v-1H56c-1 0-1 0-1 1h1zm0 4h18v-1H56c-1 0-1 0-1 1h1zm0 4h18v-1H56c-1 0-1 0-1 1h1z" class="M"/><path d="M51 39v4h27v-4s0-1-1-1H52l-1 1z" class="B"/><path d="M58 40s0 1 1 1l1-1c0-1-1-1-1-1-1 0-1 0-1 1z" class="M"/><path d="M55 40s0 1 1 1l1-1c0-1-1-1-1-1-1 0-1 0-1 1z" class="O"/><path d="M52 40s0 1 1 1l1-1c0-1-1-1-1-1-1 0-1 0-1 1zm21 31h-3v-8h3z" class="D"/><path d="M68 72h-3V59h3z" class="J"/><path d="M63 71h-3V55h3z" class="D"/><path d="M58 71h-3V50h3z" class="O"/><g class="M"><path d="M61 47h-2v-2z"/><path d="M74 61v-1s-9-3-14-13c5 10 14 14 14 14h0z"/></g><path d="M177 9v7c0 1 0 2-1 2h-14l-4 2c-1 0-1-1-1-1l2-4V9c0-1 0-2 1-2h16c1 0 1 1 1 2z" class="D"/><path d="M166 13c0 1-1 2-2 2 0 0-1-1-1-2l1-1c1 0 2 1 2 1zm4 0c0 1-1 2-2 2 0 0-1-1-1-2l1-1c1 0 2 1 2 1zm4 0c0 1-1 2-1 2-1 0-2-1-2-2 0 0 1-1 2-1l1 1z" class="J"/><use xlink:href="#B" class="O"/><path d="M146 3h0V2h1l1 1v1h-1l2 2V5h1v1h1v1h-3c0-1 0-1-1-1V5c-1 0-1-1-1-1V3z" class="F"/><use xlink:href="#B" x="-11" class="D"/><path d="M136 6c0-1 0-1 1-1v1h-1zm-2-1c0 1 1 2 1 2 1 0 1 0 1-1 0 1 0 1 1 1l1-1c0-1-1-2-1-2h-2v1c0-1 0-1 2-1 1 0 1 0 1 1s0 2-1 2h-1l-1 1h2c1 0 2-1 2-3 0-1-1-2-2-2-2 0-3 1-3 2z" class="F"/><use xlink:href="#B" x="-22" class="J"/><path d="M125 7v1h1V7h1V6h-2s2 0 2-1 0-1-1-1V3h-1v1h-1l1 1s0-1 1-1v1s-2 0-2 1 0 1 1 1z" class="F"/><path d="M200 146c0 1 11 2 25 2s26-1 26-2-12-2-26-2-25 1-25 2z" class="G"/><path d="M210 129h32v-3h-32v3z" class="K"/><path d="M241 98h-29c-1 0-1 0-1 1v4h31v-4c0-1 0-1-1-1z" class="R"/><path d="M226 84h3v-1l1-1 1-3c4-9 11-26 8-29-3-4-7 2-10 13v2c-1 4-2 9-3 15v4z" class="E"/><g class="I"><path d="M227 81l1 2h2V62c-1 5-2 12-3 19z"/><path d="M227 84h0l9-30-9 30z"/></g><path d="M219 78l1 1 1 3 1 2h3v-2l-1-2c0-5-1-10-2-15v-2c-3-11-7-17-10-13-3 3 3 19 7 28z" class="E"/><g class="I"><path d="M224 81l-1 2h-2V62c1 5 3 12 3 19z"/><path d="M223 84h0l-9-30 9 30z"/></g><path d="M223 65c0 6 0 11 1 15v4h3c0-2 0-3 1-5 1-5 1-10 2-14 1-18-1-30-5-26-3 2-3 15-2 26z" class="E"/><g class="I"><path d="M220 78l1 3 1 2h8v-2l2-3c-1 0-3 1-4 1h-4c-2 0-3 0-4-1z"/><path d="M225 44v40h1l-1-40z"/></g><path d="M213 83l5 15h17l5-15s0-1-1-1h-25c-1 0-1 1-1 1z" class="C"/><path d="M213 84v1h26v-1zm1 2v1h24v-1zm1 3h22z" class="H"/><path d="M231 103l13 43h3l-9-43z" class="N"/><path d="M238 103h-7l1 3 7 1z" class="K"/><path d="M206 146h2l14-43h-7l-1 1z" class="N"/><path d="M214 104l7 1v-2h-7z" class="K"/><path d="M211 123h30c1 0 1-1 1-1v-1c0-1 0-1-1-1h-30c-1 0-1 0-1 1v1s0 1 1 1z" class="R"/><path d="M23 16c0 6 5 12 11 12s12-6 12-12S40 5 34 5s-11 5-11 11z" class="G"/><path d="M23 15c0 6 5 12 11 12s12-6 12-12S40 4 34 4 23 9 23 15z" class="C"/><path d="M 34 24 C 39 24 43 20 43 15 C 43 10 39 6 34 6 C 29 6 25 10 25 15 C 25 20 29 24 34 24 Z" class="F"/><path d="M25 15v1a8.96 8.96 0 0 1 9-9 8.96 8.96 0 0 1 9 9v-1a8.96 8.96 0 0 0-9-9 8.96 8.96 0 0 0-9 9z" class="G"/><path d="M34 17l1-1 4-6-5 6-5-2 5 3z" class="B"/><path d="M3 147c0 1 10 2 22 2s22-1 22-2c0-2-10-3-22-3s-22 1-22 3z" class="G"/><path d="M4 72l5 74h31l5-74z" class="N"/><path d="M4 77l40 2v-4H4z" class="K"/><path d="M3 76h44l1-1v-3c0-1-1-1-1-1H3c-1 0-1 0-1 1v3s0 1 1 1z" class="R"/><path d="M9 84l1 18h30l1-18z" class="K"/><path d="M23 93c0 1 1 2 1 2 1 0 2-1 2-2 0 0-1-1-2-1l-1 1z" class="N"/><path d="M10 105l1 16h27l1-16z" class="K"/><path d="M23 114c0 1 1 2 1 2 1 0 2-1 2-2 0 0-1-1-2-1l-1 1z" class="N"/><path d="M11 126l1 15h25v-15z" class="K"/><path d="M23 132c0 1 1 2 1 2 1 0 2-1 2-2 0 0-1-1-2-1l-1 1z" class="N"/><path d="M12 45c0 2 1 4 1 4s1 3 2 4c1 0 1 0 2-3v-5c0-4 0-11-4-11-3 0-2 6-1 11z" class="E"/><g class="I"><path d="M17 44c0 1-1 2-2 2s-2-1-3-2c0 2 1 4 1 4s1 3 2 4c1 0 2-1 2-3v-5z"/><path d="M15 52c0-3-1-12-1-13 0 0 1 10 1 13h0z"/></g><path d="M14 58h4s4-1 3-4 0-4 2-6 5-6 2-8c-3-1-6 2-8 6v3s0 1-1 1c0 1 0 2-1 3h0c-2 2-1 5-1 5z" class="E"/><g class="I"><path d="M14 57h4c1-3-1-6-2-7 0 1 0 2-1 3h0c-2 2-1 4-1 4z"/><path d="M17 58c1-8 5-14 5-14s-5 6-5 14h0z"/></g><path d="M4 48c3 2 5 3 5 5 0 1-1 2-1 2 0 2 1 3 3 3s4-1 4-1 1-2 1-4 0-4-2-5c-5-3-4-14-10-13-5 1-3 10 0 13z" class="E"/><g class="I"><path d="M8 56c0 1 0 2 2 3 3 0 5-1 5-1s0-2 1-4c-1 1-4 2-8 2z"/><path d="M13 57s1-6-3-9c-3-4-5-9-5-9s1 6 5 9c3 3 3 8 3 9h0z"/></g><path d="M9 70L7 56h14l-1 14z" class="C"/><path d="M7 59h14zm0 2h14zm0 1v1h13v-1z" class="H"/><path d="M30 57l1 14h7l1-14z" class="E"/><path d="M30 59v1h9v-1zm1 7h7z" class="I"/><path d="M30 61v4h8v-4z" class="F"/><path d="M40 57H30v-2h10z" fill="#028e8b"/><path d="M30 55h8v-1h-8v1z" class="E"/><path d="M226 24h15l2-15h-15z" class="R"/><path d="M242 9l2 15h-4z" class="K"/><path d="M240 23l1-13h-12l-2 13z" fill="#d6d0be"/><path d="M239 22l2-12h-12l-2 12z" class="F"/><g class="G"><path d="M230 11l-1 9h10l1-9z"/><path d="M232 16c0 2 1 3 3 3s3-1 3-3-1-3-3-3-3 1-3 3z"/></g><path d="M235 16s-2-2-5-2l-1 7 6-5z" class="I"/><path d="M239 14s-2 0-5 2-5 4-5 4h10v-6z" class="E"/><path d="M189 30h61l1-3h-63z" class="G"/><path d="M251 26h-63v-3h63z" class="N"/><path d="M248 27l-2 3h-3l-1-3zm-56 0l1 3h4v-3z" class="K"/><path d="M195 20h0v-1h18s1 0 1 1c1 0 1 1 1 1 0 1-1 2-2 2h-18v-3z" class="C"/><path d="M195 20v3h16c1 0 2-1 2-2 0 0-1 0-1-1h-17z" class="F"/><path d="M195 21h0zm0 1v1h16v-1h-16z" class="G"/><path d="M196 16h0v-1h18s1 0 1 1c1 0 1 1 1 1 0 1 0 1-1 2h-19v-3z" class="P"/><path d="M197 16v3h16c1 0 2-1 2-2 0 0-1 0-1-1h-17z" class="F"/><path d="M197 16h0zm0 1v1h16v-1h-16z" class="G"/><path d="M193 12h0v-1h18s1 0 1 1c1 0 1 1 1 1 0 1-1 2-2 2h-18v-3z" class="E"/><path d="M194 11v3h16c1 0 2-1 2-2 0 0-1 0-1-1h-17z" class="F"/><path d="M194 12h0zm0 1v1h16v-1h-16z" class="G"/></g><defs ><path id="B" d="M145 9h6c1 0 1 0 1-1V2c0-1 0-1-1-1h-6c-1 0-1 0-1 1v6c0 1 0 1 1 1z"/></defs></svg>