<svg xmlns="http://www.w3.org/2000/svg" xmlns:xlink="http://www.w3.org/1999/xlink" width="839.43" height="512.84" viewBox="0 0 22540.67 13770.58" shape-rendering="geometricPrecision" image-rendering="optimizeQuality" fill-rule="evenodd" xmlns:v="https://vecta.io/nano"><style><![CDATA[.Z{fill-rule:nonzero}.a{fill:#392c2e}.b{fill:#f05252}.c{fill:#86549c}.d{fill:#317468}.e{fill:#fefefe}.f{fill:#fffbec}.g{fill:#ca3a3f}.h{fill:#2e504c}.i{fill:#5a3e6c}.j{fill:#48353d}.k{fill:#f59284}.l{fill:#ddc1dd}.m{fill:#724f52}.n{fill:#a780b9}.o{fill:#f9a253}.p{fill:#61545f}.q{fill:#8c605f}.r{fill:#f2726c}.s{fill:#f8afab}.t{fill:#958b8b}]]></style><path d="M10339.5 4163.33c869.8-123.3 1694.16-463.33 2405.53-978.82 1062.48-769.97 3285.98-2080.18 5407.05-1427.57 2925.6 900.19 2938.67 3504.32 2176.64 4918.92-762.07 1414.58-6166.02 5557-13171.82 4897.88C887.71 10983.92-333.96 4232.46 3009.6 3010.8c2899.96-1059.59 3889.3 1640.24 7329.89 1152.52zm7252.88 5184.58s437.62-200.09 608.43 147.69c170.82 347.79-453.95 704.14-793.89 601.71-339.99-102.5-280.34-614.59 185.46-749.39zm-6907.91-6268.32s476.2-149.27 606.92 230.71c130.72 379.97-558.24 665.75-894.78 516.34-336.55-149.44-208.87-668.69 287.86-747.06zm-5810.71 10052.3c0 352.75 2892.33 638.69 6460.23 638.69 3567.91 0 6460.24-285.93 6460.24-638.69 0-352.7-2892.33-638.67-6460.24-638.67-3567.9 0-6460.23 285.96-6460.23 638.67z" class="Z f"/><path d="M7712.54 12183.19c76.26 76.19 159.03 148.92 248.83 217.71 449.04 344.79 1069.72 591.93 1894.29 674.42 4216.64 421.97 5609.85-1556.03 5950.44-4599.39 151.65-1356.24-203.4-2251.14-643.84-2826.67a3035.7 3035.7 0 0 0-140.42-170.03c-26.78-30.07-54.21-59.5-82.32-88.18-568.72-580.83-1389.47-854.15-2196.18-721.42-634 104.36-1210 442.99-1677.4 1119.83-747.45 1082.32-40.31 2012.84-2176.6 2075.06-1635.22 47.69-2671.32 2827.75-1176.8 4318.66z" class="Z o"/><g fill="#e77245" class="Z"><path d="M14167.98 5611.56s498.62 1066.79-77.09 3025.24c-575.74 1958.38-1338.27 1804.03-1830.88 1804.03-860.59 0-2603.48-810.65-2944.07-1449.27-340.6-638.62 302.1-676.78 1505.61-771.23 1203.52-94.45 2101.56-3031.35 3346.43-2608.77z"/><path d="M13086.66 11262.73c9.49 0 18.94-3.72 25.99-11.13 13.68-14.36 13.1-37.05-1.26-50.7-430.38-409.22-841.47-650.25-1110.57-780.43-292.68-141.57-481.19-185.53-489.06-187.29a35.8 35.8 0 0 0-42.93 26.97c-4.44 19.29 7.66 38.56 26.96 42.96 8.67 1.97 757.85 181.16 1566.17 949.78 6.94 6.59 15.85 9.84 24.7 9.84z"/><path d="M12944.48 10783.4c11.56 0 22.88-5.58 29.79-15.89 11.1-16.4 6.73-38.71-9.73-49.73-16.73-11.32-417.32-276.97-1037.5-344.64a35.9 35.9 0 0 0-39.53 31.73 35.9 35.9 0 0 0 31.76 39.56c602.71 65.81 1001.27 330.21 1005.23 332.86 6.16 4.12 13.11 6.12 19.98 6.12zm1300.25-2963.01c17.83 0 33.27-13.25 35.55-31.4 52.06-414.85 230.5-732 371.06-925.01 152.81-209.84 295.27-322.69 296.66-323.8a35.9 35.9 0 0 0 6.13-50.34c-12.25-15.61-34.73-18.33-50.34-6.12-6.06 4.76-150.35 118.72-308.88 335.9-146.1 200.18-331.71 529.27-385.81 960.42-2.47 19.66 11.46 37.59 31.12 40.06l4.51.29zm-6532.19 4362.8c76.26 76.19 159.03 148.92 248.83 217.71 518.96 311.66 1152.03 516.6 1849.44 596.73 216.39 24.91 434.64 37.2 653.11 37.2 602.31 0 1205.77-93.88 1774.79-278.15 1480.02-479.44 2547.95-1505.01 3007.01-2888.01 251.66-758.23 375.21-1495.55 367.3-2191.64-6.26-557.56-96.53-1089.95-268.16-1582.41-57.25-164.27-119.5-312.71-182.59-445.35a3035.7 3035.7 0 0 0-140.42-170.03c-26.78-30.07-54.21-59.5-82.32-88.18 112.43 192.66 232.68 437.33 335.33 732.6 264.52 761.67 461.79 2025.48-101.03 3721.17-451.22 1359.51-1501.93 2367.97-2958.5 2839.85-1547.4 501.13-3337.22 298.02-4453.66-505.65a38 38 0 0 0-49.12 4.16z"/></g><path d="M13895.98 4379.37s582.19-595.01-265.8-1014.3c-848.03-419.29-1846.97 221.3-2010.8 688.42s2276.6 325.88 2276.6 325.88z" class="Z b"/><g class="g Z"><path d="M12883.11 3971.29c5.16 0 10.35-1.79 14.57-5.4 231.43-198.02 619.11-179.84 622.98-179.7l1.21.03a22.4 22.4 0 0 0 22.35-21.23 22.4 22.4 0 0 0-21.16-23.56c-16.65-.93-409.62-19.15-654.51 190.4-9.42 8.05-10.53 22.2-2.48 31.57a22.4 22.4 0 0 0 17.04 7.88z"/><path d="M13451.49 3999.43c8.02 0 15.79-4.33 19.8-11.92a22.4 22.4 0 0 0-9.24-30.28c-11.32-6.05-279.52-147.19-469.81-102.86-12.07 2.79-19.55 14.86-16.72 26.88 2.79 12.07 14.79 19.62 26.88 16.76 174.03-40.49 435.93 97.35 438.55 98.78 3.36 1.8 6.98 2.65 10.52 2.65z"/></g><path d="M7585.04 11825.8l-298.59 550.29s-367.12 86.39-803.71 119.98c-663.5 50.95-859.98-53.68-906.96 94.49-36.59 115.49 468.13 376.67 701.42 417.89 233.29 41.24 743.37 250.43 1074.31 287.13 330.92 36.7 476.97-381.16 551.94-529.9 74.97-148.77 310.8-652.62 310.8-652.62l-629.2-287.25z" class="Z k"/><path d="M5836.04 12735.69c-1.4 41.57 6.12 81.02 28.03 112.9 3.47 5.03 7.2 9.83 11.46 14.46 117.47 129.74 587.74 192.47 587.74 192.47-37.45-36.02-55.46-86.85-61-143.82-14.72-149.59 56.57-341.46 87.53-416.24 8.41-20.27 13.85-31.94 13.85-31.94-81.37-19.02-158.64-29.6-228.52-34.81-68.71-5.19-130.29-5.15-181.31-2.93-95.89 4.13-154.6 15.94-154.6 15.94s-16.5 26.49-36.3 67.21c-28.61 58.64-64.16 146.81-66.88 226.77z" class="Z b"/><path d="M6035.96 12644.79l162.83 16.87s21.37-79.66 45.9-152.67c9.99-29.86 20.62-58.57 30.44-80.28-68.71-5.19-130.29-5.15-181.31-2.93-9.63 21.53-21.2 51.91-31.33 85.65-12.96 42.65-23.99 90.73-26.53 133.37z" class="Z g"/><path d="M5633.1 12671.75s1519.62 481.08 1723.77 516.78c204.11 35.69 315.31-4.33 315.31-4.33s-6.37 83.61-23.53 161.97c-20.19 92.19-116 146.62-206.18 118.72-406.47-125.82-1750.12-545.31-1841.7-619.67-108.05-87.72-84.6-181.06 32.32-173.46z" class="Z b"/><path d="M8985.04 11699.41l19.62 494.37s-271.35 262-629.31 514.05c-544.13 383.1-766.5 393.65-731.09 544.99 27.57 117.98 594.86 84.36 816.45.48 221.55-83.89 766.9-164.92 1070.03-302.61 303.15-137.7 214.96-571.46 203.33-737.65l-36.41-540.45-712.62 26.81z" class="Z k"/><path d="M7942.06 13244.49c20.08 36.4 46.69 66.43 81.85 82.66 5.55 2.57 11.24 4.77 17.22 6.59 167.3 51.41 603.49-135.15 603.49-135.15-50.59-11.78-92.05-46.27-125.92-92.37-89.15-121.01-126.03-322.33-137.63-402.49-3.16-21.73-4.4-34.52-4.4-34.52a1489.1 1489.1 0 0 0-214.21 86.94c-61.73 30.71-114.64 62.22-157.32 90.18-80.27 52.59-124.7 92.8-124.7 92.8s-.64 31.18 3.15 76.27c5.41 65.04 19.94 159 58.47 229.1z" class="Z b"/><path d="M8067.38 13064.15l148.58-68.77s-22.31-79.42-38.6-154.68c-6.7-30.78-12.25-60.89-14.9-84.56-61.73 30.71-114.64 62.22-157.32 90.18 2.72 23.45 8.34 55.46 16.9 89.64 10.64 43.28 25.75 90.23 45.33 128.18z" class="Z g"/><path d="M7734.99 13293.29s1551.98-363.61 1745.64-437.33c193.65-73.69 268.77-164.94 268.77-164.94s37.27 75.11 62.58 151.19c29.83 89.54-24.7 185.31-116.47 207.44-413.67 99.75-1782.88 426.34-1899.63 409.26-137.62-20.13-165.22-112.34-60.89-165.62z" class="Z b"/><path d="M8457.16 7771.62c393.84-303 1808.48-178.38 2916.58-21.66 31.51 502.09-123.16 85.1-29.6 579.03-1383.5 71-1772.07 180.09-1772.07 180.09s206.87 1126.11 196.96 1596.91c-9.92 470.77 156.67 1833.15 156.67 1833.15l-997.57 188.04S7893.28 8205.4 8457.17 7771.62z" class="Z h"/><g class="d Z"><path d="M8877.42 11907.87c4.29 1.42 9.02 1.79 13.78.78l985.12-201.25c14.53-2.97 23.91-17.15 20.94-31.68-2.97-14.57-17.15-23.92-31.72-20.95l-985.12 201.25c-14.53 2.96-23.92 17.15-20.95 31.67 2.01 9.82 9.09 17.26 17.94 20.18z"/><path d="M9686.46 11716.42a26.9 26.9 0 0 0 34.66-31.22c-1.08-4.91-106.44-502.74-112.43-1307.06-6.01-810.21-254.37-2016.99-256.92-2029.09-3-14.53-17.18-23.88-31.73-20.88a26.9 26.9 0 0 0-20.87 31.8c2.51 12.03 249.79 1213.71 255.77 2018.6 6.02 810.33 112.57 1313.01 113.64 1318.02a26.9 26.9 0 0 0 17.87 19.83z"/></g><path d="M8985.98 4843.73c36.4-49.05 10.2-151.81 19.22-231.86 11.92-105.65-2.86-267.73-35.23-356.99-48.51-134.02-213.11-520.76-322.48-566.04-109.34-45.29 6.77 299.31 29.22 370.45 22.41 71.13 11.24 127.63 11.24 127.63s-327.6-769.9-418.37-796.15c-90.75-26.2 51.78 430.61 87.76 543.27 0 0-279.08-566.44-341.91-564.9-126.1 3.09 165.59 640.98 165.59 640.98s-259.04-464.54-334.15-419.79c-79.56 47.44 199.24 544.31 199.24 544.31s-213.14-278.19-295.51-269.17c-82.46 9.09 319.97 627.66 393.29 715.3 73.33 87.69 251.41 340.17 365.2 436.98 77.29 65.73 361.57-18.8 476.89-174.04z" class="Z k"/><path d="M8086.72 4335.76a23.5 23.5 0 0 1-3.3-30.86c161.54-228.67 437.15-257.39 448.82-258.49 12.89-1.22 24.32 8.23 25.56 21.12a23.4 23.4 0 0 1-21.09 25.56c-2.65.28-266.12 28.21-414.96 238.91a23.5 23.5 0 0 1-32.69 5.62l-2.35-1.87zm440.83 394.55a23.4 23.4 0 0 1-6.19-25.49c97.77-262.54-59.36-416.06-60.97-417.56-9.38-8.91-9.81-23.77-.86-33.16a23.5 23.5 0 0 1 32.83-1.18l.32.36c7.45 7.05 181.17 176.65 72.65 467.91-4.52 12.14-18.01 18.33-30.15 13.81l-7.62-4.69z" class="r Z"/><path d="M11177.4 4304.8l.5-1.87-.07-.03-.21.24-.82 1.68-2.15 4.87-16.32 37.59c-7.85 17.93-16.33 36.49-25.07 55.14l-55.28 113.35c-39.21 75.58-80.23 151.34-125.05 224.77l-68.31 109.46-72.11 106.73c-24.49 35.16-50.13 69.42-75.79 103.58-25.64 34.12-51.99 67.63-78.95 100.49-214.96 263.69-465.33 488.93-745.74 661.49l-52.96 31.77c-17.65 10.6-35.66 20.47-53.63 30.5l-13.47 7.52c5.69-3.29 11.92-5.87 18.65-9.05 13.21-5.59 28.14-11.21 43.43-15.04 15.37-4.01 31.05-6.94 46.26-8.23 14.9-1.61 29.29-1.68 41.92-1a222.3 222.3 0 0 1 54.71 9.42c11.06 3.57 15.85 6.33 16.04 6.73.4 1.15-14.11-6.3-32.41-20.38-18.5-14.03-41.42-33.8-65.66-57.03-24.24-23.34-49.76-50.09-75.47-79.09-51.98-57.79-104.4-124.27-156.61-193.91-104.08-140.13-205.65-294.33-304.11-452.55L9233 4831.25l-139.34-239.67-830.16 377.51 15.4 40.21 44.58 110.74 62.11 144.5c42.69 95.59 87.36 190.4 134.37 284.82 94.7 188.61 197.95 375.14 320.4 561.24 61.23 93.27 127.74 186 203.83 279.95 38.38 46.8 79.33 93.84 124.7 141.34 45.32 47.52 95.35 95.35 154.24 143.43 59.11 47.97 126.88 97.06 216 143 44.43 22.76 95.31 44.46 153.92 62.41 58.21 17.82 126.24 31.61 200.93 35.34 37.45 1.82 76.65.89 116.29-3.01 39.84-4.22 80.02-11.32 119.37-21.87 39.12-10.6 77.72-23.99 113.42-40.07 18.26-7.88 35.26-16.68 52.12-25.38l19.08-10.45 76.12-42.53 75.08-44.29c49.73-30 98.54-61.54 146.75-93.81 47.8-32.86 95.24-66.27 141.42-101.17 46.44-34.63 91.69-70.65 136.27-107.37 44.25-37.17 87.97-74.83 130.39-113.78 170.32-155.21 324.12-325.85 461.4-506.65 68.63-90.44 133.14-183.56 193.04-279.19 59.9-95.66 116.79-192.9 168.17-293.08l74.44-151.69c23.91-51.09 46.68-102.79 67.99-155.49 21.44-52.6 42.1-105.83 61.36-160.58l28-84 13.68-44.21 15.43-54.13-926.4-278.47z" class="Z b"/><g class="g Z"><path d="M9780.62 6279.82c12.45 4.12 26.42-1.43 32.44-13.57 91.58-184.03 133.97-413.48 135.76-423.19a26.9 26.9 0 0 0-21.63-31.23 26.9 26.9 0 0 0-31.25 21.63c-.4 2.29-42.9 231.79-131 408.84a26.9 26.9 0 0 0 12.1 36.05l3.58 1.47z"/><path d="M9987.67 6128.74a26.9 26.9 0 0 0 14.97.54c14.39-3.65 23.09-18.23 19.51-32.66-2-7.83-48.87-193.76-77.48-252.37a26.8 26.8 0 0 0-35.91-12.39 26.9 26.9 0 0 0-12.39 35.92c26.17 53.63 73.18 240.09 73.65 241.99 2.32 9.24 9.24 16.19 17.65 18.98zM8458.49 5411.1c7.52 2.51 16.08 1.61 23.24-3.08 266.08-175.87 812.51-412.63 817.99-415.03 13.6-5.88 19.9-21.7 14.04-35.34a27 27 0 0 0-35.38-14.01c-5.51 2.41-556.23 241.03-826.29 419.54a26.9 26.9 0 0 0-7.59 37.24c3.47 5.23 8.44 8.84 14 10.67z"/></g><path d="M11169.59 4321.33c-70.64 214.25 46.58 734.53-67.09 1650.3-8.34 67.17-17.94 136.73-28.86 208.76-10.38 67.42-21.87 137.02-34.9 208.99l-39.85 206.55-41.42 190.54-83.67 339.27c-1.53 6.23-3.22 12.45-4.9 18.8l-.68 2.72-83.17 309.91-90.84 323.95-70.84 242.81-53.96 178.29-44.11 141.03-24.63 76.69-102.57 297.91c241.96 278.33 653.08 521.18 1136.46 667.12l268.16-174.44 224.55 284.49c472.35 69.21 977.95 42.04 1444.25-127.67 153.95-314.75 407.76-1469.25 479.61-1814.68l39.09-206.98c57.15-332.54 87.72-670.4 108.27-1025.03l3.7-64.94c21.91-298.85 412.41-1179.63 373.1-1496.63-77.91-628.06-478.3-462.65-839.15-559.42-118.44-31.76-218.01-72.04-299.56-113.21a1332.1 1332.1 0 0 1-92.7-51.3 702.2 702.2 0 0 1-33-20.73c-112.1-72.68-173.43-134.05-173.43-134.05l-818.67-85.53c-81.1 95.38-176.65 150.66-277.01 186.39l-33.58 11.2a993.6 993.6 0 0 1-50.55 14.32c-289.47 75.26-595.58 34.02-688.02 314.56z" class="Z b"/><path d="M13224.43 8729.45c9.09 0 17.65-5.61 21.01-14.63 448.01-1202.48 679.86-3279.08 682.16-3299.89a22.4 22.4 0 0 0-19.8-24.73c-12.35-1.29-23.41 7.52-24.73 19.83-2.29 20.76-233.59 2091.93-679.65 3289.14a22.4 22.4 0 0 0 13.21 28.82l7.8 1.46zm-791.93-4429.49c-8.63 26.03 22.62 59.76 69.77 75.29 47.15 15.54 92.34 7.05 100.93-18.97 8.6-26.03-22.66-59.76-69.81-75.33-47.12-15.54-92.33-7.01-100.89 19.01zm-365.76-93.3c-8.6 26.03 22.66 59.76 69.81 75.32 47.12 15.54 92.33 7.05 100.89-18.97 8.64-26.07-22.62-59.76-69.77-75.33-47.15-15.54-92.33-7.05-100.93 18.98zm-103.47 195.59a22.4 22.4 0 0 0 21.7-16.86c3.08-12-4.16-24.21-16.16-27.29-315.7-80.84-335.47-270.91-336.18-278.93-1.05-12.32-11.85-21.34-24.1-20.52-12.31.96-21.52 11.64-20.58 23.95.68 9.35 20.98 229.64 369.73 318.94l5.59.71zm-485.35 1979.97c421.15 0 785.91-108.09 1030.16-206.15 304.39-122.19 493.22-256.17 495.08-257.49 10.1-7.2 12.39-21.2 5.23-31.26-7.24-10.06-21.23-12.42-31.29-5.2-1.83 1.29-187.22 132.66-486.99 252.85-276.15 110.73-708.71 234.47-1201.51 194.87a22.5 22.5 0 0 0-24.16 20.55c-.96 12.35 8.23 23.17 20.55 24.16 65.45 5.23 129.82 7.66 192.94 7.66zm1274.7 792.32s-1006.21-256.45-1632.94-263.97l-191.51 829.7 1622.05 276.61 202.4-842.33zm564.17-2577.74c193.77 0 341.88-54.21 443-109.95 160.93-88.75 239.02-197.98 242.27-202.6a22.43 22.43 0 1 0-36.66-25.85c-.76 1.07-76.58 106.65-229.21 190.29-140.56 76.97-377.22 150.69-706.83 64.52-11.91-3.09-24.24 4.04-27.35 16.04a22.4 22.4 0 0 0 16 27.35c109.27 28.58 208.94 40.21 298.77 40.21z" class="g Z"/><path d="M10741.03 7616.02l44.01-158.86-44.01 158.86zm72.75-264.32l15.54-57.62-15.54 57.62z" class="a Z"/><path d="M11035.29 6278.96l4.94 1.15a26.8 26.8 0 0 0 30.11-23.16c48.94-374.64 103.07-819.67 108.34-945.13.57-14.82-10.92-27.35-25.75-27.96-14.82-.61-27.35 10.89-27.96 25.71-5.19 123.78-59.15 566.9-107.9 940.43-1.68 12.96 6.19 25 18.22 28.96z" class="Z g"/><g class="a Z"><path d="M12014.22 2098.04s-259.72 203.97-89.33 515.1c0 0 93.34-363.37 89.33-515.1z"/><path d="M13053.79 3501.77s168.31 163.48 202.94 42.82c34.62-120.69-23.99-180.84-23.99-180.84s181.74 174.65 184.67 43.11c2.94-131.58-91.9-249.01-91.9-249.01s168.66-123.45 113.64-321.01c-55-197.56-61.87-342.34-6.77-504.13 55.14-161.72 29.93-329.07-49.94-401.46-116.75-105.87-286.57-89.4-286.57-89.4s-90.32-295.81-428.3-287.89c-152.02 3.54-275.47-47.87-380.81-99.25-128.89-62.87-230.71-125.74-324.55-87.97-170.56 68.64-365.91 631.82 92.87 798.65 0 0 908.82 609.37 998.72 1336.38z"/></g><path d="M12195.59 3662.6l-22.3 213.56c22.88 22.8 46.29 43 70.06 60.9 347.58 261.46 776.5 27.56 776.5 27.56l77.41-740.51-901.67 438.48z" class="Z k"/><path d="M12197.56 3643.94l-24.27 232.22c22.88 22.8 46.29 43 70.06 60.9 328.85-92.02 593.33-399.35 593.33-399.35l-533.54 72.6-105.59 33.62z" class="Z a"/><path d="M12027.61 2688.19s-106.33-156-189.86-19.84c-83.53 136.17-61.12 431.75 128.46 403.58l61.4-383.74z" class="Z r"/><path d="M11845.73 3177.22s-46.8 441.52 412.63 488.49c456.56 46.87 805.06-279.08 823-293.98l.54-.4 131.76-827.25s106.77-457.53-324.99-588.11c-315.43-95.41-622.87-73.5-792.75 78.48-5.48 4.94-10.81 9.99-15.93 15.21-54.13 53.99-92.15 122.81-109.19 206.87l-125.07 920.68z" class="Z k"/><path d="M13172.87 2800.07s-103.41 32.33-148.94 157.71c-68.31-7.12-116.1-70.93-103.61-138.45l27.28-139.2c32.76-158.68 83.45-208.87-8.56-308.3-92.05-99.39-5.55-158.42-89.33-228.78-91.91-77.15-319.15 59.47-486.24 24.81-198.38-41.07-181.55-175.66-354.31-21.53 0 0 45.83-232.25 271.25-295.16 225.42-62.9 859.33-7.44 956.4 294.48 97.1 301.97-63.94 654.41-63.94 654.41zm-363.47-333.36h0c-30.47 52.24-97.1 70.46-149.88 40.92-30.82-17.22-67.45-34.83-106.65-47.76-55.61-18.33-84.74-79.19-63.48-133.72 0 0 229.21 2.9 320.01 140.56zm-849.39-95.1h-.04c17.94 54.06 75.79 83.89 130.18 66.95 31.76-9.92 68.92-19.01 107.59-23.27 54.78-6.09 93.48-56.5 84.53-110.88 0 0-211.81-41.92-322.26 67.2z" class="a Z"/><path d="M12501.31 2836.91c-3.36 32.15 60.11 65.13 141.78 73.65 81.71 8.56 150.63-10.6 153.99-42.75 3.37-32.15-60.15-65.13-141.81-73.65-81.67-8.56-150.63 10.6-153.96 42.75zm-608.5-6.48c11.32 2.32 23.2 4.18 35.48 5.44 81.63 8.53 150.55-10.64 153.92-42.79s-60.15-65.16-141.78-73.68a347.4 347.4 0 0 0-32.26-1.9l-15.36 112.93z" class="r Z"/><path d="M12492.83 2657.11c-4.59 44.18 11.67 82.05 36.37 84.63 24.74 2.62 48.48-31.11 53.1-75.25 4.62-44.18-11.64-82.06-36.37-84.64-24.7-2.58-48.48 31.12-53.1 75.26zm-443.67-46.33c-4.62 44.15 11.63 82.02 36.34 84.6 24.7 2.58 48.47-31.12 53.09-75.29 4.62-44.15-11.67-82.02-36.37-84.6s-48.44 31.12-53.06 75.29zm144.39 456.38c161.37 16.87 307.98-107.73 309.95-109.45a18.3 18.3 0 0 0 1.83-25.75c-6.59-7.62-18.12-8.44-25.74-1.86-9.56 8.27-236.8 200.71-421.47 37.49a18.3 18.3 0 0 0-25.82 1.57 18.3 18.3 0 0 0 1.61 25.81c51.7 45.69 106.48 66.6 159.64 72.18zm762.75 110.38c1.57 5.07 45.62 145.96 125.06 194.19l.5-.4 14.68-92.29s-71.2-19.98-140.24-101.5z" class="a Z"/><path d="M13069.22 2879.3s201.31-218.69 311.19-18.83c90.55 164.73-152.8 543.88-349.44 384.69l38.24-365.87z" class="Z k"/><g class="a Z"><path d="M13062.6 3176.26c9.13.96 17.72-5.08 19.73-14.29 38.38-177.4 195.26-224.31 201.93-226.21 9.66-2.75 15.28-12.85 12.52-22.55-2.72-9.7-12.82-15.32-22.48-12.6-7.52 2.15-184.53 54.25-227.71 253.63a18.3 18.3 0 0 0 14.01 21.73l2 .29z"/><path d="M13243.62 3083.84c5.26.58 10.77-1.18 14.79-5.23 7.15-7.12 7.2-18.68.07-25.81-6.67-6.66-66.45-64.77-122.42-56.5-9.99 1.47-16.9 10.74-15.43 20.72 1.46 10 10.77 16.87 20.72 15.4 32.22-4.76 76.77 31.73 91.23 46.19a18 18 0 0 0 11.03 5.23zm-954.47-223.26a18.3 18.3 0 0 0 20.04-16.29 18.3 18.3 0 0 0-16.26-20.08c-66.84-6.95-94.37-45.54-103.18-61.87l176.73-286.28c5.26-8.6 2.58-19.84-6.06-25.1-8.59-5.3-19.83-2.58-25.1 6.01l-181.74 294.41a18.3 18.3 0 0 0-1.76 15.58c1.15 3.37 29.61 82.35 137.31 93.62z"/></g><path d="M12487.89 2617.72h2.07c4.29.02 8.6.09 12.94.21-5.01 11.36-8.56 24.71-10.1 39.17-4.59 44.18 11.67 82.05 36.37 84.63.89.11 1.8.15 2.69.15 23.74 0 45.97-32.83 50.41-75.41 1.5-14.18.82-27.71-1.57-39.6 94.84 19.23 162.15 66.2 159.07 116.86-1.36 22.09-15.93 41.88-39.93 57.82-13.96-3.26-28.96-5.79-44.6-7.41-13.14-1.4-25.96-2.04-38.24-2.04-63.95 0-112.93 17.83-115.72 44.79-.14 1.33-.18 2.65-.1 4.01-125.86-8.2-224.52-63.94-220.84-125.02 3.44-56.71 93.88-98.17 207.51-98.17z" fill="#fac2b8" class="Z"/><path d="M12532.22 2841.92c69.35 0 130.07-15.43 167.66-40.35-13.96-3.26-28.96-5.79-44.6-7.41-13.14-1.4-25.96-2.04-38.24-2.04-63.95 0-112.93 17.83-115.72 44.79-.14 1.33-.18 2.65-.1 4.01l2.14.11a462.4 462.4 0 0 0 28.86.89z" class="Z s"/><path d="M12531.89 2741.89c23.74 0 45.97-32.83 50.41-75.41 1.5-14.18.82-27.71-1.57-39.6a463 463 0 0 0-63.88-8.3l-13.92-.65c-5.01 11.36-8.56 24.71-10.1 39.17-4.59 44.18 11.67 82.05 36.37 84.63.89.11 1.8.15 2.69.15z" class="Z t"/><path d="M11796 2792.41c6.7-46.26 20.95-90.11 41.74-124.06 25.38-41.35 52.89-55.78 78.84-55.78a81.2 81.2 0 0 1 5.84.25l.47-3.44c-2.93-5.4-5.69-10.78-8.37-16.11-4.73-.14-9.42-.21-14.08-.21-113.67 0-204.1 41.46-207.54 98.17-2.44 39.96 38.95 77.62 103.11 101.17z" fill="#feebdd" class="Z"/><path d="M11922.88 2609.38l2.11-15.68-10.48-.43 8.37 16.11z" class="Z t"/><path d="M11894.96 2814.64l27.45-201.82-5.84-.25c-25.95 0-53.45 14.43-78.84 55.78-20.79 33.95-35.04 77.8-41.74 124.06 28.96 10.67 62.62 18.44 98.96 22.24z" class="Z s"/><path d="M12082.24 2792.84c41.64-17.62 68.21-43.51 70.07-73.76 1.19-19.62-8.2-38.7-25.64-55.81-9.7 19.65-23.81 32.25-38.48 32.25-.89 0-1.79-.07-2.68-.14-23.38-2.44-39.25-36.59-36.92-77.73-34.33-12.53-75.14-21.05-119.26-23.74l-4.33-.21-2.58 19.12-14.21 104.69c10.42.11 21.19.75 32.22 1.9 81.41 8.53 144.78 41.36 141.81 73.44z" fill="#fac2b8" class="Z"/><path d="M11944.79 2817.25c53.03 0 101-9.02 137.45-24.41 2.97-32.08-60.4-64.91-141.81-73.44-11.03-1.15-21.8-1.79-32.22-1.9h-.04l-13.2 97.13a485.1 485.1 0 0 0 20.87 1.72 466.8 466.8 0 0 0 28.96.89z" class="Z s"/><path d="M12088.18 2695.52c14.68 0 28.78-12.6 38.48-32.25-18.19-17.87-45.14-33.59-78.09-45.62-2.32 41.14 13.54 75.29 36.92 77.73.89.07 1.79.14 2.68.14z" class="Z t"/><path d="M12151.13 2718.58l8.84-3.3c48.34-42.17 111.99-.71 114.68 1.05 6.19 4.11 14.53 2.44 18.65-3.72 4.11-6.16 2.47-14.5-3.69-18.62-28.57-19.19-96.16-43.64-147.32 1.05-5.59 4.86-6.16 13.39-1.29 18.97 2.65 3.04 6.4 4.59 10.13 4.59zm1074.22 61.8a13.4 13.4 0 0 0 8.24-24.07c-202.72-157.32-487.81-43.85-499.88-38.95-6.87 2.79-10.17 10.64-7.38 17.51 2.83 6.87 10.67 10.2 17.55 7.38 2.79-1.12 282.88-112.39 473.24 35.3l8.23 2.83z" class="a Z"/><path d="M13602.97 8994.04s-63.34 1847.85-2293.64 1111.96c-1191.27-393.12-1719.51-694.89-1719.51-694.89s-375.75 1042.44-577.57 1467.92c-201.82 425.44-763.06 1466.35-763.06 1466.35l-962.24-236.95s1120.78-3900.38 1812.81-4065.24c692.07-164.91 1522.31 97.39 2986.82 429.6 0 0 1279.03 195.94 1516.4 521.26z" class="Z d"/><g fill="#028e8b" class="Z"><path d="M8222.22 11995.4c11.57 3.83 24.6-.62 31.26-11.39 310.7-502.78 619.24-1264.17 867.15-1875.96l269.7-646.14c101.86-225.09 143.29-269.96 158.93-276.65 69.1-29.61 295.91 72.93 583.05 202.74 415.96 188.08 1044.55 472.28 1775.54 623.94 375 77.8 699.8 26.88 965.32-151.34 472.63-317.17 589.27-918.41 594.04-943.87a26.9 26.9 0 0 0-21.53-31.29 26.9 26.9 0 0 0-31.36 21.49c-1.11 6.01-117.65 604.96-571.45 909.32-253.02 169.64-563.93 217.79-924.1 143.07-725.19-150.45-1350.53-433.21-1764.34-620.29-333.93-150.97-535.5-242.13-626.37-203.14-82.63 35.41-213.63 350.8-457.21 951.99-247.19 609.91-554.77 1368.93-863.1 1867.88a26.9 26.9 0 0 0 8.74 36.98l5.72 2.66z"/><path d="M7403.3 11809.69l1.58.46 972.62 257.18c14.36 3.79 29.08-4.77 32.83-19.09 3.84-14.39-4.65-29.32-19.12-32.86l-972.58-257.17c-14.32-3.81-29.04 4.76-32.83 19.08a26.9 26.9 0 0 0 17.51 32.41z"/></g><g class="a Z"><path d="M11414.3 8556.24l-2950.26-278.22c-5.69-.54-9.84-5.55-9.28-11.2l34.52-366.66a10.4 10.4 0 0 1 11.28-9.28l2950.23 278.19c5.69.57 9.84 5.55 9.31 11.23l-34.55 366.63a10.4 10.4 0 0 1-11.24 9.31z"/><path d="M8143.71 8247.8c-111.81-10.52-202.57-94.91-221.27-205.65l-359.35-2132.99c-21.98-130.36 85.64-246.08 217.25-233.69l1330.12 125.45c89.72 8.45 162.9 75.59 179.02 164.27l442.17 2432.38-1587.93-149.77z"/></g><path d="M9128.15 7825.69l73.92 5.69 24.42 97.17-73.89-5.65-24.45-97.21zm-119.48-9.13l24.49 97.18-90.37-6.91 15.79 114.67 104.51 8.02 27.1 105.69 119.47 9.17-27.1-105.69 73.89 5.65 27.11 105.69 119.43 9.16-27.1-105.69 90.37 6.91-15.79-114.68-104.5-8.02-24.42-97.21 90.29 6.95-15.76-114.68-104.5-8.02-27.11-105.69-119.47-9.16 27.11 105.69-73.93-5.66-27.07-105.69-119.47-9.16 27.1 105.73-90.32-6.91 15.75 114.64 104.5 8.02z" class="Z b"/><path d="M7727 6260.56c31.12 139.31 157.53 261.04 282.41 271.96 124.91 10.92 200.96-93.13 169.88-232.43-31.08-139.31-157.49-261.08-282.41-271.96-124.91-10.92-200.96 93.16-169.88 232.43z" class="Z o"/><path d="M7979.77 6235.35c6.19 27.86 20.05 51.2 30.9 52.13 10.88.96 14.6-20.84 8.41-48.69-6.2-27.89-20.05-51.23-30.93-52.17-10.85-.96-14.61 20.88-8.38 48.72zm-118-10.31c6.22 27.86 20.08 51.2 30.89 52.17 10.88.93 14.68-20.87 8.45-48.72-6.23-27.86-20.09-51.23-30.97-52.17-10.81-.93-14.6 20.84-8.37 48.72zm116.82 177.94c97.28 8.49 95.34-97.99 95.31-99.06-.18-5.84-4.87-11.96-10.42-13.71-5.62-1.76-9.99 1.54-9.88 7.34.11 3.87 1.29 90.58-79.91 83.49-81.23-7.09-119.5-97.21-121.09-101.07-2.51-5.98-8.59-10.17-13.6-9.35-4.98.82-7.05 6.37-4.59 12.35.47 1.15 46.94 111.5 144.18 120.01zm1310.96-437.76l438.47 2412.33 151.99 14.32-438.44-2412.29c-16.29-88.75-89.33-155.96-179.09-164.41l-152.02-14.35c89.79 8.48 162.83 75.69 179.09 164.4z" class="a Z"/><path d="M9714.24 8361.73l4.01-.37c12.14-2.14 20.27-13.81 18.04-25.99l-433.68-2407.06c-2.14-12.21-13.78-20.34-25.99-18.08-12.17 2.18-20.3 13.81-18.08 26.02l433.68 2407.03c1.93 10.85 11.35 18.44 22.01 18.44zm-908.47-1286.51c17.9 133.55-73.47 231.79-204.14 219.44-130.65-12.28-251.12-130.5-269.03-264.05-17.9-133.47 73.51-231.71 204.18-219.43 130.65 12.31 251.09 130.56 268.99 264.04z" class="p Z"/><path d="M10669.78 7655.01s-692.35-154.57-934.31-39.46l84.67 439.34s390.37-27.11 481.16 17.93c90.76 45.04 95.99 220.33 446.03 230.18l-77.55-647.99z" class="Z k"/><path d="M12943.12 7006.77l.43-1.54c-1.08.54-4.36 2.94-9.45 7.85l-3.68 3.87c6.01-4.3 10.48-7.88 12.71-10.17zm-2197.37 561.38l244.46-39.77 325.66-57.86c216.51-39.84 431.61-83.34 642.38-131.43l311.52-77.05c101.97-27.25 202-56.29 297.02-87.9 94.56-31.68 185.83-65.23 261.04-100.49 37.13-17.44 70.32-35.38 92.8-50.05l.79-.57 3.08-5.05c12.43-19.83 23.85-40.24 35.59-60.51 22.85-40.74 45.29-81.98 65.99-124.16 42.17-84.03 79.3-171.21 113.1-260.07 67.85-177.8 117.72-364.87 153.99-556.62 17.9-95.96 31.87-193.16 42.35-291.12 10.82-97.96 17.62-196.74 20.85-295.63 3.71-98.88 3.76-197.98 0-295.91-1.9-48.94-4.77-97.49-8.67-144.93l-6.12-69.64-3.58-32.58-2.72-22.01 1119.8-174 4.94 34.8 3.33 27.42 5.72 51.7 8.78 99.32c4.51 65.45 7.48 129.82 9.12 194.02a4942.4 4942.4 0 0 1-4.83 382.69c-13.89 254.14-47.12 507.8-102.47 759.25a4642.7 4642.7 0 0 1-45.61 188c-16.64 62.33-35.13 124.63-54.56 186.54a4166.2 4166.2 0 0 1-135.77 367.08c-47.79 110.77-100.49 220.01-159.17 326.56l-15.37 27.92c-31.93 57.83-66.23 114.64-101.5 170.86l-75.39 114.28-13.93 20.16a798.5 798.5 0 0 1-74.76 90.47 899.8 899.8 0 0 1-70.6 66.6 1009.8 1009.8 0 0 1-65.81 51.41c-42.15 30.21-81.67 54.63-119.41 75.97-53.2 29.86-103.25 54.09-151.48 75.37l-59.57 25.28c-66.63 27.14-130.58 49.73-193.44 70.28-62.8 20.62-124.27 38.48-185.36 54.99-121.77 33.04-240.91 60.48-359.21 85.04-118.18 24.73-235.36 45.75-352.15 65.01-233.33 38.67-464.9 68.67-696.19 94.09l-608 53.32-89.8 5.58-85.82-874.3 78.98-12.32z" class="Z b"/><g class="g Z"><path d="M13296.31 8001.19c48.23-21.27 98.28-45.51 151.48-75.37 37.74-21.34 77.26-45.76 119.41-75.97 21.33-15.4 42.92-31.9 65.81-51.41a897.9 897.9 0 0 0 70.6-66.6c24.13-25.2 49.63-55.06 74.76-90.47l34.79-51.09c18.84-27.46 36.56-55.53 54.53-83.35 35.27-56.21 69.57-113.03 101.5-170.86a1102.6 1102.6 0 0 0 15.37-27.92l-8.81-4.3s-722.5 9.81-679.44 697.34z"/><path d="M11788.8 8384.53a27.1 27.1 0 0 0 10.92 1.22c9.09-.89 917.02-88.97 1425.24-327.49 512.3-240.3 752.43-698.83 762.38-718.24 6.8-13.17 1.61-29.35-11.6-36.16-13.21-6.73-29.39-1.6-36.19 11.57-2.36 4.58-242.24 461.89-737.41 694.22-499.87 234.54-1398.46 321.72-1407.48 322.61-14.79 1.4-25.64 14.5-24.24 29.26a26.9 26.9 0 0 0 18.37 23.02zm1461.11-1045.91c9.06 3 19.4 1.08 26.82-5.91 10.85-10.14 11.39-27.14 1.22-37.99-125.49-133.83-306.22-268.06-313.88-273.71-11.89-8.84-28.72-6.33-37.56 5.62a26.9 26.9 0 0 0 5.58 37.59c1.87 1.33 184.54 137.05 306.69 267.27a27.1 27.1 0 0 0 11.13 7.12z"/><path d="M12952.22 7077.66l2.9.79c106.91 22.52 247.82 68.23 249.26 68.7 14.11 4.59 29.25-3.15 33.87-17.22 4.55-14.1-3.12-29.21-17.14-33.87l-.11-.03c-5.88-1.9-145.08-47.05-254.78-70.18a26.9 26.9 0 0 0-31.83 20.76c-2.86 13.54 5.01 26.82 17.83 31.05zm241.59-656.13l.83.25c14.21 4.22 29.18-3.91 33.36-18.12 10.28-34.63 250.81-851.82 250.95-1263.21 0-14.82-12.04-26.84-26.85-26.84-14.86 0-26.89 11.99-26.89 26.84-.14 403.61-246.21 1239.54-248.72 1247.91a26.9 26.9 0 0 0 17.32 33.16z"/><path d="M13426.93 5394.56a26.8 26.8 0 0 0 22.69-2.79c12.6-7.85 16.4-24.46 8.53-37.02l-88.11-140.52a26.9 26.9 0 0 0-37.05-8.48 26.9 26.9 0 0 0-8.48 37.05l88.11 140.52c3.43 5.52 8.59 9.32 14.32 11.24zm-2254.76 3023.56a26.6 26.6 0 0 0 11.32 1.18c14.79-1.6 25.38-14.86 23.81-29.6l-92.3-847.92c-1.61-14.72-14.86-25.42-29.64-23.78a26.9 26.9 0 0 0-23.81 29.61l92.3 847.88c1.18 10.82 8.63 19.45 18.33 22.63z"/></g><path d="M11876.73 7073.18a22.5 22.5 0 0 0 21.27-15.32c260.06-775.88 635.35-2708.6 639.11-2728.03 2.32-12.14-5.62-23.92-17.76-26.24-12.17-2.36-23.91 5.58-26.24 17.75-3.76 19.37-378.5 1949.19-637.61 2722.32a22.4 22.4 0 0 0 14.11 28.36l7.12 1.18zm-555.54-73.75a22.4 22.4 0 0 0 22.2-19.37c158.28-1155 818.95-2709.56 825.61-2725.17a22.4 22.4 0 1 0-41.2-17.62c-6.7 15.65-669.73 1575.79-828.84 2736.7a22.4 22.4 0 0 0 19.15 25.25l3.09.21zm1596.3 3012.85c47.65 0 98.92-16.61 151.06-49.23 190.62-119.33 421.15-480.83 506.61-1019.45 1.93-12.24-6.41-23.7-18.62-25.67-12.24-2.01-23.7 6.4-25.64 18.65-83.27 524.69-304.14 874.52-486.13 988.45-61.8 38.7-120.51 51.23-169.81 36.23-39.56-12-70.03-39.06-93.23-82.78-158.61-298.77 117.18-1199.36 119.97-1208.41a22.4 22.4 0 0 0-14.79-28.03c-11.81-3.62-24.38 2.93-28.03 14.79-11.67 37.73-284.06 927.47-116.75 1242.68 28.64 54.03 68.95 89.22 119.8 104.65a190.2 190.2 0 0 0 55.56 8.13z" class="e Z"/><path d="M14156.48 12874.07a895.8 895.8 0 0 0 20.55 73.71c52.7 161.44 149.41 290.48 280.81 343.82 497.76 202.1 965.63 132.18 1917.85 110.05 952.1-22.15 1659.14-274.31 1570.85-1058.19-6.98-61.87-19.01-119.69-35.19-173.6-21.2-70.87-49.77-135.02-83.64-193.02v-.06c-39.81-68.43-87.15-128.33-138.7-180.64-267.2-271.24-669.69-360.03-1029.98-236.55-355.85 121.98-984.91 180.98-1639.84 194.13-703.64 14.21-966.75 671.59-862.71 1120.34z" class="Z o"/><path d="M14156.48 12874.07a895.8 895.8 0 0 0 20.55 73.71c168.82 147.12 486.71 240.13 947.17 276.83 144.78 11.64 303.93 17.33 475.17 17.33 396.23 0 858.17-30.76 1362.51-91.19 426.74-51.31 715.38-201.65 858.17-447.01 106.26-182.49 111.63-381.88 91.3-533.88-21.2-70.87-49.77-135.02-83.64-193.02 36.98 113.6 118.07 435.72-40.49 708.11-136.52 234.44-415.75 378.45-829.77 428.21-1496.42 179.58-2515.01 92.32-2800.97-239.1zm2845.15-969.97c292.44 23.6 508.69 290.49 460.96 579.97-.92 5.59-1.97 11.2-3.08 16.82-63.09 315.51-487.18 306.05-1665.19 317.08-922.5 8.64-1396.92-321.51-1151.6-729.21 195.12-324.27 1736.19-234.85 2358.91-184.66z" fill="#e77245" class="Z"/><path d="M14776.55 12142.69c429.09 534.43 2180.15 564.71 2409.85 164.44 111.88-194.96 81.09-444.57 20.01-649.39a1771.4 1771.4 0 0 0-20.16-63.2c-62.87-184.38-142.25-319.11-142.25-319.11s7.27 190.44-638.62 121.91c-73.89-7.8-157.78-11.09-247.79-9.95l-50.84 1.04c-696.48 20.88-1701.17 292.37-1330.22 754.26z" class="Z a"/><path d="M16183.43 11824.26c101.07 112.77 276.65 155.38 507.62 122.97l15.54-2.32c291.11-44.93 432.96-183.28 499.84-287.17a1771.4 1771.4 0 0 0-20.16-63.2c-49.55 95.63-179.88 258.63-502.18 303.76-213.85 29.97-374.35-7.05-463.96-107.02-80.7-90.18-102.08-229.38-62.52-403.88l-50.84 1.04c-39.6 185.32-13.36 335.33 76.65 435.83z" class="Z o"/><path d="M15019.19 11753.73s-411.13-30.32-459.9-237.81c-48.72-207.44 894.22-25.48 998.26-452.76 104.08-427.2-312.88-767.86-448.33-642.91-160.47 148.08 190.94 211.17 209.81 430.92 15.68 182.56-97.49 350.8-448.61 375.82-351.09 25.07-508.08 79.67-506.54 242.85 1.64 177.58 286.07 360.75 458.95 372.21 172.93 11.49 196.35-88.33 196.35-88.33zm1803.68-635.4s122.05-158.68 320.58-264.3c28.89-15.36 63.26 7.8 59.93 40.35l-37.62 363.72s-285.17 24.24-342.89-139.78z" class="a Z"/><path d="M17095.97 11214c16.11-82.46 20.08-169.14 39.09-266.35 0 0-214.35 127.75-227.13 198.11 0 0 118.25 89.54 188.04 68.24z" class="Z p"/><path d="M16450.66 11132.87s-167.49-100.97-387.03-128.58c-35.98-4.51-62.29 33.3-46.05 65.73l150.16 299.35s288.82-62.69 282.91-236.51z" class="Z a"/><path d="M16231.12 11321.37c-45.01-70.92-80.27-150.22-133.34-233.86 0 0 246.11 40.99 283.64 101.89 0 0-77.59 126.42-150.3 131.97z" class="Z p"/><path d="M16982.15 11124.56s253.81 38.78 234.72 336.23c-19.05 297.41-308.66 329.1-308.66 329.1s-51.63 95.69-230.43 134.37c-114.49 24.73-285.02 16.93-328.23-67.25 0 0-248.62-91.12-245.75-312.7 3.16-245.54 299.1-546.92 878.35-419.76zm257.82 703.22s-103.58 422.18-190.37 509.32c-86.74 87.19-180.94 134.88-301.89 149.54-195.3 23.68-159.14 153.86-100.93 198.61 67.46 51.84 187 22.31 366.49 22.31 155.06 0 301.21-30.94 353.56-132.86 52.41-101.95 48.91-403.61-6.81-573.22-34.36-104.65-82.77-159.32-120.04-173.71zm-1311.64 27.8s103.62 422.18 190.4 509.37c86.75 87.19 181.56 130.5 301.86 149.51 147.19 23.28 133.51 162.33 100.96 198.6-56.81 63.37-186.99 22.33-366.48 22.33-155.06 0-338.41-62.07-390.79-163.95-52.41-101.95-11.67-372.47 44.04-542.14 34.34-104.61 82.78-159.32 120.01-173.72zm-866.97-84.1s-273.14-65.37-361.14 140.45c-138.45 323.81-27.79 508.77 341.23 560.23 368.98 51.36 788.56 121.18 471.34-141.33-317.21-262.46-451.44-559.34-451.44-559.34z" class="a Z"/><path d="M16531.72 11605.15s110.21-11.75 139.56 1.79c49.27 22.63-29.93 114.6-80.37 122.41-50.49 7.73-99.61-51.3-98.86-89.76.72-38.45 39.67-34.44 39.67-34.44zm-56.71-84.85c5.3-3.3 11.13 3.4 7.12 8.2-21.91 26.16-62.33 60.61-116.97 49.05-45.18-9.53-62.33-41.24-68.42-68.89-1.36-6.16 6.98-9.56 10.1-4.11 11.64 20.47 34.3 41.32 78.3 44.14 33.27 2.08 67.39-14.42 89.87-28.39zm427.3-22.6c4.62-4.19 11.6 1.32 8.56 6.76-16.79 29.76-50.16 71.04-105.97 69.75-46.19-1.08-68.85-29.08-79.94-55.14-2.48-5.84 5.12-10.67 9.19-5.91 15.18 17.93 41.29 34.29 85.07 28.96 33.09-4.01 63.59-26.53 83.1-44.43z" class="p Z"/><path d="M5369.85 122.3v2571.72a122.3 122.3 0 0 0 122.26 122.26h4352.84a122.3 122.3 0 0 0 122.27-122.26V122.23C9967.22 54.7 9912.48 0 9844.95 0H5492.11c-67.52 0-122.26 54.77-122.26 122.3z" class="Z e"/><path d="M8046.54 1579.22a806.8 806.8 0 0 0 208.66 542.71c148.3 164.19 362.83 267.37 601.45 267.37 447.5 0 810.18-362.61 810.18-810.08 0-110.95-22.37-216.75-62.76-313.12l-747.42 313.12L8895 770.11c-12.53-.75-25.42-.96-38.35-.96-447.39 0-810.11 362.68-810.11 810.07z" class="Z c"/><path d="M8975.66 636.42c242.1 11.21 456.27 128.65 597.19 306.8 45.37 57.28 83.1 120.83 111.78 189.26l-747.35 313.06 38.38-809.12z" class="Z n"/><path d="M6207.6 1132.58h-111.25v-111.23h111.25z" class="Z c"/><path d="M5622.72 1090.91l399.81-1.22v-25.45l-1.22-1.19-399.81 1.19v25.45z" class="Z l"/><path d="M6207.6 934.34h-111.25V823.09h111.25z" class="Z i"/><path d="M5622.72 892.63l399.81-1.22V866l-1.22-1.22L5621.5 866v25.41z" class="Z l"/><path d="M6207.6 1330.79h-111.25v-111.24h111.25z" class="Z c"/><g class="l Z"><path d="M5622.72 1289.12l399.81-1.26v-25.41l-1.22-1.22-399.81 1.22v25.41z"/><use xlink:href="#B"/><path d="M5635.43 1793.83h558.24a13.92 13.92 0 1 0 0-27.85h-558.24c-7.66 0-13.93 6.23-13.93 13.93 0 7.69 6.27 13.92 13.93 13.92zm0 114.39h558.24a13.92 13.92 0 1 0 0-27.84h-558.24c-7.66 0-13.93 6.22-13.93 13.92 0 7.69 6.27 13.92 13.93 13.92zm0 114.39h558.24a13.92 13.92 0 1 0 0-27.84h-558.24c-7.66 0-13.93 6.23-13.93 13.92 0 7.7 6.27 13.92 13.93 13.92zm0 114.39h558.24c7.69 0 13.92-6.27 13.92-13.93a13.9 13.9 0 0 0-13.92-13.92h-558.24c-7.66 0-13.93 6.23-13.93 13.92a14 14 0 0 0 13.93 13.93zm0 114.35h558.24a13.9 13.9 0 1 0 0-27.81h-558.24c-7.66 0-13.93 6.2-13.93 13.89 0 7.7 6.27 13.92 13.93 13.92z"/><use xlink:href="#B" y="686.31"/></g><path d="M5369.85 122.3v214.6h4597.38V122.23C9967.23 54.7 9912.49 0 9844.96 0H5492.12c-67.52 0-122.26 54.77-122.26 122.3z" class="Z a"/><path d="M5854.18 168.45c0 31.26 25.35 56.6 56.64 56.6 31.26 0 56.64-25.34 56.64-56.6 0-31.29-25.38-56.64-56.64-56.64-31.29 0-56.64 25.35-56.64 56.64z" class="Z l"/><use xlink:href="#C" class="Z n"/><use xlink:href="#C" x="-175.76" class="Z c"/><path d="M8046.54 1579.22a806.8 806.8 0 0 0 208.66 542.71l601.45-542.71L8895 770.11c-12.53-.75-25.42-.96-38.35-.96-447.39 0-810.11 362.68-810.11 810.07z" class="Z i"/><path d="M7257.8 2479.71h-257.93V1374.57h257.93z" class="Z c"/><path d="M7257.8 2188.23c-91.4-28.21-177.04-78.81-257.92-133.22v424.7h257.92v-291.47z" class="Z i"/><path d="M7679.34 2479.71h-257.91v-798.05h257.91z" class="Z c"/><path d="M7469.18 2206.96a454.9 454.9 0 0 1-47.76 4.36v268.39h257.92v-265.88c-45.61-15.03-112.38-21.16-210.16-6.87z" class="Z i"/><path d="M6836.26 2479.71h-257.97V1044.4h257.97z" class="Z c"/><path d="M6578.3 1831.03v648.68h257.95v-538.55c-91.68-62.26-177.15-110.49-257.95-110.14z" class="Z i"/><path d="M6588.76 625.94l232.75 49.94-62.52 61.3 356.39 363.29 125.05-122.66 442.25 450.86c16.9 17.18 16.6 44.83-.58 61.69a43.7 43.7 0 0 1-61.73-.58l-381.15-388.57-125.02 122.66-417.5-425.58-62.48 61.29-45.47-233.65zm9833.15 2295.14l-1.75 1226.68-1775.87-2.54 1.8-1226.71z" class="c Z"/><g class="i Z"><path d="M16421.84 2921.15l-.11 78.63-888.98 785.66-886.77-788.2.11-78.66 886.7 790.92z"/><path d="M15362 3554.4l-666.25 590.89-51.46-.07.05-31.29 679.46-602.56zm1058.19 566.26l-.03 27.1-56.1-.07-664.55-592.82 38.31-42.93z"/></g><path d="M14646.02 2918.51l886.8 790.99 889.06-788.42z" class="Z c"/><path d="M14344.3 2981.12c0 212.85 172.53 385.38 385.42 385.38 212.88 0 385.41-172.53 385.41-385.38 0-212.88-172.53-385.41-385.41-385.41-212.89 0-385.42 172.53-385.42 385.41z" class="Z n"/><path d="M14808.67 3164.26h0c9.92 0 19.45-3.98 26.46-10.99l94.46-94.46a37.4 37.4 0 0 0-.04-52.85c-14.57-14.6-38.27-14.6-52.85 0l-68.03 68.03-265.05-265.05a37.4 37.4 0 0 0-52.88 0c-14.57 14.57-14.57 38.27 0 52.85l291.51 291.47a37.4 37.4 0 0 0 26.42 10.99zM4517.49 7820.49v-4356.5a120.7 120.7 0 0 1 120.65-120.65h2204.79a120.7 120.7 0 0 1 120.65 120.65v4356.5a244.1 244.1 0 0 1-244.03 244.04H4761.49c-134.73 0-244-109.27-244-244.04z" class="e Z"/><g class="l Z"><path d="M4883.75 6651.96h1629.5c29.68 0 53.74-24.06 53.74-53.75 0-29.68-24.06-53.74-53.74-53.74h-1629.5c-29.69 0-53.74 24.06-53.74 53.74 0 29.69 24.05 53.75 53.74 53.75z"/><use xlink:href="#D"/><use xlink:href="#D" y="340.81"/><path d="M4883.75 7674.45h1629.5c29.68 0 53.74-24.05 53.74-53.74 0-29.68-24.06-53.74-53.74-53.74h-1629.5c-29.69 0-53.74 24.06-53.74 53.74 0 29.69 24.05 53.74 53.74 53.74z"/></g><path d="M4517.49 3464v334.55h2446.09V3464a120.7 120.7 0 0 0-120.65-120.65H4638.14A120.7 120.7 0 0 0 4517.49 3464z" class="Z a"/><path d="M5109.8 3549.03c0 43.89 35.59 79.52 79.53 79.52 43.92 0 79.52-35.62 79.52-79.52 0-43.93-35.59-79.56-79.52-79.56s-79.53 35.62-79.53 79.56z" class="Z l"/><path d="M4852.02 3549.03a79.6 79.6 0 0 0 79.53 79.52c43.92 0 79.52-35.62 79.52-79.52 0-43.93-35.59-79.56-79.52-79.56a79.6 79.6 0 0 0-79.53 79.56z" class="Z n"/><path d="M4605.23 3549.03c0 43.89 35.59 79.52 79.53 79.52 43.89 0 79.52-35.62 79.52-79.52a79.6 79.6 0 0 0-79.52-79.56c-43.93 0-79.53 35.62-79.53 79.56zm1874.04 2778.81h-275.14v-664.79h275.14z" class="c Z"/><path d="M6073.48 6327.84h-275.14V5190.91h275.14z" class="Z i"/><path d="M5624.12 6327.84h-275.11V4842.56h275.11z" class="Z c"/><path d="M5183.92 6327.84h-275.08V4433.68h275.08z" class="Z n"/><g class="l Z"><path d="M5415.95 4142.43l-190.75 70.02 21.98-223.26z"/><path d="M6554.92 5340.28a20.7 20.7 0 0 0 19.33-13.43 20.7 20.7 0 0 0-12.14-26.57c-8.3-3.11-836.21-320.36-1240.03-1173-4.87-10.31-17.19-14.69-27.5-9.81-10.31 4.87-14.68 17.19-9.8 27.5 411.23 868.21 1254.49 1190.84 1262.9 1193.98l7.24 1.33z"/></g><path d="M15924.39 738.5v679.9c0 89.86-72.93 162.79-162.79 162.79h-1234.49l-372.71 133.69c-38.24 13.75-74.9-23.84-60.22-61.73l140.99-364.04V738.49c0-89.9 72.9-162.8 162.87-162.8h1363.56c89.86 0 162.79 72.9 162.79 162.8z" class="Z c"/><path d="M14851.92 1097.78c0 65.05-52.7 117.76-117.76 117.76a117.8 117.8 0 0 1-117.76-117.76 117.8 117.8 0 0 1 117.76-117.75c65.05 0 117.76 52.69 117.76 117.75zm372.78 0c0 65.05-52.7 117.76-117.76 117.76-65.05 0-117.76-52.7-117.76-117.76 0-65.05 52.7-117.75 117.76-117.75 65.05 0 117.76 52.69 117.76 117.75zm372.82 0c0 65.05-52.77 117.76-117.8 117.76a117.8 117.8 0 0 1-117.75-117.76c0-65.05 52.73-117.75 117.75-117.75a117.8 117.8 0 0 1 117.8 117.75z" class="i Z"/><path d="M12994.32 737.61h587.74c37.8 0 68.45-30.65 68.45-68.45V81.42c0-37.85-30.65-68.49-68.45-68.49h-587.74a68.5 68.5 0 0 0-68.49 68.49v587.74a68.5 68.5 0 0 0 68.49 68.45z" class="Z n"/><path d="M13083.19 226.1l3.61-15.01c4.36-17.61 12.75-33.12 24.59-46.83 8.53-9.84 18.34-18.19 29.47-24.59 15.32-8.81 32.69-5.05 44 8.59l60.26 73.44c12.24 15.1 10.24 35.76-4.94 49.22-10.85 9.6-22.34 18.55-33.58 27.79l-4.37 2.86c26.78 72.08 72.22 127.67 137.49 167.81l24.46-20.37c4.25-3.51 8.44-7.09 12.85-10.42 13.1-10.06 28.28-11.03 41.89-2.15 4.32 2.79 7.88 6.98 11.2 11.03l54.53 66.27c5.79 6.98 9.48 14.68 10.77 23.63l-.96 9.81c-3.19 5.51-5.41 12.03-9.73 16.36-10.71 10.67-22.49 20.2-36.49 26.49-16.4 7.42-33.55 11.92-51.53 10.35-11.81-1.04-23.67-3.54-35.16-6.73-29.5-8.24-56.39-22.35-81.7-39.39-25.07-16.9-47.87-36.56-68.85-58.33-28.28-29.35-53.35-61.33-76.16-95.13-17.93-26.67-33.44-54.53-43.5-85.21-5.05-15.47-8.45-31.26-9.52-47.48-.44-6.52-.58-13.06-.86-19.62l2.22-22.41z" class="Z e"/><path d="M11927.07 735.64h613.38a61.2 61.2 0 0 0 61.15-61.15V61.14c0-33.8-27.38-61.15-61.15-61.15h-613.38c-33.77 0-61.15 27.35-61.15 61.15v613.35a61.2 61.2 0 0 0 61.15 61.15z" class="Z c"/><path d="M12199.43 373.6c0-28.82 14.89-43.71 34.55-43.71 19.73 0 34.09 14.89 34.09 43.71 0 29.29-14.36 44.15-34.09 44.15-19.66 0-34.55-14.86-34.55-44.15zm-200.74-19.73c0 91.73 51.41 139.27 112.89 139.27 35.98 0 62.41-13.92 75.83-41.78 13.46 26.46 36.47 41.78 73 41.78 51.87 0 101.78-45.61 101.78-119.54 0-74.01-48.47-119.12-101.78-119.12-25.42 0-45.15 8.2-59.08 23.56v-19.26h-92.19v137.38c0 20.19-8.2 26.42-18.72 26.42-13.47 0-24.49-13.5-24.49-67.24 0-86.94 64.84-148.41 163.76-148.41 98.42 0 164.7 69.13 164.7 160.4 0 94.12-64.84 161.33-162.8 161.33a230.7 230.7 0 0 1-96.99-21.13l-20.2 59.12c28.82 13.89 74.47 23.02 117.19 23.02 144.57 0 237.26-96.53 237.26-222.33 0-123.92-92.69-221.41-239.16-221.41-138.31 0-231 92.69-231 207.94z" class="Z e"/><path d="M10935.55 735.64h613.34a61.2 61.2 0 0 0 61.16-61.15V61.14c0-33.8-27.39-61.15-61.16-61.15h-613.34c-33.8 0-61.16 27.35-61.16 61.15v613.35c0 33.76 27.36 61.15 61.16 61.15z" class="Z i"/><path d="M11203.85 537.36l.4 52.38 66.56-.54-.43-50.01c47.18-3.19 92.83-16.33 121-34.01l-36.52-80.85c-31 18.65-72.43 30.79-108.77 31.08-31.58.25-42.97-6.26-43.07-17.58-.32-41.53 182.52-9.52 181.55-132.66-.47-53.3-39.52-97.8-116.97-108.04l-.43-51.45-66.53.58.43 50.48c-34.9 3.58-68.78 12.82-95.55 28.14l34.15 80.38c32.41-16.76 63.01-25.03 91.77-25.25 32.58-.28 43.03 9.06 43.1 20.41.37 39.64-182.49 8.06-181.51 129.78.43 50.99 37.59 95.02 110.81 107.16z" class="Z e"/><path d="M17984.1 13085.03c0 103.36 1020.02 187.13 2278.29 187.13s2278.29-83.78 2278.29-187.13c0-103.37-1020.01-187.14-2278.29-187.14-1258.26 0-2278.29 83.78-2278.29 187.14z" class="Z f"/><path d="M18885 11489.18h2839.8c18.11 0 32.74-14.68 32.74-32.76v-164.58c0-18.08-14.63-32.76-32.74-32.76H18885a32.8 32.8 0 0 0-32.75 32.76v164.58a32.8 32.8 0 0 0 32.75 32.76z" class="Z j"/><path d="M21629.88 8709.27h-2655.72c-44.15 0-79.95 35.81-79.95 79.91v326.31c0 44.15 35.81 79.91 79.95 79.91h2655.72c44.15 0 79.93-35.76 79.93-79.91v-326.31c0-44.11-35.78-79.91-79.93-79.91z" class="Z q"/><path d="M20328.47 7444.81h258.11l34.8-72.75 37.92-80.34 142.02-309.17c348.04-773.88 972.41-2276.2 717.17-2574.88-290.07-339.3-636.14 169-887.8 1131.05a7665.3 7665.3 0 0 0-50.45 204.48c-90.22 387.89-165.41 837.14-217.14 1326.21l-21.73 222.3-12.89 153.09z" class="Z d"/><g class="h Z"><path d="M20341.36 7291.73l77.83 153.09h167.46l34.76-72.72 9.31-1833.36c-126.99 485.67-229.99 1086.91-289.35 1752.99z"/><path d="M20409.78 7444.85h42.18l812.94-2663.63a20.2 20.2 0 0 0-13.39-25.17 20.1 20.1 0 0 0-25.18 13.43l-816.56 2675.37z"/></g><path d="M19668.66 6904.12l55.25 123.23 121.77 264.38 72.65 153.09h258.1l-12.78-153.09-20.66-211.82c-50.23-477.65-122.66-917.52-209.73-1299.54-13.47-59.18-27.28-116.89-41.46-173.14-252.85-1006.17-608.43-1546.76-905.18-1199.54-246.96 288.83 328.96 1703.86 682.04 2496.43z" class="Z d"/><g class="h Z"><path d="M20163.64 7291.73l-77.83 153.09h-167.42l-34.8-72.72-9.32-1833.36c127 485.67 230 1086.91 289.36 1752.99z"/><path d="M20095.25 7444.85h-42.21l-812.91-2663.63c-3.26-10.68 2.73-21.91 13.36-25.17a20.1 20.1 0 0 1 25.17 13.43l816.6 2675.37z"/></g><path d="M19933.25 5780.37c36.16 509.3 86.21 985.77 122.12 1297.25l44.76 367.2h228.45c26.68-127.77 51.34-254.45 74.08-379.62 84.61-464.93 142.78-910.61 177.58-1321.98 133.65-1576.62-75.76-2648.81-459.96-2363.28-275.61 204.94-259.96 1369.89-187.03 2400.44z" class="Z d"/><g class="h Z"><path d="M19723.91 7027.35l121.77 264.38 72.65 153.09h668.26l34.8-72.75 37.92-80.34 140.56-305.98c-81.99 23.74-224.42 59.47-397.21 79.45l-39.56 4.23c-69.6 6.83-143.61 10.88-220.12 10.48-28.88-.1-58.07-.82-87.6-2.29-108.59-5.44-220.73-20.69-331.46-50.27z"/><path d="M20233.99 3872.22l27.32 3572.63h40.28l-27.29-3572.88c-.1-11.16-9.24-19.83-20.33-20.01a20.1 20.1 0 0 0-19.98 20.27z"/></g><path d="M19086.22 7417.32l486.6 1291.94h1458.36l486.56-1291.94c22.92-60.76-21.97-125.59-86.9-125.59h-2257.69c-64.87 0-109.74 64.83-86.92 125.59z" class="Z b"/><path d="M19119.65 7506l21.09 56.14h2322.48l21.11-56.14zm81.71 217l21.16 56.18h2158.93l21.19-56.18zm83.43 221.37l21.07 56.07h1992.24l21.11-56.07z" class="g Z"/><path d="M20692.65 9195.44l1206.68 3889.59h220.05l-781.26-3889.59z" class="Z m"/><path d="M21338.12 9195.44h-645.47l80.89 260.74 631.85 74.08z" class="Z j"/><path d="M18478.03 13085.03h220.08l1206.67-3889.59h-645.42l-16.36 81.3z" class="Z m"/><path d="M19243.07 9276.74l614.13 72.04 47.58-153.34h-645.42z" class="Z j"/><path d="M18941.03 10988.83h2727.76c49.02 0 88.75-39.73 88.75-88.78v-52.56c0-49.02-39.73-88.76-88.75-88.76h-2727.76a88.8 88.8 0 0 0-88.78 88.76v52.56a88.8 88.8 0 0 0 88.78 88.78z" class="Z q"/><path d="M1998.11 1400.22c0 561.24 454.98 1016.22 1016.19 1016.22 561.28 0 1016.27-454.98 1016.27-1016.22 0-561.28-454.98-1016.27-1016.27-1016.27-561.21 0-1016.19 454.98-1016.19 1016.27z" class="Z f"/><path d="M1998.11 1267.89c0 561.28 454.98 1016.27 1016.19 1016.27 561.28 0 1016.27-454.98 1016.27-1016.27 0-561.25-454.98-1016.23-1016.27-1016.23-561.21 0-1016.19 454.98-1016.19 1016.23z" class="Z b"/><path d="M3014.3 2094.03c455.59 0 826.23-370.6 826.23-826.15 0-455.52-370.64-826.16-826.23-826.16-455.52 0-826.15 370.64-826.15 826.16 0 455.55 370.63 826.15 826.15 826.15z" class="Z e"/><path d="M2188.15 1267.92c0 21.98.89 43.79 2.58 65.28 33.4-425.17 390.07-760.96 823.57-760.96 433.61 0 790.24 335.8 823.61 760.96 1.68-21.49 2.58-43.29 2.58-65.28 0-455.59-370.55-826.15-826.19-826.15-455.48 0-826.15 370.55-826.15 826.15z" class="Z f"/><path d="M3014.3 1353.85a20.6 20.6 0 0 0 16.61-8.34l405.28-545.63c6.81-9.16 4.87-22.09-4.25-28.93a20.7 20.7 0 0 0-28.93 4.3l-395.48 532.42-449.43-197.27a20.6 20.6 0 0 0-27.21 10.6c-4.59 10.46.14 22.67 10.6 27.25l472.81 205.62z" class="Z a"/><path d="M160.17 13138.26c0 130.65 879.6 236.55 1964.72 236.55 1085.04 0 1964.69-105.9 1964.69-236.55 0-130.64-879.64-236.55-1964.69-236.55-1085.12 0-1964.72 105.91-1964.72 236.55z" class="Z f"/><path d="M292.53 6417.02l458.6 6706.42H3498.6l458.61-6706.42z" class="Z m"/><path d="M323.07 6863.73l3589.41 206.83 25.75-376.29H311.47z" class="Z j"/><path d="M155.84 6694.27h3938.07c45.89 0 83.1-37.2 83.1-83.13v-249.79c0-45.86-37.21-83.1-83.1-83.1H155.84c-45.93 0-83.14 37.24-83.14 83.1v249.79c0 45.93 37.21 83.13 83.14 83.13z" class="Z q"/><path d="M703.04 7458.31l90.05 1587.57h2663.52l90.12-1587.57z" class="Z j"/><path d="M1991.91 8317.61c0 73.4 59.54 132.91 132.97 132.91 73.4 0 132.94-59.51 132.94-132.91a133 133 0 0 0-132.94-132.93 133 133 0 0 0-132.97 132.93z" class="Z m"/><path d="M828.39 9417.77l82.16 1447.62h2428.62l82.17-1447.62z" class="Z j"/><path d="M1991.91 10194.19c0 73.37 59.54 132.94 132.97 132.94a133 133 0 0 0 132.94-132.94c0-73.43-59.54-132.93-132.94-132.93-73.43 0-132.97 59.5-132.97 132.93z" class="Z m"/><path d="M936.59 11231.04l75.33 1326.79h2225.94l75.25-1326.79z" class="Z j"/><path d="M1991.91 11894.44c0 73.43 59.54 132.93 132.97 132.93 73.4 0 132.94-59.5 132.94-132.93 0-73.44-59.54-132.95-132.94-132.95a133 133 0 0 0-132.97 132.95z" class="Z m"/><path d="M949.73 3917.69c40.56 222.02 86.97 393.98 86.97 393.98s111.38 248.62 210.77 321.94c69.32 51.16 132.86 16.83 148.33-247.54 2.58-42.93 3.84-91.91 3.65-147.62 0 0 15.68-126.85 23.13-301.04 16.36-379.12-5.87-982.71-312.09-993.75-289.44-10.34-235.09 566.26-160.76 974.02z" class="Z d"/><g class="h Z"><path d="M1422.57 3937.42c-44.57 89.12-118.44 186.71-225.38 178.37-111.1-8.66-195.67-111.74-247.47-198.1 40.56 222.02 86.97 393.98 86.97 393.98s111.38 248.62 210.77 321.94c60.93-38.45 110.88-127.81 148.33-247.54l26.78-448.65z"/><path d="M1233.68 4573.81c9.27 0 17.07-7.2 17.68-16.57 17.08-263.36-71.39-1117.52-75.14-1153.75a17.7 17.7 0 0 0-19.45-15.78c-9.74 1.04-16.8 9.73-15.79 19.48.93 8.84 91.91 887.37 75.01 1147.76-.65 9.77 6.77 18.19 16.54 18.84l1.15.03z"/></g><path d="M1161.32 5084.36h369.92s336.87-25.06 231.65-309.51c-105.3-284.45 30-352.12 192.51-539.34 162.43-187.28 406.08-584.05 135.37-705.99-270.78-121.95-541.48 172.07-650.25 486.45-33.55 96.99-44.65 187.68-56.68 275.26-6.37 47.11-12.99 93.33-23.63 139.3-18.69 81.03-49.59 161.01-112.64 242.82l-5.08 6.47c-171.42 216.72-81.16 404.53-81.16 404.53z" class="Z d"/><g class="h Z"><path d="M1161.32 5084.36h322.95c60.32-286.92-44.01-522.22-124.06-653.83-18.69 81.03-49.59 161.01-112.64 242.82l-5.08 6.47c-171.42 216.72-81.16 404.53-81.16 404.53z"/><path d="M1426.55 5076.81c9.56 0 17.44-7.62 17.72-17.22 17.65-636.18 443.13-1187.29 447.43-1192.77 6.01-7.69 4.65-18.83-3.04-24.88-7.7-6.01-18.8-4.65-24.85 3.04-4.36 5.59-436.97 565.59-454.94 1213.61-.28 9.81 7.45 17.94 17.18 18.23h.51z"/></g><path d="M304.02 4235.51c279.8 227.89 424.12 252.31 388.07 470.28-11.96 71.92-21.84 141.78-21.77 203.93.28 125.96 42.18 220.15 193.22 235.12 225.56 22.41 415.1-60.41 415.1-60.41s67.21-160.72 77.49-350.4c9.59-176.4-30.04-377.9-218.55-498.52-391.36-250.36-319.18-1239.39-833.57-1146.52-514.34 93.01-279.72 918.67 0 1146.52z" class="Z d"/><g class="h Z"><path d="M670.32 4909.72c.28 125.96 42.18 220.15 193.22 235.12 225.56 22.41 415.1-60.41 415.1-60.41s67.21-160.72 77.49-350.4c-87.22 54.35-358.32 202.36-685.81 175.69z"/><path d="M1059.61 5043.73a17.7 17.7 0 0 0 17.54-15.61c.61-4.97 56.03-499.7-267.23-800.16-312.64-290.68-435.86-767.18-437.05-771.94a17.7 17.7 0 0 0-21.47-12.82c-9.53 2.35-15.25 12.03-12.86 21.47 1.22 4.87 126.81 491.29 447.29 789.25 310.12 288.28 256.74 765.17 256.17 769.93a17.7 17.7 0 0 0 15.47 19.73l2.15.14z"/></g><path d="M705.45 6284.37L552.46 4979.25h1289.19L1688.6 6284.37z" class="Z b"/><path d="M577.92 5196.11l4.19 35.95h1229.86l4.23-35.95zm16.29 139.02l4.19 35.98h1197.25l4.25-35.98zm16.61 141.78l4.19 35.95h1164.05l4.19-35.95z" class="g Z"/><path d="M2611.74 5050.1l107.87 1236.38h593.93l107.87-1236.38z" class="Z d"/><path d="M2626.02 5214.04l4.68 52.52h771.74l2.54-29.5 1.97-23.02zm52.53 600.14l4.5 52.52h667.05l4.58-52.52z" class="h Z"/><path d="M2640.23 5375.51l28.36 323.81 696.4-3.44 27.89-320.37z" class="Z e"/><path d="M3462.88 5050.14h-892.67v-158.11h892.67z" fill="#028e8b" class="Z"/><path d="M2637.47 4892.03h758.16v-81.3a52.9 52.9 0 0 0-52.95-52.92h-652.3a52.9 52.9 0 0 0-52.92 52.88v81.34z" class="Z d"/><path d="M20268.39 2016.38h1322.07l193.52-1322.06h-1322.04z" class="Z q"/><path d="M21783.98 694.32l183.14 1322.06h-376.66z" class="Z j"/><path d="M21510.04 1922.15l165.94-1133.64h-1133.62l-165.94 1133.64z" fill="#d6d0be" class="Z"/><path d="M21493.96 1903.32l160.43-1095.97h-1095.95L20398 1903.32z" class="Z e"/><g class="f Z"><path d="M20656.93 941.51l-121.16 827.65h860.37l121.18-827.65z"/><path d="M20783.46 1318.34c0 153.59 124.49 278.11 278.08 278.11 153.63 0 278.13-124.52 278.13-278.11 0-153.6-124.5-278.12-278.13-278.12-153.59 0-278.08 124.52-278.08 278.12z"/></g><path d="M21088.1 1340.17s-174.47-204.4-461.61-190.61l-90.72 619.6 552.33-428.99z" class="Z h"/><path d="M21477.48 1213.61s-246.34-50.09-502.23 141.74c-255.88 191.8-439.48 413.81-439.48 413.81h860.37l81.33-555.55z" class="Z d"/><path d="M16938.05 2567.43h5518.46l72.48-251.81h-5673.55z" class="Z f"/><path d="M22530.22 2315.62h-5679.85v-299.24h5679.85z" class="Z m"/><path d="M22247.08 2315.62l-121.24 254.09h-285.73l-81.32-254.09zm-5025.19 0l121.23 254.09h285.71l81.34-254.09z" class="j Z"/><path d="M17508.99 1694.84l-42.03-.04.1-62.8 1590.29 2.08a190 190 0 0 1 134.94 56.1c34.45 34.55 55.82 82.28 55.75 135.08-.14 105.48-85.71 190.83-191.18 190.69l-1590.29-2.07.07-54.35 42.04.07.31-264.76z" class="Z b"/><path d="M17498.11 1694.84l-.36 264.65 1459.28 1.9c71.26.11 129-59.11 129.07-132.12.07-36.62-14.36-69.63-37.59-93.69-23.41-23.95-55.53-38.81-91.16-38.88l-1459.25-1.86z" class="Z e"/><path d="M17498.04 1761.82l-.07 40.49 1421.52 1.83a20.3 20.3 0 0 0 20.23-20.16v-.11c0-11.09-9.09-20.19-20.16-20.19l-1421.52-1.87zm-.14 99.64l-.04 40.49 1421.52 1.83c11.06.03 20.2-9.06 20.2-20.13v-.14c.03-11.06-9.06-20.2-20.16-20.2l-1421.52-1.86z" class="f Z"/><path d="M17651.14 1313.14l-42.04-.07.07-62.76 1590.29 2.07c52.7.07 100.49 21.41 134.98 56.1 34.44 34.52 55.78 82.25 55.71 135.09a190.9 190.9 0 0 1-191.18 190.69l-1590.29-2.08.07-54.35 42.07.03.32-264.72z" class="Z o"/><path d="M17640.25 1313.1l-.36 264.69 1459.25 1.9c71.24.11 129-59.15 129.1-132.11.04-36.63-14.35-69.64-37.62-93.69-23.38-23.95-55.5-38.81-91.13-38.89l-1459.25-1.9z" class="Z e"/><path d="M17640.14 1380.16l-.04 40.45 1421.52 1.83c11.06.04 20.2-9.05 20.2-20.16v-.1c.03-11.1-9.06-20.2-20.17-20.2l-1421.51-1.83zm-.15 99.6l-.03 40.49 1421.52 1.83c11.09.04 20.2-9.05 20.23-20.16v-.11c0-11.09-9.05-20.19-20.16-20.19l-1421.56-1.87z" class="f Z"/><path d="M17373.88 930.9l-42.04-.07.07-62.76 1590.29 2.04a190.2 190.2 0 0 1 134.98 56.1 190.6 190.6 0 0 1 55.74 135.09c-.14 105.51-85.71 190.83-191.18 190.69l-1590.29-2.05.07-54.35 42 .04.37-264.73z" class="Z d"/><path d="M17362.99 930.87l-.36 264.69 1459.28 1.86c71.26.11 129-59.08 129.07-132.08.07-36.63-14.36-69.63-37.63-93.69-23.37-23.99-55.49-38.81-91.12-38.88l-1459.25-1.9z" class="Z e"/><path d="M17362.92 997.9l-.07 40.49 1421.52 1.83a20.3 20.3 0 0 0 20.23-20.16v-.14c0-11.07-9.09-20.17-20.16-20.17l-1421.52-1.86zm-.14 99.64l-.04 40.49 1421.52 1.83c11.06.03 20.2-9.06 20.2-20.17v-.1c0-11.1-9.06-20.2-20.16-20.2l-1421.52-1.86z" class="f Z"/><defs ><path id="B" d="M5635.43 1679.44h558.24a13.9 13.9 0 1 0 0-27.85h-558.24c-7.66 0-13.93 6.23-13.93 13.92 0 7.7 6.27 13.93 13.93 13.93z"/><path id="C" d="M5670.63 168.45a56.6 56.6 0 0 0 56.6 56.6c31.29 0 56.64-25.34 56.64-56.6 0-31.29-25.35-56.64-56.64-56.64-31.26 0-56.6 25.35-56.6 56.64z"/><path id="D" d="M4883.75 6992.8h1629.5c29.68 0 53.74-24.06 53.74-53.74 0-29.69-24.06-53.74-53.74-53.74h-1629.5c-29.69 0-53.74 24.05-53.74 53.74 0 29.68 24.05 53.74 53.74 53.74z"/></defs></svg>