<svg xmlns="http://www.w3.org/2000/svg" width="251" height="157"  stroke="#000" stroke-linecap="round" stroke-linejoin="round" fill="#fff" fill-rule="evenodd"><style><![CDATA[.B{fill-rule:nonzero}.C{fill:#326ab2}.D{fill:#3b59a5}.E{fill:#15a163}.F{fill:#327a50}.G{fill:#453541}.H{fill:#faaa3d}.I{fill:#fefefe}.J{fill:#f47e3f}.K{fill:#f4816b}.L{fill:#fffbec}.M{fill:#ef494f}.N{fill:#883d37}.O{fill:#ef4e4b}.P{fill:#d13a43}.Q{fill:#a7533d}.R{fill:#efbc5a}]]></style><g stroke="none" class="B"><g class="L"><path d="M129 35c-10-2-20-6-28-12C88 14 61-2 36 6 1 17 1 48 10 65s74 66 158 58c74-7 89-87 49-102-35-13-46 20-88 14zm13-8c1 3-1 5-3 6-3 1-5-1-6-3s0-5 3-6c2-1 5 1 6 3zm25 104c0 2-1 3-3 3-1 0-3-1-3-3 0-1 2-2 3-2 2 0 3 1 3 2zM150 30c0 2-1 3-2 4-2 0-3 0-4-2 0-1 0-3 2-3 1-1 3 0 4 1z"/><path d="M18 79c0 2-2 3-3 3-2 0-3-1-3-3 0-1 1-2 3-2 1 0 3 1 3 2zm233-23c0 2-1 3-3 3s-3-1-3-3c0-1 1-2 3-2s3 1 3 2zm-7-33c0 7-5 12-11 12-7 0-12-5-12-12 0-6 5-11 12-11 6 0 11 5 11 11z"/></g><path d="M244 21c0 7-5 12-12 12-6 0-11-5-11-12 0-6 5-11 11-11 7 0 12 5 12 11z" class="C"/><path d="M232 30a8.96 8.96 0 0 1-9-9 8.96 8.96 0 1 1 18 0 8.96 8.96 0 0 1-9 9z" class="I"/><path d="M241 21v1a8.96 8.96 0 1 0-18 0v-1a8.96 8.96 0 1 1 18 0z" class="L"/><path d="M233 23v-1l-5-6 5 6 5-2-5 3z" class="N"/><path d="M201 153c0 2-36 3-82 3-45 0-82-1-82-3s37-3 82-3c46 0 82 1 82 3z" class="L"/><path d="M142 64h0zm8-17c0 2-1 4-2 6 0 1-1 2-1 3-1 1-1 2-2 3v1l-2 2v1l-1 1h-1s0 1-1 1-2 0-3 1h-3l-4 1c-2 0-4 1-7 1h-3l-4 1v8h8c2-1 5-1 7-1 3 0 6-1 8-1 1-1 3-1 4-1s2-1 2-1c1 0 2-1 3-1 0-1 1-1 1-1v-1h1v-1l1-1c1-1 1-1 1-2 1 0 1-1 1-1l2-2c0-1 0-2 1-2 0-1 1-2 1-4 1-2 2-4 3-7-3-1-6-2-10-3z" class="E"/><g class="F"><path d="M145 66c-1-2-2-3-3-3v1s1 1 3 2z"/><path d="M144 64h0s-1-1-2-1v1h2zm-23 13h0V67h-1l1 10z"/><path d="M116 75h5v-1l-5 1zm2-3v1h1v-1h-1z"/></g><path d="M142 130h36c1 0 1-1 1-2 0 0 0-1-1-1h-36l-1 1c0 1 1 2 1 2z" class="J"/><g class="H"><path d="M140 153s1 0 1-1l6-47h27l6 47v1h1c1 0 2-1 2-2l-7-48s0-1-1-1h-29c-1 0-1 1-2 1l-6 48v2h2z"/><path d="M154 104h19c6 0 12-4 13-9 1-8 2-16 1-23 0-8-4-15-10-20 0 0-4 16 1 39-2 8-24 13-24 13z"/></g><path d="M120 86c2-2 35-10 46-7 1 2-14 12-18 18-14 2-22 7-22 7s-5 11-8 16c-3 4-9 16-9 16l-8-4s13-40 19-46z" class="P"/><g class="M"><path d="M111 131h1l-9-4v1l8 3z"/><path d="M109 130h1s0-2 5-9c5-8 10-20 10-21 0 0-6 12-11 21l-5 9z"/></g><path d="M108 135l-5 7-6-2 5-8z" class="K"/><path d="M80 143l21 10c0-1 1-1 1-1 1-2 2-5 2-7v-2c1-1 0-1 0-1-3 1-4-3-6-3 0 0-1 0-3 1-3 1-6 0-9 0-4 0-5 1-6 2v1z" class="E"/><g class="F"><path d="M80 143l21 10c0-1 1-1 1-1l-22-10v1z"/><path d="M99 152h0c0-1 0-3 1-4 1-2 3-3 4-3v-1c-1 0-3 1-5 4v4zm-5-11h1l-2-1 1 1zm2 0h1c0-1 0-1-1-1l-1-1v1l1 1zm-3 0l-1-1h-1l2 1zm-2 0c0 1 0 1 0 0h0l-1-1v1h1zm-2 1s1 0 1-1l-2-1v1h1v1zm-2-1h1l-1-1h-1l1 1z"/></g><path d="M148 83c-1 6 17 15 21 11 10-10 11-25 11-33v-8c1-6 2-13-1-15-2-1-4-1-6-2h-4l-7 1s-6 0-7 1-2 4-5 8c-2 3-3 7-1 11s1 2 1 8c0 7-2 15-2 18z" class="E"/><path d="M148 67h0v-1l1-6c-2-3-2-6-2-6l2 6h1l-2 6v1zm18-19l-1 4s-7-1-11-1l1-4s6 0 11 1z" class="F"/><path d="M162 50c-1 0-1 1-2 1s-2 0-2-1c-2-2 1-12 1-12s0-1 0 0h1c-1 0-1 2-2 5-1 4-1 6 0 7 1 0 1 1 2 0 4-1 9-14 9-14 0 1-3 11-7 14z" class="I"/><path d="M167 95c6-9 9-19 10-27s0-15 0-15h1s0 7-1 15c0 5-1 10-3 14-2 5-4 9-7 13h0zm-3-13h0-1c-3-4-7-7-10-8s-5-1-5-1v-1l6 2c2 1 7 3 10 8zm-1-8h-1s-5-3-10-3c5-1 10 2 11 2v1z" class="F"/><g class="G"><path d="M163 33s5-2 6-7c0-5-1-8-3-10-1-2-5-4-9-2-5 1-8 4-8 8 0 8 7 16 14 11z"/><path d="M159 14s-1-4 3-6c5-3 9 1 9 4 1 4-3 8-7 6-3-1-5-4-5-4z"/></g><path d="M153 28s-2-1-2 1 1 5 3 3l-1-4z" fill="#f16459"/><path d="M152 34h1c1 1 3 1 4-1 0 0 2-3-2-7 0 0-3 0-4 2-1 0-1 0-1 1 0 2 1 4 2 5z" class="C"/><path d="M152 34l1 1c-2-3-2-6-3-7v1c0 1 1 3 2 5z" class="D"/><path d="M159 35l2 5s3 2 9-4c-2-2-4-4-4-6l-1 1v1l-6 3z" class="K"/><path d="M159 35l1 2c1-1 4-3 5-6-2 2-4 3-6 4z" class="G"/><path d="M151 29l1 1c1 3 2 5 2 5 5 2 11-5 12-5h0v-1c-1-3-2-5-3-8-1-2-3-4-6-4-2 0-4 2-5 3-2 1-3 4-1 8v1z" class="K"/><path d="M156 31h-2v-1c3 1 4-2 4-2s0 2-2 3zm-1-9v1c1 1 2-1 3 0 0 0 0-2-3-1z" class="G"/><path d="M158 27c0 1 1 1 2 0 1 0 1 0 1-1h-2l-1 1z" fill="#f16459"/><path d="M152 30h0v-1h2c0 1-1 1-2 1z" fill="#f1685d"/><path d="M157 25v1c1 0 1-1 1-1l-1-1v1zm-5 2h1v-1h-1v1zm3 1h-1v-3h1v2h1l-1 1zm9 0s1 1 2 1h0v-1s-1 1-2 0z" class="G"/><path d="M163 25s1-3 3-2c2 2 1 7-2 6l-1-4z" class="K"/><g class="G"><path d="M164 28h0c0-3 1-4 1-4h0s-1 2 0 4h-1z"/><path d="M166 27c-1 0-1-1-1 0h-1v-1h2v1zm-4-8s-1 3-3 3c-1 0 0-3 0-3s-3 4-5 3c-1 0 1-2 1-2s-2 3-4 4c-2 0-1-3-1-3s0 4-1 4-2-5 1-7c3-3 11-5 12 1z"/><path d="M161 21s1 5 2 5c1-1 2-3-1-7l-1 2zm-9 3h1c0 1-2 1-3 3 0 0-1-2 2-3z"/></g><g class="I"><path d="M148 29l3-1-3 1zm7-3c-1-1 0-2 0-3h1l1-1c1 0 2 1 3 2h0v2c0 1-1 1-2 2h0c-1 0-3-1-3-2zm-1 0h0l2 2h2c1 0 1-1 2-1v-1c1 0 1-1 0-2v-1c-1-1-2-1-4-1h0l-1 1c-1 1-1 1-1 2v1z"/><path d="M149 25h1s0-1 1-1c0 0 1 0 1 1 0 0 1 0 1 1h1c0 1 0 2-1 3l-1 1h-2c-1-1-1-1-1-2-1-1 0-2 0-3zm-1 3c1 1 1 2 2 2h2c1 0 1 0 1-1 1-1 1-2 1-3h0v-1c-1 0-1 0-2-1h-2l-1 1c-1 0-1 2-1 3zm17-5h0c-2-2-5 0-5 0h1s2-2 3 0h1z"/><path d="M153 26c1-1 2-1 2-1-1 0-2 0-2 1z"/></g><path d="M165 30c2 0 3-1 4-1v-1c2-1 1-5 0-6-1 0-1-1-2-1-2 0-4 1-4 1-1 6 2 8 2 8z" class="C"/><path d="M169 29v-1c-2-3-2-5-1-7h-1c0 2 0 5 2 8z" class="D"/><path d="M149 20v-2c1-2 2-3 4-4s4-1 6 0c0 1 1 1 1 1 1 1 1 2 2 2 2 2 2 5 2 5h1s-2-6-6-8c-2-1-4-1-6 0-2 0-4 2-4 3-1 2-1 3-1 5 0-1 0-1 1-2zm0 5c0 2 1 3 1 3h0s0-2-1-4v1z" class="I"/><path d="M178 78s11 23-20 25c-14 0-20-2-20-2s-1 13-1 18l-3 14h-8s-4-38 3-42 19-7 35-9c5-1 13-3 14-4z" class="M"/><g class="P"><path d="M133 128h1c1-6 1-13 2-19 0-5 0-10 1-10 0-1 2 0 5 0 5 1 14 2 23 0 5-1 8-3 10-7 4-6 2-14 2-14s1 8-2 14c-2 3-6 5-11 7-8 2-16 0-22-1h-6c0 1-1 4-1 11 0 6-1 13-2 19h0z"/><path d="M125 129h10v-1h-10v1z"/></g><path d="M134 133l-2 11h-6v-11z" class="K"/><path d="M111 153h23v-1c0-2-1-5-1-7v-1c0-2-1-2-1-2-3 2-5-1-7 0 0 0 0 1-2 2-2 2-5 3-8 4s-4 3-4 4v1z" class="E"/><g class="F"><path d="M111 153h23v-1h-23v1z"/><path d="M131 153h0c0-1-1-2-1-4s2-4 3-4v-1c-1 1-3 2-3 5 0 2 0 3 1 4zm-8-8l-2-1v1h2zm1-1c1 0 0-1 0-1h-2s0 1 1 1h1zm-3 2h1s0-1-1-1h-1v1h1zm-1 1v-1h-2l2 1zm-2 1c1 0 1-1 1-1l-2-1v1l1 1zm-1 0v-1h-2v1h2z"/></g><path d="M136 69s-7-3-10-2v5s4 0 5 1c1 0 1 2 5 3v-7z" class="K"/><path d="M168 42h0v7c0 2-1 4-1 6 0 1 0 1-1 2v1c0 1-1 1-1 2v1l-1 1c-1 1-1 1-1 2l-1 1v1h-2c-1 1-2 1-3 1-3 1-5 1-7 1-3 1-5 1-8 1h-7v8h2l2 1h4c2 0 5-1 7-1h8c2-1 3-1 5-1 0-1 1-1 2-1 0 0 1 0 1-1 1 0 1 0 2-1 1 0 1-1 1-1h0l1-1s1-1 1-2l1-1c1-1 1-2 1-2 2-3 3-5 4-8 0-3 1-6 1-8 1-2 1-3 1-5v-4l-11 1z" class="E"/><g class="F"><path d="M164 69h1c-2-2-3-4-3-4h-1v1s2 1 3 3z"/><path d="M164 67v-1s-1-1-3-1v1c1 0 3 1 3 1h0z"/><path d="M141 69c12-2 20-4 20-4 0-1 8-15 8-21 0 6-8 19-8 20-1 1-9 3-20 4v1z"/><path d="M169 47l-1-2 1 2zm-29 30h1v-8h-1v8zm-5-2h0zm2-3v1h1v-1h-1z"/></g><path d="M103 76h46c0-2-1-3-2-3h-44v3z" fill="#66413b"/><path d="M88 50l6 24c0 1 0 1 1 1h35c1 0 2-1 2-2l-6-24c0-1-1-1-1-1H89s-1 1-1 2z" fill="#4c2d2e"/><path d="M100 60c0 1-2 3-2 3s-4-2-4-3c0-2 2-3 3-1 1-2 3-1 3 1z" class="M"/><path d="M98 71h1v-1h-1v1zm-3-1v-2h1v-1h1l1 1h1l-1-1h2v1h1v2h-1l1 1h1v1h-1v2h-1l-1-2h-1l1 2h-2v-2h-1v-1h1l-1-1h-1z" class="H"/><path d="M123 48l6 27h1c1 0 1-1 1-2l-5-24c-1-1-1-1-2-1h-1zm-18 14c0 2 2 3 3 3s3-1 2-3c0-1-1-2-3-2-1 0-2 1-2 2z" fill="#66413b"/><path d="M54 77v2c0 1 1 2 2 2h140c1 0 2-1 2-2v-2c0-1-1-2-2-2H56c-1 0-2 1-2 2z" class="Q"/><path d="M61 86h126c2 0 4-2 4-4v-1L57 82c0 2 2 4 4 4zm-1 27h126v-4H60z" class="N"/><path d="M192 154l-16-68h5l17 68zm-138 0l16-68h-6l-16 68z" class="Q"/><path d="M54 79h144v-1H54z" class="N"/><path d="M71 76v-1l-9-44v-1l20-15h1l18 6v1h-1l-17-5-19 14 8 44v1h-1z" class="H"/><path d="M64 76s2-5 7-5 7 5 7 5H64zm30-37l1-14c-1-3 1-5 3-6h1c2 0 4 1 4 3h1l9 11c1 3-18 9-19 6z" class="C"/><path d="M113 32c-2 2-7 3-8 4-2 0-6 2-10 2v-1h2c2-1 5-1 7-2 3-1 6-2 8-3 0-1 0-1 1-1v1z" class="D"/><path d="M67 31c0 2-1 3-3 3s-3-1-3-3 1-3 3-3 3 1 3 3z" class="C"/><path d="M64 32c-1 0-2 0-2-1s1-2 2-2 1 1 1 2 0 1-1 1z" class="D"/><path d="M86 15c0 2-1 3-3 3s-3-1-3-3 1-3 3-3 3 1 3 3z" class="C"/><path d="M83 17c-1 0-2 0-2-1s1-2 2-2 1 1 1 2 0 1-1 1zm104 49V53h1v13h-1z" class="D"/><path d="M193 65l-1 1-2 9h-5l-3-10z" class="M"/><path d="M192 68v1h-9v-1zm-1 5v1h-6l-1-1z" class="P"/><path d="M189 56c-1 0-1 0-1-1 1-1 5-5 6-4 2 3-3 4-5 5z" class="C"/><path d="M192 53l-4 2 4-2z" class="D"/><path d="M188 57c0 1-1 1-1 1-2-1-8-2-6-5 2-1 6 3 7 4z" class="C"/><path d="M188 57l-4-2 4 2z" class="D"/><path d="M188 53h0-1c-1-2-4-7-1-7s2 6 2 7z" class="C"/><path d="M188 53l-1-4 1 4z" class="D"/><path d="M189 61c-1 0-1 0-1-1 1-1 5-5 6-4 2 3-3 4-5 5z" class="C"/><path d="M192 58l-4 2 4-2z" class="D"/><path d="M188 62c0 1-1 1-1 1-2-1-8-2-6-5 2-1 6 3 7 4z" class="C"/><path d="M188 62l-4-2 4 2z" class="D"/><path d="M189 65c-1 0-1 0-1-1 1-1 5-5 6-4 2 3-3 4-5 5z" class="C"/><path d="M192 62l-4 2 4-2z" class="D"/><path d="M88 62l-2 13h-6l-1-13z" class="E"/><path d="M87 66v3h-8v-3z" class="I"/><path d="M79 63h9v-2h-9z" class="F"/><path d="M87 60h-8c0-1 0-1 1-1h6c1 0 1 0 1 1h0z" class="E"/><path d="M59 15H45L43 1h14z" class="Q"/><path d="M43 1l-2 14h4z" class="N"/><path d="M46 14L44 2h12l2 12z" fill="#d6d0be"/><path d="M46 14L44 2h12l1 12z" class="I"/><path d="M55 4l1 9h-9l-1-9z" fill="#f9a53e"/><path d="M50 8s2-2 5-2l1 7-6-5z" class="F"/><path d="M46 6s3 0 5 2c3 2 5 4 5 4h-9l-1-6z" class="E"/><path d="M66 21H8l-1-3h60z" fill="#e0b29e"/><path d="M7 18h60v-3H7z" class="C"/><path d="M10 18l1 3h3l1-3zm53 0l-1 3h-3l-1-3z" class="D"/><path d="M31 12h1v-1H15c-1 0-1 0-1 1-1 0-1 1-1 1 0 1 1 2 2 2h17v-1h-1v-2z" class="M"/><path d="M32 12v3H16s-1-1-1-2v-1h17z" class="I"/><path d="M31 12h0-15 15zm0 1h0-15 15z" class="L"/><path d="M29 8h1V7H13c-1 0-1 0-1 1-1 0-1 0-1 1s1 2 2 2h17v-1h-1V8z" class="E"/><path d="M30 8v3H14s-1-1-1-2V8h17z" class="I"/><path d="M30 8h0-15 15zm0 1h0-15 15z" class="L"/><path d="M32 4h1V3H16c-1 0-1 0-1 1-1 0-1 0-1 1s1 2 2 2h17V6h-1V4z" class="C"/><path d="M33 3v3H17s-1-1-1-2V3h17z" class="I"/><path d="M33 4h0-15 15zm0 1h0-15 15zm14 148c0 2-10 3-23 3-12 0-22-1-22-3 0-1 10-3 22-3 13 0 23 2 23 3z" class="L"/><path d="M46 77l-6 76H9L4 77z" class="H"/><path d="M45 82L4 84v-4h41z" class="J"/><path d="M47 80H2c-1 0-1-1-1-1v-3c0-1 0-1 1-1h45s1 0 1 1v3l-1 1z" class="R"/><path d="M40 89l-1 18H9L8 89z" class="J"/><path d="M26 99l-1 1c-1 0-2-1-2-1 0-1 1-2 2-2 0 0 1 1 1 2z" class="H"/><path d="M40 111l-1 16H11l-1-16z" class="J"/><path d="M26 120l-1 1c-1 0-2-1-2-1 0-1 1-2 2-2 0 0 1 1 1 2z" class="H"/><path d="M38 132l-1 15H12l-1-15z" class="J"/><path d="M26 140l-1 1c-1 0-2-1-2-1 0-1 1-2 2-2 0 0 1 1 1 2z" class="H"/><path d="M20 75l2-15H7l2 15z" class="C"/><path d="M21 63h0H7zm0 2h0H7zm0 1v1H7v-1z" class="D"/><path d="M10 53s-3-4-5-1c-1 3 2 5 5 5 3 1 0-4 0-4zm7 3s3-3 4-1c2 3-1 5-4 5-2 0 0-4 0-4z" class="F"/><path d="M18 60v-8c0-2-2-4-4-4s-4 2-4 4v8h8z" class="E"/><path d="M33 73h-2l-3-18h2z" class="H"/><path d="M30 55l-2 1 1-3v1z" class="K"/><path d="M34 72l-3 1v-2h2z" class="G"/><path d="M33 73h-2v-1h2v1z" class="O"/><path d="M30 54h-1v-1z" class="G"/><path d="M31 71h2l-2 1zm-2-15l2 13-2-13zm1 0l2 13-2-13z" class="J"/><path d="M34 73h-2V55h2z" class="E"/><path d="M34 56h-2l1-3 1 1z" class="K"/><path d="M34 72h-2v-1h2z" class="G"/><path d="M34 74h-2v-1h2v1z" class="O"/><path d="M34 54h-1v-1z" class="G"/><path d="M32 71h2v1h-2zm1-15v13-13zm0 0v13h1V56h-1z" class="F"/><path d="M36 73h-2l2-18h3z" class="C"/><path d="M38 56l-2-1 2-2v1z" class="K"/><path d="M36 73l-2-1v-1h3z" class="G"/><path d="M36 74h-2v-1h2v1z" class="O"/><path d="M38 54h-1l1-1z" class="G"/><path d="M34 71h2v1l-2-1zm3-15l-2 13 2-13zm1 0l-2 13c0 1 0 0 0 0l2-13z" class="D"/><path d="M40 62l-2 13h-9l-2-13z" class="O"/><path d="M39 63v1H27v-1zm0 2v1H27v-1zm0 2v1H28v-1zm0 3H28zm-1 2v1H28v-1zm0 2v1h-9l-1-1z" fill="#c44041"/><path d="M248 154c0 1-11 2-24 2s-24-1-24-2 11-2 24-2 24 1 24 2z" class="L"/><path d="M238 136h-30v-2h31v2h-1z" class="J"/><path d="M210 107h28s1 0 1 1v3c0 1-1 1-1 1h-28c-1 0-1 0-1-1v-3c0-1 0-1 1-1z" class="R"/><path d="M223 94h-3s-13-28-9-32c4-5 10 10 12 32z" class="E"/><path d="M222 94h0l-9-28 9 28z" class="F"/><path d="M225 94h3s13-28 10-32c-5-5-11 10-13 32z" class="E"/><path d="M226 94h0l9-28-9 28z" class="F"/><path d="M225 94h-2c-5-25-3-47 2-43 6 4 0 43 0 43z" class="E"/><path d="M225 56l-1 38V56h1z" class="F"/><path d="M237 93l-5 14h-16l-5-14s0-1 1-1h24l1 1z" class="C"/><path d="M236 95v1h-25v-1zm-1 2v1h-23v-1zm-1 3h0-21z" class="D"/><path d="M219 112l-13 41h-2l8-41z" class="H"/><path d="M213 112h7l-1 3-7 1z" class="J"/><path d="M243 153h-2l-13-41h7v1z" class="H"/><path d="M235 113l-6 1-1-2h7z" class="J"/><path d="M238 131h-29c-1 0-1 0-1-1h0c0-1 0-1 1-1h29s1 0 1 1h0c0 1-1 1-1 1z" class="R"/></g></svg>