<svg xmlns="http://www.w3.org/2000/svg" width="836.26" height="519.42" viewBox="0 0 22344.53 13878.23"  shape-rendering="geometricPrecision" image-rendering="optimizeQuality" fill-rule="evenodd" xmlns:v="https://vecta.io/nano"><style><![CDATA[.Y{fill-rule:nonzero}.Z{fill:#326ab2}.a{fill:#3b59a5}.b{fill:#15a163}.c{fill:#327a50}.d{fill:#453541}.e{fill:#faaa3d}.f{fill:#fefefe}.g{fill:#f47e3f}.h{fill:#f4816b}.i{fill:#fffbec}.j{fill:#ef494f}.k{fill:#883d37}.l{fill:#ef4e4b}.m{fill:#d13a43}.n{fill:#a7533d}.o{fill:#efbc5a}]]></style><g class="Y i"><path d="M11455.69 3026.31c-929.12-131.75-1809.75-494.91-2569.64-1045.62-1135-822.52-3510.24-2222.15-5776.07-1524.99C-15.26 1417.35-29.24 4199.18 784.81 5710.32c814.07 1511.1 6586.82 5936.23 14070.71 5232.1 6696.98-630.07 8002.06-7842.25 4430.3-9147.29-3097.86-1131.89-4154.73 1752.18-7830.13 1231.19zm1094.24-697.17c71.89 221.2-49.2 458.79-270.4 530.64-221.24 71.86-458.79-49.2-530.65-270.39-71.89-221.2 49.2-458.79 270.4-530.65 221.2-71.85 458.79 49.2 530.65 270.4zm2276.51 9320.24c0 140.23-113.68 253.84-253.83 253.84-140.23 0-253.84-113.61-253.84-253.84 0-140.15 113.61-253.8 253.84-253.8a253.9 253.9 0 0 1 253.83 253.8zm-1577.39-9024.05c43.31 133.35-29.68 276.53-162.99 319.81-133.31 43.32-276.53-29.64-319.84-162.95-43.29-133.31 29.67-276.53 163.02-319.85 133.31-43.31 276.49 29.68 319.81 162.99z"/><path d="M1507.21 6988.97c0 140.16-113.65 253.84-253.84 253.84a253.9 253.9 0 0 1-253.83-253.84c0-140.22 113.64-253.83 253.83-253.83s253.84 113.61 253.84 253.83zm20837.32-2053.46c0 140.16-113.65 253.8-253.83 253.8-140.19 0-253.84-113.64-253.84-253.8 0-140.18 113.65-253.83 253.84-253.83 140.18 0 253.83 113.65 253.83 253.83zm-615.86-2949.77c0 561.53-455.26 1016.76-1016.75 1016.76-561.57 0-1016.76-455.23-1016.76-1016.76s455.19-1016.76 1016.76-1016.76c561.49 0 1016.75 455.23 1016.75 1016.76z"/></g><path d="M21728.67 1853.36c0 561.56-455.26 1016.75-1016.75 1016.75-561.57 0-1016.76-455.19-1016.76-1016.75 0-561.53 455.19-1016.73 1016.76-1016.73 561.49 0 1016.75 455.2 1016.75 1016.73z" class="Y Z"/><path d="M20711.92 2679.98c-455.8 0-826.59-370.83-826.59-826.59 0-455.79 370.79-826.58 826.59-826.58 455.75 0 826.55 370.79 826.55 826.58 0 455.76-370.8 826.59-826.55 826.59z" class="Y f"/><path d="M21538.5 1853.39c0 22.01-.93 43.82-2.57 65.31-33.46-425.37-390.28-761.32-824.02-761.32-433.82 0-790.61 335.95-824.03 761.32-1.71-21.49-2.57-43.29-2.57-65.31 0-455.83 370.76-826.58 826.59-826.58 455.75 0 826.58 370.75 826.58 826.58z" class="Y i"/><path d="M20711.92 1939.39c-6.38 0-12.61-2.99-16.6-8.33l-405.5-545.93c-6.8-9.16-4.91-22.13 4.28-28.93 9.12-6.84 22.09-4.91 28.92 4.28l395.66 532.67 449.66-197.37a20.7 20.7 0 0 1 27.26 10.62 20.7 20.7 0 0 1-10.65 27.25l-473.03 205.74z" class="Y k"/><path d="M17875.96 13614.47c0 145.67-3288.42 263.77-7344.91 263.77-4056.48 0-7344.95-118.09-7344.95-263.77 0-145.63 3288.46-263.71 7344.95-263.71 4056.48 0 7344.91 118.07 7344.91 263.71z" class="Y i"/><path d="M12601.51 5601.07l-3.68 2.75 1.25-1.25 5.13-4.88c5.7-4.45 3.13-1.21-2.71 3.38zm722.23-1491.39c-58.74 187.5-128.25 372.47-206.49 553.23-40.86 92.51-83.04 184.4-127.79 274.96-45.42 90.17-92.48 179.55-142.43 267.09-12.08 22.16-25.15 43.68-37.8 65.44l-38.55 64.98-80.33 127.79-41.32 63.13-54.8 80.05c-14.81 10.16-39.48 24.2-67.93 37.49-34.02 16.1-73.82 32.13-116 47.34-84.79 30.39-179.02 57.71-275.91 82.65-97.09 24.87-197.51 47.14-299.33 67.52l-309.41 56.78c-208.37 34.59-419.88 64.62-632.43 91.06l-319.45 37.59-317.32 31.99 34.16 722.41 170.5-3.59 167.87-6.13 335.3-17.07c223.59-14.15 447.57-32.6 672.93-58.57 225.65-25.79 452.05-58.25 684.59-106.27 116.46-24.19 234.31-52.54 357.43-91.2 61.7-19.49 124.7-41.46 191-69.26 66.48-28.26 136.02-61.03 214.14-111.9 39.36-26.22 80.63-56.25 125.4-99.15 10.91-10.29 22.52-22.37 33.67-34.34 11.61-12.94 22.8-25.62 34.45-40.62l32.67-43.28 53.19-71.26c17.63-23.83 34.45-48.2 51.69-72.29 34.77-47.99 67.37-97.36 100.57-146.38 16.63-24.52 32.23-49.63 48.38-74.39 15.89-24.94 32.23-49.63 47.45-74.96l46.24-75.63 44.71-76.53c30.06-50.88 57.93-102.88 86.61-154.51 55.75-104.03 109.16-209.23 158.85-316.14 93.31-201.93 176.75-408.14 249.2-618.93-291.74-101.6-578.21-219.13-873.72-309.12z" class="Y b"/><g class="c Y"><path d="M12856.7 5875.92a26.8 26.8 0 0 0 26.61-43.43c-118.2-139.55-234.13-237.91-239-242.04a26.9 26.9 0 0 0-37.8 3.2c-9.55 11.33-8.09 28.26 3.2 37.8 1.14.97 117.53 99.72 232.67 235.67a27.2 27.2 0 0 0 14.32 8.8z"/><path d="M12820.9 5682.8c13.53 3.17 27.4-4.56 31.63-18.03a26.8 26.8 0 0 0-17.45-33.67c-1-.28-101.5-31.99-187.64-52.3a26.8 26.8 0 0 0-32.24 19.95c-3.38 14.39 5.52 28.82 19.95 32.24 84.22 19.84 182.8 50.91 183.75 51.26l2 .54zm-2103.27 1160.72l7.7.64a26.8 26.8 0 0 0 25.23-28.29l-49.17-849.5a26.8 26.8 0 0 0-28.29-25.23c-14.78.83-26.07 13.54-25.23 28.33l49.13 849.5c.72 12.11 9.37 21.9 20.63 24.55z"/><path d="M10301.2 6632.36l8.16.65 389.89-29.29c14.78-1.07 25.86-13.93 24.75-28.71-1.1-14.75-14-25.87-28.75-24.73l-389.89 29.26c-14.78 1.1-25.82 13.97-24.75 28.71.92 11.97 9.51 21.52 20.59 24.12zm128.21-268.65c-14.43 31.03-.93 67.83 30.1 82.26 31.06 14.36 67.87.86 82.29-30.17 14.36-31.03.86-67.83-30.17-82.26a62 62 0 0 0-82.22 30.17z"/></g><path d="M12676.47 11542.15h3164.56c73.99 0 134.02-60 134.02-134.02a134.1 134.1 0 0 0-134.02-134.06h-3164.56a134.1 134.1 0 0 0-134.02 134.06c0 74.02 60.03 134.02 134.02 134.02z" class="Y g"/><g class="e Y"><path d="M12385.3 13589.24c66.16 0 123.69-48.91 132.71-116.25l560.89-4187.84h2347.02l552.12 4187.55a134 134 0 0 0 150.38 115.36c73.43-9.66 125.05-76.99 115.4-150.41l-567.48-4304.05a134.1 134.1 0 0 0-132.89-116.53h-2581.86c-67.16 0-123.94 49.7-132.85 116.25l-576.43 4304.08a134 134 0 0 0 115.04 150.62c6.05.86 12.04 1.21 17.96 1.21z"/><path d="M13709.36 9151.14h1676.84c531.25 0 1100.11-290.74 1181.66-815.66 109.09-701.92 136.06-1381.77 105.6-2005.58-34.42-705.5-371.33-1361.87-925.95-1799.28 0 0-334.95 1459.7 86.25 3474.36-160.88 765.57-2124.4 1146.15-2124.4 1146.15z"/></g><path d="M10654.85 7571.63c185.78-182.87 3144.57-930.9 4117.9-659.11 111.51 214.65-1239.57 1097.66-1588.27 1600.66-1279.38 209.08-1993.4 639.44-1993.4 639.44s-453.66 1048.32-723.2 1433.12c-269.58 384.76-783.23 1452.63-783.23 1452.63l-722.27-343.17s1186.66-3625.63 1692.47-4123.57z" class="Y m"/><g class="j Y"><path d="M9861.36 11624.27c10.36 0 20.24-6.06 24.61-16.17 5.88-13.61-.35-29.37-13.96-35.23l-724.95-313.72a26.8 26.8 0 0 0-21.3 49.2l724.98 313.71a26.6 26.6 0 0 0 10.62 2.21z"/><path d="M9684.62 11547.81c10.3 0 20.1-5.95 24.55-15.99 2.17-4.85 59.04-128.55 475.25-810.27 453.41-742.65 908.24-1812.78 912.76-1823.51 5.77-13.64-.58-29.39-14.22-35.12-13.6-5.81-29.36.58-35.12 14.25-4.52 10.69-457.86 1077.18-909.21 1816.45-420.77 689.26-476.34 811.62-478.48 816.5-6.02 13.54.1 29.36 13.64 35.34a26.4 26.4 0 0 0 10.83 2.35z"/></g><path d="M9585.12 11991.1l-464.17 661.98-499.01-220.86 404.74-706.46z" class="Y h"/><path d="M7041.66 12675.29l1887.38 835.4c25.33-19.32 48.98-52.09 71.22-93.84 82.44-154.45 144.35-431.76 190.52-603.44l15.43-55.49c8.4-28.41 16.18-51.7 23.41-68.08 58.03-131.1-67.94-159.99-67.94-159.99-273.88 102.74-365.84-273.85-532.88-237.63 0 0-71.61 14.93-281.17 83.39-209.4 68.55-503.71 44.69-760.82 39.41-331.89-6.88-463.06 74.92-514.22 148.59-40.51 58.38-30.92 111.68-30.92 111.68z" class="Y b"/><g class="c Y"><path d="M7041.66 12675.29l1887.38 835.4c25.33-19.32 48.98-52.09 71.22-93.84l-1927.68-853.24c-40.51 58.38-30.92 111.68-30.92 111.68z"/><path d="M8736.48 13425.47l56.04 24.79c-27.61-88.67-36.55-209.94 32.36-347.1 91.62-182.43 259.17-258.65 365.9-289.75l15.43-55.49c-112.16 26.92-315.43 104.66-425.3 323.13-65.76 130.99-66.04 250.33-44.42 344.42zm-406.14-924.35c13.97 6.16 30.86 2.34 40.62-10.28a34 34 0 0 0-6.02-47.72l-104.95-81.44a34 34 0 0 0-47.71 5.99c-11.5 14.84-8.83 36.22 6.03 47.74l104.94 81.44 7.09 4.27zm160.61-46.27c13.97 6.16 30.85 2.3 40.61-10.3 11.54-14.86 8.84-36.19-6.02-47.71l-104.91-81.48a34.01 34.01 0 1 0-41.72 53.73l104.95 81.49 7.09 4.27zm-308.85 62.59a34 34 0 0 0 40.62-10.26c11.54-14.81 8.84-36.16-6.02-47.7l-104.91-81.49a34.03 34.03 0 1 0-41.72 53.77l104.94 81.44 7.09 4.24zm-147.05 13.72c13.97 6.2 30.85 2.34 40.61-10.26a34 34 0 0 0-6.02-47.74l-104.91-81.44a34.01 34.01 0 1 0-41.72 53.72l104.95 81.48 7.09 4.24zm-155.51 4.03a34 34 0 0 0 34.59-58l-104.94-81.45a34 34 0 0 0-47.71 6.03c-11.51 14.8-8.84 36.18 6.02 47.69l104.91 81.49 7.13 4.24zm-162.42-9.73c13.97 6.16 30.85 2.31 40.62-10.3a34 34 0 0 0-6.03-47.71l-104.95-81.44a34 34 0 0 0-47.7 5.98c-11.51 14.87-8.84 36.2 6.02 47.74l104.95 81.46 7.09 4.27z"/></g><path d="M13102.12 7375.26c-47.74 526.76 1525.85 1328.34 1859.48 979.71 880.21-919.85 1000.55-2303.91 973.62-2981.08-3.31-84.51-1.07-176 4.78-271.61 8.77-140.83 25.19-290.96 43.07-442.05 67.26-568.02 154.65-1150.21-78.2-1307.78-209.05-141.5-415.29-123.3-588.46-179.37-107.35-34.81-220.17-48.96-332.85-41.22l-655.48 45.21s-475 41.39-589.5 112.75c-114.43 71.36-197.44 418.57-418.14 725.34-220.7 306.74-288.53 626.34-129.64 994.52 138.23 320.28 118.81 201.4 100.46 707.67-22.48 620.25-160.17 1338.67-189.14 1657.91z" class="Y b"/><path d="M13190.15 5865.8l-3.03-.25c-9.72-1.67-16.21-10.86-14.53-20.55l100.32-587.37c-161.49-232.45-187.49-506.67-188.53-518.31-.85-9.8 6.38-18.42 16.18-19.31 9.91-.75 18.45 6.37 19.31 16.17.25 2.79 26.79 281.31 186.43 506.92 2.71 3.89 3.78 8.65 2.99 13.29l-101.6 594.6a17.8 17.8 0 0 1-17.53 14.81zm1586.41-1688.76l-69.86 409.09s-618.21-73.81-1029.47-85.68l96.75-377.77s595.34-5.21 1002.58 54.36z" class="c Y"/><path d="M14404.81 4347.41c-51.02 40.39-102.96 68.68-155.23 80.87-85.54 19.94-152.3 4.02-198.5-47.38-203.64-226.58 97.25-1098.19 110.19-1135.22a23 23 0 0 1 29.29-14.14c12.01 4.2 18.38 17.31 14.14 29.32-.75 2.21-78.16 225.16-130.52 471.62-68.05 320.24-64.21 533.85 11.15 617.64 34.63 38.55 84.93 49.41 153.83 33.35 398.43-92.95 806.88-1260.79 810.94-1272.59 4.14-11.97 17.25-18.35 29.26-14.21a23 23 0 0 1 14.25 29.28c-14.9 43.04-327.19 935.25-688.79 1221.47z" class="Y f"/><path d="M14840.27 8377.24c-8.23 6.51-20.13 6.74-28.64-.11a23 23 0 0 1-3.56-32.38c588.85-733.72 810.27-1698.92 892.27-2379.41 89-738.06 37.73-1308.96 37.19-1314.66-1.13-12.65 8.16-23.87 20.81-25.04 12.61-1.18 23.86 8.12 25.04 20.76.54 5.74 52.22 581.56-37.33 1324.49-52.62 436.48-142.97 844.65-268.55 1213.2-157.17 461.32-370.37 861.5-633.53 1189.48l-3.71 3.67zm-300.3-1164.64l-.54.43c-10.15 7.58-24.61 5.48-32.2-4.71-287.85-385.4-641.51-585.3-887.51-685.08-266.23-108.01-465.98-125.08-467.94-125.26a23 23 0 0 1-21.13-24.76c1.03-12.68 12.15-22.16 24.79-21.13 8.41.68 208.84 17.88 481.55 128.5 251.42 102 612.91 306.27 907.1 700.23 7.48 10.01 5.59 24.08-4.13 31.77zm-97.11-747.14a23.1 23.1 0 0 1-24.19 2.78c-4.92-2.35-497.65-234-916.36-209.52-12.72.72-23.62-8.94-24.34-21.66a23 23 0 0 1 21.63-24.3c430.64-25.15 918.29 204.13 938.84 213.9 11.47 5.45 16.35 19.2 10.91 30.67a23 23 0 0 1-6.49 8.13z" class="c Y"/><g class="d Y"><path d="M14506.49 2777.67s434.52-150.2 493.95-619.89c56.57-447.24-68.69-656.36-227.75-869.98-119.85-160.85-452.8-352.98-858.37-206.49-409.51 147.88-693.02 411.12-688.39 765.06 8.65 662.36 649.67 1377.29 1280.57 931.29z"/><path d="M14149.73 1172.12s-82.22-385.25 292.63-587.29c374.92-201.99 770.94 109.55 798.94 408.98 28 299.39-312.75 712.23-616.82 546.89-304.1-165.38-474.75-368.59-474.75-368.59z"/></g><path d="M13571.85 2447.34s-162.49-93.37-178.24 64.38c-15.81 157.75 132.03 412.19 289.24 305.06l-111-369.44z" fill="#f16459" class="Y"/><path d="M13521.65 2941.01c23.97 15.25 49.78 27.64 76.95 36.62 103.56 34.13 228.33 18.21 362.67-86.17 0 0 145.85-280.56-211.9-666.06 0 0-269.23-21.94-388.5 159.68-13.18 19.91-24.58 42.46-33.49 67.76a347.1 347.1 0 0 0-13.6 49.51c-28.65 141.61 57.25 344.04 207.87 438.66z" class="Y Z"/><path d="M13521.65 2941.01c23.97 15.25 49.78 27.64 76.95 36.62-177.95-246.17-225.33-491.63-237.73-592.56-13.18 19.91-24.58 42.46-33.49 67.76 20.28 113.03 70.26 296.08 194.27 488.18z" class="Y a"/><path d="M14108.76 3033.96l152.13 451.8s327.33 195.09 790.99-363.42c-124.69-168.97-298.4-383.59-305.1-542.01 0 0-37.48 30.75-92.23 97.37-10.69 13.01-25.23 24.04-39.19 36.98-123.84 113.93-316.71 266.87-506.6 319.28z" class="Y h"/><path d="M14108.76 3033.96l55.57 176.24c145.89-92.63 400.08-282.31 490.22-532.5a2791.5 2791.5 0 0 1-39.19 36.98c-123.84 113.93-316.71 266.87-506.6 319.28z" class="Y d"/><path d="M13457.73 2488.1l40.19 108.38c96.75 254.97 165.15 389.13 249.84 430.71 428.11 209.8 980.95-424.9 998.73-445.35l.42-.58c-3.99-31.17-8.62-61.91-13.68-92.06-42.54-255.76-120.26-479.55-221.05-682.37-68.9-227.43-276.92-387.32-514.47-388.07-246.24-.57-406.81 165.52-511.02 243.96-157.25 118.46-185.97 387.4-69.29 713.69l40.32 111.69z" class="Y h"/><path d="M13862.24 2674.99c-47.42 15.56-102.04 18.63-163.56-.61-9.02-2.82-14.01-12.36-11.19-21.38a17.1 17.1 0 0 1 21.34-11.19c220.06 68.83 343.69-190.03 344.9-192.66 3.95-8.54 14.14-12.22 22.65-8.23a17 17 0 0 1 8.23 22.62c-1 2.21-78.45 164.27-222.37 211.44zm-52.91-775.18s-62.38 29.78-18.24 80.83c44.1 51.09 150.3-61.1 282.62 14.61 0 0-11.91-156.51-264.38-95.44z" class="d Y"/><path d="M13997.11 2354.76c10.9 30.17 81.9 32.16 158.54 4.48 76.7-27.68 130.03-74.6 119.12-104.77-10.9-30.14-81.9-32.2-158.57-4.49-76.66 27.68-130 74.61-119.09 104.78z" fill="#f16459" class="Y"/><path d="M13497.93 2596.48h0l-40.19-108.38c31.64-10.22 61.78-15.28 86.46-15.28 31.25 0 53.72 8.08 59.46 24 10.26 28.4-36.19 71.65-105.73 99.65z" fill="#f1685d" class="Y"/><path d="M13914.14 2187.35c15 41.42 45.92 68.22 69.11 59.88 23.19-8.41 29.85-48.78 14.93-90.24-15-41.43-45.96-68.26-69.11-59.88-23.2 8.4-29.89 48.77-14.93 90.24zm-410.05 148.1c14.97 41.42 45.89 68.22 69.11 59.84 23.16-8.37 29.85-48.74 14.9-90.2-15.01-41.43-45.93-68.26-69.11-59.88-23.2 8.37-29.86 48.77-14.9 90.24zm239.48 101.81c-19.91 7.16-34.53 8.69-35.77 8.8a18.2 18.2 0 0 1-13.86-4.55 18.1 18.1 0 0 1-5.99-13.29l-2.17-203.57c-.11-10.01 7.91-18.17 17.91-18.31 10.01-.11 18.24 7.91 18.35 17.96l1.92 181.19c17.46-5.31 43.32-16.67 64.42-40.22 6.65-7.44 18.17-8.09 25.61-1.38a18.1 18.1 0 0 1 1.42 25.58c-23.26 25.89-50.55 40.11-71.85 47.81zm807.31 25.12c3.71 3.92 103.81 110.62 195.58 119.42l.18.04.25-.58a2480.3 2480.3 0 0 0-13.65-92.06c-3.13.58-87.21 15.36-182.36-26.82z" class="d Y"/><path d="M14522.88 2147.09s85.35-282.48 269.94-151.37c152.12 108.01 98.61 552.02-145.88 494.8l-124.05-343.43z" class="Y h"/><g class="d Y"><path d="M14645.35 2415.28l-1.92.61c-9.72 2.35-19.52-3.64-21.87-13.36-47.67-196.79 87.96-319.91 93.77-325.04 7.48-6.67 18.99-5.99 25.61 1.49 6.63 7.48 5.96 18.96-1.52 25.58-5.1 4.59-125.05 114.29-82.62 289.43 2.17 9.08-2.85 18.2-11.44 21.3z"/><path d="M14767.16 2254.47a18.2 18.2 0 0 1-12.12.07c-19.17-6.67-74.81-19.99-101.49-1.86-8.3 5.64-19.56 3.49-25.19-4.77a18.1 18.1 0 0 1 4.81-25.19c46.52-31.64 125.04-5.52 133.85-2.42 9.4 3.27 14.42 13.64 11.11 23.09a18.2 18.2 0 0 1-10.97 11.08zm-301.07-681.67s-152.13 288.86-266.09 272.19c-114-16.67-27.44-259.97-27.44-259.97s-270.4 303.46-420.63 291.43c-150.24-12.05 24.61-252.52 24.61-252.52s-174.1 320.91-325.04 360.14c-150.94 39.22-71.4-197.69-71.4-197.69s-40.32 306.56-136.44 316.18c-96.16 9.62-111.76-403.88 134.85-635.6 246.6-231.7 998.41-477.52 1087.58 105.84z"/><path d="M14296.33 1722.97s96.26 500.21 216.28 459.33c119.98-40.94 173.53-268.55-46.52-609.49l-169.76 150.17zm-780.16 282.69s67.01-16.96 65.69 50.55c-1.28 67.47-154.68 49.02-208.09 191.8 0 0-90.84-128 142.4-242.36z"/></g><g class="f Y"><path d="M13194.32 2453.75l224.72-72.39 11.12 30.78-.46.17-225.33 72.58a16.3 16.3 0 0 1-20.59-10.55c-2.78-8.58 1.49-17.96 10.54-20.59zm597.8-225.89c-29.6-81.98-12.36-169.66 37.84-233.56 27.25-34.88 64.23-62.6 108.72-78.67 20.63-7.48 41.69-11.94 62.56-13.64 94.16-7.88 186.04 40.15 232.85 123.84l1.14 2.06c5.98 10.91 11.18 22.34 15.53 34.31 20.91 58.08 18.42 118.89-2.64 172.15-24.41 61.73-73.61 113.25-140.05 138.47l-3.89 1.49c-126.43 45.75-266.44-20.09-312.08-146.45zm-31.06 10.36l.25.72c20.87 57.74 59.1 104.38 106.69 136.05 70.58 46.89 161.64 61.07 247.39 30.1 50.88-18.34 93.13-50.23 124.05-90.24 14.29-18.2 26.26-38.36 35.52-59.6 27.22-62.48 31.57-135.12 6.62-204.23-3.41-9.3-7.23-18.46-11.61-27.15-4.7-10.05-10.08-19.53-16.07-28.68-68.15-105.91-202.99-154.87-326.44-110.34l-2.6 1.03c-54.05 20.07-97.98 55.4-129 99.44-33.99 47.95-52.23 106.2-50.92 166.08.18 11.12 1.07 22.2 2.78 33.35a276.5 276.5 0 0 0 13.33 53.47z"/><path d="M13255.35 2175.98c6.41-5.09 13.15-9.98 20.1-14.32 8.8-5.67 17.88-10.76 27.54-15.32 6.84-3.27 13.97-6.13 21.3-8.8 10.12-3.71 20.28-6.59 30.47-8.88a336.5 336.5 0 0 1 17.45-3.2 243.4 243.4 0 0 1 105.67 8.26c54.25 16.5 102.35 51.77 134.16 101.04a248.3 248.3 0 0 1 24.34 49.3c28.39 78.53 13.78 162.2-31.6 225.23-3.25 4.59-6.74 9.05-10.34 13.36a242.2 242.2 0 0 1-93.3 69.19l-4.24 1.68-6.95 2.64c-25.65 9.22-51.83 13.9-77.77 14.35-3.52.15-6.98.15-10.57.08-12.26-.25-24.44-1.5-36.42-3.56-19.2-3.49-37.8-9.05-55.54-16.81-48.16-21.06-89.52-57.47-115.96-105.49-3.7-6.55-7.05-13.29-10.01-20.31-2.21-4.78-4.13-9.72-5.95-14.78-36.41-100.82-1.92-210.29 77.63-273.64zm-108.41 284.83c29.14 80.87 92.45 139.75 167.76 166.66 19.88 7.05 40.62 11.86 61.85 14.21a266.9 266.9 0 0 0 34.19 1.72c4.13-.04 8.34-.18 12.5-.54 25.9-1.35 52.13-6.67 77.74-15.9l7.44-2.92a207.2 207.2 0 0 0 14.68-6.16 272.9 272.9 0 0 0 82.4-58.5c71.14-73.53 98.75-183.97 61.66-286.5-5.55-15.29-12.32-29.93-20.24-43.58l-.85-1.71a254.5 254.5 0 0 0-20.21-29.71c-28.36-36.95-65.55-65.59-107.27-83.97-37.97-16.71-79.62-25.01-121.98-23.44a269.6 269.6 0 0 0-45.92 5.58c-12.54 2.61-25.16 6.1-37.62 10.65-6.78 2.49-13.33 5.13-19.81 8.09-9.37 4.17-18.45 8.84-27.1 13.93-7.38 4.45-14.47 9.05-21.28 14.04-97.25 70.51-140.78 199.58-97.97 318.04zm1460.23-466.13l5.16-2.99a16.4 16.4 0 0 0 1.71-23.09c-133.27-154.44-372.89 35.84-375.27 37.76-7.06 5.71-8.16 16-2.46 23.01a16.4 16.4 0 0 0 23.01 2.49c2.14-1.78 217.32-172.39 329.9-41.89 4.55 5.3 11.75 6.95 17.96 4.7z"/><path d="M13635.44 2238.79a16.4 16.4 0 0 0 9.3-8.55c27.03-58.74 105.03-45.31 105.77-45.21a16.4 16.4 0 0 0 19.06-13.18c1.57-8.91-4.34-17.42-13.22-19.03-35.73-6.44-111.3-1.49-141.36 63.7a16.4 16.4 0 0 0 8.02 21.73 16.6 16.6 0 0 0 12.43.54z"/></g><path d="M14667.48 2576.03c139.72 8.51 240.19-28.68 308.41-90.42 10.87-9.91 20.91-20.45 30.25-31.46 137.16-163.38 99.4-445.04-23.65-564.63-43.39-42.35-89.49-67.65-135.31-80.8-13.97-4.2-27.82-7.12-41.65-9.05-176.24-24.97-339.08 106.95-339.08 106.95-77.67 520.13 201.03 669.41 201.03 669.41z" class="Y Z"/><path d="M14975.89 2485.6c10.87-9.91 20.91-20.45 30.25-31.46-173.78-258.72-175.42-511.23-158.96-645.43-13.97-4.2-27.82-7.12-41.65-9.05-17.77 142.19-16.88 412.05 170.36 685.94z" class="Y a"/><path d="M13232.01 1684.07c3.75-76.81 17.67-152.48 46.14-222.45 59.81-147.03 177.48-251.48 349.66-310.44 186.22-63.62 358.85-55.4 513.33 24.69 48.2 25 92.58 55.83 133.24 90.52 56.81 48.41 106.41 104.17 149.23 161.63 148.56 199.83 214.87 420.57 215.83 423.77l51.33-15c-6.2-21.06-155.19-516.86-525.02-708.38-167.97-87-354.79-96.33-555.18-27.79-187.64 64.13-316.08 178.95-382.05 341.08-53.51 131.64-60.07 279.06-44.14 418.5a719.5 719.5 0 0 1 47.63-176.13zm11.58 418.48c-3.75.36-7.27.07-10.72-.78 48.45 172.61 111.65 299.15 117.06 309.98l47.64-24.19c-1.35-2.61-65.83-131.93-114.19-307.52-12.04 12.86-25.26 21.06-39.79 22.51z" class="f Y"/><path d="M15767.63 6853.74s1049.71 2033.87-1718.65 2195.64c-1249.39 73-1846.33-120.8-1846.33-120.8s-30.1 1105.1-88.28 1571.26c-58.18 466.2-231.5 1297.49-231.5 1297.49h-748.99s-300.07-3406.74 304.03-3779.32c604.11-372.54 1651.65-652.23 3142.97-795.34 391.59-61.77 1093.25-239.8 1186.76-368.94z" class="Y j"/><g class="m Y"><path d="M11789.96 11396.77c12.5 0 23.69-8.8 26.26-21.52 108.01-534.78 144.28-1200.41 173.46-1735.23 24.16-443.5 46.99-862.38 103.96-912.72 46.13-40.79 237.73-8.95 480.3 31.32 482.48 80.12 1211.63 201.14 2015.74 14.04 437.95-101.9 759.93-314.65 956.99-632.36 339.83-547.89 184.93-1227.09 183.33-1233.93-3.42-14.4-17.88-23.34-32.24-19.88-14.43 3.38-23.37 17.81-19.95 32.2 1.53 6.62 151.27 665.02-176.92 1193.71-189.28 304.93-499.93 509.53-923.38 608.03-793.7 184.68-1516.48 64.69-1994.79-14.71-286.43-47.56-459.29-76.23-524.58-18.56-70.47 62.28-90.31 368.55-121.99 949.96-29.06 533.11-65.23 1196.57-172.46 1727.53a26.9 26.9 0 0 0 20.98 31.61l5.31.53z"/><path d="M11119.59 11410.88l.57-.04 832.86-17.84a26.9 26.9 0 0 0 26.26-27.4c-.32-14.82-12.44-26.9-27.4-26.22l-832.86 17.87a26.8 26.8 0 0 0-26.22 27.4 26.8 26.8 0 0 0 26.79 26.23z"/></g><path d="M11840.76 11797.34l-157.57 959.55h-528.62l29.39-959.55z" class="Y h"/><path d="M9849.99 13591.83h1999.46c14.9-26.99 22.98-65.34 26.3-111.07 12.5-169.11-41.39-439.02-67.83-609.2l-8.09-55.25c-3.67-28.44-5.91-52.13-5.91-69.47 0-138.95-122.98-115.12-122.98-115.12-202.33 198.41-431.43-99.14-565.21-1.56 0 0-57.6 41.32-216.35 184.12-158.64 142.81-428.68 237.12-658.54 333.27-296.69 123.97-380.84 247.92-397.26 333.2-12.97 67.62 16.42 111.07 16.42 111.07z" class="Y b"/><g class="c Y"><path d="M9849.99 13591.83h1999.46c14.9-26.99 22.98-65.34 26.3-111.07H9833.58c-12.97 67.62 16.42 111.07 16.42 111.07z"/><path d="M11645.46 13591.83h59.39c-59.28-67.71-114.71-171.64-107.45-320.16 9.62-197.58 128.18-330.75 210.52-400.12l-8.09-55.25c-88.78 67.82-238.37 216.38-250.05 452.97-6.88 141.87 39.65 247.67 95.68 322.55zm-722.17-659.57a32.9 32.9 0 0 0 31.92-25.01c4.41-17.65-6.38-35.55-24.05-39.92l-124.9-31.01a32.9 32.9 0 0 0-39.9 24.02c-4.38 17.67 6.37 35.52 24.04 39.9l132.89 32.02zm124.09-103.98c14.78 0 28.26-10.02 31.95-25 4.38-17.67-6.37-35.56-24-39.91l-124.94-31.02a32.9 32.9 0 0 0-39.9 24c-4.38 17.7 6.37 35.56 24.04 39.94l132.85 31.99zm-249 176.59c14.75 0 28.22-10.02 31.92-25.04 4.42-17.63-6.37-35.52-24.04-39.9l-124.9-30.99a32.9 32.9 0 0 0-39.91 24 33 33 0 0 0 24.05 39.94l132.88 31.99zm-124.94 69.79a33 33 0 0 0 31.96-25c4.38-17.67-6.34-35.56-24.04-39.94l-124.87-30.99c-17.67-4.42-35.56 6.37-39.94 24a33 33 0 0 0 24.04 39.94l132.85 31.99zm-136.16 64.55a33 33 0 0 0 31.96-25.04 32.9 32.9 0 0 0-24.05-39.89l-124.9-31.01a33 33 0 0 0-39.94 24.02 32.9 32.9 0 0 0 24.05 39.9l132.88 32.02zm-147.7 55.01c14.78 0 28.26-10.01 31.96-25 4.37-17.63-6.38-35.52-24.05-39.9l-124.9-30.99a32.9 32.9 0 0 0-39.9 24.04c-4.38 17.63 6.37 35.52 24.04 39.9l132.85 31.95z"/></g><path d="M12022.73 6072.75s-586.64-216.35-839.12-128.68l-22.48 432.64s358.29 14.36 443.4 68.93c85.11 54.61 71.1 228.97 417.14 277.1l1.06-649.99z" class="Y h"/><path d="M14974 3646.4l1.93 23.76 2.03 33.31 2.64 70.51a3007.9 3007.9 0 0 1 .75 145.81c-1.71 98.22-7.84 197.3-18.03 295.76-19.03 197.23-54.4 392.49-106.95 580.74-12.97 47.17-27.36 93.73-42.49 139.94a2731.3 2731.3 0 0 1-48.38 137.16 2637.1 2637.1 0 0 1-54.97 133.85c-19.28 44.1-40.05 87.38-61.67 130.1-21.23 42.97-44.35 84.76-67.79 126.33-23.94 41.25-48.59 82.01-74.67 121.8-26.08 39.73-52.95 78.95-81.37 116.99-13.93 19.24-28.54 37.94-43.11 56.68l-7.65 9.91 2.45-2.82c3.75-3.88 6.03-6.37 8.91-8.8 4.59-4.21 7.13-5.88 8.34-6.34 1.35-.46-3.24 3.85-12.65 9.4-9.15 5.59-22.12 12.47-37.26 19.49-30.63 14.18-69.54 28.78-111.47 42.28-84.54 27.15-181.19 50.2-280.59 70.58-199.79 40.61-412.33 69-626.55 92.91-214.65 23.23-432.35 41.32-650.95 55.54l-328.44 19.17-326.08 13.54-8.73 723.16 174.28 6.63 171.79 3.89 343.46 2.67c229.22-1.14 459.07-6.77 691.03-20.27 232.25-13.33 465.6-33.81 707.21-71.14 121.13-18.99 243.93-42.75 374.47-78.49 65.44-18.28 132.88-39.55 205.53-68.93 36.37-14.86 74.16-31.85 114.25-52.91 39.9-21.02 82.8-46.71 128.76-81.05a805.7 805.7 0 0 0 71.89-61.31c12.57-12.43 24.82-24.79 37.58-39.4l9.37-10.71 12.26-14.47 61.66-74.7c40.62-50.24 79.27-101.93 116.75-154.41 37.41-52.51 72.99-106.24 107.41-160.6 33.88-54.65 67.04-109.8 97.83-166.05 123.27-225.05 222.13-461.39 295.27-703.15 73.46-241.79 123.73-488.14 153.51-736.27 14.18-124.26 23.26-248.88 26.82-374.64 1.82-62.95 2.25-126.12.97-190.25l-3.71-97.4-3.14-50.55-3.31-40.93-1.89-18.99-927.27 102.67z" class="Y b"/><g class="c Y"><path d="M14611.47 6041.48a26.8 26.8 0 0 0 24.69-3.92c11.83-8.88 14.25-25.69 5.34-37.56-109.79-146.45-274.32-299.36-281.26-305.81-10.87-10.05-27.86-9.4-37.91 1.46a26.8 26.8 0 0 0 1.46 37.87c1.67 1.52 167.97 156.1 274.81 298.65a26.9 26.9 0 0 0 12.86 9.3z"/><path d="M14587.22 5846.57a26.8 26.8 0 0 0 32.95-14.36 26.9 26.9 0 0 0-13.36-35.48c-5.67-2.53-138.58-62.38-244.96-97.47-14.11-4.64-29.25 3.03-33.88 17.1-4.63 14.08 3.31 28.96 17.11 33.85 103.56 34.12 238.27 94.76 239.62 95.36l2.52 1z"/><path d="M12569.94 6060.21c3.56 1.25 7.48 1.72 11.51 1.28 1018.71-112.75 1718.47-305.34 1756.06-332.88 3.06-2.21 5.55-5.06 7.44-8.34 30.1-52.72 736.99-1297.27 731.93-1837.68-.14-14.82-12.22-26.68-27.07-26.58-14.78.14-26.68 12.26-26.54 27.07 4.78 505.68-662.92 1700.81-720.92 1803.62-74.25 30.71-754.41 213.86-1726.81 321.45-14.71 1.64-25.33 14.9-23.69 29.64a26.7 26.7 0 0 0 18.1 22.41z"/><path d="M14999.91 4133.04c6.41 2.17 13.67 1.93 20.24-1.24a26.9 26.9 0 0 0 12.5-35.81l-72.03-148.98c-6.41-13.32-22.48-18.91-35.81-12.5-13.32 6.48-18.87 22.48-12.43 35.84l71.96 148.94c3.28 6.78 8.98 11.54 15.57 13.75zM12433 6817.62l8.52 1.38c14.81 0 26.82-11.97 26.85-26.78l1.07-706.99a26.8 26.8 0 0 0-26.75-26.86 26.8 26.8 0 0 0-26.82 26.75l-1.11 707.02a26.8 26.8 0 0 0 18.24 25.48z"/><path d="M12029.75 6648.93l8.98 1.38 390.93-6.05a26.82 26.82 0 1 0-.82-53.63l-390.96 6.1a26.8 26.8 0 0 0-8.13 52.19zm144.75-260.28c-16.21 30.13-4.92 67.69 25.22 83.9a62 62 0 0 0 83.9-25.23 62 62 0 0 0-25.19-83.9 62 62 0 0 0-83.93 25.23z"/></g><path d="M9125.55 6653.1h4086.66a16.5 16.5 0 0 0 16.49-16.5c0-126.83-102.84-229.67-229.71-229.67H9125.55a16.5 16.5 0 0 0-16.49 16.49v213.18a16.5 16.5 0 0 0 16.49 16.5z" fill="#66413b" class="Y"/><path d="M7761.12 4395.03l510.05 2157.36a127.4 127.4 0 0 0 124.01 98.07h3142.19c82.22 0 142.93-76.77 124.01-156.71l-510.08-2157.32c-13.58-57.5-64.88-98.08-124.02-98.08H7885.13c-82.22 0-142.94 76.74-124.01 156.68z" fill="#4c2d2e" class="Y"/><path d="M8861.17 5275.52c-3.06 145.75-250.02 328.3-250.02 328.3s-286.82-182.54-321.66-328.3c-37.8-158.03 142.64-206.49 276.32-87.35 107.62-119.13 298.72-70.68 295.36 87.35z" class="Y j"/><path d="M8679.69 6247.25l81.58-.03-21.69-105.17-81.59.03 21.7 105.17zm-268.94-105.06l-11.16-125.15 99.72-.07-24.2-114.33 131.86-.07 24.19 114.36 81.59-.07-24.2-114.33 131.86-.07 24.19 114.36 115.39-.07 11.16 125.19-99.75.04 21.73 105.17 115.36-.04 11.15 125.19-99.68.07 24.16 114.32-131.85.07-24.2-114.36-81.58.07 24.19 114.33-131.85.07-24.2-114.36-115.35.07-11.16-125.22 99.72-.04-21.73-105.17-115.36.04z" class="Y e"/><path d="M10902.8 4238.35l543.08 2412.11h91.48c82.22 0 142.93-76.77 124.01-156.71l-510.08-2157.32c-13.58-57.5-64.88-98.08-124.02-98.08h-124.48zM9313.65 5528.78c15.85 131.93 135.62 238.87 267.51 238.87 131.92 0 226.01-106.94 210.19-238.87-15.85-131.88-135.63-238.83-267.51-238.83-131.89 0-226.02 106.95-210.19 238.83z" fill="#66413b" class="Y"/><path d="M4713.87 6823.92v165.98c0 95.58 80.63 173 180.16 173h12531.23c99.47 0 180.09-77.42 180.09-173v-165.98c0-95.51-80.62-172.89-180.09-172.89H4894.03c-99.53 0-180.16 77.38-180.16 172.89z" class="Y n"/><path d="M5350.82 7589.66h11258.51c196.54 0 355.87-159.35 355.87-355.87v-72.88l-11970.24 72.88c0 196.52 159.33 355.87 355.87 355.87zm-126.22 2410.61h11341.23v-293.95H5224.6z" class="k Y"/><path d="M17109.69 13644.18l-1460.26-6054.52h512.84l1460.26 6054.52zm-12358.79 0l1460.26-6054.52h-512.84l-1460.26 6054.52z" class="n Y"/><path d="M4713.87 6982.88h12891.48v-75.98H4713.87z" class="Y k"/><path d="M6321.45 6636.81c-31.32 0-59.29-22.12-65.48-54.04l-771.63-3961.55a66.8 66.8 0 0 1 25.72-66.37l1781.29-1324.38c17.21-12.79 39.52-16.53 59.97-10.08l1574.97 497.33a66.8 66.8 0 0 1 43.58 83.8c-11.12 35.19-48.63 54.68-83.83 43.61l-1542.38-487.05-1720.12 1278.9 763.54 3920.28c7.09 36.16-16.57 71.25-52.77 78.3-4.34.82-8.62 1.24-12.86 1.24z" class="Y e"/><path d="M5672.31 6651.03s137.98-470.33 607.27-470.33c469.33 0 625.24 470.33 625.24 470.33H5672.31zm2693.98-3315.44l101.25-1209.28-17-64.48c-52.98-201.29 59.14-409.27 256.58-475.35 41.62-13.9 83.9-20.55 125.59-20.55 156.22 0 303.28 93.23 365.62 245.28l25.3 61.7 809.42 904.1c89.59 267.2-1577.25 825.77-1666.75 558.57z" class="Z Y"/><path d="M10006.22 2746.99c-234.21 170.94-648.75 316.47-762.11 354.48-115.43 38.65-547.39 176.52-837.63 176.52a921.9 921.9 0 0 1-35.3-.72l7.41-88.88c42.93 1.35 95.84-.97 159.96-8.2 185.53-21.02 426.08-78.98 677.24-163.16 251.26-84.25 478.1-182.94 638.77-277.95 35.16-20.76 65.55-40.43 91.62-59.07l60.04 66.97z" class="Y a"/><path d="M5877.09 2671.78c0 153.76-124.66 278.42-278.42 278.42s-278.38-124.66-278.38-278.42 124.62-278.38 278.38-278.38 278.42 124.62 278.42 278.38z" class="Y Z"/><path d="M5598.68 2825.51c-84.76 0-153.69-68.97-153.69-153.73a153.9 153.9 0 0 1 153.69-153.69c84.76 0 153.72 68.94 153.72 153.69 0 84.76-68.96 153.73-153.72 153.73z" class="Y a"/><path d="M7604.94 1284.09c0 153.76-124.66 278.38-278.42 278.38s-278.38-124.62-278.38-278.38 124.62-278.38 278.38-278.38 278.42 124.62 278.42 278.38z" class="Y Z"/><path d="M7326.52 1437.78a153.9 153.9 0 0 1-153.69-153.69 153.9 153.9 0 0 1 153.69-153.69c84.76 0 153.73 68.94 153.73 153.69 0 84.76-68.97 153.69-153.73 153.69zM16685.1 5775.7a17.1 17.1 0 0 1-17.07-17.06V4642.62c0-9.43 7.66-17.06 17.07-17.06a17.1 17.1 0 0 1 17.11 17.06v1116.02a17.1 17.1 0 0 1-17.11 17.06z" class="a Y"/><path d="M17161.57 5733.67l-18.07 66.87-3.5 12.86-225.86 837.63h-458.03l-247.46-917.36z" class="Y j"/><path d="M17104.6 5945l-20.49 75.99h-797.94l-20.48-75.99zm-121.23 449.42l-20.6 75.99h-555.3l-20.59-75.99z" class="m Y"/><path d="M16746.17 4886.31a49 49 0 0 1-51.73-19.24c-3.85-5.34-6.74-11.46-8.13-18.24-.82-3.38-1.17-6.88-1.17-10.54a49.3 49.3 0 0 1 11.4-31.53c65.3-79.02 395.8-461.36 550.74-301.46 187.21 193.09-320.46 337.09-501.11 381.01z" class="Y Z"/><path d="M17038.47 4663.47l-344.03 203.6c-3.85-5.34-6.74-11.46-8.13-18.24l342.04-202.43c4.82-2.81 10.84-1.21 13.65 3.49a9.9 9.9 0 0 1-3.53 13.57z" class="Y a"/><path d="M16685.14 5027.43c0 3.67-.32 7.16-1.14 10.58-1.49 6.73-4.27 12.86-8.12 18.2a49.3 49.3 0 0 1-51.81 19.28c-180.58-43.96-688.25-187.85-501.03-381.02 154.86-159.81 485.36 222.41 550.73 301.43a49.5 49.5 0 0 1 11.37 31.53z" class="Y Z"/><path d="M16684 5038.01c-1.49 6.73-4.27 12.86-8.12 18.2l-344.15-203.6c-4.63-2.71-6.23-8.84-3.41-13.53 2.71-4.75 8.83-6.31 13.57-3.53l342.11 202.47z" class="Y a"/><path d="M16722.8 4639.82c-1.39 11.47-6.62 22.05-14.97 30.03l-8.41 6.44c-5.84 3.61-12.36 5.81-18.87 6.67-19.14 2.64-39.05-5.95-49.67-24.23-92.77-160.99-338.63-627.83-69.65-625.59 222.55 1.96 173.75 504.89 161.57 606.67z" class="Y Z"/><path d="M16699.42 4676.3c-5.84 3.61-12.36 5.81-18.87 6.67l-89.92-389.56c-1.21-5.27 2.13-10.62 7.44-11.91 5.34-1.17 10.68 2.07 11.9 7.52l89.45 387.28z" class="Y a"/><path d="M16746.17 5292.26a49 49 0 0 1-51.73-19.24c-3.85-5.34-6.74-11.46-8.13-18.24-.82-3.38-1.17-6.88-1.17-10.54 0-11.5 4.06-22.69 11.4-31.53 65.3-79.02 395.8-461.28 550.74-301.46 187.21 193.2-320.46 337.09-501.11 381.01z" class="Y Z"/><path d="M17038.47 5069.5l-344.03 203.53c-3.85-5.34-6.74-11.46-8.13-18.24l342.04-202.43c4.82-2.81 10.84-1.21 13.65 3.49 2.78 4.74 1.21 10.87-3.53 13.64z" class="Y a"/><path d="M16685.14 5433.38c0 3.67-.32 7.16-1.14 10.58a49.5 49.5 0 0 1-8.12 18.28c-11.3 15.67-31.25 24.15-51.81 19.16-180.58-43.85-688.25-187.81-501.03-380.98 154.86-159.81 485.36 222.41 550.73 301.43a49.7 49.7 0 0 1 11.37 31.53z" class="Y Z"/><path d="M16684 5443.96a49.5 49.5 0 0 1-8.12 18.28l-344.15-203.57a10 10 0 0 1-3.41-13.64 10 10 0 0 1 13.57-3.53l342.11 202.47z" class="Y a"/><path d="M16746.17 5674.68a49 49 0 0 1-51.73-19.24c-3.85-5.35-6.74-11.47-8.13-18.21-.82-3.42-1.17-6.91-1.17-10.58a49.3 49.3 0 0 1 11.4-31.53c65.3-79.05 395.8-461.36 550.74-301.46 187.21 193.1-320.46 337.09-501.11 381.02z" class="Y Z"/><path d="M17038.47 5451.83l-344.03 203.61c-3.85-5.35-6.74-11.47-8.13-18.21l342.04-202.46c4.82-2.82 10.84-1.21 13.65 3.48a9.9 9.9 0 0 1-3.53 13.57z" class="Y a"/><path d="M7751.5 5485.43L7649.68 6653.1h-560.99l-101.83-1167.67z" class="Y b"/><path d="M7724.61 5792.74l-26.76 305.81h-657.48l-26.61-305.81z" class="Y f"/><path d="M6947.64 5485.43h843.12v-149.31h-843.12z" class="Y c"/><path d="M7727.24 5336.12H7011.2v-74.13c0-29.1 23.55-52.65 52.65-52.65h610.73c29.06 0 52.65 23.55 52.65 52.65v74.13z" class="Y b"/><path d="M5177.87 1246.19H3931.68L3749.24 0h1246.18z" class="Y n"/><path d="M3749.24 0L3576.6 1246.19h355.08z" class="Y k"/><path d="M4007.49 1157.37L3851.02 88.78h1068.59l156.44 1068.59z" fill="#d6d0be" class="Y"/><path d="M4022.63 1139.63L3871.4 106.52h1033.08l151.19 1033.11z" class="Y f"/><path d="M4811.6 233l114.21 780.16h-810.98L4000.62 233z" fill="#f9a53e" class="Y"/><path d="M4405.18 608.81s164.45-192.66 435.13-179.69l85.51 584.05-520.63-404.36z" class="Y c"/><path d="M4038.17 489.5s232.21-47.21 473.39 133.59c241.19 180.77 414.26 390.07 414.26 390.07h-810.98l-76.67-523.66z" class="Y b"/><path d="M5816.99 1765.61H615.25l-68.32-237.34h5347.94z" fill="#e0b29e" class="Y"/><path d="M545.79 1528.27h5353.86v-282.08H545.79z" class="Y Z"/><path d="M812.66 1528.27l114.26 239.51h269.34l76.67-239.51zm4736.81 0l-114.28 239.51h-269.33l-76.67-239.51z" class="a Y"/><path d="M2711.43 943.12l39.62-.07-.07-59.18-1499.04 1.96c-49.64.04-94.71 20.2-127.19 52.87a179.3 179.3 0 0 0-52.54 127.33c.12 99.46 80.77 179.87 180.21 179.77l1499.03-1.96-.08-51.23-39.61.03-.32-249.52z" class="Y j"/><path d="M2721.69 943.08l.32 249.49-1375.51 1.79c-67.16.1-121.59-55.72-121.67-124.52a126.4 126.4 0 0 1 35.45-88.35c22.05-22.55 52.31-36.59 85.9-36.62l1375.51-1.79z" class="Y f"/><path d="M2721.79 1006.25l.04 38.15-1339.96 1.75a19.1 19.1 0 0 1-19.03-18.99v-.11c-.03-10.47 8.51-19.06 19-19.06l1339.95-1.75zm.11 93.9l.07 38.19-1339.96 1.71a19.1 19.1 0 0 1-19.06-18.99v-.1c0-10.48 8.55-19.03 18.99-19.07l1339.96-1.75z" class="i Y"/><path d="M2577.44 583.34l39.65-.07-.07-59.18-1499.03 1.96c-49.68.04-94.74 20.2-127.21 52.87-32.48 32.57-52.6 77.56-52.55 127.33.14 99.43 80.79 179.87 180.22 179.77l1499.01-1.96-.04-51.27-39.62.07-.35-249.52z" class="Y b"/><path d="M2587.73 583.3l.32 249.49-1375.52 1.79c-67.15.07-121.58-55.72-121.67-124.52-.04-34.56 13.53-65.66 35.46-88.35 22.03-22.58 52.29-36.59 85.89-36.62l1375.52-1.79z" class="Y f"/><path d="M2587.8 646.46l.04 38.15-1339.94 1.75a19.1 19.1 0 0 1-19.04-19.03v-.1a19.1 19.1 0 0 1 19-19.03l1339.94-1.75zm.15 93.91l.03 38.19-1339.96 1.71c-10.43 0-19.03-8.54-19.05-18.99v-.1c0-10.48 8.55-19.03 19-19.07l1339.98-1.75z" class="i Y"/><path d="M2838.79 223.02l39.62-.07-.08-59.18-1499.02 1.96c-49.67.07-94.73 20.21-127.22 52.87-32.46 32.57-52.58 77.56-52.53 127.33a180 180 0 0 0 180.22 179.77l1499.02-1.93-.07-51.26-39.62.03-.31-249.52z" class="Y Z"/><path d="M2849.05 222.98l.35 249.49-1375.54 1.79c-67.16.1-121.59-55.72-121.66-124.52a126.3 126.3 0 0 1 35.45-88.35c22.05-22.58 52.33-36.59 85.89-36.59l1375.51-1.82z" class="Y f"/><path d="M2849.15 286.14l.04 38.15-1339.96 1.75a19.1 19.1 0 0 1-19.03-18.99v-.14a19.1 19.1 0 0 1 18.99-19.03l1339.96-1.75zm.12 93.95l.07 38.15-1339.96 1.75c-10.47 0-19.03-8.55-19.06-19.03v-.1a19.1 19.1 0 0 1 18.99-19.07l1339.96-1.71zM4086.4 13617.38c0 132.92-894.84 240.66-1998.74 240.66-1103.84 0-1998.72-107.74-1998.72-240.66 0-132.88 894.88-240.65 1998.72-240.65 1103.9 0 1998.74 107.77 1998.74 240.65z" class="i Y"/><path d="M3951.73 6779.78l-466.51 6822.57H690.14L223.59 6779.78z" class="Y e"/><path d="M3920.67 7234.26L269.08 7444.63l-26.18-382.77h3689.56z" class="Y g"/><path d="M4090.82 7061.86H84.55A84.6 84.6 0 0 1 0 6977.32v-254.15c0-46.71 37.86-84.55 84.55-84.55h4006.27c46.67 0 84.54 37.84 84.54 84.55v254.15a84.6 84.6 0 0 1-84.54 84.54z" class="Y o"/><path d="M3534.13 7839.11l-91.66 1615.1H732.87l-91.65-1615.1z" class="Y g"/><path d="M2222.93 8713.29c0 74.71-60.56 135.24-135.27 135.24-74.67 0-135.23-60.53-135.23-135.24 0-74.7 60.56-135.23 135.23-135.23 74.71 0 135.27 60.53 135.27 135.23z" class="Y e"/><path d="M3406.59 9832.48l-83.58 1472.68H852.33l-83.56-1472.68z" class="Y g"/><path d="M2222.93 10622.34c0 74.71-60.56 135.23-135.27 135.23-74.67 0-135.23-60.52-135.23-135.23s60.56-135.24 135.23-135.24c74.71 0 135.27 60.53 135.27 135.24z" class="Y e"/><path d="M3296.51 11677.14l-76.6 1349.78H955.44l-76.6-1349.78z" class="Y g"/><path d="M2222.93 12352.04a135.3 135.3 0 0 1-135.27 135.22c-74.67 0-135.23-60.56-135.23-135.22 0-74.72 60.56-135.24 135.23-135.24 74.71 0 135.27 60.52 135.27 135.24z" class="Y e"/><path d="M1652.88 6644.87l155.65-1327.73H497.02l155.67 1327.73z" class="Y Z"/><path d="M1782.63 5537.69l-4.27 36.63H527.18l-4.27-36.63zm-16.56 141.47l-4.28 36.59H543.78l-4.28-36.59zm-16.93 144.25l-4.27 36.56H560.67l-4.27-36.56z" class="a Y"/><path d="M843.69 4711.21s-292.41-367.48-447.94-102.63c-155.53 264.88 180.42 476.38 416.84 482.62 236.43 6.23 31.1-379.99 31.1-379.99zm601.71 256.4s243.89-306.56 373.65-85.61c129.75 220.95-150.49 397.36-347.72 402.56-197.22 5.21-25.93-316.96-25.93-316.96z" class="c Y"/><path d="M1512.23 5317.14v-754.31c0-198.54-160.95-359.46-359.46-359.46s-359.44 160.92-359.44 359.46v754.31h718.9z" class="Y b"/><path d="M2876.83 6390l-207.79 31.85-240.05-1566.82 207.84-31.81z" class="Y e"/><path d="M2636.83 4823.22l-207.84 31.85 69.47-240.87 47.2 71.29z" class="Y h"/><path d="M2876.83 6390l-207.79 31.85-17.47-113.86 207.81-31.81z" class="Y d"/><path d="M2876.91 6482.88l-180.16 27.57a14 14 0 0 1-15.96-11.71l-11.75-76.88 207.8-31.85 11.75 76.91c1.18 7.62-4.06 14.75-11.68 15.97z" class="Y l"/><path d="M2545.66 4685.49l-70.93 10.86 23.73-82.15z" class="Y d"/><path d="M2639.07 6226.33l207.8-31.81 12.51 81.66-207.81 31.81zm-146.6-1302l177.74 1160.29c1.35 8.77 9.55 14.78 18.35 13.43a16 16 0 0 0 13.39-18.31l-177.74-1160.3c-1.31-8.73-9.51-14.74-18.27-13.43a16.1 16.1 0 0 0-13.47 18.32zm81.29-12.51l177.75 1160.26c1.35 8.8 9.54 14.78 18.31 13.43s14.78-9.51 13.43-18.28l-177.74-1160.29c-1.35-8.77-9.55-14.78-18.32-13.43-8.76 1.32-14.78 9.51-13.43 18.31z" class="g Y"/><path d="M3017.74 6415.47l-210.23.72-5.2-1585.1 210.26-.68z" class="Y b"/><path d="M3012.57 4830.45l-210.26.68 104.39-227.9 36.15 77.49z" class="Y h"/><path d="M3017.74 6415.47l-210.23.72-.4-115.18 210.27-.68z" class="Y d"/><path d="M3004.06 6507.32l-182.26.61c-7.77.03-14.04-6.24-14.04-13.97l-.25-77.77 210.23-.72.24 77.84c.04 7.7-6.19 13.97-13.93 14.01z" class="Y l"/><path d="M2942.85 4680.72l-71.78.24 35.63-77.73z" class="Y d"/><path d="M2806.87 6218.43l210.22-.71.29 82.61-210.27.68zm47.99-1309.39l3.81 1173.79c.04 8.88 7.27 16.04 16.14 16 8.88-.03 16.04-7.23 16-16.1l-3.85-1173.79c-.03-8.88-7.23-16.04-16.1-16-8.88.03-16.04 7.23-16 16.1zm82.22-.32l3.85 1173.76c0 8.88 7.23 16.07 16.1 16.04 8.88 0 16.04-7.27 16-16.14l-3.81-1173.76c-.04-8.88-7.27-16.04-16.14-16.04-8.88.04-16.04 7.27-16 16.14z" class="c Y"/><path d="M3152.41 6422.1l-208.17-29.57 222.91-1569.35 208.16 29.57z" class="Y Z"/><path d="M3375.31 4852.79l-208.16-29.57 136.09-210.51 24.62 81.87z" class="Y h"/><path d="M3152.41 6422.1l-208.17-29.57 16.17-114.08 208.16 29.57z" class="Y d"/><path d="M3125.61 6510.98l-180.44-25.65a14 14 0 0 1-11.91-15.78l10.98-77.02 208.16 29.57-10.98 77.02a14 14 0 0 1-15.81 11.87z" class="Y l"/><path d="M3327.86 4694.58l-71.08-10.12 46.46-71.75z" class="Y d"/><path d="M2972.06 6196.7l208.13 29.6-11.62 81.72-208.16-29.57zm235.85-1288.83l-165.09 1162.14c-1.24 8.77 4.89 16.89 13.64 18.18a16.1 16.1 0 0 0 18.18-13.65l165.08-1162.14c1.25-8.81-4.88-16.93-13.64-18.17-8.8-1.25-16.93 4.88-18.17 13.64zm81.43 11.47l-165.08 1162.14c-1.25 8.81 4.85 16.97 13.64 18.18 8.77 1.24 16.93-4.85 18.17-13.65l165.09-1162.14a16.1 16.1 0 0 0-13.64-18.14c-8.81-1.24-16.93 4.85-18.18 13.61z" class="a Y"/><path d="M3443.57 5457.43L3289.6 6650.24h-826.27l-153.98-1192.81z" class="Y l"/><path d="M3432.63 5542.47l-10.01 77.16H2330.31l-9.98-77.16zm-25.14 194.48l-9.81 76.27h-1042.4l-9.8-76.27zm-25.05 194.55l-9.8 75.35h-992.31l-9.8-75.35zm-25.15 194.56l-9.63 74.31h-942.4l-9.58-74.31zm-25.16 194.47l-9.4 73.46h-892.5l-9.4-73.46zm-25.04 194.58l-9.41 72.47h-842.4l-9.4-72.47z" fill="#c44041" class="Y"/><path d="M22072.28 13628.08c0 97.47-961.47 176.41-2147.52 176.41-1186.04 0-2147.51-78.94-2147.51-176.41 0-97.4 961.47-176.42 2147.51-176.42 1186.05 0 2147.52 79.02 2147.52 176.42z" class="Y i"/><path d="M21223.07 12123.85H18546.3a30.9 30.9 0 0 1-30.92-30.92v-155.11a30.9 30.9 0 0 1 30.92-30.85h2676.77c17.07 0 30.89 13.78 30.89 30.85v155.11a30.9 30.9 0 0 1-30.89 30.92z" class="Y g"/><path d="M18635.75 9503.48h2503.32c41.61 0 75.31 33.73 75.31 75.35v307.55c0 41.62-33.7 75.35-75.31 75.35h-2503.32c-41.61 0-75.35-33.73-75.35-75.35v-307.55c0-41.62 33.74-75.35 75.35-75.35z" class="Y o"/><path d="M19862.38 8311.62h-243.29s-1205.54-2480.01-878.28-2862.85c421.77-493.52 969.59 915.61 1121.56 2862.85z" class="Y b"/><path d="M19785.85 8311.62h-39.79l-766.27-2510.72a19.1 19.1 0 0 1 12.61-23.76 19 19 0 0 1 23.72 12.67l769.73 2521.81z" class="Y c"/><path d="M20005.74 8311.62h243.33s1205.5-2480.01 878.28-2862.85c-421.81-493.52-969.63 915.61-1121.6 2862.85z" class="Y b"/><path d="M20082.3 8311.62h39.8l766.27-2510.72a19.1 19.1 0 0 0-12.61-23.76c-10.09-3.03-20.73 2.6-23.76 12.67l-769.7 2521.81z" class="Y c"/><path d="M20077.7 8311.62h-215.32c-475.89-2280.16-285.72-4189.87 196.34-3831.58 481.98 358.25 18.99 3831.58 18.99 3831.58z" class="Y b"/><path d="M19951.52 4944.06l-25.76 3367.56h-37.98l25.73-3367.81c.14-10.5 8.76-18.66 19.2-18.87a19 19 0 0 1 18.81 19.13z" class="Y c"/><path d="M21033.4 8285.68l-458.63 1217.81h-1374.65l-458.64-1217.81c-21.59-57.25 20.7-118.38 81.91-118.38h2128.13c61.14 0 103.46 61.13 81.9 118.38z" class="Y Z"/><path d="M21001.87 8369.26l-19.84 52.94h-2189.16l-19.92-52.94zm-76.98 204.56l-19.96 52.94h-2035.01l-19.95-52.94zm-78.63 208.66l-19.88 52.87h-1877.9l-19.88-52.87z" class="a Y"/><path d="M19519.17 9961.72l-1137.43 3666.36h-207.41l736.42-3666.36z" class="Y e"/><path d="M18910.75 9961.72h608.42l-76.2 245.78-595.63 69.84z" class="Y g"/><path d="M21606.69 13628.08h-207.42l-1137.42-3666.36h608.34l15.47 76.64z" class="Y e"/><path d="M20885.58 10038.36l-578.87 67.94-44.86-144.58h608.34z" class="Y g"/><path d="M21163.93 11652.2h-2558.5a90.1 90.1 0 0 1-90.06-90.03v-36.83a90.1 90.1 0 0 1 90.06-90.07h2558.5c49.74 0 90.03 40.32 90.03 90.07v36.83c0 49.7-40.29 90.03-90.03 90.03z" class="Y o"/></svg>