<svg xmlns="http://www.w3.org/2000/svg" xmlns:xlink="http://www.w3.org/1999/xlink" width="843.912" height="541.092" viewBox="0 0 6490.04 4161.22" shape-rendering="geometricPrecision" image-rendering="optimizeQuality" fill-rule="evenodd" xmlns:v="https://vecta.io/nano"><style><![CDATA[.Y{fill-rule:nonzero}.Z{fill:#ef4e4b}.a{fill:#453541}.b{fill:#faaa3d}.c{fill:#326ab2}.d{fill:#c44041}.e{fill:#fefefe}.f{fill:#f4816b}.g{fill:#f47e3f}.h{fill:#fabfad}.i{fill:#15a163}.j{fill:#3b59a5}.k{fill:#327a50}.l{fill:#735563}.m{fill:#fcd1c1}.n{fill:#f16459}.o{fill:#eaccb6}]]></style><path d="M3336.79 1059.43c-267.42-37.9-520.88-142.44-739.59-300.93-326.68-236.74-1010.3-639.57-1662.45-438.92C35.25 596.35 31.23 1397.01 265.53 1831.93c234.3 434.93 1895.79 1708.55 4049.79 1505.9 1927.51-181.34 2303.14-2257.12 1275.12-2632.75-891.62-325.78-1195.81 504.3-2253.65 354.35zm220.5-222.24c20.69 63.66-14.15 132.05-77.82 152.73s-132.05-14.16-152.73-77.83c-20.69-63.67 14.16-132.05 77.83-152.73s132.05 14.16 152.72 77.83zm655.23 2682.54c0 40.35-32.72 73.05-73.06 73.05-40.36 0-73.06-32.7-73.06-73.05s32.7-73.06 73.06-73.06c40.34 0 73.06 32.71 73.06 73.06z" class="Y m"/><path d="M3758.51 922.44c12.47 38.37-8.54 79.59-46.91 92.06-38.37 12.46-79.58-8.54-92.05-46.91s8.54-79.59 46.91-92.06 79.59 8.54 92.05 46.91zM379.01 2178.36c0 40.35-32.71 73.06-73.06 73.06s-73.05-32.71-73.05-73.06 32.71-73.05 73.05-73.05c40.35 0 73.06 32.7 73.06 73.05z" class="h Y"/><path d="M6376.35 1587.34c0 40.35-32.7 73.06-73.06 73.06-40.34 0-73.05-32.71-73.05-73.06 0-40.34 32.71-73.05 73.05-73.05 40.36 0 73.06 32.71 73.06 73.05z" class="Y m"/><path d="M5444.33 4085.31c0 41.92-946.47 75.91-2114 75.91s-2114-33.99-2114-75.91 946.47-75.91 2114-75.91 2114 33.99 2114 75.91z" class="Y h"/><path d="M2862.23 1138.43l3.24 16.44 3.65 17.89 7.78 36.2 17.07 72.53c5.95 24.12 12.41 48.05 18.99 71.83 6.6 23.79 13.55 47.37 20.93 70.62l23.15 68.8c8.11 22.54 16.68 44.66 25.76 66.1 9.13 21.42 18.54 42.27 28.57 62.06 10.05 19.76 20.53 38.54 31.42 55.65 10.91 17.06 22.22 32.44 33.23 45.04 10.97 12.64 21.77 22.13 30.3 28.16 4.28 3.02 8 5.15 11.09 6.66 3.12 1.5 5.61 2.42 7.98 3.06l.89.26 4.58.77 27.89 4.73 37.47 6.08 37.71 5.88 37.92 5.78 76.27 11.39 95.81 14.36 19.15 3 19.1 3 18.55 3.1 5.31.99c59.95 11.25 99.45 68.97 88.19 128.93-9.28 49.49-50.33 85-98.07 89.59l-21 2c-6.82.66-13.67 1.14-20.47 1.64-13.61 1.1-27.18 1.9-40.76 2.6l-20.37 1.09-20.35.74-40.74 1.18-40.8.35c-13.6.1-27.23.1-40.87-.13-27.26-.32-54.63-1.21-82.06-2.45l-41.25-2.32-31.07-2.27-5.25-.39-8.9-1.16c-23.72-3.37-46.81-9.52-68.28-17.63-21.46-8.12-41.31-18.12-59.37-29.15-18.06-11.01-34.44-23.03-49.29-35.5-14.92-12.46-28.36-25.36-40.81-38.42-12.45-13.07-23.78-26.31-34.39-39.63-10.54-13.34-20.3-26.74-29.49-40.16-18.31-26.85-34.36-53.78-48.82-80.76-14.46-26.96-27.57-53.88-39.45-80.88-11.9-26.98-22.8-53.95-32.98-80.9-10.17-26.97-19.58-53.91-28.22-80.95-8.68-27.01-16.77-54.04-24.36-81.08-7.6-27.06-14.45-54.2-21.01-81.35-6.58-27.17-12.51-54.43-18.04-81.86l-7.89-41.38-3.65-21.01-1.76-10.74-1.81-11.82c-12.27-80.03 42.66-154.88 122.69-167.15 77.87-11.93 150.8 39.72 166.01 116.24l.86 4.36z" class="Y f"/><path d="M2547.83 1224.85c19.06 66.18 98.49 292.82 168.23 406.32l306.39-144.8s-104.53-242.2-159.25-394.53c-17.81-49.59-56.58-89.34-106.45-106.4-33.51-11.46-74.3-13.98-119.05 7.35-88.12 42.01-97.72 139.29-96.71 187.29.32 15.16 2.64 30.2 6.84 44.78z" class="Y d"/><path d="M3710.94 3601.94l80.78 131.97 153.91-68.13-69.86-141.8z" class="Y f"/><path d="M4433.09 3740.77l-582.17 257.68c-7.81-5.95-15.1-16.07-21.96-28.94-25.44-47.64-44.52-133.18-58.77-186.14l-4.77-17.13c-2.6-8.76-4.98-15.93-7.22-21-17.9-40.44 20.96-49.35 20.96-49.35 84.48 31.69 112.84-84.46 164.37-73.28 0 0 22.1 4.6 86.73 25.71 64.6 21.15 155.38 13.79 234.68 12.17 102.38-2.13 142.84 23.1 158.62 45.82 12.5 18.01 9.53 34.45 9.53 34.45z" class="Y Z"/><g class="d Y"><path d="M4433.09 3740.77l-582.17 257.68c-7.81-5.95-15.1-16.07-21.96-28.94l594.6-263.2c12.5 18.01 9.53 34.45 9.53 34.45z"/><path d="M3910.31 3972.16l-17.29 7.65c8.53-27.36 11.28-64.76-9.98-107.06-28.27-56.28-79.94-79.77-112.86-89.37l-4.77-17.13c34.59 8.32 97.31 32.28 131.19 99.67 20.3 40.41 20.38 77.21 13.71 106.24zm125.28-285.11c-4.31 1.9-9.52.71-12.53-3.18a10.49 10.49 0 0 1 1.85-14.71l32.37-25.13c4.56-3.55 11.17-2.72 14.72 1.86 3.55 4.57 2.72 11.18-1.85 14.72l-32.37 25.13-2.19 1.31zm-49.54-14.3c-4.31 1.92-9.52.72-12.53-3.15a10.5 10.5 0 0 1 1.85-14.72l32.37-25.12c4.56-3.56 11.16-2.73 14.72 1.85 3.54 4.58 2.72 11.18-1.87 14.72l-32.36 25.12-2.19 1.31zm95.26 19.33c-4.31 1.9-9.52.72-12.53-3.17-3.55-4.58-2.72-11.18 1.87-14.72l32.36-25.12c4.57-3.57 11.16-2.73 14.72 1.85 3.55 4.58 2.71 11.17-1.86 14.72l-32.37 25.12-2.19 1.31zm45.36 4.23c-4.31 1.91-9.52.72-12.53-3.17-3.56-4.58-2.73-11.17 1.85-14.72l32.37-25.12c4.57-3.57 11.16-2.73 14.72 1.85a10.5 10.5 0 0 1-1.85 14.72l-32.37 25.12-2.19 1.31zm47.97 1.24c-4.3 1.91-9.51.72-12.52-3.16-3.56-4.58-2.73-11.18 1.85-14.72l32.38-25.12a10.47 10.47 0 0 1 14.71 1.85c3.55 4.58 2.73 11.16-1.85 14.72l-32.37 25.12-2.19 1.31zm50.1-3.01c-4.3 1.91-9.51.72-12.53-3.17-3.55-4.57-2.71-11.17 1.86-14.72l32.37-25.12c4.58-3.56 11.17-2.73 14.72 1.86 3.55 4.58 2.72 11.16-1.87 14.71l-32.36 25.13-2.19 1.31z"/></g><path d="M3349.48 2328.68c-54.03-53.18-480.29-172.06-763.3-93.03-32.42 62.4-73.66 220.55 27.73 366.8 372.03 60.8 579.65 185.94 579.65 185.94s131.9 304.84 210.29 416.72c78.38 111.88 258.13 467.15 258.13 467.15l270.82-115.71s-436.23-1083.1-583.31-1227.87z" fill="#322b2e" class="Y"/><g class="a Y"><path d="M3633 3605.24c.99 0 2.01-.19 2.98-.59l265.05-110.19a7.79 7.79 0 0 0 4.2-10.19c-1.65-3.96-6.2-5.85-10.19-4.2l-265.05 110.18a7.81 7.81 0 0 0-4.2 10.19c1.25 2.99 4.15 4.8 7.21 4.8z"/><path d="M3677.55 3582.96c.95 0 1.92-.17 2.86-.54a7.81 7.81 0 0 0 4.38-10.13c-.54-1.38-56.01-139.74-185.36-336.03-128.48-194.98-262.84-524.55-264.18-527.86a7.81 7.81 0 0 0-10.15-4.3c-3.99 1.63-5.91 6.17-4.3 10.17 1.35 3.31 136.27 334.29 265.61 530.57 128.49 194.96 183.35 331.83 183.88 333.2 1.22 3.05 4.15 4.92 7.26 4.92z"/></g><path d="M3027.39 3625.19l20.45 153.37h168.33l-6.5-157.94z" class="Y f"/><path d="M3631.55 4044.43H2994.9c-4.74-8.6-7.31-20.81-8.38-35.36-3.97-53.85 13.19-139.8 21.6-193.98 1.03-6.33 1.9-12.25 2.58-17.59 1.18-9.06 1.9-16.6 1.9-22.14 0-44.22 39.15-36.64 39.15-36.64 64.42 63.18 137.37-31.56 179.96-.49 0 0 18.36 13.14 68.9 58.62 50.52 45.48 136.51 75.49 209.68 106.11 94.47 39.49 121.27 78.94 126.49 106.11 4.13 21.53-5.22 35.36-5.22 35.36z" class="Y Z"/><g class="d Y"><path d="M3631.55 4044.43H2994.9c-4.74-8.6-7.31-20.81-8.38-35.36h650.25c4.13 21.53-5.22 35.36-5.22 35.36z"/><path d="M3059.86 4044.43h-18.92c18.88-21.56 36.53-54.65 34.23-101.93-3.07-62.91-40.82-105.32-67.04-127.4 1.03-6.33 1.9-12.25 2.58-17.59 28.28 21.61 75.91 68.9 79.62 144.23 2.19 45.17-12.62 78.86-30.46 102.7zm229.94-210.02a10.51 10.51 0 0 1-10.17-7.97c-1.39-5.61 2.04-11.3 7.66-12.7l39.77-9.87c5.62-1.4 11.32 2.04 12.73 7.66a10.51 10.51 0 0 1-7.67 12.71l-39.75 9.87-2.55.31zm-39.51-33.1c-4.71 0-8.99-3.19-10.17-7.96-1.4-5.62 2.02-11.32 7.65-12.71l39.77-9.87c5.62-1.42 11.3 2.02 12.7 7.65s-2.03 11.31-7.66 12.7l-39.77 9.88-2.53.31zm79.28 56.23c-4.71 0-8.99-3.2-10.17-7.98a10.48 10.48 0 0 1 7.65-12.7l39.77-9.88c5.62-1.42 11.32 2.02 12.7 7.65 1.4 5.63-2.03 11.32-7.65 12.71l-39.77 9.87-2.53.33zm39.77 22.22a10.48 10.48 0 0 1-10.16-7.98 10.47 10.47 0 0 1 7.65-12.7l39.77-9.87c5.62-1.41 11.31 2.03 12.7 7.65 1.4 5.63-2.03 11.32-7.66 12.71l-39.77 9.87-2.54.32zm43.37 20.55c-4.71 0-8.99-3.2-10.17-7.97-1.4-5.63 2.03-11.31 7.65-12.7l39.77-9.87c5.62-1.41 11.31 2.02 12.7 7.64a10.49 10.49 0 0 1-7.65 12.71l-39.77 9.88-2.53.32zm47.03 17.53a10.5 10.5 0 0 1-10.17-7.98c-1.39-5.62 2.03-11.31 7.66-12.7l39.76-9.87c5.62-1.41 11.31 2.03 12.72 7.64 1.4 5.63-2.03 11.32-7.66 12.7l-39.78 9.88-2.53.33z"/></g><path d="M2850.26 1079.56c.51 62.45-67.38 176.16-111.37 421.43l-3.27 18.56-6.78 41.83-2.45 17.23-5.74 44.5-1.85 15.18-5.95 59.37-4.31 55.16-1.83 29.02-1.55 30.66c-5.01 109.82-11.37 366.68-2.36 510.85-197.59 124.79-610.4 132.68-888.18-74.44-16.11-98.03 9.12-432.51 17.84-532.28 1.73-19.79 3.8-39.58 6.25-59.37 11.7-95.05 30.97-189.39 54.24-287.42l3.91-16 64.08-252.45c44.91-175.24 124.88-273.37 230.82-270.19 49.32 1.54 89.62-4.72 120.07-12.61l10.66-2.97c36.39-10.56 58.04-22.25 58.04-22.25l229.38 43.58c14.36 32.5 35.79 55.37 60.09 73.21l8.2 5.85c74.85 50.55 171.13 61.62 172.06 163.55z" class="Y Z"/><g class="d Y"><path d="M2728.84 1561.39l-2.45 17.23-5.74 44.5-1.85 15.18-5.95 59.37-4.31 55.16-1.83 29.02-62.46 78.44-72.49-198 132.48-171.44 24.6 70.55zm-361.35 70.86l74.76 197.15 129.43-166.44-73.77-203.65zm-204.51-28.36l76.98 196.3 127.53-167.9-76.06-202.8z"/><path d="M1958.66 1577.88l79.19 195.44 125.66-169.35-78.37-201.96zm-49.08 603.87a5.14 5.14 0 0 1-5.13-4.92c-22.4-547.93 81.36-951.42 82.42-955.43.72-2.74 3.51-4.39 6.26-3.66 2.74.72 4.38 3.52 3.66 6.26-1.04 4-104.42 406.11-82.08 952.41a5.13 5.13 0 0 1-4.91 5.33l-.22.01zm607.43-1160.35a15.35 15.35 0 0 1-30.7 0 15.35 15.35 0 0 1 30.7 0zm-3.91 76.13a15.35 15.35 0 0 1-30.7 0 15.35 15.35 0 0 1 30.7 0zm-4.73 115.36c-37.64-12.07-74.74-35.21-110.28-68.83-61.13-57.82-97.14-127.8-97.51-128.5-1.31-2.58-.37-5.94 2.12-7.48s5.58-.69 6.9 1.91c.35.67 35.68 69.28 95.63 125.91 79.67 75.26 162.71 94.81 246.81 58.11 2.65-1.15 5.58.17 6.53 2.94.95 2.79-.43 5.99-3.08 7.14-48.48 21.15-97.41 24.28-145.45 9.32l-1.68-.52zm11.31-261.35c-54.06-10.26-108.11-68.7-111.08-71.95-1.94-2.12-1.88-5.6.15-7.76 2.02-2.15 5.24-2.18 7.18-.06.91.99 91.23 98.63 148.84 62.15 2.45-1.56 5.55-.71 6.91 1.9 1.36 2.6.48 5.97-1.97 7.52-15.57 9.86-32.8 11.49-50.03 8.21zm-101.37 1147.94c-20.28-3.85-40.64-9.61-61.02-17.27-50.22-18.89-100.68-49.33-149.96-90.45-83.75-69.91-135.91-147.75-136.44-148.53-1.61-2.42-1.06-5.85 1.24-7.67 2.3-1.81 5.45-1.32 7.07 1.11.5.76 51.99 77.53 134.68 146.5 75.94 63.34 194.56 132.89 328.41 104.62 2.77-.58 5.38 1.35 5.83 4.33.46 2.97-1.4 5.85-4.17 6.44-41.17 8.68-83.24 8.99-125.65.92z"/></g><path d="M2446.1 515.97c-2.77 26.26-40.76 12.82-59.09-4.9-8.09-7.81-3.83-26.18-3.26-49.38.68-27.43 7-9.01-11.96-49.7-20.06-43.02 12.89-106.47 40.91-102.73 0 0-23.37-64.86 33.8-100.64 51.41-32.16 84.42 3.85 84.42 3.85s18.63-53.7 65.75-52.69c47.12.99 75.24 50.06 75.24 50.06s38.08-36.33 88.41-6.1c50.33 30.24 25.99 68.14 25.99 68.14s55.32 3.59 69.15 50.22c11.99 40.42-18.04 63.08-18.04 63.08s20.83 21.06 7.39 64.47c-11.48 37.15-39.16 34.96-44.47 60.98-2.95 14.5-9.14 30.92-14.03 42.61-3.85 9.18-15.98 24.07-25.29 22.29-12.04-2.29-16.4-24.81-12.5-37.06 6.58-20.61 13.13-50.6 4.06-70.3-15-32.52 4.35-67.01-26.65-83.5-30.99-16.49-150.51 18.05-219.61-42.77 0 0-3.96 46.15-33.73 54.27-29.78 8.13-24.83 45.13-24.87 75.95-.02 14.38-1.58 43.27-1.64 43.86z" class="Y a"/><path d="M2620.82 798.55l-11.07 58.31c-7.87 4.23-15.68 7.71-23.4 10.55-112.81 41.58-207.76-54.45-207.76-54.45l38.4-202.21 203.82 187.79z" class="Y f"/><path d="M2620.82 798.55l-11.07 58.31c-7.87 4.23-15.68 7.71-23.4 10.55-79.73-50.52-125.31-152.89-125.31-152.89l135.48 61.63 24.3 22.4z" class="Y a"/><path d="M2742.79 553.95s40.55-32.83 51.84 9.85c11.29 42.69-18.16 119.15-66.1 96.62l14.25-106.48z" class="Y n"/><path d="M2752.04 697.89s-22.72 120.6-148.09 96.51c-124.59-23.91-190.94-137.92-194.5-143.3l-.11-.14 30.9-229.48s8.12-129.62 132.81-129.84c91.1-.18 170.75 30.07 203.62 83.83 1.07 1.73 2.08 3.5 3.01 5.29 10.04 18.6 14.63 39.85 12.47 63.44l-40.13 253.71z" class="Y f"/><path d="M2559.07 432.44v.01c3.69 15.3 18.94 24.85 34.31 21.43 8.98-1.99 19.43-3.64 30.16-3.93 15.24-.4 27.07-13.39 25.85-28.58 0 0-57.37-16.45-90.33 11.07zm226.79 43.08h0c-9.04 12.88-26.73 16.17-39.77 7.36-7.63-5.15-16.74-10.51-26.63-14.71-14.03-5.96-20.27-22.38-13.57-36.07 0 0 59.4 5.74 79.97 43.42zm-6.16-94.77c-18.36-10.71-33.79-6.92-67.01.72-48.01 11.04-94.24-15.88-133.77-46.58-39.54-30.7-71.72-4.54-60.68 18.72 11.02 23.27 6.26 39.5-15.23 62.43-21.49 22.9 24.05 44.11-6.26 59.52-12.77 6.49-14.54 19.47-12.32 32.32 2.41 14.01-11.61 25.21-24.85 20.05-13.58-6.34-28.88-35.44-28.88-35.44l9.56-71.01s8.12-129.62 132.81-129.84c91.1-.18 170.75 30.07 203.62 83.83 1.07 1.73 2.08 3.5 3.01 5.29z" class="a Y"/><path d="M2605.56 555.65c-1.67 8.78-21.1 12.46-43.41 8.23-22.3-4.23-39.04-14.79-37.36-23.56 1.67-8.78 21.1-12.46 43.4-8.23s39.04 14.79 37.37 23.56zm161.6 46.68c-3.18-.28-6.47-.75-9.82-1.38-22.28-4.23-39.01-14.79-37.34-23.56 1.67-8.78 21.1-12.47 43.38-8.23 3.02.58 5.94 1.26 8.71 2.05l-4.92 31.13z" class="n Y"/><path d="M2622.09 508.72c-2.28 12.06-9.61 20.8-16.35 19.51-6.75-1.28-10.36-12.1-8.07-24.15 2.29-12.06 9.62-20.8 16.37-19.51 6.73 1.28 10.34 12.1 8.06 24.15zm121.16 23.02c-2.29 12.06-9.62 20.79-16.36 19.51-6.76-1.28-10.37-12.09-8.08-24.15 2.3-12.06 9.62-20.79 16.36-19.51 6.75 1.28 10.36 12.1 8.07 24.15zm-74.53 109.34c-44.06-8.37-72.98-53.01-73.36-53.62-1.5-2.35-.79-5.46 1.56-6.96s5.48-.8 6.96 1.55c1.89 2.95 46.74 71.97 108.61 43.45 2.53-1.17 5.53-.06 6.71 2.47a5.05 5.05 0 0 1-2.48 6.69c-17.32 7.99-33.49 9.18-48 6.42zm-210.71-31.44c-.82 1.22-23.68 35.02-48.54 41.47l-.1-.15 3.46-25.59s20.44.38 45.19-15.72z" class="a Y"/><path d="M2451.83 521.7s-35.91-73.91-80.89-29.73c-37.07 36.4-2.8 156.13 61.93 129.63l18.97-99.91z" class="Y f"/><g class="a Y"><path d="M2429.97 600.85a5.03 5.03 0 0 1-4.08-5.35c3.95-50.03-33.87-74.92-35.47-75.95a5.06 5.06 0 0 1-1.54-6.97c1.51-2.35 4.62-3.04 6.96-1.54 1.83 1.16 44.54 29.03 40.11 85.25a5.06 5.06 0 0 1-5.43 4.64l-.55-.07z"/><path d="M2389.39 561.99c-1.44-.28-2.76-1.18-3.51-2.56-1.32-2.46-.41-5.52 2.04-6.84 2.29-1.23 22.73-11.86 36.91-5.23a5.05 5.05 0 0 1 2.42 6.72c-1.18 2.52-4.19 3.61-6.71 2.43-8.15-3.83-22.84 2.3-27.83 4.97-1.06.56-2.24.72-3.33.51z"/></g><g class="e Y"><path d="M2849.95 555.05l-73.7-11.35-1.93 10.16.15.03 73.9 11.38c2.82.43 5.46-1.51 5.89-4.33.44-2.82-1.36-5.53-4.33-5.89zm-258.98-130.62c-41.71-7.91-82.1 19.58-90.03 61.29-7.92 41.71 19.57 82.1 61.29 90.02 41.71 7.93 82.1-19.56 90.03-61.28 7.92-41.71-19.57-82.1-61.29-90.03zM2560.3 585.9c-47.32-8.98-78.5-54.8-69.51-102.11 8.98-47.32 54.79-78.5 102.11-69.52 47.32 8.99 78.5 54.81 69.51 102.12-8.98 47.32-54.8 78.5-102.11 69.51z"/><path d="M2793.63 462.93c-41.71-7.93-82.1 19.56-90.02 61.29-7.93 41.7 19.56 82.09 61.28 90.02 41.71 7.93 82.1-19.57 90.03-61.29 7.93-41.71-19.58-82.1-61.29-90.02zm-30.67 161.47c-47.31-8.99-78.5-54.8-69.51-102.12 8.98-47.32 54.8-78.5 102.11-69.51 47.32 8.98 78.5 54.8 69.52 102.11-8.99 47.32-54.8 78.5-102.12 69.52zm-376.55-141.93l-1.74-.68a5.18 5.18 0 0 1-1.69-7.12c33.84-54.82 118.08-7.46 118.92-6.96a5.17 5.17 0 0 1 1.92 7.04c-1.42 2.48-4.57 3.34-7.05 1.93-.77-.44-76.39-42.89-104.99 3.43-1.15 1.87-3.31 2.75-5.36 2.36z"/></g><path d="M2659.84 578.78c-2.74-.51-4.53-3.16-4.02-5.89.52-2.74 3.16-4.54 5.91-4.02 18.24 3.46 28.61-4.55 32.23-8.19l-24.02-89.84c-.71-2.69.9-5.46 3.6-6.17a5.04 5.04 0 0 1 6.16 3.6l24.71 92.4a5.1 5.1 0 0 1-.78 4.27c-.58.79-14.4 19.44-43.79 13.85z" class="Y a"/><path d="M2701.66 510.05c-1.3-.24-2.52-1-3.33-2.19-11.37-16.97-35-8.89-35.24-8.82a5.17 5.17 0 0 1-6.59-3.16 5.18 5.18 0 0 1 3.16-6.59c10.84-3.8 34.64-6.03 47.27 12.81 1.59 2.37.96 5.58-1.42 7.18-1.17.78-2.55 1.03-3.85.78z" class="Y e"/><path d="M2391.63 744.31s-84.62-2.02-102.19 79.31l51.1 113.38s48.69-66.01 161.12-61.2c0 0-83.84-62.7-110.02-131.49zm173.55 129.4s41.7-16.57 52.99-61.23c0 0 74.66 43.49 73.73 112.21l-69.12 34.1s-23.2-59.93-57.61-85.08z" class="d Y"/><path d="M1812.6 2239.93s-131.38 518.45 549.94 518.45c363.93 0 536.88-35.12 536.88-35.12s8.75 321.33 25.67 456.88c16.92 135.56 76.91 473.32 76.91 473.32l286.62 22.2s45.8-1176.38-129.86-1284.71-428.22-111.55-861.88-153.15c0 0-389.32-65.91-484.28 2.13z" class="Y a"/><g class="l Y"><path d="M3041.25 3559.51l1.83-.22c4.18-1.01 6.77-5.21 5.76-9.39-39.59-165.48-55.33-402.54-67.97-593.03-12.47-187.77-19.88-286.57-39.43-303.83-21.49-18.99-85.3-12.21-191.03-.96-131 13.93-328.98 34.98-542.43 10.51-106.02-12.16-187.3-53.69-241.57-123.44-97.35-125.09-75.02-300.69-74.77-302.46a7.78 7.78 0 0 0-6.69-8.75c-4.29-.59-8.19 2.41-8.77 6.67-1.01 7.44-23.52 183.67 77.85 314.02 56.95 73.23 141.79 116.77 252.17 129.43 215.17 24.68 414.17 3.52 545.86-10.48 90.91-9.67 162.71-17.31 179.05-2.85 3.69 3.26 11.03 19.38 18.63 90.64 5.61 52.63 10.22 122.1 15.56 202.54 12.68 191.07 28.46 428.87 68.36 595.62.85 3.58 4.06 5.99 7.58 5.99z"/><path d="M3285.52 3582.89c4.09 0 7.51-3.19 7.77-7.32.26-4.3-3.02-8-7.32-8.25l-293.1-17.67c-4.36-.28-7.99 3.01-8.25 7.31s3.01 7.99 7.32 8.25l293.58 17.68z"/></g><path d="M2288.21 1050.33l1.21 20.27 1.49 21.79 3.48 44.07 8.85 88.29 5.42 43.93 5.99 43.67c4.21 29.02 9.15 57.76 14.4 86.2 5.26 28.41 11.15 56.46 17.77 83.89l10.51 40.63c3.63 13.37 7.42 26.57 11.48 39.48 8.06 25.83 17.05 50.61 26.94 73.55 9.93 22.83 20.67 43.9 31.8 61.33 11.1 17.38 22.59 30.99 31.71 38.93 4.58 4.1 8.46 6.73 11.66 8.62l1.18.67.58.31.28.16.19.1.44.19c2.41 1.02 4.63 2.1 7.24 3.15l3.78 1.59 4 1.56c2.61 1.07 5.46 2.08 8.25 3.12 11.27 4.15 23.6 8.02 36.37 11.84 12.77 3.78 26.08 7.35 39.67 10.73 27.18 6.87 55.49 13.15 84.29 18.77l87.7 15.86 44.56 7.08 44.85 6.86 90.33 12.6 92.45 12.1c60.28 7.91 102.75 63.17 94.86 123.46-7.03 53.72-51.73 93.27-104.02 95.67l-12.71.6-12.23.47-24.28.76-48.39.79c-32.22.12-64.47-.01-96.79-1.01l-48.56-1.65-48.73-2.71c-32.57-2.08-65.33-4.56-98.35-8.3-33.04-3.65-66.39-7.95-100.46-13.75-34.11-6-68.73-13.02-105.66-23.82l-14.02-4.26-7.07-2.24-7.23-2.45c-4.76-1.57-9.78-3.46-14.67-5.23l-.92-.35-1.17-.45-2.42-.99-4.82-1.99c-3.24-1.3-6.34-2.77-9.49-4.19-25.04-11.54-47.72-25.79-67.56-41.23-39.92-31.04-69.18-65.86-93.14-100.14-23.89-34.42-42.52-68.83-58.37-102.93-15.81-34.11-28.95-67.9-40.43-101.46-5.76-16.79-11.05-33.51-16.06-50.19-4.94-16.7-9.46-33.36-13.76-49.98-8.55-33.24-15.99-66.32-22.6-99.31-6.6-32.98-12.09-65.91-17.07-98.76l-6.92-49.24-5.76-49.21c-3.54-32.8-6.53-65.58-8.72-98.49l-2.87-49.53-1-25.05-.38-12.73-.27-13.86c-1.55-80.95 62.83-147.84 143.78-149.39 78.85-1.51 144.35 59.51 149.14 137.48l.26 4.32z" class="Y f"/><g class="a Y"><path d="M2969.77 1832.44s-37.55 121.52-14.13 220.76c14.17 9.76 37.07 15.56 54.28 11.16 0 0-23.54-108.37 14.62-231.51-18.48-7.88-36.79-7.96-54.78-.4z"/><path d="M3041.64 1985.97c-2.38 38.39-35.43 67.6-73.82 65.23-38.4-2.38-67.59-35.44-65.22-73.83s35.42-67.59 73.82-65.22c38.39 2.37 67.59 35.43 65.22 73.82z"/></g><path d="M2969.02 2031.71c-27.58-1.7-48.65-25.53-46.94-53.14 1.7-27.58 25.53-48.65 53.12-46.94 27.6 1.7 48.66 25.55 46.94 53.14-1.7 27.58-25.53 48.65-53.13 46.94z" class="Y e"/><g class="n Y"><path d="M2340.32 1828.65a5.15 5.15 0 0 1-3.42-1.3c-2.11-1.89-2.3-5.13-.41-7.24 45.32-50.69 116.85-81.21 119.88-82.48a5.12 5.12 0 0 1 6.71 2.74c1.11 2.6-.11 5.61-2.73 6.71-.72.31-72.46 30.94-116.21 79.88a5.1 5.1 0 0 1-3.82 1.7z"/><path d="M2350.72 1763.49c-2.35 0-4.46-1.62-4.99-4-.63-2.76 1.12-5.51 3.87-6.12 2.42-.55 59.77-13.28 98.26-11.2 2.83.17 4.99 2.58 4.84 5.4-.15 2.83-2.62 4.97-5.4 4.84-37.11-2.07-94.88 10.83-95.45 10.95l-1.13.12z"/></g><path d="M1961.49 1071.76c1.5 68.87 20.28 308.28 58.66 435.84l333.24-61.6s-39.08-260.87-53-422.12c-4.53-52.51-31.84-100.86-75.68-130.11-29.46-19.65-68.25-32.51-116.96-23.35-95.94 18.06-130.11 109.64-141.42 156.3-3.57 14.75-5.18 29.87-4.84 45.04z" class="Y Z"/><path d="M2020.14 1512.73c-2.17 0-4.19-1.39-4.88-3.57-61.99-194.03-56.78-388.8-56.73-390.74.09-2.78 2.37-4.97 5.13-4.97h.17c2.82.09 5.05 2.45 4.96 5.28-.06 1.93-5.2 195.02 56.25 387.3.86 2.71-.62 5.59-3.32 6.45l-1.57.25zm333.25-61.59a5.11 5.11 0 0 1-5.04-4.23c-19.54-110.64-46.38-354.4-46.65-356.85-.32-2.82 1.72-5.34 4.53-5.66 2.79-.3 5.35 1.72 5.66 4.54.26 2.45 27.08 245.88 46.54 356.2.49 2.79-1.36 5.44-4.15 5.94l-.89.07z" class="d Y"/><path d="M1841.45 3483.23h920.18c21.52 0 38.97-17.45 38.97-38.98 0-21.54-17.45-38.98-38.97-38.98h-920.18c-21.52 0-38.97 17.44-38.97 38.98 0 21.53 17.45 38.98 38.97 38.98z" class="Y g"/><g class="b Y"><path d="M2846.3 4078.48c1.72 0 3.46-.12 5.22-.35 21.34-2.86 36.32-22.47 33.46-43.81l-167.62-1251.53c-2.6-19.36-19.1-33.81-38.64-33.81h-750.74c-19.55 0-36.09 14.49-38.65 33.89L1724.32 4034.4c-2.81 21.34 12.21 40.93 33.55 43.73 21.33 2.84 40.92-12.21 43.73-33.55l160.54-1217.64h682.47l163.09 1217.72c2.62 19.58 19.36 33.81 38.59 33.81z"/><path d="M2461.29 2787.96h-487.58c-154.47 0-319.89-84.53-343.61-237.17-31.72-204.11-39.56-401.78-30.7-583.17 10.02-205.15 115.26-396.01 276.53-523.19 0 0-120.58 621.42-32.35 1010.26 50.33 221.82 617.72 333.27 617.72 333.27z"/></g><path d="M3737.44 2081.7H2561.23a4.75 4.75 0 0 1-4.75-4.75c0-36.5 29.6-66.11 66.11-66.11h1114.85c2.61 0 4.75 2.12 4.75 4.75v61.36c0 2.61-2.13 4.75-4.75 4.75z" fill="#6f3b44" class="Y"/><path d="M4130.15 1431.79l-146.81 620.93c-3.93 16.54-18.68 28.23-35.69 28.23h-904.37c-23.67 0-41.14-22.09-35.69-45.11l146.8-620.91a36.69 36.69 0 0 1 35.7-28.23h904.37c23.67 0 41.14 22.09 35.7 45.1z" fill="#4c2d2e" class="Y"/><path d="M4028.58 1559.72c-9.11 48.85-56.09 88.44-104.93 88.44-48.85 0-81.05-39.59-71.94-88.44 9.12-48.84 56.1-88.43 104.94-88.43s81.05 39.59 71.93 88.43z" class="Y b"/><path d="M3928.7 1542.8c-1.83 9.77-6.75 17.7-10.99 17.7s-6.21-7.93-4.39-17.7c1.83-9.76 6.74-17.69 10.98-17.69s6.22 7.93 4.4 17.69zm46.13 0c-1.83 9.77-6.73 17.7-10.98 17.7-4.24 0-6.21-7.93-4.4-17.7 1.83-9.76 6.75-17.69 10.99-17.69s6.22 7.93 4.39 17.69zm-41.95 59.99c-38.03 0-39.64-38.02-39.66-38.41-.06-2.07 1.64-4.12 3.79-4.57 2.16-.45 3.97.87 4.03 2.93.05 1.38 1.54 32.36 33.27 32.36 31.78 0 44.81-31.04 45.35-32.36.84-2.07 3.14-3.39 5.12-2.92 1.99.45 2.92 2.49 2.08 4.56-.15.39-15.95 38.41-53.99 38.41z" class="a Y"/><path d="M3926.19 2024.99h-365.72c-2.36 0-3.85-1.93-3.31-4.28l20.03-88.86c.53-2.36 2.88-4.28 5.24-4.28h365.72c2.35 0 3.83 1.92 3.3 4.28l-20.02 88.86c-.53 2.35-2.89 4.28-5.24 4.28z" class="Y Z"/><path d="M3225.91 1386.69l-156.31 694.25h-26.32c-23.67 0-41.14-22.09-35.69-45.11l146.8-620.91a36.69 36.69 0 0 1 35.7-28.23h35.83zm457.38 371.42c-4.55 37.97-39.03 68.74-76.99 68.74-37.97 0-65.05-30.77-60.5-68.74 4.56-37.97 39.03-68.74 76.99-68.74 37.97 0 65.05 30.77 60.5 68.74z" fill="#6f3b44" class="Y"/><path d="M5007.19 2130.86v47.78c0 27.51-23.2 49.78-51.85 49.78h-3606.7c-28.63 0-51.83-22.27-51.83-49.78v-47.78c0-27.48 23.2-49.75 51.83-49.75h3606.7c28.65 0 51.85 22.27 51.85 49.75z" class="Y c"/><path d="M4807.91 2351.25H1599.43c-65.38 0-118.37-53-118.37-118.38v-5.01h3445.23v5.01c0 65.38-53 118.38-118.38 118.38zm-3211.92 693.82h3264.2v-84.6h-3264.2z" class="j Y"/><path d="M1439.46 4093.86l420.29-1742.61h-147.6l-420.29 1742.61zm3557.08 0l-420.3-1742.61h147.62l420.27 1742.61z" class="c Y"/><path d="M1296.81 2176.62h3710.38v-21.87H1296.81z" class="Y j"/><path d="M4231.69 2024.27l-45.72 7-52.81-344.71 45.72-7.01z" class="Y b"/><path d="M4178.88 1679.57l-45.72 7 15.28-53 10.39 15.68z" class="Y f"/><path d="M4231.69 2024.27l-45.72 7-3.83-25.05 45.72-7z" class="Y a"/><path d="M4231.7 2044.69l-39.63 6.07c-1.68.26-3.26-.89-3.52-2.58l-2.58-16.92 45.72-7 2.58 16.92c.26 1.68-.89 3.25-2.57 3.51z" class="Y Z"/><path d="M4158.83 1649.25l-15.61 2.4 5.22-18.08z" class="Y a"/><path d="M4179.38 1988.27l45.72-7.02 2.76 17.97-45.72 7zm-32.25-286.47l39.1 255.27c.31 1.93 2.1 3.25 4.03 2.96 1.93-.3 3.25-2.1 2.96-4.03l-39.1-255.27c-.31-1.93-2.11-3.25-4.04-2.95-1.93.29-3.24 2.09-2.95 4.02zm17.88-2.75l39.1 255.27c.31 1.94 2.11 3.26 4.03 2.96 1.94-.3 3.25-2.1 2.96-4.03l-39.1-255.27c-.31-1.93-2.1-3.25-4.04-2.95-1.92.29-3.24 2.09-2.95 4.02z" class="g Y"/><path d="M4262.69 2029.87l-46.26.15-1.14-348.72 46.26-.16z" class="Y i"/><path d="M4261.55 1681.15l-46.26.16 22.97-50.15 7.95 17.05z" class="Y f"/><path d="M4262.69 2029.87l-46.26.15-.08-25.34 46.27-.14z" class="Y a"/><path d="M4259.67 2050.08l-40.11.13c-1.7 0-3.08-1.37-3.08-3.07l-.06-17.12 46.26-.15.05 17.12c.01 1.7-1.37 3.09-3.06 3.09z" class="Y Z"/><path d="M4246.21 1648.21l-15.79.05 7.84-17.1z" class="Y a"/><path d="M4216.29 1986.52l46.27-.16.06 18.18-46.27.14zm10.56-288.08l.84 258.26c0 1.95 1.6 3.52 3.55 3.51 1.95 0 3.53-1.59 3.52-3.54l-.84-258.24c0-1.95-1.6-3.53-3.55-3.53a3.54 3.54 0 0 0-3.52 3.55zm18.1-.07l.84 258.25c0 1.95 1.59 3.54 3.55 3.53 1.95-.01 3.52-1.6 3.52-3.55l-.85-258.24c0-1.96-1.59-3.53-3.54-3.53-1.96.01-3.53 1.6-3.52 3.55z" class="k Y"/><path d="M4292.31 2031.32l-45.8-6.51 49.04-345.26 45.81 6.51z" class="Y c"/><path d="M4341.36 1686.06l-45.81-6.51 29.94-46.3 5.43 18.01z" class="Y f"/><path d="M4292.31 2031.32l-45.8-6.51 3.57-25.08 45.8 6.51z" class="Y a"/><path d="M4286.43 2050.88l-39.7-5.64c-1.68-.24-2.86-1.78-2.62-3.48l2.4-16.95 45.8 6.51-2.41 16.94c-.24 1.68-1.79 2.86-3.47 2.61z" class="Y Z"/><path d="M4330.92 1651.26l-15.64-2.22 10.21-15.79z" class="Y a"/><path d="M4252.63 1981.75l45.8 6.5-2.55 17.99-45.8-6.51zm51.89-283.56l-36.32 255.68c-.28 1.94 1.08 3.72 2.99 4 1.94.27 3.73-1.08 4-3.01l36.33-255.68c.26-1.94-1.07-3.72-3.01-4-1.93-.28-3.72 1.08-4 3.01zm17.93 2.52l-36.32 255.68a3.53 3.53 0 0 0 2.99 4c1.94.28 3.72-1.07 4-3.01l36.32-255.67c.28-1.94-1.07-3.72-3.01-4a3.53 3.53 0 0 0-3.99 2.99z" class="j Y"/><path d="M4356.37 1819.09l-2.4 18.71-5.54 42.79-2.15 16.79-23.78 184.15h-181.78l-1.77-13.8-2.08-15.94-30.03-232.7z" class="Y Z"/><path d="M4353.97 1837.8l-2.2 16.98h-240.33l-2.18-16.98zm-5.54 42.79l-2.15 16.79h-229.34l-2.15-16.79zm-5.5 42.8l-2.16 16.58h-218.31l-2.16-16.58zm-5.53 42.8l-2.12 16.35h-207.34l-2.11-16.35zm-5.55 42.79l-2.07 16.16h-196.35l-2.06-16.16zm-5.51 42.81l-2.07 15.94h-185.32l-2.08-15.94z" class="d Y"/><path d="M4447.47 1869.74h392.77v-56.44h-392.77zm398.09 164.52c-39.62 47.66-153.85 48.47-190.34 47.43h-.03c-7.18-.18-11.33-.47-11.33-.47s-154.29 10.09-201.72-46.96c-26.92-32.39-11.82-80.99 6.26-116.96 4.3-8.56 8.78-16.4 12.91-23.15 9.07-14.87 16.44-24.39 16.44-24.39h332.19s15.54 20.11 29.37 47.55c18.07 35.97 33.17 84.56 6.26 116.96z" class="b Y"/><path d="M4516.82 1990.68c-16.62 52.61 45.47 92.49 127.04 90.54 0 0-154.29 10.09-201.72-46.96-26.92-32.39-11.82-80.99 6.26-116.96l1.3-2.54 1.3-2.52c3.49-6.59 7-12.69 10.31-18.09 9.07-14.87 16.44-24.39 16.44-24.39h332.19s15.54 20.11 29.37 47.55h-148.63c-37.24 0-74.28 6.71-108.79 20.68-29.1 11.79-57.59 29.03-65.07 52.69z" class="Y g"/><path d="M4782.28 1762.7c-4.56 6.81-9.09 13.16-13.32 18.91-13.57 18.42-24.39 30.69-25.24 31.68l-.06.02h-199.61l-.06-.02c-.86-.99-11.69-13.27-25.26-31.68-4.23-5.75-8.75-12.1-13.32-18.91-24.48-36.52-50.34-85.84-43.25-123.39 2.15-11.55 5.56-19.55 9.78-24.93 2.19-2.74 4.53-4.81 7.09-6.31 21.54-12.57 54.57 16.81 65.02 15.86 14.09-1.27-8.84-71.63-41.54-121.56-30.57-46.69-50.48-109.07-13.04-131.56 1.35-.8 2.74-1.55 4.23-2.25 1.36-.67 2.77-1.24 4.3-1.79 48.59-17.93 65.24 47.35 85.72 38.38 20.14-8.84-41.54-217.23 55.43-217.65 1.51-.03 3.1.02 4.71.11 1.61-.09 3.19-.14 4.72-.11 96.94.42 35.27 208.81 55.41 217.65 20.49 8.97 37.13-56.3 85.72-38.38 1.52.55 2.93 1.13 4.3 1.79 1.49.7 2.87 1.44 4.23 2.25 37.44 22.49 17.52 84.87-13.02 131.56-32.7 49.93-55.62 120.29-41.56 121.56 10.47.94 43.47-28.44 65.01-15.86 2.55 1.5 4.91 3.57 7.1 6.31 4.2 5.37 7.62 13.38 9.77 24.93 7.09 37.55-18.77 86.86-43.25 123.39z" class="Y i"/><g class="k Y"><path d="M4648.58 1187.52v625.79h-9.44v-625.79l4.73.12 4.72-.12z"/><path d="M4647.41 1546.08l-3.55 3.09-3.58 3.08-1.15-1.32-153.63-177.41 3.96-2.69 4.25-2.22 153.71 177.49zm0 256.48l-3.55 3.09-3.58 3.09-1.15-1.32-167.19-193.03c2.16-2.74 4.52-4.81 7.06-6.28l168.41 194.47z"/><path d="M4802.2 1373.51l-154.78 178.73-3.55-3.08-3.58-3.09 3.58-4.12 4.72-5.47L4794 1368.59c1.51.69 2.89 1.44 4.24 2.22l3.96 2.69zm13.55 240.87l-168.34 194.35-3.55-3.09-3.58-3.09 3.58-4.11 4.72-5.48 160.09-184.88c2.54 1.48 4.91 3.55 7.07 6.28z"/></g><path d="M2015.5 2030.53c-117.38 146.18-596.33 154.45-659.16 44.97-30.61-53.33-22.18-121.6-5.46-177.64 1.76-5.91 3.61-11.69 5.51-17.28 17.2-50.44 38.9-87.28 38.9-87.28s-1.99 52.09 174.68 33.34c20.22-2.13 43.17-3.04 67.79-2.73l13.91.29c190.51 5.71 465.31 79.98 363.85 206.32z" class="Y a"/><path d="M1630.68 1943.43c-27.66 30.85-75.66 42.5-138.85 33.63l-4.25-.62c-79.63-12.29-118.43-50.14-136.71-78.57 1.76-5.91 3.61-11.69 5.51-17.28 13.56 26.16 49.21 70.74 137.36 83.08 58.49 8.21 102.4-1.92 126.9-29.26 22.08-24.68 27.92-62.75 17.1-110.49l13.91.29c10.83 50.69 3.65 91.72-20.97 119.21z" class="Y b"/><path d="M1949.12 1924.14s112.47-8.32 125.8-65.05c13.34-56.75-244.59-6.98-273.05-123.84s85.59-210.04 122.64-175.86c43.89 40.5-52.23 57.75-57.39 117.86-4.29 49.94 26.67 95.96 122.71 102.8 96.03 6.85 138.97 21.78 138.55 66.42-.45 48.58-78.24 98.67-125.54 101.8-47.3 3.15-53.71-24.15-53.71-24.15zm-493.34-173.8s-33.39-43.39-87.69-72.29c-7.91-4.2-17.31 2.13-16.39 11.05l10.29 99.48s78 6.62 93.79-38.24z" class="a Y"/><path d="M1381.08 1776.5c-4.41-22.55-5.49-46.26-10.69-72.85 0 0 58.62 34.95 62.13 54.18 0 0-32.35 24.5-51.44 18.67z" class="Y l"/><path d="M1557.58 1754.31s45.81-27.61 105.87-35.17c9.84-1.24 17.04 9.12 12.59 17.97l-41.07 81.89s-79.01-17.15-77.4-64.69z" class="Y a"/><path d="M1617.64 1805.87c12.32-19.4 21.95-41.1 36.46-63.97 0 0-67.31 11.22-77.57 27.87 0 0 21.22 34.59 41.11 36.11z" class="Y l"/><path d="M1412.21 1752.04s-69.42 10.61-64.21 91.97c5.22 81.36 84.43 90.02 84.43 90.02s14.13 26.18 63.03 36.76c31.32 6.77 77.96 4.62 89.78-18.4 0 0 68-24.93 67.22-85.54-.87-67.15-81.81-149.59-240.25-114.81zm-70.52 192.34s28.33 115.48 52.07 139.32c23.74 23.85 49.49 36.89 82.59 40.9 53.41 6.48 43.53 42.08 27.6 54.32-18.45 14.18-51.14 6.1-100.24 6.1-42.41 0-82.39-8.47-96.71-36.35-14.33-27.86-13.37-110.37 1.87-156.78 9.4-28.63 22.65-43.58 32.83-47.52zm358.76 7.62s-28.33 115.47-52.07 139.32c-23.73 23.84-49.66 35.69-82.57 40.9-40.26 6.36-36.52 44.4-27.62 54.32 15.56 17.33 51.16 6.1 100.25 6.1 42.41 0 92.56-16.97 106.89-44.85 14.34-27.87 3.19-101.87-12.04-148.28-9.4-28.62-22.64-43.58-32.84-47.51zm237.14-23s74.72-17.9 98.78 38.42c37.87 88.55 7.6 139.15-93.33 153.21-100.94 14.06-215.69 33.15-128.93-38.65 86.77-71.8 123.48-152.99 123.48-152.99z" class="a Y"/><path d="M1535.41 1883.48s-30.14-3.2-38.18.49c-13.46 6.2 8.19 31.36 21.99 33.49 13.8 2.12 27.23-14.04 27.04-24.56-.21-10.51-10.86-9.42-10.86-9.42zm15.52-23.2c-1.45-.9-3.05.93-1.95 2.25 6 7.15 17.05 16.57 32 13.42 12.36-2.61 17.04-11.29 18.72-18.85.37-1.68-1.92-2.62-2.77-1.13-3.18 5.59-9.37 11.3-21.42 12.07-9.09.58-18.43-3.94-24.58-7.76zm-116.89-6.18c-1.26-1.15-3.17.36-2.33 1.85 4.58 8.13 13.71 19.42 28.99 19.08 12.62-.29 18.83-7.97 21.85-15.09.68-1.58-1.39-2.91-2.5-1.6-4.15 4.9-11.3 9.37-23.28 7.92-9.04-1.1-17.38-7.26-22.73-12.15z" class="l Y"/><path d="M3127.67 99.1h-.01l-30.89-.05c-2.12 0-3.85-1.72-3.84-3.85 0-2.12 1.72-3.85 3.85-3.85h0l30.91.05c2.12 0 3.83 1.72 3.83 3.85 0 2.12-1.72 3.85-3.85 3.85zm61.8.1h-.01l-30.89-.05c-2.12-.01-3.84-1.73-3.84-3.85s1.72-3.84 3.85-3.84l30.91.05c2.12 0 3.83 1.72 3.83 3.85 0 2.12-1.72 3.85-3.85 3.85zm61.8.09h0l-30.9-.04c-2.12-.01-3.85-1.73-3.84-3.85 0-2.12 1.72-3.83 3.85-3.83l30.91.04c2.12.01 3.85 1.73 3.83 3.85 0 2.12-1.72 3.84-3.85 3.84zm61.8.1h-.01l-30.89-.05c-2.13 0-3.85-1.73-3.85-3.85s1.72-3.84 3.85-3.84h.01l30.89.05c2.13 0 3.85 1.72 3.85 3.85 0 2.12-1.72 3.85-3.85 3.85zm61.79.1h0l-30.9-.05a3.85 3.85 0 0 1-3.83-3.85c0-2.12 1.72-3.83 3.85-3.83h.01l30.89.05c2.12 0 3.85 1.72 3.84 3.85 0 2.12-1.72 3.85-3.85 3.85zm61.81.09h0l-30.91-.05c-2.12 0-3.85-1.72-3.85-3.85.01-2.12 1.74-3.85 3.85-3.85h.01l30.91.05c2.12 0 3.83 1.72 3.83 3.85a3.85 3.85 0 0 1-3.85 3.84zm61.8.1h-.01l-30.89-.05c-2.13 0-3.85-1.74-3.85-3.86s1.72-3.83 3.85-3.83h.01l30.89.05c2.13 0 3.85 1.72 3.85 3.85a3.86 3.86 0 0 1-3.85 3.85zm61.79.09h0l-30.89-.04c-2.12-.01-3.85-1.73-3.85-3.86a3.85 3.85 0 0 1 3.85-3.83h.01l30.89.04c2.12.01 3.85 1.73 3.83 3.86 0 2.12-1.72 3.83-3.85 3.83zm61.81.1h0l-30.91-.05c-2.13 0-3.85-1.72-3.85-3.86 0-2.11 1.72-3.83 3.85-3.83h.01l30.9.05c2.12 0 3.84 1.72 3.84 3.86 0 2.11-1.72 3.83-3.85 3.83zm61.8.09h-.01l-30.91-.04c-2.12 0-3.84-1.73-3.83-3.86 0-2.12 1.72-3.83 3.85-3.83l30.91.04c2.12.01 3.85 1.73 3.85 3.86-.01 2.12-1.74 3.83-3.85 3.83zm61.79.1h0l-30.89-.05c-2.12 0-3.85-1.72-3.85-3.85.01-2.12 1.73-3.85 3.85-3.85h.01l30.9.05a3.83 3.83 0 0 1 3.83 3.85 3.84 3.84 0 0 1-3.85 3.85zm61.81.09h-.01l-30.89-.04c-2.13-.01-3.85-1.72-3.85-3.86 0-2.11 1.72-3.83 3.85-3.83l30.91.04a3.86 3.86 0 0 1 3.84 3.87c-.01 2.11-1.73 3.83-3.84 3.83zm61.79.1h0l-30.89-.04c-2.12 0-3.85-1.73-3.84-3.85 0-2.12 1.71-3.84 3.85-3.84l30.89.04a3.86 3.86 0 0 1 3.84 3.86c0 2.12-1.72 3.83-3.85 3.83zm61.81.1h-.01l-30.89-.05c-2.12 0-3.85-1.72-3.85-3.85.01-2.12 1.72-3.85 3.85-3.85h.01l30.89.05c2.13 0 3.85 1.72 3.85 3.85 0 2.12-1.72 3.85-3.85 3.85zm61.8.09h-.01l-30.91-.04a3.85 3.85 0 0 1-3.83-3.85c0-2.12 1.72-3.84 3.85-3.84l30.9.04c2.12.01 3.85 1.74 3.85 3.86a3.85 3.85 0 0 1-3.85 3.83zm61.71.95l-1.01-.14a20.45 20.45 0 0 0-5.29-.72l-24.51-.04c-2.12 0-3.85-1.72-3.85-3.85.01-2.12 1.73-3.85 3.85-3.85h.01l24.52.04a28.13 28.13 0 0 1 7.31.99c2.05.56 3.25 2.69 2.69 4.73a3.85 3.85 0 0 1-3.71 2.83zm-987.79 39.65h-.01a3.85 3.85 0 0 1-3.84-3.85l.03-18.32c.01-4.91 1.32-9.73 3.79-13.93 1.08-1.83 3.44-2.45 5.27-1.36a3.84 3.84 0 0 1 1.36 5.26c-1.78 3.02-2.74 6.51-2.74 10.05l-.03 18.32c0 2.12-1.72 3.83-3.85 3.83zm1005.16 14.14h0c-2.13 0-3.85-1.73-3.85-3.85l.05-30.85a3.87 3.87 0 0 1 3.85-3.87c2.12 0 3.85 1.7 3.85 3.82l-.05 30.92a3.84 3.84 0 0 1-3.84 3.83zM3066.7 202.84h-.01c-2.12 0-3.85-1.72-3.84-3.85l.05-30.9c0-2.12 1.72-3.84 3.85-3.84h0a3.86 3.86 0 0 1 3.85 3.86l-.05 30.89a3.84 3.84 0 0 1-3.85 3.83zm1005.15 14.14h0c-2.12 0-3.85-1.72-3.85-3.85l.05-30.9c.01-2.12 1.73-3.85 3.85-3.85h.01a3.86 3.86 0 0 1 3.84 3.86l-.05 30.89c0 2.12-1.72 3.85-3.85 3.85zM3066.6 264.64h-.01c-2.12 0-3.84-1.72-3.84-3.85l.05-30.91c0-2.12 1.72-3.83 3.85-3.83h.01c2.12 0 3.84 1.72 3.84 3.85l-.05 30.89c0 2.12-1.72 3.85-3.85 3.85zm1005.16 14.14h-.01c-2.12 0-3.85-1.72-3.83-3.85l.05-30.91c0-2.12 1.72-3.85 3.85-3.85 2.12.01 3.85 1.74 3.85 3.86l-.05 30.89c-.01 2.12-1.73 3.85-3.84 3.85zm-1005.25 47.66h-.01c-2.12 0-3.85-1.72-3.84-3.85l.05-30.9c0-2.12 1.71-3.83 3.85-3.83h0c2.12 0 3.85 1.72 3.85 3.85l-.05 30.91c-.01 2.11-1.73 3.83-3.85 3.83zm1005.15 14.14h0a3.86 3.86 0 0 1-3.85-3.86l.05-30.9c0-2.12 1.72-3.84 3.85-3.84 2.12.01 3.85 1.73 3.85 3.86l-.05 30.89c0 2.12-1.71 3.85-3.85 3.85zm-1005.25 47.66h-.01a3.83 3.83 0 0 1-3.83-3.85l.05-30.91c0-2.12 1.72-3.83 3.85-3.83h0c2.12 0 3.85 1.72 3.85 3.85l-.05 30.91a3.84 3.84 0 0 1-3.85 3.83zm1005.16 14.14h0c-2.13 0-3.84-1.73-3.84-3.86l.05-30.9a3.85 3.85 0 0 1 3.85-3.84c2.13 0 3.85 1.73 3.85 3.86l-.05 30.9a3.85 3.85 0 0 1-3.85 3.84zm-1005.25 47.66h-.01c-2.12 0-3.85-1.72-3.84-3.85l.04-30.91c0-2.12 1.63-3.83 3.86-3.85a3.85 3.85 0 0 1 3.83 3.86l-.04 30.9c-.01 2.12-1.73 3.84-3.85 3.84zm1005.15 14.13h0a3.84 3.84 0 0 1-3.85-3.85l.05-30.89c0-2.12 1.72-3.85 3.85-3.85h.01a3.86 3.86 0 0 1 3.84 3.86l-.05 30.89c0 2.12-1.72 3.83-3.85 3.83zm-1005.25 47.67h-.01c-2.12-.01-3.84-1.73-3.83-3.86l.05-30.89c0-2.12 1.72-3.83 3.85-3.83h0c2.12 0 3.85 1.72 3.85 3.85l-.05 30.89c-.01 2.12-1.73 3.85-3.85 3.85zm1005.15 14.14h0c-2.12-.01-3.85-1.74-3.85-3.86l.05-30.89c.01-2.12 1.73-3.85 3.85-3.85h.01c2.12.01 3.85 1.73 3.83 3.85l-.05 30.9c0 2.12-1.72 3.85-3.85 3.85zm-1005.25 47.66h0a3.87 3.87 0 0 1-3.85-3.86l.05-30.89c0-2.12 1.72-3.83 3.85-3.83h0c2.13 0 3.85 1.72 3.85 3.85l-.05 30.9a3.85 3.85 0 0 1-3.85 3.84zm1005.16 14.14h-.01c-2.12-.01-3.85-1.73-3.84-3.85l.05-30.89c0-2.13 1.72-3.85 3.85-3.85 2.12 0 3.85 1.72 3.85 3.85l-.05 30.91c-.01 2.12-1.73 3.84-3.85 3.84zm-1005.25 47.66h-.01a3.83 3.83 0 0 1-3.83-3.86l.04-30.89c.01-2.12 1.73-3.85 3.85-3.85h.01c2.12.01 3.85 1.73 3.83 3.85l-.04 30.91c-.01 2.12-1.73 3.84-3.85 3.84zm1005.16 14.14h-.01a3.85 3.85 0 0 1-3.83-3.85l.05-30.91c0-2.11 1.71-3.83 3.85-3.83 2.12 0 3.85 1.72 3.85 3.85l-.05 30.89c0 2.12-1.72 3.85-3.85 3.85zm-1005.26 47.66h0c-2.13-.01-3.85-1.72-3.85-3.86l.05-30.89c0-2.12 1.72-3.85 3.85-3.85h0c2.12.01 3.85 1.73 3.85 3.85l-.05 30.9c0 2.12-1.72 3.85-3.85 3.85zm1005.16 14.13h-.01c-2.12 0-3.84-1.72-3.84-3.85l.05-30.89c0-2.12 1.72-3.85 3.85-3.85s3.85 1.73 3.85 3.85l-.05 30.89c0 2.12-1.72 3.84-3.85 3.84zm-1005.26 47.67h0c-2.12-.01-3.85-1.73-3.85-3.85l.05-30.89c.01-2.12 1.73-3.85 3.85-3.85h.01c2.12.01 3.84 1.73 3.83 3.85l-.05 30.9c0 2.12-1.72 3.84-3.85 3.84zm1005.16 14.13h-.01c-2.12 0-3.83-1.72-3.83-3.85l.05-30.89c0-2.12 1.72-3.85 3.85-3.85h.01a3.85 3.85 0 0 1 3.83 3.85l-.05 30.89c0 2.12-1.72 3.84-3.85 3.84zm-1005.25 47.71h-.01a3.8 3.8 0 0 1-3.83-3.81l.04-30.98c.01-2.12 1.73-3.85 3.85-3.85h.01c2.12 0 3.85 1.73 3.84 3.85l-.04 30.89c-.01 2.12-1.72 3.89-3.85 3.89zm1001.93 13.52l-1.95-.53a3.85 3.85 0 0 1-1.37-5.26c1.76-3.03 2.71-6.49 2.71-10.02l.03-18.36c.01-2.12 1.74-3.83 3.85-3.83h.01c2.12 0 3.85 1.72 3.83 3.85l-.03 18.36a27.39 27.39 0 0 1-3.78 13.89 3.81 3.81 0 0 1-3.31 1.91zm-953.66 10.27h0l-24.56-.04c-2.47-.01-4.92-.34-7.27-.99a3.85 3.85 0 0 1-2.7-4.73c.56-2.04 2.68-3.25 4.73-2.69 1.7.47 3.47.69 5.25.71l24.56.04c2.12 0 3.85 1.72 3.84 3.85 0 2.12-1.71 3.85-3.85 3.85zm61.8.09h0l-30.89-.05c-2.13 0-3.85-1.72-3.85-3.85 0-2.12 1.72-3.85 3.85-3.85h.01l30.89.05c2.12.01 3.84 1.73 3.84 3.85s-1.72 3.84-3.85 3.84zm61.81.1h-.01l-30.89-.05c-2.13 0-3.85-1.72-3.85-3.85 0-2.12 1.72-3.85 3.85-3.85l30.9.05c2.12 0 3.85 1.72 3.85 3.85a3.86 3.86 0 0 1-3.85 3.85zm61.79.1h0l-30.91-.05c-2.12-.01-3.85-1.74-3.83-3.86 0-2.12 1.72-3.83 3.84-3.83l30.91.05c2.12 0 3.85 1.72 3.84 3.85 0 2.12-1.72 3.85-3.85 3.85zm61.8.09h-.01l-30.89-.05c-2.13 0-3.85-1.72-3.85-3.85 0-2.12 1.72-3.85 3.85-3.85h.01l30.89.05c2.12 0 3.83 1.72 3.83 3.85a3.85 3.85 0 0 1-3.84 3.85zm61.81.1h-.01l-30.9-.05a3.86 3.86 0 0 1-3.84-3.86c0-2.12 1.72-3.83 3.85-3.83l30.91.05c2.12 0 3.85 1.72 3.85 3.85-.01 2.12-1.73 3.85-3.85 3.85zm61.79.09h0l-30.9-.04c-2.12-.01-3.85-1.73-3.85-3.86a3.85 3.85 0 0 1 3.85-3.83h.01l30.91.04c2.12.01 3.85 1.72 3.83 3.86 0 2.12-1.72 3.83-3.85 3.83zm61.8.1h-.01l-30.89-.05c-2.13-.01-3.85-1.74-3.85-3.86s1.72-3.83 3.85-3.83l30.89.05c2.12 0 3.85 1.72 3.85 3.85-.01 2.12-1.72 3.85-3.85 3.85zm61.8.1h0l-30.9-.05c-2.12-.01-3.85-1.73-3.84-3.86 0-2.12 1.72-3.83 3.85-3.83l30.91.05c2.12 0 3.83 1.72 3.83 3.85 0 2.12-1.72 3.85-3.85 3.85zm61.8.09h-.01l-30.9-.05a3.86 3.86 0 0 1-3.84-3.86 3.84 3.84 0 0 1 3.84-3.83h.01l30.89.05c2.13 0 3.85 1.72 3.85 3.85 0 2.12-1.72 3.85-3.85 3.85zm61.81.1h-.01l-30.91-.05a3.85 3.85 0 0 1-3.83-3.86c0-2.12 1.72-3.83 3.85-3.83l30.91.05c2.12 0 3.85 1.72 3.85 3.85-.01 2.12-1.74 3.85-3.85 3.85zm61.79.09h0l-30.91-.05c-2.12 0-3.85-1.72-3.85-3.86a3.86 3.86 0 0 1 3.85-3.83h.01l30.91.05c2.12 0 3.83 1.72 3.83 3.86 0 2.11-1.72 3.83-3.85 3.83zm61.8.1h-.01l-30.89-.05c-2.12 0-3.83-1.73-3.83-3.85s1.72-3.84 3.85-3.84l30.89.05c2.13 0 3.85 1.72 3.85 3.85 0 2.12-1.72 3.85-3.85 3.85zm61.81.09h-.01l-30.91-.04c-2.12-.01-3.85-1.73-3.85-3.85.01-2.12 1.73-3.84 3.85-3.84h.01l30.9.04c2.12 0 3.85 1.73 3.84 3.85 0 2.12-1.72 3.83-3.84 3.83zm61.79.1h0l-30.91-.05c-2.13 0-3.85-1.72-3.85-3.85a3.85 3.85 0 0 1 3.85-3.84h.01l30.9.05c2.12 0 3.84 1.72 3.84 3.85a3.85 3.85 0 0 1-3.85 3.84zm61.8.09h-.01l-30.89-.04a3.85 3.85 0 0 1-3.83-3.85 3.84 3.84 0 0 1 3.84-3.84l30.9.04c2.12.01 3.85 1.73 3.85 3.85-.01 2.12-1.74 3.83-3.85 3.83zm-16.22-49.93l-912.9-1.46 1.04-653.33 912.91 1.45z" class="b Y"/><path d="M3641.11 592.45h-.3c-100.13-.15-181.17-81.47-181.01-181.6.15-100.04 81.3-181.02 181.31-181.02h.28c100.14.15 181.18 81.47 181.03 181.6-.17 100.04-81.32 181.02-181.31 181.02z" fill="#fcb755" class="Y"/><path d="M4025.04 623.3l-190.89-322.67-294.83 494.77 485.45.77z" class="Y j"/><path d="M3478.46 795.31l-366.57-.6 367.51-590.1 365.63 591.28z" class="Y c"/><path d="M3360.28 395.9l118.68 89.14 118.96-88.76-118.52-191.67zm373.52 73.14l99.96 79.21 100.21-78.9-99.82-168.72zm1881.82-137.35v757.7c0 19.89-16.13 36.02-36.02 36.02H4297.14c-19.9 0-36.02-16.13-36.02-36.02V331.67c0-19.89 16.12-36.02 36.02-36.02H5579.6c19.89 0 36.02 16.15 36.02 36.04z" class="e Y"/><path d="M4826.99 760.94c0 61.52-23.27 117.58-61.48 159.9-43.68 48.37-106.88 78.77-177.21 78.77-131.83 0-238.69-106.84-238.69-238.67 0-32.69 6.59-63.86 18.49-92.25l220.2 92.25-11.29-238.38c3.69-.22 7.5-.29 11.29-.29 131.82 0 238.69 106.86 238.69 238.67z" class="Y c"/><path d="M4553.23 483.17c-71.31 3.3-134.41 37.9-175.93 90.39-13.36 16.88-24.49 35.6-32.94 55.75l220.19 92.24-11.32-238.38z" class="Y b"/><path d="M5368.79 629.35h32.79v-32.77h-32.79z" class="Y c"/><path d="M5541.11 617.07h-117.43l-.35-.35v-7.5l.35-.37h117.43l.36.37v7.5z" class="Y h"/><path d="M5368.79 570.95h32.79v-32.78h-32.79z" class="Y Z"/><path d="M5541.11 558.65h-117.43l-.35-.36v-7.48l.35-.36h117.43l.36.36v7.48z" class="Y h"/><path d="M5368.79 687.75h32.79v-32.77h-32.79z" class="Y b"/><g class="h Y"><path d="M5541.11 675.46h-117.43l-.35-.36v-7.49l.35-.36h117.43l.36.36v7.49z"/><use xlink:href="#B"/><path d="M5537.37 824.16H5372.9c-2.26 0-4.11-1.83-4.11-4.09a4.11 4.11 0 0 1 4.11-4.11h164.47c2.26 0 4.1 1.83 4.1 4.11 0 2.26-1.84 4.09-4.1 4.09zm0 33.72H5372.9c-2.26 0-4.11-1.85-4.11-4.11a4.11 4.11 0 0 1 4.11-4.1h164.47a4.1 4.1 0 0 1 4.1 4.1 4.11 4.11 0 0 1-4.1 4.11zm0 33.69H5372.9c-2.26 0-4.11-1.84-4.11-4.1a4.12 4.12 0 0 1 4.11-4.11h164.47c2.26 0 4.1 1.85 4.1 4.11s-1.84 4.1-4.1 4.1zm0 33.71H5372.9a4.12 4.12 0 0 1-4.11-4.11 4.11 4.11 0 0 1 4.11-4.1h164.47a4.1 4.1 0 0 1 4.1 4.1c0 2.28-1.84 4.11-4.1 4.11z"/><use xlink:href="#B" y="168.5"/><path d="M5537.37 992.68H5372.9c-2.26 0-4.11-1.84-4.11-4.1a4.11 4.11 0 0 1 4.11-4.11h164.47c2.26 0 4.1 1.83 4.1 4.11 0 2.26-1.84 4.1-4.1 4.1z"/></g><path d="M5615.62 331.69v63.22H4261.11v-63.24c0-19.89 16.12-36.02 36.02-36.02h1282.46c19.89 0 36.02 16.15 36.02 36.04z" fill="#4c2d2e" class="Y"/><path d="M5472.92 345.29c0 9.21-7.48 16.68-16.68 16.68-9.23 0-16.69-7.48-16.69-16.68 0-9.22 7.46-16.69 16.69-16.69 9.21 0 16.68 7.47 16.68 16.69z" class="Y Z"/><path d="M5527 345.29a16.68 16.68 0 0 1-16.68 16.68c-9.21 0-16.7-7.48-16.7-16.68 0-9.22 7.49-16.69 16.7-16.69 9.22 0 16.68 7.47 16.68 16.69z" class="Y b"/><path d="M5578.79 345.29c0 9.21-7.48 16.68-16.69 16.68s-16.68-7.48-16.68-16.68c0-9.22 7.48-16.69 16.68-16.69a16.69 16.69 0 0 1 16.69 16.69z" class="Y c"/><path d="M4826.99 760.94c0 61.52-23.27 117.58-61.48 159.9l-177.21-159.9-11.29-238.38c3.69-.22 7.5-.29 11.29-.29 131.82 0 238.69 106.86 238.69 238.67z" class="Y Z"/><path d="M5059.37 1026.25h75.99V700.64h-75.99z" class="Y c"/><path d="M5059.37 940.37c26.93-8.32 52.17-23.23 75.99-39.25v125.13h-75.99v-85.88z" class="Y Z"/><path d="M4935.17 1026.25h76V791.12h-76z" class="Y c"/><path d="M4997.09 945.89a138.72 138.72 0 0 0 14.08 1.29v79.07h-76v-78.33c13.45-4.43 33.12-6.24 61.92-2.03z" class="Y Z"/><path d="M5183.58 1026.25h75.99V603.37h-75.99z" class="Y c"/><path d="M5259.57 835.12v191.12h-75.99V867.57c27.01-18.34 52.18-32.55 75.99-32.46z" class="Y Z"/><path d="M5256.48 480.09l-68.57 14.7 18.42 18.07-105 107.04-36.84-36.14-130.29 132.83a12.87 12.87 0 0 0 .17 18.18 12.87 12.87 0 0 0 18.18-.17l112.29-114.48 36.85 36.14 123-125.38 18.42 18.06 13.38-68.83z" class="Y b"/><path d="M1774.2 45.55v190.19c0 25.14 20.4 45.54 45.54 45.54h345.34l104.26 37.41c10.71 3.86 20.95-6.67 16.85-17.27l-39.43-101.85V45.56c0-25.15-20.4-45.55-45.57-45.55h-381.44c-25.14 0-45.54 20.39-45.54 45.55z" class="Y c"/><path d="M2074.22 146.05c0 18.2 14.75 32.94 32.93 32.94 18.19 0 32.95-14.74 32.95-32.94 0-18.19-14.75-32.94-32.95-32.94-18.19 0-32.93 14.75-32.93 32.94zm-104.28 0c0 18.2 14.75 32.94 32.93 32.94 18.2 0 32.95-14.74 32.95-32.94 0-18.19-14.75-32.94-32.95-32.94-18.19 0-32.93 14.75-32.93 32.94zm-104.29 0c0 18.2 14.75 32.94 32.94 32.94 18.2 0 32.95-14.74 32.95-32.94 0-18.19-14.75-32.94-32.95-32.94-18.19 0-32.94 14.75-32.94 32.94z" class="j Y"/><path d="M1534.14 509.7l.4 283.42 410.3-.6-.41-283.42z" class="Y b"/><g class="g Y"><path d="M1534.15 509.71l.03 18.16 205.39 181.53 204.89-182.12-.03-18.17-204.87 182.74z"/><path d="M1779.02 656.02l153.94 136.52 11.88-.02-.01-7.23-156.99-139.21zm-244.48 130.83v6.27l12.96-.02 153.54-136.98-8.85-9.9z"/></g><path d="M1944.44 509.1l-204.88 182.75-205.41-182.15z" fill="#efbc5a" class="Y"/><path d="M3449.33 1268.04h-164.41c-10.57 0-19.15-8.57-19.15-19.15v-164.42c0-10.58 8.58-19.15 19.15-19.15h164.41a19.15 19.15 0 0 1 19.15 19.15v164.42a19.15 19.15 0 0 1-19.15 19.15z" class="Y b"/><path d="M3424.47 1124.94l-1.01-4.21c-1.22-4.92-3.57-9.26-6.89-13.1-2.38-2.75-5.13-5.09-8.23-6.86-4.3-2.47-9.15-1.43-12.31 2.39l-16.87 20.55c-3.42 4.23-2.86 10 1.39 13.76 3.04 2.7 6.24 5.2 9.39 7.78l1.22.81c-7.48 20.15-20.2 35.71-38.45 46.93l-6.85-5.69-3.58-2.92c-3.68-2.8-7.92-3.08-11.73-.6-1.21.79-2.2 1.96-3.14 3.09l-15.26 18.54c-1.62 1.96-2.65 4.11-3 6.61l.28 2.74c.88 1.55 1.5 3.37 2.72 4.58 2.99 2.99 6.28 5.64 10.19 7.41 4.6 2.06 9.39 3.33 14.43 2.89 3.3-.3 6.62-1 9.83-1.89 8.25-2.31 15.78-6.25 22.85-11.01 7.01-4.73 13.4-10.23 19.27-16.31 7.91-8.21 14.93-17.15 21.3-26.62 5.02-7.46 9.36-15.26 12.18-23.84 1.4-4.32 2.36-8.73 2.66-13.27.12-1.83.16-3.66.24-5.5l-.62-6.26z" class="Y e"/><path d="M3747.88 1267.48H3576.3a17.12 17.12 0 0 1-17.11-17.11V1078.8c0-9.46 7.66-17.11 17.11-17.11h171.58c9.46 0 17.11 7.66 17.11 17.11v171.57c0 9.46-7.66 17.11-17.11 17.11z" class="Y Z"/><path d="M3671.71 1166.2c0-8.06-4.17-12.23-9.67-12.23-5.52 0-9.54 4.17-9.54 12.23 0 8.19 4.02 12.36 9.54 12.36 5.49 0 9.67-4.16 9.67-12.36zm56.15-5.52c0 25.67-14.38 38.97-31.57 38.97-10.07 0-17.46-3.91-21.22-11.7-3.76 7.4-10.2 11.7-20.42 11.7-14.5 0-28.48-12.77-28.48-33.45 0-20.7 13.56-33.32 28.48-33.32 7.12 0 12.63 2.3 16.53 6.58v-5.37h25.79v38.42c0 5.65 2.29 7.38 5.24 7.38 3.76 0 6.85-3.75 6.85-18.8 0-24.32-18.13-41.52-45.81-41.52-27.53 0-46.07 19.34-46.07 44.87 0 26.33 18.14 45.14 45.54 45.14 8.87 0 18.01-1.74 27.14-5.91l5.64 16.53c-8.06 3.89-20.83 6.44-32.78 6.44-40.44 0-66.36-27-66.36-62.2 0-34.66 25.92-61.93 66.9-61.93 38.7 0 64.62 25.92 64.62 58.17z" class="Y e"/><path d="M4025.27 1267.48h-171.58c-9.45 0-17.11-7.66-17.11-17.11V1078.8c0-9.46 7.66-17.11 17.11-17.11h171.58c9.44 0 17.1 7.66 17.1 17.11v171.57c0 9.46-7.66 17.11-17.1 17.11z" class="Y c"/><path d="M3950.21 1212.02l-.12 14.66-18.6-.15.1-14c-13.2-.89-25.96-4.56-33.84-9.5l10.21-22.62c8.66 5.21 20.25 8.61 30.41 8.68 8.85.08 12.03-1.74 12.06-4.91.09-11.62-51.06-2.66-50.78-37.11.12-14.91 11.05-27.37 32.72-30.23l.1-14.38 18.62.15-.12 14.13c9.76.99 19.24 3.59 26.73 7.87l-9.55 22.5c-9.07-4.7-17.63-7-25.69-7.08-9.1-.07-12.04 2.54-12.06 5.71-.09 11.09 51.06 2.27 50.79 36.32-.12 14.25-10.51 26.58-31 29.97z" class="Y e"/><path d="M597.17 506.87c0 161.62 131.01 292.64 292.63 292.64s292.63-131.02 292.63-292.64-131.01-292.64-292.63-292.64-292.63 131.02-292.63 292.64z" class="Y h"/><path d="M597.17 468.78c0 161.62 131.01 292.63 292.63 292.63s292.63-131.01 292.63-292.63-131.01-292.63-292.63-292.63-292.63 131.01-292.63 292.63z" class="Y Z"/><path d="M889.81 706.68c131.18 0 237.91-106.72 237.91-237.9s-106.73-237.91-237.91-237.91-237.9 106.73-237.9 237.91 106.72 237.9 237.9 237.9z" class="Y e"/><path d="M651.9 468.78c0 6.34.26 12.61.74 18.81 9.62-122.44 112.33-219.13 237.17-219.13 124.86 0 227.54 96.69 237.16 219.13.49-6.19.75-12.47.75-18.81 0-131.19-106.72-237.91-237.91-237.91-131.18 0-237.91 106.72-237.91 237.91z" class="Y m"/><path d="M889.8 493.53a5.96 5.96 0 0 0 4.79-2.4L1011.3 334c1.95-2.64 1.41-6.37-1.24-8.33-2.62-1.96-6.36-1.4-8.32 1.23L887.86 480.22l-129.41-56.81c-3-1.32-6.52.05-7.84 3.07-1.32 3.01.05 6.52 3.06 7.83l133.76 58.71 2.39.5z" class="Y a"/><path d="M1204.56 4085.31c0 21.91-228.23 39.69-509.76 39.69s-509.75-17.77-509.75-39.69c0-21.91 228.22-39.68 509.75-39.68s509.76 17.77 509.76 39.68z" class="Y h"/><path d="M1060 3910.46l79.34-1183.6H226l79.34 1183.6z" class="Y Z"/><path d="M1131.73 2838.21l-894.6 51.55-6.41-93.79h903.89z" class="Y d"/><path d="M1169.5 2795.97H195.83c-13.6 0-24.62-11.02-24.62-24.62v-54.45c0-13.6 11.02-24.61 24.62-24.61h973.67c13.6 0 24.62 11.01 24.62 24.61v54.45c0 13.6-11.02 24.62-24.62 24.62z" fill="#f05b55" class="Y"/><path d="M1037.03 2986.4l-22.45 395.68H350.76L328.3 2986.4z" class="Y d"/><path d="M715.8 3200.55c0 18.3-14.84 33.14-33.13 33.14s-33.13-14.84-33.13-33.14c0-18.29 14.84-33.12 33.13-33.12s33.13 14.83 33.13 33.12z" class="Y Z"/><path d="M1005.78 3474.75l-20.47 360.78H380.02l-20.47-360.78z" class="Y d"/><path d="M715.8 3668.25c0 18.3-14.84 33.14-33.13 33.14s-33.13-14.84-33.13-33.14c0-18.29 14.84-33.14 33.13-33.14s33.13 14.84 33.13 33.14z" class="Y Z"/><path d="M585.34 3910.46l-5.37.04c-91.61 1.2-170.17 64.31-190.58 151.6l-5.66 24.22h-70.95l-6.83-175.86h279.39zm194.88 0l5.37.04c91.61 1.2 170.17 64.31 190.58 151.6l5.67 24.22h70.64l7.13-175.86H780.22z" class="d Y"/><path d="M500.83 2100.91s-80.01 22.8-168.29-91.6c-63.8-82.68-176.72-259.1-332.54-262.12 0 0 184.91-80.13 348.1 1.48 163.18 81.62 250.26 292.87 152.73 352.24z" class="Y i"/><path d="M548.53 2431.19l-.22-.01c-2.33-.11-4.13-2.09-4.01-4.43.05-1.1 5.18-111.45-16.76-237.06-20.16-115.43-67.94-267.78-181.12-338.01-1.98-1.23-2.6-3.84-1.37-5.81 1.23-1.99 3.84-2.61 5.82-1.37 51.27 31.81 93.78 82.37 126.36 150.26 25.94 54.06 45.68 119.21 58.66 193.62 22.08 126.52 16.89 237.68 16.84 238.79-.11 2.25-1.98 4.01-4.21 4.01z" class="Y k"/><path d="M561.43 1849.01s81.02-18.97 102.58-161.84c15.59-103.26 28.55-312.32 163.26-390.68 0 0-200.56 19.82-303.51 170.45-102.96 150.62-76.41 377.57 37.66 382.07z" class="Y i"/><path d="M672.91 2440.53c-1.72 0-3.34-1.07-3.97-2.78-.53-1.47-53.91-148.65-92.88-330.25-22.9-106.71-36.41-204.3-40.18-290.02-4.71-107.44 5.96-196.56 31.75-264.87.82-2.18 3.26-3.28 5.45-2.46 2.18.82 3.28 3.27 2.46 5.46-57.55 152.49-27 383.26 8.77 550.02 38.83 181.04 92.04 327.77 92.57 329.23.8 2.19-.33 4.62-2.51 5.42l-1.46.26z" class="Y k"/><path d="M703.12 1918.96s82.43 11.26 153.67-114.47c51.47-90.85 138.33-281.46 292.16-306.47 0 0-194.38-53.21-344.4 50.65-150.01 103.85-206.36 325.28-101.43 370.28z" class="Y i"/><path d="M715.75 2440.51a4.22 4.22 0 0 1-4.15-3.4c-.26-1.38-27.24-140.24-28.03-306.35-.46-97.63 8.08-185.48 25.39-261.09 21.7-94.82 57.35-170.62 105.94-225.3 1.56-1.74 4.23-1.9 5.97-.35s1.91 4.23.35 5.97c-108.09 121.62-129.92 328.57-129.2 480.73.79 165.29 27.62 303.37 27.89 304.76.45 2.29-1.05 4.51-3.33 4.95l-.82.08z" class="Y k"/><path d="M844.75 2111.24s78.55 27.42 173.34-81.64c68.51-78.81 191.51-248.37 347.24-242.31 0 0-179.93-90.77-347.59-18.79-167.65 71.98-266.88 277.81-172.99 342.74z" class="Y i"/><path d="M768.27 2440.51c-2.28 0-4.15-1.8-4.22-4.1-.02-.95-2.38-96.39 26.46-213.89 16.95-69.06 41.2-132.16 72.08-187.56 38.66-69.36 87.87-126.77 146.26-170.61 1.87-1.41 4.52-1.04 5.91.84 1.4 1.87 1.03 4.51-.84 5.91-130.16 97.76-188.88 246.16-215.21 353.43-28.58 116.39-26.25 210.7-26.23 211.63.07 2.34-1.76 4.28-4.09 4.35h-.13z" class="Y k"/><path d="M1022.91 2538.63c-.24 12.45-2.21 25.04-5.87 37.69-15.99 55.42-63.7 96.06-120.79 104.21-139.36 19.91-283.11 18.5-430.59-.87-64.54-8.51-117.21-57.59-127.44-121.87-1.73-10.87-2.18-21.67-1.29-32.38 3.05-37.07 22.07-73.21 59.39-108.25h566.8c41.74 39.2 60.57 79.73 59.79 121.47z" class="Y b"/><path d="M701.67 2595.08c-180.81 0-297.47-35.07-363.5-64.5-2.13-.94-3.09-3.43-2.13-5.58a4.23 4.23 0 0 1 5.58-2.13c65.28 29.07 180.72 63.75 360.05 63.75 126.65 0 233.31-17.11 317.01-50.86a4.23 4.23 0 1 1 3.16 7.85c-84.71 34.16-192.44 51.47-320.17 51.47z" class="Y g"/><path d="M6043.07 1971.42h68.06v-701.29h-68.06z" fill="#faab49" class="Y"/><path d="M6111.13 1304.21v60.35l-68.06 20.94v-81.29z" fill="#f58448" class="Y"/><path d="M6445.09 1292.38c-245.36 37.78-490.74 37.78-736.13 0l174.64-483.15c128.96-22.25 257.92-22.25 386.87 0l174.62 483.15z" class="Y c"/><g class="j Y"><path d="M6074.01 1255.23c-112.02 0-222.97-5.96-336.91-17.89-3.77-.39-6.5-3.78-6.11-7.56.4-3.78 3.76-6.52 7.56-6.12 226.86 23.75 442.03 23.75 677.15 0 3.76-.38 7.16 2.37 7.54 6.15.39 3.77-2.37 7.15-6.15 7.53-118.02 11.93-231.07 17.89-343.06 17.89z"/><path d="M5832.7 1246.27l-1.66-.2c-3.7-.91-5.95-4.64-5.02-8.33l107.22-431.83a6.88 6.88 0 0 1 8.34-5.01 6.87 6.87 0 0 1 5.01 8.33l-107.22 431.83c-.78 3.13-3.59 5.22-6.66 5.22zm489.91-.62a6.85 6.85 0 0 1-6.66-5.22l-107.09-431.22c-.91-3.68 1.34-7.41 5.03-8.33 3.69-.91 7.41 1.33 8.34 5.01l107.07 431.21c.91 3.69-1.33 7.42-5.01 8.34l-1.66.21zm-245.57 9.51c-3.79 0-6.88-3.09-6.88-6.88V799.59c0-3.79 3.09-6.87 6.88-6.87a6.88 6.88 0 0 1 6.88 6.87v448.69a6.89 6.89 0 0 1-6.88 6.88zM6244 1902.07v69.35h-333.8v-69.35l166.9-38.5z"/></g><path d="M5846.28 1879.81l12.07-.02-.03-18.02-456.46.58a54.51 54.51 0 0 0-38.73 16.11c-9.88 9.92-16.03 23.62-16.01 38.77.04 30.28 24.6 54.78 54.88 54.73l456.45-.59-.02-15.6-12.06.01-.09-75.98z" class="Y i"/><path d="M5849.41 1879.8l.09 75.97-418.84.54c-20.45.03-37.04-16.97-37.06-37.93-.02-10.5 4.12-19.99 10.8-26.89 6.71-6.87 15.93-11.14 26.16-11.15l418.85-.54z" class="Y e"/><path d="M5849.43 1899.04l.01 11.61-408.01.53c-3.18.01-5.79-2.6-5.8-5.77v-.04a5.81 5.81 0 0 1 5.78-5.8l408.02-.52zm.03 28.6l.02 11.62-408.02.52a5.8 5.8 0 0 1-5.79-5.77v-.04a5.81 5.81 0 0 1 5.78-5.8l408.01-.52z" class="o Y"/><path d="M5805.48 1770.25l12.07-.01-.03-18.03-456.45.59c-15.12.02-28.84 6.15-38.74 16.1-9.88 9.93-16.02 23.62-16 38.77.04 30.29 24.6 54.78 54.88 54.73l456.46-.58-.02-15.61-12.07.01-.1-75.98z" class="Y Z"/><path d="M5808.61 1770.25l.1 75.96-418.85.55c-20.45.02-37.03-16.98-37.05-37.93-.02-10.51 4.11-19.98 10.8-26.89 6.71-6.87 15.93-11.14 26.15-11.16l418.85-.53z" class="Y e"/><path d="M5808.63 1789.48l.01 11.61-408.01.53a5.8 5.8 0 0 1-5.79-5.78v-.04a5.79 5.79 0 0 1 5.77-5.79l408.02-.52zm.04 28.6l.02 11.61-408.02.53a5.81 5.81 0 0 1-5.8-5.78v-.03a5.81 5.81 0 0 1 5.79-5.8l408.01-.52z" class="o Y"/><path d="M5885.06 1660.53l12.07-.01-.03-18.02-456.46.58c-15.11.02-28.83 6.15-38.73 16.11-9.88 9.92-16.03 23.62-16 38.77.04 30.28 24.6 54.78 54.89 54.73l456.45-.59-.02-15.61-12.06.02-.1-75.99z" class="Y c"/><path d="M5888.19 1660.53l.1 75.97-418.85.54c-20.45.02-37.02-16.97-37.05-37.92-.02-10.51 4.11-20 10.79-26.9 6.71-6.88 15.93-11.15 26.16-11.16l418.85-.54z" class="Y e"/><path d="M5888.21 1679.77l.01 11.62-408.01.52c-3.19.01-5.8-2.6-5.81-5.78v-.03a5.83 5.83 0 0 1 5.79-5.8l408.02-.52zm.04 28.6l.02 11.62-408.02.53c-3.18 0-5.8-2.6-5.8-5.78v-.04c0-3.18 2.6-5.8 5.79-5.8l408.01-.53z" class="o Y"/><path d="M6490.04 4083.4c0 31.03-286.78 56.19-640.54 56.19-353.77 0-640.54-25.16-640.54-56.19 0-31.04 286.77-56.19 640.54-56.19 353.76 0 640.54 25.15 640.54 56.19z" class="Y h"/><path d="M6409.18 2014.35l-140.07 2070.96h-839.22l-140.08-2070.96z" class="Y b"/><path d="M6399.85 2150.8l-1096.39 63.19-7.85-114.94h1107.78z" class="Y g"/><path d="M6450.94 2099.05H5248.06c-14.02 0-25.39-11.37-25.39-25.39v-76.3c0-14.03 11.37-25.39 25.39-25.39h1202.88c14.02 0 25.38 11.36 25.38 25.39v76.3c0 14.02-11.36 25.39-25.38 25.39z" fill="#efbc5a" class="Y"/><path d="M6283.79 2332.41l-27.52 484.93h-813.55l-27.52-484.93z" class="Y g"/><path d="M5890.1 2594.89c0 22.42-18.18 40.61-40.61 40.61-22.42 0-40.61-18.18-40.61-40.61 0-22.42 18.18-40.61 40.61-40.61s40.61 18.18 40.61 40.61z" class="Y b"/><path d="M6245.49 2930.92l-25.09 442.17h-741.82l-25.09-442.17z" class="Y g"/><path d="M5890.1 3168.07c0 22.44-18.18 40.61-40.61 40.61-22.42 0-40.61-18.17-40.61-40.61 0-22.41 18.18-40.61 40.61-40.61s40.61 18.19 40.61 40.61z" class="Y b"/><path d="M6212.45 3484.78l-23 405.28h-679.9l-23-405.28z" class="Y g"/><path d="M5890.1 3687.42c0 22.42-18.18 40.61-40.61 40.61-22.42 0-40.61-18.19-40.61-40.61 0-22.43 18.18-40.6 40.61-40.6s40.61 18.17 40.61 40.6z" class="Y b"/><defs ><path id="B" d="M5537.37 790.47H5372.9c-2.26 0-4.11-1.84-4.11-4.1a4.11 4.11 0 0 1 4.11-4.1h164.47a4.1 4.1 0 0 1 4.1 4.1c0 2.26-1.84 4.1-4.1 4.1z"/></defs></svg>