<svg width="495" height="495" viewBox="0 0 495 495" fill="none" xmlns="http://www.w3.org/2000/svg">
<path d="M495 103.513V95.5C495 73.72 477.28 56 455.5 56H39.5C17.72 56 0 73.72 0 95.5V399.497C0 399.5 0 399.502 0 399.505C0.003 421.283 17.722 439 39.5 439H455.5C477.28 439 495 421.28 495 399.5V103.521C495 103.518 495 103.516 495 103.513ZM39.5 71H455.5C469.009 71 480 81.99 480 95.5V100.383C444.879 135.346 387.15 192.847 339.279 240.672L264.117 165.51C254.955 156.348 240.046 156.348 230.884 165.51L15 381.393V95.5C15 81.99 25.991 71 39.5 71ZM455.5 424H39.5C26.981 424 16.632 414.561 15.181 402.426L241.49 176.117C244.804 172.803 250.196 172.803 253.511 176.117L328.669 251.275C289.26 290.67 258.813 321.249 257.5 323C255.015 326.313 255.686 331.015 259 333.5C260.349 334.512 261.928 335 263.494 335C265.681 335 267.843 334.047 269.316 332.236C275.075 325.77 412.962 188.308 480 121.551V399.5C480 413.01 469.009 424 455.5 424Z" fill="#FFC325"/>
<path d="M103.5 199C125.28 199 143 181.28 143 159.5C143 137.72 125.28 120 103.5 120C81.72 120 64 137.72 64 159.5C64 181.28 81.72 199 103.5 199ZM103.5 135C117.009 135 128 145.99 128 159.5C128 173.01 117.009 184 103.5 184C89.991 184 79 173.01 79 159.5C79 145.99 89.991 135 103.5 135Z" fill="#FFC325"/>
</svg>
