<?xml version="1.0" encoding="UTF-8"?>
<!DOCTYPE svg PUBLIC "-//W3C//DTD SVG 1.1//EN" "http://www.w3.org/Graphics/SVG/1.1/DTD/svg11.dtd">
<!-- Creator: CorelDRAW 2020 (64-Bit Evaluation Version) -->
<svg xmlns="http://www.w3.org/2000/svg" xml:space="preserve" width="222.101mm" height="135.686mm" version="1.1" style="shape-rendering:geometricPrecision; text-rendering:geometricPrecision; image-rendering:optimizeQuality; fill-rule:evenodd; clip-rule:evenodd"
viewBox="0 0 22540.67 13770.58"
 xmlns:xlink="http://www.w3.org/1999/xlink"
 xmlns:xodm="http://www.corel.com/coreldraw/odm/2003">
 <defs>
  <style type="text/css">
   <![CDATA[
    .fil16 {fill:#FEFEFE;fill-rule:nonzero}
    .fil13 {fill:#FEEBDD;fill-rule:nonzero}
    .fil10 {fill:#FAC2B8;fill-rule:nonzero}
    .fil11 {fill:#F8AFAB;fill-rule:nonzero}
    .fil1 {fill:#F9A253;fill-rule:nonzero}
    .fil5 {fill:#F59284;fill-rule:nonzero}
    .fil8 {fill:#F2726C;fill-rule:nonzero}
    .fil3 {fill:#F05252;fill-rule:nonzero}
    .fil2 {fill:#E77245;fill-rule:nonzero}
    .fil19 {fill:#DDC1DD;fill-rule:nonzero}
    .fil24 {fill:#D6D0BE;fill-rule:nonzero}
    .fil4 {fill:#CA3A3F;fill-rule:nonzero}
    .fil18 {fill:#A780B9;fill-rule:nonzero}
    .fil12 {fill:#958B8B;fill-rule:nonzero}
    .fil22 {fill:#8C605F;fill-rule:nonzero}
    .fil17 {fill:#86549C;fill-rule:nonzero}
    .fil23 {fill:#724F52;fill-rule:nonzero}
    .fil15 {fill:#61545F;fill-rule:nonzero}
    .fil21 {fill:#48353D;fill-rule:nonzero}
    .fil9 {fill:#392C2E;fill-rule:nonzero}
    .fil20 {fill:#5A3E6C;fill-rule:nonzero}
    .fil14 {fill:#028E8B;fill-rule:nonzero}
    .fil7 {fill:#317468;fill-rule:nonzero}
    .fil6 {fill:#2E504C;fill-rule:nonzero}
    .fil0 {fill:#FFFBEC;fill-rule:nonzero}
   ]]>
  </style>
 </defs>
 <g id="Layer_x0020_1">
  <metadata id="CorelCorpID_0Corel-Layer"/>
  <path class="fil0" d="M10339.5 4163.33c869.8,-123.3 1694.16,-463.33 2405.53,-978.82 1062.48,-769.97 3285.98,-2080.18 5407.05,-1427.57 2925.6,900.19 2938.67,3504.32 2176.64,4918.92 -762.07,1414.58 -6166.02,5557 -13171.82,4897.88 -6269.19,-589.82 -7490.86,-7341.28 -4147.3,-8562.94 2899.96,-1059.59 3889.3,1640.24 7329.89,1152.52z"/>
  <path class="fil0" d="M17592.38 9347.91c0,0 437.62,-200.09 608.43,147.69 170.82,347.79 -453.95,704.14 -793.89,601.71 -339.99,-102.5 -280.34,-614.59 185.46,-749.39z"/>
  <path class="fil0" d="M10684.47 3079.59c0,0 476.2,-149.27 606.92,230.71 130.72,379.97 -558.24,665.75 -894.78,516.34 -336.55,-149.44 -208.87,-668.69 287.86,-747.06z"/>
  <path class="fil0" d="M4873.76 13131.89c0,352.75 2892.33,638.69 6460.23,638.69 3567.91,0 6460.24,-285.93 6460.24,-638.69 0,-352.7 -2892.33,-638.67 -6460.24,-638.67 -3567.9,0 -6460.23,285.96 -6460.23,638.67z"/>
  <path class="fil1" d="M7712.54 12183.19c76.26,76.19 159.03,148.92 248.83,217.71 449.04,344.79 1069.72,591.93 1894.29,674.42 4216.64,421.97 5609.85,-1556.03 5950.44,-4599.39 151.65,-1356.24 -203.4,-2251.14 -643.84,-2826.67 -46.09,-60.08 -93.02,-116.75 -140.42,-170.03 -26.78,-30.07 -54.21,-59.5 -82.32,-88.18 -568.72,-580.83 -1389.47,-854.15 -2196.18,-721.42 -634,104.36 -1210,442.99 -1677.4,1119.83 -747.45,1082.32 -40.31,2012.84 -2176.6,2075.06 -1635.22,47.69 -2671.32,2827.75 -1176.8,4318.66z"/>
  <path class="fil2" d="M14167.98 5611.56c0,0 498.62,1066.79 -77.09,3025.24 -575.74,1958.38 -1338.27,1804.03 -1830.88,1804.03 -860.59,0 -2603.48,-810.65 -2944.07,-1449.27 -340.6,-638.62 302.1,-676.78 1505.61,-771.23 1203.52,-94.45 2101.56,-3031.35 3346.43,-2608.77z"/>
  <path class="fil2" d="M13086.66 11262.73c9.49,0 18.94,-3.72 25.99,-11.13 13.68,-14.36 13.1,-37.05 -1.26,-50.7 -430.38,-409.22 -841.47,-650.25 -1110.57,-780.43 -292.68,-141.57 -481.19,-185.53 -489.06,-187.29 -19.33,-4.4 -38.57,7.63 -42.93,26.97 -4.44,19.29 7.66,38.56 26.96,42.96 8.67,1.97 757.85,181.16 1566.17,949.78 6.94,6.59 15.85,9.84 24.7,9.84z"/>
  <path class="fil2" d="M12944.48 10783.4c11.56,0 22.88,-5.58 29.79,-15.89 11.1,-16.4 6.73,-38.71 -9.73,-49.73 -16.73,-11.32 -417.32,-276.97 -1037.5,-344.64 -19.63,-2.14 -37.38,12.07 -39.53,31.73 -2.15,19.69 12.07,37.41 31.76,39.56 602.71,65.81 1001.27,330.21 1005.23,332.86 6.16,4.12 13.11,6.12 19.98,6.12z"/>
  <path class="fil2" d="M14244.73 7820.39c17.83,0 33.27,-13.25 35.55,-31.4 52.06,-414.85 230.5,-732 371.06,-925.01 152.81,-209.84 295.27,-322.69 296.66,-323.8 15.58,-12.25 18.34,-34.77 6.13,-50.34 -12.25,-15.61 -34.73,-18.33 -50.34,-6.12 -6.06,4.76 -150.35,118.72 -308.88,335.9 -146.1,200.18 -331.71,529.27 -385.81,960.42 -2.47,19.66 11.46,37.59 31.12,40.06l4.51 0.29z"/>
  <path class="fil2" d="M7712.54 12183.19c76.26,76.19 159.03,148.92 248.83,217.71 518.96,311.66 1152.03,516.6 1849.44,596.73 216.39,24.91 434.64,37.2 653.11,37.2 602.31,0 1205.77,-93.88 1774.79,-278.15 1480.02,-479.44 2547.95,-1505.01 3007.01,-2888.01 251.66,-758.23 375.21,-1495.55 367.3,-2191.64 -6.26,-557.56 -96.53,-1089.95 -268.16,-1582.41 -57.25,-164.27 -119.5,-312.71 -182.59,-445.35 -46.09,-60.08 -93.02,-116.75 -140.42,-170.03 -26.78,-30.07 -54.21,-59.5 -82.32,-88.18 112.43,192.66 232.68,437.33 335.33,732.6 264.52,761.67 461.79,2025.48 -101.03,3721.17 -451.22,1359.51 -1501.93,2367.97 -2958.5,2839.85 -1547.4,501.13 -3337.22,298.02 -4453.66,-505.65 -15.4,-11.03 -36.27,-8.88 -49.12,4.16z"/>
  <path class="fil3" d="M13895.98 4379.37c0,0 582.19,-595.01 -265.8,-1014.3 -848.03,-419.29 -1846.97,221.3 -2010.8,688.42 -163.83,467.12 2276.6,325.88 2276.6,325.88z"/>
  <path class="fil4" d="M12883.11 3971.29c5.16,0 10.35,-1.79 14.57,-5.4 231.43,-198.02 619.11,-179.84 622.98,-179.7l1.21 0.03c11.82,0 21.74,-9.27 22.35,-21.23 0.68,-12.35 -8.81,-22.91 -21.16,-23.56 -16.65,-0.93 -409.62,-19.15 -654.51,190.4 -9.42,8.05 -10.53,22.2 -2.48,31.57 4.45,5.2 10.74,7.88 17.04,7.88z"/>
  <path class="fil4" d="M13451.49 3999.43c8.02,0 15.79,-4.33 19.8,-11.92 5.79,-10.92 1.67,-24.49 -9.24,-30.28 -11.32,-6.05 -279.52,-147.19 -469.81,-102.86 -12.07,2.79 -19.55,14.86 -16.72,26.88 2.79,12.07 14.79,19.62 26.88,16.76 174.03,-40.49 435.93,97.35 438.55,98.78 3.36,1.8 6.98,2.65 10.52,2.65z"/>
  <path class="fil5" d="M7585.04 11825.8l-298.59 550.29c0,0 -367.12,86.39 -803.71,119.98 -663.5,50.95 -859.98,-53.68 -906.96,94.49 -36.59,115.49 468.13,376.67 701.42,417.89 233.29,41.24 743.37,250.43 1074.31,287.13 330.92,36.7 476.97,-381.16 551.94,-529.9 74.97,-148.77 310.8,-652.62 310.8,-652.62l-629.2 -287.25z"/>
  <path class="fil3" d="M5836.04 12735.69c-1.4,41.57 6.12,81.02 28.03,112.9 3.47,5.03 7.2,9.83 11.46,14.46 117.47,129.74 587.74,192.47 587.74,192.47 -37.45,-36.02 -55.46,-86.85 -61,-143.82 -14.72,-149.59 56.57,-341.46 87.53,-416.24 8.41,-20.27 13.85,-31.94 13.85,-31.94 -81.37,-19.02 -158.64,-29.6 -228.52,-34.81 -68.71,-5.19 -130.29,-5.15 -181.31,-2.93 -95.89,4.13 -154.6,15.94 -154.6,15.94 0,0 -16.5,26.49 -36.3,67.21 -28.61,58.64 -64.16,146.81 -66.88,226.77z"/>
  <path class="fil4" d="M6035.96 12644.79l162.83 16.87c0,0 21.37,-79.66 45.9,-152.67 9.99,-29.86 20.62,-58.57 30.44,-80.28 -68.71,-5.19 -130.29,-5.15 -181.31,-2.93 -9.63,21.53 -21.2,51.91 -31.33,85.65 -12.96,42.65 -23.99,90.73 -26.53,133.37z"/>
  <path class="fil3" d="M5633.1 12671.75c0,0 1519.62,481.08 1723.77,516.78 204.11,35.69 315.31,-4.33 315.31,-4.33 0,0 -6.37,83.61 -23.53,161.97 -20.19,92.19 -116,146.62 -206.18,118.72 -406.47,-125.82 -1750.12,-545.31 -1841.7,-619.67 -108.05,-87.72 -84.6,-181.06 32.32,-173.46z"/>
  <path class="fil5" d="M8985.04 11699.41l19.62 494.37c0,0 -271.35,262 -629.31,514.05 -544.13,383.1 -766.5,393.65 -731.09,544.99 27.57,117.98 594.86,84.36 816.45,0.48 221.55,-83.89 766.9,-164.92 1070.03,-302.61 303.15,-137.7 214.96,-571.46 203.33,-737.65 -11.64,-166.21 -36.41,-540.45 -36.41,-540.45l-712.62 26.81z"/>
  <path class="fil3" d="M7942.06 13244.49c20.08,36.4 46.69,66.43 81.85,82.66 5.55,2.57 11.24,4.77 17.22,6.59 167.3,51.41 603.49,-135.15 603.49,-135.15 -50.59,-11.78 -92.05,-46.27 -125.92,-92.37 -89.15,-121.01 -126.03,-322.33 -137.63,-402.49 -3.16,-21.73 -4.4,-34.52 -4.4,-34.52 -79.7,25.27 -151.55,55.68 -214.21,86.94 -61.73,30.71 -114.64,62.22 -157.32,90.18 -80.27,52.59 -124.7,92.8 -124.7,92.8 0,0 -0.64,31.18 3.15,76.27 5.41,65.04 19.94,159 58.47,229.1z"/>
  <path class="fil4" d="M8067.38 13064.15l148.58 -68.77c0,0 -22.31,-79.42 -38.6,-154.68 -6.7,-30.78 -12.25,-60.89 -14.9,-84.56 -61.73,30.71 -114.64,62.22 -157.32,90.18 2.72,23.45 8.34,55.46 16.9,89.64 10.64,43.28 25.75,90.23 45.33,128.18z"/>
  <path class="fil3" d="M7734.99 13293.29c0,0 1551.98,-363.61 1745.64,-437.33 193.65,-73.69 268.77,-164.94 268.77,-164.94 0,0 37.27,75.11 62.58,151.19 29.83,89.54 -24.7,185.31 -116.47,207.44 -413.67,99.75 -1782.88,426.34 -1899.63,409.26 -137.62,-20.13 -165.22,-112.34 -60.89,-165.62z"/>
  <path class="fil6" d="M8457.16 7771.62c393.84,-303 1808.48,-178.38 2916.58,-21.66 31.51,502.09 -123.16,85.1 -29.6,579.03 -1383.5,71 -1772.07,180.09 -1772.07,180.09 0,0 206.87,1126.11 196.96,1596.91 -9.92,470.77 156.67,1833.15 156.67,1833.15l-997.57 188.04c0,0 -1034.85,-3921.78 -470.96,-4355.56z"/>
  <path class="fil7" d="M8877.42 11907.87c4.29,1.42 9.02,1.79 13.78,0.78l985.12 -201.25c14.53,-2.97 23.91,-17.15 20.94,-31.68 -2.97,-14.57 -17.15,-23.92 -31.72,-20.95l-985.12 201.25c-14.53,2.96 -23.92,17.15 -20.95,31.67 2.01,9.82 9.09,17.26 17.94,20.18z"/>
  <path class="fil7" d="M9686.46 11716.42c4.36,1.43 9.19,1.79 14.04,0.75 14.53,-3.15 23.77,-17.48 20.62,-31.97 -1.08,-4.91 -106.44,-502.74 -112.43,-1307.06 -6.01,-810.21 -254.37,-2016.99 -256.92,-2029.09 -3,-14.53 -17.18,-23.88 -31.73,-20.88 -14.56,3.04 -23.88,17.26 -20.87,31.8 2.51,12.03 249.79,1213.71 255.77,2018.6 6.02,810.33 112.57,1313.01 113.64,1318.02 2.08,9.63 9.13,16.93 17.87,19.83z"/>
  <path class="fil5" d="M8985.98 4843.73c36.4,-49.05 10.2,-151.81 19.22,-231.86 11.92,-105.65 -2.86,-267.73 -35.23,-356.99 -48.51,-134.02 -213.11,-520.76 -322.48,-566.04 -109.34,-45.29 6.77,299.31 29.22,370.45 22.41,71.13 11.24,127.63 11.24,127.63 0,0 -327.6,-769.9 -418.37,-796.15 -90.75,-26.2 51.78,430.61 87.76,543.27 0,0 -279.08,-566.44 -341.91,-564.9 -126.1,3.09 165.59,640.98 165.59,640.98 0,0 -259.04,-464.54 -334.15,-419.79 -79.56,47.44 199.24,544.31 199.24,544.31 0,0 -213.14,-278.19 -295.51,-269.17 -82.46,9.09 319.97,627.66 393.29,715.3 73.33,87.69 251.41,340.17 365.2,436.98 77.29,65.73 361.57,-18.8 476.89,-174.04z"/>
  <path class="fil8" d="M8086.72 4335.76c-8.6,-7.88 -10.21,-21.09 -3.3,-30.86 161.54,-228.67 437.15,-257.39 448.82,-258.49 12.89,-1.22 24.32,8.23 25.56,21.12 1.26,12.89 -8.23,24.35 -21.09,25.56 -2.65,0.28 -266.12,28.21 -414.96,238.91 -7.48,10.55 -22.12,13.06 -32.69,5.62l-2.35 -1.87z"/>
  <path class="fil8" d="M8527.55 4730.31c-6.87,-6.26 -9.63,-16.25 -6.19,-25.49 97.77,-262.54 -59.36,-416.06 -60.97,-417.56 -9.38,-8.91 -9.81,-23.77 -0.86,-33.16 8.81,-9.31 23.45,-9.73 32.83,-1.18l0.32 0.36c7.45,7.05 181.17,176.65 72.65,467.91 -4.52,12.14 -18.01,18.33 -30.15,13.81l-7.62 -4.69z"/>
  <path class="fil3" d="M11177.4 4304.8l0.5 -1.87 -0.07 -0.03 -0.21 0.24 -0.82 1.68 -2.15 4.87 -5.04 11.63 -11.28 25.96c-7.85,17.93 -16.33,36.49 -25.07,55.14 -17.47,37.41 -35.81,75.54 -55.28,113.35 -39.21,75.58 -80.23,151.34 -125.05,224.77 -22.45,36.74 -45.01,73.37 -68.31,109.46 -23.41,36.05 -47.45,71.64 -72.11,106.73 -24.49,35.16 -50.13,69.42 -75.79,103.58 -25.64,34.12 -51.99,67.63 -78.95,100.49 -214.96,263.69 -465.33,488.93 -745.74,661.49 -17.51,10.85 -35.09,21.53 -52.96,31.77 -17.65,10.6 -35.66,20.47 -53.63,30.5l-13.47 7.52c5.69,-3.29 11.92,-5.87 18.65,-9.05 13.21,-5.59 28.14,-11.21 43.43,-15.04 15.37,-4.01 31.05,-6.94 46.26,-8.23 14.9,-1.61 29.29,-1.68 41.92,-1 25.14,1.22 43.89,6.12 54.71,9.42 11.06,3.57 15.85,6.33 16.04,6.73 0.4,1.15 -14.11,-6.3 -32.41,-20.38 -18.5,-14.03 -41.42,-33.8 -65.66,-57.03 -24.24,-23.34 -49.76,-50.09 -75.47,-79.09 -51.98,-57.79 -104.4,-124.27 -156.61,-193.91 -104.08,-140.13 -205.65,-294.33 -304.11,-452.55 -49.48,-79.09 -98.06,-159.53 -145.72,-240.7 -24.09,-40.45 -47.86,-81.13 -71.17,-121.8l-68.17 -117.87 -830.16 377.51 15.4 40.21 14.82 37.31 29.76 73.43c20.34,48.48 40.99,96.53 62.11,144.5 42.69,95.59 87.36,190.4 134.37,284.82 94.7,188.61 197.95,375.14 320.4,561.24 61.23,93.27 127.74,186 203.83,279.95 38.38,46.8 79.33,93.84 124.7,141.34 45.32,47.52 95.35,95.35 154.24,143.43 59.11,47.97 126.88,97.06 216,143 44.43,22.76 95.31,44.46 153.92,62.41 58.21,17.82 126.24,31.61 200.93,35.34 37.45,1.82 76.65,0.89 116.29,-3.01 39.84,-4.22 80.02,-11.32 119.37,-21.87 39.12,-10.6 77.72,-23.99 113.42,-40.07 18.26,-7.88 35.26,-16.68 52.12,-25.38l19.08 -10.45c25.53,-13.96 51.06,-27.86 76.12,-42.53 25.28,-14.32 50.27,-29.15 75.08,-44.29 49.73,-30 98.54,-61.54 146.75,-93.81 47.8,-32.86 95.24,-66.27 141.42,-101.17 46.44,-34.63 91.69,-70.65 136.27,-107.37 44.25,-37.17 87.97,-74.83 130.39,-113.78 170.32,-155.21 324.12,-325.85 461.4,-506.65 68.63,-90.44 133.14,-183.56 193.04,-279.19 59.9,-95.66 116.79,-192.9 168.17,-293.08 25.78,-50.05 50.59,-100.61 74.44,-151.69 23.91,-51.09 46.68,-102.79 67.99,-155.49 21.44,-52.6 42.1,-105.83 61.36,-160.58 9.56,-27.5 18.88,-55.32 28,-84 4.59,-14.46 9.16,-28.88 13.68,-44.21l15.43 -54.13 -926.4 -278.47z"/>
  <path class="fil4" d="M9780.62 6279.82c12.45,4.12 26.42,-1.43 32.44,-13.57 91.58,-184.03 133.97,-413.48 135.76,-423.19 2.65,-14.57 -7.05,-28.61 -21.63,-31.23 -14.6,-2.65 -28.57,7.02 -31.25,21.63 -0.4,2.29 -42.9,231.79 -131,408.84 -6.6,13.32 -1.19,29.43 12.1,36.05l3.58 1.47z"/>
  <path class="fil4" d="M9987.67 6128.74c4.69,1.53 9.81,1.83 14.97,0.54 14.39,-3.65 23.09,-18.23 19.51,-32.66 -2,-7.83 -48.87,-193.76 -77.48,-252.37 -6.47,-13.36 -22.55,-18.91 -35.91,-12.39 -13.36,6.52 -18.87,22.59 -12.39,35.92 26.17,53.63 73.18,240.09 73.65,241.99 2.32,9.24 9.24,16.19 17.65,18.98z"/>
  <path class="fil4" d="M8458.49 5411.1c7.52,2.51 16.08,1.61 23.24,-3.08 266.08,-175.87 812.51,-412.63 817.99,-415.03 13.6,-5.88 19.9,-21.7 14.04,-35.34 -5.92,-13.61 -21.74,-19.87 -35.38,-14.01 -5.51,2.41 -556.23,241.03 -826.29,419.54 -12.36,8.16 -15.76,24.84 -7.59,37.24 3.47,5.23 8.44,8.84 14,10.67z"/>
  <path class="fil3" d="M11169.59 4321.33c-70.64,214.25 46.58,734.53 -67.09,1650.3 -8.34,67.17 -17.94,136.73 -28.86,208.76 -10.38,67.42 -21.87,137.02 -34.9,208.99 -12,66.84 -25.38,135.87 -39.85,206.55 -12.74,62.01 -26.56,125.52 -41.42,190.54 -15.29,66.8 -31.51,134.94 -49.19,204.97 -4.94,19.76 -10.35,40.99 -16.15,63.41 -1.36,5.62 -2.8,11.23 -4.3,17 -1.36,5.01 -2.72,10.17 -4.04,15.4 -0.97,3.91 -1.9,7.73 -3.01,11.6l-2.18 8.53c-1.29,5.04 -2.58,10.2 -4.01,15.32l-0.79 3.04c-1.53,6.23 -3.22,12.45 -4.9,18.8l-0.68 2.72c-1.4,5.41 -2.83,10.95 -4.36,16.5 -6.74,25.89 -13.86,52.85 -21.27,80.77 -1.9,6.94 -3.76,14 -5.62,21.05 -2.54,9.35 -5.04,18.87 -7.62,28.5 -5.05,18.84 -10.28,38.03 -15.54,57.62 -2.65,9.77 -5.3,19.69 -8.02,29.53 -5.69,21.05 -11.53,42.35 -17.48,63.98 -1.08,3.94 -2.18,7.95 -3.26,11.96 -14.07,51.49 -28.78,104.58 -44.01,158.86 -6.9,24.49 -13.88,49.23 -20.91,74.19 -8.51,30.07 -17.15,60.44 -25.92,90.9 -12.71,44.6 -25.74,89.54 -38.88,134.44 -5.55,18.97 -11.1,37.98 -16.68,56.96 -5.08,17.11 -10.24,34.26 -15.28,51.41 -6.2,20.59 -12.25,41.1 -18.44,61.58 -4.08,13.71 -8.17,27.28 -12.35,40.85 -2.55,8.53 -5.13,16.94 -7.66,25.38 -5.23,16.9 -10.35,33.72 -15.51,50.48 -5.12,16.76 -10.31,33.37 -15.47,49.88 -3.61,11.67 -7.27,23.23 -10.74,34.8 -3.33,10.27 -6.49,20.48 -9.74,30.61l-2.61 8.27c-1.87,5.87 -3.69,11.74 -5.55,17.47 -3.91,12 -7.59,23.81 -11.39,35.62 -4.44,13.79 -8.88,27.46 -13.24,41.07 -35.45,108.95 -70.03,210.12 -102.57,297.91 241.96,278.33 653.08,521.18 1136.46,667.12l268.16 -174.44 224.55 284.49c472.35,69.21 977.95,42.04 1444.25,-127.67 153.95,-314.75 407.76,-1469.25 479.61,-1814.68 14.29,-68.7 27.21,-137.76 39.09,-206.98 57.15,-332.54 87.72,-670.4 108.27,-1025.03 1.22,-19.33 2.19,-38.63 3.33,-58l0.37 -6.94c21.91,-298.85 412.41,-1179.63 373.1,-1496.63 -77.91,-628.06 -478.3,-462.65 -839.15,-559.42 -118.44,-31.76 -218.01,-72.04 -299.56,-113.21 -34.05,-17.08 -64.77,-34.4 -92.7,-51.3 -11.63,-6.91 -22.55,-13.71 -33,-20.73 -112.1,-72.68 -173.43,-134.05 -173.43,-134.05l-818.67 -85.53c-81.1,95.38 -176.65,150.66 -277.01,186.39 -11.09,3.8 -22.23,7.59 -33.58,11.2 -16.79,5.23 -33.68,10.03 -50.55,14.32 -289.47,75.26 -595.58,34.02 -688.02,314.56z"/>
  <path class="fil4" d="M13224.43 8729.45c9.09,0 17.65,-5.61 21.01,-14.63 448.01,-1202.48 679.86,-3279.08 682.16,-3299.89 1.4,-12.31 -7.52,-23.37 -19.8,-24.73 -12.35,-1.29 -23.41,7.52 -24.73,19.83 -2.29,20.76 -233.59,2091.93 -679.65,3289.14 -4.33,11.6 1.57,24.49 13.21,28.82l7.8 1.46z"/>
  <path class="fil4" d="M12432.5 4299.96c-8.63,26.03 22.62,59.76 69.77,75.29 47.15,15.54 92.34,7.05 100.93,-18.97 8.6,-26.03 -22.66,-59.76 -69.81,-75.33 -47.12,-15.54 -92.33,-7.01 -100.89,19.01z"/>
  <path class="fil4" d="M12066.74 4206.66c-8.6,26.03 22.66,59.76 69.81,75.32 47.12,15.54 92.33,7.05 100.89,-18.97 8.64,-26.07 -22.62,-59.76 -69.77,-75.33 -47.15,-15.54 -92.33,-7.05 -100.93,18.98z"/>
  <path class="fil4" d="M11963.27 4402.25c9.99,0 19.12,-6.73 21.7,-16.86 3.08,-12 -4.16,-24.21 -16.16,-27.29 -315.7,-80.84 -335.47,-270.91 -336.18,-278.93 -1.05,-12.32 -11.85,-21.34 -24.1,-20.52 -12.31,0.96 -21.52,11.64 -20.58,23.95 0.68,9.35 20.98,229.64 369.73,318.94l5.59 0.71z"/>
  <path class="fil4" d="M11477.92 6382.22c421.15,0 785.91,-108.09 1030.16,-206.15 304.39,-122.19 493.22,-256.17 495.08,-257.49 10.1,-7.2 12.39,-21.2 5.23,-31.26 -7.24,-10.06 -21.23,-12.42 -31.29,-5.2 -1.83,1.29 -187.22,132.66 -486.99,252.85 -276.15,110.73 -708.71,234.47 -1201.51,194.87 -12.38,-0.92 -23.16,8.24 -24.16,20.55 -0.96,12.35 8.23,23.17 20.55,24.16 65.45,5.23 129.82,7.66 192.94,7.66z"/>
  <path class="fil4" d="M12752.62 7174.54c0,0 -1006.21,-256.45 -1632.94,-263.97l-191.51 829.7c0,0 993.42,167.05 1622.05,276.61l202.4 -842.33z"/>
  <path class="fil4" d="M13316.79 4596.8c193.77,0 341.88,-54.21 443,-109.95 160.93,-88.75 239.02,-197.98 242.27,-202.6 7.12,-10.14 4.69,-24.1 -5.44,-31.23 -10.1,-7.15 -24.09,-4.72 -31.22,5.38 -0.76,1.07 -76.58,106.65 -229.21,190.29 -140.56,76.97 -377.22,150.69 -706.83,64.52 -11.91,-3.09 -24.24,4.04 -27.35,16.04 -3.15,12 4.05,24.21 16,27.35 109.27,28.58 208.94,40.21 298.77,40.21z"/>
  <path class="fil9" d="M10741.03 7616.02c15.22,-54.28 29.94,-107.37 44.01,-158.86 -14.18,51.53 -28.78,104.58 -44.01,158.86z"/>
  <path class="fil9" d="M10813.78 7351.7c5.26,-19.59 10.48,-38.78 15.54,-57.62 -5.13,18.8 -10.28,38.03 -15.54,57.62z"/>
  <path class="fil4" d="M11035.29 6278.96l4.94 1.15c14.75,1.94 28.21,-8.44 30.11,-23.16 48.94,-374.64 103.07,-819.67 108.34,-945.13 0.57,-14.82 -10.92,-27.35 -25.75,-27.96 -14.82,-0.61 -27.35,10.89 -27.96,25.71 -5.19,123.78 -59.15,566.9 -107.9,940.43 -1.68,12.96 6.19,25 18.22,28.96z"/>
  <path class="fil9" d="M12014.22 2098.04c0,0 -259.72,203.97 -89.33,515.1 0,0 93.34,-363.37 89.33,-515.1z"/>
  <path class="fil9" d="M13053.79 3501.77c0,0 168.31,163.48 202.94,42.82 34.62,-120.69 -23.99,-180.84 -23.99,-180.84 0,0 181.74,174.65 184.67,43.11 2.94,-131.58 -91.9,-249.01 -91.9,-249.01 0,0 168.66,-123.45 113.64,-321.01 -55,-197.56 -61.87,-342.34 -6.77,-504.13 55.14,-161.72 29.93,-329.07 -49.94,-401.46 -116.75,-105.87 -286.57,-89.4 -286.57,-89.4 0,0 -90.32,-295.81 -428.3,-287.89 -152.02,3.54 -275.47,-47.87 -380.81,-99.25 -128.89,-62.87 -230.71,-125.74 -324.55,-87.97 -170.56,68.64 -365.91,631.82 92.87,798.65 0,0 908.82,609.37 998.72,1336.38z"/>
  <path class="fil5" d="M12195.59 3662.6l-22.3 213.56c22.88,22.8 46.29,43 70.06,60.9 347.58,261.46 776.5,27.56 776.5,27.56l77.41 -740.51 -794.11 386.2 -107.56 52.28z"/>
  <path class="fil9" d="M12197.56 3643.94l-24.27 232.22c22.88,22.8 46.29,43 70.06,60.9 328.85,-92.02 593.33,-399.35 593.33,-399.35l-533.54 72.6 -105.59 33.62z"/>
  <path class="fil8" d="M12027.61 2688.19c0,0 -106.33,-156 -189.86,-19.84 -83.53,136.17 -61.12,431.75 128.46,403.58l61.4 -383.74z"/>
  <path class="fil5" d="M11845.73 3177.22c0,0 -46.8,441.52 412.63,488.49 456.56,46.87 805.06,-279.08 823,-293.98l0.54 -0.4 14.68 -92.26 76.3 -479.01 40.78 -255.98c0,0 106.77,-457.53 -324.99,-588.11 -315.43,-95.41 -622.87,-73.5 -792.75,78.48 -5.48,4.94 -10.81,9.99 -15.93,15.21 -54.13,53.99 -92.15,122.81 -109.19,206.87l-62.59 460.96 -15.36 112.93 -47.12 346.79z"/>
  <path class="fil9" d="M13172.87 2800.07c0,0 -103.41,32.33 -148.94,157.71 -68.31,-7.12 -116.1,-70.93 -103.61,-138.45 7.23,-39.21 16.32,-86.29 27.28,-139.2 32.76,-158.68 83.45,-208.87 -8.56,-308.3 -92.05,-99.39 -5.55,-158.42 -89.33,-228.78 -91.91,-77.15 -319.15,59.47 -486.24,24.81 -198.38,-41.07 -181.55,-175.66 -354.31,-21.53 0,0 45.83,-232.25 271.25,-295.16 225.42,-62.9 859.33,-7.44 956.4,294.48 97.1,301.97 -63.94,654.41 -63.94,654.41z"/>
  <path class="fil9" d="M12809.4 2466.71l0 0c-30.47,52.24 -97.1,70.46 -149.88,40.92 -30.82,-17.22 -67.45,-34.83 -106.65,-47.76 -55.61,-18.33 -84.74,-79.19 -63.48,-133.72 0,0 229.21,2.9 320.01,140.56z"/>
  <path class="fil9" d="M11960.01 2371.61l-0.04 0c17.94,54.06 75.79,83.89 130.18,66.95 31.76,-9.92 68.92,-19.01 107.59,-23.27 54.78,-6.09 93.48,-56.5 84.53,-110.88 0,0 -211.81,-41.92 -322.26,67.2z"/>
  <path class="fil8" d="M12501.31 2836.91c-3.36,32.15 60.11,65.13 141.78,73.65 81.71,8.56 150.63,-10.6 153.99,-42.75 3.37,-32.15 -60.15,-65.13 -141.81,-73.65 -81.67,-8.56 -150.63,10.6 -153.96,42.75z"/>
  <path class="fil8" d="M11892.81 2830.43c11.32,2.32 23.2,4.18 35.48,5.44 81.63,8.53 150.55,-10.64 153.92,-42.79 3.37,-32.15 -60.15,-65.16 -141.78,-73.68 -11.03,-1.15 -21.84,-1.79 -32.26,-1.9l-15.36 112.93z"/>
  <path class="fil9" d="M12492.83 2657.11c-4.59,44.18 11.67,82.05 36.37,84.63 24.74,2.62 48.48,-31.11 53.1,-75.25 4.62,-44.18 -11.64,-82.06 -36.37,-84.64 -24.7,-2.58 -48.48,31.12 -53.1,75.26z"/>
  <path class="fil9" d="M12049.16 2610.78c-4.62,44.15 11.63,82.02 36.34,84.6 24.7,2.58 48.47,-31.12 53.09,-75.29 4.62,-44.15 -11.67,-82.02 -36.37,-84.6 -24.7,-2.58 -48.44,31.12 -53.06,75.29z"/>
  <path class="fil9" d="M12193.55 3067.16c161.37,16.87 307.98,-107.73 309.95,-109.45 7.59,-6.59 8.41,-18.09 1.83,-25.75 -6.59,-7.62 -18.12,-8.44 -25.74,-1.86 -9.56,8.27 -236.8,200.71 -421.47,37.49 -7.56,-6.7 -19.12,-5.99 -25.82,1.57 -6.66,7.55 -5.98,19.12 1.61,25.81 51.7,45.69 106.48,66.6 159.64,72.18z"/>
  <path class="fil9" d="M12956.3 3177.54c1.57,5.07 45.62,145.96 125.06,194.19l0.5 -0.4 14.68 -92.29c0,0 -71.2,-19.98 -140.24,-101.5z"/>
  <path class="fil5" d="M13069.22 2879.3c0,0 201.31,-218.69 311.19,-18.83 90.55,164.73 -152.8,543.88 -349.44,384.69l38.24 -365.87z"/>
  <path class="fil9" d="M13062.6 3176.26c9.13,0.96 17.72,-5.08 19.73,-14.29 38.38,-177.4 195.26,-224.31 201.93,-226.21 9.66,-2.75 15.28,-12.85 12.52,-22.55 -2.72,-9.7 -12.82,-15.32 -22.48,-12.6 -7.52,2.15 -184.53,54.25 -227.71,253.63 -2.11,9.88 4.15,19.59 14.01,21.73l2 0.29z"/>
  <path class="fil9" d="M13243.62 3083.84c5.26,0.58 10.77,-1.18 14.79,-5.23 7.15,-7.12 7.2,-18.68 0.07,-25.81 -6.67,-6.66 -66.45,-64.77 -122.42,-56.5 -9.99,1.47 -16.9,10.74 -15.43,20.72 1.46,10 10.77,16.87 20.72,15.4 32.22,-4.76 76.77,31.73 91.23,46.19 3.08,3.09 7.01,4.84 11.03,5.23z"/>
  <path class="fil9" d="M12289.15 2860.58c10.02,1.04 18.97,-6.26 20.04,-16.29 1.04,-10.03 -6.23,-19.01 -16.26,-20.08 -66.84,-6.95 -94.37,-45.54 -103.18,-61.87 88.08,-141.82 175.83,-284.82 176.73,-286.28 5.26,-8.6 2.58,-19.84 -6.06,-25.1 -8.59,-5.3 -19.83,-2.58 -25.1,6.01 -0.92,1.47 -92.01,150.02 -181.74,294.41 -2.89,4.66 -3.54,10.38 -1.76,15.58 1.15,3.37 29.61,82.35 137.31,93.62z"/>
  <path class="fil10" d="M12487.89 2617.72l0.23 0 0.23 0 0.23 0 0.23 0 0.23 0 0.23 0 0.23 0 0.23 0 0.23 0c4.29,0.02 8.6,0.09 12.94,0.21 -5.01,11.36 -8.56,24.71 -10.1,39.17 -4.59,44.18 11.67,82.05 36.37,84.63 0.89,0.11 1.8,0.15 2.69,0.15 23.74,0 45.97,-32.83 50.41,-75.41 1.5,-14.18 0.82,-27.71 -1.57,-39.6 94.84,19.23 162.15,66.2 159.07,116.86 -1.36,22.09 -15.93,41.88 -39.93,57.82 -13.96,-3.26 -28.96,-5.79 -44.6,-7.41 -13.14,-1.4 -25.96,-2.04 -38.24,-2.04 -63.95,0 -112.93,17.83 -115.72,44.79 -0.14,1.33 -0.18,2.65 -0.1,4.01 -125.86,-8.2 -224.52,-63.94 -220.84,-125.02 3.44,-56.71 93.88,-98.17 207.51,-98.17z"/>
  <path class="fil11" d="M12532.22 2841.92c69.35,0 130.07,-15.43 167.66,-40.35 -13.96,-3.26 -28.96,-5.79 -44.6,-7.41 -13.14,-1.4 -25.96,-2.04 -38.24,-2.04 -63.95,0 -112.93,17.83 -115.72,44.79 -0.14,1.33 -0.18,2.65 -0.1,4.01 0.71,0.04 1.43,0.07 2.14,0.11 9.74,0.61 19.4,0.89 28.86,0.89z"/>
  <path class="fil12" d="M12531.89 2741.89c23.74,0 45.97,-32.83 50.41,-75.41 1.5,-14.18 0.82,-27.71 -1.57,-39.6 -20.2,-4.11 -41.64,-6.94 -63.88,-8.3 -4.69,-0.28 -9.31,-0.51 -13.92,-0.65 -5.01,11.36 -8.56,24.71 -10.1,39.17 -4.59,44.18 11.67,82.05 36.37,84.63 0.89,0.11 1.8,0.15 2.69,0.15z"/>
  <path class="fil13" d="M11796 2792.41c6.7,-46.26 20.95,-90.11 41.74,-124.06 25.38,-41.35 52.89,-55.78 78.84,-55.78 1.94,0 3.91,0.11 5.84,0.25l0.47 -3.44c-2.93,-5.4 -5.69,-10.78 -8.37,-16.11 -4.73,-0.14 -9.42,-0.21 -14.08,-0.21 -113.67,0 -204.1,41.46 -207.54,98.17 -2.44,39.96 38.95,77.62 103.11,101.17z"/>
  <path class="fil12" d="M11922.88 2609.38l2.11 -15.68c-3.5,-0.18 -7.01,-0.32 -10.48,-0.43 2.68,5.33 5.44,10.71 8.37,16.11z"/>
  <path class="fil11" d="M11894.96 2814.64l13.2 -97.13c0,0 0,0 0.04,0l0 0 14.21 -104.69c-1.93,-0.14 -3.9,-0.25 -5.84,-0.25 -25.95,0 -53.45,14.43 -78.84,55.78 -20.79,33.95 -35.04,77.8 -41.74,124.06 28.96,10.67 62.62,18.44 98.96,22.24z"/>
  <path class="fil10" d="M12082.24 2792.84c41.64,-17.62 68.21,-43.51 70.07,-73.76 1.19,-19.62 -8.2,-38.7 -25.64,-55.81 -9.7,19.65 -23.81,32.25 -38.48,32.25 -0.89,0 -1.79,-0.07 -2.68,-0.14 -23.38,-2.44 -39.25,-36.59 -36.92,-77.73 -34.33,-12.53 -75.14,-21.05 -119.26,-23.74 -1.43,-0.07 -2.89,-0.14 -4.33,-0.21l-2.11 15.68 -0.47 3.44 -14.21 104.69c10.42,0.11 21.19,0.75 32.22,1.9 81.41,8.53 144.78,41.36 141.81,73.44z"/>
  <path class="fil11" d="M11944.79 2817.25c53.03,0 101,-9.02 137.45,-24.41 2.97,-32.08 -60.4,-64.91 -141.81,-73.44 -11.03,-1.15 -21.8,-1.79 -32.22,-1.9 -0.04,0 -0.04,0 -0.04,0l-13.2 97.13c6.87,0.72 13.85,1.29 20.87,1.72 9.81,0.61 19.48,0.89 28.96,0.89z"/>
  <path class="fil12" d="M12088.18 2695.52c14.68,0 28.78,-12.6 38.48,-32.25 -18.19,-17.87 -45.14,-33.59 -78.09,-45.62 -2.32,41.14 13.54,75.29 36.92,77.73 0.89,0.07 1.79,0.14 2.68,0.14z"/>
  <path class="fil9" d="M12151.13 2718.58l8.84 -3.3c48.34,-42.17 111.99,-0.71 114.68,1.05 6.19,4.11 14.53,2.44 18.65,-3.72 4.11,-6.16 2.47,-14.5 -3.69,-18.62 -28.57,-19.19 -96.16,-43.64 -147.32,1.05 -5.59,4.86 -6.16,13.39 -1.29,18.97 2.65,3.04 6.4,4.59 10.13,4.59z"/>
  <path class="fil9" d="M13225.35 2780.38c4.01,0 7.99,-1.8 10.64,-5.23 4.55,-5.84 3.47,-14.32 -2.4,-18.84 -202.72,-157.32 -487.81,-43.85 -499.88,-38.95 -6.87,2.79 -10.17,10.64 -7.38,17.51 2.83,6.87 10.67,10.2 17.55,7.38 2.79,-1.12 282.88,-112.39 473.24,35.3l8.23 2.83z"/>
  <path class="fil7" d="M13602.97 8994.04c0,0 -63.34,1847.85 -2293.64,1111.96 -1191.27,-393.12 -1719.51,-694.89 -1719.51,-694.89 0,0 -375.75,1042.44 -577.57,1467.92 -201.82,425.44 -763.06,1466.35 -763.06,1466.35l-962.24 -236.95c0,0 1120.78,-3900.38 1812.81,-4065.24 692.07,-164.91 1522.31,97.39 2986.82,429.6 0,0 1279.03,195.94 1516.4,521.26z"/>
  <path class="fil14" d="M8222.22 11995.4c11.57,3.83 24.6,-0.62 31.26,-11.39 310.7,-502.78 619.24,-1264.17 867.15,-1875.96 104.36,-257.54 194.51,-479.94 269.7,-646.14 101.86,-225.09 143.29,-269.96 158.93,-276.65 69.1,-29.61 295.91,72.93 583.05,202.74 415.96,188.08 1044.55,472.28 1775.54,623.94 375,77.8 699.8,26.88 965.32,-151.34 472.63,-317.17 589.27,-918.41 594.04,-943.87 2.68,-14.57 -6.95,-28.6 -21.53,-31.29 -14.56,-2.72 -28.6,6.87 -31.36,21.49 -1.11,6.01 -117.65,604.96 -571.45,909.32 -253.02,169.64 -563.93,217.79 -924.1,143.07 -725.19,-150.45 -1350.53,-433.21 -1764.34,-620.29 -333.93,-150.97 -535.5,-242.13 -626.37,-203.14 -82.63,35.41 -213.63,350.8 -457.21,951.99 -247.19,609.91 -554.77,1368.93 -863.1,1867.88 -7.8,12.6 -3.87,29.15 8.74,36.98l5.72 2.66z"/>
  <path class="fil14" d="M7403.3 11809.69l1.58 0.46 972.62 257.18c14.36,3.79 29.08,-4.77 32.83,-19.09 3.84,-14.39 -4.65,-29.32 -19.12,-32.86l-972.58 -257.17c-14.32,-3.81 -29.04,4.76 -32.83,19.08 -3.65,13.81 4.12,28 17.51,32.41z"/>
  <path class="fil9" d="M11414.3 8556.24l-2950.26 -278.22c-5.69,-0.54 -9.84,-5.55 -9.28,-11.2l34.52 -366.66c0.57,-5.66 5.62,-9.81 11.28,-9.28l2950.23 278.19c5.69,0.57 9.84,5.55 9.31,11.23l-34.55 366.63c-0.54,5.65 -5.58,9.8 -11.24,9.31z"/>
  <path class="fil9" d="M8143.71 8247.8c-111.81,-10.52 -202.57,-94.91 -221.27,-205.65l-359.35 -2132.99c-21.98,-130.36 85.64,-246.08 217.25,-233.69l1330.12 125.45c89.72,8.45 162.9,75.59 179.02,164.27l442.17 2432.38 -1587.93 -149.77z"/>
  <path class="fil3" d="M9128.15 7825.69l73.92 5.69 24.42 97.17 -73.89 -5.65 -24.45 -97.21zm-119.48 -9.13l24.49 97.18 -90.37 -6.91 15.79 114.67 104.51 8.02 27.1 105.69 119.47 9.17 -27.1 -105.69 73.89 5.65 27.11 105.69 119.43 9.16 -27.1 -105.69 90.37 6.91 -15.79 -114.68 -104.5 -8.02 -24.42 -97.21 90.29 6.95 -15.76 -114.68 -104.5 -8.02 -27.11 -105.69 -119.47 -9.16 27.11 105.69 -73.93 -5.66 -27.07 -105.69 -119.47 -9.16 27.1 105.73 -90.32 -6.91 15.75 114.64 104.5 8.02z"/>
  <path class="fil1" d="M7727 6260.56c31.12,139.31 157.53,261.04 282.41,271.96 124.91,10.92 200.96,-93.13 169.88,-232.43 -31.08,-139.31 -157.49,-261.08 -282.41,-271.96 -124.91,-10.92 -200.96,93.16 -169.88,232.43z"/>
  <path class="fil9" d="M7979.77 6235.35c6.19,27.86 20.05,51.2 30.9,52.13 10.88,0.96 14.6,-20.84 8.41,-48.69 -6.2,-27.89 -20.05,-51.23 -30.93,-52.17 -10.85,-0.96 -14.61,20.88 -8.38,48.72z"/>
  <path class="fil9" d="M7861.77 6225.04c6.22,27.86 20.08,51.2 30.89,52.17 10.88,0.93 14.68,-20.87 8.45,-48.72 -6.23,-27.86 -20.09,-51.23 -30.97,-52.17 -10.81,-0.93 -14.6,20.84 -8.37,48.72z"/>
  <path class="fil9" d="M7978.59 6402.98c97.28,8.49 95.34,-97.99 95.31,-99.06 -0.18,-5.84 -4.87,-11.96 -10.42,-13.71 -5.62,-1.76 -9.99,1.54 -9.88,7.34 0.11,3.87 1.29,90.58 -79.91,83.49 -81.23,-7.09 -119.5,-97.21 -121.09,-101.07 -2.51,-5.98 -8.59,-10.17 -13.6,-9.35 -4.98,0.82 -7.05,6.37 -4.59,12.35 0.47,1.15 46.94,111.5 144.18,120.01z"/>
  <path class="fil9" d="M9289.55 5965.22l438.47 2412.33 151.99 14.32 -438.44 -2412.29c-16.29,-88.75 -89.33,-155.96 -179.09,-164.41l-152.02 -14.35c89.79,8.48 162.83,75.69 179.09,164.4z"/>
  <path class="fil15" d="M9714.24 8361.73l4.01 -0.37c12.14,-2.14 20.27,-13.81 18.04,-25.99l-433.68 -2407.06c-2.14,-12.21 -13.78,-20.34 -25.99,-18.08 -12.17,2.18 -20.3,13.81 -18.08,26.02l433.68 2407.03c1.93,10.85 11.35,18.44 22.01,18.44z"/>
  <path class="fil15" d="M8805.77 7075.22c17.9,133.55 -73.47,231.79 -204.14,219.44 -130.65,-12.28 -251.12,-130.5 -269.03,-264.05 -17.9,-133.47 73.51,-231.71 204.18,-219.43 130.65,12.31 251.09,130.56 268.99,264.04z"/>
  <path class="fil5" d="M10669.78 7655.01c0,0 -692.35,-154.57 -934.31,-39.46l84.67 439.34c0,0 390.37,-27.11 481.16,17.93 90.76,45.04 95.99,220.33 446.03,230.18l-77.55 -647.99z"/>
  <path class="fil3" d="M12943.12 7006.77l0.43 -1.54c-1.08,0.54 -4.36,2.94 -9.45,7.85l-3.68 3.87c6.01,-4.3 10.48,-7.88 12.71,-10.17zm-2197.37 561.38l81.24 -13.13 163.22 -26.64c108.73,-18.23 217.43,-37.55 325.66,-57.86 216.51,-39.84 431.61,-83.34 642.38,-131.43 105.22,-24.28 209.37,-50.09 311.52,-77.05 101.97,-27.25 202,-56.29 297.02,-87.9 94.56,-31.68 185.83,-65.23 261.04,-100.49 37.13,-17.44 70.32,-35.38 92.8,-50.05l0.79 -0.57 3.08 -5.05c12.43,-19.83 23.85,-40.24 35.59,-60.51 22.85,-40.74 45.29,-81.98 65.99,-124.16 42.17,-84.03 79.3,-171.21 113.1,-260.07 67.85,-177.8 117.72,-364.87 153.99,-556.62 17.9,-95.96 31.87,-193.16 42.35,-291.12 10.82,-97.96 17.62,-196.74 20.85,-295.63 3.71,-98.88 3.76,-197.98 0,-295.91 -1.9,-48.94 -4.77,-97.49 -8.67,-144.93 -1.87,-23.7 -3.91,-47.12 -6.12,-69.64l-3.58 -32.58 -2.72 -22.01 1119.8 -174 2.9 20.08 2.04 14.72 3.33 27.42 5.72 51.7c3.44,33.69 6.3,66.63 8.78,99.32 4.51,65.45 7.48,129.82 9.12,194.02 3.4,128.25 1.64,255.49 -4.83,382.69 -13.89,254.14 -47.12,507.8 -102.47,759.25 -13.85,62.79 -29.07,125.52 -45.61,188 -16.64,62.33 -35.13,124.63 -54.56,186.54 -39.25,123.73 -84.57,246.39 -135.77,367.08 -47.79,110.77 -100.49,220.01 -159.17,326.56 -4.94,9.35 -10.13,18.68 -15.37,27.92 -31.93,57.83 -66.23,114.64 -101.5,170.86 -17.97,27.82 -35.69,55.89 -54.53,83.35l-13.88 20.69 -6.98 10.24 -13.93 20.16c-25.13,35.41 -50.62,65.27 -74.76,90.47 -24.31,25.56 -48.08,47.52 -70.6,66.6 -22.89,19.52 -44.47,36.02 -65.81,51.41 -42.15,30.21 -81.67,54.63 -119.41,75.97 -53.2,29.86 -103.25,54.09 -151.48,75.37 -20.19,8.88 -39.99,17.25 -59.57,25.28 -66.63,27.14 -130.58,49.73 -193.44,70.28 -62.8,20.62 -124.27,38.48 -185.36,54.99 -121.77,33.04 -240.91,60.48 -359.21,85.04 -118.18,24.73 -235.36,45.75 -352.15,65.01 -233.33,38.67 -464.9,68.67 -696.19,94.09 -115.61,12.25 -231.18,23.34 -346.82,33.3 -57.86,5.01 -115.72,9.84 -173.83,14.07l-87.35 5.95 -89.8 5.58 -85.82 -874.3 78.98 -12.32z"/>
  <path class="fil4" d="M13296.31 8001.19c48.23,-21.27 98.28,-45.51 151.48,-75.37 37.74,-21.34 77.26,-45.76 119.41,-75.97 21.33,-15.4 42.92,-31.9 65.81,-51.41 22.52,-19.08 46.29,-41.03 70.6,-66.6 24.13,-25.2 49.63,-55.06 74.76,-90.47l13.93 -20.16 6.98 -10.24 13.88 -20.69c18.84,-27.46 36.56,-55.53 54.53,-83.35 35.27,-56.21 69.57,-113.03 101.5,-170.86 5.24,-9.24 10.42,-18.57 15.37,-27.92l-8.81 -4.3c0,0 -722.5,9.81 -679.44,697.34z"/>
  <path class="fil4" d="M11788.8 8384.53c3.4,1.11 7.08,1.57 10.92,1.22 9.09,-0.89 917.02,-88.97 1425.24,-327.49 512.3,-240.3 752.43,-698.83 762.38,-718.24 6.8,-13.17 1.61,-29.35 -11.6,-36.16 -13.21,-6.73 -29.39,-1.6 -36.19,11.57 -2.36,4.58 -242.24,461.89 -737.41,694.22 -499.87,234.54 -1398.46,321.72 -1407.48,322.61 -14.79,1.4 -25.64,14.5 -24.24,29.26 1.04,10.99 8.53,19.76 18.37,23.02z"/>
  <path class="fil4" d="M13249.91 7338.62c9.06,3 19.4,1.08 26.82,-5.91 10.85,-10.14 11.39,-27.14 1.22,-37.99 -125.49,-133.83 -306.22,-268.06 -313.88,-273.71 -11.89,-8.84 -28.72,-6.33 -37.56,5.62 -8.84,11.92 -6.33,28.75 5.58,37.59 1.87,1.33 184.54,137.05 306.69,267.27 3.19,3.36 7.02,5.76 11.13,7.12z"/>
  <path class="fil4" d="M12952.22 7077.66l2.9 0.79c106.91,22.52 247.82,68.23 249.26,68.7 14.11,4.59 29.25,-3.15 33.87,-17.22 4.55,-14.1 -3.12,-29.21 -17.14,-33.87l-0.11 -0.03c-5.88,-1.9 -145.08,-47.05 -254.78,-70.18 -14.49,-3.04 -28.74,6.23 -31.83,20.76 -2.86,13.54 5.01,26.82 17.83,31.05z"/>
  <path class="fil4" d="M13193.81 6421.53l0.83 0.25c14.21,4.22 29.18,-3.91 33.36,-18.12 10.28,-34.63 250.81,-851.82 250.95,-1263.21 0,-14.82 -12.04,-26.84 -26.85,-26.84 -14.86,0 -26.89,11.99 -26.89,26.84 -0.14,403.61 -246.21,1239.54 -248.72,1247.91 -4.12,13.96 3.61,28.64 17.32,33.16z"/>
  <path class="fil4" d="M13426.93 5394.56c7.34,2.4 15.68,1.64 22.69,-2.79 12.6,-7.85 16.4,-24.46 8.53,-37.02l-88.11 -140.52c-7.92,-12.57 -24.49,-16.37 -37.05,-8.48 -12.56,7.88 -16.36,24.49 -8.48,37.05l88.11 140.52c3.43,5.52 8.59,9.32 14.32,11.24z"/>
  <path class="fil4" d="M11172.17 8418.12c3.54,1.18 7.38,1.61 11.32,1.18 14.79,-1.6 25.38,-14.86 23.81,-29.6l-92.3 -847.92c-1.61,-14.72 -14.86,-25.42 -29.64,-23.78 -14.75,1.61 -25.38,14.86 -23.81,29.61l92.3 847.88c1.18,10.82 8.63,19.45 18.33,22.63z"/>
  <path class="fil16" d="M11876.73 7073.18c9.38,0 18.12,-5.95 21.27,-15.32 260.06,-775.88 635.35,-2708.6 639.11,-2728.03 2.32,-12.14 -5.62,-23.92 -17.76,-26.24 -12.17,-2.36 -23.91,5.58 -26.24,17.75 -3.76,19.37 -378.5,1949.19 -637.61,2722.32 -3.94,11.74 2.36,24.41 14.11,28.36l7.12 1.18z"/>
  <path class="fil16" d="M11321.19 6999.43c11.06,0 20.65,-8.13 22.2,-19.37 158.28,-1155 818.95,-2709.56 825.61,-2725.17 4.87,-11.35 -0.4,-24.53 -11.77,-29.39 -11.39,-4.87 -24.56,0.39 -29.43,11.77 -6.7,15.65 -669.73,1575.79 -828.84,2736.7 -1.68,12.29 6.91,23.57 19.15,25.25l3.09 0.21z"/>
  <path class="fil16" d="M12917.49 10012.28c47.65,0 98.92,-16.61 151.06,-49.23 190.62,-119.33 421.15,-480.83 506.61,-1019.45 1.93,-12.24 -6.41,-23.7 -18.62,-25.67 -12.24,-2.01 -23.7,6.4 -25.64,18.65 -83.27,524.69 -304.14,874.52 -486.13,988.45 -61.8,38.7 -120.51,51.23 -169.81,36.23 -39.56,-12 -70.03,-39.06 -93.23,-82.78 -158.61,-298.77 117.18,-1199.36 119.97,-1208.41 3.69,-11.81 -2.97,-24.35 -14.79,-28.03 -11.81,-3.62 -24.38,2.93 -28.03,14.79 -11.67,37.73 -284.06,927.47 -116.75,1242.68 28.64,54.03 68.95,89.22 119.8,104.65 17.79,5.41 36.37,8.13 55.56,8.13z"/>
  <path class="fil1" d="M14156.48 12874.07c5.91,25.17 12.72,49.77 20.55,73.71 52.7,161.44 149.41,290.48 280.81,343.82 497.76,202.1 965.63,132.18 1917.85,110.05 952.1,-22.15 1659.14,-274.31 1570.85,-1058.19 -6.98,-61.87 -19.01,-119.69 -35.19,-173.6 -21.2,-70.87 -49.77,-135.02 -83.64,-193.02l0 -0.06c-39.81,-68.43 -87.15,-128.33 -138.7,-180.64 -267.2,-271.24 -669.69,-360.03 -1029.98,-236.55 -355.85,121.98 -984.91,180.98 -1639.84,194.13 -703.64,14.21 -966.75,671.59 -862.71,1120.34z"/>
  <path class="fil2" d="M14156.48 12874.07c5.91,25.17 12.72,49.77 20.55,73.71 168.82,147.12 486.71,240.13 947.17,276.83 144.78,11.64 303.93,17.33 475.17,17.33 396.23,0 858.17,-30.76 1362.51,-91.19 426.74,-51.31 715.38,-201.65 858.17,-447.01 106.26,-182.49 111.63,-381.88 91.3,-533.88 -21.2,-70.87 -49.77,-135.02 -83.64,-193.02 36.98,113.6 118.07,435.72 -40.49,708.11 -136.52,234.44 -415.75,378.45 -829.77,428.21 -1496.42,179.58 -2515.01,92.32 -2800.97,-239.1z"/>
  <path class="fil2" d="M17001.63 11904.1c292.44,23.6 508.69,290.49 460.96,579.97 -0.92,5.59 -1.97,11.2 -3.08,16.82 -63.09,315.51 -487.18,306.05 -1665.19,317.08 -922.5,8.64 -1396.92,-321.51 -1151.6,-729.21 195.12,-324.27 1736.19,-234.85 2358.91,-184.66z"/>
  <path class="fil9" d="M14776.55 12142.69c429.09,534.43 2180.15,564.71 2409.85,164.44 111.88,-194.96 81.09,-444.57 20.01,-649.39 -6.47,-21.63 -13.21,-42.79 -20.16,-63.2 -62.87,-184.38 -142.25,-319.11 -142.25,-319.11 0,0 7.27,190.44 -638.62,121.91 -73.89,-7.8 -157.78,-11.09 -247.79,-9.95 -16.68,0.17 -33.72,0.5 -50.84,1.04 -696.48,20.88 -1701.17,292.37 -1330.22,754.26z"/>
  <path class="fil1" d="M16183.43 11824.26c101.07,112.77 276.65,155.38 507.62,122.97 5.19,-0.71 10.38,-1.5 15.54,-2.32 291.11,-44.93 432.96,-183.28 499.84,-287.17 -6.47,-21.63 -13.21,-42.79 -20.16,-63.2 -49.55,95.63 -179.88,258.63 -502.18,303.76 -213.85,29.97 -374.35,-7.05 -463.96,-107.02 -80.7,-90.18 -102.08,-229.38 -62.52,-403.88 -16.68,0.17 -33.72,0.5 -50.84,1.04 -39.6,185.32 -13.36,335.33 76.65,435.83z"/>
  <path class="fil9" d="M15019.19 11753.73c0,0 -411.13,-30.32 -459.9,-237.81 -48.72,-207.44 894.22,-25.48 998.26,-452.76 104.08,-427.2 -312.88,-767.86 -448.33,-642.91 -160.47,148.08 190.94,211.17 209.81,430.92 15.68,182.56 -97.49,350.8 -448.61,375.82 -351.09,25.07 -508.08,79.67 -506.54,242.85 1.64,177.58 286.07,360.75 458.95,372.21 172.93,11.49 196.35,-88.33 196.35,-88.33z"/>
  <path class="fil9" d="M16822.87 11118.33c0,0 122.05,-158.68 320.58,-264.3 28.89,-15.36 63.26,7.8 59.93,40.35l-37.62 363.72c0,0 -285.17,24.24 -342.89,-139.78z"/>
  <path class="fil15" d="M17095.97 11214c16.11,-82.46 20.08,-169.14 39.09,-266.35 0,0 -214.35,127.75 -227.13,198.11 0,0 118.25,89.54 188.04,68.24z"/>
  <path class="fil9" d="M16450.66 11132.87c0,0 -167.49,-100.97 -387.03,-128.58 -35.98,-4.51 -62.29,33.3 -46.05,65.73l150.16 299.35c0,0 288.82,-62.69 282.91,-236.51z"/>
  <path class="fil15" d="M16231.12 11321.37c-45.01,-70.92 -80.27,-150.22 -133.34,-233.86 0,0 246.11,40.99 283.64,101.89 0,0 -77.59,126.42 -150.3,131.97z"/>
  <path class="fil9" d="M16982.15 11124.56c0,0 253.81,38.78 234.72,336.23 -19.05,297.41 -308.66,329.1 -308.66,329.1 0,0 -51.63,95.69 -230.43,134.37 -114.49,24.73 -285.02,16.93 -328.23,-67.25 0,0 -248.62,-91.12 -245.75,-312.7 3.16,-245.54 299.1,-546.92 878.35,-419.76z"/>
  <path class="fil9" d="M17239.97 11827.78c0,0 -103.58,422.18 -190.37,509.32 -86.74,87.19 -180.94,134.88 -301.89,149.54 -195.3,23.68 -159.14,153.86 -100.93,198.61 67.46,51.84 187,22.31 366.49,22.31 155.06,0 301.21,-30.94 353.56,-132.86 52.41,-101.95 48.91,-403.61 -6.81,-573.22 -34.36,-104.65 -82.77,-159.32 -120.04,-173.71z"/>
  <path class="fil9" d="M15928.33 11855.58c0,0 103.62,422.18 190.4,509.37 86.75,87.19 181.56,130.5 301.86,149.51 147.19,23.28 133.51,162.33 100.96,198.6 -56.81,63.37 -186.99,22.33 -366.48,22.33 -155.06,0 -338.41,-62.07 -390.79,-163.95 -52.41,-101.95 -11.67,-372.47 44.04,-542.14 34.34,-104.61 82.78,-159.32 120.01,-173.72z"/>
  <path class="fil9" d="M15061.36 11771.48c0,0 -273.14,-65.37 -361.14,140.45 -138.45,323.81 -27.79,508.77 341.23,560.23 368.98,51.36 788.56,121.18 471.34,-141.33 -317.21,-262.46 -451.44,-559.34 -451.44,-559.34z"/>
  <path class="fil15" d="M16531.72 11605.15c0,0 110.21,-11.75 139.56,1.79 49.27,22.63 -29.93,114.6 -80.37,122.41 -50.49,7.73 -99.61,-51.3 -98.86,-89.76 0.72,-38.45 39.67,-34.44 39.67,-34.44z"/>
  <path class="fil15" d="M16475.01 11520.3c5.3,-3.3 11.13,3.4 7.12,8.2 -21.91,26.16 -62.33,60.61 -116.97,49.05 -45.18,-9.53 -62.33,-41.24 -68.42,-68.89 -1.36,-6.16 6.98,-9.56 10.1,-4.11 11.64,20.47 34.3,41.32 78.3,44.14 33.27,2.08 67.39,-14.42 89.87,-28.39z"/>
  <path class="fil15" d="M16902.31 11497.7c4.62,-4.19 11.6,1.32 8.56,6.76 -16.79,29.76 -50.16,71.04 -105.97,69.75 -46.19,-1.08 -68.85,-29.08 -79.94,-55.14 -2.48,-5.84 5.12,-10.67 9.19,-5.91 15.18,17.93 41.29,34.29 85.07,28.96 33.09,-4.01 63.59,-26.53 83.1,-44.43z"/>
  <path class="fil16" d="M5369.85 122.3c0,93.09 0,93.09 0,93.09l0 2478.63c0,67.52 54.74,122.26 122.26,122.26l4352.84 0c67.53,0 122.27,-54.74 122.27,-122.26l0 -2571.79c0,-67.53 -54.74,-122.23 -122.27,-122.23l-4352.84 0c-67.52,0 -122.26,54.77 -122.26,122.3z"/>
  <path class="fil17" d="M8046.54 1579.22c0,208.84 78.95,399.1 208.66,542.71 148.3,164.19 362.83,267.37 601.45,267.37 447.5,0 810.18,-362.61 810.18,-810.08 0,-110.95 -22.37,-216.75 -62.76,-313.12l-747.42 313.12 38.35 -809.11c-12.53,-0.75 -25.42,-0.96 -38.35,-0.96 -447.39,0 -810.11,362.68 -810.11,810.07z"/>
  <path class="fil18" d="M8975.66 636.42c242.1,11.21 456.27,128.65 597.19,306.8 45.37,57.28 83.1,120.83 111.78,189.26l-747.35 313.06 38.38 -809.12z"/>
  <polygon class="fil17" points="6207.6,1132.58 6096.35,1132.58 6096.35,1021.35 6207.6,1021.35 "/>
  <polygon class="fil19" points="5622.72,1090.91 6021.31,1090.91 6022.53,1089.69 6022.53,1064.24 6021.31,1063.05 5622.72,1063.05 5621.5,1064.24 5621.5,1089.69 "/>
  <polygon class="fil20" points="6207.6,934.34 6096.35,934.34 6096.35,823.09 6207.6,823.09 "/>
  <polygon class="fil19" points="5622.72,892.63 6021.31,892.63 6022.53,891.41 6022.53,866 6021.31,864.78 5622.72,864.78 5621.5,866 5621.5,891.41 "/>
  <polygon class="fil17" points="6207.6,1330.79 6096.35,1330.79 6096.35,1219.55 6207.6,1219.55 "/>
  <polygon class="fil19" points="5622.72,1289.12 6021.31,1289.12 6022.53,1287.86 6022.53,1262.45 6021.31,1261.23 5622.72,1261.23 5621.5,1262.45 5621.5,1287.86 "/>
  <path class="fil19" d="M5635.43 1679.44l558.24 0c7.69,0 13.92,-6.23 13.92,-13.93 0,-7.69 -6.23,-13.92 -13.92,-13.92l-558.24 0c-7.66,0 -13.93,6.23 -13.93,13.92 0,7.7 6.27,13.93 13.93,13.93z"/>
  <path class="fil19" d="M5635.43 1793.83l558.24 0c7.69,0 13.92,-6.23 13.92,-13.92 0,-7.7 -6.23,-13.93 -13.92,-13.93l-558.24 0c-7.66,0 -13.93,6.23 -13.93,13.93 0,7.69 6.27,13.92 13.93,13.92z"/>
  <path class="fil19" d="M5635.43 1908.22l558.24 0c7.69,0 13.92,-6.23 13.92,-13.92 0,-7.7 -6.23,-13.92 -13.92,-13.92l-558.24 0c-7.66,0 -13.93,6.22 -13.93,13.92 0,7.69 6.27,13.92 13.93,13.92z"/>
  <path class="fil19" d="M5635.43 2022.61l558.24 0c7.69,0 13.92,-6.22 13.92,-13.92 0,-7.69 -6.23,-13.92 -13.92,-13.92l-558.24 0c-7.66,0 -13.93,6.23 -13.93,13.92 0,7.7 6.27,13.92 13.93,13.92z"/>
  <path class="fil19" d="M5635.43 2137l558.24 0c7.69,0 13.92,-6.27 13.92,-13.93 0,-7.69 -6.23,-13.92 -13.92,-13.92l-558.24 0c-7.66,0 -13.93,6.23 -13.93,13.92 0,7.66 6.27,13.93 13.93,13.93z"/>
  <path class="fil19" d="M5635.43 2251.35l558.24 0c7.69,0 13.92,-6.22 13.92,-13.92 0,-7.69 -6.23,-13.89 -13.92,-13.89l-558.24 0c-7.66,0 -13.93,6.2 -13.93,13.89 0,7.7 6.27,13.92 13.93,13.92z"/>
  <path class="fil19" d="M5635.43 2365.75l558.24 0c7.69,0 13.92,-6.23 13.92,-13.93 0,-7.69 -6.23,-13.92 -13.92,-13.92l-558.24 0c-7.66,0 -13.93,6.23 -13.93,13.92 0,7.7 6.27,13.93 13.93,13.93z"/>
  <path class="fil9" d="M5369.85 122.3c0,93.09 0,93.09 0,93.09l0 121.51 4597.38 0 0 -214.67c0,-67.53 -54.74,-122.23 -122.27,-122.23l-4352.84 0c-67.52,0 -122.26,54.77 -122.26,122.3z"/>
  <path class="fil19" d="M5854.18 168.45c0,31.26 25.35,56.6 56.64,56.6 31.26,0 56.64,-25.34 56.64,-56.6 0,-31.29 -25.38,-56.64 -56.64,-56.64 -31.29,0 -56.64,25.35 -56.64,56.64z"/>
  <path class="fil18" d="M5670.63 168.45c0,31.26 25.34,56.6 56.6,56.6 31.29,0 56.64,-25.34 56.64,-56.6 0,-31.29 -25.35,-56.64 -56.64,-56.64 -31.26,0 -56.6,25.35 -56.6,56.64z"/>
  <path class="fil17" d="M5494.87 168.45c0,31.26 25.34,56.6 56.6,56.6 31.29,0 56.64,-25.34 56.64,-56.6 0,-31.29 -25.35,-56.64 -56.64,-56.64 -31.26,0 -56.6,25.35 -56.6,56.64z"/>
  <path class="fil20" d="M8046.54 1579.22c0,208.84 78.95,399.1 208.66,542.71l601.45 -542.71 38.35 -809.11c-12.53,-0.75 -25.42,-0.96 -38.35,-0.96 -447.39,0 -810.11,362.68 -810.11,810.07z"/>
  <polygon class="fil17" points="7257.8,2479.71 6999.87,2479.71 6999.87,1374.57 7257.8,1374.57 "/>
  <path class="fil20" d="M7257.8 2188.23c-91.4,-28.21 -177.04,-78.81 -257.92,-133.22l0 424.7 257.92 0 0 -291.47z"/>
  <polygon class="fil17" points="7679.34,2479.71 7421.43,2479.71 7421.43,1681.66 7679.34,1681.66 "/>
  <path class="fil20" d="M7469.18 2206.96c-16.08,2.32 -31.97,3.76 -47.76,4.36l0 268.39 257.92 0 0 -265.88c-45.61,-15.03 -112.38,-21.16 -210.16,-6.87z"/>
  <polygon class="fil17" points="6836.26,2479.71 6578.29,2479.71 6578.29,1044.4 6836.26,1044.4 "/>
  <path class="fil20" d="M6578.3 1831.03l0 648.68 257.95 0 0 -538.55c-91.68,-62.26 -177.15,-110.49 -257.95,-110.14z"/>
  <path class="fil17" d="M6588.76 625.94l232.75 49.94 -62.52 61.3 356.39 363.29 125.05 -122.66 442.25 450.86c16.9,17.18 16.6,44.83 -0.58,61.69 -17.22,16.86 -44.83,16.6 -61.73,-0.58l-381.15 -388.57 -125.02 122.66 -417.5 -425.58 -62.48 61.29 -45.47 -233.65z"/>
  <polygon class="fil17" points="16421.91,2921.08 16420.16,4147.76 14644.29,4145.22 14646.09,2918.51 "/>
  <polygon class="fil20" points="16421.84,2921.15 16421.73,2999.78 15532.75,3785.44 14645.98,2997.24 14646.09,2918.58 15532.79,3709.5 "/>
  <polygon class="fil20" points="15362,3554.4 14695.75,4145.29 14644.29,4145.22 14644.34,4113.93 15323.8,3511.37 "/>
  <polygon class="fil20" points="16420.19,4120.66 16420.16,4147.76 16364.06,4147.69 15699.51,3554.87 15737.82,3511.94 "/>
  <polygon class="fil17" points="14646.02,2918.51 15532.82,3709.5 16421.88,2921.08 "/>
  <path class="fil18" d="M14344.3 2981.12c0,212.85 172.53,385.38 385.42,385.38 212.88,0 385.41,-172.53 385.41,-385.38 0,-212.88 -172.53,-385.41 -385.41,-385.41 -212.89,0 -385.42,172.53 -385.42,385.41z"/>
  <path class="fil16" d="M14808.67 3164.26l0 0c9.92,0 19.45,-3.98 26.46,-10.99l94.46 -94.46c14.56,-14.56 14.56,-38.27 -0.04,-52.85 -14.57,-14.6 -38.27,-14.6 -52.85,0l-68.03 68.03 -265.05 -265.05c-14.6,-14.6 -38.24,-14.6 -52.88,0 -14.57,14.57 -14.57,38.27 0,52.85l291.51 291.47c7.01,7.01 16.5,10.99 26.42,10.99z"/>
  <path class="fil16" d="M4517.49 7820.49l0 -4356.5c0,-66.63 54.02,-120.65 120.65,-120.65l2204.79 0c66.63,0 120.65,54.02 120.65,120.65l0 4356.5c0,134.77 -109.27,244.04 -244.03,244.04l-1958.06 0c-134.73,0 -244,-109.27 -244,-244.04z"/>
  <path class="fil19" d="M4883.75 6651.96l1629.5 0c29.68,0 53.74,-24.06 53.74,-53.75 0,-29.68 -24.06,-53.74 -53.74,-53.74l-1629.5 0c-29.69,0 -53.74,24.06 -53.74,53.74 0,29.69 24.05,53.75 53.74,53.75z"/>
  <path class="fil19" d="M4883.75 6992.8l1629.5 0c29.68,0 53.74,-24.06 53.74,-53.74 0,-29.69 -24.06,-53.74 -53.74,-53.74l-1629.5 0c-29.69,0 -53.74,24.05 -53.74,53.74 0,29.68 24.05,53.74 53.74,53.74z"/>
  <path class="fil19" d="M4883.75 7333.61l1629.5 0c29.68,0 53.74,-24.06 53.74,-53.74 0,-29.69 -24.06,-53.74 -53.74,-53.74l-1629.5 0c-29.69,0 -53.74,24.05 -53.74,53.74 0,29.68 24.05,53.74 53.74,53.74z"/>
  <path class="fil19" d="M4883.75 7674.45l1629.5 0c29.68,0 53.74,-24.05 53.74,-53.74 0,-29.68 -24.06,-53.74 -53.74,-53.74l-1629.5 0c-29.69,0 -53.74,24.06 -53.74,53.74 0,29.69 24.05,53.74 53.74,53.74z"/>
  <path class="fil9" d="M4517.49 3464l0 334.55 2446.09 0 0 -334.55c0,-66.63 -54.02,-120.65 -120.65,-120.65l-2204.79 0c-66.63,0 -120.65,54.02 -120.65,120.65z"/>
  <path class="fil19" d="M5109.8 3549.03c0,43.89 35.59,79.52 79.53,79.52 43.92,0 79.52,-35.62 79.52,-79.52 0,-43.93 -35.59,-79.56 -79.52,-79.56 -43.93,0 -79.53,35.62 -79.53,79.56z"/>
  <path class="fil18" d="M4852.02 3549.03c0,43.89 35.63,79.52 79.53,79.52 43.92,0 79.52,-35.62 79.52,-79.52 0,-43.93 -35.59,-79.56 -79.52,-79.56 -43.89,0 -79.53,35.62 -79.53,79.56z"/>
  <path class="fil17" d="M4605.23 3549.03c0,43.89 35.59,79.52 79.53,79.52 43.89,0 79.52,-35.62 79.52,-79.52 0,-43.93 -35.62,-79.56 -79.52,-79.56 -43.93,0 -79.53,35.62 -79.53,79.56z"/>
  <polygon class="fil17" points="6479.27,6327.84 6204.13,6327.84 6204.13,5663.05 6479.27,5663.05 "/>
  <polygon class="fil20" points="6073.48,6327.84 5798.34,6327.84 5798.34,5190.91 6073.48,5190.91 "/>
  <polygon class="fil17" points="5624.12,6327.84 5349.01,6327.84 5349.01,4842.56 5624.12,4842.56 "/>
  <polygon class="fil18" points="5183.92,6327.84 4908.84,6327.84 4908.84,4433.68 5183.92,4433.68 "/>
  <polygon class="fil19" points="5415.95,4142.43 5225.2,4212.45 5247.18,3989.19 "/>
  <path class="fil19" d="M6554.92 5340.28c8.34,0 16.22,-5.16 19.33,-13.43 3.94,-10.71 -1.47,-22.55 -12.14,-26.57 -8.3,-3.11 -836.21,-320.36 -1240.03,-1173 -4.87,-10.31 -17.19,-14.69 -27.5,-9.81 -10.31,4.87 -14.68,17.19 -9.8,27.5 411.23,868.21 1254.49,1190.84 1262.9,1193.98l7.24 1.33z"/>
  <path class="fil17" d="M15924.39 738.5l0 679.9c0,89.86 -72.93,162.79 -162.79,162.79l-1234.49 0 -372.71 133.69c-38.24,13.75 -74.9,-23.84 -60.22,-61.73l140.99 -364.04 0 -550.62c0,-89.9 72.9,-162.8 162.87,-162.8l1363.56 0c89.86,0 162.79,72.9 162.79,162.8z"/>
  <path class="fil20" d="M14851.92 1097.78c0,65.05 -52.7,117.76 -117.76,117.76 -65.01,0 -117.76,-52.7 -117.76,-117.76 0,-65.05 52.74,-117.75 117.76,-117.75 65.05,0 117.76,52.69 117.76,117.75z"/>
  <path class="fil20" d="M15224.7 1097.78c0,65.05 -52.7,117.76 -117.76,117.76 -65.05,0 -117.76,-52.7 -117.76,-117.76 0,-65.05 52.7,-117.75 117.76,-117.75 65.05,0 117.76,52.69 117.76,117.75z"/>
  <path class="fil20" d="M15597.52 1097.78c0,65.05 -52.77,117.76 -117.8,117.76 -65.01,0 -117.75,-52.7 -117.75,-117.76 0,-65.05 52.73,-117.75 117.75,-117.75 65.02,0 117.8,52.69 117.8,117.75z"/>
  <path class="fil18" d="M12994.32 737.61l587.74 0c37.8,0 68.45,-30.65 68.45,-68.45l0 -587.74c0,-37.85 -30.65,-68.49 -68.45,-68.49l-587.74 0c-37.85,0 -68.49,30.65 -68.49,68.49l0 587.74c0,37.8 30.65,68.45 68.49,68.45z"/>
  <path class="fil16" d="M13083.19 226.1c1.22,-5.01 2.35,-10.03 3.61,-15.01 4.36,-17.61 12.75,-33.12 24.59,-46.83 8.53,-9.84 18.34,-18.19 29.47,-24.59 15.32,-8.81 32.69,-5.05 44,8.59 20.2,24.42 40.32,48.84 60.26,73.44 12.24,15.1 10.24,35.76 -4.94,49.22 -10.85,9.6 -22.34,18.55 -33.58,27.79l-4.37 2.86c26.78,72.08 72.22,127.67 137.49,167.81 7.88,-6.59 16.15,-13.5 24.46,-20.37 4.25,-3.51 8.44,-7.09 12.85,-10.42 13.1,-10.06 28.28,-11.03 41.89,-2.15 4.32,2.79 7.88,6.98 11.2,11.03 18.26,22.01 36.26,44.29 54.53,66.27 5.79,6.98 9.48,14.68 10.77,23.63 -0.31,3.26 -0.64,6.56 -0.96,9.81 -3.19,5.51 -5.41,12.03 -9.73,16.36 -10.71,10.67 -22.49,20.2 -36.49,26.49 -16.4,7.42 -33.55,11.92 -51.53,10.35 -11.81,-1.04 -23.67,-3.54 -35.16,-6.73 -29.5,-8.24 -56.39,-22.35 -81.7,-39.39 -25.07,-16.9 -47.87,-36.56 -68.85,-58.33 -28.28,-29.35 -53.35,-61.33 -76.16,-95.13 -17.93,-26.67 -33.44,-54.53 -43.5,-85.21 -5.05,-15.47 -8.45,-31.26 -9.52,-47.48 -0.44,-6.52 -0.58,-13.06 -0.86,-19.62 0.71,-7.45 1.46,-14.93 2.22,-22.41z"/>
  <path class="fil17" d="M11927.07 735.64l613.38 0c33.77,0 61.15,-27.39 61.15,-61.15l0 -613.35c0,-33.8 -27.38,-61.15 -61.15,-61.15l-613.38 0c-33.77,0 -61.15,27.35 -61.15,61.15l0 613.35c0,33.76 27.38,61.15 61.15,61.15z"/>
  <path class="fil16" d="M12199.43 373.6c0,-28.82 14.89,-43.71 34.55,-43.71 19.73,0 34.09,14.89 34.09,43.71 0,29.29 -14.36,44.15 -34.09,44.15 -19.66,0 -34.55,-14.86 -34.55,-44.15zm-200.74 -19.73c0,91.73 51.41,139.27 112.89,139.27 35.98,0 62.41,-13.92 75.83,-41.78 13.46,26.46 36.47,41.78 73,41.78 51.87,0 101.78,-45.61 101.78,-119.54 0,-74.01 -48.47,-119.12 -101.78,-119.12 -25.42,0 -45.15,8.2 -59.08,23.56l0 -19.26 -92.19 0 0 137.38c0,20.19 -8.2,26.42 -18.72,26.42 -13.47,0 -24.49,-13.5 -24.49,-67.24 0,-86.94 64.84,-148.41 163.76,-148.41 98.42,0 164.7,69.13 164.7,160.4 0,94.12 -64.84,161.33 -162.8,161.33 -31.68,0 -64.34,-6.19 -96.99,-21.13l-20.2 59.12c28.82,13.89 74.47,23.02 117.19,23.02 144.57,0 237.26,-96.53 237.26,-222.33 0,-123.92 -92.69,-221.41 -239.16,-221.41 -138.31,0 -231,92.69 -231,207.94z"/>
  <path class="fil20" d="M10935.55 735.64l613.34 0c33.77,0 61.16,-27.39 61.16,-61.15l0 -613.35c0,-33.8 -27.39,-61.15 -61.16,-61.15l-613.34 0c-33.8,0 -61.16,27.35 -61.16,61.15l0 613.35c0,33.76 27.36,61.15 61.16,61.15z"/>
  <path class="fil16" d="M11203.85 537.36l0.4 52.38 66.56 -0.54 -0.43 -50.01c47.18,-3.19 92.83,-16.33 121,-34.01l-36.52 -80.85c-31,18.65 -72.43,30.79 -108.77,31.08 -31.58,0.25 -42.97,-6.26 -43.07,-17.58 -0.32,-41.53 182.52,-9.52 181.55,-132.66 -0.47,-53.3 -39.52,-97.8 -116.97,-108.04l-0.43 -51.45 -66.53 0.58 0.43 50.48c-34.9,3.58 -68.78,12.82 -95.55,28.14l34.15 80.38c32.41,-16.76 63.01,-25.03 91.77,-25.25 32.58,-0.28 43.03,9.06 43.1,20.41 0.37,39.64 -182.49,8.06 -181.51,129.78 0.43,50.99 37.59,95.02 110.81,107.16z"/>
  <path class="fil0" d="M17984.1 13085.03c0,103.36 1020.02,187.13 2278.29,187.13 1258.27,0 2278.29,-83.78 2278.29,-187.13 0,-103.37 -1020.01,-187.14 -2278.29,-187.14 -1258.26,0 -2278.29,83.78 -2278.29,187.14z"/>
  <path class="fil21" d="M18885 11489.18l2839.8 0c18.11,0 32.74,-14.68 32.74,-32.76l0 -164.58c0,-18.08 -14.63,-32.76 -32.74,-32.76l-2839.8 0c-18.08,0 -32.75,14.69 -32.75,32.76l0 164.58c0,18.09 14.68,32.76 32.75,32.76z"/>
  <path class="fil22" d="M21629.88 8709.27l-2655.72 0c-44.15,0 -79.95,35.81 -79.95,79.91l0 326.31c0,44.15 35.81,79.91 79.95,79.91l2655.72 0c44.15,0 79.93,-35.76 79.93,-79.91l0 -326.31c0,-44.11 -35.78,-79.91 -79.93,-79.91z"/>
  <path class="fil7" d="M20328.47 7444.81l258.11 0c0,0 12.64,-25.78 34.8,-72.75 10.6,-22.17 23.3,-49.05 37.92,-80.34 36.73,-78.05 84.96,-182.6 140.56,-305.98l1.46 -3.19c348.04,-773.88 972.41,-2276.2 717.17,-2574.88 -290.07,-339.3 -636.14,169 -887.8,1131.05 -17.33,66.13 -34.09,134.23 -50.45,204.48 -90.22,387.89 -165.41,837.14 -217.14,1326.21 -7.83,73.28 -15,147.36 -21.73,222.3 -4.59,50.62 -8.84,101.71 -12.89,153.09z"/>
  <path class="fil6" d="M20341.36 7291.73l77.83 153.09 167.46 0c0,0 12.52,-25.78 34.76,-72.72l9.31 -1833.36c-126.99,485.67 -229.99,1086.91 -289.35,1752.99z"/>
  <path class="fil6" d="M20409.78 7444.85l42.18 0 812.94 -2663.63c3.22,-10.68 -2.76,-21.91 -13.39,-25.17 -10.68,-3.26 -21.95,2.72 -25.18,13.43l-816.56 2675.37z"/>
  <path class="fil7" d="M19668.66 6904.12c19.16,43.07 37.67,84.25 55.25,123.23 47.69,105.33 89.4,195.27 121.77,264.38 45.51,97.09 72.65,153.09 72.65,153.09l258.1 0c-3.94,-51.37 -8.19,-102.46 -12.78,-153.09 -6.37,-71.33 -13.24,-142.03 -20.66,-211.82 -50.23,-477.65 -122.66,-917.52 -209.73,-1299.54 -13.47,-59.18 -27.28,-116.89 -41.46,-173.14 -252.85,-1006.17 -608.43,-1546.76 -905.18,-1199.54 -246.96,288.83 328.96,1703.86 682.04,2496.43z"/>
  <path class="fil6" d="M20163.64 7291.73l-77.83 153.09 -167.42 0c0,0 -12.6,-25.78 -34.8,-72.72l-9.32 -1833.36c127,485.67 230,1086.91 289.36,1752.99z"/>
  <path class="fil6" d="M20095.25 7444.85l-42.21 0 -812.91 -2663.63c-3.26,-10.68 2.73,-21.91 13.36,-25.17 10.68,-3.26 21.98,2.72 25.17,13.43l816.6 2675.37z"/>
  <path class="fil7" d="M19933.25 5780.37c36.16,509.3 86.21,985.77 122.12,1297.25 26.13,227.64 44.76,367.2 44.76,367.2l228.45 0c26.68,-127.77 51.34,-254.45 74.08,-379.62 84.61,-464.93 142.78,-910.61 177.58,-1321.98 133.65,-1576.62 -75.76,-2648.81 -459.96,-2363.28 -275.61,204.94 -259.96,1369.89 -187.03,2400.44z"/>
  <path class="fil6" d="M19723.91 7027.35c47.69,105.33 89.4,195.27 121.77,264.38 45.51,97.09 72.65,153.09 72.65,153.09l668.26 0c0,0 12.64,-25.78 34.8,-72.75 10.6,-22.17 23.3,-49.05 37.92,-80.34 36.73,-78.05 84.96,-182.6 140.56,-305.98 -81.99,23.74 -224.42,59.47 -397.21,79.45 -12.96,1.47 -26.2,2.83 -39.56,4.23 -69.6,6.83 -143.61,10.88 -220.12,10.48 -28.88,-0.1 -58.07,-0.82 -87.6,-2.29 -108.59,-5.44 -220.73,-20.69 -331.46,-50.27z"/>
  <path class="fil6" d="M20233.99 3872.22l27.32 3572.63 40.28 0 -27.29 -3572.88c-0.1,-11.16 -9.24,-19.83 -20.33,-20.01 -11.07,0.04 -20.09,9.16 -19.98,20.27z"/>
  <path class="fil3" d="M19086.22 7417.32l33.43 88.68 21.09 56.14 60.62 160.86 21.16 56.17 62.26 165.19 21.08 56.07 266.96 708.83 1458.36 0 266.92 -708.83 21.11 -56.07 62.23 -165.19 21.19 -56.17 60.58 -160.86 21.11 -56.14 33.42 -88.68c22.92,-60.76 -21.97,-125.59 -86.9,-125.59l-2257.69 0c-64.87,0 -109.74,64.83 -86.92,125.59z"/>
  <polygon class="fil4" points="19119.65,7506 19140.74,7562.14 21463.22,7562.14 21484.33,7506 "/>
  <polygon class="fil4" points="19201.36,7723 19222.52,7779.18 21381.45,7779.18 21402.64,7723 "/>
  <polygon class="fil4" points="19284.79,7944.37 19305.86,8000.44 21298.1,8000.44 21319.21,7944.37 "/>
  <polygon class="fil23" points="20692.65,9195.44 20773.54,9456.18 21899.33,13085.03 22119.38,13085.03 21405.39,9530.26 21338.12,9195.44 "/>
  <polygon class="fil21" points="21338.12,9195.44 20692.65,9195.44 20773.54,9456.18 21405.39,9530.26 "/>
  <polygon class="fil23" points="18478.03,13085.03 18698.11,13085.03 19857.2,9348.78 19904.78,9195.44 19259.36,9195.44 19243.07,9276.74 19243,9276.74 "/>
  <polygon class="fil21" points="19243.07,9276.74 19857.2,9348.78 19904.78,9195.44 19259.36,9195.44 "/>
  <path class="fil22" d="M18941.03 10988.83l2727.76 0c49.02,0 88.75,-39.73 88.75,-88.78l0 -52.56c0,-49.02 -39.73,-88.76 -88.75,-88.76l-2727.76 0c-49.05,0 -88.78,39.74 -88.78,88.76l0 52.56c0,49.05 39.77,88.78 88.78,88.78z"/>
  <path class="fil0" d="M1998.11 1400.22c0,561.24 454.98,1016.22 1016.19,1016.22 561.28,0 1016.27,-454.98 1016.27,-1016.22 0,-561.28 -454.98,-1016.27 -1016.27,-1016.27 -561.21,0 -1016.19,454.98 -1016.19,1016.27z"/>
  <path class="fil3" d="M1998.11 1267.89c0,561.28 454.98,1016.27 1016.19,1016.27 561.28,0 1016.27,-454.98 1016.27,-1016.27 0,-561.25 -454.98,-1016.23 -1016.27,-1016.23 -561.21,0 -1016.19,454.98 -1016.19,1016.23z"/>
  <path class="fil16" d="M3014.3 2094.03c455.59,0 826.23,-370.6 826.23,-826.15 0,-455.52 -370.64,-826.16 -826.23,-826.16 -455.52,0 -826.15,370.64 -826.15,826.16 0,455.55 370.63,826.15 826.15,826.15z"/>
  <path class="fil0" d="M2188.15 1267.92c0,21.98 0.89,43.79 2.58,65.28 33.4,-425.17 390.07,-760.96 823.57,-760.96 433.61,0 790.24,335.8 823.61,760.96 1.68,-21.49 2.58,-43.29 2.58,-65.28 0,-455.59 -370.55,-826.15 -826.19,-826.15 -455.48,0 -826.15,370.55 -826.15,826.15z"/>
  <path class="fil9" d="M3014.3 1353.85c6.41,0 12.6,-2.93 16.61,-8.34l405.28 -545.63c6.81,-9.16 4.87,-22.09 -4.25,-28.93 -9.13,-6.8 -22.13,-4.86 -28.93,4.3l-395.48 532.42 -449.43 -197.27c-10.41,-4.62 -22.66,0.14 -27.21,10.6 -4.59,10.46 0.14,22.67 10.6,27.25l464.51 203.9 8.3 1.72z"/>
  <path class="fil0" d="M160.17 13138.26c0,130.65 879.6,236.55 1964.72,236.55 1085.04,0 1964.69,-105.9 1964.69,-236.55 0,-130.64 -879.64,-236.55 -1964.69,-236.55 -1085.12,0 -1964.72,105.91 -1964.72,236.55z"/>
  <polygon class="fil23" points="292.53,6417.02 751.13,13123.44 3498.6,13123.44 3957.21,6417.02 "/>
  <polygon class="fil21" points="323.07,6863.73 3912.48,7070.56 3938.23,6694.27 311.47,6694.27 "/>
  <path class="fil22" d="M155.84 6694.27l3938.07 0c45.89,0 83.1,-37.2 83.1,-83.13l0 -249.79c0,-45.86 -37.21,-83.1 -83.1,-83.1l-3938.07 0c-45.93,0 -83.14,37.24 -83.14,83.1l0 249.79c0,45.93 37.21,83.13 83.14,83.13z"/>
  <polygon class="fil21" points="703.04,7458.31 793.09,9045.88 3456.61,9045.88 3546.73,7458.31 "/>
  <path class="fil23" d="M1991.91 8317.61c0,73.4 59.54,132.91 132.97,132.91 73.4,0 132.94,-59.51 132.94,-132.91 0,-73.39 -59.54,-132.93 -132.94,-132.93 -73.43,0 -132.97,59.54 -132.97,132.93z"/>
  <polygon class="fil21" points="828.39,9417.77 910.55,10865.39 3339.17,10865.39 3421.34,9417.77 "/>
  <path class="fil23" d="M1991.91 10194.19c0,73.37 59.54,132.94 132.97,132.94 73.4,0 132.94,-59.57 132.94,-132.94 0,-73.43 -59.54,-132.93 -132.94,-132.93 -73.43,0 -132.97,59.5 -132.97,132.93z"/>
  <polygon class="fil21" points="936.59,11231.04 1011.92,12557.83 3237.86,12557.83 3313.11,11231.04 "/>
  <path class="fil23" d="M1991.91 11894.44c0,73.43 59.54,132.93 132.97,132.93 73.4,0 132.94,-59.5 132.94,-132.93 0,-73.44 -59.54,-132.95 -132.94,-132.95 -73.43,0 -132.97,59.51 -132.97,132.95z"/>
  <path class="fil7" d="M949.73 3917.69c40.56,222.02 86.97,393.98 86.97,393.98 0,0 111.38,248.62 210.77,321.94 69.32,51.16 132.86,16.83 148.33,-247.54 2.58,-42.93 3.84,-91.91 3.65,-147.62 0,0 15.68,-126.85 23.13,-301.04 16.36,-379.12 -5.87,-982.71 -312.09,-993.75 -289.44,-10.34 -235.09,566.26 -160.76,974.02z"/>
  <path class="fil6" d="M1422.57 3937.42c-44.57,89.12 -118.44,186.71 -225.38,178.37 -111.1,-8.66 -195.67,-111.74 -247.47,-198.1 40.56,222.02 86.97,393.98 86.97,393.98 0,0 111.38,248.62 210.77,321.94 60.93,-38.45 110.88,-127.81 148.33,-247.54l26.78 -448.65z"/>
  <path class="fil6" d="M1233.68 4573.81c9.27,0 17.07,-7.2 17.68,-16.57 17.08,-263.36 -71.39,-1117.52 -75.14,-1153.75 -1.05,-9.7 -9.56,-16.76 -19.45,-15.78 -9.74,1.04 -16.8,9.73 -15.79,19.48 0.93,8.84 91.91,887.37 75.01,1147.76 -0.65,9.77 6.77,18.19 16.54,18.84l1.15 0.03z"/>
  <path class="fil7" d="M1161.32 5084.36l369.92 0c0,0 336.87,-25.06 231.65,-309.51 -105.3,-284.45 30,-352.12 192.51,-539.34 162.43,-187.28 406.08,-584.05 135.37,-705.99 -270.78,-121.95 -541.48,172.07 -650.25,486.45 -33.55,96.99 -44.65,187.68 -56.68,275.26 -6.37,47.11 -12.99,93.33 -23.63,139.3 -18.69,81.03 -49.59,161.01 -112.64,242.82l-5.08 6.47c-171.42,216.72 -81.16,404.53 -81.16,404.53z"/>
  <path class="fil6" d="M1161.32 5084.36l322.95 0c60.32,-286.92 -44.01,-522.22 -124.06,-653.83 -18.69,81.03 -49.59,161.01 -112.64,242.82l-5.08 6.47c-171.42,216.72 -81.16,404.53 -81.16,404.53z"/>
  <path class="fil6" d="M1426.55 5076.81c9.56,0 17.44,-7.62 17.72,-17.22 17.65,-636.18 443.13,-1187.29 447.43,-1192.77 6.01,-7.69 4.65,-18.83 -3.04,-24.88 -7.7,-6.01 -18.8,-4.65 -24.85,3.04 -4.36,5.59 -436.97,565.59 -454.94,1213.61 -0.28,9.81 7.45,17.94 17.18,18.23l0.51 0z"/>
  <path class="fil7" d="M304.02 4235.51c279.8,227.89 424.12,252.31 388.07,470.28 -11.96,71.92 -21.84,141.78 -21.77,203.93 0.28,125.96 42.18,220.15 193.22,235.12 225.56,22.41 415.1,-60.41 415.1,-60.41 0,0 67.21,-160.72 77.49,-350.4 9.59,-176.4 -30.04,-377.9 -218.55,-498.52 -391.36,-250.36 -319.18,-1239.39 -833.57,-1146.52 -514.34,93.01 -279.72,918.67 0,1146.52z"/>
  <path class="fil6" d="M670.32 4909.72c0.28,125.96 42.18,220.15 193.22,235.12 225.56,22.41 415.1,-60.41 415.1,-60.41 0,0 67.21,-160.72 77.49,-350.4 -87.22,54.35 -358.32,202.36 -685.81,175.69z"/>
  <path class="fil6" d="M1059.61 5043.73c8.84,0 16.46,-6.62 17.54,-15.61 0.61,-4.97 56.03,-499.7 -267.23,-800.16 -312.64,-290.68 -435.86,-767.18 -437.05,-771.94 -2.4,-9.49 -12.03,-15.22 -21.47,-12.82 -9.53,2.35 -15.25,12.03 -12.86,21.47 1.22,4.87 126.81,491.29 447.29,789.25 310.12,288.28 256.74,765.17 256.17,769.93 -1.19,9.74 5.76,18.58 15.47,19.73l2.15 0.14z"/>
  <polygon class="fil3" points="705.45,6284.37 615.01,5512.86 610.82,5476.91 598.4,5371.11 594.21,5335.13 582.11,5232.06 577.92,5196.11 552.46,4979.25 1841.65,4979.25 1816.2,5196.11 1811.97,5232.06 1799.9,5335.13 1795.65,5371.11 1783.25,5476.91 1779.06,5512.86 1688.6,6284.37 "/>
  <polygon class="fil4" points="577.92,5196.11 582.11,5232.06 1811.97,5232.06 1816.2,5196.11 "/>
  <polygon class="fil4" points="594.21,5335.13 598.4,5371.11 1795.65,5371.11 1799.9,5335.13 "/>
  <polygon class="fil4" points="610.82,5476.91 615.01,5512.86 1779.06,5512.86 1783.25,5476.91 "/>
  <polygon class="fil7" points="2611.74,5050.1 2621.15,5158.3 2626.02,5214.04 2630.7,5266.56 2637.19,5340.57 2640.26,5375.51 2653.69,5530.62 2668.59,5699.28 2669.23,5707.23 2678.55,5814.18 2683.05,5866.7 2686.03,5900.53 2701.03,6072.78 2719.61,6286.48 3313.54,6286.48 3317.87,6237.54 3335.85,6029.74 3346.88,5904.4 3350.1,5866.7 3354.68,5814.18 3364.74,5699.28 3364.95,5695.88 3375.98,5570.96 3392.88,5375.51 3394.13,5361.45 3402.44,5266.56 3404.98,5237.06 3406.95,5214.04 3421.41,5050.1 "/>
  <polygon class="fil6" points="2626.02,5214.04 2630.7,5266.56 3402.44,5266.56 3404.98,5237.06 3406.95,5214.04 "/>
  <polygon class="fil6" points="2678.55,5814.18 2683.05,5866.7 3350.1,5866.7 3354.68,5814.18 "/>
  <polygon class="fil16" points="2640.23,5375.51 2653.69,5530.62 2668.59,5699.32 3364.7,5699.32 3364.99,5695.88 3376.02,5570.93 3392.88,5375.51 "/>
  <polygon class="fil14" points="3462.88,5050.14 2570.21,5050.14 2570.21,4892.03 3462.88,4892.03 "/>
  <path class="fil7" d="M2637.47 4892.03l758.16 0 0 -81.3c0,-29.26 -23.7,-52.92 -52.95,-52.92l-652.3 0c-29.25,0 -52.92,23.66 -52.92,52.88l0 81.34z"/>
  <polygon class="fil22" points="20268.39,2016.38 21590.46,2016.38 21783.98,694.32 20461.94,694.32 "/>
  <polygon class="fil21" points="21783.98,694.32 21967.12,2016.38 21590.46,2016.38 "/>
  <polygon class="fil24" points="21510.04,1922.15 21675.98,788.51 20542.36,788.51 20376.42,1922.15 "/>
  <polygon class="fil16" points="21493.96,1903.32 21654.39,807.35 20558.44,807.35 20398,1903.32 "/>
  <polygon class="fil0" points="20656.93,941.51 20535.77,1769.16 21396.14,1769.16 21517.32,941.51 "/>
  <path class="fil0" d="M20783.46 1318.34c0,153.59 124.49,278.11 278.08,278.11 153.63,0 278.13,-124.52 278.13,-278.11 0,-153.6 -124.5,-278.12 -278.13,-278.12 -153.59,0 -278.08,124.52 -278.08,278.12z"/>
  <path class="fil6" d="M21088.1 1340.17c0,0 -174.47,-204.4 -461.61,-190.61l-90.72 619.6 552.33 -428.99z"/>
  <path class="fil7" d="M21477.48 1213.61c0,0 -246.34,-50.09 -502.23,141.74 -255.88,191.8 -439.48,413.81 -439.48,413.81l860.37 0 81.33 -555.55z"/>
  <polygon class="fil0" points="16938.05,2567.43 22456.51,2567.43 22528.99,2315.62 16855.44,2315.62 "/>
  <polygon class="fil23" points="22530.22,2315.62 16850.37,2315.62 16850.37,2016.38 22530.22,2016.38 "/>
  <polygon class="fil21" points="22247.08,2315.62 22125.84,2569.71 21840.11,2569.71 21758.79,2315.62 "/>
  <polygon class="fil21" points="17221.89,2315.62 17343.12,2569.71 17628.83,2569.71 17710.17,2315.62 "/>
  <path class="fil3" d="M17508.99 1694.84l-42.03 -0.04 0.1 -62.8 1590.29 2.08c52.67,0.07 100.46,21.41 134.94,56.1 34.45,34.55 55.82,82.28 55.75,135.08 -0.14,105.48 -85.71,190.83 -191.18,190.69l-1590.29 -2.07 0.07 -54.35 42.04 0.07 0.31 -264.76z"/>
  <path class="fil16" d="M17498.11 1694.84l-0.36 264.65 1459.28 1.9c71.26,0.11 129,-59.11 129.07,-132.12 0.07,-36.62 -14.36,-69.63 -37.59,-93.69 -23.41,-23.95 -55.53,-38.81 -91.16,-38.88l-1459.25 -1.86z"/>
  <path class="fil0" d="M17498.04 1761.82l-0.07 40.49 1421.52 1.83c11.09,0.03 20.19,-9.06 20.23,-20.16l0 -0.11c0,-11.09 -9.09,-20.19 -20.16,-20.19l-1421.52 -1.87z"/>
  <path class="fil0" d="M17497.9 1861.46l-0.04 40.49 1421.52 1.83c11.06,0.03 20.2,-9.06 20.2,-20.13l0 -0.14c0.03,-11.06 -9.06,-20.2 -20.16,-20.2l-1421.52 -1.86z"/>
  <path class="fil1" d="M17651.14 1313.14l-42.04 -0.07 0.07 -62.76 1590.29 2.07c52.7,0.07 100.49,21.41 134.98,56.1 34.44,34.52 55.78,82.25 55.71,135.09 -0.11,105.48 -85.68,190.83 -191.18,190.69l-1590.29 -2.08 0.07 -54.35 42.07 0.03 0.32 -264.72z"/>
  <path class="fil16" d="M17640.25 1313.1l-0.36 264.69 1459.25 1.9c71.24,0.11 129,-59.15 129.1,-132.11 0.04,-36.63 -14.35,-69.64 -37.62,-93.69 -23.38,-23.95 -55.5,-38.81 -91.13,-38.89l-1459.25 -1.9z"/>
  <path class="fil0" d="M17640.14 1380.16l-0.04 40.45 1421.52 1.83c11.06,0.04 20.2,-9.05 20.2,-20.16l0 -0.1c0.03,-11.1 -9.06,-20.2 -20.17,-20.2l-1421.51 -1.83z"/>
  <path class="fil0" d="M17639.99 1479.76l-0.03 40.49 1421.52 1.83c11.09,0.04 20.2,-9.05 20.23,-20.16l0 -0.11c0,-11.09 -9.05,-20.19 -20.16,-20.19l-1421.56 -1.87z"/>
  <path class="fil7" d="M17373.88 930.9l-42.04 -0.07 0.07 -62.76 1590.29 2.04c52.7,0.07 100.49,21.44 134.98,56.1 34.44,34.56 55.78,82.32 55.74,135.09 -0.14,105.51 -85.71,190.83 -191.18,190.69l-1590.29 -2.05 0.07 -54.35 42 0.04 0.37 -264.73z"/>
  <path class="fil16" d="M17362.99 930.87l-0.36 264.69 1459.28 1.86c71.26,0.11 129,-59.08 129.07,-132.08 0.07,-36.63 -14.36,-69.63 -37.63,-93.69 -23.37,-23.99 -55.49,-38.81 -91.12,-38.88l-1459.25 -1.9z"/>
  <path class="fil0" d="M17362.92 997.9l-0.07 40.49 1421.52 1.83c11.09,0 20.2,-9.06 20.23,-20.16l0 -0.14c0,-11.07 -9.09,-20.17 -20.16,-20.17l-1421.52 -1.86z"/>
  <path class="fil0" d="M17362.78 1097.54l-0.04 40.49 1421.52 1.83c11.06,0.03 20.2,-9.06 20.2,-20.17l0 -0.1c0,-11.1 -9.06,-20.2 -20.16,-20.2l-1421.52 -1.86z"/>
 </g>
</svg>
