<svg xmlns="http://www.w3.org/2000/svg" width="856.044" height="543.851" viewBox="0 0 6968.72 4427.28"  shape-rendering="geometricPrecision" image-rendering="optimizeQuality" fill-rule="evenodd" xmlns:v="https://vecta.io/nano"><style><![CDATA[.V{fill-rule:nonzero}.W{fill:#2e504c}.X{fill:#317468}.Y{fill:#392c2e}.Z{fill:#f59284}.a{fill:#fefefe}.b{fill:#ddb59a}.c{fill:#48353d}.d{fill:#f9a253}.e{fill:#ca3a3f}.f{fill:#f05252}.g{fill:#e77245}.h{fill:#f2726c}.i{fill:#724f52}]]></style><path d="M3782.1 1450.54c-266.51-37.79-519.11-141.96-737.07-299.91-325.55-235.93-1006.84-637.39-1656.75-437.41-896.42 275.83-900.43 1073.74-666.93 1507.17 233.5 433.44 1889.31 1702.71 4035.92 1500.75C6678.19 3540.4 7052.53 1471.73 6028.04 1097.4c-480.86-175.7-790.28-14.05-1140.05 147.6-296.58 137.05-622.16 274.11-1105.88 205.55zm-2222.33 1588.6s-134.08-61.34-186.42 45.24c-52.34 106.57 139.09 215.76 243.25 184.36 104.17-31.4 85.9-188.32-56.83-229.6zM3330.82 958.32s-145.91-45.74-185.98 70.68c-40.05 116.43 171.05 204 274.16 158.21 103.11-45.78 64.02-204.88-88.19-228.89z" fill="#fffbec" class="V"/><path d="M1231.6 4277.57c0 82.69 893.71 149.71 1996.14 149.71 1102.44 0 1996.14-67.02 1996.14-149.71 0-82.68-893.7-149.71-1996.14-149.71s-1996.14 67.02-1996.14 149.71z" class="V b"/><g class="W V"><path d="M4765.23 4315.17a22.26 22.26 0 0 0 8.11-1.54c11.4-4.5 16.99-17.35 12.5-28.74l-443.26-1126.22c-4.48-11.4-17.34-17-28.74-12.5-11.39 4.48-17 17.36-12.5 28.73l443.26 1126.21c3.44 8.73 11.79 14.06 20.63 14.06zm-1174.5 0c8.84 0 17.19-5.33 20.62-14.06l443.26-1126.21c4.48-11.37-1.11-24.25-12.5-28.73-11.38-4.47-24.26 1.11-28.74 12.5l-443.26 1126.22c-4.48 11.39 1.12 24.24 12.52 28.74a22.26 22.26 0 0 0 8.11 1.54z"/><path d="M3795.82 3794.09c2.43 0 4.91-.4 7.33-1.25l671.65-235.39c11.55-4.05 17.64-16.7 13.59-28.25-4.05-11.54-16.69-17.63-28.25-13.58l-671.65 235.4c-11.55 4.05-17.63 16.69-13.58 28.24 3.19 9.13 11.76 14.83 20.9 14.83z"/><path d="M4560.16 3794.09c9.16 0 17.73-5.7 20.93-14.83a22.16 22.16 0 0 0-13.59-28.24l-671.65-235.4c-11.55-4.05-24.19 2.04-28.24 13.58-4.05 11.55 2.03 24.2 13.59 28.25l671.65 235.39c2.42.85 4.9 1.25 7.33 1.25zm-623.36 521.08a22.26 22.26 0 0 0 8.11-1.54c11.39-4.5 16.99-17.35 12.5-28.74l-443.26-1126.22c-4.48-11.4-17.34-17-28.74-12.5-11.39 4.48-16.99 17.36-12.5 28.73l443.26 1126.21c3.44 8.73 11.79 14.06 20.63 14.06zm-1174.5 0c8.85 0 17.19-5.33 20.62-14.06l443.26-1126.21c4.48-11.37-1.11-24.25-12.5-28.73-11.38-4.48-24.25 1.11-28.73 12.5l-443.27 1126.22c-4.48 11.39 1.12 24.24 12.52 28.74a22.26 22.26 0 0 0 8.11 1.54z"/><path d="M2967.4 3794.09a22.15 22.15 0 0 0 7.33-1.25l671.65-235.39c11.54-4.05 17.63-16.7 13.58-28.25-4.05-11.54-16.69-17.63-28.24-13.58l-671.65 235.4c-11.55 4.05-17.64 16.69-13.59 28.24 3.2 9.13 11.77 14.83 20.93 14.83z"/><path d="M3731.74 3794.09c9.15 0 17.72-5.7 20.92-14.83a22.16 22.16 0 0 0-13.59-28.24l-671.65-235.4a22.16 22.16 0 0 0-28.24 13.58 22.17 22.17 0 0 0 13.58 28.25l671.65 235.39c2.43.85 4.9 1.25 7.34 1.25z"/></g><path d="M2827.85 3194.19s934.6 534.83 1527.74 102.23c23.6-17.21 46.67-35.93 69.12-56.36a744.8 744.8 0 0 0 22.93-21.58c505.68-494.21-139.13-1286.9-139.13-1286.9l-50.09 21.63-17.59 7.81c-923.45 416.42-1412.98 1233.16-1412.98 1233.16z" class="V X"/><path d="M4420.79 2250.06c77.14 154.54 161.84 385.75 127.31 609.55-30.07 194.97-100.4 335.85-192.51 436.81 23.6-17.21 46.67-35.93 69.12-56.36 71.89-102.47 119.62-228.63 142.57-377.52 15.62-101.26 8.98-212.19-19.71-329.73-22.87-93.78-59.75-191.93-109.63-291.78-80.92-162.04-170.62-276.59-179.52-287.82l-17.59 7.81c.35 1.22.94 2.41 1.8 3.46.91 1.16 94.28 117.52 178.16 285.57zm-292.21 158.78s180.39 491 8.68 712.63-568.69 326.89-1143.8-8.72l1135.12-703.91z" class="W V"/><path d="M3808.47 820.86c6.82 107.83 44.2 261.69 99.41 408.08 73.77 195.59 179.34 377.8 286.29 418.83 186.94 71.72 282.55-61.12 282.55-61.12-276.19 55.22-288.93-244.35-269.82-468.47 19.13-224.12-42.49-400.49-206.5-415.36-113.2-10.29-161.57 49.87-180.69 88.09-8.56 17.17-11.25 29.95-11.25 29.95z" class="V Y"/><path d="M3808.47 820.86c6.82 107.83 44.2 261.69 99.41 408.08l173.9 25.86s78.16-181.81-3.56-325.96c-61.12-107.79-192.09-136.58-258.51-137.93-8.56 17.17-11.25 29.95-11.25 29.95zm-273.44 807.35l-1.12 8.13-1.58 10.52-3.77 22.03c-2.58 14.89-5.59 30.05-8.79 45.21-6.45 30.34-13.93 60.81-22.2 91.11-16.26 60.74-36.12 120.78-58.9 179.58-11.6 29.32-23.63 58.45-36.46 87.23-13.06 28.63-26.63 57.05-41.13 84.92-3.49 7.07-7.3 13.92-10.98 20.85l-11.2 20.71-23.48 40.79-12.1 20.18-17.73 28.23.66-.92c1.03-1.3 1.63-2.1 2.44-2.93l1.52-1.57c1.72-1.47.99-.42-.78 1.08-3.9 3.3-12.6 8.91-22.92 14.23-10.4 5.43-22.61 10.91-35.56 16.16-26.05 10.49-55.07 20.16-84.96 29.1-29.96 8.93-60.97 17.09-92.43 24.68l-95.69 21.45c-64.51 13.32-130.03 25.25-195.92 36.08l-99.07 15.58-49.59 7.11-24.72 3.49-24.14 3.24 19.43 224.65 26.85-1.54 26.22-1.66 52.22-3.96 104.25-9.4c69.49-7.12 139.03-15.6 208.93-26.43 69.99-10.78 140.12-23.65 211.97-41.44 35.99-8.95 72.37-19.21 110.23-32.76 18.98-6.82 38.35-14.44 58.68-23.91 20.35-9.61 41.61-20.67 65.33-37.46 11.95-8.64 24.43-18.52 37.86-32.42 3.28-3.33 6.75-7.25 10.07-11.09 3.46-4.18 6.79-8.27 10.25-13.09l3.76-5.32 1.96-2.84 19.63-28.56c5.21-7.64 10.15-15.43 15.23-23.15 10.25-15.38 19.8-31.15 29.56-46.83 4.89-7.84 9.43-15.85 14.15-23.77l13.87-23.92 13.49-24.14 12.99-24.38c8.77-16.22 16.79-32.75 25.1-49.18 16.1-33.08 31.47-66.51 45.64-100.42 28.21-67.89 52.94-137.12 73.72-207.84 10.25-35.42 19.37-71.21 27.55-107.56 4.06-18.21 7.89-36.5 11.35-55.21l4.87-28.45 2.22-14.81 1.07-7.77 1.19-9.47-289.09-32.12z" class="d V"/><g class="g V"><path d="M3367.78 2365.07c2.52.49 5.22-.18 7.25-2.04 3.41-3.13 3.63-8.41.52-11.81-38.52-42.03-75.84-71.27-77.41-72.48-3.64-2.83-8.89-2.18-11.72 1.45-2.84 3.64-2.19 8.89 1.44 11.73.38.28 37.83 29.63 75.36 70.6a8.35 8.35 0 0 0 4.56 2.55z"/><path d="M3354.28 2305.34c4.26.82 8.49-1.75 9.65-6a8.36 8.36 0 0 0-5.85-10.27c-.33-.09-32.01-8.74-59.1-14.01-4.54-.88-8.91 2.07-9.8 6.6a8.36 8.36 0 0 0 6.61 9.81c26.48 5.14 57.56 13.64 57.87 13.72l.62.15zm-636.62 387.99l2.4.12c4.6-.44 7.97-4.54 7.52-9.13l-25.66-264.05c-.45-4.6-4.53-7.94-9.13-7.51-4.59.45-7.96 4.54-7.51 9.12l25.66 264.07c.36 3.75 3.18 6.71 6.72 7.38z"/><path d="M2585.36 2632.61l2.55.1 121.11-13.85c4.58-.52 7.88-4.67 7.36-9.26a8.37 8.37 0 0 0-9.26-7.35l-121.11 13.86c-4.58.52-7.88 4.67-7.36 9.26.42 3.7 3.22 6.57 6.71 7.24zm36.66-85.25a19.33 19.33 0 0 0 10.39 25.26c9.85 4.1 21.16-.55 25.26-10.4a19.31 19.31 0 0 0-10.39-25.25c-9.85-4.11-21.16.54-25.26 10.39z"/></g><path d="M2462.36 3815.91l-41.23 209.3-190.83 65.82c-80.18 27.68-270.95 26.26-292.03 80.05-13.3 33.93 148.24 74.65 219.44 77.72 71.19 3.08 243.88 48.01 344 45.87s79.7-161.13 96.17-208.47c16.48-47.31 54.4-249.64 54.4-249.64l-189.92-20.65z" class="V Z"/><path d="M2344.48 4016.72s-25.15 145.11 43.26 268.27c0 0-393.91-13.95-467.77-99.9-27.25-31.69-9.59-60.43 35.71-84.99 5.75-3.12 11.93-6.18 18.55-9.19 16.03-7.19 34.44-14.01 54.77-20.37 5.46-1.73 11.03-3.39 16.75-5.02 16.89-4.87 34.88-9.43 53.73-13.69l17-3.76c16.77-3.52 34.13-6.82 51.88-9.88l17.04-2.87c16.73-2.71 33.76-5.19 50.98-7.46l16.61-2.1 51.02-5.56 16.24-1.51 24.24-2z" class="V X"/><path d="M1974.24 4090.91c-16.34 49.81-.57 93.3-.39 93.72a7.59 7.59 0 0 1 .04 5.23c-.73 2.1-2.31 3.86-4.56 4.68-3.97 1.5-8.4-.5-9.92-4.49-.7-1.83-15.08-41.14-3.72-89.96 5.75-3.12 11.93-6.18 18.55-9.19zm71.52-25.38c.32 1.35.25 2.76-.24 4.16l-.12.34c-22.01 63.46.77 122.63 1.03 123.21a7.82 7.82 0 0 1 .1 5.35c-.71 2.03-2.29 3.77-4.45 4.66a7.74 7.74 0 0 1-10.01-4.35c-.97-2.55-23.79-61.8-3.06-128.35 5.46-1.73 11.03-3.39 16.75-5.02zm70.72-17.45l-.41 2.69-.24.68c-26.27 75.74 2.89 149.71 3.18 150.47.72 1.78.7 3.69.12 5.38-.7 2.04-2.25 3.74-4.38 4.63a7.71 7.71 0 0 1-10.03-4.25c-1.25-3.17-30.44-76.5-5.23-155.84l17-3.76zm68.93-12.74c-29.11 87.41 5.85 174.34 6.2 175.24.74 1.8.76 3.74.16 5.45-.7 2.01-2.24 3.72-4.34 4.62-3.95 1.61-8.45-.28-10.06-4.21-1.52-3.68-35.58-88.17-9-178.24l17.04-2.87zm67.58-9.56c-28.13 96.99 10.81 192.51 11.21 193.49.74 1.82.76 3.76.16 5.47-.7 2.01-2.21 3.74-4.3 4.61-3.93 1.63-8.44-.22-10.08-4.15-1.75-4.17-39.92-97.56-13.6-197.33l16.61-2.1zm67.26-7.07c-26.18 105.85 16.11 208.14 16.57 209.25a7.75 7.75 0 0 1 .18 5.54c-.69 1.96-2.19 3.68-4.29 4.55-3.91 1.67-8.42-.15-10.09-4.1-1.95-4.62-43.51-105.27-18.6-213.74l16.24-1.51z" class="W V"/><path d="M2362.13 4226.42s133.58 23.73 222.03-4.93c0 0 13.53 49.91-24.06 82.51 0 0-313.01-.27-436.79-25.64-123.77-25.36-209.92-51.43-208.29-99.77l447.12 47.82z" class="V X"/><path d="M2359.61 4235.89c-1.05 3.04-3.94 5.21-7.33 5.19-213.14-1.08-423.79-53.07-425.89-53.61-4.12-1.02-6.63-5.2-5.6-9.34 1-4.1 5.21-6.63 9.33-5.6 2.1.52 210.99 52.07 422.24 53.14 4.26.03 7.69 3.49 7.67 7.75l-.42 2.47z" class="V W"/><path d="M1842.81 3720.43l-86.57 119.29s-120.74 25.7-215.76 1.84c-82.26-20.66-241.23-126.15-288.3-92.62-29.69 21.13 83.33 143.54 141.25 185.04 57.93 41.49 177.98 173.5 262.99 226.46 85 52.95 162.32-83.54 194.49-121.98 56.14-67.12 133.36-173.33 133.36-173.33l-141.46-144.7z" class="V Z"/><path d="M1676.7 3841.75s-100.38 107.75-110.42 248.29c0 0-322.21-227.03-337.07-339.38-5.49-41.44 25.01-55.84 76.37-51.63 6.53.51 13.35 1.35 20.55 2.43 17.35 2.74 36.5 7.1 57 12.9 5.5 1.53 11.07 3.19 16.76 4.95 16.8 5.14 34.36 11.16 52.47 17.91l16.28 6.13c15.97 6.24 32.3 12.96 48.86 20.1l15.84 6.92c15.48 6.88 31.1 14.12 46.76 21.62l15.06 7.33 45.75 23.23 14.43 7.62 21.38 11.58z" class="V X"/><path d="M1326.13 3701.46c-40.9 32.79-51.48 77.82-51.56 78.27-.41 1.85-1.47 3.35-2.82 4.41-1.76 1.36-4.05 1.97-6.37 1.43a7.7 7.7 0 0 1-5.86-9.19c.42-1.91 9.85-42.68 46.06-77.35 6.53.51 13.35 1.35 20.55 2.43zm73.76 17.85c-.48 1.3-1.3 2.44-2.46 3.34l-.3.23c-53.12 41.11-66.4 103.11-66.49 103.72-.38 1.87-1.42 3.45-2.85 4.54-1.7 1.32-3.97 1.91-6.26 1.46-4.17-.86-6.86-4.94-5.99-9.1.58-2.67 13.85-64.77 67.6-109.14 5.5 1.53 11.07 3.19 16.76 4.95zm68.75 24.04l-1.81 2.04-.56.43c-63.41 49.06-79.43 126.94-79.6 127.73-.37 1.88-1.43 3.49-2.84 4.57-1.71 1.34-3.94 1.92-6.21 1.5-4.16-.83-6.89-4.87-6.07-9.05.69-3.34 16.33-80.69 80.81-133.35l16.28 6.13zm64.69 27.02c-72.17 57.28-90.42 149.19-90.63 150.13-.35 1.91-1.39 3.54-2.82 4.65-1.68 1.3-3.92 1.89-6.17 1.5a7.73 7.73 0 0 1-6.12-9.02c.74-3.92 18.4-93.28 89.91-154.17l15.84 6.92zm61.82 28.95c-76.57 65.83-96.18 167.1-96.39 168.15a7.78 7.78 0 0 1-2.86 4.67c-1.68 1.3-3.9 1.92-6.12 1.5-4.19-.77-6.94-4.79-6.18-8.98.82-4.44 19.91-103.51 96.48-172.66l15.06 7.33zm60.17 30.84c-79.78 74.31-100.28 183.1-100.5 184.28-.37 1.96-1.43 3.59-2.9 4.73-1.65 1.28-3.84 1.88-6.07 1.46a7.67 7.67 0 0 1-6.22-8.94c.9-4.94 21.11-111.93 101.26-189.15l14.43 7.62z" class="W V"/><path d="M1576.85 4026.97s98.89 92.9 188.62 117.26c0 0-15.95 49.19-65.26 55.94 0 0-261.96-171.34-351.74-260.24-89.77-88.91-147.66-157.83-119.87-197.43l348.25 284.46z" class="V X"/><path d="M1569.55 4033.55c-2.53 1.95-6.13 2.19-8.95.32-177.9-117.41-325.85-276.11-327.33-277.7-2.89-3.11-2.7-7.99.41-10.89 3.08-2.88 7.99-2.7 10.89.41 1.46 1.58 148.21 158.96 324.51 275.32a7.69 7.69 0 0 1 2.19 10.67l-1.71 1.86z" class="V W"/><path d="M2520.68 2636.69c67.75-44.88 1017.78-97.56 1299.46 43.6 21.33 72.32-444.73 262.07-581.4 395.22-403.99-12.22-648.13 76.95-648.13 76.95s-201.27 293.79-306.68 395.49c-105.42 101.69-326.23 397.89-326.23 397.89l-196.31-144.88s574.85-1042.02 759.3-1164.27z" class="V e"/><g fill="#9b383c" class="V"><path d="M2039.62 3832.29c3.17.61 6.56-.65 8.5-3.49a8.36 8.36 0 0 0-2.17-11.62L1842.77 3678c-3.81-2.62-9.01-1.63-11.62 2.17-2.61 3.81-1.63 9.01 2.18 11.61l203.17 139.19c.98.66 2.03 1.1 3.13 1.31z"/><path d="M1986.91 3795.71c3.15.6 6.5-.63 8.45-3.43.97-1.36 25.73-35.83 193.71-219.66 182.99-200.27 385.93-500.66 387.96-503.66 2.58-3.83 1.56-9.02-2.26-11.61-3.82-2.57-9.02-1.56-11.61 2.27-2.03 3.01-204.28 302.38-386.44 501.73-169.83 185.86-194.13 220-195.07 221.36a8.36 8.36 0 0 0 2.06 11.65c.99.68 2.07 1.13 3.18 1.36z"/></g><path d="M4151.74 2668.34s176.43 738.17-680.38 622.76c-386.71-52.08-557.85-146.96-557.85-146.96s-75.03 336.41-120.62 475.61c-45.58 139.19-148.12 383.28-148.12 383.28l-229.21-44.61s111.1-1060.44 318.17-1138.47c207.08-78.02 544.29-101.23 1009.22-56.18l408.8-95.43z" class="V f"/><g class="e V"><path d="M2640.19 3874.91c3.83.74 7.77-1.3 9.31-5.03 64.91-157.23 115.67-358.76 156.45-520.7 33.81-134.28 65.75-261.11 86.18-273.11 16.55-9.73 73.29 11.42 145.12 38.19 142.88 53.25 358.82 133.73 616.03 124.37 140.12-5.09 251.33-51.03 330.55-136.51 136.63-147.42 129.69-364.52 129.6-366.69-.19-4.61-4.08-8.22-8.68-8.02a8.35 8.35 0 0 0-8.02 8.68c.08 2.1 6.68 212.52-125.25 354.77-76.1 82.04-183.36 126.14-318.8 131.06-253.9 9.24-467.95-70.55-609.59-123.34-84.83-31.61-136.03-50.7-159.43-36.94-25.28 14.86-49.6 107.41-93.93 283.45-40.65 161.41-91.24 362.3-155.68 518.4a8.36 8.36 0 0 0 4.54 10.92l1.59.49z"/><path d="M2435.04 3834.96l.18.03 255.94 44.14a8.37 8.37 0 0 0 9.66-6.82c.78-4.56-2.22-8.96-6.82-9.65l-255.95-44.15a8.37 8.37 0 0 0-9.66 6.82c-.77 4.5 2.19 8.76 6.64 9.63z"/></g><g class="Y V"><path d="M3538.64 2800.49l-902.41-37.19a12.47 12.47 0 0 1-11.95-12.98l3.95-95.91c.28-6.88 6.1-12.25 12.98-11.96l902.41 37.19c6.89.28 12.24 6.1 11.96 12.99l-3.96 95.9c-.28 6.89-6.09 12.25-12.98 11.96z"/><path d="M2526.96 2758.8c-34.91-1.43-64.47-26.15-72.09-60.24l-146.67-656.62c-8.95-40.13 22.56-77.85 63.64-76.15l415.2 17.11c28.01 1.16 51.85 20.81 58.31 48.08l177.3 748.25-495.69-20.43z"/></g><path d="M2569.97 2371.31c9.61 43.04 48.68 80.67 87.27 84.02 38.6 3.38 62.1-28.78 52.49-71.82-9.61-43.03-48.68-80.65-87.27-84.02s-62.09 28.77-52.49 71.82z" class="V d"/><path d="M2648.06 2363.51c1.92 8.61 6.2 15.82 9.56 16.13 3.35.28 4.52-6.46 2.59-15.07-1.92-8.61-6.2-15.81-9.55-16.11-3.37-.3-4.53 6.45-2.61 15.05zm-36.46-3.17c1.93 8.6 6.21 15.83 9.56 16.11 3.35.29 4.52-6.45 2.59-15.05-1.92-8.61-6.2-15.83-9.55-16.12-3.37-.29-4.52 6.46-2.61 15.06zm36.11 54.98c30.05 2.62 29.46-30.28 29.45-30.61-.06-1.8-1.5-3.69-3.22-4.24-1.73-.54-3.08.49-3.04 2.28.03 1.18.38 27.98-24.69 25.79-25.1-2.18-36.94-30.04-37.42-31.22-.77-1.86-2.65-3.16-4.19-2.9-1.55.26-2.18 1.97-1.42 3.82.14.35 14.5 34.45 44.55 37.08zm197.67-384.33l175.82 742.08 47.44 1.97-175.82-742.09c-6.51-27.3-30.31-46.98-58.33-48.13l-47.44-1.95c28.03 1.15 51.82 20.83 58.33 48.13z" class="Y V"/><path d="M3008.63 2726.86c-3.07 0-5.85-2.09-6.59-5.22l-163.26-689.09a6.77 6.77 0 0 1 5.04-8.16c3.65-.88 7.3 1.39 8.16 5.04l163.26 689.09c.87 3.63-1.39 7.29-5.04 8.16l-1.58.18z" fill="#61545f" class="V"/><path d="M3379.93 2144.22l.66 2.28c2.53 8.74 5.59 17.21 9.18 25.56 21.05 49.9 57.57 92.22 72.16 107.98 4.02 4.45 6.42 6.74 6.42 6.74l-.13.94-.83 7.92c-1.12 10.73-2.77 23.62-5.78 37.86l-58.59 260.09c214.24 308.73 721.91 113.02 748.73 74.74l47.82-325.66c11.82-77.34 43.39-193.29 85.44-308.79l5.02-13.69c12.6-33.94 26.02-67.74 40.11-100.19 61.62-142.18 47.19-269.99-35.87-328.19-28.21-19.77-114.88-45.64-153.27-53.7l-30.2-6.15c-54.11-10.4-96.4-16.33-96.4-16.33l-259.52 2.31c-25.54 2.87-48.52 6.02-69.21 9.83-18.15 3.16-34.56 6.86-49.35 10.97-132.3 36.34-137.38 105.9-161.61 231.28-6.97 35.71-16.77 70.87-27.49 104.68l-10.58 31.53c-33.93 99.55-71.18 185.12-56.72 237.97z" class="V d"/><path d="M4028.63 1517.96s135.16 21.59 134.42 99.01c-.73 77.42-276.4 71.2-276.4 71.2s127.87-84.78 141.98-170.22zm-267.72 0s-135.17 21.59-134.43 99.01c.73 77.42 190.76 78.61 190.76 78.61s-42.22-92.19-56.33-177.62z" class="a V"/><path d="M3761.98 1507.35l-9.37 91.85c-7.65 74.92 73.78 125.91 138.08 86.67 74.88-45.72 142.11-108.19 142.97-167.35l-271.68-11.17z" class="V Z"/><g class="g V"><path d="M3468.34 2286.78l-.13.94-.83 7.92c47.38 10.9 108.36 12.46 180.13-1.26 141.55-27.18 256.97 38.51 258.05 39.19 1.06.67 2.41.95 3.63.95 2.41.01 4.84-1.34 6.05-3.6 2.03-3.35.83-7.66-2.51-9.68-4.83-2.84-121.06-68.93-267.98-40.84-74.47 14.25-136.52 11.74-182.82-.37 4.02 4.45 6.42 6.74 6.42 6.74zm234.16-352.46c86.6.3 263.74-123.11 271.24-128.36 3.22-2.26 4.01-6.69 1.75-9.91-2.26-3.21-6.69-3.99-9.9-1.74-1.8 1.26-180.94 126.07-263.04 125.79-78.57-.27-95.68-86.16-95.85-87.03-.73-3.85-4.43-6.42-8.3-5.66-3.86.73-6.39 4.45-5.67 8.31.18.98 19.59 98.28 109.77 98.6z"/><path d="M3421.89 2475.23c4.11.82 8.26-1.58 9.56-5.68 20.37-64.46 44.7-178.95 44.95-180.1.67-3.22-.58-6.51-3.22-8.46-.7-.52-69.93-52.6-85.01-138.23-.8-4.55-5.13-7.59-9.68-6.78a8.35 8.35 0 0 0-6.78 9.68c14.18 80.57 70.93 132.04 87.24 145.4-4.94 22.86-25.75 117.47-43.44 173.45a8.36 8.36 0 0 0 5.45 10.49l.93.23z"/></g><path d="M3543.58 1017.87s-42.85 125.9 24.67 174.69l5.92-172.9-30.59-1.79zm73-134.58s160.29-158.01 350.67-27.59c193.67 132.68 172.01 471.47-1.82 512.66 0 0-289.35-252.02-348.85-485.07z" class="Y V"/><path d="M3617.76 1215.29s-46.87-38.86-60.61 10.8c-13.74 49.65 19.59 139.26 75.82 113.61l-15.21-124.41z" class="V h"/><path d="M3749.21 1434.15l17.05 125.52s92.36 126.22 267.4-41.15c-33.95-50.07-61.75-143.38-55.18-194.49 0 0-13.68 7.79-34.88 26.09-4.14 3.58-9.41 6.32-14.6 9.68-45.92 29.68-116.1 68.02-179.8 74.34z" class="V Z"/><path d="M3749.21 1434.15l8.09 59.5c51.83-21.63 143.67-68.36 186.31-143.52l-14.6 9.68c-45.92 29.68-116.1 68.02-179.8 74.34z" class="V Y"/><path d="M3632.96 1406.29c111.81 107.24 338.54-76.22 345.36-81.81l.15-.15c.45-10.2.65-20.29.71-30.23.46-84.24-12.11-160.17-33.23-230.68-9.55-76.61-67.33-139.26-143.37-152.56-78.8-13.77-139.36 30.58-177.05 49.97-56.86 29.27-80.88 113.81-61.48 224.69 23.8 136.09 38 191.12 68.91 220.77z" class="V Z"/><path d="M3715.76 1054.5s-21.61 6.1-10.29 24.89 51.49-11.3 89.7 20.23c0 0 4.81-50.78-79.41-45.12zm-99.68 17.77s22.38-1.75 18.25 19.79c-4.14 21.54-52.23 7.18-77.2 49.96 0 0-22.05-45.98 58.95-69.75z" class="Y V"/><path d="M3750.86 1210.52c1.82 10.27 24.45 14.81 50.53 10.17 26.07-4.63 45.73-16.73 43.91-26.98-1.84-10.27-24.46-14.83-50.53-10.18-26.08 4.65-45.74 16.74-43.91 27z" class="V h"/><path d="M3556.62 1228.15l-.25-1.69.74-.21-.49 1.9z" fill="#f4867d" class="V"/><path d="M3561.7 1262.82l-5.08-34.68.49-1.9 9.44-2.09 4.28-.68 7.06 36.93-4.71.93c-3.92.7-7.77 1.21-11.47 1.49z" class="V h"/><path d="M3577.88 1260.41l-7.06-36.93c5.38-.77 10.58-1.13 15.42-1.13 16.9 0 29.46 4.46 30.8 12.01 1.71 9.63-15.5 20.87-39.17 26.05z" fill="#f37870" class="V"/><path d="M3922.26 1275.47c.95 1.46 27.15 41.14 56.05 49.02l.04.01.11-.16a837.83 837.83 0 0 0 .71-30.23c-1.03.01-28.77.12-56.91-18.64z" class="V Y"/><path d="M3930.64 1172.97s42.87-85.75 94.78-33.61c42.75 42.97 1.17 182.19-73.97 150.42l-20.81-116.8z" class="V Z"/><path d="M3991.57 1255.18s-33.82 94.18-4.94 101.23c53.11 12.98 4.94-101.23 4.94-101.23z" class="V a"/><g class="Y V"><path d="M3955.1 1265.6c2.92-.52 5.04-3.17 4.83-6.2-3.94-58.42 40.51-86.93 42.39-88.12 2.76-1.73 3.61-5.35 1.89-8.11-1.73-2.76-5.35-3.61-8.12-1.9-2.14 1.34-52.35 33.29-47.92 98.93.23 3.24 3.04 5.7 6.29 5.48l.64-.08z"/><path d="M4002.94 1220.8c1.7-.3 3.23-1.33 4.14-2.94 1.57-2.85.54-6.43-2.3-8-2.65-1.48-26.36-14.14-42.98-6.59-2.96 1.35-4.27 4.84-2.92 7.81 1.34 2.96 4.84 4.26 7.8 2.92 9.55-4.35 26.63 2.97 32.39 6.17 1.23.68 2.59.88 3.88.64zm-270.75-62.2c2.51 14.09 10.94 24.38 18.82 22.98 7.89-1.4 12.25-13.98 9.75-28.07-2.52-14.1-10.94-24.39-18.83-22.98-7.89 1.4-12.25 13.97-9.74 28.07zm-139.47 21.8c2.52 14.1 10.94 24.39 18.83 22.98 7.88-1.4 12.25-13.97 9.73-28.07-2.51-14.09-10.94-24.38-18.82-22.97-7.89 1.39-12.24 13.97-9.73 28.06zm91.9 122.39c35.84-6.38 62.78-37.45 63.17-37.9 2.1-2.48 1.81-6.2-.66-8.3-2.49-2.11-6.2-1.81-8.31.67-2.09 2.44-50.46 57.93-100.22 24.05-2.69-1.83-6.35-1.14-8.18 1.55-1.84 2.69-1.13 6.35 1.55 8.18 18.28 12.45 36.38 14.64 52.65 11.75zm191.57-286.02s-9.85 166.77 39.78 176.7c58.72 11.73 63.22-120.11 23.8-224.79l-63.58 48.1z"/><path d="M3900.87 1050.64s-235.9 33.46-282.87-57.96c0 0-21.26 81.3-73.1 86.5 0 0-33.3-89.33 71.68-195.89 0 0 251.39-68.38 312.58 37.35 61.18 105.74-28.29 130-28.29 130z"/></g><path d="M3832.21 1120.16l-1.65.11-126.31 18.26a11.54 11.54 0 0 0-9.77 13.06l4.49 31.09a33.76 33.76 0 0 0 13.31 22.39c7.28 5.44 16.24 7.72 25.24 6.43l81.77-11.82c9.01-1.29 16.95-6.02 22.4-13.29 5.44-7.29 7.73-16.25 6.43-25.25l-4.5-31.09c-.83-5.73-5.78-9.88-11.41-9.88zm-99.58 102.53c-21.93 0-41.17-16.14-44.4-38.47l-4.48-31.08c-1.77-12.21 6.73-23.6 18.95-25.36l126.31-18.25c12.22-1.76 23.59 6.74 25.36 18.95l4.48 31.08c1.71 11.86-1.29 23.7-8.47 33.29-7.18 9.61-17.67 15.84-29.53 17.55l-81.77 11.82a47.19 47.19 0 0 1-6.45.46zm-105.81-72.87l-1.64.12-85.16 12.31c-6.3.9-10.67 6.76-9.76 13.06l4.48 31.08c1.3 8.99 6.02 16.94 13.31 22.39 7.27 5.44 16.23 7.72 25.24 6.42l40.63-5.86c18.56-2.68 31.49-19.98 28.81-38.54l-4.48-31.1c-.83-5.73-5.78-9.88-11.42-9.88zm-58.49 96.59c-9.62 0-18.94-3.08-26.78-8.94-9.61-7.18-15.84-17.66-17.55-29.52l-4.49-31.09c-1.76-12.22 6.74-23.59 18.95-25.36l85.16-12.3c12.25-1.78 23.59 6.73 25.36 18.95l4.5 31.08c3.53 24.5-13.51 47.3-38.01 50.85l-40.62 5.86c-2.17.31-4.35.46-6.51.46z" class="a V"/><path d="M3665.12 1222.98c7.24-1.29 16.77-4.34 25.64-11.35 2.55-2.02 2.97-5.72.97-8.27-2.03-2.55-5.73-2.99-8.28-.97-8.04 6.37-16.97 8.6-22.85 9.34l9.37-58.14c.51-3.22-1.68-6.23-4.9-6.74a5.89 5.89 0 0 0-6.75 4.87l-10.49 65.3c-.27 1.63.16 3.29 1.18 4.59 1.03 1.29 2.54 2.1 4.19 2.22.4.03 5.17.36 11.93-.85z" class="V Y"/><path d="M3643.81 1156.86l-5.6-9.29c17.25-10.4 34.82-12.16 52.18-5.23l-4.02 10.09c-14.25-5.69-28.18-4.23-42.57 4.44zm205.18-22.17a5.44 5.44 0 0 1-5.15-3.69 5.45 5.45 0 0 1 3.4-6.88c2.74-.92 67.62-22.53 119.22-3 2.8 1.05 4.22 4.19 3.16 7-1.07 2.8-4.2 4.21-7 3.15-47.92-18.15-111.26 2.92-111.9 3.13l-1.74.29z" class="a V"/><path d="M3258.1 2609.82s-162.67-73.28-237.06-35.71l29.46 124.34 93.83 43.94c28.56 13.34 31.48 67.81 140.39 68.33l-26.62-200.9z" class="V Z"/><path d="M3974.78 2414.86l.38-.46c1.25-1.5 1.95-2.12 2.31-2.31.35-.16-.61 1.01-2.69 2.77zm404.1-507.92c-.78-39-3.13-77.88-7.25-116.9a1246.71 1246.71 0 0 0-7.59-58.8l-5.19-29.97-3.07-15.49-1.74-8.14-.98-4.34-1.38-5.81-282.26 70.17 1.58 7.27 2.01 10.2a711.33 711.33 0 0 1 3.74 21.69c2.42 14.73 4.53 29.81 6.26 45.01 3.56 30.41 5.76 61.3 6.71 92.15 2.3 61.73-.54 123.54-8.95 183.89-2.06 15.09-4.59 30.1-7.35 44.99-2.69 14.93-5.78 29.72-9.26 44.39-3.4 14.69-7.25 29.23-11.43 43.64-4.12 14.44-8.76 28.64-13.64 42.75-4.81 14.14-10.2 28.04-15.72 41.85-5.69 13.72-11.6 27.34-18.02 40.73-6.43 13.35-13.1 26.59-20.29 39.53-3.5 6.52-7.25 12.89-10.99 19.3l-.38.65c-2.57 2.06-6.19 4.65-10.45 7.36-8.87 5.63-20.3 11.77-32.69 17.69-24.99 11.91-53.89 23.01-83.76 33.45-60.06 20.82-124.56 38.4-189.76 54.68-65.36 16.09-131.88 30.72-198.81 44.17l-100.71 19.55-50.47 9.06-25.15 4.44-24.58 4.19 27.3 223.83 27.37-2.55 26.76-2.64 53.24-5.94 106.23-13.41c70.8-9.85 141.59-21.13 212.69-34.93 71.24-13.75 142.49-29.76 215.6-51.31 36.64-10.88 73.59-23.32 112.45-39.78l12.45-5.48c15.56-6.98 31.49-14.78 48.2-24.34 10.61-6.11 21.6-12.93 33.1-21.12 11.45-8.14 23.66-17.84 36.43-30.36 6.46-6.42 13.01-13.54 19.67-21.93 3.4-4.36 6.66-8.68 9.99-13.73l2.47-3.69 1.13-1.82 2.04-3.17 15.96-25.65c9.37-15.38 18.18-31.06 26.65-46.91l3.01-5.64c9.39-17.77 18.16-35.84 26.54-54.09 8.2-18.29 16.18-36.69 23.35-55.36 28.76-74.64 49.52-151.76 62.08-229.51 12.68-77.77 18-155.97 16.91-233.87z" class="V d"/><g class="g V"><path d="M4247 2485.41c-8.47 15.85-17.28 31.53-26.65 46.91-5.12 8.66-10.53 17.15-15.96 25.65l-2.04 3.17-1.13 1.82-2.47 3.69c-3.33 5.05-6.59 9.37-9.99 13.73-6.65 8.38-13.21 15.5-19.67 21.93-12.77 12.52-24.98 22.22-36.43 30.36-11.49 8.2-22.49 15.01-33.1 21.12-16.71 9.55-32.65 17.36-48.2 24.34 7.9-186.75 130.36-199.41 195.63-192.72zm-190.27 7.39c2.62.5 5.42-.24 7.47-2.23 3.29-3.24 3.34-8.54.11-11.82-40.02-40.7-97.19-81.15-99.61-82.84-3.78-2.65-8.99-1.75-11.65 2.02-2.65 3.78-1.75 8.99 2.02 11.65.59.41 58.38 41.27 97.31 80.89a8.33 8.33 0 0 0 4.35 2.34z"/><path d="M4041.14 2433.58c4.18.82 8.35-1.66 9.61-5.82a8.37 8.37 0 0 0-5.62-10.4c-1.83-.54-45.4-13.53-79.73-19.96-4.54-.86-8.9 2.15-9.75 6.69-.83 4.54 2.23 8.8 6.69 9.73 33.41 6.25 77.56 19.42 78.01 19.55l.8.21z"/><path d="M3426.68 2583.28c1.15.22 2.38.19 3.6-.1 310.1-77.1 518.35-165.63 528.82-175.7.83-.82 1.51-1.79 1.95-2.88 7.11-17.54 173.93-431.43 149.94-598.21-.64-4.57-4.87-7.74-9.45-7.08a8.36 8.36 0 0 0-7.09 9.45c22.45 156.06-134.3 553.04-147.96 587.23-21.67 12.57-224.25 97.36-520.24 170.94a8.36 8.36 0 0 0-6.11 10.13c.82 3.26 3.43 5.59 6.54 6.2z"/><path d="M4097.6 1886.98a8.27 8.27 0 0 0 6.2-1.23 8.36 8.36 0 0 0 2.38-11.58l-28.42-43.05a8.36 8.36 0 0 0-11.58-2.38c-3.85 2.55-4.92 7.73-2.37 11.58l28.42 43.06c1.28 1.94 3.26 3.18 5.37 3.59zm-681.84 936l2.7.06c4.58-.6 7.79-4.8 7.19-9.38l-28.98-218.53a8.37 8.37 0 0 0-9.39-7.18c-4.57.62-7.79 4.82-7.18 9.39l28.98 218.51a8.38 8.38 0 0 0 6.69 7.12z"/><path d="M3284.16 2787.58l2.83.06 120.56-18.09c4.56-.7 7.71-4.94 7.02-9.51a8.36 8.36 0 0 0-9.51-7.03l-120.55 18.09c-4.57.68-7.72 4.93-7.03 9.5.54 3.59 3.3 6.32 6.68 6.98zm33.94-86.44c-3.75 9.98 1.29 21.12 11.27 24.88 9.99 3.76 21.12-1.28 24.88-11.27a19.32 19.32 0 0 0-11.27-24.88c-9.97-3.77-21.12 1.28-24.88 11.27z"/></g><path d="M6216.54 4296.01c0 28.88 156.05 52.29 348.52 52.29 192.5 0 348.54-23.41 348.54-52.29s-156.04-52.28-348.54-52.28c-192.48 0-348.52 23.41-348.52 52.28z" class="V b"/><path d="M6944.49 3506.07l-24.93 137.15-.07.5-10.81 59.41-1.86 10.36-3.98 21.78-102.98 566.76h-459.84l-23.63-130.09-121.01-665.87z" class="V f"/><path d="M6910.56 3692.74l-1.88 10.39-1.86 10.36h-673.75l-3.75-20.75zm12.77-70.26l-3.77 20.74h-699.25l-3.77-20.74zm-98.45 541.88l-1.39 7.58-2.4 13.17h-502.3l-3.78-20.75zm12.76-70.27l-3.77 20.75h-527.86l-.42-2.32-3.37-18.43z" class="e V"/><path d="M6352.77 3506.08s-307.98-394.33-220.49-738.67c0 0 349.97 78.8 321.98 738.67h-101.48z" class="V W"/><path d="M6554.54 3506.08h-143.35s-200.64-335.38 128.34-955.82c0 0 41.48 136.12 71.55 309.43 39.04 225.02 58.82 512.7-56.54 646.39z" class="V X"/><g class="W V"><path d="M6554.54 3506.08h-98.95c-44.61-280.95 106.72-564.16 155.49-646.39 39.04 225.02 58.82 512.7-56.54 646.39z"/><path d="M6478.43 3497.96l-.47-.01c-4.26-.25-7.5-3.91-7.24-8.16l39.19-661.4c.26-4.26 3.87-7.45 8.15-7.25a7.72 7.72 0 0 1 7.25 8.16l-39.19 661.4c-.25 4.1-3.65 7.26-7.69 7.26z"/></g><path d="M6671.23 3506.08s297.49-140.37 297.49-1183.02c0 0-572.92 772.94-427.45 1183.02h129.96z" class="V X"/><path d="M6600.92 3505.77l-2.35-.36c-4.06-1.31-6.3-5.65-5.01-9.7l283.82-888c1.29-4.06 5.63-6.31 9.68-5.01a7.7 7.7 0 0 1 5 9.69l-283.8 888.01c-1.04 3.26-4.07 5.36-7.34 5.36z" class="V W"/><path d="M6432.64 734.97c0 171.97-139.41 311.38-311.37 311.38-171.98 0-311.39-139.41-311.39-311.38s139.41-311.38 311.39-311.38c171.96 0 311.37 139.41 311.37 311.38z" class="V b"/><path d="M6432.64 694.44c0 171.96-139.41 311.37-311.37 311.37-171.98 0-311.39-139.41-311.39-311.37 0-171.97 139.41-311.38 311.39-311.38 171.96 0 311.37 139.41 311.37 311.38z" class="V f"/><path d="M6121.27 947.58c-139.6 0-253.15-113.57-253.15-253.14 0-139.59 113.55-253.15 253.15-253.15 139.57 0 253.13 113.57 253.13 253.15 0 139.57-113.56 253.14-253.13 253.14z" class="V a"/><path d="M6374.41 694.44c0 6.74-.28 13.41-.78 20-10.25-130.28-119.54-233.17-252.36-233.17-132.86 0-242.12 102.88-252.36 233.17a254.21 254.21 0 0 1-.79-20c0-139.6 113.54-253.14 253.15-253.14 139.56 0 253.14 113.54 253.14 253.14z" fill="#fffbec" class="V"/><path d="M6121.27 720.77c-1.95 0-3.86-.9-5.09-2.56L5992 551.04c-2.08-2.81-1.5-6.78 1.3-8.87 2.8-2.08 6.77-1.5 8.87 1.31l121.18 163.14 137.69-60.45a6.34 6.34 0 0 1 8.36 3.26c1.4 3.2-.06 6.94-3.26 8.35l-142.33 62.46-2.54.53z" class="V Y"/><path d="M1385.77 1871.37h755.55V37.87h-755.55z" class="V b"/><path d="M1385.77 1833.5h755.55V0h-755.55z" class="V c"/><path d="M1442.52 1776.76h642.06V56.74h-642.06z" fill="#eaccb6" class="V"/><path d="M1470.89 1748.4h585.32V85.11h-585.32z" class="V a"/><path d="M1556.62 1644.91h416.55V188.58h-416.55z" class="V d"/><path d="M1884.64 888.8c0 86.24-69.91 156.15-156.15 156.15s-156.14-69.91-156.14-156.15 69.9-156.14 156.14-156.14 156.15 69.9 156.15 156.14z" class="V a"/><path d="M1672.59 916.75s132.44-196.44 300.58-209.92v738.73s-347.72-376.18-300.58-528.81z" class="V W"/><path d="M1556.62 871.71s80.9-22.71 235.8 161.76c145.26 173 180.75 395.43 180.75 395.43v216.02h-416.55V871.71z" class="V X"/><path d="M1357.63 4112.54c0 34.42-303.9 62.3-678.82 62.3-374.89 0-678.81-27.88-678.81-62.3 0-34.41 303.91-62.3 678.81-62.3 374.91 0 678.82 27.9 678.82 62.3z" class="V b"/><path d="M470.5 1753.21s-349.63-69.11-447.2-313.03c-97.58-243.94 259.17-426.88 447.2-295.9 201.16 140.13 0 608.93 0 608.93z" class="V X"/><g class="W V"><path d="M678.4 2394.05c-3.08 0-5.78-2.27-6.25-5.41-33.48-226.56-168.5-552.54-275.85-786.1-116.42-253.28-226.29-455.41-227.39-457.41a6.33 6.33 0 0 1 2.54-8.59 6.32 6.32 0 0 1 8.57 2.53c1.1 2.02 111.18 204.52 227.77 458.19 107.7 234.32 243.17 561.5 276.88 789.54.5 3.45-1.88 6.66-5.34 7.18l-.94.08z"/><path d="M457.38 1729.61c-2.25 0-4.44-1.2-5.58-3.33-152.07-283.25-399.02-488.74-401.49-490.78-2.7-2.21-3.08-6.21-.86-8.91a6.34 6.34 0 0 1 8.91-.85c2.5 2.05 251.31 209.05 404.59 494.56 1.66 3.07.5 6.92-2.58 8.57-.94.51-1.98.75-2.98.75z"/><path d="M464.3 1749.89c-1.8 0-3.58-.76-4.83-2.24-110.9-130.54-224.48-211.7-300.23-256.79-82.11-48.88-138.72-67.1-139.28-67.29a6.32 6.32 0 0 1-4.12-7.94c1.05-3.32 4.61-5.17 7.94-4.11 2.34.74 58.24 18.71 141.51 68.22 76.69 45.6 191.64 127.68 303.83 259.73 2.26 2.66 1.93 6.66-.73 8.91a6.32 6.32 0 0 1-4.09 1.51zm-30.78-74.25a6.32 6.32 0 0 1-5.98-4.29c-85.25-250.19-53.89-554.25-53.56-557.29a6.32 6.32 0 0 1 6.97-5.61c3.48.37 5.99 3.49 5.62 6.96-.33 3.02-31.38 304.37 52.96 551.86a6.34 6.34 0 0 1-3.95 8.03l-2.04.34z"/><path d="M454.96 1725.16c-3.04 0-5.72-2.19-6.23-5.3-26.09-158.37-6.04-287.55 15.37-368.04 23.25-87.41 52.3-136.62 53.53-138.67 1.78-3.01 5.66-3.98 8.67-2.19 2.99 1.79 3.97 5.66 2.19 8.67-.29.49-29.53 50.1-52.3 135.96-21 79.19-40.66 206.32-14.98 362.22.56 3.45-1.76 6.7-5.21 7.27l-1.04.08z"/></g><path d="M839.33 1816.95s353.11-48.31 464.94-286.03c111.84-237.73-233.45-441.47-428.9-321.84-209.09 127.98-36.04 607.87-36.04 607.87z" class="V X"/><g class="W V"><path d="M705.39 2373.32h-.07a6.32 6.32 0 0 1-6.25-6.41c1.39-116.67 26.83-249.59 75.63-395.05 38.98-116.17 92.87-240.6 160.16-369.82 114.54-219.94 229.88-379.75 231.03-381.34 2.05-2.83 6.01-3.45 8.84-1.41 2.83 2.05 3.46 6.01 1.41 8.83-1.15 1.59-116.03 160.77-230.14 379.93-105.15 201.95-231.17 497.57-234.29 759.01-.04 3.47-2.87 6.25-6.32 6.25z"/><path d="M854.2 1794.17c-1.13 0-2.28-.3-3.31-.94-2.97-1.82-3.91-5.72-2.07-8.69 169.91-275.95 430.55-467.85 433.16-469.76a6.32 6.32 0 0 1 8.83 1.39c2.06 2.82 1.46 6.78-1.38 8.83-2.58 1.9-261.27 192.41-429.83 466.16-1.21 1.93-3.28 3.01-5.4 3.01z"/><path d="M846.11 1814.01c-1.57 0-3.15-.58-4.38-1.76-2.52-2.42-2.61-6.43-.2-8.94 119.8-125.18 239.42-200.3 318.67-241.29 86.05-44.5 142.93-59.12 145.29-59.73 3.38-.86 6.83 1.21 7.69 4.59a6.33 6.33 0 0 1-4.58 7.69c-.58.14-58.16 14.99-143.01 58.9-78.29 40.54-196.47 114.83-314.91 238.58a6.29 6.29 0 0 1-4.56 1.96zm35.09-72.31l-2.39-.46c-3.23-1.33-4.78-5.02-3.46-8.25 98.83-242.07 85.67-544.71 85.53-547.75a6.34 6.34 0 0 1 6.01-6.62 6.35 6.35 0 0 1 6.62 6.02c.15 3.05 13.46 308.43-86.45 553.14-1 2.45-3.36 3.93-5.86 3.93z"/><path d="M856.87 1789.87l-1.4-.15a6.35 6.35 0 0 1-4.78-7.57c34.86-154.11 22.78-282.18 6.5-362.47-17.66-87.05-43.91-138.3-44.17-138.81-1.62-3.1-.4-6.91 2.69-8.53 3.1-1.6 6.92-.39 8.53 2.7 1.1 2.12 27.19 52.97 45.23 141.6 16.61 81.61 28.97 211.75-6.45 368.31a6.33 6.33 0 0 1-6.17 4.93z"/></g><path d="M703.37 1356.94s-299.19-193.67-299.5-456.39c-.31-262.71 398.81-300.56 524.98-109.27 134.97 204.67-225.48 565.65-225.48 565.65z" class="V X"/><g class="W V"><path d="M661.55 2029.66l-1.46-.17c-3.41-.8-5.5-4.21-4.7-7.61 52.78-222.86 48.07-575.66 34.84-832.37-14.36-278.39-41.57-506.82-41.84-509.1-.42-3.47 2.06-6.62 5.54-7.03 3.43-.4 6.61 2.06 7.02 5.53.27 2.28 27.55 231.15 41.92 509.96 13.28 257.54 17.97 611.62-35.16 835.93a6.33 6.33 0 0 1-6.15 4.87z"/><path d="M702.24 1330.6c-3.17 0-5.9-2.38-6.27-5.61-36.38-319.42-189.68-601.75-191.23-604.55-1.67-3.07-.55-6.92 2.51-8.6s6.91-.57 8.58 2.51c1.56 2.83 156.04 287.24 192.7 609.21.4 3.47-2.09 6.61-5.57 7l-.73.04z"/><path d="M701.17 1352c-2.65 0-5.11-1.67-6-4.31-54.67-162.34-130.13-279.78-183.8-349.72-58.17-75.81-104.01-113.69-104.46-114.06-2.7-2.22-3.1-6.2-.88-8.9a6.32 6.32 0 0 1 8.89-.89c1.9 1.55 47.18 38.95 106.19 115.77 54.34 70.76 130.75 189.57 186.05 353.77 1.12 3.31-.66 6.9-3.97 8.01l-2.02.34zm-1.09-80.37h-.32a6.33 6.33 0 0 1-6-6.64c13.46-263.96 155.18-534.79 156.61-537.51a6.34 6.34 0 0 1 8.55-2.63c3.08 1.63 4.26 5.46 2.63 8.54-1.41 2.68-141.84 271.12-155.15 532.23-.18 3.39-2.97 6-6.32 6z"/><path d="M701.67 1325.58l-1.36-.15c-3.42-.75-5.58-4.12-4.82-7.53 34.41-156.77 101.07-270.22 150.94-337.81 54.15-73.37 99.55-109.12 101.46-110.6 2.74-2.15 6.72-1.66 8.87 1.1 2.15 2.75 1.66 6.73-1.09 8.88-.47.36-46.21 36.43-99.36 108.56-49.03 66.54-114.58 178.24-148.46 332.59a6.34 6.34 0 0 1-6.18 4.97z"/></g><path d="M1013.2 1964.62l-79.87 681.22c-181.04 22.93-349.99 21.5-509.04 0l-79.86-681.22h668.78z" class="V f"/><path d="M1000 2077.1l-2.18 18.67H359.81l-2.19-18.67zm-8.46 72.14l-2.17 18.67h-621.1l-2.19-18.67zm-8.61 73.57l-2.19 18.62H376.88l-2.17-18.62z" class="e V"/><g class="c V"><path d="M976.44 2418.29H381.18l-6.47-48.47h608.22zm70.21 825.11H315.57l-7.96-48.49h747z"/><path d="M420.91 2418.29L146.17 4116.56h37.71l282.37-1698.27zm516.37 0l274.74 1698.27h-37.72L891.93 2418.29z"/></g><path d="M4886.87 4011.21c0 38.04 265.54 68.89 593.09 68.89 327.57 0 593.1-30.85 593.1-68.89 0-38.05-265.53-68.89-593.1-68.89-327.56 0-593.09 30.84-593.09 68.89z" class="V b"/><path d="M5929.55 3829.74l84.9-1266.46h-977.3l84.9 1266.46z" class="V i"/><path d="M6006.31 2682.42l-957.24 55.15-6.88-100.35h967.2z" class="V c"/><path d="M6032.08 2637.22H5019.53c-22.64 0-41.01-18.36-41.01-40.99v-28.96c0-22.64 18.37-41 41.01-41h1012.55c22.64 0 40.99 18.36 40.99 41v28.96c0 22.63-18.34 40.99-40.99 40.99z" fill="#8c605f" class="V"/><path d="M5904.98 2840.97l-24.02 423.39h-710.32l-24.01-423.39z" class="V c"/><path d="M5561.25 3070.14c0 19.58-15.87 35.46-35.45 35.46s-35.46-15.88-35.46-35.46 15.88-35.46 35.46-35.46 35.45 15.88 35.45 35.46z" class="V i"/><path d="M5871.55 3363.52l-21.92 386.06h-647.66l-21.91-386.06z" class="V c"/><path d="M5561.25 3570.58c0 19.58-15.87 35.45-35.45 35.45s-35.46-15.87-35.46-35.45c0-19.57 15.88-35.45 35.46-35.45s35.45 15.88 35.45 35.45z" class="V i"/><path d="M5421.66 3829.75l-5.75.03c-98.01 1.29-182.08 68.83-203.92 162.23l-6.07 25.91H5130l-7.3-188.17h298.96zm208.52 0l5.77.03c98.01 1.29 182.08 68.83 203.92 162.23l6.06 25.91h75.59l7.63-188.17h-298.96z" class="c V"/><path d="M5641.44 2264.53c-18.43 0-33.42 15-33.42 33.43v103.34c0 18.42 14.99 33.42 33.42 33.42h87.51c18.43 0 33.42-15 33.42-33.42v-103.34c0-18.43-14.99-33.43-33.42-33.43h-87.51zm-68.7 136.77v-103.34c0-37.88 30.83-68.69 68.7-68.69h87.51c37.87 0 68.68 30.81 68.68 68.69v103.34c0 37.87-30.81 68.69-68.68 68.69h-87.51c-37.87 0-68.7-30.81-68.7-68.69z" class="V e"/><path d="M5651.72 2528.5c85.52 4.87 171.05 4.87 256.56 0v-351.21c-85.51-5.95-171.04-5.95-256.56 0v351.21z" class="V f"/><path d="M5771.46 2141.03c24.47-53.34-78.69-110.44-74.44-193.4 4.25-82.95 57.59-99.1 57.59-99.1-44.49 58.3 3.02 116.26 44.23 190.56 41.23 74.29-27.39 101.94-27.39 101.94z" fill="#f3dfd0" class="V"/></svg>