<svg xmlns="http://www.w3.org/2000/svg" width="252" height="160"  stroke="#000" stroke-linecap="round" stroke-linejoin="round" fill="#fff" fill-rule="evenodd"><style><![CDATA[.B{fill:#2e504c}.C{fill:#317468}.D{fill:#392c2e}.E{fill:#f59284}.F{fill:#fefefe}.G{fill:#ddb59a}.H{fill:#48353d}.I{fill:#f9a253}.J{fill:#ca3a3f}.K{fill:#f05252}.L{fill:#e77245}.M{fill:#f2726c}.N{fill:#724f52}]]></style><g stroke="none" fill-rule="nonzero"><path d="M136 53c-9-1-18-5-26-10-12-9-36-23-59-16-33 10-33 38-24 54 8 16 67 61 144 54 69-7 83-81 46-94-17-7-28-1-41 5-10 5-22 10-40 7zm-79 57s-5-2-7 2 5 8 9 7c4-2 3-7-2-9zm63-74s-5-2-6 2c-2 4 6 8 9 6 4-2 3-7-3-8z" fill="#fffbec"/><path d="M45 154c0 3 32 6 72 6 39 0 71-3 71-6s-32-5-71-5c-40 0-72 2-72 5z" class="G"/><g class="B"><path d="M172 156c1 0 1-1 1-1l-16-40c0-1-1-1-1-1-1 0-1 1-1 1l16 40c0 1 1 1 1 1zm-42 0l1-1 15-40c1 0 0-1 0-1s-1 0-1 1l-16 40s0 1 1 1z"/><path d="M137 137l24-8 1-1-1-1-24 8c-1 1-1 1-1 2h1z"/><path d="M164 137h1v-1l-25-9-1 1 1 1 24 8zm-22 19c1 0 1-1 1-1l-16-40c0-1-1-1-1-1-1 0-1 1-1 1l16 40c0 1 1 1 1 1zm-42 0l1-1 15-40c1 0 0-1 0-1s-1 0-1 1l-16 40s0 1 1 1z"/><path d="M108 137l24-8 1-1-1-1-24 8c-1 1-1 1-1 2h1z"/><path d="M135 137h1v-1s-1 0-1-1l-24-8s-1 0-1 1l1 1 24 8z"/></g><path d="M102 115s34 19 55 4l2-2c1 0 1-1 1-1 18-18-5-46-5-46l-2 1c-33 15-51 44-51 44z" class="C"/><path d="M159 82c3 5 6 13 5 22-1 7-4 12-7 15 1 0 2-1 2-2 3-4 5-8 5-13 1-4 1-8 0-12s-2-7-4-11c-3-5-6-10-7-10h0s3 5 6 11zm-10 5s6 18 0 26-20 12-41 0l41-26z" class="B"/><path d="M138 30c0 4 2 10 4 15 2 7 6 13 10 15 7 3 10-2 10-2-10 2-10-9-10-17 1-8-1-14-7-15-4 0-6 2-7 3v1z" class="D"/><path d="M138 30c0 4 1 9 3 15l6 1s3-7 0-12c-2-4-7-5-9-5v1zm-10 29h0v1c-1 1-1 2-1 2 0 1 0 2-1 3 0 3-1 5-2 7 0 1 0 2-1 3 0 1-1 2-1 3-1 0-1 1-1 1h0l-1 2v1l-1 1c0-1 0-1 0 0h-1s-1 0-1 1c-1 0-2 0-3 1-1 0-2 0-3 1h-4c-2 1-5 1-7 2h-5l-1 1h-1l1 8h2l1-1h4c3 0 5 0 8-1 2 0 5-1 7-1 2-1 3-1 4-1 1-1 2-1 2-1 1-1 2-1 3-2 0 0 1 0 1-1 1 0 1-1 1-1h0l1-1v-1c1 0 1-1 1-2h1v-1l1-1v-1c1-1 1-1 1-2 1-1 1-2 2-3 1-3 2-5 2-8 1-1 1-2 1-4 1 0 1-1 1-2v-2l-10-1z" class="I"/><g class="L"><path d="M122 86c-1-2-2-3-3-3v1s1 1 3 2z"/><path d="M121 84s-1-1-2-1v1h2zM98 98h1l-1-10h-1l1 10z"/><path d="M94 95h5v-1l-5 1zm2-3c-1 1 0 1 0 1h1s0-1-1-1z"/></g><path d="M90 138l-2 8-6 2c-3 1-10 1-11 3 0 1 5 2 8 3 2 0 9 1 12 1 4 0 3-6 4-7 0-2 2-9 2-9l-7-1z" class="E"/><path d="M85 145s-1 5 1 10c0 0-14-1-17-4-1-1 0-2 2-3 1-1 2-1 2-1h1c1 0 1-1 2-1h3c1 0 1-1 2-1h4z" class="C"/><path d="M72 148c-1 1 0 3 0 3h-1v-3h1zm2-1h0v4s-1-2 0-4zm3-1h0c-1 3 0 6 0 6-1 0-2-3-1-6h1zm2 0c-1 3 1 6 1 6h-1s-1-3 0-6h0zm3-1c-1 4 0 7 0 7v1-1s-2-3-1-7h1zm2 0c-1 4 1 7 1 8h-1s-1-4 0-8h0z" class="B"/><path d="M86 153s5 1 8 0c0 0 0 1-1 2H77c-4-1-7-2-7-4l16 2z" class="C"/><path d="M86 153h-1c-7 0-15-1-15-1v-1s8 2 15 2h1z" class="B"/><path d="M67 134l-3 4s-4 1-7 0c-3 0-9-4-11-3-1 1 3 5 5 7 2 1 7 6 10 8s6-3 7-5c2-2 4-6 4-6l-5-5z" class="E"/><path d="M61 139s-4 4-4 9c0 0-11-8-12-12 0-2 1-2 3-2 1 0 2 0 3 1h2l1 1h1l1 1h2v1h2v1h1z" class="C"/><path d="M48 134c-1 1-1 3-1 3h-1s0-2 2-3zm3 1h0c-2 1-2 4-2 4h-1v-1s1-2 2-3h1zm3 1h-1c-2 1-2 4-2 4h-1s1-3 3-5l1 1zm2 1c-3 2-3 5-3 5h-1s1-4 3-6l1 1zm2 1c-3 2-3 6-3 6h-1c0-1 1-4 4-7v1zm2 1c-3 2-3 6-3 6h-1v1-1s1-4 4-7v1z" class="B"/><path d="M58 145s3 4 7 4c0 0-1 2-3 2 0 0-9-6-12-9-4-3-6-6-5-7l13 10z" class="C"/><path d="M57 145c-7-4-12-9-12-10 1 0 6 6 12 10h0z" class="B"/><path d="M91 96c3-2 37-4 47 1 1 3-16 10-21 14-14 0-23 3-23 3s-7 11-11 14c-4 4-12 15-12 15l-7-6s21-37 27-41z" class="J"/><g fill="#9b383c"><path d="M75 139v-1l-8-5v1l7 5h1z"/><path d="M72 138l1-1s0-1 6-7c7-8 14-18 14-19h0s-7 11-14 18l-7 8v1z"/></g><path d="M150 97s7 26-24 22c-14-2-20-5-20-5l-4 17c-2 5-6 14-6 14l-8-2s4-38 11-41c8-2 20-3 37-2l14-3z" class="K"/><g class="J"><path d="M95 140h1c2-6 4-13 5-19 1-5 3-9 3-9 1-1 3 0 5 1 6 2 13 5 23 4 5 0 9-1 11-5 5-5 5-13 5-13h-1s1 8-4 13c-3 3-7 5-11 5-10 0-17-3-22-5-3-1-5-2-6-1s-2 4-3 10c-2 6-4 13-6 19h0z"/><path d="M88 139h0l9 1h1l-10-2v1z"/></g><g class="D"><path d="M128 102l-33-2v-4h1l32 1v5z"/><path d="M92 100c-1 0-2 0-3-2l-5-23c0-2 1-3 2-3l15 1c1 0 2 0 2 1l7 27-18-1z"/></g><path d="M93 86c0 1 2 2 3 3 2 0 2-1 2-3s-2-3-3-3-2 1-2 3z" class="I"/><path d="M96 86v-1 1zm-2 0h1c0-1 0-1-1-1v1zm2 2c1 0 1-2 1-2h-1v1c-1 0-2-1-2-1l2 2zm7-14l6 26h2l-7-26c0-1-1-2-2-2h-1c1 0 1 1 2 2z" class="D"/><path d="M109 99l-6-25 6 25z" fill="#61545f"/><path d="M122 78h0v1l3 3v2l-2 10c8 11 26 4 27 2l2-11c0-3 1-7 3-11v-1c0-1 1-2 1-3 2-6 2-10-1-12-1-1-4-2-6-2h-1c-2-1-3-1-3-1h-12c-1 1-1 1-2 1-4 1-5 4-5 8-1 1-1 3-1 4l-1 1c-1 4-2 7-2 9z" class="I"/><path d="M145 55s5 1 5 4c0 2-10 2-10 2s5-3 5-6zm-9 0s-5 1-5 4c0 2 7 2 7 2s-2-3-2-6z" class="F"/><path d="M136 55v3c0 3 3 5 5 3 3-1 5-3 5-6h-10z" class="E"/><g class="L"><path d="M125 83h7c5-1 9 1 9 1s-4-3-9-2c-3 1-5 1-7 0v1zm9-13c3 0 9-4 9-5h0s-6 5-9 5-4-4-4-4v1s0 3 4 3z"/><path d="M124 90c1-2 2-6 2-6v-1s-3-2-3-5h-1c1 3 3 5 3 6 0 0-1 4-1 6h0z"/></g><path d="M128 38s-1 4 1 6l1-6h-2zm3-5s6-6 13-1 6 17 0 18c0 0-11-9-13-17z" class="D"/><path d="M131 45s-1-2-2 0c0 2 1 5 3 4l-1-4z" class="M"/><path d="M136 52l1 4s3 5 9-1c-1-2-2-5-2-7l-1 1h-1c-1 1-4 3-6 3z" class="E"/><path d="M136 52v2c2-1 5-2 7-5h-1c-1 1-4 3-6 3z" class="D"/><path d="M132 52c4 4 12-3 12-3h0v-1c0-3 0-6-1-8 0-3-2-5-5-6-3 0-5 1-7 2s-2 4-2 8c1 5 2 7 3 8z" class="E"/><path d="M135 39s-1 0-1 1c1 1 2 0 4 1 0 0 0-2-3-2zm-4 1h1c0 1-2 1-3 2 0 0-1-1 2-2z" class="D"/><path d="M136 44s1 1 2 0c1 0 1 0 1-1h-1c-1 0-2 1-2 1z" class="M"/><path d="M129 45h0z" fill="#f4867d"/><path d="M129 46v-1h1v1h-1z" class="M"/><path d="M129 46v-1h2c0 1-1 1-2 1z" fill="#f37870"/><path d="M142 47l2 2v-1s-1 0-2-1z" class="D"/><path d="M142 43s2-3 3-1c2 1 0 6-2 5l-1-4z" class="E"/><path d="M145 46s-2 3-1 4c2 0 1-4 1-4z" class="F"/><g class="D"><path d="M143 47c0-3 2-4 2-4s-2 1-2 4h0z"/><path d="M145 45s-1-1-2-1v1h2zm-10-2s0 1 1 1v-1c0-1 0-1-1-1v1zm-5 1h1v-1h-1v1zm3 4c2 0 3-1 3-1v-1h-1s-2 2-3 1h-1v1h2zm7-10s0 6 2 6 2-4 0-8l-2 2z"/><path d="M141 39s-9 1-10-2c0 0-1 3-3 3 0 0-1-3 3-7 0 0 9-3 11 1s-1 5-1 5z"/></g><path d="M138 41h0l-4 1c-1 0-1 0-1 1v1h1c0 1 1 1 1 1l3-1h1v-2l-1-1zm-3 4c-1 0-2-1-2-1v-1c0-1 0-1 1-1l4-1c1 0 1 0 1 1v2l-1 1h-3zm-4-3h0l-3 1h-1l1 1v1l1 1 1-1c1 0 2 0 1-1v-2zm-2 4h-1l-1-1v-2h1l3-1s1 0 1 1v1c0 1-1 2-2 2h-1z" class="F"/><path d="M133 45l1-1h-2l1-2h-1v3h1z" class="D"/><path d="M132 43v-1h2c-1 0-1 0-2 1zm8-1h-1v-1h5v1c-2-1-4 0-4 0h0z" class="F"/><path d="M118 95s-6-3-9-2l1 5 3 1c1 1 2 3 5 3v-7z" class="E"/><path d="M144 88h0zm14-18v-8h-1v-1l-10 3v1s1 1 1 2v9c-1 1-1 2-1 2v3c-1 1-1 1-1 2 0 0 0 1-1 1v2l-1 1v1h-1s0 1-1 1-2 1-3 1c-2 1-4 1-7 2-2 0-4 1-7 1l-3 1-2 1h-2l1 8h2l2-1h4c2 0 5-1 7-1 3-1 5-1 8-2 1-1 3-1 4-2h0c1 0 2 0 2-1h1c1-1 1-1 2-1v-1c1 0 1-1 1-1h0l1-1c0-1 0-1 1-2h0s0-1 1-2v-2c1-2 2-5 3-8v-8z" class="I"/><g class="L"><path d="M154 90c-1 1-1 1-1 2-1 0-1 1-1 1h0v1h-1l-2 2h-1c0 1-1 1-1 1 0-7 4-7 7-7zm-7 1v-1c-1-1-3-3-4-3v1l4 2v1z"/><path d="M146 88s-1-1-3-1v1h3z"/><path d="M124 94c11-3 19-6 19-6 1-1 7-16 6-22h-1c1 6-5 20-5 21-1 1-8 4-19 7z"/><path d="M148 69l-1-2c-1 0-1 0 0 0l1 2zm-25 34h0c1 0 1 0 1-1l-1-7c0-1-1-1-1-1v1l1 7v1z"/><path d="M119 101h0l5-1v-1l-5 1v1zm1-4c0 1 1 1 1 1h1s0-1-1-1h-1z"/></g><path d="M224 155c0 1 6 2 13 2 6 0 12-1 12-2s-6-2-12-2c-7 0-13 1-13 2z" class="G"/><path d="M250 127l-1 5v2l-1 1-3 21h-17l-1-5-4-24z" class="K"/><path d="M249 134h0-25zm0-3v1h-25v-1zm-3 19v1h-18v-1zm0-2v1h-19v-1z" class="J"/><path d="M228 126s-11-14-7-26c0 0 12 3 11 26h-4z" class="B"/><path d="M236 126h-5s-7-12 5-34c0 0 1 5 2 11 2 8 2 18-2 23z" class="C"/><g class="B"><path d="M236 127h-4c-1-10 4-20 6-23 1 8 2 18-2 23z"/><path d="M233 126h0l1-24h1l-1 24h-1z"/></g><path d="M241 126s10-5 10-42c0 0-20 28-15 42h5z" class="C"/><path d="M238 126h0l10-32h1l-10 32h-1z" class="B"/><path d="M231 27c0 6-5 11-11 11s-11-5-11-11 5-11 11-11 11 5 11 11z" class="G"/><path d="M231 26c0 6-5 11-11 11s-11-5-11-11 5-11 11-11 11 5 11 11z" class="K"/><path d="M221 35a8.96 8.96 0 0 1-9-9 8.96 8.96 0 1 1 18 0 8.96 8.96 0 0 1-9 9z" class="F"/><path d="M230 26v1a8.96 8.96 0 1 0-18 0v-1a8.96 8.96 0 1 1 18 0z" fill="#fffbec"/><path d="M221 26h-1l-4-6 5 6 5-2-5 2z" class="D"/><path d="M51 68h27V2H51z" class="G"/><path d="M51 67h27V1H51z" class="H"/><path d="M53 65h23V3H53z" fill="#eaccb6"/><path d="M54 64h21V4H54z" class="F"/><path d="M57 60h15V8H57z" class="I"/><path d="M68 33c0 3-2 5-5 5s-6-2-6-5 3-6 6-6 5 3 5 6z" class="F"/><path d="M61 34s5-8 11-8v27S59 39 61 34z" class="B"/><path d="M57 32s3-1 8 6c6 6 7 14 7 14v8H57V32z" class="C"/><path d="M50 148c0 1-11 2-25 2-13 0-24-1-24-2s11-2 24-2c14 0 25 1 25 2z" class="G"/><path d="M18 63S5 61 2 52c-4-9 9-15 16-10s0 21 0 21z" class="C"/><g class="B"><path d="M25 87c-1-8-6-20-10-28-4-9-8-17-8-17s4 7 9 17c3 8 8 20 10 28h-1z"/><path d="M18 63h-1C12 53 3 45 3 45s9 8 15 18z"/><path d="M18 64c-4-5-8-8-11-9-3-2-5-3-5-3s2 1 5 2c3 2 7 5 11 10zm-1-3c-3-9-2-20-2-20s-1 11 2 20h0z"/><path d="M18 62h-1c0-5 0-10 1-13s2-5 2-5-1 2-2 5c0 3-1 8 0 13h0z"/></g><path d="M31 66s13-2 17-10c4-9-8-16-15-12-8 5-2 22-2 22z" class="C"/><g class="B"><path d="M26 86h0c0-4 1-9 3-14 1-4 3-9 5-13l9-14s-4 6-8 14c-4 7-8 18-9 27z"/><path d="M31 65c6-10 15-17 16-17 0 0-10 7-16 17z"/><path d="M31 66v-1c4-4 9-7 11-8 4-2 6-2 6-2s-2 1-5 2c-3 2-7 4-12 9zm1-3h0c4-9 3-20 3-20h1s0 11-3 20h-1z"/><path d="M32 66h0c-1 0-1-1-1-1 2-5 1-10 1-13-1-3-2-5-2-5s1 2 2 5 1 8 0 13v1z"/></g><path d="M26 50s-11-7-11-17c0-9 14-11 19-4 5 8-8 21-8 21z" class="C"/><g class="B"><path d="M24 74h0v-1c2-8 2-20 2-29l-2-19 2 18c0 10 1 22-1 30 0 1 0 1-1 1z"/><path d="M26 49c-1-11-7-22-7-22s6 10 7 22h0z"/><path d="M27 50l-1-1c-2-5-4-10-6-12-2-3-4-4-4-4v-1s2 2 4 5c2 2 5 6 7 12v1zm0-3h0c-1 0-1 0-1-1 1-9 6-19 6-19s-5 10-5 19v1z"/><path d="M26 48h0c1-5 4-10 5-12 2-3 4-4 4-4s-1 2-3 4c-2 3-4 7-6 12z"/></g><path d="M37 71l-3 24c-6 1-12 1-18 0l-3-24h24z" class="K"/><path d="M37 76v1H14v-1zm0 3h0-23zm-1 2v1H15v-1z" class="J"/><g class="H"><path d="M36 88H15l-1-2h22zm3 29H12v-1h27z"/><path d="M16 88L6 149h1l10-61zm18 0l10 61h-1L33 88z"/></g><path d="M176 144c0 2 10 3 21 3 12 0 22-1 22-3 0-1-10-2-22-2-11 0-21 1-21 2z" class="G"/><path d="M214 138l3-45h-35l3 45z" class="N"/><path d="M217 98l-35 2v-4h35z" class="H"/><path d="M218 96h-37l-1-1v-2l1-1h37c1 0 1 1 1 1v2s0 1-1 1z" fill="#8c605f"/><path d="M213 103l-1 15h-25l-1-15z" class="H"/><path d="M201 111c0 1-1 2-2 2 0 0-1-1-1-2l1-1c1 0 2 1 2 1z" class="N"/><path d="M212 122l-1 14h-23l-1-14z" class="H"/><path d="M201 129c0 1-1 2-2 2 0 0-1-1-1-2l1-1c1 0 2 1 2 1z" class="N"/><path d="M196 138h0c-4 0-7 2-8 6v1h-3v-7h11zm7 0h0c4 0 7 2 8 6v1h3v-7h-11z" class="H"/><path d="M203 82l-1 1v4c0 1 1 1 1 1h4s1 0 1-1v-4l-1-1h-4zm-2 5v-4c0-1 1-2 2-2h4c1 0 2 1 2 2v4c0 2-1 3-2 3h-4c-1 0-2-1-2-3z" class="J"/><path d="M204 92h9V79h-9v13z" class="K"/><path d="M208 77c1-1-3-3-3-6s2-4 2-4c-2 2 0 4 2 7 1 3-1 3-1 3z" fill="#f3dfd0"/></g></svg>