<?xml version="1.0" encoding="UTF-8"?>
<!DOCTYPE svg PUBLIC "-//W3C//DTD SVG 1.1//EN" "http://www.w3.org/Graphics/SVG/1.1/DTD/svg11.dtd">
<!-- Creator: CorelDRAW 2020 (64-Bit Evaluation Version) -->
<svg xmlns="http://www.w3.org/2000/svg" xml:space="preserve" width="223.285mm" height="143.164mm" version="1.1" style="shape-rendering:geometricPrecision; text-rendering:geometricPrecision; image-rendering:optimizeQuality; fill-rule:evenodd; clip-rule:evenodd"
viewBox="0 0 6490.04 4161.22"
 xmlns:xlink="http://www.w3.org/1999/xlink"
 xmlns:xodm="http://www.corel.com/coreldraw/odm/2003">
 <defs>
  <style type="text/css">
   <![CDATA[
    .fil8 {fill:#FEFEFE;fill-rule:nonzero}
    .fil0 {fill:#FCD1C1;fill-rule:nonzero}
    .fil1 {fill:#FABFAD;fill-rule:nonzero}
    .fil18 {fill:#FCB755;fill-rule:nonzero}
    .fil21 {fill:#FAAB49;fill-rule:nonzero}
    .fil11 {fill:#FAAA3D;fill-rule:nonzero}
    .fil22 {fill:#F58448;fill-rule:nonzero}
    .fil2 {fill:#F4816B;fill-rule:nonzero}
    .fil10 {fill:#F47E3F;fill-rule:nonzero}
    .fil7 {fill:#F16459;fill-rule:nonzero}
    .fil20 {fill:#F05B55;fill-rule:nonzero}
    .fil4 {fill:#EF4E4B;fill-rule:nonzero}
    .fil19 {fill:#EFBC5A;fill-rule:nonzero}
    .fil23 {fill:#EACCB6;fill-rule:nonzero}
    .fil3 {fill:#C44041;fill-rule:nonzero}
    .fil12 {fill:#6F3B44;fill-rule:nonzero}
    .fil13 {fill:#4C2D2E;fill-rule:nonzero}
    .fil9 {fill:#735563;fill-rule:nonzero}
    .fil6 {fill:#453541;fill-rule:nonzero}
    .fil5 {fill:#322B2E;fill-rule:nonzero}
    .fil16 {fill:#15A163;fill-rule:nonzero}
    .fil14 {fill:#326AB2;fill-rule:nonzero}
    .fil17 {fill:#327A50;fill-rule:nonzero}
    .fil15 {fill:#3B59A5;fill-rule:nonzero}
   ]]>
  </style>
 </defs>
 <g id="Layer_x0020_1">
  <metadata id="CorelCorpID_0Corel-Layer"/>
  <path class="fil0" d="M3336.79 1059.43c-267.42,-37.9 -520.88,-142.44 -739.59,-300.93 -326.68,-236.74 -1010.3,-639.57 -1662.45,-438.92 -899.5,276.77 -903.52,1077.43 -669.22,1512.35 234.3,434.93 1895.79,1708.55 4049.79,1505.9 1927.51,-181.34 2303.14,-2257.12 1275.12,-2632.75 -891.62,-325.78 -1195.81,504.3 -2253.65,354.35z"/>
  <path class="fil0" d="M3557.29 837.19c20.69,63.66 -14.15,132.05 -77.82,152.73 -63.67,20.68 -132.05,-14.16 -152.73,-77.83 -20.69,-63.67 14.16,-132.05 77.83,-152.73 63.67,-20.68 132.05,14.16 152.72,77.83z"/>
  <path class="fil0" d="M4212.52 3519.73c0,40.35 -32.72,73.05 -73.06,73.05 -40.36,0 -73.06,-32.7 -73.06,-73.05 0,-40.35 32.7,-73.06 73.06,-73.06 40.34,0 73.06,32.71 73.06,73.06z"/>
  <path class="fil1" d="M3758.51 922.44c12.47,38.37 -8.54,79.59 -46.91,92.06 -38.37,12.46 -79.58,-8.54 -92.05,-46.91 -12.47,-38.37 8.54,-79.59 46.91,-92.06 38.37,-12.47 79.59,8.54 92.05,46.91z"/>
  <path class="fil1" d="M379.01 2178.36c0,40.35 -32.71,73.06 -73.06,73.06 -40.35,0 -73.05,-32.71 -73.05,-73.06 0,-40.35 32.71,-73.05 73.05,-73.05 40.35,0 73.06,32.7 73.06,73.05z"/>
  <path class="fil0" d="M6376.35 1587.34c0,40.35 -32.7,73.06 -73.06,73.06 -40.34,0 -73.05,-32.71 -73.05,-73.06 0,-40.34 32.71,-73.05 73.05,-73.05 40.36,0 73.06,32.71 73.06,73.05z"/>
  <path class="fil1" d="M5444.33 4085.31c0,41.92 -946.47,75.91 -2114,75.91 -1167.53,0 -2114,-33.99 -2114,-75.91 0,-41.92 946.47,-75.91 2114,-75.91 1167.53,0 2114,33.99 2114,75.91z"/>
  <path class="fil2" d="M2862.23 1138.43l3.24 16.44 3.65 17.89 7.78 36.2c5.36,24.21 11.15,48.42 17.07,72.53 5.95,24.12 12.41,48.05 18.99,71.83 6.6,23.79 13.55,47.37 20.93,70.62 7.43,23.24 15.05,46.24 23.15,68.8 8.11,22.54 16.68,44.66 25.76,66.1 9.13,21.42 18.54,42.27 28.57,62.06 10.05,19.76 20.53,38.54 31.42,55.65 10.91,17.06 22.22,32.44 33.23,45.04 10.97,12.64 21.77,22.13 30.3,28.16 4.28,3.02 8,5.15 11.09,6.66 3.12,1.5 5.61,2.42 7.98,3.06l0.89 0.26 4.58 0.77 9.3 1.58 18.59 3.15 37.47 6.08 37.71 5.88 37.92 5.78c25.33,3.8 50.76,7.82 76.27,11.39l38.28 5.76c12.79,1.8 25.58,3.76 38.36,5.73l19.17 2.87 19.15 3c6.39,1.03 12.73,1.91 19.1,3 6.24,1.03 12.85,2.02 18.55,3.1l5.31 0.99c59.95,11.25 99.45,68.97 88.19,128.93 -9.28,49.49 -50.33,85 -98.07,89.59l-21 2c-6.82,0.66 -13.67,1.14 -20.47,1.64 -13.61,1.1 -27.18,1.9 -40.76,2.6l-20.37 1.09 -20.35 0.74c-13.58,0.43 -27.15,0.91 -40.74,1.18 -13.6,0.15 -27.18,0.34 -40.8,0.35 -13.6,0.1 -27.23,0.1 -40.87,-0.13 -27.26,-0.32 -54.63,-1.21 -82.06,-2.45 -13.73,-0.73 -27.49,-1.4 -41.25,-2.32l-20.71 -1.51 -10.36 -0.76 -5.25 -0.39 -8.9 -1.16c-23.72,-3.37 -46.81,-9.52 -68.28,-17.63 -21.46,-8.12 -41.31,-18.12 -59.37,-29.15 -18.06,-11.01 -34.44,-23.03 -49.29,-35.5 -14.92,-12.46 -28.36,-25.36 -40.81,-38.42 -12.45,-13.07 -23.78,-26.31 -34.39,-39.63 -10.54,-13.34 -20.3,-26.74 -29.49,-40.16 -18.31,-26.85 -34.36,-53.78 -48.82,-80.76 -14.46,-26.96 -27.57,-53.88 -39.45,-80.88 -11.9,-26.98 -22.8,-53.95 -32.98,-80.9 -10.17,-26.97 -19.58,-53.91 -28.22,-80.95 -8.68,-27.01 -16.77,-54.04 -24.36,-81.08 -7.6,-27.06 -14.45,-54.2 -21.01,-81.35 -6.58,-27.17 -12.51,-54.43 -18.04,-81.86 -2.78,-13.72 -5.44,-27.48 -7.89,-41.38l-3.65 -21.01 -1.76 -10.74 -1.81 -11.82c-12.27,-80.03 42.66,-154.88 122.69,-167.15 77.87,-11.93 150.8,39.72 166.01,116.24l0.86 4.36z"/>
  <path class="fil3" d="M2547.83 1224.85c19.06,66.18 98.49,292.82 168.23,406.32l306.39 -144.8c0,0 -104.53,-242.2 -159.25,-394.53 -17.81,-49.59 -56.58,-89.34 -106.45,-106.4 -33.51,-11.46 -74.3,-13.98 -119.05,7.35 -88.12,42.01 -97.72,139.29 -96.71,187.29 0.32,15.16 2.64,30.2 6.84,44.78z"/>
  <polygon class="fil2" points="3710.94,3601.94 3791.72,3733.91 3945.63,3665.78 3875.77,3523.98 "/>
  <path class="fil4" d="M4433.09 3740.77l-582.17 257.68c-7.81,-5.95 -15.1,-16.07 -21.96,-28.94 -25.44,-47.64 -44.52,-133.18 -58.77,-186.14 -1.63,-6.2 -3.22,-11.95 -4.77,-17.13 -2.6,-8.76 -4.98,-15.93 -7.22,-21 -17.9,-40.44 20.96,-49.35 20.96,-49.35 84.48,31.69 112.84,-84.46 164.37,-73.28 0,0 22.1,4.6 86.73,25.71 64.6,21.15 155.38,13.79 234.68,12.17 102.38,-2.13 142.84,23.1 158.62,45.82 12.5,18.01 9.53,34.45 9.53,34.45z"/>
  <path class="fil3" d="M4433.09 3740.77l-582.17 257.68c-7.81,-5.95 -15.1,-16.07 -21.96,-28.94l594.6 -263.2c12.5,18.01 9.53,34.45 9.53,34.45z"/>
  <path class="fil3" d="M3910.31 3972.16l-17.29 7.65c8.53,-27.36 11.28,-64.76 -9.98,-107.06 -28.27,-56.28 -79.94,-79.77 -112.86,-89.37 -1.63,-6.2 -3.22,-11.95 -4.77,-17.13 34.59,8.32 97.31,32.28 131.19,99.67 20.3,40.41 20.38,77.21 13.71,106.24z"/>
  <path class="fil3" d="M4035.59 3687.05c-4.31,1.9 -9.52,0.71 -12.53,-3.18 -3.55,-4.57 -2.72,-11.16 1.85,-14.71l32.37 -25.13c4.56,-3.55 11.17,-2.72 14.72,1.86 3.55,4.57 2.72,11.18 -1.85,14.72l-32.37 25.13 -2.19 1.31z"/>
  <path class="fil3" d="M3986.05 3672.75c-4.31,1.92 -9.52,0.72 -12.53,-3.15 -3.55,-4.58 -2.72,-11.17 1.85,-14.72l32.37 -25.12c4.56,-3.56 11.16,-2.73 14.72,1.85 3.54,4.58 2.72,11.18 -1.87,14.72l-32.36 25.12 -2.19 1.31z"/>
  <path class="fil3" d="M4081.31 3692.08c-4.31,1.9 -9.52,0.72 -12.53,-3.17 -3.55,-4.58 -2.72,-11.18 1.87,-14.72l32.36 -25.12c4.57,-3.57 11.16,-2.73 14.72,1.85 3.55,4.58 2.71,11.17 -1.86,14.72l-32.37 25.12 -2.19 1.31z"/>
  <path class="fil3" d="M4126.67 3696.31c-4.31,1.91 -9.52,0.72 -12.53,-3.17 -3.56,-4.58 -2.73,-11.17 1.85,-14.72l32.37 -25.12c4.57,-3.57 11.16,-2.73 14.72,1.85 3.55,4.58 2.72,11.17 -1.85,14.72l-32.37 25.12 -2.19 1.31z"/>
  <path class="fil3" d="M4174.64 3697.55c-4.3,1.91 -9.51,0.72 -12.52,-3.16 -3.56,-4.58 -2.73,-11.18 1.85,-14.72l32.38 -25.12c4.57,-3.56 11.17,-2.73 14.71,1.85 3.55,4.58 2.73,11.16 -1.85,14.72l-32.37 25.12 -2.19 1.31z"/>
  <path class="fil3" d="M4224.74 3694.54c-4.3,1.91 -9.51,0.72 -12.53,-3.17 -3.55,-4.57 -2.71,-11.17 1.86,-14.72l32.37 -25.12c4.58,-3.56 11.17,-2.73 14.72,1.86 3.55,4.58 2.72,11.16 -1.87,14.71l-32.36 25.13 -2.19 1.31z"/>
  <path class="fil5" d="M3349.48 2328.68c-54.03,-53.18 -480.29,-172.06 -763.3,-93.03 -32.42,62.4 -73.66,220.55 27.73,366.8 372.03,60.8 579.65,185.94 579.65,185.94 0,0 131.9,304.84 210.29,416.72 78.38,111.88 258.13,467.15 258.13,467.15l270.82 -115.71c0,0 -436.23,-1083.1 -583.31,-1227.87z"/>
  <path class="fil6" d="M3633 3605.24c0.99,0 2.01,-0.19 2.98,-0.59l265.05 -110.19c3.98,-1.65 5.85,-6.21 4.2,-10.19 -1.65,-3.96 -6.2,-5.85 -10.19,-4.2l-265.05 110.18c-3.96,1.65 -5.85,6.22 -4.2,10.19 1.25,2.99 4.15,4.8 7.21,4.8z"/>
  <path class="fil6" d="M3677.55 3582.96c0.95,0 1.92,-0.17 2.86,-0.54 4.01,-1.6 5.96,-6.12 4.38,-10.13 -0.54,-1.38 -56.01,-139.74 -185.36,-336.03 -128.48,-194.98 -262.84,-524.55 -264.18,-527.86 -1.62,-3.98 -6.16,-5.91 -10.15,-4.3 -3.99,1.63 -5.91,6.17 -4.3,10.17 1.35,3.31 136.27,334.29 265.61,530.57 128.49,194.96 183.35,331.83 183.88,333.2 1.22,3.05 4.15,4.92 7.26,4.92z"/>
  <polygon class="fil2" points="3027.39,3625.19 3047.84,3778.56 3216.17,3778.56 3209.67,3620.62 "/>
  <path class="fil4" d="M3631.55 4044.43l-636.65 0c-4.74,-8.6 -7.31,-20.81 -8.38,-35.36 -3.97,-53.85 13.19,-139.8 21.6,-193.98 1.03,-6.33 1.9,-12.25 2.58,-17.59 1.18,-9.06 1.9,-16.6 1.9,-22.14 0,-44.22 39.15,-36.64 39.15,-36.64 64.42,63.18 137.37,-31.56 179.96,-0.49 0,0 18.36,13.14 68.9,58.62 50.52,45.48 136.51,75.49 209.68,106.11 94.47,39.49 121.27,78.94 126.49,106.11 4.13,21.53 -5.22,35.36 -5.22,35.36z"/>
  <path class="fil3" d="M3631.55 4044.43l-636.65 0c-4.74,-8.6 -7.31,-20.81 -8.38,-35.36l650.25 0c4.13,21.53 -5.22,35.36 -5.22,35.36z"/>
  <path class="fil3" d="M3059.86 4044.43l-18.92 0c18.88,-21.56 36.53,-54.65 34.23,-101.93 -3.07,-62.91 -40.82,-105.32 -67.04,-127.4 1.03,-6.33 1.9,-12.25 2.58,-17.59 28.28,21.61 75.91,68.9 79.62,144.23 2.19,45.17 -12.62,78.86 -30.46,102.7z"/>
  <path class="fil3" d="M3289.8 3834.41c-4.7,0 -8.97,-3.19 -10.17,-7.97 -1.39,-5.61 2.04,-11.3 7.66,-12.7l39.77 -9.87c5.62,-1.4 11.32,2.04 12.73,7.66 1.38,5.62 -2.04,11.32 -7.67,12.71l-39.75 9.87 -2.55 0.31z"/>
  <path class="fil3" d="M3250.29 3801.31c-4.71,0 -8.99,-3.19 -10.17,-7.96 -1.4,-5.62 2.02,-11.32 7.65,-12.71l39.77 -9.87c5.62,-1.42 11.3,2.02 12.7,7.65 1.4,5.63 -2.03,11.31 -7.66,12.7l-39.77 9.88 -2.53 0.31z"/>
  <path class="fil3" d="M3329.57 3857.54c-4.71,0 -8.99,-3.2 -10.17,-7.98 -1.4,-5.62 2.03,-11.31 7.65,-12.7l39.77 -9.88c5.62,-1.42 11.32,2.02 12.7,7.65 1.4,5.63 -2.03,11.32 -7.65,12.71l-39.77 9.87 -2.53 0.33z"/>
  <path class="fil3" d="M3369.34 3879.76c-4.71,0 -8.98,-3.2 -10.16,-7.98 -1.4,-5.62 2.02,-11.31 7.65,-12.7l39.77 -9.87c5.62,-1.41 11.31,2.03 12.7,7.65 1.4,5.63 -2.03,11.32 -7.66,12.71l-39.77 9.87 -2.54 0.32z"/>
  <path class="fil3" d="M3412.71 3900.31c-4.71,0 -8.99,-3.2 -10.17,-7.97 -1.4,-5.63 2.03,-11.31 7.65,-12.7l39.77 -9.87c5.62,-1.41 11.31,2.02 12.7,7.64 1.4,5.62 -2.03,11.32 -7.65,12.71l-39.77 9.88 -2.53 0.32z"/>
  <path class="fil3" d="M3459.74 3917.84c-4.71,0 -8.98,-3.2 -10.17,-7.98 -1.39,-5.62 2.03,-11.31 7.66,-12.7l39.76 -9.87c5.62,-1.41 11.31,2.03 12.72,7.64 1.4,5.63 -2.03,11.32 -7.66,12.7l-39.78 9.88 -2.53 0.33z"/>
  <path class="fil4" d="M2850.26 1079.56c0.51,62.45 -67.38,176.16 -111.37,421.43 -1.12,6.15 -2.24,12.31 -3.27,18.56 -2.36,13.53 -4.62,27.48 -6.78,41.83 -0.82,5.64 -1.63,11.38 -2.45,17.23 -1.95,14.35 -3.9,29.12 -5.74,44.4l0 0.1c-0.61,5.03 -1.23,10.05 -1.85,15.18 -2.14,19.17 -4.19,38.97 -5.95,59.37 -1.63,17.95 -3.07,36.3 -4.31,55.16 -0.62,9.54 -1.22,19.28 -1.83,29.02 -0.52,10.15 -1.03,20.3 -1.55,30.66 -5.01,109.82 -11.37,366.68 -2.36,510.85 -197.59,124.79 -610.4,132.68 -888.18,-74.44 -16.11,-98.03 9.12,-432.51 17.84,-532.28 1.73,-19.79 3.8,-39.58 6.25,-59.37 11.7,-95.05 30.97,-189.39 54.24,-287.42 1.34,-5.33 2.56,-10.66 3.91,-16 19.37,-80.7 41.43,-163.96 64.08,-252.45 44.91,-175.24 124.88,-273.37 230.82,-270.19 49.32,1.54 89.62,-4.72 120.07,-12.61 3.68,-1.03 7.18,-1.95 10.66,-2.97 36.39,-10.56 58.04,-22.25 58.04,-22.25l229.38 43.58c14.36,32.5 35.79,55.37 60.09,73.21 2.77,1.95 5.42,3.89 8.2,5.85 74.85,50.55 171.13,61.62 172.06,163.55z"/>
  <path class="fil3" d="M2728.84 1561.39c-0.82,5.64 -1.63,11.38 -2.45,17.23 -1.95,14.35 -3.9,29.12 -5.74,44.4l0 0.1c-0.61,5.03 -1.23,10.05 -1.85,15.18 -2.14,19.17 -4.19,38.97 -5.95,59.37 -1.63,17.95 -3.07,36.3 -4.31,55.16 -0.62,9.54 -1.22,19.28 -1.83,29.02l-62.46 78.44 -72.49 -198 132.48 -171.44 24.6 70.55z"/>
  <polygon class="fil3" points="2367.49,1632.25 2442.25,1829.4 2571.68,1662.96 2497.91,1459.31 "/>
  <polygon class="fil3" points="2162.98,1603.89 2239.96,1800.19 2367.49,1632.29 2291.43,1429.49 "/>
  <polygon class="fil3" points="1958.66,1577.88 2037.85,1773.32 2163.51,1603.97 2085.14,1402.01 "/>
  <path class="fil3" d="M1909.58 2181.75c-2.74,0 -5.01,-2.16 -5.13,-4.92 -22.4,-547.93 81.36,-951.42 82.42,-955.43 0.72,-2.74 3.51,-4.39 6.26,-3.66 2.74,0.72 4.38,3.52 3.66,6.26 -1.04,4 -104.42,406.11 -82.08,952.41 0.11,2.83 -2.09,5.22 -4.91,5.33l-0.22 0.01z"/>
  <path class="fil3" d="M2517.01 1021.4c0,8.48 -6.87,15.35 -15.35,15.35 -8.48,0 -15.35,-6.87 -15.35,-15.35 0,-8.48 6.87,-15.35 15.35,-15.35 8.48,0 15.35,6.87 15.35,15.35z"/>
  <path class="fil3" d="M2513.1 1097.53c0,8.48 -6.87,15.35 -15.35,15.35 -8.48,0 -15.35,-6.87 -15.35,-15.35 0,-8.48 6.87,-15.35 15.35,-15.35 8.48,0 15.35,6.87 15.35,15.35z"/>
  <path class="fil3" d="M2508.37 1212.89c-37.64,-12.07 -74.74,-35.21 -110.28,-68.83 -61.13,-57.82 -97.14,-127.8 -97.51,-128.5 -1.31,-2.58 -0.37,-5.94 2.12,-7.48 2.49,-1.54 5.58,-0.69 6.9,1.91 0.35,0.67 35.68,69.28 95.63,125.91 79.67,75.26 162.71,94.81 246.81,58.11 2.65,-1.15 5.58,0.17 6.53,2.94 0.95,2.79 -0.43,5.99 -3.08,7.14 -48.48,21.15 -97.41,24.28 -145.45,9.32l-1.68 -0.52z"/>
  <path class="fil3" d="M2519.68 951.54c-54.06,-10.26 -108.11,-68.7 -111.08,-71.95 -1.94,-2.12 -1.88,-5.6 0.15,-7.76 2.02,-2.15 5.24,-2.18 7.18,-0.06 0.91,0.99 91.23,98.63 148.84,62.15 2.45,-1.56 5.55,-0.71 6.91,1.9 1.36,2.6 0.48,5.97 -1.97,7.52 -15.57,9.86 -32.8,11.49 -50.03,8.21z"/>
  <path class="fil3" d="M2418.31 2099.48c-20.28,-3.85 -40.64,-9.61 -61.02,-17.27 -50.22,-18.89 -100.68,-49.33 -149.96,-90.45 -83.75,-69.91 -135.91,-147.75 -136.44,-148.53 -1.61,-2.42 -1.06,-5.85 1.24,-7.67 2.3,-1.81 5.45,-1.32 7.07,1.11 0.5,0.76 51.99,77.53 134.68,146.5 75.94,63.34 194.56,132.89 328.41,104.62 2.77,-0.58 5.38,1.35 5.83,4.33 0.46,2.97 -1.4,5.85 -4.17,6.44 -41.17,8.68 -83.24,8.99 -125.65,0.92z"/>
  <path class="fil6" d="M2446.1 515.97c-2.77,26.26 -40.76,12.82 -59.09,-4.9 -8.09,-7.81 -3.83,-26.18 -3.26,-49.38 0.68,-27.43 7,-9.01 -11.96,-49.7 -20.06,-43.02 12.89,-106.47 40.91,-102.73 0,0 -23.37,-64.86 33.8,-100.64 51.41,-32.16 84.42,3.85 84.42,3.85 0,0 18.63,-53.7 65.75,-52.69 47.12,0.99 75.24,50.06 75.24,50.06 0,0 38.08,-36.33 88.41,-6.1 50.33,30.24 25.99,68.14 25.99,68.14 0,0 55.32,3.59 69.15,50.22 11.99,40.42 -18.04,63.08 -18.04,63.08 0,0 20.83,21.06 7.39,64.47 -11.48,37.15 -39.16,34.96 -44.47,60.98 -2.95,14.5 -9.14,30.92 -14.03,42.61 -3.85,9.18 -15.98,24.07 -25.29,22.29 -12.04,-2.29 -16.4,-24.81 -12.5,-37.06 6.58,-20.61 13.13,-50.6 4.06,-70.3 -15,-32.52 4.35,-67.01 -26.65,-83.5 -30.99,-16.49 -150.51,18.05 -219.61,-42.77 0,0 -3.96,46.15 -33.73,54.27 -29.78,8.13 -24.83,45.13 -24.87,75.95 -0.02,14.38 -1.58,43.27 -1.64,43.86z"/>
  <path class="fil2" d="M2620.82 798.55l-11.07 58.31c-7.87,4.23 -15.68,7.71 -23.4,10.55 -112.81,41.58 -207.76,-54.45 -207.76,-54.45l38.4 -202.21 179.52 165.39 24.3 22.4z"/>
  <path class="fil6" d="M2620.82 798.55l-11.07 58.31c-7.87,4.23 -15.68,7.71 -23.4,10.55 -79.73,-50.52 -125.31,-152.89 -125.31,-152.89l135.48 61.63 24.3 22.4z"/>
  <path class="fil7" d="M2742.79 553.95c0,0 40.55,-32.83 51.84,9.85 11.29,42.69 -18.16,119.15 -66.1,96.62l14.25 -106.48z"/>
  <path class="fil2" d="M2752.04 697.89c0,0 -22.72,120.6 -148.09,96.51 -124.59,-23.91 -190.94,-137.92 -194.5,-143.3l-0.11 -0.14 3.44 -25.59 17.9 -132.88 9.56 -71.01c0,0 8.12,-129.62 132.81,-129.84 91.1,-0.18 170.75,30.07 203.62,83.83 1.07,1.73 2.08,3.5 3.01,5.29 10.04,18.6 14.63,39.85 12.47,63.44l-20.1 127.02 -4.92 31.13 -15.11 95.56z"/>
  <path class="fil6" d="M2559.07 432.44l0 0.01c3.69,15.3 18.94,24.85 34.31,21.43 8.98,-1.99 19.43,-3.64 30.16,-3.93 15.24,-0.4 27.07,-13.39 25.85,-28.58 0,0 -57.37,-16.45 -90.33,11.07z"/>
  <path class="fil6" d="M2785.86 475.52l0 0c-9.04,12.88 -26.73,16.17 -39.77,7.36 -7.63,-5.15 -16.74,-10.51 -26.63,-14.71 -14.03,-5.96 -20.27,-22.38 -13.57,-36.07 0,0 59.4,5.74 79.97,43.42z"/>
  <path class="fil6" d="M2779.7 380.75c-18.36,-10.71 -33.79,-6.92 -67.01,0.72 -48.01,11.04 -94.24,-15.88 -133.77,-46.58 -39.54,-30.7 -71.72,-4.54 -60.68,18.72 11.02,23.27 6.26,39.5 -15.23,62.43 -21.49,22.9 24.05,44.11 -6.26,59.52 -12.77,6.49 -14.54,19.47 -12.32,32.32 2.41,14.01 -11.61,25.21 -24.85,20.05 -13.58,-6.34 -28.88,-35.44 -28.88,-35.44l9.56 -71.01c0,0 8.12,-129.62 132.81,-129.84 91.1,-0.18 170.75,30.07 203.62,83.83 1.07,1.73 2.08,3.5 3.01,5.29z"/>
  <path class="fil7" d="M2605.56 555.65c-1.67,8.78 -21.1,12.46 -43.41,8.23 -22.3,-4.23 -39.04,-14.79 -37.36,-23.56 1.67,-8.78 21.1,-12.46 43.4,-8.23 22.3,4.23 39.04,14.79 37.37,23.56z"/>
  <path class="fil7" d="M2767.16 602.33c-3.18,-0.28 -6.47,-0.75 -9.82,-1.38 -22.28,-4.23 -39.01,-14.79 -37.34,-23.56 1.67,-8.78 21.1,-12.47 43.38,-8.23 3.02,0.58 5.94,1.26 8.71,2.05l-4.92 31.13z"/>
  <path class="fil6" d="M2622.09 508.72c-2.28,12.06 -9.61,20.8 -16.35,19.51 -6.75,-1.28 -10.36,-12.1 -8.07,-24.15 2.29,-12.06 9.62,-20.8 16.37,-19.51 6.73,1.28 10.34,12.1 8.06,24.15z"/>
  <path class="fil6" d="M2743.25 531.74c-2.29,12.06 -9.62,20.79 -16.36,19.51 -6.76,-1.28 -10.37,-12.09 -8.08,-24.15 2.3,-12.06 9.62,-20.79 16.36,-19.51 6.75,1.28 10.36,12.1 8.07,24.15z"/>
  <path class="fil6" d="M2668.72 641.08c-44.06,-8.37 -72.98,-53.01 -73.36,-53.62 -1.5,-2.35 -0.79,-5.46 1.56,-6.96 2.35,-1.5 5.48,-0.8 6.96,1.55 1.89,2.95 46.74,71.97 108.61,43.45 2.53,-1.17 5.53,-0.06 6.71,2.47 1.16,2.53 0.05,5.53 -2.48,6.69 -17.32,7.99 -33.49,9.18 -48,6.42z"/>
  <path class="fil6" d="M2458.01 609.64c-0.82,1.22 -23.68,35.02 -48.54,41.47l-0.1 -0.15 3.46 -25.59c0,0 20.44,0.38 45.19,-15.72z"/>
  <path class="fil2" d="M2451.83 521.7c0,0 -35.91,-73.91 -80.89,-29.73 -37.07,36.4 -2.8,156.13 61.93,129.63l18.97 -99.91z"/>
  <path class="fil6" d="M2429.97 600.85c-2.5,-0.47 -4.29,-2.76 -4.08,-5.35 3.95,-50.03 -33.87,-74.92 -35.47,-75.95 -2.35,-1.51 -3.03,-4.62 -1.54,-6.97 1.51,-2.35 4.62,-3.04 6.96,-1.54 1.83,1.16 44.54,29.03 40.11,85.25 -0.22,2.78 -2.65,4.85 -5.43,4.64l-0.55 -0.07z"/>
  <path class="fil6" d="M2389.39 561.99c-1.44,-0.28 -2.76,-1.18 -3.51,-2.56 -1.32,-2.46 -0.41,-5.52 2.04,-6.84 2.29,-1.23 22.73,-11.86 36.91,-5.23 2.52,1.19 3.61,4.19 2.42,6.72 -1.18,2.52 -4.19,3.61 -6.71,2.43 -8.15,-3.83 -22.84,2.3 -27.83,4.97 -1.06,0.56 -2.24,0.72 -3.33,0.51z"/>
  <path class="fil8" d="M2849.95 555.05l-73.7 -11.35 -1.93 10.16 0.15 0.03 73.9 11.38c2.82,0.43 5.46,-1.51 5.89,-4.33 0.44,-2.82 -1.36,-5.53 -4.33,-5.89z"/>
  <path class="fil8" d="M2590.97 424.43c-41.71,-7.91 -82.1,19.58 -90.03,61.29 -7.92,41.71 19.57,82.1 61.29,90.02 41.71,7.93 82.1,-19.56 90.03,-61.28 7.92,-41.71 -19.57,-82.1 -61.29,-90.03zm-30.67 161.47c-47.32,-8.98 -78.5,-54.8 -69.51,-102.11 8.98,-47.32 54.79,-78.5 102.11,-69.52 47.32,8.99 78.5,54.81 69.51,102.12 -8.98,47.32 -54.8,78.5 -102.11,69.51z"/>
  <path class="fil8" d="M2793.63 462.93c-41.71,-7.93 -82.1,19.56 -90.02,61.29 -7.93,41.7 19.56,82.09 61.28,90.02 41.71,7.93 82.1,-19.57 90.03,-61.29 7.93,-41.71 -19.58,-82.1 -61.29,-90.02zm-30.67 161.47c-47.31,-8.99 -78.5,-54.8 -69.51,-102.12 8.98,-47.32 54.8,-78.5 102.11,-69.51 47.32,8.98 78.5,54.8 69.52,102.11 -8.99,47.32 -54.8,78.5 -102.12,69.52z"/>
  <path class="fil8" d="M2386.41 482.47l-1.74 -0.68c-2.43,-1.5 -3.19,-4.69 -1.69,-7.12 33.84,-54.82 118.08,-7.46 118.92,-6.96 2.47,1.41 3.33,4.57 1.92,7.04 -1.42,2.48 -4.57,3.34 -7.05,1.93 -0.77,-0.44 -76.39,-42.89 -104.99,3.43 -1.15,1.87 -3.31,2.75 -5.36,2.36z"/>
  <path class="fil6" d="M2659.84 578.78c-2.74,-0.51 -4.53,-3.16 -4.02,-5.89 0.52,-2.74 3.16,-4.54 5.91,-4.02 18.24,3.46 28.61,-4.55 32.23,-8.19 -12.04,-44.55 -23.88,-89.38 -24.02,-89.84 -0.71,-2.69 0.9,-5.46 3.6,-6.17 2.7,-0.71 5.45,0.9 6.16,3.6 0.13,0.46 12.44,47.02 24.71,92.4 0.39,1.47 0.1,3.04 -0.78,4.27 -0.58,0.79 -14.4,19.44 -43.79,13.85z"/>
  <path class="fil8" d="M2701.66 510.05c-1.3,-0.24 -2.52,-1 -3.33,-2.19 -11.37,-16.97 -35,-8.89 -35.24,-8.82 -2.69,0.94 -5.64,-0.46 -6.59,-3.16 -0.94,-2.69 0.47,-5.64 3.16,-6.59 10.84,-3.8 34.64,-6.03 47.27,12.81 1.59,2.37 0.96,5.58 -1.42,7.18 -1.17,0.78 -2.55,1.03 -3.85,0.78z"/>
  <path class="fil3" d="M2391.63 744.31c0,0 -84.62,-2.02 -102.19,79.31l51.1 113.38c0,0 48.69,-66.01 161.12,-61.2 0,0 -83.84,-62.7 -110.02,-131.49z"/>
  <path class="fil3" d="M2565.18 873.71c0,0 41.7,-16.57 52.99,-61.23 0,0 74.66,43.49 73.73,112.21l-69.12 34.1c0,0 -23.2,-59.93 -57.61,-85.08z"/>
  <path class="fil6" d="M1812.6 2239.93c0,0 -131.38,518.45 549.94,518.45 363.93,0 536.88,-35.12 536.88,-35.12 0,0 8.75,321.33 25.67,456.88 16.92,135.56 76.91,473.32 76.91,473.32l286.62 22.2c0,0 45.8,-1176.38 -129.86,-1284.71 -175.66,-108.33 -428.22,-111.55 -861.88,-153.15 0,0 -389.32,-65.91 -484.28,2.13z"/>
  <path class="fil9" d="M3041.25 3559.51l1.83 -0.22c4.18,-1.01 6.77,-5.21 5.76,-9.39 -39.59,-165.48 -55.33,-402.54 -67.97,-593.03 -12.47,-187.77 -19.88,-286.57 -39.43,-303.83 -21.49,-18.99 -85.3,-12.21 -191.03,-0.96 -131,13.93 -328.98,34.98 -542.43,10.51 -106.02,-12.16 -187.3,-53.69 -241.57,-123.44 -97.35,-125.09 -75.02,-300.69 -74.77,-302.46 0.58,-4.26 -2.42,-8.18 -6.69,-8.75 -4.29,-0.59 -8.19,2.41 -8.77,6.67 -1.01,7.44 -23.52,183.67 77.85,314.02 56.95,73.23 141.79,116.77 252.17,129.43 215.17,24.68 414.17,3.52 545.86,-10.48 90.91,-9.67 162.71,-17.31 179.05,-2.85 3.69,3.26 11.03,19.38 18.63,90.64 5.61,52.63 10.22,122.1 15.56,202.54 12.68,191.07 28.46,428.87 68.36,595.62 0.85,3.58 4.06,5.99 7.58,5.99z"/>
  <path class="fil9" d="M3285.52 3582.89c4.09,0 7.51,-3.19 7.77,-7.32 0.26,-4.3 -3.02,-8 -7.32,-8.25l-293.1 -17.67c-4.36,-0.28 -7.99,3.01 -8.25,7.31 -0.26,4.3 3.01,7.99 7.32,8.25l293.11 17.67 0.47 0.01z"/>
  <path class="fil2" d="M2288.21 1050.33l1.21 20.27 1.49 21.79c1.12,14.62 2.17,29.35 3.48,44.07 2.62,29.45 5.48,58.94 8.85,88.29 1.67,14.68 3.52,29.32 5.42,43.93 1.87,14.6 3.85,29.17 5.99,43.67 4.21,29.02 9.15,57.76 14.4,86.2 5.26,28.41 11.15,56.46 17.77,83.89 3.32,13.71 6.82,27.27 10.51,40.63 3.63,13.37 7.42,26.57 11.48,39.48 8.06,25.83 17.05,50.61 26.94,73.55 9.93,22.83 20.67,43.9 31.8,61.33 11.1,17.38 22.59,30.99 31.71,38.93 4.58,4.1 8.46,6.73 11.66,8.62l1.18 0.67 0.58 0.31 0.28 0.16 0.19 0.1 0.44 0.19c2.41,1.02 4.63,2.1 7.24,3.15l3.78 1.59 4 1.56c2.61,1.07 5.46,2.08 8.25,3.12 11.27,4.15 23.6,8.02 36.37,11.84 12.77,3.78 26.08,7.35 39.67,10.73 27.18,6.87 55.49,13.15 84.29,18.77 28.84,5.53 58.12,10.95 87.7,15.86 14.79,2.47 29.66,4.77 44.56,7.08 14.9,2.38 29.86,4.67 44.85,6.86 30,4.28 60.13,8.66 90.33,12.6l89.77 11.75 2.68 0.35c60.28,7.91 102.75,63.17 94.86,123.46 -7.03,53.72 -51.73,93.27 -104.02,95.67l-12.71 0.6 -12.23 0.47c-8.12,0.3 -16.21,0.6 -24.28,0.76 -16.15,0.36 -32.27,0.72 -48.39,0.79 -32.22,0.12 -64.47,-0.01 -96.79,-1.01 -16.16,-0.45 -32.34,-0.99 -48.56,-1.65 -16.21,-0.74 -32.45,-1.68 -48.73,-2.71 -32.57,-2.08 -65.33,-4.56 -98.35,-8.3 -33.04,-3.65 -66.39,-7.95 -100.46,-13.75 -34.11,-6 -68.73,-13.02 -105.66,-23.82 -4.65,-1.37 -9.26,-2.71 -14.02,-4.26l-7.07 -2.24 -7.23 -2.45c-4.76,-1.57 -9.78,-3.46 -14.67,-5.23l-0.92 -0.35 -1.17 -0.45 -2.42 -0.99 -4.82 -1.99c-3.24,-1.3 -6.34,-2.77 -9.49,-4.19 -25.04,-11.54 -47.72,-25.79 -67.56,-41.23 -39.92,-31.04 -69.18,-65.86 -93.14,-100.14 -23.89,-34.42 -42.52,-68.83 -58.37,-102.93 -15.81,-34.11 -28.95,-67.9 -40.43,-101.46 -5.76,-16.79 -11.05,-33.51 -16.06,-50.19 -4.94,-16.7 -9.46,-33.36 -13.76,-49.98 -8.55,-33.24 -15.99,-66.32 -22.6,-99.31 -6.6,-32.98 -12.09,-65.91 -17.07,-98.76 -2.47,-16.43 -4.77,-32.84 -6.92,-49.24 -2.1,-16.41 -3.99,-32.81 -5.76,-49.21 -3.54,-32.8 -6.53,-65.58 -8.72,-98.49 -1.09,-16.46 -2.16,-32.93 -2.87,-49.53l-1 -25.05 -0.38 -12.73 -0.27 -13.86c-1.55,-80.95 62.83,-147.84 143.78,-149.39 78.85,-1.51 144.35,59.51 149.14,137.48l0.26 4.32z"/>
  <path class="fil6" d="M2969.77 1832.44c0,0 -37.55,121.52 -14.13,220.76 14.17,9.76 37.07,15.56 54.28,11.16 0,0 -23.54,-108.37 14.62,-231.51 -18.48,-7.88 -36.79,-7.96 -54.78,-0.4z"/>
  <path class="fil6" d="M3041.64 1985.97c-2.38,38.39 -35.43,67.6 -73.82,65.23 -38.4,-2.38 -67.59,-35.44 -65.22,-73.83 2.37,-38.39 35.42,-67.59 73.82,-65.22 38.39,2.37 67.59,35.43 65.22,73.82z"/>
  <path class="fil8" d="M2969.02 2031.71c-27.58,-1.7 -48.65,-25.53 -46.94,-53.14 1.7,-27.58 25.53,-48.65 53.12,-46.94 27.6,1.7 48.66,25.55 46.94,53.14 -1.7,27.58 -25.53,48.65 -53.13,46.94z"/>
  <path class="fil7" d="M2340.32 1828.65c-1.22,0 -2.43,-0.43 -3.42,-1.3 -2.11,-1.89 -2.3,-5.13 -0.41,-7.24 45.32,-50.69 116.85,-81.21 119.88,-82.48 2.6,-1.1 5.61,0.12 6.71,2.74 1.11,2.6 -0.11,5.61 -2.73,6.71 -0.72,0.31 -72.46,30.94 -116.21,79.88 -1.01,1.13 -2.41,1.7 -3.82,1.7z"/>
  <path class="fil7" d="M2350.72 1763.49c-2.35,0 -4.46,-1.62 -4.99,-4 -0.63,-2.76 1.12,-5.51 3.87,-6.12 2.42,-0.55 59.77,-13.28 98.26,-11.2 2.83,0.17 4.99,2.58 4.84,5.4 -0.15,2.83 -2.62,4.97 -5.4,4.84 -37.11,-2.07 -94.88,10.83 -95.45,10.95l-1.13 0.12z"/>
  <path class="fil4" d="M1961.49 1071.76c1.5,68.87 20.28,308.28 58.66,435.84l333.24 -61.6c0,0 -39.08,-260.87 -53,-422.12 -4.53,-52.51 -31.84,-100.86 -75.68,-130.11 -29.46,-19.65 -68.25,-32.51 -116.96,-23.35 -95.94,18.06 -130.11,109.64 -141.42,156.3 -3.57,14.75 -5.18,29.87 -4.84,45.04z"/>
  <path class="fil3" d="M2020.14 1512.73c-2.17,0 -4.19,-1.39 -4.88,-3.57 -61.99,-194.03 -56.78,-388.8 -56.73,-390.74 0.09,-2.78 2.37,-4.97 5.13,-4.97l0.17 0c2.82,0.09 5.05,2.45 4.96,5.28 -0.06,1.93 -5.2,195.02 56.25,387.3 0.86,2.71 -0.62,5.59 -3.32,6.45l-1.57 0.25z"/>
  <path class="fil3" d="M2353.39 1451.14c-2.45,0 -4.6,-1.74 -5.04,-4.23 -19.54,-110.64 -46.38,-354.4 -46.65,-356.85 -0.32,-2.82 1.72,-5.34 4.53,-5.66 2.79,-0.3 5.35,1.72 5.66,4.54 0.26,2.45 27.08,245.88 46.54,356.2 0.49,2.79 -1.36,5.44 -4.15,5.94l-0.89 0.07z"/>
  <path class="fil10" d="M1841.45 3483.23l920.18 0c21.52,0 38.97,-17.45 38.97,-38.98 0,-21.54 -17.45,-38.98 -38.97,-38.98l-920.18 0c-21.52,0 -38.97,17.44 -38.97,38.98 0,21.53 17.45,38.98 38.97,38.98z"/>
  <path class="fil11" d="M2846.3 4078.48c1.72,0 3.46,-0.12 5.22,-0.35 21.34,-2.86 36.32,-22.47 33.46,-43.81l-167.62 -1251.53c-2.6,-19.36 -19.1,-33.81 -38.64,-33.81l-750.74 0c-19.55,0 -36.09,14.49 -38.65,33.89l-165.01 1251.53c-2.81,21.34 12.21,40.93 33.55,43.73 21.33,2.84 40.92,-12.21 43.73,-33.55l160.54 -1217.64 682.47 0 163.09 1217.72c2.62,19.58 19.36,33.81 38.59,33.81z"/>
  <path class="fil11" d="M2461.29 2787.96l-487.58 0c-154.47,0 -319.89,-84.53 -343.61,-237.17 -31.72,-204.11 -39.56,-401.78 -30.7,-583.17 10.02,-205.15 115.26,-396.01 276.53,-523.19 0,0 -120.58,621.42 -32.35,1010.26 50.33,221.82 617.72,333.27 617.72,333.27z"/>
  <path class="fil12" d="M3737.44 2081.7l-1176.21 0c-2.62,0 -4.75,-2.12 -4.75,-4.75 0,-36.5 29.6,-66.11 66.11,-66.11l1114.85 0c2.61,0 4.75,2.12 4.75,4.75l0 61.36c0,2.61 -2.13,4.75 -4.75,4.75z"/>
  <path class="fil13" d="M4130.15 1431.79l-146.81 620.93c-3.93,16.54 -18.68,28.23 -35.69,28.23l-904.37 0c-23.67,0 -41.14,-22.09 -35.69,-45.11l146.8 -620.91c3.93,-16.55 18.69,-28.23 35.7,-28.23l904.37 0c23.67,0 41.14,22.09 35.7,45.1z"/>
  <path class="fil11" d="M4028.58 1559.72c-9.11,48.85 -56.09,88.44 -104.93,88.44 -48.85,0 -81.05,-39.59 -71.94,-88.44 9.12,-48.84 56.1,-88.43 104.94,-88.43 48.84,0 81.05,39.59 71.93,88.43z"/>
  <path class="fil6" d="M3928.7 1542.8c-1.83,9.77 -6.75,17.7 -10.99,17.7 -4.24,0 -6.21,-7.93 -4.39,-17.7 1.83,-9.76 6.74,-17.69 10.98,-17.69 4.24,0 6.22,7.93 4.4,17.69z"/>
  <path class="fil6" d="M3974.83 1542.8c-1.83,9.77 -6.73,17.7 -10.98,17.7 -4.24,0 -6.21,-7.93 -4.4,-17.7 1.83,-9.76 6.75,-17.69 10.99,-17.69 4.24,0 6.22,7.93 4.39,17.69z"/>
  <path class="fil6" d="M3932.88 1602.79c-38.03,0 -39.64,-38.02 -39.66,-38.41 -0.06,-2.07 1.64,-4.12 3.79,-4.57 2.16,-0.45 3.97,0.87 4.03,2.93 0.05,1.38 1.54,32.36 33.27,32.36 31.78,0 44.81,-31.04 45.35,-32.36 0.84,-2.07 3.14,-3.39 5.12,-2.92 1.99,0.45 2.92,2.49 2.08,4.56 -0.15,0.39 -15.95,38.41 -53.99,38.41z"/>
  <path class="fil4" d="M3926.19 2024.99l-365.72 0c-2.36,0 -3.85,-1.93 -3.31,-4.28l20.03 -88.86c0.53,-2.36 2.88,-4.28 5.24,-4.28l365.72 0c2.35,0 3.83,1.92 3.3,4.28l-20.02 88.86c-0.53,2.35 -2.89,4.28 -5.24,4.28z"/>
  <path class="fil12" d="M3225.91 1386.69l-156.31 694.25 -26.32 0c-23.67,0 -41.14,-22.09 -35.69,-45.11l146.8 -620.91c3.93,-16.55 18.69,-28.23 35.7,-28.23l35.83 0z"/>
  <path class="fil12" d="M3683.29 1758.11c-4.55,37.97 -39.03,68.74 -76.99,68.74 -37.97,0 -65.05,-30.77 -60.5,-68.74 4.56,-37.97 39.03,-68.74 76.99,-68.74 37.97,0 65.05,30.77 60.5,68.74z"/>
  <path class="fil14" d="M5007.19 2130.86l0 47.78c0,27.51 -23.2,49.78 -51.85,49.78l-3606.7 0c-28.63,0 -51.83,-22.27 -51.83,-49.78l0 -47.78c0,-27.48 23.2,-49.75 51.83,-49.75l3606.7 0c28.65,0 51.85,22.27 51.85,49.75z"/>
  <path class="fil15" d="M4807.91 2351.25l-3208.48 0c-65.38,0 -118.37,-53 -118.37,-118.38l0 -5.01 3445.23 0 0 5.01c0,65.38 -53,118.38 -118.38,118.38z"/>
  <polygon class="fil15" points="1595.99,3045.07 4860.19,3045.07 4860.19,2960.47 1595.99,2960.47 "/>
  <polygon class="fil14" points="1439.46,4093.86 1859.75,2351.25 1712.15,2351.25 1291.86,4093.86 "/>
  <polygon class="fil14" points="4996.54,4093.86 4576.24,2351.25 4723.86,2351.25 5144.13,4093.86 "/>
  <polygon class="fil15" points="1296.81,2176.62 5007.19,2176.62 5007.19,2154.75 1296.81,2154.75 "/>
  <polygon class="fil11" points="4231.69,2024.27 4185.97,2031.27 4133.16,1686.56 4178.88,1679.55 "/>
  <polygon class="fil2" points="4178.88,1679.57 4133.16,1686.57 4143.22,1651.65 4148.44,1633.57 4158.83,1649.25 "/>
  <polygon class="fil6" points="4231.69,2024.27 4185.97,2031.27 4182.14,2006.22 4227.86,1999.22 "/>
  <path class="fil4" d="M4231.7 2044.69l-39.63 6.07c-1.68,0.26 -3.26,-0.89 -3.52,-2.58l-2.58 -16.92 45.72 -7 2.58 16.92c0.26,1.68 -0.89,3.25 -2.57,3.51z"/>
  <polygon class="fil6" points="4158.83,1649.25 4143.22,1651.65 4148.44,1633.57 "/>
  <polygon class="fil10" points="4179.38,1988.27 4225.1,1981.25 4227.86,1999.22 4182.14,2006.22 "/>
  <path class="fil10" d="M4147.13 1701.8l39.1 255.27c0.31,1.93 2.1,3.25 4.03,2.96 1.93,-0.3 3.25,-2.1 2.96,-4.03l-39.1 -255.27c-0.31,-1.93 -2.11,-3.25 -4.04,-2.95 -1.93,0.29 -3.24,2.09 -2.95,4.02z"/>
  <path class="fil10" d="M4165.01 1699.05l39.1 255.27c0.31,1.94 2.11,3.26 4.03,2.96 1.94,-0.3 3.25,-2.1 2.96,-4.03l-39.1 -255.27c-0.31,-1.93 -2.1,-3.25 -4.04,-2.95 -1.92,0.29 -3.24,2.09 -2.95,4.02z"/>
  <polygon class="fil16" points="4262.69,2029.87 4216.43,2030.02 4215.29,1681.3 4261.55,1681.14 "/>
  <polygon class="fil2" points="4261.55,1681.15 4215.29,1681.31 4230.42,1648.26 4238.26,1631.16 4246.21,1648.21 "/>
  <polygon class="fil6" points="4262.69,2029.87 4216.43,2030.02 4216.35,2004.68 4262.62,2004.54 "/>
  <path class="fil4" d="M4259.67 2050.08l-40.11 0.13c-1.7,0 -3.08,-1.37 -3.08,-3.07l-0.06 -17.12 46.26 -0.15 0.05 17.12c0.01,1.7 -1.37,3.09 -3.06,3.09z"/>
  <polygon class="fil6" points="4246.21,1648.21 4230.42,1648.26 4238.26,1631.16 "/>
  <polygon class="fil17" points="4216.29,1986.52 4262.56,1986.36 4262.62,2004.54 4216.35,2004.68 "/>
  <path class="fil17" d="M4226.85 1698.44l0.84 258.26c0,1.95 1.6,3.52 3.55,3.51 1.95,0 3.53,-1.59 3.52,-3.54l-0.84 -258.24c0,-1.95 -1.6,-3.53 -3.55,-3.53 -1.95,0.01 -3.53,1.6 -3.52,3.55z"/>
  <path class="fil17" d="M4244.95 1698.37l0.84 258.25c0,1.95 1.59,3.54 3.55,3.53 1.95,-0.01 3.52,-1.6 3.52,-3.55l-0.85 -258.24c0,-1.96 -1.59,-3.53 -3.54,-3.53 -1.96,0.01 -3.53,1.6 -3.52,3.55z"/>
  <polygon class="fil14" points="4292.31,2031.32 4246.51,2024.81 4295.55,1679.55 4341.36,1686.06 "/>
  <polygon class="fil2" points="4341.36,1686.06 4295.55,1679.55 4315.28,1649.04 4325.49,1633.25 4330.92,1651.26 "/>
  <polygon class="fil6" points="4292.31,2031.32 4246.51,2024.81 4250.08,1999.73 4295.88,2006.24 "/>
  <path class="fil4" d="M4286.43 2050.88l-39.7 -5.64c-1.68,-0.24 -2.86,-1.78 -2.62,-3.48l2.4 -16.95 45.8 6.51 -2.41 16.94c-0.24,1.68 -1.79,2.86 -3.47,2.61z"/>
  <polygon class="fil6" points="4330.92,1651.26 4315.28,1649.04 4325.49,1633.25 "/>
  <polygon class="fil15" points="4252.63,1981.75 4298.43,1988.25 4295.88,2006.24 4250.08,1999.73 "/>
  <path class="fil15" d="M4304.52 1698.19l-36.32 255.68c-0.28,1.94 1.08,3.72 2.99,4 1.94,0.27 3.73,-1.08 4,-3.01l36.33 -255.68c0.26,-1.94 -1.07,-3.72 -3.01,-4 -1.93,-0.28 -3.72,1.08 -4,3.01z"/>
  <path class="fil15" d="M4322.45 1700.71l-36.32 255.68c-0.28,1.94 1.07,3.73 2.99,4 1.94,0.28 3.72,-1.07 4,-3.01l36.32 -255.67c0.28,-1.94 -1.07,-3.72 -3.01,-4 -1.93,-0.28 -3.71,1.07 -3.99,2.99z"/>
  <polygon class="fil4" points="4356.37,1819.09 4353.97,1837.8 4351.77,1854.78 4348.43,1880.59 4346.28,1897.38 4342.93,1923.39 4340.77,1939.97 4337.4,1966.19 4335.28,1982.54 4331.85,2008.98 4329.78,2025.14 4326.34,2051.79 4324.27,2067.73 4322.5,2081.53 4140.72,2081.53 4138.95,2067.73 4136.87,2051.79 4133.43,2025.14 4131.37,2008.98 4127.94,1982.54 4125.83,1966.19 4122.46,1939.97 4120.3,1923.39 4116.94,1897.38 4114.79,1880.59 4111.44,1854.78 4109.26,1837.8 4106.84,1819.09 "/>
  <polygon class="fil3" points="4353.97,1837.8 4351.77,1854.78 4111.44,1854.78 4109.26,1837.8 "/>
  <polygon class="fil3" points="4348.43,1880.59 4346.28,1897.38 4116.94,1897.38 4114.79,1880.59 "/>
  <polygon class="fil3" points="4342.93,1923.39 4340.77,1939.97 4122.46,1939.97 4120.3,1923.39 "/>
  <polygon class="fil3" points="4337.4,1966.19 4335.28,1982.54 4127.94,1982.54 4125.83,1966.19 "/>
  <polygon class="fil3" points="4331.85,2008.98 4329.78,2025.14 4133.43,2025.14 4131.37,2008.98 "/>
  <polygon class="fil3" points="4326.34,2051.79 4324.27,2067.73 4138.95,2067.73 4136.87,2051.79 "/>
  <polygon class="fil11" points="4447.47,1869.74 4840.24,1869.74 4840.24,1813.3 4447.47,1813.3 "/>
  <path class="fil11" d="M4845.56 2034.26c-39.62,47.66 -153.85,48.47 -190.34,47.43l-0.03 0c-7.18,-0.18 -11.33,-0.47 -11.33,-0.47 0,0 -154.29,10.09 -201.72,-46.96 -26.92,-32.39 -11.82,-80.99 6.26,-116.96 4.3,-8.56 8.78,-16.4 12.91,-23.15 9.07,-14.87 16.44,-24.39 16.44,-24.39l332.19 0c0,0 15.54,20.11 29.37,47.55 18.07,35.97 33.17,84.56 6.26,116.96z"/>
  <path class="fil10" d="M4516.82 1990.68c-16.62,52.61 45.47,92.49 127.04,90.54 0,0 -154.29,10.09 -201.72,-46.96 -26.92,-32.39 -11.82,-80.99 6.26,-116.96l1.3 -2.54 1.3 -2.52c3.49,-6.59 7,-12.69 10.31,-18.09 9.07,-14.87 16.44,-24.39 16.44,-24.39l332.19 0c0,0 15.54,20.11 29.37,47.55l-148.63 0c-37.24,0 -74.28,6.71 -108.79,20.68 -29.1,11.79 -57.59,29.03 -65.07,52.69z"/>
  <path class="fil16" d="M4782.28 1762.7c-4.56,6.81 -9.09,13.16 -13.32,18.91 -13.57,18.42 -24.39,30.69 -25.24,31.68l-0.06 0.02 -199.61 0 -0.06 -0.02c-0.86,-0.99 -11.69,-13.27 -25.26,-31.68 -4.23,-5.75 -8.75,-12.1 -13.32,-18.91 -24.48,-36.52 -50.34,-85.84 -43.25,-123.39 2.15,-11.55 5.56,-19.55 9.78,-24.93 2.19,-2.74 4.53,-4.81 7.09,-6.31 21.54,-12.57 54.57,16.81 65.02,15.86 14.09,-1.27 -8.84,-71.63 -41.54,-121.56 -30.57,-46.69 -50.48,-109.07 -13.04,-131.56 1.35,-0.8 2.74,-1.55 4.23,-2.25 1.36,-0.67 2.77,-1.24 4.3,-1.79 48.59,-17.93 65.24,47.35 85.72,38.38 20.14,-8.84 -41.54,-217.23 55.43,-217.65 1.51,-0.03 3.1,0.02 4.71,0.11 1.61,-0.09 3.19,-0.14 4.72,-0.11 96.94,0.42 35.27,208.81 55.41,217.65 20.49,8.97 37.13,-56.3 85.72,-38.38 1.52,0.55 2.93,1.13 4.3,1.79 1.49,0.7 2.87,1.44 4.23,2.25 37.44,22.49 17.52,84.87 -13.02,131.56 -32.7,49.93 -55.62,120.29 -41.56,121.56 10.47,0.94 43.47,-28.44 65.01,-15.86 2.55,1.5 4.91,3.57 7.1,6.31 4.2,5.37 7.62,13.38 9.77,24.93 7.09,37.55 -18.77,86.86 -43.25,123.39z"/>
  <path class="fil17" d="M4648.58 1187.52l0 625.79 -9.44 0 0 -625.79c1.52,-0.03 3.12,0.02 4.73,0.12 1.6,-0.1 3.18,-0.15 4.72,-0.12z"/>
  <path class="fil17" d="M4647.41 1546.08l-3.55 3.09 -3.58 3.08 -1.15 -1.32 -153.63 -177.41 3.96 -2.69c1.34,-0.78 2.73,-1.54 4.25,-2.22l145.43 167.93 4.73 5.44 3.55 4.12z"/>
  <path class="fil17" d="M4647.41 1802.56l-3.55 3.09 -3.58 3.09 -1.15 -1.32 -167.19 -193.03c2.16,-2.74 4.52,-4.81 7.06,-6.28l160.13 184.91 4.73 5.45 3.55 4.11z"/>
  <path class="fil17" d="M4802.2 1373.51l-153.61 177.38 -1.17 1.35 -3.55 -3.08 -3.58 -3.09 3.58 -4.12 4.72 -5.47 145.41 -167.89c1.51,0.69 2.89,1.44 4.24,2.22l3.96 2.69z"/>
  <path class="fil17" d="M4815.75 1614.38l-167.17 192.99 -1.17 1.36 -3.55 -3.09 -3.58 -3.09 3.58 -4.11 4.72 -5.48 160.09 -184.88c2.54,1.48 4.91,3.55 7.07,6.28z"/>
  <path class="fil6" d="M2015.5 2030.53c-117.38,146.18 -596.33,154.45 -659.16,44.97 -30.61,-53.33 -22.18,-121.6 -5.46,-177.64 1.76,-5.91 3.61,-11.69 5.51,-17.28 17.2,-50.44 38.9,-87.28 38.9,-87.28 0,0 -1.99,52.09 174.68,33.34 20.22,-2.13 43.17,-3.04 67.79,-2.73 4.56,0.05 9.22,0.14 13.91,0.29 190.51,5.71 465.31,79.98 363.85,206.32z"/>
  <path class="fil11" d="M1630.68 1943.43c-27.66,30.85 -75.66,42.5 -138.85,33.63 -1.42,-0.19 -2.83,-0.41 -4.25,-0.62 -79.63,-12.29 -118.43,-50.14 -136.71,-78.57 1.76,-5.91 3.61,-11.69 5.51,-17.28 13.56,26.16 49.21,70.74 137.36,83.08 58.49,8.21 102.4,-1.92 126.9,-29.26 22.08,-24.68 27.92,-62.75 17.1,-110.49 4.56,0.05 9.22,0.14 13.91,0.29 10.83,50.69 3.65,91.72 -20.97,119.21z"/>
  <path class="fil6" d="M1949.12 1924.14c0,0 112.47,-8.32 125.8,-65.05 13.34,-56.75 -244.59,-6.98 -273.05,-123.84 -28.46,-116.86 85.59,-210.04 122.64,-175.86 43.89,40.5 -52.23,57.75 -57.39,117.86 -4.29,49.94 26.67,95.96 122.71,102.8 96.03,6.85 138.97,21.78 138.55,66.42 -0.45,48.58 -78.24,98.67 -125.54,101.8 -47.3,3.15 -53.71,-24.15 -53.71,-24.15z"/>
  <path class="fil6" d="M1455.78 1750.34c0,0 -33.39,-43.39 -87.69,-72.29 -7.91,-4.2 -17.31,2.13 -16.39,11.05l10.29 99.48c0,0 78,6.62 93.79,-38.24z"/>
  <path class="fil9" d="M1381.08 1776.5c-4.41,-22.55 -5.49,-46.26 -10.69,-72.85 0,0 58.62,34.95 62.13,54.18 0,0 -32.35,24.5 -51.44,18.67z"/>
  <path class="fil6" d="M1557.58 1754.31c0,0 45.81,-27.61 105.87,-35.17 9.84,-1.24 17.04,9.12 12.59,17.97l-41.07 81.89c0,0 -79.01,-17.15 -77.4,-64.69z"/>
  <path class="fil9" d="M1617.64 1805.87c12.32,-19.4 21.95,-41.1 36.46,-63.97 0,0 -67.31,11.22 -77.57,27.87 0,0 21.22,34.59 41.11,36.11z"/>
  <path class="fil6" d="M1412.21 1752.04c0,0 -69.42,10.61 -64.21,91.97 5.22,81.36 84.43,90.02 84.43,90.02 0,0 14.13,26.18 63.03,36.76 31.32,6.77 77.96,4.62 89.78,-18.4 0,0 68,-24.93 67.22,-85.54 -0.87,-67.15 -81.81,-149.59 -240.25,-114.81z"/>
  <path class="fil6" d="M1341.69 1944.38c0,0 28.33,115.48 52.07,139.32 23.74,23.85 49.49,36.89 82.59,40.9 53.41,6.48 43.53,42.08 27.6,54.32 -18.45,14.18 -51.14,6.1 -100.24,6.1 -42.41,0 -82.39,-8.47 -96.71,-36.35 -14.33,-27.86 -13.37,-110.37 1.87,-156.78 9.4,-28.63 22.65,-43.58 32.83,-47.52z"/>
  <path class="fil6" d="M1700.45 1952c0,0 -28.33,115.47 -52.07,139.32 -23.73,23.84 -49.66,35.69 -82.57,40.9 -40.26,6.36 -36.52,44.4 -27.62,54.32 15.56,17.33 51.16,6.1 100.25,6.1 42.41,0 92.56,-16.97 106.89,-44.85 14.34,-27.87 3.19,-101.87 -12.04,-148.28 -9.4,-28.62 -22.64,-43.58 -32.84,-47.51z"/>
  <path class="fil6" d="M1937.59 1929c0,0 74.72,-17.9 98.78,38.42 37.87,88.55 7.6,139.15 -93.33,153.21 -100.94,14.06 -215.69,33.15 -128.93,-38.65 86.77,-71.8 123.48,-152.99 123.48,-152.99z"/>
  <path class="fil9" d="M1535.41 1883.48c0,0 -30.14,-3.2 -38.18,0.49 -13.46,6.2 8.19,31.36 21.99,33.49 13.8,2.12 27.23,-14.04 27.04,-24.56 -0.21,-10.51 -10.86,-9.42 -10.86,-9.42z"/>
  <path class="fil9" d="M1550.93 1860.28c-1.45,-0.9 -3.05,0.93 -1.95,2.25 6,7.15 17.05,16.57 32,13.42 12.36,-2.61 17.04,-11.29 18.72,-18.85 0.37,-1.68 -1.92,-2.62 -2.77,-1.13 -3.18,5.59 -9.37,11.3 -21.42,12.07 -9.09,0.58 -18.43,-3.94 -24.58,-7.76z"/>
  <path class="fil9" d="M1434.04 1854.1c-1.26,-1.15 -3.17,0.36 -2.33,1.85 4.58,8.13 13.71,19.42 28.99,19.08 12.62,-0.29 18.83,-7.97 21.85,-15.09 0.68,-1.58 -1.39,-2.91 -2.5,-1.6 -4.15,4.9 -11.3,9.37 -23.28,7.92 -9.04,-1.1 -17.38,-7.26 -22.73,-12.15z"/>
  <path class="fil11" d="M3127.67 99.1l-0.01 0 -30.89 -0.05c-2.12,0 -3.85,-1.72 -3.84,-3.85 0,-2.12 1.72,-3.85 3.85,-3.85l0 0 30.91 0.05c2.12,0 3.83,1.72 3.83,3.85 0,2.12 -1.72,3.85 -3.85,3.85zm61.8 0.1l-0.01 0 -30.89 -0.05c-2.12,-0.01 -3.84,-1.73 -3.84,-3.85 0,-2.12 1.72,-3.84 3.85,-3.84l30.91 0.05c2.12,0 3.83,1.72 3.83,3.85 0,2.12 -1.72,3.85 -3.85,3.85zm61.8 0.09l0 0 -30.9 -0.04c-2.12,-0.01 -3.85,-1.73 -3.84,-3.85 0,-2.12 1.72,-3.83 3.85,-3.83l30.91 0.04c2.12,0.01 3.85,1.73 3.83,3.85 0,2.12 -1.72,3.84 -3.85,3.84zm61.8 0.1l-0.01 0 -30.89 -0.05c-2.13,0 -3.85,-1.73 -3.85,-3.85 0,-2.12 1.72,-3.84 3.85,-3.84l0.01 0 30.89 0.05c2.13,0 3.85,1.72 3.85,3.85 0,2.12 -1.72,3.85 -3.85,3.85zm61.79 0.1l0 0 -30.9 -0.05c-2.12,-0.01 -3.83,-1.73 -3.83,-3.85 0,-2.12 1.72,-3.83 3.85,-3.83l0.01 0 30.89 0.05c2.12,0 3.85,1.72 3.84,3.85 0,2.12 -1.72,3.85 -3.85,3.85zm61.81 0.09l0 0 -30.91 -0.05c-2.12,0 -3.85,-1.72 -3.85,-3.85 0.01,-2.12 1.74,-3.85 3.85,-3.85l0.01 0 30.91 0.05c2.12,0 3.83,1.72 3.83,3.85 0,2.11 -1.72,3.84 -3.85,3.84zm61.8 0.1l-0.01 0 -30.89 -0.05c-2.13,0 -3.85,-1.74 -3.85,-3.86 0,-2.12 1.72,-3.83 3.85,-3.83l0.01 0 30.89 0.05c2.13,0 3.85,1.72 3.85,3.85 0,2.12 -1.73,3.85 -3.85,3.85zm61.79 0.09l0 0 -30.89 -0.04c-2.12,-0.01 -3.85,-1.73 -3.85,-3.86 0.01,-2.12 1.73,-3.83 3.85,-3.83l0.01 0 30.89 0.04c2.12,0.01 3.85,1.73 3.83,3.86 0,2.12 -1.72,3.83 -3.85,3.83zm61.81 0.1l0 0 -30.91 -0.05c-2.13,0 -3.85,-1.72 -3.85,-3.86 0,-2.11 1.72,-3.83 3.85,-3.83l0.01 0 30.9 0.05c2.12,0 3.84,1.72 3.84,3.86 0,2.11 -1.72,3.83 -3.85,3.83zm61.8 0.09l-0.01 0 -30.91 -0.04c-2.12,0 -3.84,-1.73 -3.83,-3.86 0,-2.12 1.72,-3.83 3.85,-3.83l30.91 0.04c2.12,0.01 3.85,1.73 3.85,3.86 -0.01,2.12 -1.74,3.83 -3.85,3.83zm61.79 0.1l0 0 -30.89 -0.05c-2.12,0 -3.85,-1.72 -3.85,-3.85 0.01,-2.12 1.73,-3.85 3.85,-3.85l0.01 0 30.9 0.05c2.13,0 3.85,1.74 3.83,3.85 0,2.13 -1.71,3.85 -3.85,3.85zm61.81 0.09l-0.01 0 -30.89 -0.04c-2.13,-0.01 -3.85,-1.72 -3.85,-3.86 0,-2.11 1.72,-3.83 3.85,-3.83l30.91 0.04c2.12,0.01 3.84,1.73 3.84,3.87 -0.01,2.11 -1.73,3.83 -3.84,3.83zm61.79 0.1l0 0 -30.89 -0.04c-2.12,0 -3.85,-1.73 -3.84,-3.85 0,-2.12 1.71,-3.84 3.85,-3.84l30.89 0.04c2.12,0.01 3.85,1.74 3.84,3.86 0,2.12 -1.72,3.83 -3.85,3.83zm61.81 0.1l-0.01 0 -30.89 -0.05c-2.12,0 -3.85,-1.72 -3.85,-3.85 0.01,-2.12 1.72,-3.85 3.85,-3.85l0.01 0 30.89 0.05c2.13,0 3.85,1.72 3.85,3.85 0,2.12 -1.72,3.85 -3.85,3.85zm61.8 0.09l-0.01 0 -30.91 -0.04c-2.12,-0.01 -3.83,-1.73 -3.83,-3.85 0,-2.12 1.72,-3.84 3.85,-3.84l30.9 0.04c2.12,0.01 3.85,1.74 3.85,3.86 -0.01,2.12 -1.73,3.83 -3.85,3.83zm61.71 0.95l-1.01 -0.14c-1.71,-0.47 -3.5,-0.71 -5.29,-0.72l-24.51 -0.04c-2.12,0 -3.85,-1.72 -3.85,-3.85 0.01,-2.12 1.73,-3.85 3.85,-3.85l0.01 0 24.52 0.04c2.47,0.01 4.94,0.34 7.31,0.99 2.05,0.56 3.25,2.69 2.69,4.73 -0.47,1.71 -2.02,2.83 -3.71,2.83zm-987.79 39.65l-0.01 0c-2.11,0 -3.84,-1.72 -3.84,-3.85l0.03 -18.32c0.01,-4.91 1.32,-9.73 3.79,-13.93 1.08,-1.83 3.44,-2.45 5.27,-1.36 1.83,1.08 2.44,3.44 1.36,5.26 -1.78,3.02 -2.74,6.51 -2.74,10.05l-0.03 18.32c0,2.12 -1.72,3.83 -3.85,3.83zm1005.16 14.14l0 0c-2.13,0 -3.85,-1.73 -3.85,-3.85l0.05 -30.85c0,-2.12 1.72,-3.87 3.85,-3.87 2.12,0 3.85,1.7 3.85,3.82l-0.05 30.92c0,2.11 -1.72,3.83 -3.84,3.83zm-1005.25 47.66l-0.01 0c-2.12,0 -3.85,-1.72 -3.84,-3.85l0.05 -30.9c0,-2.12 1.72,-3.84 3.85,-3.84l0 0c2.12,0 3.85,1.73 3.85,3.86l-0.05 30.89c-0.01,2.12 -1.72,3.83 -3.85,3.83zm1005.15 14.14l0 0c-2.12,0 -3.85,-1.72 -3.85,-3.85l0.05 -30.9c0.01,-2.12 1.73,-3.85 3.85,-3.85l0.01 0c2.12,0.01 3.85,1.74 3.84,3.86l-0.05 30.89c0,2.12 -1.72,3.85 -3.85,3.85zm-1005.25 47.66l-0.01 0c-2.12,0 -3.84,-1.72 -3.84,-3.85l0.05 -30.91c0,-2.12 1.72,-3.83 3.85,-3.83l0.01 0c2.12,0 3.84,1.72 3.84,3.85l-0.05 30.89c0,2.12 -1.72,3.85 -3.85,3.85zm1005.16 14.14l-0.01 0c-2.12,0 -3.85,-1.72 -3.83,-3.85l0.05 -30.91c0,-2.12 1.72,-3.85 3.85,-3.85 2.12,0.01 3.85,1.74 3.85,3.86l-0.05 30.89c-0.01,2.12 -1.73,3.85 -3.84,3.85zm-1005.25 47.66l-0.01 0c-2.12,0 -3.85,-1.72 -3.84,-3.85l0.05 -30.9c0,-2.12 1.71,-3.83 3.85,-3.83l0 0c2.12,0 3.85,1.72 3.85,3.85l-0.05 30.91c-0.01,2.11 -1.73,3.83 -3.85,3.83zm1005.15 14.14l0 0c-2.13,-0.01 -3.85,-1.73 -3.85,-3.86l0.05 -30.9c0,-2.12 1.72,-3.84 3.85,-3.84 2.12,0.01 3.85,1.73 3.85,3.86l-0.05 30.89c0,2.12 -1.71,3.85 -3.85,3.85zm-1005.25 47.66l-0.01 0c-2.12,0 -3.84,-1.72 -3.83,-3.85l0.05 -30.91c0,-2.12 1.72,-3.83 3.85,-3.83l0 0c2.12,0 3.85,1.72 3.85,3.85l-0.05 30.91c-0.01,2.12 -1.72,3.83 -3.85,3.83zm1005.16 14.14l0 0c-2.13,0 -3.84,-1.73 -3.84,-3.86l0.05 -30.9c0,-2.11 1.72,-3.84 3.85,-3.84 2.13,0 3.85,1.73 3.85,3.86l-0.05 30.9c0,2.11 -1.72,3.84 -3.85,3.84zm-1005.25 47.66l-0.01 0c-2.12,0 -3.85,-1.72 -3.84,-3.85l0.04 -30.91c0,-2.12 1.63,-3.83 3.86,-3.85 2.12,0.01 3.83,1.73 3.83,3.86l-0.04 30.9c-0.01,2.12 -1.73,3.84 -3.85,3.84zm1005.15 14.13l0 0c-2.13,0 -3.85,-1.71 -3.85,-3.85l0.05 -30.89c0,-2.12 1.72,-3.85 3.85,-3.85l0.01 0c2.12,0.01 3.84,1.73 3.84,3.86l-0.05 30.89c0,2.12 -1.72,3.83 -3.85,3.83zm-1005.25 47.67l-0.01 0c-2.12,-0.01 -3.84,-1.73 -3.83,-3.86l0.05 -30.89c0,-2.12 1.72,-3.83 3.85,-3.83l0 0c2.12,0 3.85,1.72 3.85,3.85l-0.05 30.89c-0.01,2.12 -1.73,3.85 -3.85,3.85zm1005.15 14.14l0 0c-2.12,-0.01 -3.85,-1.74 -3.85,-3.86l0.05 -30.89c0.01,-2.12 1.73,-3.85 3.85,-3.85l0.01 0c2.12,0.01 3.85,1.73 3.83,3.85l-0.05 30.9c0,2.12 -1.72,3.85 -3.85,3.85zm-1005.25 47.66l0 0c-2.12,0 -3.85,-1.74 -3.85,-3.86l0.05 -30.89c0,-2.12 1.72,-3.83 3.85,-3.83l0 0c2.13,0 3.85,1.72 3.85,3.85l-0.05 30.9c0,2.11 -1.72,3.84 -3.85,3.84zm1005.16 14.14l-0.01 0c-2.12,-0.01 -3.85,-1.73 -3.84,-3.85l0.05 -30.89c0,-2.13 1.72,-3.85 3.85,-3.85 2.12,0 3.85,1.72 3.85,3.85l-0.05 30.91c-0.01,2.12 -1.73,3.84 -3.85,3.84zm-1005.25 47.66l-0.01 0c-2.12,0 -3.84,-1.72 -3.83,-3.86l0.04 -30.89c0.01,-2.12 1.73,-3.85 3.85,-3.85l0.01 0c2.12,0.01 3.85,1.73 3.83,3.85l-0.04 30.91c-0.01,2.12 -1.73,3.84 -3.85,3.84zm1005.16 14.14l-0.01 0c-2.12,-0.01 -3.83,-1.73 -3.83,-3.85l0.05 -30.91c0,-2.11 1.71,-3.83 3.85,-3.83 2.12,0 3.85,1.72 3.85,3.85l-0.05 30.89c0,2.12 -1.72,3.85 -3.85,3.85zm-1005.26 47.66l0 0c-2.13,-0.01 -3.85,-1.72 -3.85,-3.86l0.05 -30.89c0,-2.12 1.72,-3.85 3.85,-3.85l0 0c2.12,0.01 3.85,1.73 3.85,3.85l-0.05 30.9c0,2.12 -1.72,3.85 -3.85,3.85zm1005.16 14.13l-0.01 0c-2.12,0 -3.84,-1.72 -3.84,-3.85l0.05 -30.89c0,-2.12 1.72,-3.85 3.85,-3.85 2.13,0 3.85,1.73 3.85,3.85l-0.05 30.89c0,2.12 -1.72,3.84 -3.85,3.84zm-1005.26 47.67l0 0c-2.12,-0.01 -3.85,-1.73 -3.85,-3.85l0.05 -30.89c0.01,-2.12 1.73,-3.85 3.85,-3.85l0.01 0c2.12,0.01 3.84,1.73 3.83,3.85l-0.05 30.9c0,2.12 -1.72,3.84 -3.85,3.84zm1005.16 14.13l-0.01 0c-2.12,0 -3.83,-1.72 -3.83,-3.85l0.05 -30.89c0,-2.12 1.72,-3.85 3.85,-3.85l0.01 0c2.12,0.01 3.83,1.73 3.83,3.85l-0.05 30.89c0,2.12 -1.72,3.84 -3.85,3.84zm-1005.25 47.71l-0.01 0c-2.12,0 -3.83,-1.68 -3.83,-3.81l0.04 -30.98c0.01,-2.12 1.73,-3.85 3.85,-3.85l0.01 0c2.12,0 3.85,1.73 3.84,3.85l-0.04 30.89c-0.01,2.12 -1.72,3.89 -3.85,3.89zm1001.93 13.52l-1.95 -0.53c-1.83,-1.08 -2.44,-3.43 -1.37,-5.26 1.76,-3.03 2.71,-6.49 2.71,-10.02l0.03 -18.36c0.01,-2.12 1.74,-3.83 3.85,-3.83l0.01 0c2.12,0 3.85,1.72 3.83,3.85l-0.03 18.36c0,4.89 -1.31,9.7 -3.78,13.89 -0.71,1.23 -1.99,1.91 -3.31,1.91zm-953.66 10.27l0 0 -24.56 -0.04c-2.47,-0.01 -4.92,-0.34 -7.27,-0.99 -2.05,-0.55 -3.26,-2.68 -2.7,-4.73 0.56,-2.04 2.68,-3.25 4.73,-2.69 1.7,0.47 3.47,0.69 5.25,0.71l24.56 0.04c2.12,0 3.85,1.72 3.84,3.85 0,2.12 -1.71,3.85 -3.85,3.85zm61.8 0.09l0 0 -30.89 -0.05c-2.13,0 -3.85,-1.72 -3.85,-3.85 0,-2.12 1.72,-3.85 3.85,-3.85l0.01 0 30.89 0.05c2.12,0.01 3.84,1.73 3.84,3.85 0,2.12 -1.72,3.84 -3.85,3.84zm61.81 0.1l-0.01 0 -30.89 -0.05c-2.13,0 -3.85,-1.72 -3.85,-3.85 0,-2.12 1.72,-3.85 3.85,-3.85l30.9 0.05c2.12,0 3.85,1.72 3.85,3.85 0,2.12 -1.73,3.85 -3.85,3.85zm61.79 0.1l0 0 -30.91 -0.05c-2.12,-0.01 -3.85,-1.74 -3.83,-3.86 0,-2.12 1.72,-3.83 3.84,-3.83l30.91 0.05c2.12,0 3.85,1.72 3.84,3.85 0,2.12 -1.72,3.85 -3.85,3.85zm61.8 0.09l-0.01 0 -30.89 -0.05c-2.13,0 -3.85,-1.72 -3.85,-3.85 0,-2.12 1.72,-3.85 3.85,-3.85l0.01 0 30.89 0.05c2.12,0 3.83,1.72 3.83,3.85 0,2.12 -1.72,3.85 -3.84,3.85zm61.81 0.1l-0.01 0 -30.9 -0.05c-2.12,-0.01 -3.85,-1.74 -3.84,-3.86 0,-2.12 1.72,-3.83 3.85,-3.83l30.91 0.05c2.12,0 3.85,1.72 3.85,3.85 -0.01,2.12 -1.73,3.85 -3.85,3.85zm61.79 0.09l0 0 -30.9 -0.04c-2.12,-0.01 -3.85,-1.73 -3.85,-3.86 0.01,-2.12 1.73,-3.83 3.85,-3.83l0.01 0 30.91 0.04c2.12,0.01 3.85,1.72 3.83,3.86 0,2.12 -1.72,3.83 -3.85,3.83zm61.8 0.1l-0.01 0 -30.89 -0.05c-2.13,-0.01 -3.85,-1.74 -3.85,-3.86 0,-2.12 1.72,-3.83 3.85,-3.83l30.89 0.05c2.12,0 3.85,1.72 3.85,3.85 -0.01,2.12 -1.72,3.85 -3.85,3.85zm61.8 0.1l0 0 -30.9 -0.05c-2.12,-0.01 -3.85,-1.73 -3.84,-3.86 0,-2.12 1.72,-3.83 3.85,-3.83l30.91 0.05c2.12,0 3.83,1.72 3.83,3.85 0,2.12 -1.72,3.85 -3.85,3.85zm61.8 0.09l-0.01 0 -30.9 -0.05c-2.12,0 -3.84,-1.74 -3.84,-3.86 0.01,-2.12 1.72,-3.83 3.84,-3.83l0.01 0 30.89 0.05c2.13,0 3.85,1.72 3.85,3.85 0,2.12 -1.72,3.85 -3.85,3.85zm61.81 0.1l-0.01 0 -30.91 -0.05c-2.12,-0.01 -3.83,-1.73 -3.83,-3.86 0,-2.12 1.72,-3.83 3.85,-3.83l30.91 0.05c2.12,0 3.85,1.72 3.85,3.85 -0.01,2.12 -1.74,3.85 -3.85,3.85zm61.79 0.09l0 0 -30.91 -0.05c-2.12,0 -3.85,-1.72 -3.85,-3.86 0.01,-2.11 1.74,-3.83 3.85,-3.83l0.01 0 30.91 0.05c2.12,0 3.83,1.72 3.83,3.86 0,2.11 -1.72,3.83 -3.85,3.83zm61.8 0.1l-0.01 0 -30.89 -0.05c-2.12,0 -3.83,-1.73 -3.83,-3.85 0,-2.12 1.72,-3.84 3.85,-3.84l30.89 0.05c2.13,0 3.85,1.72 3.85,3.85 0,2.12 -1.72,3.85 -3.85,3.85zm61.81 0.09l-0.01 0 -30.91 -0.04c-2.12,-0.01 -3.85,-1.73 -3.85,-3.85 0.01,-2.12 1.73,-3.84 3.85,-3.84l0.01 0 30.9 0.04c2.12,0 3.85,1.73 3.84,3.85 0,2.12 -1.72,3.83 -3.84,3.83zm61.79 0.1l0 0 -30.91 -0.05c-2.13,0 -3.85,-1.72 -3.85,-3.85 0,-2.11 1.72,-3.84 3.85,-3.84l0.01 0 30.9 0.05c2.12,0 3.84,1.72 3.84,3.85 0,2.11 -1.72,3.84 -3.85,3.84zm61.8 0.09l-0.01 0 -30.89 -0.04c-2.12,-0.01 -3.83,-1.73 -3.83,-3.85 0,-2.12 1.72,-3.84 3.84,-3.84l30.9 0.04c2.12,0.01 3.85,1.73 3.85,3.85 -0.01,2.12 -1.74,3.83 -3.85,3.83z"/>
  <polygon class="fil11" points="4024.79,796.17 3111.89,794.71 3112.93,141.38 4025.84,142.83 "/>
  <path class="fil18" d="M3641.11 592.45c-0.1,0 -0.19,0 -0.3,0 -100.13,-0.15 -181.17,-81.47 -181.01,-181.6 0.15,-100.04 81.3,-181.02 181.31,-181.02 0.09,0 0.19,0 0.28,0 100.14,0.15 181.18,81.47 181.03,181.6 -0.17,100.04 -81.32,181.02 -181.31,181.02z"/>
  <polygon class="fil15" points="4025.04,623.3 3980.79,548.49 3834.15,300.63 3539.32,795.4 4024.77,796.17 "/>
  <polygon class="fil14" points="3478.46,795.31 3111.89,794.71 3295.66,499.67 3479.4,204.61 3662.21,500.25 3845.03,795.89 "/>
  <polygon class="fil8" points="3360.28,395.9 3478.96,485.04 3597.92,396.28 3479.4,204.61 "/>
  <polygon class="fil8" points="3733.8,469.04 3833.76,548.25 3933.97,469.35 3834.15,300.63 "/>
  <path class="fil8" d="M5615.62 331.69c0,27.43 0,27.43 0,27.43l0 730.27c0,19.89 -16.13,36.02 -36.02,36.02l-1282.46 0c-19.9,0 -36.02,-16.13 -36.02,-36.02l0 -757.72c0,-19.89 16.12,-36.02 36.02,-36.02l1282.46 0c19.89,0 36.02,16.15 36.02,36.04z"/>
  <path class="fil14" d="M4826.99 760.94c0,61.52 -23.27,117.58 -61.48,159.9 -43.68,48.37 -106.88,78.77 -177.21,78.77 -131.83,0 -238.69,-106.84 -238.69,-238.67 0,-32.69 6.59,-63.86 18.49,-92.25l220.2 92.25 -11.29 -238.38c3.69,-0.22 7.5,-0.29 11.29,-0.29 131.82,0 238.69,106.86 238.69,238.67z"/>
  <path class="fil11" d="M4553.23 483.17c-71.31,3.3 -134.41,37.9 -175.93,90.39 -13.36,16.88 -24.49,35.6 -32.94,55.75l220.19 92.24 -11.32 -238.38z"/>
  <polygon class="fil14" points="5368.79,629.35 5401.58,629.35 5401.58,596.58 5368.79,596.58 "/>
  <polygon class="fil1" points="5541.11,617.07 5423.68,617.07 5423.33,616.72 5423.33,609.22 5423.68,608.85 5541.11,608.85 5541.47,609.22 5541.47,616.72 "/>
  <polygon class="fil4" points="5368.79,570.95 5401.58,570.95 5401.58,538.17 5368.79,538.17 "/>
  <polygon class="fil1" points="5541.11,558.65 5423.68,558.65 5423.33,558.29 5423.33,550.81 5423.68,550.45 5541.11,550.45 5541.47,550.81 5541.47,558.29 "/>
  <polygon class="fil11" points="5368.79,687.75 5401.58,687.75 5401.58,654.98 5368.79,654.98 "/>
  <polygon class="fil1" points="5541.11,675.46 5423.68,675.46 5423.33,675.1 5423.33,667.61 5423.68,667.25 5541.11,667.25 5541.47,667.61 5541.47,675.1 "/>
  <path class="fil1" d="M5537.37 790.47l-164.47 0c-2.26,0 -4.11,-1.84 -4.11,-4.1 0,-2.27 1.85,-4.1 4.11,-4.1l164.47 0c2.26,0 4.1,1.83 4.1,4.1 0,2.26 -1.84,4.1 -4.1,4.1z"/>
  <path class="fil1" d="M5537.37 824.16l-164.47 0c-2.26,0 -4.11,-1.83 -4.11,-4.09 0,-2.28 1.85,-4.11 4.11,-4.11l164.47 0c2.26,0 4.1,1.83 4.1,4.11 0,2.26 -1.84,4.09 -4.1,4.09z"/>
  <path class="fil1" d="M5537.37 857.88l-164.47 0c-2.26,0 -4.11,-1.85 -4.11,-4.11 0,-2.27 1.85,-4.1 4.11,-4.1l164.47 0c2.26,0 4.1,1.83 4.1,4.1 0,2.27 -1.84,4.11 -4.1,4.11z"/>
  <path class="fil1" d="M5537.37 891.57l-164.47 0c-2.26,0 -4.11,-1.84 -4.11,-4.1 0,-2.27 1.85,-4.11 4.11,-4.11l164.47 0c2.26,0 4.1,1.85 4.1,4.11 0,2.26 -1.84,4.1 -4.1,4.1z"/>
  <path class="fil1" d="M5537.37 925.28l-164.47 0c-2.26,0 -4.11,-1.84 -4.11,-4.11 0,-2.27 1.85,-4.1 4.11,-4.1l164.47 0c2.26,0 4.1,1.83 4.1,4.1 0,2.28 -1.84,4.11 -4.1,4.11z"/>
  <path class="fil1" d="M5537.37 958.97l-164.47 0c-2.26,0 -4.11,-1.84 -4.11,-4.1 0,-2.27 1.85,-4.1 4.11,-4.1l164.47 0c2.26,0 4.1,1.83 4.1,4.1 0,2.26 -1.84,4.1 -4.1,4.1z"/>
  <path class="fil1" d="M5537.37 992.68l-164.47 0c-2.26,0 -4.11,-1.84 -4.11,-4.1 0,-2.28 1.85,-4.11 4.11,-4.11l164.47 0c2.26,0 4.1,1.83 4.1,4.11 0,2.26 -1.84,4.1 -4.1,4.1z"/>
  <path class="fil13" d="M5615.62 331.69c0,27.43 0,27.43 0,27.43l0 35.79 -1354.51 0 0 -63.24c0,-19.89 16.12,-36.02 36.02,-36.02l1282.46 0c19.89,0 36.02,16.15 36.02,36.04z"/>
  <path class="fil4" d="M5472.92 345.29c0,9.21 -7.48,16.68 -16.68,16.68 -9.23,0 -16.69,-7.48 -16.69,-16.68 0,-9.22 7.46,-16.69 16.69,-16.69 9.21,0 16.68,7.47 16.68,16.69z"/>
  <path class="fil11" d="M5527 345.29c0,9.21 -7.46,16.68 -16.68,16.68 -9.21,0 -16.7,-7.48 -16.7,-16.68 0,-9.22 7.49,-16.69 16.7,-16.69 9.22,0 16.68,7.47 16.68,16.69z"/>
  <path class="fil14" d="M5578.79 345.29c0,9.21 -7.48,16.68 -16.69,16.68 -9.21,0 -16.68,-7.48 -16.68,-16.68 0,-9.22 7.48,-16.69 16.68,-16.69 9.22,0 16.69,7.47 16.69,16.69z"/>
  <path class="fil4" d="M4826.99 760.94c0,61.52 -23.27,117.58 -61.48,159.9l-177.21 -159.9 -11.29 -238.38c3.69,-0.22 7.5,-0.29 11.29,-0.29 131.82,0 238.69,106.86 238.69,238.67z"/>
  <polygon class="fil14" points="5059.37,1026.25 5135.36,1026.25 5135.36,700.64 5059.37,700.64 "/>
  <path class="fil4" d="M5059.37 940.37c26.93,-8.32 52.17,-23.23 75.99,-39.25l0 125.13 -75.99 0 0 -85.88z"/>
  <polygon class="fil14" points="4935.17,1026.25 5011.17,1026.25 5011.17,791.12 4935.17,791.12 "/>
  <path class="fil4" d="M4997.09 945.89c4.74,0.68 9.42,1.1 14.08,1.29l0 79.07 -76 0 0 -78.33c13.45,-4.43 33.12,-6.24 61.92,-2.03z"/>
  <polygon class="fil14" points="5183.58,1026.25 5259.57,1026.25 5259.57,603.37 5183.58,603.37 "/>
  <path class="fil4" d="M5259.57 835.12l0 191.12 -75.99 0 0 -158.67c27.01,-18.34 52.18,-32.55 75.99,-32.46z"/>
  <path class="fil11" d="M5256.48 480.09l-68.57 14.7 18.42 18.07 -105 107.04 -36.84 -36.14 -130.29 132.83c-4.97,5.07 -4.89,13.21 0.17,18.18 5.07,4.97 13.21,4.89 18.18,-0.17l112.29 -114.48 36.85 36.14 123 -125.38 18.42 18.06 13.38 -68.83z"/>
  <path class="fil14" d="M1774.2 45.55l0 190.19c0,25.14 20.4,45.54 45.54,45.54l345.34 0 104.26 37.41c10.71,3.86 20.95,-6.67 16.85,-17.27l-39.43 -101.85 0 -154.01c0,-25.15 -20.4,-45.55 -45.57,-45.55l-381.44 0c-25.14,0 -45.54,20.39 -45.54,45.55z"/>
  <path class="fil15" d="M2074.22 146.05c0,18.2 14.75,32.94 32.93,32.94 18.19,0 32.95,-14.74 32.95,-32.94 0,-18.19 -14.75,-32.94 -32.95,-32.94 -18.19,0 -32.93,14.75 -32.93,32.94z"/>
  <path class="fil15" d="M1969.94 146.05c0,18.2 14.75,32.94 32.93,32.94 18.2,0 32.95,-14.74 32.95,-32.94 0,-18.19 -14.75,-32.94 -32.95,-32.94 -18.19,0 -32.93,14.75 -32.93,32.94z"/>
  <path class="fil15" d="M1865.65 146.05c0,18.2 14.75,32.94 32.94,32.94 18.2,0 32.95,-14.74 32.95,-32.94 0,-18.19 -14.75,-32.94 -32.95,-32.94 -18.19,0 -32.94,14.75 -32.94,32.94z"/>
  <polygon class="fil11" points="1534.14,509.7 1534.54,793.12 1944.84,792.52 1944.43,509.1 "/>
  <polygon class="fil10" points="1534.15,509.71 1534.18,527.87 1739.57,709.4 1944.46,527.28 1944.43,509.11 1739.56,691.85 "/>
  <polygon class="fil10" points="1779.02,656.02 1932.96,792.54 1944.84,792.52 1944.83,785.29 1787.84,646.08 "/>
  <polygon class="fil10" points="1534.54,786.85 1534.54,793.12 1547.5,793.1 1701.04,656.12 1692.19,646.22 "/>
  <polygon class="fil19" points="1944.44,509.1 1739.56,691.85 1534.15,509.7 "/>
  <path class="fil11" d="M3449.33 1268.04l-164.41 0c-10.57,0 -19.15,-8.57 -19.15,-19.15l0 -164.42c0,-10.58 8.58,-19.15 19.15,-19.15l164.41 0c10.58,0 19.15,8.57 19.15,19.15l0 164.42c0,10.58 -8.57,19.15 -19.15,19.15z"/>
  <path class="fil8" d="M3424.47 1124.94c-0.34,-1.41 -0.66,-2.8 -1.01,-4.21 -1.22,-4.92 -3.57,-9.26 -6.89,-13.1 -2.38,-2.75 -5.13,-5.09 -8.23,-6.86 -4.3,-2.47 -9.15,-1.43 -12.31,2.39 -5.66,6.82 -11.29,13.67 -16.87,20.55 -3.42,4.23 -2.86,10 1.39,13.76 3.04,2.7 6.24,5.2 9.39,7.78l1.22 0.81c-7.48,20.15 -20.2,35.71 -38.45,46.93 -2.21,-1.84 -4.52,-3.76 -6.85,-5.69 -1.18,-0.99 -2.36,-1.98 -3.58,-2.92 -3.68,-2.8 -7.92,-3.08 -11.73,-0.6 -1.21,0.79 -2.2,1.96 -3.14,3.09 -5.11,6.16 -10.14,12.39 -15.26,18.54 -1.62,1.96 -2.65,4.11 -3,6.61l0.28 2.74c0.88,1.55 1.5,3.37 2.72,4.58 2.99,2.99 6.28,5.64 10.19,7.41 4.6,2.06 9.39,3.33 14.43,2.89 3.3,-0.3 6.62,-1 9.83,-1.89 8.25,-2.31 15.78,-6.25 22.85,-11.01 7.01,-4.73 13.4,-10.23 19.27,-16.31 7.91,-8.21 14.93,-17.15 21.3,-26.62 5.02,-7.46 9.36,-15.26 12.18,-23.84 1.4,-4.32 2.36,-8.73 2.66,-13.27 0.12,-1.83 0.16,-3.66 0.24,-5.5 -0.22,-2.08 -0.41,-4.17 -0.62,-6.26z"/>
  <path class="fil4" d="M3747.88 1267.48l-171.58 0c-9.44,0 -17.11,-7.66 -17.11,-17.11l0 -171.57c0,-9.46 7.66,-17.11 17.11,-17.11l171.58 0c9.46,0 17.11,7.66 17.11,17.11l0 171.57c0,9.46 -7.66,17.11 -17.11,17.11z"/>
  <path class="fil8" d="M3671.71 1166.2c0,-8.06 -4.17,-12.23 -9.67,-12.23 -5.52,0 -9.54,4.17 -9.54,12.23 0,8.19 4.02,12.36 9.54,12.36 5.49,0 9.67,-4.16 9.67,-12.36zm56.15 -5.52c0,25.67 -14.38,38.97 -31.57,38.97 -10.07,0 -17.46,-3.91 -21.22,-11.7 -3.76,7.4 -10.2,11.7 -20.42,11.7 -14.5,0 -28.48,-12.77 -28.48,-33.45 0,-20.7 13.56,-33.32 28.48,-33.32 7.12,0 12.63,2.3 16.53,6.58l0 -5.37 25.79 0 0 38.42c0,5.65 2.29,7.38 5.24,7.38 3.76,0 6.85,-3.75 6.85,-18.8 0,-24.32 -18.13,-41.52 -45.81,-41.52 -27.53,0 -46.07,19.34 -46.07,44.87 0,26.33 18.14,45.14 45.54,45.14 8.87,0 18.01,-1.74 27.14,-5.91l5.64 16.53c-8.06,3.89 -20.83,6.44 -32.78,6.44 -40.44,0 -66.36,-27 -66.36,-62.2 0,-34.66 25.92,-61.93 66.9,-61.93 38.7,0 64.62,25.92 64.62,58.17z"/>
  <path class="fil14" d="M4025.27 1267.48l-171.58 0c-9.45,0 -17.11,-7.66 -17.11,-17.11l0 -171.57c0,-9.46 7.66,-17.11 17.11,-17.11l171.58 0c9.44,0 17.1,7.66 17.1,17.11l0 171.57c0,9.46 -7.66,17.11 -17.1,17.11z"/>
  <path class="fil8" d="M3950.21 1212.02l-0.12 14.66 -18.6 -0.15 0.1 -14c-13.2,-0.89 -25.96,-4.56 -33.84,-9.5l10.21 -22.62c8.66,5.21 20.25,8.61 30.41,8.68 8.85,0.08 12.03,-1.74 12.06,-4.91 0.09,-11.62 -51.06,-2.66 -50.78,-37.11 0.12,-14.91 11.05,-27.37 32.72,-30.23l0.1 -14.38 18.62 0.15 -0.12 14.13c9.76,0.99 19.24,3.59 26.73,7.87l-9.55 22.5c-9.07,-4.7 -17.63,-7 -25.69,-7.08 -9.1,-0.07 -12.04,2.54 -12.06,5.71 -0.09,11.09 51.06,2.27 50.79,36.32 -0.12,14.25 -10.51,26.58 -31,29.97z"/>
  <path class="fil1" d="M597.17 506.87c0,161.62 131.01,292.64 292.63,292.64 161.62,0 292.63,-131.02 292.63,-292.64 0,-161.62 -131.01,-292.64 -292.63,-292.64 -161.62,0 -292.63,131.02 -292.63,292.64z"/>
  <path class="fil4" d="M597.17 468.78c0,161.62 131.01,292.63 292.63,292.63 161.62,0 292.63,-131.01 292.63,-292.63 0,-161.62 -131.01,-292.63 -292.63,-292.63 -161.62,0 -292.63,131.01 -292.63,292.63z"/>
  <path class="fil8" d="M889.81 706.68c131.18,0 237.91,-106.72 237.91,-237.9 0,-131.18 -106.73,-237.91 -237.91,-237.91 -131.18,0 -237.9,106.73 -237.9,237.91 0,131.18 106.72,237.9 237.9,237.9z"/>
  <path class="fil0" d="M651.9 468.78c0,6.34 0.26,12.61 0.74,18.81 9.62,-122.44 112.33,-219.13 237.17,-219.13 124.86,0 227.54,96.69 237.16,219.13 0.49,-6.19 0.75,-12.47 0.75,-18.81 0,-131.19 -106.72,-237.91 -237.91,-237.91 -131.18,0 -237.91,106.72 -237.91,237.91z"/>
  <path class="fil6" d="M889.8 493.53c1.85,0 3.63,-0.85 4.79,-2.4l116.71 -157.13c1.95,-2.64 1.41,-6.37 -1.24,-8.33 -2.62,-1.96 -6.36,-1.4 -8.32,1.23l-113.88 153.32 -129.41 -56.81c-3,-1.32 -6.52,0.05 -7.84,3.07 -1.32,3.01 0.05,6.52 3.06,7.83l133.76 58.71 2.39 0.5z"/>
  <path class="fil1" d="M1204.56 4085.31c0,21.91 -228.23,39.69 -509.76,39.69 -281.53,0 -509.75,-17.77 -509.75,-39.69 0,-21.91 228.22,-39.68 509.75,-39.68 281.53,0 509.76,17.77 509.76,39.68z"/>
  <polygon class="fil4" points="1060,3910.46 1139.34,2726.86 226,2726.86 305.34,3910.46 "/>
  <polygon class="fil3" points="1131.73,2838.21 237.13,2889.76 230.72,2795.97 1134.61,2795.97 "/>
  <path class="fil20" d="M1169.5 2795.97l-973.67 0c-13.6,0 -24.62,-11.02 -24.62,-24.62l0 -54.45c0,-13.6 11.02,-24.61 24.62,-24.61l973.67 0c13.6,0 24.62,11.01 24.62,24.61l0 54.45c0,13.6 -11.02,24.62 -24.62,24.62z"/>
  <polygon class="fil3" points="1037.03,2986.4 1014.58,3382.08 350.76,3382.08 328.3,2986.4 "/>
  <path class="fil4" d="M715.8 3200.55c0,18.3 -14.84,33.14 -33.13,33.14 -18.29,0 -33.13,-14.84 -33.13,-33.14 0,-18.29 14.84,-33.12 33.13,-33.12 18.29,0 33.13,14.83 33.13,33.12z"/>
  <polygon class="fil3" points="1005.78,3474.75 985.31,3835.53 380.02,3835.53 359.55,3474.75 "/>
  <path class="fil4" d="M715.8 3668.25c0,18.3 -14.84,33.14 -33.13,33.14 -18.29,0 -33.13,-14.84 -33.13,-33.14 0,-18.29 14.84,-33.14 33.13,-33.14 18.29,0 33.13,14.84 33.13,33.14z"/>
  <path class="fil3" d="M585.34 3910.46c-1.81,0 -3.6,0.01 -5.37,0.04 -91.61,1.2 -170.17,64.31 -190.58,151.6l-5.66 24.22 -70.95 0 -6.83 -175.86 279.39 0z"/>
  <path class="fil3" d="M780.22 3910.46c1.81,0 3.6,0.01 5.37,0.04 91.61,1.2 170.17,64.31 190.58,151.6l5.67 24.22 70.64 0 7.13 -175.86 -279.39 0z"/>
  <path class="fil16" d="M500.83 2100.91c0,0 -80.01,22.8 -168.29,-91.6 -63.8,-82.68 -176.72,-259.1 -332.54,-262.12 0,0 184.91,-80.13 348.1,1.48 163.18,81.62 250.26,292.87 152.73,352.24z"/>
  <path class="fil17" d="M548.53 2431.19l-0.22 -0.01c-2.33,-0.11 -4.13,-2.09 -4.01,-4.43 0.05,-1.1 5.18,-111.45 -16.76,-237.06 -20.16,-115.43 -67.94,-267.78 -181.12,-338.01 -1.98,-1.23 -2.6,-3.84 -1.37,-5.81 1.23,-1.99 3.84,-2.61 5.82,-1.37 51.27,31.81 93.78,82.37 126.36,150.26 25.94,54.06 45.68,119.21 58.66,193.62 22.08,126.52 16.89,237.68 16.84,238.79 -0.11,2.25 -1.98,4.01 -4.21,4.01z"/>
  <path class="fil16" d="M561.43 1849.01c0,0 81.02,-18.97 102.58,-161.84 15.59,-103.26 28.55,-312.32 163.26,-390.68 0,0 -200.56,19.82 -303.51,170.45 -102.96,150.62 -76.41,377.57 37.66,382.07z"/>
  <path class="fil17" d="M672.91 2440.53c-1.72,0 -3.34,-1.07 -3.97,-2.78 -0.53,-1.47 -53.91,-148.65 -92.88,-330.25 -22.9,-106.71 -36.41,-204.3 -40.18,-290.02 -4.71,-107.44 5.96,-196.56 31.75,-264.87 0.82,-2.18 3.26,-3.28 5.45,-2.46 2.18,0.82 3.28,3.27 2.46,5.46 -57.55,152.49 -27,383.26 8.77,550.02 38.83,181.04 92.04,327.77 92.57,329.23 0.8,2.19 -0.33,4.62 -2.51,5.42l-1.46 0.26z"/>
  <path class="fil16" d="M703.12 1918.96c0,0 82.43,11.26 153.67,-114.47 51.47,-90.85 138.33,-281.46 292.16,-306.47 0,0 -194.38,-53.21 -344.4,50.65 -150.01,103.85 -206.36,325.28 -101.43,370.28z"/>
  <path class="fil17" d="M715.75 2440.51c-1.99,0 -3.74,-1.38 -4.15,-3.4 -0.26,-1.38 -27.24,-140.24 -28.03,-306.35 -0.46,-97.63 8.08,-185.48 25.39,-261.09 21.7,-94.82 57.35,-170.62 105.94,-225.3 1.56,-1.74 4.23,-1.9 5.97,-0.35 1.74,1.55 1.91,4.23 0.35,5.97 -108.09,121.62 -129.92,328.57 -129.2,480.73 0.79,165.29 27.62,303.37 27.89,304.76 0.45,2.29 -1.05,4.51 -3.33,4.95l-0.82 0.08z"/>
  <path class="fil16" d="M844.75 2111.24c0,0 78.55,27.42 173.34,-81.64 68.51,-78.81 191.51,-248.37 347.24,-242.31 0,0 -179.93,-90.77 -347.59,-18.79 -167.65,71.98 -266.88,277.81 -172.99,342.74z"/>
  <path class="fil17" d="M768.27 2440.51c-2.28,0 -4.15,-1.8 -4.22,-4.1 -0.02,-0.95 -2.38,-96.39 26.46,-213.89 16.95,-69.06 41.2,-132.16 72.08,-187.56 38.66,-69.36 87.87,-126.77 146.26,-170.61 1.87,-1.41 4.52,-1.04 5.91,0.84 1.4,1.87 1.03,4.51 -0.84,5.91 -130.16,97.76 -188.88,246.16 -215.21,353.43 -28.58,116.39 -26.25,210.7 -26.23,211.63 0.07,2.34 -1.76,4.28 -4.09,4.35l-0.13 0z"/>
  <path class="fil11" d="M1022.91 2538.63c-0.24,12.45 -2.21,25.04 -5.87,37.69 -15.99,55.42 -63.7,96.06 -120.79,104.21 -139.36,19.91 -283.11,18.5 -430.59,-0.87 -64.54,-8.51 -117.21,-57.59 -127.44,-121.87 -1.73,-10.87 -2.18,-21.67 -1.29,-32.38 3.05,-37.07 22.07,-73.21 59.39,-108.25l566.8 0c41.74,39.2 60.57,79.73 59.79,121.47z"/>
  <path class="fil10" d="M701.67 2595.08c-180.81,0 -297.47,-35.07 -363.5,-64.5 -2.13,-0.94 -3.09,-3.43 -2.13,-5.58 0.95,-2.12 3.44,-3.08 5.58,-2.13 65.28,29.07 180.72,63.75 360.05,63.75 126.65,0 233.31,-17.11 317.01,-50.86 2.17,-0.87 4.62,0.18 5.5,2.35 0.87,2.16 -0.17,4.62 -2.34,5.5 -84.71,34.16 -192.44,51.47 -320.17,51.47z"/>
  <polygon class="fil21" points="6043.07,1971.42 6111.13,1971.42 6111.13,1270.13 6043.07,1270.13 "/>
  <polygon class="fil22" points="6111.13,1304.21 6111.13,1364.56 6043.07,1385.5 6043.07,1304.21 "/>
  <path class="fil14" d="M6445.09 1292.38c-245.36,37.78 -490.74,37.78 -736.13,0l174.64 -483.15c128.96,-22.25 257.92,-22.25 386.87,0l174.62 483.15z"/>
  <path class="fil15" d="M6074.01 1255.23c-112.02,0 -222.97,-5.96 -336.91,-17.89 -3.77,-0.39 -6.5,-3.78 -6.11,-7.56 0.4,-3.78 3.76,-6.52 7.56,-6.12 226.86,23.75 442.03,23.75 677.15,0 3.76,-0.38 7.16,2.37 7.54,6.15 0.39,3.77 -2.37,7.15 -6.15,7.53 -118.02,11.93 -231.07,17.89 -343.06,17.89z"/>
  <path class="fil15" d="M5832.7 1246.27l-1.66 -0.2c-3.7,-0.91 -5.95,-4.64 -5.02,-8.33l107.22 -431.83c0.92,-3.68 4.64,-5.93 8.34,-5.01 3.68,0.91 5.93,4.64 5.01,8.33l-107.22 431.83c-0.78,3.13 -3.59,5.22 -6.66,5.22z"/>
  <path class="fil15" d="M6322.61 1245.65c-3.1,0 -5.89,-2.09 -6.66,-5.22l-107.09 -431.22c-0.91,-3.68 1.34,-7.41 5.03,-8.33 3.69,-0.91 7.41,1.33 8.34,5.01l107.07 431.21c0.91,3.69 -1.33,7.42 -5.01,8.34l-1.66 0.21z"/>
  <path class="fil15" d="M6077.04 1255.16c-3.79,0 -6.88,-3.09 -6.88,-6.88l0 -448.69c0,-3.79 3.09,-6.87 6.88,-6.87 3.8,0 6.88,3.08 6.88,6.87l0 448.69c0,3.79 -3.08,6.88 -6.88,6.88z"/>
  <polygon class="fil15" points="6244,1902.07 6244,1971.42 5910.2,1971.42 5910.2,1902.07 6077.1,1863.57 "/>
  <path class="fil16" d="M5846.28 1879.81l12.07 -0.02 -0.03 -18.02 -456.46 0.58c-15.13,0.02 -28.83,6.15 -38.73,16.11 -9.88,9.92 -16.03,23.62 -16.01,38.77 0.04,30.28 24.6,54.78 54.88,54.73l456.45 -0.59 -0.02 -15.6 -12.06 0.01 -0.09 -75.98z"/>
  <path class="fil8" d="M5849.41 1879.8l0.09 75.97 -418.84 0.54c-20.45,0.03 -37.04,-16.97 -37.06,-37.93 -0.02,-10.5 4.12,-19.99 10.8,-26.89 6.71,-6.87 15.93,-11.14 26.16,-11.15l418.85 -0.54z"/>
  <path class="fil23" d="M5849.43 1899.04l0.01 11.61 -408.01 0.53c-3.18,0.01 -5.79,-2.6 -5.8,-5.77l0 -0.04c0,-3.19 2.6,-5.8 5.78,-5.8l408.02 -0.52z"/>
  <path class="fil23" d="M5849.46 1927.64l0.02 11.62 -408.02 0.52c-3.18,0.01 -5.79,-2.6 -5.79,-5.77l0 -0.04c0,-3.19 2.6,-5.8 5.78,-5.8l408.01 -0.52z"/>
  <path class="fil4" d="M5805.48 1770.25l12.07 -0.01 -0.03 -18.03 -456.45 0.59c-15.12,0.02 -28.84,6.15 -38.74,16.1 -9.88,9.93 -16.02,23.62 -16,38.77 0.04,30.29 24.6,54.78 54.88,54.73l456.46 -0.58 -0.02 -15.61 -12.07 0.01 -0.1 -75.98z"/>
  <path class="fil8" d="M5808.61 1770.25l0.1 75.96 -418.85 0.55c-20.45,0.02 -37.03,-16.98 -37.05,-37.93 -0.02,-10.51 4.11,-19.98 10.8,-26.89 6.71,-6.87 15.93,-11.14 26.15,-11.16l418.85 -0.53z"/>
  <path class="fil23" d="M5808.63 1789.48l0.01 11.61 -408.01 0.53c-3.19,0 -5.79,-2.6 -5.79,-5.78l0 -0.04c-0.01,-3.18 2.59,-5.79 5.77,-5.79l408.02 -0.52z"/>
  <path class="fil23" d="M5808.67 1818.08l0.02 11.61 -408.02 0.53c-3.18,0.01 -5.8,-2.6 -5.8,-5.78l0 -0.03c0,-3.19 2.6,-5.8 5.79,-5.8l408.01 -0.52z"/>
  <path class="fil14" d="M5885.06 1660.53l12.07 -0.01 -0.03 -18.02 -456.46 0.58c-15.11,0.02 -28.83,6.15 -38.73,16.11 -9.88,9.92 -16.03,23.62 -16,38.77 0.04,30.28 24.6,54.78 54.89,54.73l456.45 -0.59 -0.02 -15.61 -12.06 0.02 -0.1 -75.99z"/>
  <path class="fil8" d="M5888.19 1660.53l0.1 75.97 -418.85 0.54c-20.45,0.02 -37.02,-16.97 -37.05,-37.92 -0.02,-10.51 4.11,-20 10.79,-26.9 6.71,-6.88 15.93,-11.15 26.16,-11.16l418.85 -0.54z"/>
  <path class="fil23" d="M5888.21 1679.77l0.01 11.62 -408.01 0.52c-3.19,0.01 -5.8,-2.6 -5.81,-5.78l0 -0.03c0,-3.18 2.61,-5.79 5.79,-5.8l408.02 -0.52z"/>
  <path class="fil23" d="M5888.25 1708.37l0.02 11.62 -408.02 0.53c-3.18,0 -5.8,-2.6 -5.8,-5.78l0 -0.04c0,-3.18 2.6,-5.8 5.79,-5.8l408.01 -0.53z"/>
  <path class="fil1" d="M6490.04 4083.4c0,31.03 -286.78,56.19 -640.54,56.19 -353.77,0 -640.54,-25.16 -640.54,-56.19 0,-31.04 286.77,-56.19 640.54,-56.19 353.76,0 640.54,25.15 640.54,56.19z"/>
  <polygon class="fil11" points="6409.18,2014.35 6269.11,4085.31 5429.89,4085.31 5289.81,2014.35 "/>
  <polygon class="fil10" points="6399.85,2150.8 5303.46,2213.99 5295.61,2099.05 6403.39,2099.05 "/>
  <path class="fil19" d="M6450.94 2099.05l-1202.88 0c-14.02,0 -25.39,-11.37 -25.39,-25.39l0 -76.3c0,-14.03 11.37,-25.39 25.39,-25.39l1202.88 0c14.02,0 25.38,11.36 25.38,25.39l0 76.3c0,14.02 -11.36,25.39 -25.38,25.39z"/>
  <polygon class="fil10" points="6283.79,2332.41 6256.27,2817.34 5442.72,2817.34 5415.2,2332.41 "/>
  <path class="fil11" d="M5890.1 2594.89c0,22.42 -18.18,40.61 -40.61,40.61 -22.42,0 -40.61,-18.18 -40.61,-40.61 0,-22.42 18.18,-40.61 40.61,-40.61 22.43,0 40.61,18.18 40.61,40.61z"/>
  <polygon class="fil10" points="6245.49,2930.92 6220.4,3373.09 5478.58,3373.09 5453.49,2930.92 "/>
  <path class="fil11" d="M5890.1 3168.07c0,22.44 -18.18,40.61 -40.61,40.61 -22.42,0 -40.61,-18.17 -40.61,-40.61 0,-22.41 18.18,-40.61 40.61,-40.61 22.43,0 40.61,18.19 40.61,40.61z"/>
  <polygon class="fil10" points="6212.45,3484.78 6189.45,3890.06 5509.55,3890.06 5486.55,3484.78 "/>
  <path class="fil11" d="M5890.1 3687.42c0,22.42 -18.18,40.61 -40.61,40.61 -22.42,0 -40.61,-18.19 -40.61,-40.61 0,-22.43 18.18,-40.6 40.61,-40.6 22.43,0 40.61,18.17 40.61,40.6z"/>
 </g>
</svg>
