<svg xmlns="http://www.w3.org/2000/svg" xmlns:xlink="http://www.w3.org/1999/xlink" width="252" height="182" stroke="#000" stroke-linecap="round" stroke-linejoin="round" fill="#fff" fill-rule="evenodd"><style><![CDATA[.B{fill:#2b2c42}.C{fill:#cfd0e9}.D{fill:#fec240}.E{fill:#ef4f4c}.F{fill:#fefefe}.G{fill:#f37565}.H{fill:#f59284}.I{stroke:none}.J{fill:#9fa1cf}.K{fill:#2cbcaf}.L{fill:#4c5aa6}.M{stroke-linejoin:miter}.N{stroke-linecap:butt}.O{stroke-width:.121}.P{fill-rule:nonzero}]]></style><defs><clipPath id="A"><path d="M0 15V0l15 15H0z" fill="#000" class="I M N O"/></clipPath><clipPath id="B"><path d="M6 3c0 3 0 3-3 3-1 0-3 0-3-3 0-1 2-3 3-3 3 0 3 2 3 3z" fill="#000" class="I M N O"/></clipPath><clipPath id="C"><path d="M18 10v4H1c0-1-1-3-1-4C0 4 4 0 10 0c4 0 8 4 8 10z" fill="#000" class="I M N O"/></clipPath><path id="D" d="M46 10c0 1 0 1-1 1 0 0-1 0-1-1l1-1c1 0 1 1 1 1z"/><path id="E" d="M72 46c0 1 0 1-1 1s-1 0-1-1 0-1 1-1 1 0 1 1z"/></defs><g class="I P"><path d="M19 154h0z" class="B"/><path d="M215 165c-8 0-14-1-14-3s6-3 14-3 15 1 15 3-7 3-15 3z" fill="#e1e0e4"/><path d="M163 9h0c0 1 1 1 2 1h0s1 0 1-1h0c1 0 1-1 1-2h0c0-1 0-1-1-2h0c0-1-1-1-1-1h0c-1 0-2 0-2 1h0c-1 1-1 1-1 2h0c0 1 0 2 1 2zm2 0h0-1c-1-1-1-1-1-2h0s0-1 1-1h0c0-1 0-1 1-1h0v1c1 0 1 1 1 1h0c0 1 0 1-1 2zm5-5h0l-1 1h-1l1 1V5v5h1V4zm4 0h-1l-1 1h-1l1 1V5v5h1V4zm3 0h-1l-1 1h-1l1 1 1-1v5h1V4zm1 5h0c1 1 1 1 2 1h0c1 0 1 0 2-1h0V5c-1-1-1-1-2-1h0c-1 0-1 0-2 1h0v4zm3 0h0-2V6c0-1 1-1 1-1h0s1 0 1 1h0v3zm4 0h0c0 1 1 1 1 1h0c1 0 2 0 2-1h0s1-1 1-2h0c0-1-1-1-1-2h0c0-1-1-1-2-1h0s-1 0-1 1h0c-1 1-1 1-1 2h0c0 1 0 2 1 2zm2 0h0-1c-1-1-1-1-1-2h0s0-1 1-1h0V5c1 0 1 0 1 1h0l1 1c0 1-1 1-1 2zm4 0h0c1 1 1 1 2 1h0c1 0 1 0 1-1h0c1 0 1-1 1-2h0c0-1 0-1-1-2h0c0-1 0-1-1-1h0c-1 0-1 0-2 1h0v4zm3 0h0-2V6c0-1 1-1 1-1h0l1 1v3zm5-5h0-1l-1 1v1l1-1v5h1V4zm2 5h0c0 1 0 1 1 1h0c1 0 2 0 2-1h0V5c0-1-1-1-2-1h0c-1 0-1 0-1 1h0c-1 1-1 1-1 2h0c0 1 0 2 1 2zm2 0h0-2V6l1-1s1 0 1 1h0v3zm-39 6h0-1l-1 1s0 1 1 1v-1 5h1v-6zm2 5h0c0 1 1 1 2 1h0s1 0 1-1h0c1 0 1-1 1-2h0c0-1 0-2-1-2h0c0-1-1-1-1-1h0c-1 0-2 0-2 1h0c-1 0-1 1-1 2h0c0 1 0 2 1 2zm2 0h0-1c-1-1-1-1-1-2h0c0-1 0-1 1-2h1c1 1 1 1 1 2h0c0 1 0 1-1 2zm6-5h-1l-1 1h-1c1 0 1 1 1 1v-1h1v5h1v-6zm1 5h0c1 1 1 1 2 1h0c1 0 1 0 2-1h0v-4c-1-1-1-1-2-1h0c-1 0-1 0-2 1h0v4zm3 0h0-2v-4h2v4zm4 0h0c0 1 1 1 1 1h0c1 0 2 0 2-1h0s1-1 1-2h0c0-1-1-2-1-2h0c0-1-1-1-2-1h0s-1 0-1 1h0c-1 0-1 1-1 2h0c0 1 0 2 1 2zm2 0h0-1c-1-1-1-1-1-2h0c0-1 0-1 1-2h1c0 1 1 1 1 2h0c0 1-1 1-1 2zm4 0h0c1 1 1 1 2 1h0c1 0 1 0 1-1h0c1 0 1-1 1-2h0c0-1 0-2-1-2h0c0-1 0-1-1-1h0c-1 0-1 0-2 1h0v4zm3 0h0-2v-4h2v4zm5-5h0-1l-1 1v1-1h1v5h1v-6zm2 5h0c0 1 1 1 1 1h0c1 0 2 0 2-1h0s1-1 1-2h0c0-1-1-2-1-2h0c0-1-1-1-2-1h0s-1 0-1 1h0c-1 0-1 1-1 2h0c0 1 0 2 1 2zm2 0h0-2v-4h2c0 1 1 1 1 2h0c0 1-1 1-1 2zm5-5h0-1l-1 1s0 1 1 1v-1 5h1v-6zm-42 15h0c0 1 1 1 1 1h0c1 0 2 0 2-1h0s1-1 1-2h0c0-1-1-1-1-2h0c0-1-1-1-2-1h0s-1 0-1 1h0c-1 1-1 1-1 2h0c0 1 0 2 1 2zm2 0h0-2v-3l1-1c1 0 1 0 1 1h0l1 1c0 1-1 1-1 2zm4 0h0c0 1 1 1 2 1h0s1 0 1-1h0c1 0 1-1 1-2h0c0-1 0-1-1-2h0c0-1-1-1-1-1h0c-1 0-2 0-2 1h0c0 1-1 1-1 2h0c0 1 1 2 1 2zm3 0h0-2c0-1-1-1-1-2h0l1-1c0-1 0-1 1-1h0l1 1v3zm5-5h0-1l-1 1s-1 0 0 0v1l1-1v5h1v-6zm1 5h0c1 1 1 1 2 1h0c1 0 1 0 2-1h0v-4c-1-1-1-1-2-1h0c-1 0-1 0-2 1h0v4zm3 0h0-2v-3l1-1s1 0 1 1h0v3zm4 0h0c0 1 1 1 2 1h0s1 0 1-1h0c1 0 1-1 1-2h0c0-1 0-1-1-2h0c0-1-1-1-1-1h0c-1 0-2 0-2 1h0c-1 1-1 1-1 2h0c0 1 0 2 1 2zm2 0h0-1c-1-1-1-1-1-2h0s0-1 1-1h0c0-1 0-1 1-1h0v1c1 0 1 1 1 1h0c0 1 0 1-1 2zm6-5h-1l-1 1h-1l1 1 1-1v5h1v-6zm3 0h-1l-1 1c-1 0-1 0 0 0v1l1-1v5h1v-6zm1 5h0c1 1 1 1 2 1h0c1 0 1 0 2-1h0v-4c-1-1-1-1-2-1h0c-1 0-1 0-2 1h0v4zm3 0h0-2v-3c0-1 1-1 1-1h0s1 0 1 1h0v3zm5-5h0-1l-1 1v1h1v-1 5h1v-6z" class="J"/><g class="C"><path d="M83 34h0-41V8h41v26V8H42v26h41z"/><path d="M83 13h0-41V8h41v5-5H42v5h41zM56 29l-6-5v-1l6-5h1v1l-5 4v1l5 4v1h-1zm12 0h0v-1l5-4v-1l-5-4v-1h1l6 5v1l-6 5h-1zm-9 3h0v-1l6-16h1v1l-6 15c0 1-1 1-1 1z"/></g><use xlink:href="#D" class="E"/><use xlink:href="#D" x="5" class="C"/><use xlink:href="#D" x="10" class="D"/><g class="C"><path d="M43 114h0H2V88h41v26-26H2v26h41z"/><path d="M43 93h0H2v-5h41v5-5H2v5h41z"/></g><use xlink:href="#D" x="-40" y="80" class="E"/><use xlink:href="#D" x="-35" y="80" class="C"/><use xlink:href="#D" x="-30" y="80" class="D"/><g class="C"><path d="M114 108c1 0 2-1 3-1 0-1 1-1 0-2h-1c0 1-1 1-2 1s-2 0-2-1c-1-1-1-1-1-2s0-2 1-3c0 0 1-1 2-1s2 1 2 1h1c1 0 0-1 0-1-1-1-2-1-3-1-3 0-5 2-5 5 0 2 2 5 5 5zm8-3c0 1 0 1 1 1 0 0 1 0 1-1v-1h2v-2h-2v-2l-1-1c-1 0-1 1-1 1v2h-2s-1 0-1 1l1 1h2v1zm9 0v1c1 0 1 0 1-1v-1h2l1-1c0-1-1-1-1-1h-2v-2s0-1-1-1v3h-2c-1 0-1 0-1 1 0 0 0 1 1 1h2v1zm120-55h0v26h-41V50v26h41V50z"/><path d="M251 50h0v5h-41v-5 5h41v-5z"/></g><use xlink:href="#D" x="168" y="42" class="E"/><use xlink:href="#D" x="173" y="42" class="C"/><use xlink:href="#D" x="178" y="42" class="D"/><path d="M114 69c1 0 2 0 3-1v-1h-1c-1 1-2 1-2 1-1 0-2 0-3-1 0-1-1-2-1-2 0-1 1-2 1-3 1 0 2-1 3-1 0 0 1 0 2 1h1v-1c-1-1-2-1-3-1-3 0-5 2-5 5 0 2 2 4 5 4zm5-1h0c1 1 2 1 4 1h2l2-2c0-1-1-1-1-2h0s-1 0-1-1h0-2c-1 0-1-1-2-1h0v-2h2c1 0 1 0 2 1h1v-1c-1-1-2-1-3-1h0-3c0 1-1 2-1 2h0c0 1 0 1 1 1h0c0 1 0 1 1 2h2c1 0 1 0 2 1h0v2h-2c-1 0-2-1-3-1h0-1v1zm9 0h0c1 1 2 1 4 1h2c1-1 1-2 1-2h0v-2s-1 0-1-1h0-2c-1 0-1-1-2-1h0v-2h2c1 0 1 0 2 1h1v-1c-1-1-2-1-3-1h0-3c0 1-1 2-1 2h0c0 1 0 1 1 1h0c0 1 0 1 1 2h2s1 0 2 1h0v2h-2c-1 0-2-1-3-1h0-1v1zM32 47c-1-1-2-3-1-4 1-2 3-3 4-2 2 1 2 3 2 5-1 1-3 2-5 1zm6 1v-1h1v-1h2v-4h-2l-1-1v-1l1-1-4-2v1c-1 0-1 1-1 1h-1l-1-1v-1l-4 2 1 1v2h-2v4h1s1 0 1 1v2l3 2 1-1h2l1 1 3-2-1-1zm195 54c-3 0-4-2-4-4 0-3 1-4 4-4 2 0 4 1 4 4 0 2-2 4-4 4zm7-3l-1-1v-1l2-2-2-4-2 1h-1v-1c-1 0-1 0-1-1v-1h-5v1c0 1 0 1-1 1v1h-1l-2-1-2 4 1 1c1 0 1 1 1 1v1s0 1-1 1l-1 1 2 4 2-1h1v1c1 0 1 0 1 1v1h5v-1c0-1 0-1 1-1v-1h1l2 1 2-4-1-1zM100 22c-2 0-3-1-3-3 0-1 1-3 3-3s3 2 3 3c0 2-1 3-3 3zm5-2v-2h1l-2-3h-2v-2h-4v2h-3l-1 3h1v2l-1 1 1 3 1-1h1s1 0 1 1v1h4v-1c0-1 0-1 1-1h1v1l2-3-1-1zM22 33c-1 0-3-1-3-3s2-3 3-3c2 0 3 1 3 3s-1 3-3 3zm6-2c-1 0-1-1-1-1 0-1 0-1 1-1v-1l-1-3-1 1h-2v-2h-4v2h-1l-1-1-2 3 1 1v2h-1l2 4 1-1h1v2h4v-2h2l1 1 1-4z" class="C"/><path d="M211 96s-7-5-10-14c-2-10-4-30-4-30s15 17 16 28c2 10-2 16-2 16zm10 7s-1-11 4-19c5-9 21-15 21-15s-10 19-14 25c-5 5-11 9-11 9zm-1 26s1-9 4-15 14-14 19-16c0 0-6 26-23 31zm-10-8s-8-5-12-13c-4-9-5-21-5-21s19 15 17 34z" class="E"/><g class="B"><path d="M217 157c-1-7-2-14-2-21 0-4 0-8 1-11 0-4 0-7 1-11 1-3 2-7 3-10l1-2c1-1 1-2 1-3l1-1v-1l2-3c1-3 3-6 5-9 0-1 1-1 1-2 1-1 2-1 2-2 1-2 2-3 4-4l-3 3s0 1-1 1c0 1-1 1-1 2l-2 2c-2 3-3 6-5 10 0 0-1 1-1 2v1l-1 1-1 3-1 2c-1 4-2 7-3 11-2 6-2 14-2 21v10c0 4 1 7 1 11z"/><path d="M204 70c1 3 2 6 3 10l3 9 1 5 1 3v2c1 4 1 7 2 10 0 4 1 7 1 10l1 11v10l-1-10c-1-7-1-14-2-21-1-6-2-13-4-19-1-4-1-7-2-10l-3-10z"/><path d="M232 110l-5 8-4 8c-2 3-3 5-4 8-1 1-2 3-2 4-1 1-1 3-1 4v-3l1-1c0-2 0-3 1-4 1-2 1-3 2-4 1-2 1-3 2-4l2-4 3-4 5-8zm-31-8c2 3 4 7 5 10 2 4 3 7 5 11 1 3 2 7 3 11 1 2 1 3 1 5 1 2 1 4 1 6 0-2-1-4-1-6s-1-3-1-5c-1-2-1-4-2-6-1-1-1-3-2-5s-1-4-2-5l-2-6-5-10z"/></g><path d="M225 134l-1 2v8l-1 17h-15l-2-27z" class="D"/><path d="M224 137h0v7h-18v-7z" class="B"/><path d="M205 138h21v-5h-21z" class="D"/></g><image width="19" height="19" xlink:href="story-img-3_Images\story-img-3_ImgID1.png" clip-path="url(#A)" transform="translate(12 49)"/><image width="8" height="8" xlink:href="story-img-3_Images\story-img-3_ImgID2.png" clip-path="url(#B)" transform="translate(213 24)"/><image width="23" height="17" xlink:href="story-img-3_Images\story-img-3_ImgID3.png" clip-path="url(#C)" transform="translate(219 33)"/><g class="I P"><path d="M198 168h0c0-4-30-7-67-7-36 0-66 3-66 7 0 0 0 1 1 1H52c-28 0-50 2-50 6 0 3 22 6 50 6 27 0 49-3 49-6v-1c9 1 19 1 30 1 37 0 67-3 67-7z" fill="#e1e0e4"/><g class="B"><path d="M146 31c-1 1-2 1-3 2 2-3 2-10 1-9-1 5-3 10-4 10h0c-3 1-6 0-8-1h0c2-4 2-10 2-10-2 4-5 7-6 7h0c-2-2-3-4-3-4 2-2 4-6 6-10h0c1-4 3-9 4-11h0c3-5 7-4 10-3 9 5 3 28 1 29z"/><path d="M139 2c-2 0-4 2-4 4-2 2-2 4-3 6-2 5-5 9-8 12 4-2 6-6 8-10 1-2 1-4 2-6s1-3 2-4 2-1 3-2z"/></g><path d="M147 17c-3 2-5 17-7 17-3 2-10 1-13 1-2 0-6 6-5 7s18 3 23 1c2-1 4-11 5-16 0-4-2-11-3-10z" class="H"/><g class="K"><path d="M146 44c-3 3-21 2-21 1-1-1-1-2-1-2l5-7s0-2 2-2c1 0 8 1 9 1 1-1 3-13 7-18h1c1 1 2 5 2 8 0 4-1 15-4 19z"/><path d="M130 34l-6 10-2-2 4-8h4z"/></g><path d="M125 44c1-2 5-8 5-9v-1l-5 10zm22-1l-2-17 3-9c2 1 3 5 3 8 0 4-2 15-4 18z" class="B"/><path d="M148 17c-1 2-4 11-3 13 1 3 4 4 4 4s2 10 3 11 15 1 20-8c1-2-6-15-12-19-4-3-10-7-12-1z" class="K"/><path d="M157 29c-1 1-2 2-3 2-1 1-3 1-4 1h5c1-1 1-2 2-3zm-5 3c-1 0-2 1-3 1 1 0 2 0 3-1zm-4 1h0c-2-1-4-3-4-5s1-4 1-6c-1 3-1 6-1 7 1 2 2 3 4 4v2h1c0-1-1-1-1-2zm8-11l9 14 3-7z" class="B"/><g class="H"><path d="M146 17l-1 2s1 2 4 1c2 0 3-6 3-6h-3c-2 1-3 3-3 3z"/><path d="M148 20c-1 0-2-2-2-3h0l-3-3 2-4 1-1 1 2 1 1c1 1 2 3 2 3s0 4-2 5z"/></g><path d="M146 17h0l-3-3 2-4 1-1 1 2c1 1 1 5-1 6z" class="B"/><path d="M136 11c2 6 6 5 7 5 2 0 6-1 5-8-1-6-4-7-7-7-3 1-6 3-5 10z" class="H"/><g class="B"><path d="M137 10h1V9h-1v1zm5-1h-1V8h1v1zm-1 1h0l1 1s-1 0-1-1z"/><path d="M141 9c1 0 1 1 1 1-1 1-1-1-1-1z"/><path d="M142 9h1v1s-1 0-1-1zm-3 2h0v1-1z"/><path d="M138 10s0 2 1 1c0 0 0-1-1-1z"/><path d="M138 10c0 1 0 1-1 1h1v-1zm4 3c0 1 0 1-1 1h1v-1zm-2-1v1c1 0 1 0 1-1h0c0 1 0 1-1 1v-1h-1V8v5l1-1z"/><path d="M140 13h1c1 0 1 0 0-1 0 0 0 1-1 1z"/></g><path d="M141 14c1 0 1-1 1-1-1 0-1 0-1 1z" class="E"/><g class="B"><path d="M148 9c-1 0-2-2-2-2s-2 0-4-1-2-2-2-2c-1 4-4 5-4 5s-1-3 0-5c1-1 4-4 8-3 0 0 2 1 3 3 2 2 2 5 1 5z"/><path d="M139 4h0c0 2 2 3 4 3 1 1 2 1 4 1-2 0-3 0-5-1-1 0-3-1-3-3z"/></g><path d="M147 9s1-2 2-2 1 3 0 4-2 0-2 0V9z" class="H"/><path d="M149 8h0c-1 1-1 1-1 2h0v1c0-1 0-3 1-3z" class="B"/><path d="M148 11c1 0 1 1 1 1-1 0-1-1-1-1z" fill="#ecf4fb"/><g class="D"><path d="M134 21c0-4-5-7-10-7-6 0-10 3-10 7s4 8 10 8c5 0 10-4 10-8z"/><path d="M129 16l5-1-2 4z"/></g><path d="M120 21c0-1 0-1-1-1s-1 0-1 1 0 1 1 1 1 0 1-1zm5 0c0-1-1-1-1-1-1 0-1 0-1 1s0 1 1 1c0 0 1 0 1-1zm4 0c0-1 0-1-1-1 0 0-1 0-1 1s1 1 1 1c1 0 1 0 1-1zm75 22v93c0 4-3 7-6 7H68c-4 0-7-3-7-7V43c0-4 3-7 7-7h130c3 0 6 3 6 7z" class="B"/><path d="M69 121h129V44H69z" class="F"/><path d="M204 128v9c0 4-3 7-6 7H68c-4 0-7-3-7-7v-9h143z" class="C"/><path d="M163 168h-61v-1c0-2 2-4 4-4h53c2 0 4 2 4 4v1z" class="J"/><path d="M157 163h-47l3-19h41l1 10z" class="C"/><path d="M69 48h129v-4H69z" class="L"/><path d="M76 85h35V60H76z" class="C"/><path d="M108 73c0 4-3 7-7 7-2 0-4-1-6-3h3v-5h-4c0-3 3-6 7-6s7 3 7 7zm-13 5H80v-5h14v1c0 1 0 3 1 4z" class="F"/><g class="C"><path d="M189 113h0-73V89h73v24h1V89h-74v24h74z"/><path d="M116 89l73 24-73-24z"/><path d="M189 89l-73 24 73-24z"/></g><path d="M116 61h34v-1h-34zm0 3h34v-1h-34zm0 3h34v-1h-34zm0 3h34v-1h-34zm0 3h20v-1h-20zm0 3h34v-1h-34zm0 3h34v-1h-34zm0 3h34v-1h-34zm0 2h25v-1h-25z" class="J"/><path d="M76 114h35V90H76z" class="K"/><path d="M79 113h2v-2h-2z" class="F"/><path d="M84 113h2v-8h-2z" class="E"/><path d="M88 113h2v-12h-2z" class="L"/><path d="M93 113h2V96h-2z" class="D"/><path d="M97 114h2V92h-2z" class="G"/><path d="M102 114h2v-6h-2z" class="F"/><path d="M106 114h2v-13h-2z" class="E"/><path d="M188 87l-34-4 4-25 34 5z" class="D"/><g class="E"><path d="M186 84l-12-1 9-17zm-14-5l-12-2 8-9z"/><use xlink:href="#E"/></g><use xlink:href="#E" x="4" class="F"/><use xlink:href="#E" x="8" class="D"/><path d="M143 56h46v-4h-46z" class="C"/><path d="M76 56h4v-4h-4z" class="K"/><path d="M82 56h4v-4h-4z" class="D"/><path d="M88 56h4v-4h-4z" class="E"/><path d="M99 56h20v-4H99z" class="C"/><path d="M135 135c0 1-1 2-2 2-2 0-3-1-3-2 0-2 1-3 3-3 1 0 2 1 2 3z" class="J"/><path d="M155 152h-44v-2l1-6h41l1 7z" class="B"/><g class="H"><path d="M129 36c-2-1-4-2-5-2s-1 1-1 1-1-1-2-1l-1 1h-1c-1 0-1 1-1 1s-1-1-1 0c-2 1-1 7 2 7 1 1 1-1 1-1s1 2 2 2 1-2 1-2 1 2 2 1c1 0 0-2 0-2l2 1c2-1-1-4-1-5h3v-1z"/><path d="M127 35c1 0 3-2 4-2 2 0 1 3-2 4h-2v-2z"/></g><path d="M118 36h0c0 2 0 4 2 6-1-2-2-4-2-6zm2-1h0c0 2 1 5 3 7-1-1-2-5-3-7zm5 6c-1-2-2-4-2-6h0c0 1 0 3 1 4 0 1 1 2 1 2h0z" class="B"/><g class="H"><path d="M154 15c3 0 15 6 21 13 5 4-2 25-3 26-2 0-8-1-9-2-1-2 5-19 5-20-1-1-8-6-12-10-2-3-4-7-2-7z"/><path d="M163 47c0 1-2 7-2 9s1 6 2 7c1 0 1-2 1-2s1 2 2 2c2 1 2-2 2-2s0 2 1 2c2 0 1-2 1-2s1 2 2 1c2 0 0-5 0-5 0-1 2-4 1-6l1-3-11-1z"/></g><path d="M170 61c-1-3-1-4-1-7-1 3-1 4 1 7zm-3 0c-1-3-1-4-1-7 0 3 0 4 1 7zm-3 0c-1-3-1-4 0-7-1 3-1 5 0 7z" class="B"/><g class="K"><path d="M153 19c3 6 13 12 13 13 1 1-4 10-4 12s1 3 1 3l11 1s1 0 2-3c2-3 2-13 0-16s-9-10-21-14c-3-1-4 0-2 4z"/><path d="M163 46l11 1-1 3-11-1 1-3z"/></g><path d="M174 47c-2 0-9-1-11-1 2 1 9 1 11 1zm-21-32c0 2-1 4-2 6-2 1-4 0-6-1h0c1 2 3 2 5 1s3-4 3-6z" class="B"/><path d="M90 174c-1 0-28 0-29-1-1 0-1-4-1-8v-18h18v18s10 4 11 5 2 4 1 4z" class="G"/><path d="M90 174c-1 1-28 1-29 0-1 0-1-6-1-12h18l-1 3s11 5 12 6c1 0 2 3 1 3z" class="F"/><path d="M90 174c-1 1-28 1-29 0-1 0-1-4-1-9h17s11 5 12 5c1 1 2 4 1 4z" class="E"/><g class="B"><path d="M89 173H62h27zm-2-4c-1 0-2 1-3 1 0 1-1 2-1 3h0c1-2 2-4 4-4h0zm-8-4c-2 0-4 1-5 2 2-1 3-1 5-2zm1 1c-1 0-3 0-5 2h1c1-1 3-2 4-2h0z"/><path d="M82 166c-2 0-4 1-5 2 2 0 3-1 5-2zm2 1c-2 0-4 0-5 2 1-1 3-2 5-2zm-20 2c-3 0-3 3 0 3 2 0 2-3 0-3zm15-5c0 1-1 1-2 1 1 0 1-1 1-2l1-1c0-1 2-2 2-1 0 2-1 3-2 3zm2-4c-1 0-2 0-2 1-1 1-2 3-2 5 2-1 3-2 4-3s1-2 0-3z"/><path d="M72 166c-1-1 1-2 2-1h1c1 0 2 1 3 1-1 0-2 0-3 1-1 0-2 0-3-1zm1 1h5v-1c-1-1-3-2-5-2 0 0-2 0-2 1s1 2 2 2z"/></g><path d="M18 166c-1-1-17-22-17-24 0 0 3-3 7-6l2-1 12-9 10 15-14 9 2 13c0 1-1 3-2 3z" class="G"/><path d="M18 166c-1 0-17-22-17-23s4-4 9-8l11 14-3 2 2 12c0 2-1 4-2 3z" class="F"/><path d="M18 166c-1 0-17-22-17-23s3-3 7-6l10 14 2 12c0 2-1 4-2 3z" class="E"/><g class="B"><path d="M18 165c-2-4-13-19-16-22h0c2 4 13 18 16 22zm2-4c-1-1-2-2-3-2s-1 0-2 1h0c1-1 4 0 5 1h0zm-2-9c-1-1-2-3-4-3 1 1 3 2 4 3zm1 2c-1-2-3-3-5-3 2 1 3 2 5 3z"/><path d="M20 155c-1-1-3-3-5-3v1c2 0 3 1 5 2 0 1 0 0 0 0zm0 2c-1-2-3-3-4-3 1 1 3 2 4 3zM7 142c-1-2-4 0-3 1 2 2 4 0 3-1zm13 10c-1-1-2-1-2-1s1-1 2-1h2s3 0 1 2h-3zm4-1c0-1-1-2-2-2-2 0-3 1-5 2h0c2 1 3 2 5 2 1 0 2-1 2-2z"/><path d="M14 146c0-2 2 0 2 1v1c1 1 1 2 1 3l-2-2s-2-2-1-3zm-1 2c1 1 2 2 4 3 0-1 0-3-1-5 0 0-1-1-2-1-1 1-1 2-1 3z"/></g><path d="M79 160H60v-41c-1-4-3-19-6-32h0v-2l-3-15h20l7 49c1 7 1 41 1 41z" class="L"/><path d="M77 156H60v1h17v-1zM67 87l-8 40v-8c-1-3-3-19-6-32h0v-1l14 1z" class="B"/><path d="M70 70c1 10-3 13-3 13s-9 29-13 37c-5 9-32 29-32 29l-12-16s24-15 26-19c2-2 11-25 10-27-1-10 2-17 2-17h22z" class="L"/><g class="B"><path d="M66 86c-1 5-2 7-3 11-2 5-4 9-5 13v1c2-5 3-9 5-14 2-4 2-6 3-11z"/><path d="M69 85c-1 1-3 2-5 3l6-3h-1zm-1-14v6c0 1 0 7-2 7v-6c0-2 0-4-1-7 0 3 1 6 1 9 0 2-1 4 1 4 1 0 2-4 2-5 0-2 0-5-1-8z"/><path d="M66 84v1l1-1h-1zm-41 63c-2-3-1-2-3-4-1-2-6-9-7-10h0c1 1 6 9 7 10l3 4z"/></g><path d="M62 46c0 3 5 21 11 25 5 3 20 1 23 0 2-1-1-9-2-10s-14 1-15 1c-2-1-8-8-11-13-2-3-6-5-6-3z" class="G"/><path d="M62 46c-1 2 3 16 3 16l9-5c0-1-4-6-6-9-2-2-5-4-6-2z" class="D"/><path d="M73 55c-1 1-7 4-8 5 2-1 7-4 8-5h0z" class="B"/><path d="M59 46c-3 2-6 6-7 9-1 4-4 16-3 16s8 6 14 4c6-1 9-2 10-3s-3-18-4-21c0-3-3-6-3-6-1 0-6 0-7 1z" class="F"/><path d="M67 47c0-1 0-1 0 0s0 2-1 3-2 0-3 0c-2-1-3-3-4-4 1 2 3 4 5 4 3 1 4-1 3-3z" class="C"/><path d="M61 78s-2 0-5-1l-1-1h-1c-2-1-4-2-6-4-1-1 2-10 4-15v-2l1-1v-2c1-3 7-7 7-7l1 33zm5-33l5 31c1 0 3-3 3-4 0-2-4-21-5-22-1-2-3-5-3-5z" class="D"/><path d="M71 54v-1h-1v1-3l3 15c0 1 0 1 0 0 0-4-1-8-2-12zm-13-3l-3 25h-1v-1c-2 0-4-2-6-3-1-1 2-10 4-15v-2l6-4z" class="B"/><path d="M65 49c-2 0-5-2-6-4v-6h2l5 1s-1 2-1 4v1c1 0 1 3 0 4z" class="G"/><path d="M66 44h0-1c-4 1-5-5-5-5h2l4 1v4zm1-16s2 1 2 3v5c-1 0-2-8-2-8z" class="B"/><path d="M58 31c-1 3 0 9 2 11s6 2 8 0c2-3 1-12-1-13-3-2-8-1-9 2z" class="G"/><g class="B"><path d="M58 38c1 0 1-2 1-3 1-1 0-4 0-4s4 2 6 1 3-3 3-4-3-2-5-2-5 3-5 3l1-1s-1 1-1 2v-2l-1 2s-1 2-1 3 1 5 2 5z"/><path d="M67 31c-1 0-1 1-2 1h-2c-1 0-2-1-2-1-1 0-1-1-2-1 1 1 3 2 4 2 1 1 3 0 4-1h0z"/></g><path d="M59 38s-2-2-3-2c-1 1 0 4 2 4 1 1 1 0 1 0v-2z" class="G"/><path d="M57 37h0c1 0 1 1 1 2 0 0 0-1 0 0h0s1 0 1 1h0c0-1-1-3-2-3z" class="B"/><path d="M60 42h0z" fill="#f6a29d"/><g class="B"><path d="M63 36h0v1-1zm0-1s0 1 1 1c0 0 0-1-1-1zm4 0h0v1-1z"/><path d="M67 35s1 1 0 1-1-1 0-1zm-5 0l1-1c0-1 0-1 0 0h-1v1zm5-1h-1v-1h1c1 1 0 1 0 1zm-3 5v1-1zm0-1c0 1 1 1 1 1h1v-1c0-2 0-3-1-5 1 2 1 3 1 4h-1l1 1c-1 1-1 0-2 0h0z"/></g><path d="M102 71l-65 34-11-21 65-34z" class="J"/><path d="M49 83c1 2 1 5 1 7-1 1-2 3-4 3-1 1-3 1-5 1s-4-2-5-4c-2-4-1-8 3-10s8-1 10 3z" class="C"/><path d="M44 84c1 1 0 3-1 3-1 1-3 0-4-1 0-1 0-3 2-4 1 0 3 0 3 2zm5 6c0 1-2 3-3 4-2 0-4 1-5 0-2-2-1-5 2-6 2-2 5-1 6 2z" class="F"/><path d="M90 62L53 81v-1l37-19z" class="L"/><path d="M67 75l-13 7v-1l13-7zm25-10L55 84v-1l37-19zm1 2L56 86v-1l37-19zm-13 9L57 88v-1l22-12z" class="F"/><path d="M52 74h2v1l1 1h-2v1l-1-1h-1l1-1zm5-3l1 1h1l-1 1 1 1h-1l-1 1v-1l-1-1 1-1zm4-2l1 1 1-1v1l1 1h-1l-1 1-1-1h-1l1-1zm5-3l1 1h1v2h-1l-1 1v-1l-1-1h1zm4-2l1 1 2-1-1 2 1 1h-1l-1 1v-2h-2l1-1z" class="D"/><g class="G"><path d="M97 58c1 1 3 2 4 3 0 1-1 2-1 2s2 0 2 1l-1 1s1 0 1 1c1 1 0 1 0 1s1 1 1 2c-1 1-6 3-8 1-1-1 1-1 1-1s-3 0-3-1 2-2 2-2-3 0-3-1 2-1 2-1-2-1-2-2c0-2 4-1 5-1l-1-2 1-1z"/><path d="M99 59c-1-1 0-3-1-5 0-1-3 2-2 4l1 2 2-1z"/></g><path d="M102 67h0c-2 1-4 2-6 1 2 0 4 0 6-1zm0-3h0c-2 1-5 2-7 2 0 0 0-1 0 0 2 0 5-1 7-2zm-8-1c2 0 5 0 7-1h0c-1 1-3 1-4 1h-3z" class="B"/><g class="G"><path d="M57 46c-3 2-17 14-17 21 0 6 6 15 8 17 1 2 9-3 10-5 0-1-7-11-7-12s4-9 6-14c2-3 2-8 0-7z"/><path d="M62 88c1 1 3 2 3 3-1 1-3 0-3 0s2 2 1 3c-1 0-3-1-3-1s2 1 0 2c-1 1-2 0-2 0s0 1-1 1c-2 0-4-2-5-3l-4-9 9-6s3 2 4 3c2 1 5 5 4 6s-3-2-4-3h-1c0 1 1 3 2 4z"/></g><path d="M62 91c-2-2-3-3-4-5h-1c1 2 2 4 5 5zm-2 2l-5-5c1 2 2 4 5 5zm-3 2c-2-2-3-3-4-6 1 3 2 4 4 6h0z" class="B"/><path d="M57 46c-2 1-12 10-12 10 0 1 8 6 9 6 0 0 3-6 4-9s1-8-1-7z" class="D"/><path d="M54 60c-1-1-6-4-8-5 1 1 7 4 8 5z" class="B"/></g></svg>