<svg width="349" height="178" fill="none" xmlns="http://www.w3.org/2000/svg"><g clip-path="url(#clip0)"><path d="M211.466 179.603c-1.757 0-3.035-1.442-3.035-3.044V20.829c0-1.763 1.438-3.045 3.035-3.045 1.598 0 3.035 1.442 3.035 3.044V176.4c0 1.762-1.437 3.204-3.035 3.204z" fill="#2E4BF5" opacity=".6"/><path opacity=".6" d="M265.298 121.605H-50.663v11.696h315.961v-11.696z" fill="#2E4BF5"/><path opacity=".2" d="M265.298 66.17H-50.663v24.833h315.961V66.17zm0-32.524H-50.663v24.833h315.961V33.646z" fill="#2E4BF5"/><path opacity=".3" d="M211.466 48.866a2.88 2.88 0 0 0 2.875-2.884 2.88 2.88 0 0 0-2.875-2.884 2.88 2.88 0 0 0-2.875 2.884 2.88 2.88 0 0 0 2.875 2.884zm0 32.684a2.88 2.88 0 0 0 2.875-2.883 2.88 2.88 0 0 0-2.875-2.884 2.88 2.88 0 0 0-2.875 2.883 2.88 2.88 0 0 0 2.875 2.884z" fill="#fff"/></g><path d="M148.305 23.874l-11.978-8.311v-9.91c0-3.036 2.715-5.434 6.069-5.434 3.353 0 6.068 2.398 6.068 5.435v18.22h-.159z" fill="#2E4BF5"/><path d="M136.517 15.286v-9.59l26.99 16.942v5.274h-14.373c-7.027 0-12.617-5.594-12.617-12.626z" fill="#2E4BF5"/><path d="M150.54 26.59h-1.597v7.033h1.597v-7.032zm3.993 0h-1.597v7.033h1.597v-7.032z" fill="#2E4BF5"/><path d="M148.305 11.887v15.982h22.997l-22.997-15.982zM130.258 8.21l6.229-2.557v4.955l-6.229-2.397z" fill="#2E4BF5"/><defs><clipPath id="clip0"><path fill="#fff" transform="translate(-162)" d="M0 0h511v179.603H0z"/></clipPath></defs></svg>