<svg xmlns="http://www.w3.org/2000/svg" xmlns:xlink="http://www.w3.org/1999/xlink" width="314.379" height="177.627" viewBox="0 0 314.379 177.627"><defs><clipPath id="a"><rect x="82" width="314.379" height="177.627" fill="none"/></clipPath><clipPath id="b"><path d="M505.379,0H0V177.627H505.379Z" fill="#fff"/></clipPath></defs><g transform="translate(-82)" clip-path="url(#a)" style="isolation:isolate"><g transform="translate(0.302 -0.219)"><g transform="translate(-0.302 0.219)" clip-path="url(#b)"><path d="M211.433,177.823a3,3,0,0,0,3-3.011V20.8a3,3,0,0,0-3-3.012,3.112,3.112,0,0,0-3,3.011V174.655a3.145,3.145,0,0,0,3,3.169Z" transform="translate(-75.411 -0.196)" fill="#2e4bf5" opacity="0.6"/><path d="M-50.663,121.605H261.823v11.567H-50.663V121.605Z" transform="translate(133.444 -1.338)" fill="#2e4bf5" opacity="0.6"/><path d="M-50.663,65.812H261.823v24.56H-50.663Zm0-32.166H261.823v24.56H-50.663Z" transform="translate(133.444 -0.37)" fill="#2e4bf5" opacity="0.2"/><path d="M211.434,48.8a2.852,2.852,0,1,1,2.843-2.852,2.848,2.848,0,0,1-2.843,2.852Zm0,32.324a2.852,2.852,0,1,1,2.843-2.852,2.848,2.848,0,0,1-2.843,2.852Z" transform="translate(-75.413 -0.474)" fill="#fff" opacity="0.3"/></g><g transform="translate(175.74 0.219)"><path d="M136.484,23.614l11.846-8.22v-9.8c0-3-2.685-5.374-6-5.374s-6,2.372-6,5.375v18.02Z" transform="translate(-113.74 -0.219)" fill="#2e4bf5"/><path d="M163.21,15.181V5.7L136.517,22.452v5.216h14.215A12.409,12.409,0,0,0,163.21,15.181Z" transform="translate(-128.808 -0.279)" fill="#2e4bf5"/><path d="M152.892,26.59h1.579v6.956h-1.579V26.591Zm-3.949,0h1.579v6.956h-1.579V26.591Z" transform="translate(-132.358 -0.509)" fill="#2e4bf5"/><path d="M153,11.818V27.625H130.258L153,11.818Zm17.848-3.637-6.16-2.529v4.9l6.16-2.371Z" transform="translate(-130.258 -0.279)" fill="#2e4bf5"/></g></g></g></svg>