<?xml version="1.0" encoding="UTF-8"?>
<!DOCTYPE svg PUBLIC "-//W3C//DTD SVG 1.1//EN" "http://www.w3.org/Graphics/SVG/1.1/DTD/svg11.dtd">
<!-- Creator: CorelDRAW 2020 (64-Bit Evaluation Version) -->
<svg xmlns="http://www.w3.org/2000/svg" xml:space="preserve" width="171.112mm" height="142.951mm" version="1.1" style="shape-rendering:geometricPrecision; text-rendering:geometricPrecision; image-rendering:optimizeQuality; fill-rule:evenodd; clip-rule:evenodd"
viewBox="0 0 4366.39 3647.79"
 xmlns:xlink="http://www.w3.org/1999/xlink"
 xmlns:xodm="http://www.corel.com/coreldraw/odm/2003">
 <defs>
  <style type="text/css">
   <![CDATA[
    .fil10 {fill:#EBE7DB;fill-rule:nonzero}
    .fil22 {fill:#E9E4D8;fill-rule:nonzero}
    .fil27 {fill:#DEDDD1;fill-rule:nonzero}
    .fil9 {fill:#DCDACF;fill-rule:nonzero}
    .fil21 {fill:#D8D7C9;fill-rule:nonzero}
    .fil1 {fill:#D7EACF;fill-rule:nonzero}
    .fil20 {fill:#CCCBC0;fill-rule:nonzero}
    .fil19 {fill:#C4C3B9;fill-rule:nonzero}
    .fil32 {fill:#C0BFB6;fill-rule:nonzero}
    .fil18 {fill:#BAB9B0;fill-rule:nonzero}
    .fil17 {fill:#B2B3A9;fill-rule:nonzero}
    .fil3 {fill:#AFB2AD;fill-rule:nonzero}
    .fil31 {fill:#AEAFA8;fill-rule:nonzero}
    .fil5 {fill:#AAA39A;fill-rule:nonzero}
    .fil16 {fill:#A9A9A3;fill-rule:nonzero}
    .fil8 {fill:#A9A9A1;fill-rule:nonzero}
    .fil30 {fill:#A3A39C;fill-rule:nonzero}
    .fil15 {fill:#A1A29C;fill-rule:nonzero}
    .fil14 {fill:#9B9A93;fill-rule:nonzero}
    .fil29 {fill:#969891;fill-rule:nonzero}
    .fil4 {fill:#9AAB9E;fill-rule:nonzero}
    .fil13 {fill:#93958F;fill-rule:nonzero}
    .fil7 {fill:#92928C;fill-rule:nonzero}
    .fil12 {fill:#898B85;fill-rule:nonzero}
    .fil28 {fill:#878982;fill-rule:nonzero}
    .fil11 {fill:#82847F;fill-rule:nonzero}
    .fil26 {fill:#7A7C77;fill-rule:nonzero}
    .fil6 {fill:#7A7B77;fill-rule:nonzero}
    .fil25 {fill:#727470;fill-rule:nonzero}
    .fil24 {fill:#6B6D6A;fill-rule:nonzero}
    .fil23 {fill:#646562;fill-rule:nonzero}
    .fil2 {fill:#F37E76;fill-rule:nonzero}
    .fil0 {fill:#FFC325;fill-rule:nonzero}
   ]]>
  </style>
 </defs>
 <g id="Layer_x0020_1">
  <metadata id="CorelCorpID_0Corel-Layer"/>
  <path class="fil0" d="M1859.87 848.14c0,-468.42 379.73,-848.14 848.14,-848.14 468.42,0 848.14,379.73 848.14,848.14 0,468.41 -379.73,848.14 -848.14,848.14 -468.41,0 -848.14,-379.73 -848.14,-848.14z"/>
  <path class="fil1" d="M418.15 1192.59c230.94,0 418.15,187.22 418.15,418.15 0,171.9 -103.71,319.57 -251.98,383.84 -130.75,-241.68 -221.44,-508.2 -263.18,-790.67 31.13,-7.4 63.62,-11.31 97.01,-11.31zm-105.1 13.32c41.9,282.9 132.71,549.77 263.58,791.9 -48.88,20.03 -102.38,31.08 -158.48,31.08 -230.94,0 -418.15,-187.22 -418.15,-418.16 0,-194.63 132.98,-358.21 313.05,-404.82z"/>
  <path class="fil2" d="M2068.31 2941.62c134.25,0 243.08,108.84 243.08,243.09 0,14.75 -1.31,29.22 -3.83,43.26 -161.75,-27.02 -318.13,-70.15 -467.28,-127.66 34.3,-92.65 123.45,-158.7 228.03,-158.7zm-230.79 166.54c149.6,57.67 306.2,100.85 468.42,127.96 -23.59,109.55 -121.02,191.66 -237.64,191.66 -134.25,0 -243.08,-108.83 -243.08,-243.07 0,-26.75 4.32,-52.49 12.3,-76.55z"/>
  <path class="fil3" d="M299.71 697.79c-3.06,49.73 -4.61,99.86 -4.61,150.35 0,120.87 8.89,239.66 26.04,355.76 -2.71,0.64 -5.4,1.31 -8.09,2.01 -17.29,-116.72 -26.25,-236.24 -26.25,-357.77 0,-49.7 1.5,-99.05 4.46,-148.02 2.84,-0.55 5.65,-1.33 8.45,-2.33zm284.61 1296.79c111.75,206.58 252.78,395.02 417.51,559.75 236.22,236.22 521.14,423.67 838.46,546 -0.96,2.59 -1.88,5.2 -2.76,7.84 -540.75,-208.45 -987.97,-605.44 -1260.89,-1110.35 2.56,-1.05 5.15,-2.14 7.69,-3.24z"/>
  <path class="fil4" d="M321.14 1203.9c41.74,282.47 132.43,548.99 263.18,790.67 -2.54,1.1 -5.12,2.19 -7.69,3.24 -130.87,-242.13 -221.69,-509 -263.58,-791.9 2.69,-0.69 5.38,-1.37 8.09,-2.01z"/>
  <path class="fil3" d="M4366.39 2600.84l0 11.41c-433.27,407.46 -1016.69,657.11 -1658.38,657.11l0 0c-136.95,0 -271.31,-11.39 -402.06,-33.23 0.58,-2.71 1.12,-5.42 1.61,-8.15 130.26,21.76 264,33.08 400.45,33.08 642.33,0 1226.01,-250.97 1658.38,-660.22z"/>
  <path class="fil5" d="M1840.28 3100.32c149.15,57.51 305.53,100.63 467.28,127.66 -0.5,2.73 -1.03,5.44 -1.61,8.15 -162.23,-27.12 -318.83,-70.3 -468.42,-127.96 0.87,-2.64 1.79,-5.25 2.76,-7.84z"/>
  <path class="fil6" d="M801.21 2863.09c8.83,0 16,7.17 16,15.99 0,8.84 -7.17,16.01 -16,16.01 -8.84,0 -16,-7.17 -16,-16.01 0,-8.83 7.17,-15.99 16,-15.99z"/>
  <path class="fil7" d="M801.21 2938.97c8.83,0 16,7.17 16,16.01 0,8.84 -7.17,16 -16,16 -8.84,0 -16,-7.17 -16,-16 0,-8.84 7.17,-16.01 16,-16.01z"/>
  <path class="fil8" d="M801.21 3014.85c8.83,0 16,7.17 16,16.01 0,8.83 -7.17,16 -16,16 -8.84,0 -16,-7.17 -16,-16 0,-8.84 7.17,-16.01 16,-16.01z"/>
  <path class="fil9" d="M801.21 3090.74c8.83,0 16,7.16 16,15.99 0,8.84 -7.17,16.01 -16,16.01 -8.84,0 -16,-7.17 -16,-16.01 0,-8.84 7.17,-15.99 16,-15.99z"/>
  <path class="fil9" d="M801.21 3167.22c8.83,0 16,7.17 16,16 0,8.84 -7.17,16 -16,16 -8.84,0 -16,-7.17 -16,-16 0,-8.84 7.17,-16 16,-16z"/>
  <path class="fil9" d="M801.21 3243.71c8.83,0 16,7.17 16,16 0,8.84 -7.17,16 -16,16 -8.84,0 -16,-7.16 -16,-16 0,-8.84 7.17,-16 16,-16z"/>
  <path class="fil10" d="M801.21 3320.21c8.83,0 16,7.17 16,16 0,8.84 -7.17,16 -16,16 -8.84,0 -16,-7.16 -16,-16 0,-8.84 7.17,-16 16,-16z"/>
  <path class="fil6" d="M981.25 3107.65c8.84,0 16.01,7.17 16.01,16 0,8.83 -7.17,16 -16.01,16 -8.83,0 -15.99,-7.17 -15.99,-16 0,-8.84 7.17,-16 15.99,-16z"/>
  <path class="fil7" d="M981.25 3183.54c8.84,0 16.01,7.16 16.01,16 0,8.84 -7.17,16 -16.01,16 -8.83,0 -15.99,-7.17 -15.99,-16 0,-8.84 7.17,-16 15.99,-16z"/>
  <path class="fil8" d="M981.25 3259.41c8.84,0 16.01,7.17 16.01,16.01 0,8.84 -7.17,16 -16.01,16 -8.83,0 -15.99,-7.17 -15.99,-16 0,-8.84 7.17,-16.01 15.99,-16.01z"/>
  <path class="fil9" d="M981.25 3335.3c8.84,0 16.01,7.17 16.01,16 0,8.84 -7.17,16 -16.01,16 -8.83,0 -15.99,-7.17 -15.99,-16 0,-8.83 7.17,-16 15.99,-16z"/>
  <path class="fil9" d="M981.25 3411.79c8.84,0 16.01,7.17 16.01,16 0,8.84 -7.17,16 -16.01,16 -8.83,0 -15.99,-7.17 -15.99,-16 0,-8.83 7.17,-16 15.99,-16z"/>
  <path class="fil9" d="M981.25 3488.27c8.84,0 16.01,7.18 16.01,16.01 0,8.84 -7.17,16 -16.01,16 -8.83,0 -15.99,-7.17 -15.99,-16 0,-8.83 7.17,-16.01 15.99,-16.01z"/>
  <path class="fil10" d="M981.25 3564.77c8.84,0 16.01,7.17 16.01,16 0,8.84 -7.17,16 -16.01,16 -8.83,0 -15.99,-7.17 -15.99,-16 0,-8.84 7.17,-16 15.99,-16z"/>
  <path class="fil6" d="M2751.32 2012.89c8.83,0 16,7.17 16,16 0,8.84 -7.17,16 -16,16 -8.84,0 -16,-7.16 -16,-16 0,-8.84 7.17,-16 16,-16z"/>
  <path class="fil7" d="M2751.32 2088.77c8.83,0 16,7.17 16,16 0,8.84 -7.17,16 -16,16 -8.84,0 -16,-7.17 -16,-16 0,-8.83 7.17,-16 16,-16z"/>
  <path class="fil8" d="M2751.32 2164.65c8.83,0 16,7.17 16,16.01 0,8.84 -7.17,16 -16,16 -8.84,0 -16,-7.17 -16,-16 0,-8.84 7.17,-16.01 16,-16.01z"/>
  <path class="fil9" d="M2751.32 2240.54c8.83,0 16,7.17 16,16 0,8.83 -7.17,16 -16,16 -8.84,0 -16,-7.17 -16,-16 0,-8.84 7.17,-16 16,-16z"/>
  <path class="fil9" d="M2751.32 2317.03c8.83,0 16,7.17 16,16 0,8.84 -7.17,16 -16,16 -8.84,0 -16,-7.17 -16,-16 0,-8.83 7.17,-16 16,-16z"/>
  <path class="fil9" d="M2751.32 2393.52c8.83,0 16,7.16 16,15.99 0,8.84 -7.17,16.01 -16,16.01 -8.84,0 -16,-7.17 -16,-16.01 0,-8.84 7.17,-15.99 16,-15.99z"/>
  <path class="fil10" d="M2751.32 2470c8.83,0 16,7.17 16,16 0,8.84 -7.17,16 -16,16 -8.84,0 -16,-7.17 -16,-16 0,-8.84 7.17,-16 16,-16z"/>
  <path class="fil6" d="M2568.27 2165.56c8.84,0 15.99,7.17 15.99,16 0,8.84 -7.16,16 -15.99,16 -8.84,0 -16.01,-7.17 -16.01,-16 0,-8.84 7.17,-16 16.01,-16z"/>
  <path class="fil7" d="M2568.27 2241.45c8.84,0 15.99,7.17 15.99,16 0,8.83 -7.16,16 -15.99,16 -8.84,0 -16.01,-7.17 -16.01,-16 0,-8.84 7.17,-16 16.01,-16z"/>
  <path class="fil8" d="M2568.27 2317.33c8.84,0 15.99,7.17 15.99,16.01 0,8.84 -7.16,16 -15.99,16 -8.84,0 -16.01,-7.17 -16.01,-16 0,-8.84 7.17,-16.01 16.01,-16.01z"/>
  <path class="fil9" d="M2568.27 2393.22c8.84,0 15.99,7.17 15.99,16 0,8.83 -7.16,16 -15.99,16 -8.84,0 -16.01,-7.17 -16.01,-16 0,-8.84 7.17,-16 16.01,-16z"/>
  <path class="fil9" d="M2568.27 2469.71c8.84,0 15.99,7.17 15.99,16.01 0,8.83 -7.16,15.99 -15.99,15.99 -8.84,0 -16.01,-7.17 -16.01,-15.99 0,-8.84 7.17,-16.01 16.01,-16.01z"/>
  <path class="fil9" d="M2568.27 2546.2c8.84,0 15.99,7.17 15.99,16 0,8.84 -7.16,16 -15.99,16 -8.84,0 -16.01,-7.17 -16.01,-16 0,-8.83 7.17,-16 16.01,-16z"/>
  <path class="fil10" d="M2568.27 2622.69c8.84,0 15.99,7.16 15.99,16 0,8.84 -7.16,16 -15.99,16 -8.84,0 -16.01,-7.17 -16.01,-16 0,-8.84 7.17,-16 16.01,-16z"/>
  <polygon class="fil11" points="3862.27,1946.4 3817.26,1946.4 3817.26,1955.4 3862.27,1955.4 "/>
  <polygon class="fil12" points="3862.27,2036.42 3817.26,2036.42 3817.26,2045.42 3862.27,2045.42 "/>
  <polygon class="fil13" points="3862.27,2135.44 3817.26,2135.44 3817.26,2144.44 3862.27,2144.44 "/>
  <polygon class="fil14" points="3862.27,2225.46 3817.26,2225.46 3817.26,2234.46 3862.27,2234.46 "/>
  <polygon class="fil15" points="3862.27,2324.48 3817.26,2324.48 3817.26,2333.49 3862.27,2333.49 "/>
  <polygon class="fil16" points="3862.27,2414.51 3817.26,2414.51 3817.26,2423.51 3862.27,2423.51 "/>
  <polygon class="fil17" points="3862.27,2504.53 3817.26,2504.53 3817.26,2513.53 3862.27,2513.53 "/>
  <polygon class="fil18" points="3862.27,2603.55 3817.26,2603.55 3817.26,2612.55 3862.27,2612.55 "/>
  <polygon class="fil19" points="3862.27,2693.57 3817.26,2693.57 3817.26,2702.57 3862.27,2702.57 "/>
  <polygon class="fil20" points="3862.27,2792.59 3817.26,2792.59 3817.26,2801.59 3862.27,2801.59 "/>
  <polygon class="fil21" points="3862.27,2882.61 3817.26,2882.61 3817.26,2891.62 3862.27,2891.62 "/>
  <polygon class="fil22" points="3862.27,3071.66 3817.26,3071.66 3817.26,3080.66 3862.27,3080.66 "/>
  <polygon class="fil23" points="4033.31,2135.44 3988.3,2135.44 3988.3,2144.44 4033.31,2144.44 "/>
  <polygon class="fil24" points="4033.31,2234.46 3988.3,2234.46 3988.3,2243.47 4033.31,2243.47 "/>
  <polygon class="fil25" points="4033.31,2324.48 3988.3,2324.48 3988.3,2333.49 4033.31,2333.49 "/>
  <polygon class="fil26" points="4033.31,2414.51 3988.3,2414.51 3988.3,2423.51 4033.31,2423.51 "/>
  <polygon class="fil11" points="4033.31,2513.53 3988.3,2513.53 3988.3,2522.53 4033.31,2522.53 "/>
  <polygon class="fil12" points="4033.31,2603.55 3988.3,2603.55 3988.3,2612.55 4033.31,2612.55 "/>
  <polygon class="fil13" points="4033.31,2702.57 3988.3,2702.57 3988.3,2711.58 4033.31,2711.58 "/>
  <polygon class="fil14" points="4033.31,2792.59 3988.3,2792.59 3988.3,2801.59 4033.31,2801.59 "/>
  <polygon class="fil16" points="4033.31,2981.64 3988.3,2981.64 3988.3,2990.64 4033.31,2990.64 "/>
  <polygon class="fil17" points="4033.31,3071.66 3988.3,3071.66 3988.3,3080.66 4033.31,3080.66 "/>
  <polygon class="fil18" points="4033.31,3170.68 3988.3,3170.68 3988.3,3179.68 4033.31,3179.68 "/>
  <polygon class="fil19" points="4033.31,3260.7 3988.3,3260.7 3988.3,3269.7 4033.31,3269.7 "/>
  <polygon class="fil20" points="4033.31,3359.73 3988.3,3359.73 3988.3,3368.73 4033.31,3368.73 "/>
  <polygon class="fil21" points="4033.31,3449.74 3988.3,3449.74 3988.3,3458.75 4033.31,3458.75 "/>
  <polygon class="fil27" points="4033.31,3539.77 3988.3,3539.77 3988.3,3548.77 4033.31,3548.77 "/>
  <polygon class="fil22" points="4033.31,3638.79 3988.3,3638.79 3988.3,3647.79 4033.31,3647.79 "/>
  <polygon class="fil28" points="1422.71,1307.25 1377.7,1307.25 1377.7,1316.25 1422.71,1316.25 "/>
  <polygon class="fil29" points="1422.71,1406.27 1377.7,1406.27 1377.7,1415.27 1422.71,1415.27 "/>
  <polygon class="fil30" points="1422.71,1496.29 1377.7,1496.29 1377.7,1505.29 1422.71,1505.29 "/>
  <polygon class="fil31" points="1422.71,1595.31 1377.7,1595.31 1377.7,1604.32 1422.71,1604.32 "/>
  <polygon class="fil32" points="1422.71,1685.34 1377.7,1685.34 1377.7,1694.34 1422.71,1694.34 "/>
  <polygon class="fil3" points="1121.35,2347.24 1113.05,2347.24 1113.05,2385.34 1121.35,2385.34 "/>
  <polygon class="fil3" points="1173.54,2324.84 1135.45,2324.84 1135.45,2333.13 1173.54,2333.13 "/>
  <polygon class="fil3" points="1121.35,2272.63 1113.05,2272.63 1113.05,2310.73 1121.35,2310.73 "/>
  <polygon class="fil3" points="1098.93,2324.84 1060.84,2324.84 1060.84,2333.13 1098.93,2333.13 "/>
  <polygon class="fil3" points="2447.06,3522.54 2438.76,3522.54 2438.76,3560.63 2447.06,3560.63 "/>
  <polygon class="fil3" points="2499.26,3500.13 2461.17,3500.13 2461.17,3508.43 2499.26,3508.43 "/>
  <polygon class="fil3" points="2447.06,3447.93 2438.76,3447.93 2438.76,3486.02 2447.06,3486.02 "/>
  <polygon class="fil3" points="2424.65,3500.13 2386.56,3500.13 2386.56,3508.43 2424.65,3508.43 "/>
  <polygon class="fil3" points="3821.41,1149.71 3813.11,1149.71 3813.11,1187.81 3821.41,1187.81 "/>
  <polygon class="fil3" points="3873.61,1127.3 3835.52,1127.3 3835.52,1135.61 3873.61,1135.61 "/>
  <polygon class="fil3" points="3821.41,1075.1 3813.11,1075.1 3813.11,1113.2 3821.41,1113.2 "/>
  <polygon class="fil3" points="3799.01,1127.3 3760.91,1127.3 3760.91,1135.61 3799.01,1135.61 "/>
 </g>
</svg>
