<svg width="82" height="81" fill="none" xmlns="http://www.w3.org/2000/svg"><g opacity=".4"><path opacity=".6" d="M41 81c22.644 0 41-18.133 41-40.5S63.644 0 41 0 0 18.133 0 40.5 18.356 81 41 81z" fill="#FFBC10"/><path d="M41.194 75.59c19.081 0 34.55-15.703 34.55-35.074 0-19.37-15.469-35.074-34.55-35.074-19.081 0-34.55 15.703-34.55 35.074 0 19.37 15.469 35.074 34.55 35.074z" fill="#FFBC10"/><path d="M51.559 58.588l-8.106-16.212c0-.531-.133-1.195-.399-1.461l-2.126-22.059-2.259 22.192s-.398.398-.398 1.461a2.666 2.666 0 0 0 2.657 2.658l10.63 13.421z" fill="#FFEDBD"/></g></svg>