<svg width="210" height="329" fill="none" xmlns="http://www.w3.org/2000/svg"><path d="M97.1 40.1V26h14.2v14.1h27.5v53.2H68.9V40.1h28.2z" fill="#FFBC10"/><path opacity=".4" d="M104.1 3.1c1.8-1.6 4.1-2.3 6.5-2.1 38.2 4.2 57.4 24.6 66.8 41 10.1 17.8 11.2 34.3 11.2 35v227.6h12.9c1.7 0 3.1 1.4 3.1 3.1 0 1.7-1.4 3.1-3.1 3.1h-48.7c-1.7 0-3.1-1.4-3.1-3.1 0-1.7 1.4-3.1 3.1-3.1h28.8V77.3c-.1-1.3-1.4-16.1-10.3-31.8-12.5-21.7-33.2-34.4-61.5-37.5-.5-.1-.9.2-1 .3-.2.1-.4.5-.4 1V26h-7V9.3c-.1-2.4.9-4.6 2.7-6.2z" fill="#FFBC10"/><path d="M209.2 328.5H0L69.3 93.3h69.9l70 235.2z" fill="url(#paint0_linear)"/><defs><linearGradient id="paint0_linear" x1="104.592" y1="56.645" x2="104.592" y2="292.761" gradientUnits="userSpaceOnUse"><stop stop-color="#fff"/><stop offset="1" stop-color="#fff" stop-opacity="0"/></linearGradient></defs></svg>