<?xml version="1.0" encoding="UTF-8"?>
<!DOCTYPE svg PUBLIC "-//W3C//DTD SVG 1.1//EN" "http://www.w3.org/Graphics/SVG/1.1/DTD/svg11.dtd">
<!-- Creator: CorelDRAW 2020 (64-Bit Evaluation Version) -->
<svg xmlns="http://www.w3.org/2000/svg" xml:space="preserve" width="56.9267mm" height="82.2408mm" version="1.1" style="shape-rendering:geometricPrecision; text-rendering:geometricPrecision; image-rendering:optimizeQuality; fill-rule:evenodd; clip-rule:evenodd"
viewBox="0 0 29788.66 43035.05"
 xmlns:xlink="http://www.w3.org/1999/xlink"
 xmlns:xodm="http://www.corel.com/coreldraw/odm/2003">
 <defs>
  <style type="text/css">
   <![CDATA[
    .str1 {stroke:#84CDBB;stroke-width:184.61;stroke-miterlimit:10}
    .str0 {stroke:#2D363C;stroke-width:184.61;stroke-miterlimit:10}
    .fil2 {fill:none;fill-rule:nonzero}
    .fil0 {fill:#F37E76;fill-rule:nonzero}
    .fil1 {fill:#FFC325;fill-rule:nonzero}
   ]]>
  </style>
 </defs>
 <g id="Layer_x0020_1">
  <metadata id="CorelCorpID_0Corel-Layer"/>
  <polygon class="fil0" points="29788.66,42874.56 9130.05,42874.56 18466.48,33283.4 29788.66,33283.4 "/>
  <polygon class="fil1" points="92.31,11380.53 6662.83,15173.95 13233.36,11380.53 13233.36,3793.58 6662.83,0 92.31,3793.58 "/>
  <polygon class="fil2 str0" points="92.31,18967.53 6662.83,22760.89 13233.36,18967.53 13233.36,11380.53 6662.83,7587 92.31,11380.53 "/>
  <path class="fil1" d="M21792.25 22024.9l0 0c132.76,0 240.34,-107.64 240.34,-240.4l0 0c0,-132.91 -107.59,-240.5 -240.34,-240.5l0 0c-132.7,0 -240.34,107.59 -240.34,240.5l0 0c0,132.76 107.64,240.4 240.34,240.4zm0 -2198.09l0 0c132.76,0 240.34,-107.59 240.34,-240.34l0 0c0,-132.7 -107.59,-240.34 -240.34,-240.34l0 0c-132.7,0 -240.34,107.64 -240.34,240.34l0 0c0,132.76 107.64,240.34 240.34,240.34zm0 -2197.83l0 0c132.76,0 240.34,-107.64 240.34,-240.4l0 0c0,-132.7 -107.59,-240.34 -240.34,-240.34l0 0c-132.7,0 -240.34,107.64 -240.34,240.34l0 0c0,132.76 107.64,240.4 240.34,240.4zm0 -2197.89l0 0c132.76,0 240.34,-107.64 240.34,-240.55l0 0c0,-132.7 -107.59,-240.34 -240.34,-240.34l0 0c-132.7,0 -240.34,107.64 -240.34,240.34l0 0c0,132.91 107.64,240.55 240.34,240.55zm0 -2198.04l0 0c132.76,0 240.34,-107.64 240.34,-240.4l0 0c0,-132.7 -107.59,-240.34 -240.34,-240.34l0 0c-132.7,0 -240.34,107.64 -240.34,240.34l0 0c0,132.76 107.64,240.4 240.34,240.4z"/>
  <path class="fil1" d="M23953.4 28588.78l0 0c132.7,0 240.34,-107.64 240.34,-240.34l0 -0.21c0,-132.7 -107.64,-240.34 -240.34,-240.34l0 0c-132.76,0 -240.34,107.64 -240.34,240.34l0 0.21c0,132.7 107.59,240.34 240.34,240.34zm0 -2198.04l0 0c132.7,0 240.34,-107.64 240.34,-240.4l0 0c0,-132.7 -107.64,-240.34 -240.34,-240.34l0 0c-132.76,0 -240.34,107.64 -240.34,240.34l0 0c0,132.76 107.59,240.4 240.34,240.4zm0 -2197.89l0 0c132.7,0 240.34,-107.64 240.34,-240.34l0 0c0,-132.76 -107.64,-240.4 -240.34,-240.4l0 0c-132.76,0 -240.34,107.64 -240.34,240.4l0 0c0,132.7 107.59,240.34 240.34,240.34zm0 -2197.89l0 0c132.7,0 240.34,-107.64 240.34,-240.55l0 0c0,-132.7 -107.64,-240.34 -240.34,-240.34l0 0c-132.76,0 -240.34,107.64 -240.34,240.34l0 0c0,132.91 107.59,240.55 240.34,240.55zm0 -2198.04l0 0c132.7,0 240.34,-107.64 240.34,-240.34l0 0c0,-132.76 -107.64,-240.4 -240.34,-240.4l0 0c-132.76,0 -240.34,107.64 -240.34,240.4l0 0c0,132.7 107.59,240.34 240.34,240.34z"/>
  <path class="fil2 str1" d="M14496.77 33150.48l-1696.84 1696.84m0 -1696.84l1696.84 1696.84"/>
  <path class="fil2 str1" d="M10435.53 37211.72l-1696.84 1696.84m0 -1696.84l1696.84 1696.84"/>
  <path class="fil2 str1" d="M6374.3 41272.96l-1696.84 1696.84m0 -1696.84l1696.84 1696.84"/>
 </g>
</svg>
