<?xml version="1.0" encoding="UTF-8"?>
<!DOCTYPE svg PUBLIC "-//W3C//DTD SVG 1.1//EN" "http://www.w3.org/Graphics/SVG/1.1/DTD/svg11.dtd">
<!-- Creator: CorelDRAW 2020 (64-Bit Evaluation Version) -->
<svg xmlns="http://www.w3.org/2000/svg" xml:space="preserve" width="49.1366mm" height="35.7463mm" version="1.1" style="shape-rendering:geometricPrecision; text-rendering:geometricPrecision; image-rendering:optimizeQuality; fill-rule:evenodd; clip-rule:evenodd"
viewBox="0 0 618.29 449.8"
 xmlns:xlink="http://www.w3.org/1999/xlink"
 xmlns:xodm="http://www.corel.com/coreldraw/odm/2003">
 <defs>
  <style type="text/css">
   <![CDATA[
    .fil0 {fill:#F0C8B8;fill-rule:nonzero}
   ]]>
  </style>
 </defs>
 <g id="Layer_x0020_1">
  <metadata id="CorelCorpID_0Corel-Layer"/>
  <path class="fil0" d="M-0 9.06l0 2.72c4.43,-3.32 8.33,-7.3 11.58,-11.78l-2.67 0c-2.6,3.37 -5.59,6.41 -8.91,9.06z"/>
  <path class="fil0" d="M25.13 437.09c-2.32,-2.32 -6.08,-2.32 -8.4,0 -2.31,2.32 -2.31,6.07 0,8.39l4.2 4.2 4.2 -4.2c2.31,-2.32 2.31,-6.07 0,-8.39z"/>
  <path class="fil0" d="M16.86 449.8l-2.22 -2.22c-2.32,-2.31 -6.07,-2.31 -8.39,0 -0.65,0.65 -1.12,1.41 -1.4,2.22l12.01 0z"/>
  <path class="fil0" d="M37.02 449.8c-0.29,-0.81 -0.75,-1.57 -1.4,-2.22 -2.32,-2.31 -6.08,-2.31 -8.39,0l-2.22 2.22 12.01 0z"/>
  <path class="fil0" d="M25.13 329.56c-2.32,-2.32 -6.08,-2.32 -8.4,0 -2.31,2.32 -2.31,6.07 0,8.39l4.2 4.2 4.2 -4.2c2.31,-2.32 2.31,-6.08 0,-8.39z"/>
  <path class="fil0" d="M18.84 344.25l-4.2 -4.2c-2.32,-2.32 -6.07,-2.32 -8.39,0 -2.32,2.32 -2.32,6.08 0,8.39 2.32,2.32 6.07,2.32 8.39,0l4.2 -4.19z"/>
  <path class="fil0" d="M16.74 358.93l0 0c2.32,2.32 6.08,2.32 8.4,0 2.31,-2.32 2.31,-6.08 0,-8.39l-4.2 -4.2 -4.2 4.2c-2.31,2.31 -2.31,6.07 0,8.39z"/>
  <path class="fil0" d="M27.22 348.44c2.32,2.32 6.07,2.32 8.39,0 2.32,-2.31 2.32,-6.07 0,-8.39 -2.32,-2.32 -6.08,-2.32 -8.39,0l-4.19 4.2 4.19 4.19z"/>
  <path class="fil0" d="M25.13 222.03c-2.32,-2.31 -6.08,-2.31 -8.4,0 -2.31,2.32 -2.31,6.08 0,8.4l4.2 4.19 4.2 -4.19c2.31,-2.32 2.31,-6.08 0,-8.4z"/>
  <path class="fil0" d="M18.84 236.71l-4.2 -4.19c-2.32,-2.32 -6.07,-2.32 -8.39,0 -2.32,2.32 -2.32,6.07 0,8.39 2.32,2.32 6.07,2.32 8.39,0l4.2 -4.2z"/>
  <path class="fil0" d="M16.74 251.4c2.32,2.31 6.08,2.31 8.4,0 2.31,-2.32 2.31,-6.08 0,-8.4l-4.2 -4.19 -4.2 4.19c-2.31,2.32 -2.31,6.08 0,8.4z"/>
  <path class="fil0" d="M27.22 240.91c2.32,2.32 6.07,2.32 8.39,0 2.32,-2.32 2.32,-6.07 0,-8.39 -2.32,-2.32 -6.08,-2.32 -8.39,0l-4.19 4.19 4.19 4.2z"/>
  <path class="fil0" d="M25.13 114.5c-2.32,-2.32 -6.08,-2.32 -8.4,0 -2.31,2.32 -2.31,6.08 0,8.39l4.2 4.2 4.2 -4.2c2.31,-2.31 2.31,-6.07 0,-8.39z"/>
  <path class="fil0" d="M18.84 129.18l-4.2 -4.2c-2.32,-2.32 -6.07,-2.32 -8.39,0 -2.32,2.32 -2.32,6.07 0,8.39 2.32,2.31 6.07,2.31 8.39,0l4.2 -4.2z"/>
  <path class="fil0" d="M16.74 143.87c2.32,2.32 6.08,2.32 8.4,0 2.31,-2.31 2.31,-6.07 0,-8.39l-4.2 -4.19 -4.2 4.19c-2.31,2.32 -2.31,6.08 0,8.39z"/>
  <path class="fil0" d="M27.22 133.38c2.32,2.31 6.07,2.31 8.39,0 2.32,-2.32 2.32,-6.08 0,-8.39 -2.32,-2.32 -6.08,-2.32 -8.39,0l-4.19 4.2 4.19 4.2z"/>
  <path class="fil0" d="M25.13 6.97c-2.32,-2.32 -6.08,-2.32 -8.4,0 -2.31,2.32 -2.31,6.08 0,8.39l4.2 4.2 4.2 -4.2c2.31,-2.32 2.31,-6.07 0,-8.39z"/>
  <path class="fil0" d="M18.84 21.65l-4.2 -4.2c-2.32,-2.31 -6.07,-2.31 -8.39,0 -2.32,2.32 -2.32,6.08 0,8.4 2.32,2.32 6.07,2.32 8.39,0l4.2 -4.2z"/>
  <path class="fil0" d="M16.74 36.34c2.32,2.32 6.08,2.32 8.4,0 2.31,-2.32 2.31,-6.07 0,-8.39l-4.2 -4.2 -4.2 4.2c-2.31,2.32 -2.31,6.07 0,8.39z"/>
  <path class="fil0" d="M27.22 25.85c2.32,2.32 6.07,2.32 8.39,0 2.32,-2.32 2.32,-6.08 0,-8.4 -2.32,-2.31 -6.08,-2.31 -8.39,0l-4.19 4.2 4.19 4.2z"/>
  <path class="fil0" d="M78.9 391.72c2.32,-2.32 2.32,-6.08 0,-8.4 -2.32,-2.31 -6.07,-2.31 -8.39,0 -2.32,2.32 -2.32,6.08 0,8.4l4.2 4.2 4.2 -4.2z"/>
  <path class="fil0" d="M72.61 398.01l-4.2 -4.19c-2.32,-2.32 -6.08,-2.32 -8.39,0 -2.32,2.31 -2.32,6.07 0,8.39 2.32,2.32 6.07,2.32 8.39,0l4.2 -4.2z"/>
  <path class="fil0" d="M78.9 412.69c2.32,-2.32 2.32,-6.08 0,-8.39l-4.2 -4.2 -4.2 4.2c-2.32,2.32 -2.32,6.08 0,8.39 2.32,2.32 6.07,2.32 8.39,0z"/>
  <path class="fil0" d="M76.79 398.01l4.2 4.2c2.32,2.32 6.08,2.32 8.39,0 2.32,-2.32 2.32,-6.08 0,-8.39 -2.32,-2.32 -6.08,-2.32 -8.39,0l-4.2 4.19z"/>
  <path class="fil0" d="M78.9 284.18c2.32,-2.31 2.32,-6.07 0,-8.39 -2.32,-2.32 -6.07,-2.32 -8.39,0 -2.32,2.32 -2.32,6.08 0,8.39l4.2 4.2 4.2 -4.2z"/>
  <path class="fil0" d="M72.61 290.48l-4.2 -4.2c-2.32,-2.32 -6.08,-2.32 -8.39,0 -2.32,2.32 -2.32,6.07 0,8.39 2.32,2.31 6.07,2.31 8.39,0l4.2 -4.2z"/>
  <path class="fil0" d="M78.9 305.16c2.32,-2.32 2.32,-6.07 0,-8.39l-4.2 -4.19 -4.2 4.19c-2.32,2.32 -2.32,6.08 0,8.39 2.32,2.32 6.07,2.32 8.39,0z"/>
  <path class="fil0" d="M76.79 290.48l4.2 4.2c2.32,2.31 6.08,2.31 8.39,0 2.32,-2.32 2.32,-6.08 0,-8.39 -2.32,-2.32 -6.08,-2.32 -8.39,0l-4.2 4.2z"/>
  <path class="fil0" d="M78.9 176.66c2.32,-2.32 2.32,-6.07 0,-8.39 -2.32,-2.32 -6.07,-2.32 -8.39,0 -2.32,2.32 -2.32,6.07 0,8.39l4.2 4.2 4.2 -4.2z"/>
  <path class="fil0" d="M72.61 182.95l-4.2 -4.2c-2.32,-2.31 -6.08,-2.31 -8.39,0 -2.32,2.32 -2.32,6.08 0,8.4 2.32,2.32 6.07,2.32 8.39,0l4.2 -4.2z"/>
  <path class="fil0" d="M78.9 197.63c2.32,-2.32 2.32,-6.08 0,-8.39l-4.2 -4.2 -4.2 4.2c-2.32,2.31 -2.32,6.07 0,8.39 2.32,2.32 6.07,2.32 8.39,0z"/>
  <path class="fil0" d="M76.79 182.95l4.2 4.2c2.32,2.32 6.08,2.32 8.39,0 2.32,-2.32 2.32,-6.08 0,-8.4 -2.32,-2.31 -6.08,-2.31 -8.39,0l-4.2 4.2z"/>
  <path class="fil0" d="M78.9 69.13c2.32,-2.32 2.32,-6.08 0,-8.39 -2.32,-2.32 -6.07,-2.32 -8.39,0 -2.32,2.32 -2.32,6.08 0,8.39l4.2 4.19 4.2 -4.19z"/>
  <path class="fil0" d="M72.61 75.42l-4.2 -4.2c-2.32,-2.32 -6.08,-2.32 -8.39,0 -2.32,2.32 -2.32,6.08 0,8.39 2.32,2.32 6.07,2.32 8.39,0l4.2 -4.2z"/>
  <path class="fil0" d="M78.9 90.11c2.32,-2.32 2.32,-6.08 0,-8.4l-4.2 -4.19 -4.2 4.19c-2.32,2.32 -2.32,6.08 0,8.4 2.32,2.31 6.07,2.31 8.39,0z"/>
  <path class="fil0" d="M76.79 75.42l4.2 4.2c2.32,2.32 6.08,2.32 8.39,0 2.32,-2.31 2.32,-6.07 0,-8.39 -2.32,-2.32 -6.08,-2.32 -8.39,0l-4.2 4.2z"/>
  <path class="fil0" d="M132.66 445.48c2.32,-2.32 2.32,-6.07 0,-8.39 -2.32,-2.32 -6.08,-2.32 -8.39,0 -2.32,2.32 -2.32,6.07 0,8.39l4.19 4.2 4.2 -4.2z"/>
  <path class="fil0" d="M124.39 449.8l-2.22 -2.22c-2.32,-2.31 -6.07,-2.31 -8.39,0 -0.65,0.65 -1.11,1.41 -1.4,2.22l12.01 0z"/>
  <path class="fil0" d="M144.55 449.8c-0.29,-0.81 -0.75,-1.57 -1.4,-2.22 -2.32,-2.31 -6.08,-2.31 -8.39,0l-2.22 2.22 12.01 0z"/>
  <path class="fil0" d="M132.66 337.96c2.32,-2.32 2.32,-6.08 0,-8.39 -2.32,-2.32 -6.08,-2.32 -8.39,0 -2.32,2.32 -2.32,6.07 0,8.39l4.19 4.2 4.2 -4.2z"/>
  <path class="fil0" d="M126.37 344.25l-4.2 -4.2c-2.32,-2.32 -6.07,-2.32 -8.39,0 -2.32,2.32 -2.32,6.08 0,8.39 2.32,2.32 6.08,2.32 8.39,0l4.2 -4.19z"/>
  <path class="fil0" d="M132.66 358.93l0 0c2.32,-2.32 2.32,-6.08 0,-8.39l-4.2 -4.2 -4.19 4.2c-2.32,2.31 -2.32,6.07 0,8.39 2.31,2.32 6.07,2.32 8.39,0z"/>
  <path class="fil0" d="M130.56 344.25l4.2 4.19c2.32,2.32 6.08,2.32 8.39,0 2.32,-2.31 2.32,-6.07 0,-8.39 -2.32,-2.32 -6.08,-2.32 -8.39,0l-4.2 4.2z"/>
  <path class="fil0" d="M132.66 230.42c2.32,-2.32 2.32,-6.08 0,-8.4 -2.32,-2.31 -6.08,-2.31 -8.39,0 -2.32,2.32 -2.32,6.08 0,8.4l4.19 4.19 4.2 -4.19z"/>
  <path class="fil0" d="M126.37 236.71l-4.2 -4.19c-2.32,-2.32 -6.07,-2.32 -8.39,0 -2.32,2.32 -2.32,6.07 0,8.39 2.32,2.32 6.08,2.32 8.39,0l4.2 -4.2z"/>
  <path class="fil0" d="M132.66 251.4c2.32,-2.32 2.32,-6.08 0,-8.4l-4.2 -4.19 -4.19 4.19c-2.32,2.32 -2.32,6.08 0,8.4 2.31,2.31 6.07,2.31 8.39,0z"/>
  <path class="fil0" d="M130.56 236.71l4.2 4.2c2.32,2.32 6.08,2.32 8.39,0 2.32,-2.32 2.32,-6.07 0,-8.39 -2.32,-2.32 -6.08,-2.32 -8.39,0l-4.2 4.19z"/>
  <path class="fil0" d="M132.66 122.89c2.32,-2.31 2.32,-6.07 0,-8.39 -2.32,-2.32 -6.08,-2.32 -8.39,0 -2.32,2.32 -2.32,6.08 0,8.39l4.19 4.2 4.2 -4.2z"/>
  <path class="fil0" d="M126.37 129.18l-4.2 -4.2c-2.32,-2.32 -6.07,-2.32 -8.39,0 -2.32,2.32 -2.32,6.07 0,8.39 2.32,2.31 6.08,2.31 8.39,0l4.2 -4.2z"/>
  <path class="fil0" d="M132.66 143.87c2.32,-2.31 2.32,-6.07 0,-8.39l-4.2 -4.19 -4.19 4.19c-2.32,2.32 -2.32,6.08 0,8.39 2.31,2.32 6.07,2.32 8.39,0z"/>
  <path class="fil0" d="M130.56 129.18l4.2 4.2c2.32,2.31 6.08,2.31 8.39,0 2.32,-2.32 2.32,-6.08 0,-8.39 -2.32,-2.32 -6.08,-2.32 -8.39,0l-4.2 4.2z"/>
  <path class="fil0" d="M132.66 6.97c-2.32,-2.32 -6.08,-2.32 -8.39,0 -2.32,2.32 -2.32,6.08 0,8.39l4.19 4.2 4.2 -4.2c2.32,-2.32 2.32,-6.07 0,-8.39z"/>
  <path class="fil0" d="M122.17 17.45c-2.32,-2.31 -6.07,-2.31 -8.39,0 -2.32,2.32 -2.32,6.08 0,8.4 2.32,2.32 6.08,2.32 8.39,0l4.2 -4.2 -4.2 -4.2z"/>
  <path class="fil0" d="M124.27 36.34c2.31,2.32 6.07,2.32 8.39,0 2.32,-2.32 2.32,-6.07 0,-8.39l-4.2 -4.2 -4.19 4.2c-2.32,2.32 -2.32,6.07 0,8.39z"/>
  <path class="fil0" d="M143.15 17.45c-2.32,-2.31 -6.08,-2.31 -8.39,0l-4.2 4.2 4.2 4.2c2.32,2.32 6.08,2.32 8.39,0 2.32,-2.32 2.32,-6.08 0,-8.4z"/>
  <path class="fil0" d="M186.43 391.72c2.32,-2.32 2.32,-6.08 0,-8.4 -2.32,-2.31 -6.08,-2.31 -8.4,0 -2.32,2.32 -2.32,6.08 0,8.4l4.2 4.2 4.2 -4.2z"/>
  <path class="fil0" d="M167.55 402.21c2.31,2.32 6.07,2.32 8.39,0l4.2 -4.2 -4.2 -4.19c-2.32,-2.32 -6.08,-2.32 -8.39,0 -2.32,2.31 -2.32,6.07 0,8.39z"/>
  <path class="fil0" d="M178.03 404.3c-2.32,2.32 -2.32,6.08 0,8.39 2.32,2.32 6.08,2.32 8.4,0 2.32,-2.32 2.32,-6.08 0,-8.39l-4.2 -4.2 -4.2 4.2z"/>
  <path class="fil0" d="M184.32 398.01l4.2 4.2c2.32,2.32 6.07,2.32 8.39,0 2.32,-2.32 2.32,-6.08 0,-8.39 -2.32,-2.32 -6.08,-2.32 -8.39,0l-4.2 4.19z"/>
  <path class="fil0" d="M186.43 284.18c2.32,-2.31 2.32,-6.07 0,-8.39 -2.32,-2.32 -6.08,-2.32 -8.4,0 -2.32,2.32 -2.32,6.08 0,8.39l4.2 4.2 4.2 -4.2z"/>
  <path class="fil0" d="M167.55 294.68c2.31,2.31 6.07,2.31 8.39,0l4.2 -4.2 -4.2 -4.2c-2.32,-2.32 -6.08,-2.32 -8.39,0 -2.32,2.32 -2.32,6.07 0,8.39z"/>
  <path class="fil0" d="M178.03 296.77c-2.32,2.32 -2.32,6.08 0,8.39 2.32,2.32 6.08,2.32 8.4,0 2.32,-2.32 2.32,-6.07 0,-8.39l-4.2 -4.19 -4.2 4.19z"/>
  <path class="fil0" d="M184.32 290.48l4.2 4.2c2.32,2.31 6.07,2.31 8.39,0 2.32,-2.32 2.32,-6.08 0,-8.39 -2.32,-2.32 -6.08,-2.32 -8.39,0l-4.2 4.2z"/>
  <path class="fil0" d="M186.43 176.66c2.32,-2.32 2.32,-6.07 0,-8.39 -2.32,-2.32 -6.08,-2.32 -8.4,0 -2.32,2.32 -2.32,6.07 0,8.39l4.2 4.2 4.2 -4.2z"/>
  <path class="fil0" d="M167.55 187.15c2.31,2.32 6.07,2.32 8.39,0l4.2 -4.2 -4.2 -4.2c-2.32,-2.31 -6.08,-2.31 -8.39,0 -2.32,2.32 -2.32,6.08 0,8.4z"/>
  <path class="fil0" d="M178.03 189.24c-2.32,2.31 -2.32,6.07 0,8.39 2.32,2.32 6.08,2.32 8.4,0 2.32,-2.32 2.32,-6.08 0,-8.39l-4.2 -4.2 -4.2 4.2z"/>
  <path class="fil0" d="M184.32 182.95l4.2 4.2c2.32,2.32 6.07,2.32 8.39,0 2.32,-2.32 2.32,-6.08 0,-8.4 -2.32,-2.31 -6.08,-2.31 -8.39,0l-4.2 4.2z"/>
  <path class="fil0" d="M178.03 60.73c-2.32,2.32 -2.32,6.08 0,8.39l4.2 4.19 4.2 -4.19c2.32,-2.32 2.32,-6.08 0,-8.39 -2.32,-2.32 -6.08,-2.32 -8.4,0z"/>
  <path class="fil0" d="M180.14 75.42l-4.2 -4.2c-2.32,-2.32 -6.08,-2.32 -8.39,0 -2.32,2.32 -2.32,6.08 0,8.39 2.31,2.32 6.07,2.32 8.39,0l4.2 -4.2z"/>
  <path class="fil0" d="M178.03 81.71c-2.32,2.32 -2.32,6.08 0,8.4 2.32,2.31 6.08,2.31 8.4,0 2.32,-2.32 2.32,-6.08 0,-8.4l-4.2 -4.19 -4.2 4.19z"/>
  <path class="fil0" d="M184.32 75.42l4.2 4.2c2.32,2.32 6.07,2.32 8.39,0 2.32,-2.31 2.32,-6.07 0,-8.39 -2.32,-2.32 -6.08,-2.32 -8.39,0l-4.2 4.2z"/>
  <path class="fil0" d="M240.19 445.48c2.32,-2.32 2.32,-6.07 0,-8.39 -2.32,-2.32 -6.08,-2.32 -8.39,0 -2.32,2.32 -2.32,6.07 0,8.39l4.2 4.2 4.2 -4.2z"/>
  <path class="fil0" d="M231.92 449.8l-2.22 -2.22c-2.32,-2.31 -6.08,-2.31 -8.4,0 -0.65,0.65 -1.11,1.41 -1.4,2.22l12.02 0z"/>
  <path class="fil0" d="M252.08 449.8c-0.29,-0.81 -0.75,-1.57 -1.4,-2.22l-0 0c-2.31,-2.31 -6.07,-2.31 -8.39,0l-2.22 2.22 12.01 0z"/>
  <path class="fil0" d="M240.19 337.96c2.32,-2.32 2.32,-6.08 0,-8.39 -2.32,-2.32 -6.08,-2.32 -8.39,0 -2.32,2.32 -2.32,6.07 0,8.39l4.2 4.2 4.2 -4.2z"/>
  <path class="fil0" d="M229.71 348.44l4.2 -4.19 -4.2 -4.2c-2.32,-2.32 -6.08,-2.32 -8.4,0 -2.32,2.32 -2.32,6.08 0,8.39 2.32,2.32 6.08,2.32 8.4,0z"/>
  <path class="fil0" d="M231.8 350.54c-2.32,2.31 -2.32,6.07 0,8.39 2.32,2.32 6.07,2.32 8.39,0 2.32,-2.32 2.32,-6.08 0,-8.39l-4.2 -4.2 -4.2 4.2z"/>
  <path class="fil0" d="M238.09 344.25l4.2 4.19c2.32,2.32 6.08,2.32 8.39,0l0 0c2.32,-2.31 2.32,-6.07 0,-8.39l-0 0c-2.31,-2.32 -6.07,-2.32 -8.39,0l-4.2 4.2z"/>
  <path class="fil0" d="M240.19 230.42c2.32,-2.32 2.32,-6.08 0,-8.4 -2.32,-2.31 -6.08,-2.31 -8.39,0 -2.32,2.32 -2.32,6.08 0,8.4l4.2 4.19 4.2 -4.19z"/>
  <path class="fil0" d="M229.71 240.91l4.2 -4.2 -4.2 -4.19c-2.32,-2.32 -6.08,-2.32 -8.4,0 -2.32,2.32 -2.32,6.07 0,8.39 2.32,2.32 6.08,2.32 8.4,0z"/>
  <path class="fil0" d="M231.8 243c-2.32,2.32 -2.32,6.08 0,8.4 2.32,2.31 6.07,2.31 8.39,0 2.32,-2.32 2.32,-6.08 0,-8.4l-4.2 -4.19 -4.2 4.19z"/>
  <path class="fil0" d="M238.09 236.71l4.2 4.2c2.32,2.32 6.08,2.32 8.39,0l0 0c2.32,-2.32 2.32,-6.07 0,-8.39l-0 0c-2.31,-2.32 -6.07,-2.32 -8.39,0l-4.2 4.19z"/>
  <path class="fil0" d="M240.19 122.89c2.32,-2.31 2.32,-6.07 0,-8.39 -2.32,-2.32 -6.08,-2.32 -8.39,0 -2.32,2.32 -2.32,6.08 0,8.39l4.2 4.2 4.2 -4.2z"/>
  <path class="fil0" d="M221.31 133.38c2.32,2.31 6.08,2.31 8.4,0l4.2 -4.2 -4.2 -4.2c-2.32,-2.32 -6.08,-2.32 -8.4,0 -2.32,2.32 -2.32,6.07 0,8.39z"/>
  <path class="fil0" d="M231.8 135.47c-2.32,2.32 -2.32,6.08 0,8.39 2.32,2.32 6.07,2.32 8.39,0 2.32,-2.31 2.32,-6.07 0,-8.39l-4.2 -4.19 -4.2 4.19z"/>
  <path class="fil0" d="M238.09 129.18l4.2 4.2c2.32,2.31 6.08,2.31 8.39,0l0 0c2.32,-2.32 2.32,-6.08 0,-8.39l-0 0c-2.31,-2.32 -6.07,-2.32 -8.39,0l-4.2 4.2z"/>
  <path class="fil0" d="M240.19 6.97c-2.32,-2.32 -6.08,-2.32 -8.39,0 -2.32,2.32 -2.32,6.08 0,8.39l4.2 4.2 4.2 -4.2c2.32,-2.32 2.32,-6.07 0,-8.39z"/>
  <path class="fil0" d="M229.71 17.45c-2.32,-2.31 -6.08,-2.31 -8.4,0 -2.32,2.32 -2.32,6.08 0,8.4 2.32,2.32 6.08,2.32 8.4,0l4.2 -4.2 -4.2 -4.2z"/>
  <path class="fil0" d="M231.8 36.34c2.32,2.32 6.07,2.32 8.39,0 2.32,-2.32 2.32,-6.07 0,-8.39l-4.2 -4.2 -4.2 4.2c-2.32,2.32 -2.32,6.07 0,8.39z"/>
  <path class="fil0" d="M250.68 17.45l-0 0c-2.31,-2.31 -6.07,-2.31 -8.39,0l-4.2 4.2 4.2 4.2c2.32,2.32 6.08,2.32 8.39,0l0 0c2.32,-2.32 2.32,-6.08 0,-8.4z"/>
  <path class="fil0" d="M293.96 391.72c2.32,-2.32 2.32,-6.08 0,-8.4 -2.32,-2.31 -6.08,-2.31 -8.39,0 -2.32,2.32 -2.32,6.08 0,8.4l4.2 4.2 4.19 -4.2z"/>
  <path class="fil0" d="M275.07 402.21l0 0c2.32,2.32 6.08,2.32 8.39,0l4.2 -4.2 -4.2 -4.19c-2.32,-2.32 -6.07,-2.32 -8.39,0 -2.32,2.31 -2.32,6.07 0,8.39z"/>
  <path class="fil0" d="M285.56 404.3c-2.32,2.32 -2.32,6.08 0,8.39 2.32,2.32 6.08,2.32 8.39,0 2.32,-2.32 2.32,-6.08 0,-8.39l-4.19 -4.2 -4.2 4.2z"/>
  <path class="fil0" d="M291.86 398.01l4.2 4.2c2.32,2.32 6.08,2.32 8.39,0 2.32,-2.32 2.32,-6.08 0,-8.39 -2.31,-2.32 -6.07,-2.32 -8.39,0l-4.2 4.19z"/>
  <path class="fil0" d="M293.96 284.18c2.32,-2.31 2.32,-6.07 0,-8.39 -2.32,-2.32 -6.08,-2.32 -8.39,0 -2.32,2.32 -2.32,6.08 0,8.39l4.2 4.2 4.19 -4.2z"/>
  <path class="fil0" d="M275.07 294.68l0 0c2.32,2.31 6.08,2.31 8.39,0l4.2 -4.2 -4.2 -4.2c-2.32,-2.32 -6.07,-2.32 -8.39,0 -2.32,2.32 -2.32,6.07 0,8.39z"/>
  <path class="fil0" d="M285.56 296.77c-2.32,2.32 -2.32,6.08 0,8.39 2.32,2.32 6.08,2.32 8.39,0 2.32,-2.32 2.32,-6.07 0,-8.39l-4.19 -4.19 -4.2 4.19z"/>
  <path class="fil0" d="M291.86 290.48l4.2 4.2c2.32,2.31 6.08,2.31 8.39,0 2.32,-2.32 2.32,-6.08 0,-8.39 -2.31,-2.32 -6.07,-2.32 -8.39,0l-4.2 4.2z"/>
  <path class="fil0" d="M293.96 176.66c2.32,-2.32 2.32,-6.07 0,-8.39 -2.32,-2.32 -6.08,-2.32 -8.39,0 -2.32,2.32 -2.32,6.07 0,8.39l4.2 4.2 4.19 -4.2z"/>
  <path class="fil0" d="M275.07 187.15l0 0c2.32,2.32 6.08,2.32 8.39,0l4.2 -4.2 -4.2 -4.2c-2.32,-2.31 -6.07,-2.31 -8.39,0 -2.32,2.32 -2.32,6.08 0,8.4z"/>
  <path class="fil0" d="M285.56 189.24c-2.32,2.31 -2.32,6.07 0,8.39 2.32,2.32 6.08,2.32 8.39,0 2.32,-2.32 2.32,-6.08 0,-8.39l-4.19 -4.2 -4.2 4.2z"/>
  <path class="fil0" d="M291.86 182.95l4.2 4.2c2.32,2.32 6.08,2.32 8.39,0 2.32,-2.32 2.32,-6.08 0,-8.4 -2.31,-2.31 -6.07,-2.31 -8.39,0l-4.2 4.2z"/>
  <path class="fil0" d="M285.56 60.73c-2.32,2.32 -2.32,6.08 0,8.39l4.2 4.19 4.19 -4.19c2.32,-2.32 2.32,-6.08 0,-8.39 -2.32,-2.32 -6.08,-2.32 -8.39,0z"/>
  <path class="fil0" d="M287.66 75.42l-4.2 -4.2c-2.32,-2.32 -6.07,-2.32 -8.39,0 -2.32,2.32 -2.32,6.08 0,8.39 2.32,2.32 6.08,2.32 8.39,0l4.2 -4.2z"/>
  <path class="fil0" d="M285.56 81.71c-2.32,2.32 -2.32,6.08 0,8.4 2.32,2.31 6.08,2.31 8.39,0 2.32,-2.32 2.32,-6.08 0,-8.4l-4.19 -4.19 -4.2 4.19z"/>
  <path class="fil0" d="M291.86 75.42l4.2 4.2c2.32,2.32 6.08,2.32 8.39,0 2.32,-2.31 2.32,-6.07 0,-8.39 -2.31,-2.32 -6.07,-2.32 -8.39,0l-4.2 4.2z"/>
  <path class="fil0" d="M347.72 445.48c2.32,-2.32 2.32,-6.07 0,-8.39 -2.32,-2.32 -6.08,-2.32 -8.39,0 -2.32,2.32 -2.32,6.07 0,8.39l4.2 4.2 4.2 -4.2z"/>
  <path class="fil0" d="M339.45 449.8l-2.22 -2.22c-2.32,-2.31 -6.08,-2.31 -8.39,0 -0.65,0.65 -1.12,1.41 -1.4,2.22l12.01 0z"/>
  <path class="fil0" d="M359.61 449.8c-0.29,-0.81 -0.75,-1.57 -1.4,-2.22 -2.32,-2.31 -6.08,-2.31 -8.39,0l-2.22 2.22 12.01 0z"/>
  <path class="fil0" d="M347.72 337.96c2.32,-2.32 2.32,-6.08 0,-8.39 -2.32,-2.32 -6.08,-2.32 -8.39,0 -2.32,2.32 -2.32,6.07 0,8.39l4.2 4.2 4.2 -4.2z"/>
  <path class="fil0" d="M337.23 348.44l4.2 -4.19 -4.2 -4.2c-2.32,-2.32 -6.08,-2.32 -8.39,0 -2.32,2.32 -2.32,6.08 0,8.39 2.31,2.32 6.07,2.32 8.39,0z"/>
  <path class="fil0" d="M339.33 350.54c-2.32,2.31 -2.32,6.07 0,8.39 2.32,2.32 6.08,2.32 8.39,0 2.32,-2.32 2.32,-6.08 0,-8.39l-4.2 -4.2 -4.2 4.2z"/>
  <path class="fil0" d="M345.62 344.25l4.2 4.19c2.32,2.32 6.07,2.32 8.39,0 2.32,-2.31 2.32,-6.07 0,-8.39 -2.32,-2.32 -6.08,-2.32 -8.39,0l-4.2 4.2z"/>
  <path class="fil0" d="M347.72 230.42c2.32,-2.32 2.32,-6.08 0,-8.4 -2.32,-2.31 -6.08,-2.31 -8.39,0 -2.32,2.32 -2.32,6.08 0,8.4l4.2 4.19 4.2 -4.19z"/>
  <path class="fil0" d="M337.23 240.91l4.2 -4.2 -4.2 -4.19c-2.32,-2.32 -6.08,-2.32 -8.39,0 -2.32,2.32 -2.32,6.07 0,8.39 2.31,2.32 6.07,2.32 8.39,0z"/>
  <path class="fil0" d="M339.33 243c-2.32,2.32 -2.32,6.08 0,8.4 2.32,2.31 6.08,2.31 8.39,0 2.32,-2.32 2.32,-6.08 0,-8.4l-4.2 -4.19 -4.2 4.19z"/>
  <path class="fil0" d="M345.62 236.71l4.2 4.2c2.32,2.32 6.07,2.32 8.39,0 2.32,-2.32 2.32,-6.07 0,-8.39 -2.32,-2.32 -6.08,-2.32 -8.39,0l-4.2 4.19z"/>
  <path class="fil0" d="M347.72 122.89c2.32,-2.31 2.32,-6.07 0,-8.39 -2.32,-2.32 -6.08,-2.32 -8.39,0 -2.32,2.32 -2.32,6.08 0,8.39l4.2 4.2 4.2 -4.2z"/>
  <path class="fil0" d="M341.43 129.18l-4.2 -4.2c-2.32,-2.32 -6.08,-2.32 -8.39,0 -2.32,2.32 -2.32,6.07 0,8.39 2.31,2.31 6.07,2.31 8.39,0l4.2 -4.2z"/>
  <path class="fil0" d="M339.33 135.47c-2.32,2.32 -2.32,6.08 0,8.39 2.32,2.32 6.08,2.32 8.39,0 2.32,-2.31 2.32,-6.07 0,-8.39l-4.2 -4.19 -4.2 4.19z"/>
  <path class="fil0" d="M358.21 124.99l0 0c-2.32,-2.32 -6.08,-2.32 -8.39,0l-4.2 4.2 4.2 4.2c2.32,2.31 6.07,2.31 8.39,0 2.32,-2.32 2.32,-6.08 0,-8.39z"/>
  <path class="fil0" d="M347.72 6.97c-2.32,-2.32 -6.08,-2.32 -8.39,0 -2.32,2.32 -2.32,6.08 0,8.39l4.2 4.2 4.2 -4.2c2.32,-2.32 2.32,-6.07 0,-8.39z"/>
  <path class="fil0" d="M337.23 17.45c-2.32,-2.31 -6.08,-2.31 -8.39,0 -2.32,2.32 -2.32,6.08 0,8.4 2.31,2.32 6.07,2.32 8.39,0l4.2 -4.2 -4.2 -4.2z"/>
  <path class="fil0" d="M339.33 36.34c2.32,2.32 6.08,2.32 8.39,0 2.32,-2.32 2.32,-6.07 0,-8.39l-4.2 -4.2 -4.2 4.2c-2.32,2.32 -2.32,6.07 0,8.39z"/>
  <path class="fil0" d="M358.21 17.45c-2.32,-2.31 -6.08,-2.31 -8.39,0l-4.2 4.2 4.2 4.2c2.32,2.32 6.07,2.32 8.39,0 2.32,-2.32 2.32,-6.08 0,-8.4z"/>
  <path class="fil0" d="M401.49 391.72c2.32,-2.32 2.32,-6.08 0,-8.4 -2.32,-2.31 -6.08,-2.31 -8.39,0 -2.32,2.32 -2.32,6.08 0,8.4l4.2 4.2 4.2 -4.2z"/>
  <path class="fil0" d="M395.2 398.01l-4.2 -4.19c-2.32,-2.32 -6.08,-2.32 -8.39,0 -2.32,2.31 -2.32,6.07 0,8.39 2.32,2.32 6.08,2.32 8.39,0l4.2 -4.2z"/>
  <path class="fil0" d="M393.09 404.3c-2.32,2.32 -2.32,6.08 0,8.39 2.32,2.32 6.07,2.32 8.39,0 2.32,-2.32 2.32,-6.08 0,-8.39l-4.2 -4.2 -4.2 4.2z"/>
  <path class="fil0" d="M411.97 393.82c-2.31,-2.32 -6.07,-2.32 -8.39,0l-4.2 4.19 4.2 4.2c2.32,2.32 6.08,2.32 8.39,0 2.32,-2.32 2.32,-6.08 0,-8.39z"/>
  <path class="fil0" d="M401.49 284.18c2.32,-2.31 2.32,-6.07 0,-8.39 -2.32,-2.32 -6.08,-2.32 -8.39,0 -2.32,2.32 -2.32,6.08 0,8.39l4.2 4.2 4.2 -4.2z"/>
  <path class="fil0" d="M395.2 290.48l-4.2 -4.2c-2.32,-2.32 -6.08,-2.32 -8.39,0 -2.32,2.32 -2.32,6.07 0,8.39 2.32,2.31 6.08,2.31 8.39,0l4.2 -4.2z"/>
  <path class="fil0" d="M393.09 296.77c-2.32,2.32 -2.32,6.08 0,8.39 2.32,2.32 6.07,2.32 8.39,0 2.32,-2.32 2.32,-6.07 0,-8.39l-4.2 -4.19 -4.2 4.19z"/>
  <path class="fil0" d="M411.97 286.28c-2.31,-2.32 -6.07,-2.32 -8.39,0l-4.2 4.2 4.2 4.2c2.32,2.31 6.08,2.31 8.39,0 2.32,-2.32 2.32,-6.08 0,-8.39z"/>
  <path class="fil0" d="M401.49 176.66c2.32,-2.32 2.32,-6.07 0,-8.39 -2.32,-2.32 -6.08,-2.32 -8.39,0 -2.32,2.32 -2.32,6.07 0,8.39l4.2 4.2 4.2 -4.2z"/>
  <path class="fil0" d="M395.2 182.95l-4.2 -4.2c-2.32,-2.31 -6.08,-2.31 -8.39,0 -2.32,2.32 -2.32,6.08 0,8.4 2.32,2.32 6.08,2.32 8.39,0l4.2 -4.2z"/>
  <path class="fil0" d="M393.09 189.24c-2.32,2.31 -2.32,6.07 0,8.39 2.32,2.32 6.07,2.32 8.39,0 2.32,-2.32 2.32,-6.08 0,-8.39l-4.2 -4.2 -4.2 4.2z"/>
  <path class="fil0" d="M411.97 178.75c-2.31,-2.31 -6.07,-2.31 -8.39,0l-4.2 4.2 4.2 4.2c2.32,2.32 6.08,2.32 8.39,0 2.32,-2.32 2.32,-6.08 0,-8.4z"/>
  <path class="fil0" d="M393.09 60.73c-2.32,2.32 -2.32,6.08 0,8.39l4.2 4.19 4.2 -4.19c2.32,-2.32 2.32,-6.08 0,-8.39 -2.32,-2.32 -6.08,-2.32 -8.39,0z"/>
  <path class="fil0" d="M395.2 75.42l-4.2 -4.2c-2.32,-2.32 -6.08,-2.32 -8.39,0 -2.32,2.32 -2.32,6.08 0,8.39 2.32,2.32 6.08,2.32 8.39,0l4.2 -4.2z"/>
  <path class="fil0" d="M393.09 81.71c-2.32,2.32 -2.32,6.08 0,8.4 2.32,2.31 6.07,2.31 8.39,0 2.32,-2.32 2.32,-6.08 0,-8.4l-4.2 -4.19 -4.2 4.19z"/>
  <path class="fil0" d="M399.38 75.42l4.2 4.2c2.32,2.32 6.08,2.32 8.39,0 2.32,-2.31 2.32,-6.07 0,-8.39 -2.31,-2.32 -6.07,-2.32 -8.39,0l-4.2 4.2z"/>
  <path class="fil0" d="M455.25 445.48c2.32,-2.32 2.32,-6.07 0,-8.39 -2.32,-2.32 -6.08,-2.32 -8.4,0 -2.31,2.32 -2.31,6.07 0,8.39l4.2 4.2 4.2 -4.2z"/>
  <path class="fil0" d="M446.98 449.8l-2.22 -2.22c-2.32,-2.31 -6.07,-2.31 -8.39,0 -0.65,0.65 -1.11,1.41 -1.4,2.22l12.01 0z"/>
  <path class="fil0" d="M465.74 447.58c-2.32,-2.31 -6.07,-2.31 -8.39,0l-2.22 2.22 12.01 0c-0.29,-0.81 -0.75,-1.57 -1.4,-2.22z"/>
  <path class="fil0" d="M455.25 337.96c2.32,-2.32 2.32,-6.08 0,-8.39 -2.32,-2.32 -6.08,-2.32 -8.4,0 -2.31,2.32 -2.31,6.07 0,8.39l4.2 4.2 4.2 -4.2z"/>
  <path class="fil0" d="M448.96 344.25l-4.19 -4.2c-2.32,-2.32 -6.07,-2.32 -8.39,0 -2.32,2.32 -2.32,6.08 0,8.39 2.32,2.32 6.07,2.32 8.39,0l4.19 -4.19z"/>
  <path class="fil0" d="M446.85 350.54c-2.31,2.31 -2.31,6.07 0,8.39 2.32,2.32 6.08,2.32 8.4,0 2.32,-2.32 2.32,-6.08 0,-8.39l-4.2 -4.2 -4.2 4.2z"/>
  <path class="fil0" d="M465.74 340.05c-2.32,-2.32 -6.07,-2.32 -8.39,0l-4.2 4.2 4.2 4.19c2.32,2.32 6.07,2.32 8.39,0 2.32,-2.31 2.32,-6.07 0,-8.39z"/>
  <path class="fil0" d="M455.25 230.42c2.32,-2.32 2.32,-6.08 0,-8.4 -2.32,-2.31 -6.08,-2.31 -8.4,0 -2.31,2.32 -2.31,6.08 0,8.4l4.2 4.19 4.2 -4.19z"/>
  <path class="fil0" d="M448.96 236.71l-4.19 -4.19c-2.32,-2.32 -6.07,-2.32 -8.39,0 -2.32,2.32 -2.32,6.07 0,8.39 2.32,2.32 6.07,2.32 8.39,0l4.19 -4.2z"/>
  <path class="fil0" d="M446.85 243c-2.31,2.32 -2.31,6.08 0,8.4 2.32,2.31 6.08,2.31 8.4,0 2.32,-2.32 2.32,-6.08 0,-8.4l-4.2 -4.19 -4.2 4.19z"/>
  <path class="fil0" d="M465.74 232.52c-2.32,-2.32 -6.07,-2.32 -8.39,0l-4.2 4.19 4.2 4.2c2.32,2.32 6.07,2.32 8.39,0 2.32,-2.32 2.32,-6.07 0,-8.39z"/>
  <path class="fil0" d="M455.25 122.89c2.32,-2.31 2.32,-6.07 0,-8.39 -2.32,-2.32 -6.08,-2.32 -8.4,0 -2.31,2.32 -2.31,6.08 0,8.39l4.2 4.2 4.2 -4.2z"/>
  <path class="fil0" d="M448.96 129.18l-4.19 -4.2c-2.32,-2.32 -6.07,-2.32 -8.39,0 -2.32,2.32 -2.32,6.07 0,8.39 2.32,2.31 6.07,2.31 8.39,0l4.19 -4.2z"/>
  <path class="fil0" d="M446.85 135.47c-2.31,2.32 -2.31,6.08 0,8.39 2.32,2.32 6.08,2.32 8.4,0 2.32,-2.31 2.32,-6.07 0,-8.39l-4.2 -4.19 -4.2 4.19z"/>
  <path class="fil0" d="M465.74 124.99l0 0c-2.32,-2.32 -6.07,-2.32 -8.39,0l-4.2 4.2 4.2 4.2c2.32,2.31 6.07,2.31 8.39,0 2.32,-2.32 2.32,-6.08 0,-8.39z"/>
  <path class="fil0" d="M455.25 6.97c-2.32,-2.32 -6.08,-2.32 -8.4,0 -2.31,2.32 -2.31,6.08 0,8.39l4.2 4.2 4.2 -4.2c2.32,-2.32 2.32,-6.07 0,-8.39z"/>
  <path class="fil0" d="M444.76 17.45c-2.32,-2.31 -6.07,-2.31 -8.39,0 -2.32,2.32 -2.32,6.08 0,8.4 2.32,2.32 6.07,2.32 8.39,0l4.19 -4.2 -4.19 -4.2z"/>
  <path class="fil0" d="M446.85 36.34c2.32,2.32 6.08,2.32 8.4,0 2.32,-2.32 2.32,-6.07 0,-8.39l-4.2 -4.2 -4.2 4.2c-2.31,2.32 -2.31,6.07 0,8.39z"/>
  <path class="fil0" d="M465.74 17.45c-2.32,-2.31 -6.07,-2.31 -8.39,0l-4.2 4.2 4.2 4.2c2.32,2.32 6.07,2.32 8.39,0 2.32,-2.32 2.32,-6.08 0,-8.4z"/>
  <path class="fil0" d="M509.01 391.72c2.32,-2.32 2.32,-6.08 0,-8.4 -2.31,-2.31 -6.07,-2.31 -8.39,0 -2.32,2.32 -2.32,6.08 0,8.4l4.2 4.2 4.2 -4.2z"/>
  <path class="fil0" d="M502.72 398.01l-4.2 -4.19c-2.32,-2.32 -6.08,-2.32 -8.39,0 -2.32,2.31 -2.32,6.07 0,8.39 2.32,2.32 6.08,2.32 8.39,0l4.2 -4.2z"/>
  <path class="fil0" d="M500.62 404.3c-2.32,2.32 -2.32,6.08 0,8.39 2.32,2.32 6.08,2.32 8.39,0 2.32,-2.32 2.32,-6.08 0,-8.39l-4.2 -4.2 -4.2 4.2z"/>
  <path class="fil0" d="M519.51 393.82c-2.32,-2.32 -6.08,-2.32 -8.4,0l-4.2 4.19 4.2 4.2c2.32,2.32 6.08,2.32 8.4,0 2.31,-2.32 2.31,-6.08 0,-8.39z"/>
  <path class="fil0" d="M509.01 284.18c2.32,-2.31 2.32,-6.07 0,-8.39 -2.31,-2.32 -6.07,-2.32 -8.39,0 -2.32,2.32 -2.32,6.08 0,8.39l4.2 4.2 4.2 -4.2z"/>
  <path class="fil0" d="M502.72 290.48l-4.2 -4.2c-2.32,-2.32 -6.08,-2.32 -8.39,0 -2.32,2.32 -2.32,6.07 0,8.39 2.32,2.31 6.08,2.31 8.39,0l4.2 -4.2z"/>
  <path class="fil0" d="M500.62 296.77c-2.32,2.32 -2.32,6.08 0,8.39 2.32,2.32 6.08,2.32 8.39,0 2.32,-2.32 2.32,-6.07 0,-8.39l-4.2 -4.19 -4.2 4.19z"/>
  <path class="fil0" d="M519.51 286.28c-2.32,-2.32 -6.08,-2.32 -8.4,0l-4.2 4.2 4.2 4.2c2.32,2.31 6.08,2.31 8.4,0 2.31,-2.32 2.31,-6.08 0,-8.39z"/>
  <path class="fil0" d="M509.01 176.66c2.32,-2.32 2.32,-6.07 0,-8.39 -2.31,-2.32 -6.07,-2.32 -8.39,0 -2.32,2.32 -2.32,6.07 0,8.39l4.2 4.2 4.2 -4.2z"/>
  <path class="fil0" d="M502.72 182.95l-4.2 -4.2c-2.32,-2.31 -6.08,-2.31 -8.39,0 -2.32,2.32 -2.32,6.08 0,8.4 2.32,2.32 6.08,2.32 8.39,0l4.2 -4.2z"/>
  <path class="fil0" d="M500.62 189.24c-2.32,2.31 -2.32,6.07 0,8.39 2.32,2.32 6.08,2.32 8.39,0 2.32,-2.32 2.32,-6.08 0,-8.39l-4.2 -4.2 -4.2 4.2z"/>
  <path class="fil0" d="M519.51 178.75c-2.32,-2.31 -6.08,-2.31 -8.4,0l-4.2 4.2 4.2 4.2c2.32,2.32 6.08,2.32 8.4,0 2.31,-2.32 2.31,-6.08 0,-8.4z"/>
  <path class="fil0" d="M500.62 60.73c-2.32,2.32 -2.32,6.08 0,8.39l4.2 4.19 4.2 -4.19c2.32,-2.32 2.32,-6.08 0,-8.39 -2.31,-2.32 -6.07,-2.32 -8.39,0z"/>
  <path class="fil0" d="M502.72 75.42l-4.2 -4.2c-2.32,-2.32 -6.08,-2.32 -8.39,0 -2.32,2.32 -2.32,6.08 0,8.39 2.32,2.32 6.08,2.32 8.39,0l4.2 -4.2z"/>
  <path class="fil0" d="M500.62 81.71c-2.32,2.32 -2.32,6.08 0,8.4 2.32,2.31 6.08,2.31 8.39,0 2.32,-2.32 2.32,-6.08 0,-8.4l-4.2 -4.19 -4.2 4.19z"/>
  <path class="fil0" d="M506.91 75.42l4.2 4.2c2.32,2.32 6.08,2.32 8.4,0 2.31,-2.31 2.31,-6.07 0,-8.39 -2.32,-2.32 -6.08,-2.32 -8.4,0l-4.2 4.2z"/>
  <path class="fil0" d="M562.78 445.48c2.31,-2.32 2.31,-6.07 0,-8.39 -2.32,-2.32 -6.08,-2.32 -8.39,0 -2.32,2.32 -2.32,6.07 0,8.39l4.19 4.2 4.2 -4.2z"/>
  <path class="fil0" d="M554.51 449.8l-2.22 -2.22c-2.31,-2.31 -6.07,-2.31 -8.39,0 -0.65,0.65 -1.11,1.41 -1.4,2.22l12.01 0z"/>
  <path class="fil0" d="M573.27 447.58c-2.31,-2.31 -6.07,-2.31 -8.39,0l-2.22 2.22 12.01 0c-0.29,-0.81 -0.75,-1.57 -1.4,-2.22z"/>
  <path class="fil0" d="M562.78 337.96c2.31,-2.32 2.31,-6.08 0,-8.39 -2.32,-2.32 -6.08,-2.32 -8.39,0 -2.32,2.32 -2.32,6.07 0,8.39l4.19 4.2 4.2 -4.2z"/>
  <path class="fil0" d="M556.49 344.25l-4.2 -4.2c-2.31,-2.32 -6.07,-2.32 -8.39,0 -2.32,2.32 -2.32,6.08 0,8.39 2.32,2.32 6.08,2.32 8.39,0l4.2 -4.19z"/>
  <path class="fil0" d="M554.39 350.54c-2.32,2.31 -2.32,6.07 0,8.39 2.32,2.32 6.07,2.32 8.39,0 2.31,-2.32 2.31,-6.08 0,-8.39l-4.2 -4.2 -4.19 4.2z"/>
  <path class="fil0" d="M573.27 340.05c-2.31,-2.32 -6.07,-2.32 -8.39,0l-4.2 4.2 4.2 4.19c2.32,2.32 6.08,2.32 8.39,0 2.32,-2.31 2.32,-6.07 0,-8.39z"/>
  <path class="fil0" d="M562.78 230.42c2.31,-2.32 2.31,-6.08 0,-8.4 -2.32,-2.31 -6.08,-2.31 -8.39,0 -2.32,2.32 -2.32,6.08 0,8.4l4.19 4.19 4.2 -4.19z"/>
  <path class="fil0" d="M556.49 236.71l-4.2 -4.19c-2.31,-2.32 -6.07,-2.32 -8.39,0 -2.32,2.32 -2.32,6.07 0,8.39 2.32,2.32 6.08,2.32 8.39,0l4.2 -4.2z"/>
  <path class="fil0" d="M554.39 243c-2.32,2.32 -2.32,6.08 0,8.4 2.32,2.31 6.07,2.31 8.39,0 2.31,-2.32 2.31,-6.08 0,-8.4l-4.2 -4.19 -4.19 4.19z"/>
  <path class="fil0" d="M573.27 232.52c-2.31,-2.32 -6.07,-2.32 -8.39,0l-4.2 4.19 4.2 4.2c2.32,2.32 6.08,2.32 8.39,0 2.32,-2.32 2.32,-6.07 0,-8.39z"/>
  <path class="fil0" d="M562.78 122.89c2.31,-2.31 2.31,-6.07 0,-8.39 -2.32,-2.32 -6.08,-2.32 -8.39,0 -2.32,2.32 -2.32,6.08 0,8.39l4.19 4.2 4.2 -4.2z"/>
  <path class="fil0" d="M556.49 129.18l-4.2 -4.2c-2.31,-2.32 -6.07,-2.32 -8.39,0 -2.32,2.32 -2.32,6.07 0,8.39 2.32,2.31 6.08,2.31 8.39,0l4.2 -4.2z"/>
  <path class="fil0" d="M554.39 135.47c-2.32,2.32 -2.32,6.08 0,8.39 2.32,2.32 6.07,2.32 8.39,0 2.31,-2.31 2.31,-6.07 0,-8.39l-4.2 -4.19 -4.19 4.19z"/>
  <path class="fil0" d="M573.27 124.99l0 0c-2.31,-2.32 -6.07,-2.32 -8.39,0l-4.2 4.2 4.2 4.2c2.32,2.31 6.08,2.31 8.39,0 2.32,-2.32 2.32,-6.08 0,-8.39z"/>
  <path class="fil0" d="M562.78 6.97c-2.32,-2.32 -6.08,-2.32 -8.39,0 -2.32,2.32 -2.32,6.08 0,8.39l4.19 4.2 4.2 -4.2c2.31,-2.32 2.31,-6.07 0,-8.39z"/>
  <path class="fil0" d="M552.29 17.45c-2.31,-2.31 -6.07,-2.31 -8.39,0 -2.32,2.32 -2.32,6.08 0,8.4 2.32,2.32 6.08,2.32 8.39,0l4.2 -4.2 -4.2 -4.2z"/>
  <path class="fil0" d="M554.39 36.34c2.32,2.32 6.07,2.32 8.39,0 2.31,-2.32 2.31,-6.07 0,-8.39l-4.2 -4.2 -4.19 4.2c-2.32,2.32 -2.32,6.07 0,8.39z"/>
  <path class="fil0" d="M573.27 17.45c-2.31,-2.31 -6.07,-2.31 -8.39,0l-4.2 4.2 4.2 4.2c2.32,2.32 6.08,2.32 8.39,0 2.32,-2.32 2.32,-6.08 0,-8.4z"/>
  <path class="fil0" d="M616.55 391.72c2.32,-2.32 2.32,-6.08 0,-8.4 -2.32,-2.31 -6.08,-2.31 -8.4,0 -2.31,2.32 -2.31,6.08 0,8.4l4.2 4.2 4.2 -4.2z"/>
  <path class="fil0" d="M610.25 398.01l-4.2 -4.19c-2.32,-2.32 -6.08,-2.32 -8.39,0 -2.32,2.31 -2.32,6.07 0,8.39 2.32,2.32 6.07,2.32 8.39,0l4.2 -4.2z"/>
  <path class="fil0" d="M608.15 404.3c-2.31,2.32 -2.31,6.08 0,8.39 2.32,2.32 6.08,2.32 8.4,0 2.32,-2.32 2.32,-6.08 0,-8.39l-4.2 -4.2 -4.2 4.2z"/>
  <path class="fil0" d="M616.55 284.18c2.32,-2.31 2.32,-6.07 0,-8.39 -2.32,-2.32 -6.08,-2.32 -8.4,0 -2.31,2.32 -2.31,6.08 0,8.39l4.2 4.2 4.2 -4.2z"/>
  <path class="fil0" d="M610.25 290.48l-4.2 -4.2c-2.32,-2.32 -6.08,-2.32 -8.39,0 -2.32,2.32 -2.32,6.07 0,8.39 2.32,2.31 6.07,2.31 8.39,0l4.2 -4.2z"/>
  <path class="fil0" d="M608.15 296.77c-2.31,2.32 -2.31,6.08 0,8.39 2.32,2.32 6.08,2.32 8.4,0 2.32,-2.32 2.32,-6.07 0,-8.39l-4.2 -4.19 -4.2 4.19z"/>
  <path class="fil0" d="M616.55 176.66c2.32,-2.32 2.32,-6.07 0,-8.39 -2.32,-2.32 -6.08,-2.32 -8.4,0 -2.31,2.32 -2.31,6.07 0,8.39l4.2 4.2 4.2 -4.2z"/>
  <path class="fil0" d="M610.25 182.95l-4.2 -4.2c-2.32,-2.31 -6.08,-2.31 -8.39,0 -2.32,2.32 -2.32,6.08 0,8.4 2.32,2.32 6.07,2.32 8.39,0l4.2 -4.2z"/>
  <path class="fil0" d="M608.15 189.24c-2.31,2.31 -2.31,6.07 0,8.39 2.32,2.32 6.08,2.32 8.4,0 2.32,-2.32 2.32,-6.08 0,-8.39l-4.2 -4.2 -4.2 4.2z"/>
  <path class="fil0" d="M616.55 69.13c2.32,-2.32 2.32,-6.08 0,-8.39 -2.32,-2.32 -6.08,-2.32 -8.4,0 -2.31,2.32 -2.31,6.08 0,8.39l4.2 4.19 4.2 -4.19z"/>
  <path class="fil0" d="M610.25 75.42l-4.2 -4.2c-2.32,-2.32 -6.08,-2.32 -8.39,0 -2.32,2.32 -2.32,6.08 0,8.39 2.32,2.32 6.07,2.32 8.39,0l4.2 -4.2z"/>
  <path class="fil0" d="M608.15 81.71c-2.31,2.32 -2.31,6.08 0,8.4 2.32,2.31 6.08,2.31 8.4,0 2.32,-2.32 2.32,-6.08 0,-8.4l-4.2 -4.19 -4.2 4.19z"/>
 </g>
</svg>
