<svg width="143" height="192" fill="none" xmlns="http://www.w3.org/2000/svg"><g opacity=".9" clip-path="url(#clip0)" fill="#2E4BF5"><path opacity=".2" d="M4.002 6.85c-2.1-1.037-4.894.165-3.73 2.9 1.251 2.932 5.867 2.97 8.478 2.91-.26-.012-1.1-2.701-1.39-3.11-.845-1.197-2.07-2.064-3.358-2.7zM1.979 20.106c-1.228.935-1.284 2.583-.281 3.7 1.194 1.33 3.375 1.279 5 1.151.738-.06 4.668-.373 3.733-1.01.073.025.222.093.38.182.085.314.175.624.273.939-.021.012-.043.03-.068.042.025-.012.046-.025.068-.038a35.892 35.892 0 0 0 4.053 8.84 8.328 8.328 0 0 0-2.035-.54c-2.052-.259-6.366 1.33-4.07 4.049 2.197 2.604 5.623-.191 8.119-.574 2.419 3.365 5.09 6.589 7.888 9.703a.686.686 0 0 0-.41.34c-1.122-.565-2.29-1.377-3.331-1.598-1.498-.314-4.574-.51-5.705.829-1.395 1.644.098 2.977 1.745 3.292 2.385.459 5.512-.705 7.808-1.487.264.047.55-.03.72-.238a2.89 2.89 0 0 1 .15-.047c2.833 3.101 5.773 6.1 8.695 9.032-.03 0-.064-.005-.094-.005-.764-.497-1.578-.904-2.466-1.121-2.052-.497-4.462-.501-6.126.977-1.66 1.47-2.244 4.044-.53 5.697 3.435 3.304 8.49-4.232 10.223-4.55 2.97 2.948 6.11 5.705 9.3 8.402a5.492 5.492 0 0 0-1.117-.225c-3.128-.297-10.47 3.522-6.635 7.277 3.345 3.275 7.22-3.029 9.916-5.233 3.007 2.514 6.028 5.016 8.968 7.612-1.605-.425-3.153-.484-4.868.03-1.78.535-4.646 1.873-3.52 4.26 1.143 2.43 4.586 1.326 6.382.553.977-.42 2.94-1.84 4.663-2.439 4.69 4.405 8.75 9.26 11.822 14.979 1.92 3.568 3.375 7.383 4.4 11.304.652 2.502 1.945 6.703 1.684 9.961 1.23-6.521-.994-14.35-3.391-20.174-2.202-5.356-5.5-10.063-9.365-14.294.968-2.901 9.126-7.09 4.25-9.787-2.59-1.428-5.244.938-5.807 3.445-.389 1.72.205 3.887.832 5.556a78.387 78.387 0 0 0-3.78-3.747 199.1 199.1 0 0 0-5.5-4.89c3.064-2.866 5.965-11.056 1.856-12.399-6.067-1.971-3.144 9.201-2.722 11.3a.33.33 0 0 0 .282-.106 9.46 9.46 0 0 1-.124.603c-3.558-3.046-7.172-6.032-10.662-9.155.316-.233.815-1.117 1.208-1.588.887-1.062 1.736-2.171 2.355-3.412.981-1.962 1.924-5.093-.674-6.248-2.825-1.258-4.168 2.28-4.19 4.396-.013 1.462.388 2.85.593 4.282.064.446-.183 2.46.427 1.593a3.83 3.83 0 0 0-.017.714c-.627-.565-1.25-1.13-1.869-1.703a.72.72 0 0 0 .056-.243c.034-.628-.602-.87-1.05-.688a125.841 125.841 0 0 1-2.419-2.349 351.054 351.054 0 0 1-5.081-5.2c.367-.314.222-.751.563-1.083.341-.331 1.02-.518 1.42-.828 1.016-.777 1.856-1.912 2.467-3.029 1.006-1.843 2.303-5.713-.632-6.593-3.025-.909-4.56 2.817-4.757 5.145-.038.45.303 4.515.563 5.993-3.135-3.296-6.216-6.715-9.01-10.199.849-.008 3.247-1.737 3.733-2.209 1.186-1.151 3.067-3.691.99-5.034-1.848-1.193-4.122.536-4.91 2.213-.129.277-.59 2.85-.624 4.006a89.439 89.439 0 0 1-3.285-4.447 45.152 45.152 0 0 1-1.924-3.046c.145-.08.282-.225.41-.4 3.08-.522 7.005-5.305 3.387-6.97-1.724-.79-3.588.84-4.433 2.179-.175.272-.452 1.648-.682 2.736-1.72-3.437-3.038-7.077-4.036-10.811a.672.672 0 0 0 .524-.62c1.494-.85 2.675-1.556 3.72-3.187.65-1.015 1.818-3.33-.089-3.89-2.479-.731-4.036 3.037-4.24 4.893-.026.216-.022.84-.014 1.419a.89.89 0 0 0-.26.004 81.776 81.776 0 0 1-1.386-6.996c1.352-.434 1.587-7.51.687-8.518C8.089-1.468 6.668 1.79 6.775 3.515c.128 2.03 1.05 3.878 2.15 5.518.12.174.085.165.115-.077a.486.486 0 0 0 .115.272c-.055 1.07-.166 2.162-.115 3.11.154 2.71.47 5.433.93 8.109.111.65.24 1.296.384 1.937-1.088-.922-2.555-1.742-3.127-2-1.472-.685-3.767-1.403-5.248-.277zm74.913 94.046c-.068.943-.238 1.81-.558 2.523.239-.811.422-1.656.558-2.523z"/><path opacity=".4" d="M44.576 81.674c5.824-.302 13.03 3.084 13.648 9.388.453 4.58.312 9.146 1.011 13.721.56 3.653 1.741 7.162 3.354 10.492 1.548 3.203 4.761 5.926 5.597 9.346.533 2.179.235 5.246-.499 7.379-.892 2.591-.418 2.387 1.361 4.562 3.49 4.261 6.63 8.632 8.853 13.725 3.2 7.332 5.299 15.905 4.108 23.929-.15 1.02-.328 4.677-1.74 4.932-1.575.285-.837-1.806-.756-2.481.538-4.312 1.011-8.08.367-12.459-2.491-16.894-14.663-28.024-22.59-42.365-.435-.739-1.357-2.502-1.997-3.662-1.01-1.835-2.026-5.323-3.392-6.682-2.572-2.562-.209 2.587.295 3.572.636 1.245 1.331 2.566 1.984 3.654 2.973 5.051 6.293 10.564 9.364 15.772-13.28 3.012-22.637-12.888-26.2-23.338-2.939-8.615-6.454-28.75 7.232-29.485z"/><path opacity=".4" d="M123.043 54.489c-9.736.768-15.986 7.166-18.895 16.112-1.571 4.822-1.75 9.775-2.62 14.732-1.31 7.455-4.13 13.105-9.646 18.415-1.707 1.644-2.965 3.335-3.861 5.14-1.775 1.806-3.324 3.845-4.459 6.342-1.45 3.186-1.86 7.014-.187 10.191.452.854 1.574 2.57 2.739 3.348-4.36 9.243-6.754 19.366-6.485 29.476.162 6.105.46 12.209.81 18.305.094 1.635.632 4.341 1.434 1.593.734-2.511-.188-6.453-.273-9.074-.414-12.778-.772-24.396 4.514-36.337a94.837 94.837 0 0 1 1.753-3.725c.034-.022.068-.047.102-.068.022.017.043.038.069.055.038-.068.094-.153.153-.242.175-.179.329-.408.474-.663.47-.646.998-1.406 1.002-1.822v-.013c3.273-5.314 7.019-10.34 10.841-15.263-.03.034 4.151-5.629 3.503-2.498-.311 1.508-3.383 4.384-4.625 5.985-2.747 3.56-5.973 8.067-8.652 12.426-.363.208-.87 1.219-1.237 1.975-.205.382-.393.769-.58 1.105 9.496 3.122 16.882-3.169 21.92-10.489.004-.008.013-.017.017-.025 1.532-2.022 3.102-4.031 5.064-5.629 3.273-2.667 6.78-3.139 10.636-4.452 10.521-3.581 14.997-17.157 16.417-27.233 1.605-11.36-6.237-28.789-19.928-27.667z"/><path d="M103.367 28.378c-9.992 10.357-14.821 24.72-18.644 38.224-4.27 15.08-7.09 30.398-7.197 46.077-.073 10.302-.355 20.671.251 30.96.214 3.653.58 7.315 1.16 10.93.048.297 1.349 8.368 2.595 6.486.708-1.07-1.336-8.373-1.49-9.592-.865-6.852-1.07-13.755-1.028-20.658.069-11.363-.268-22.667.892-33.992.17-1.69.307-3.466.713-5.119.426-1.758-.115-.99 1.275-1.686 1.357-.676 3.03-.582 4.437-1.427 5.576-3.37 8.43-12.018 10.65-17.693 2.538-6.491 4.082-13.411 5.315-20.242a142.318 142.318 0 0 0 1.92-15.089c.115-1.601.124-3.275.439-4.85.086-.426.512-1.178.5-1.556-.035-.794-.517-1.266-.555-1.933-.418.383-.832.765-1.233 1.16z"/><path d="M48.92 161.207c0 17.128 13.942 31.01 31.144 31.01 17.202 0 31.144-13.882 31.144-31.01"/><path d="M82.564 161.305h-1.647c.115-2.056.264-4.108.61-6.143 1.318-7.773 5.448-19.192 14.501-20.458.333-.047 1.562-.055 3.05.034a5.546 5.546 0 0 1 2.33-.684c7.71-.565 16.315 5.625 20.035 12.069 2.999 5.195 2.492 12.017.64 17.535-1.241 3.696-3.946 8.964-8.456 9.015-5.644.063-5.917-6.882-6.028-10.943-.145-5.399-.832-10.102-5.103-13.785-.994-.858-2.086-1.61-3.089-2.455-1.574-1.326-3.314-2.676-3.52-4.868-.28-3.021 1.434-3.564 4.05-3.004.443.094 4.936 2.103 4.27.514-.205-.484-.943-.866-1.881-1.155-2.42-.264-5.308-.565-6.14-.387-8.959 1.959-12.445 14.312-13.37 22.162-.103.85-.184 1.699-.252 2.553z"/></g><defs><clipPath id="clip0"><path fill="#fff" d="M0 0h143v192H0z"/></clipPath></defs></svg>